<svg xmlns="http://www.w3.org/2000/svg" xmlns:xlink="http://www.w3.org/1999/xlink" viewBox="0 0 74.8 74.8"><defs><style>.cls-1{opacity:0;}.cls-2,.cls-6{fill:#fff;}.cls-3{fill:url(#radial-gradient);}.cls-4{fill:#3c0;}.cls-5{fill:url(#radial-gradient-2);}.cls-6{fill-rule:evenodd;opacity:0.9;}.cls-7{fill:url(#linear-gradient);}</style><radialGradient id="radial-gradient" cx="37.4" cy="62.33" r="19.47" gradientTransform="translate(0 54) scale(1 0.13)" gradientUnits="userSpaceOnUse"><stop offset="0"/><stop offset="0.32" stop-color="#231f20" stop-opacity="0.6"/><stop offset="1" stop-opacity="0"/></radialGradient><radialGradient id="radial-gradient-2" cx="37.4" cy="37.4" r="24.93" gradientUnits="userSpaceOnUse"><stop offset="0.64" stop-opacity="0"/><stop offset="0.95" stop-color="#231f20" stop-opacity="0.29"/><stop offset="1" stop-opacity="0.5"/></radialGradient><linearGradient id="linear-gradient" x1="37.4" y1="39.33" x2="37.4" y2="13.47" gradientUnits="userSpaceOnUse"><stop offset="0" stop-color="#fff" stop-opacity="0"/><stop offset="1" stop-color="#fff" stop-opacity="0.7"/></linearGradient></defs><title>orb-otherprograms-wtext</title><g id="Layer_2" data-name="Layer 2"><g id="Layer_1-2" data-name="Layer 1"><g id="orb-otherprograms-wtext"><g class="cls-1"><circle class="cls-2" cx="37.4" cy="37.4" r="37.4"/></g><ellipse class="cls-3" cx="37.4" cy="62.33" rx="21.95" ry="3.59"/><circle class="cls-4" cx="37.4" cy="37.4" r="24.93"/><circle class="cls-5" cx="37.4" cy="37.4" r="24.93"/><polygon class="cls-6" points="25.74 46.34 36.6 57.4 29.98 47.83 30.03 47.85 28.99 46.39 30.48 43.85 30.24 40.85 29.15 40.16 31.44 33.06 27.32 41 28.14 43.28 28.93 40.81 28.74 46.03 28.54 45.76 27.11 43.69 27.09 43.72 27.08 43.71 22.36 43.27 15.76 36.67 21.13 44.72 25.74 46.34"/><polygon class="cls-6" points="22.04 41.66 25.41 40.32 26.89 41.03 27.68 39.42 25.34 38.79 25.33 38.79 18.48 36.97 24.23 39.75 22.04 41.66"/><polygon class="cls-6" points="41.89 44.44 45.34 39.82 46.15 42.87 50.69 44.96 54.56 53.41 52.35 44.05 47.82 40.28 53.54 27.72 46.53 38.1 46.66 39.32 46.08 38.84 46.44 38.35 45.83 38.63 44.79 37.77 45.11 38.97 42.74 40.06 41.33 42.51 41.25 42.53 40.54 41.1 40.22 42.81 39.39 43.03 39.71 43.97 37.22 45.75 39.28 45.56 37.7 48.23 39.47 46.75 38.3 52.94 40.68 46.82 42.83 53.18 41.63 44.35 41.73 44.11 41.89 44.44"/><path class="cls-6" d="M45.4,25.15l-2-.08,0-.19,8.18-6.43L42,23.32,41.12,25,36,24.77l-.14.14-1.13-1.64-4.87.07,5.66,1.91-1.23,1.22,3.25-.38-.76.86-.82-.39-3.73.29,3.4,1.4-3.09,3.49,2,.25,1.81-3.44,2.43,1,0,.1.93.72L34.82,43.78,44,27.61l-1.28-.08.61-2.13Zm-6.25,3.61-.08-.68-2-1,.55-1,3.15-.37Z"/><ellipse class="cls-7" cx="37.4" cy="26.4" rx="18.29" ry="12.93"/><path class="cls-4" d="M2.3,48.45a.2.2,0,0,0,.11-.2q-.15,0-.18,0v0l0,0,0,0,0-.08a2,2,0,0,1,.33-1.86A2.51,2.51,0,0,1,4.08,45L4.19,45h.17l.73-.26.43-.14L7.08,44l.28,0v0l.05,0,.16,0,0-.06,0,0,.19-.06c1.52-.46,2.3-.62,2.35-.46a1.43,1.43,0,0,1,1.05.19l0,.12s0,.1-.16.18H11l-.26.13,0,.08.07,0,0,0,.38-.16.31-.1.28.22.1,0v0l-.11,0v0l.22,0,0,.07-.26.13,0,.08.11,0,.21,0,0,.12-.08,0-.26.12-.06,0,0,0v0a1,1,0,0,1,.58-.05l0,.18.11.05v.21l.05,0a3.06,3.06,0,0,1,0,1.45,2.75,2.75,0,0,1-1.66,1.58l-.22,0-.25.17-.33.06c-.13,0-.19.08-.17.13l-.05,0h0L8.4,49l-.33.06-.41.17-1.81.56a.19.19,0,0,0-.16-.12l-.05,0a.11.11,0,0,0-.09.15h0l-.11,0-.26.12-.16,0a2.21,2.21,0,0,1-2.16-.62A2.25,2.25,0,0,1,2.3,48.45Zm1-.4.05-.11L3.24,48Zm.31-1,.07,0v0l-.08,0Zm.07,1.65.12,0-.1-.06,0,.05Zm.74-.82,1.8-.56,0,0,0,0,.55-.17.14,0,.08,0,0-.08,1.05-.37h.26l.34-.15h0l.21,0,.22-.11.21,0,.42-.17.23-.08h.17q.67-.3.6-.57c-.07-.2-.26-.27-.58-.2l0,0,0-.08-.15,0v0l.05,0v0l0,0h0l-.81.17,0,.05h0l-.05,0h0L9,45.78l-.41,0-.09.12-.25,0-2.11.69-2,.63,0,0,0-.08H4l-.19.1,0,.08.15,0,0,0c0,.06,0,.12-.2.19l0,.12,0,0v.13A.59.59,0,0,0,4.46,47.92Zm-.13,1c.15-.07.21-.14.2-.19l-.16,0,0,.1Zm.18-.4.12,0,0-.08h0Zm.54.65.2-.06,0-.08L5,49.07Zm.2-.32.32-.1,0,0-.1-.06-.16,0,0,.1Zm0-.57.08,0,0-.1-.15,0Zm.12,1.08.12,0,.18-.1,0-.08-.32.09Zm.07-1.44.28-.08,0-.08-.27.08Zm.16,1.63,0-.05,0,0-.11,0ZM5.72,49l.21,0,0-.06,0-.07-.24.07ZM6,46.55l.08,0,0-.08-.08,0Zm0,2.56h0L6.21,49h.13l0,0v0L6.08,49Zm.42-3,.08,0,0-.07-.08,0Zm.09,2.5h0l0-.08,0,0Zm.14-2.87.16-.05-.1-.06ZM7,45.69l.23-.07,0-.08h0l-.18.1Zm.1,1.6.08,0v0l-.08,0Zm.23,1.86,0,0h0l.06-.11L7.32,49h0Zm.13-1.67.16,0,0-.08-.07,0Zm.11.22.75-.22v0l-.06,0v0l-.46.18-.23.08Zm0,1.37.07,0v0l-.08,0Zm.65-.93.12,0v0L8.22,48l-.08,0Zm.13-3.78h0l0-.1-.11,0Zm.11,1,.11,0-.1-.06,0,0Zm.08-.28.12,0,0-.1L8.51,45Zm.09,3.36.08,0v0l-.08,0Zm.17-2.93.16,0v0l-.16.05Zm.52,2.68.08,0,0-.08-.08,0Zm.47.11.08,0v0l-.08,0Zm.73-.83.08,0,0-.08-.08,0Zm0-2.28.12,0,0,0-.11,0Zm.05,2.82.2-.06-.11-.06,0,0Zm.16-.61.05-.1-.16,0Zm0-3.09.08,0v0l-.08,0Zm.07.8h0l.06-.11-.05,0h0Zm0,2.81.24-.07.05-.1-.23.07ZM11,45.35l.08,0,.06-.1-.08,0Zm.11-.9.08,0,0-.08-.08,0Zm.05,1.41.16,0,0-.11-.23.08Zm.27-1,.19,0,0-.08-.2.06Zm.08.28h0l.06-.11-.2.07Zm.19-.1.4-.08.15-.09,0,0-.2,0-.19.1h-.13l0,0Z"/><path class="cls-4" d="M.66,40.83l0,0,.12,0,.44-.12v-.13l-.21,0-.36.12,0,0,0-.16,0-.17L.58,40l-.14-1.6.2-.06,1.63-.15.21,0a4.62,4.62,0,0,1,0,1l0,.16,0,0a1.58,1.58,0,0,0,.82,0v0c.08,0,.13,0,.13.11l.13,0v-.08h.08l.24-.07.34.14v.08c-.21,0-.32.1-.31.15v0H4v0l0,0,.37,0,.09.07q-.12,0-.12.09c0,.07.08.1.22.11v0l-.28.11h-.2v.09s.1.08.3.09a.1.1,0,0,0,.13.11v0l-.26.28.29.05v0l-.12,0,0,0H4.33L4.22,41l-.33,0v.12l.29,0v.2l.21,0,.06-.21h0c0,.08.07.14.19.19l.61-.06c.16,0,.24-.08.23-.14s-.21,0-.21-.07l-.2.06L5,41.1v0L5,41l.2,0v-.08H4.9v0s.07-.11.23-.19v0H4.75v-.12l0,0h0l.07-.09v0l-.28.07,0-.16.05,0h0s.11-.1.35-.16l0,0h0l.65-.11H6v0l-.09-.08h0L5.44,40H5.2v-.09l.28-.06h.12v-.09l-.2,0-.13-.11.19-.1v0l-.29-.06v-.08c.18-.06.28-.11.27-.15l.34.06.64-.15.05,0,.48-.08L8.15,39h.37l.41-.08,1.75-.16.14.11.18,2-.07.13,0,0-.48.09-3.64.34H6.31l-.2,0,0,0H6l-.11.05a1.46,1.46,0,0,0-.76-.09,1.54,1.54,0,0,1-.55.21l-.13,0-1.64.11v-.08l.12,0,0,0H3l.28-.15.12,0v-.08H3.3l-.21,0v-.08l.24-.06v-.09l-.21,0h0S3,41.2,3,41.36H2.93v0l-.14-.07-.27.19v-.09h0l0-.05v-.08l-.06-.16.1-.25-.23-.27,0-.17H2.23l-.07.09.09.12-.07.17,0,0v0l0,.12.09.08v0l-.16,0-.05,0v.08l-.25,0c-.24.07-.35.14-.35.2l-.17-.07c0,.16-.17.26-.55.3v-.08l.08-.09.2,0v-.08l-.24,0v-.08L1,41.25l0-.12-.16,0v0c0-.06.13-.1.4-.12l-.09-.08L.88,41c0-.06-.06-.08-.17-.07l0,0ZM.89,43,1,42.86l.37,0v0l-.13-.11.07-.17c-.28,0-.42,0-.42,0s.11-.1.36-.15v0c-.24,0-.37,0-.37-.05v-.08l.2-.06V42H.8v-.12H1c.32-.1.47-.18.47-.25q.27.07.3.18l-.07.08-.21,0V42l.33,0A.31.31,0,0,1,2,42c0,.11-.06.17-.14.17l-.13,0,0,0v0h.41L2,42.4l-.05,0-.12,0v.08h0L2,42.44l.25,0,.07-.09,0-.16h0l.25,0,.16-.06v.09l-.2.1-.17,0v.12l.41,0v.12l-.57,0v.12h.12v.08l-.28.11-.12,0v0c0-.05.06-.09.2-.1v-.12l-.29-.06-.11.18v.12c.08,0,.12,0,.13.07v0h0l-.17-.11c0,.06-.1.12-.31.19l-.17,0v0C1,43,.9,43,.89,43Zm0-.24v-.05h.16v0Zm.91.41v0L1.89,43H2v.12Zm.2,0V43h.08v0l.21,0v.08Zm.15-3.31h.12v0H2.16Zm.05-.34H2.3v0H2.22Zm0,2.23.07-.09h0l0,0,0,0h.12l.21,0v0l-.11.13-.25-.06-.12,0-.05,0Zm.13,1.38v-.12c.13,0,.19-.08.18-.22l.2-.06h.08l.07.28L2.8,43Zm.14-1.12.12-.09h0l.09.08V42l-.16,0Zm.16-1.37.13,0v-.08h0l.13.07a.62.62,0,0,1,.36-.12v0H3.05l-.41.08Zm0,.4.12,0v0H2.72Zm.14-.71H3l.11-.14L3,40H2.89ZM3,40v-.12H2.87v0Zm0,.95.13,0,.12,0v0c-.11,0-.16,0-.17-.07l.07-.13H3S3,40.75,2.93,40.91Zm.54-.83h.17v0H3.47Zm.21,0,.2,0L3.79,40h0Zm.2,1.3H4v-.12H4l-.08.09Zm.61-1.87v0l.11-.13.5.08v.08c-.11,0-.17,0-.16.09C4.65,39.57,4.49,39.55,4.49,39.49Zm0,.87v-.13h0v.12ZM4.87,40v0l.08-.09.21,0V40l0,0,0,.05Zm0-.24v0H5v0Zm.59-.22.13,0,0-.05v0l0,0-.12.06Zm.12.77.4,0v-.08l-.21,0-.2.06Zm0,.78h.12v0H5.62Zm.46-1.65,0,0h0l.07-.09v0H6.17Zm.1,1.06h.16v-.08H6.26ZM6.47,40h.12v-.08H6.46Zm.09,1,.33,0v-.08l-.32,0ZM8,39.5l.25,0,.11-.14-.13,0C8.06,39.36,8,39.43,8,39.5Zm.12,1.31h.08v-.08H8.1Z"/><path class="cls-4" d="M.81,36l.09-.82h.41l0-.13L.92,35V35L1,34.88,1,34.7a.52.52,0,0,1,.3-.05s-.09-.1-.28-.15v-.08l.21,0v0L1,34.17l.1-.15L1,33.93v-.08l.21,0,2.16.23.29.07,0,0v0l0,0,.53.06s.08.06.11.17.24-.07.35-.25L4.7,34l.1-.15,0-.17c.22,0,.33,0,.34-.09l-.45,0,0,0,0-.05H4.14l-.24-.07H3.65L3,33.32,1.53,33.2l-.29,0-.07-.09c.16,0,.25-.07.26-.14q-.28,0-.27-.15l.25-.06.16.06H2l.41.09v0L2.29,33l-.49-.05,0,0,0,0h0L1.59,33l.36.08.17,0,.36.08.65.07,0-.12-.53,0L2.42,33v0l.09-.07.33,0h.33l.2.06H4L4,32.84H3.71c-.19,0-.28-.05-.28-.11l.06-.12,0,0h0l-.13.07,0,0v0l-.09.07-.65-.07-.08-.09v0l.36,0v-.08H2.34l.07.13v0l-.2,0,0,0h0l-.82,0-.12-.06.14-1.34c.28,0,.42,0,.42-.08l-.4-.09v0L1.44,31l1.06.11,0,.05.05,0,.9.1v.08l-.05,0v0l.36,0,0-.05v-.12l.24.07.13,0,0,0,.21,0,.7.08.11.09.28,0c.14,0,.21,0,.22-.06h.08v0l2.25.2,2.24.24.08.09-.06.12,0,0h.08l.06-.12,0,0,.13-.07.94.1.11.14-.09.86s-.08.07-.22.06v.08a.18.18,0,0,1,.19.22l0,.41-.06.24,0,.13-.13.07-.65-.07c-.13,0-.2-.06-.19-.11l.09-.15-.07-.09,0-.29h0l-.43.16.2.06,0,0v.08l0,.21a1.08,1.08,0,0,1-.46,0L8.62,34l-.07-.09.09-.08-.12-.09-.25.06,0,0v0l0,0h0l.07.09H8.05l-.23-.19h0l-.1.16-.2-.07-.41,0c0,.11-.11.16-.3.17v0c.16,0,.24.05.24.1s-.08.08-.22.06v.08c.13,0,.19.11.17.27l.49,0,.17,0,0,.05h.9l.24.07.21,0,.4.08.17,0,0,0,.05,0,.57.06V35l-.57-.06L9.55,35l0,0v0l0,0,.45.05V35h.12v.08h.09V35h0l0,0v-.12h.5l0,0h0l0,0V35l.33,0,.1.14-.18.14.16.1-.06.2,0,.13,0,.12,0,0v0l-.1.16-.2-.07L10.22,36v.09l.9.09,0,.21-.07.61-.13.11-.33,0-1-.07-.37-.08,0-.13,0,0H9.11c0,.14-.1.2-.27.18h0l-.36-.12-.17.07c-.13,0-.19-.11-.18-.23l-.33,0-.06.16-.36,0c0-.11,0-.17-.11-.18l-.33,0-4-.34-1.38-.15-.17,0,0,0H.93Zm.5-1.6.13,0v-.09H1.4Zm0,1h.08v0H1.7l2.69.25.05,0v0h0l-3-.28,0,0Zm.29.37H1.7l0-.12-.17,0v0ZM1.75,35h0l.09-.07-.12,0ZM2,34.69l.16,0-.07-.09H2Zm.43-2.88.11.09.05,0v-.13H2.51Zm.09,2.65.36,0v-.09l-.28,0Zm0-3.18H2.6v0l.13,0v-.08l-.21,0Zm.08,3.48.4,0v-.08l-.32,0Zm.88-2.88h.13v-.08H3.49Zm.08,2.36h.12l-.07-.09,0,0Zm.31-2.85H4v-.08H4Zm.11.5.24,0-.07-.09-.16,0Zm.13,1,0,0,.12,0v-.13H4.2Zm.44-1,1,.11L5.62,32l-1.06-.11ZM5,33.86h.08l.1-.08-.25,0Zm.1-.53.12,0v0l-.12,0Zm.67-1.25L5.86,32,5.7,32Zm0,2.36h.16l-.07-.09Zm.06-.25h.08v0H5.84ZM7,34.81l.53.06.09-.08,0,0H7.26l-.37,0Zm.57-1h.08v-.08H7.53Zm.62,1.06h.13v0H8.16Zm.6-1h.09v-.08H8.76Zm.29,0,0,0v0H9Zm.66-.8h0l.53.1.09-.08,0-.12L10,33c-.14,0-.22,0-.25.09Zm.48-.56h0c0-.14.11-.19.3-.17,0-.07,0-.11-.19-.15l-.21.06Zm0,.32.16,0,0-.12-.17,0Zm.17,2.7.73.08v-.12l-.24,0H10.4l0,0,0,0Zm.1-2.13.09-.08h-.08Zm.28-1.05.24,0v-.12h0l-.2,0Z"/><path class="cls-4" d="M1.35,28.44l.16-.5.05,0,0-.05v0l.09-.15,0-.28.53-1.73.18.1.08-.11-.24-.07,0-.12.1-.05,0-.18,0,0,0-.12V25h.21l1.65.5.08.15-.12.4-.11.09,0,.14-.07.24c0,.05-.06.06-.14,0l-.05,0,0,0,.15.08L4,26.92l1.49.45,0,.05,0,0,.27.09.1-.19,0-.05.06,0,0-.15,0,0,0,0,0-.16,0-.05.05,0v0l.08-.4a.21.21,0,0,1,.28-.09l1,.31q.09,0,0,.18l.24.07L8,26.68l.1.24L8,27l0,.16,0,.05-.13.13v.17l-.1.05h0l-.14-.09h-.3l0,.08.4.08.08,0s.07.06,0,.14l0,0v0c0,.23.08.37.26.42l.21,0,.1.08.48.1.4.12,1.15.3.13.13.05,0,.2.06,0,.08-.37,0c0,.06,0,.12.12.17s.31,0,.32-.08V29l0,0L11,29l0-.22.15-.08-.17-.14a.87.87,0,0,1-.53-.07l-.06,0v0l.32.1.18.1v0s-.31,0-.87-.09v-.13l.05,0,0,0,.05-.33h.17v0l-.12,0c0-.08.16-.09.39,0V28l-.27-.09-.06-.1.1-.05,0,.05h0l.57.09.21.15h.34l.38.16,0,.12-.2-.06,0,.08.21,0c0,.08,0,.13.12.16s0,.09.09.12l0,.2-.44,1.46c0,.13-.08.19-.14.17v.26l-.18.59-.15.08L9.75,31H9.59l-.37-.2-.05,0-.16,0v0s.1,0,.26,0v0l-.78-.24,0,0,0,.05v0c-.13,0-.2,0-.22,0-.28-.12-.41-.2-.4-.25l0-.08-.16-.05,0,.16-.35-.11-.12-.16-.42,0,0,0-.49-.07-.08,0v0l-.48-.1L4.3,29.34l-.21-.15H3.83l-.91-.27-.26-.12v0l0-.05-.85-.18-.22-.11-.05,0h0Zm.29-.51q.12,0,.09.12l-.11.09,0,.05h0l.06,0h0l0-.05v0l.1-.19-.2-.06ZM2,27.22l.16.05.21,0v0l-.3-.14-.06,0Zm.19,1.35.46.18,0,0,.1.07h.13v0l-.18-.1v0l0-.05h0l-.44-.09Zm.08-1.82.08,0v0l-.07,0Zm.1,1.1.4.08L3,28l0-.08-.6-.14-.12,0,0,0Zm.18-1.58.31.1,0-.08-.23-.07Zm0,2.12.08,0v0l-.08,0Zm0-3.17.11,0,0,0-.12,0Zm.06,1.64,0,0,.1-.06-.12,0Zm.08-.27.12,0,0-.08h0ZM3,25.84l.28.09,0-.08-.19-.06Zm.28,3.05.16,0-.05-.1Zm0-2.18,0,.05.08,0,.1-.05,0-.06-.08,0Zm.14,1.37.08,0v0L3.4,28Zm.07-.24.12,0,.1-.06-.19-.06Zm0,1.12L3.7,29l.21,0,0-.08-.12,0L3.68,29l-.15-.09,0,0Zm.06-2.17.07,0,0,0-.08,0Zm.35,1.95.35.1,0-.07-.36-.11Zm0-1.63.16.05v0l-.16,0ZM4,28l.62.19.11-.06-.63-.19Zm.27-.48.12,0,0-.08h0Zm.28-.21.18.1,0,0v0l-.23-.07Zm0,1.63.12,0v0l-.12,0Zm.66.2.08,0,0-.08-.08,0Zm.19-.2,0,0,0-.08h0Zm.09-.27,0,.05.08,0,0-.11,0,0Zm0,.83.18.1.1-.06v0l-.27-.08Zm.66.07.07-.23-.29,0-.27-.08C5.74,29.25,5.9,29.37,6.25,29.54Zm-.48-1.09.42.17h.13l-.09-.16C5.94,28.4,5.78,28.4,5.77,28.45Zm0-.3.08,0v0l-.08,0Zm.22.11.25,0,.11.07.05,0,0-.08-.48-.1Zm0-.57.28.09,0-.08L6,27.61ZM6,29.09h0l.29,0,0-.08-.08,0,0,0,0-.05H6.07Zm.2-.24h0l.21,0v0l-.1-.08-.21,0Zm.13.86.08,0,0-.08-.07,0Zm0-1.07.12,0,0-.11-.06,0Zm.06.79.08,0v0l-.07,0Zm.07-1.05.47.14.69.12v0l-.11-.08-.2,0-.11-.07-.73-.14Zm.08-.28,0,0,0-.08h0Zm0,.61.08,0,0-.08Zm.18.83.08,0,0-.08Zm.05-1.87.16,0,0-.08-.08,0Zm0,.27H7l0-.08h0Zm0,1.08.11.07h.13v0L7.06,29H6.93Zm0,.27.08,0v0l-.08,0Zm.09-2.16.08,0,.07-.23-.11,0,0,0Zm0,1.67.08,0,0-.08-.07,0Zm.25.33.19.06v0l0-.1-.08,0Zm.08.29.2.06-.06-.11h0Zm.06-1.61,0,0v0l-.12,0Zm0,1.88.1.07,1,.21.35.11L9,30l-.63-.19-.25,0L8,29.71l-.49-.06Zm0-2.43.11,0,0,0-.06-.11-.05,0Zm0,.53.08,0v0l-.08,0Zm.08-.7L7.74,27l0-.07-.16-.05,0,.08Zm0,2.92h0l0-.08-.11,0Zm.11-1.34.1.07L8,28.65l-.12,0Zm.09,1.4.12,0,.24,0,0,.06h0l.49.06.23.11.23.07,0-.08L8,30l-.1.06ZM8,29.26l.23.07s0-.09-.09-.11H8Zm.15-.51.12,0v0l-.12,0Zm0-.21.41.08.07,0,0-.08-.2-.06-.26-.12-.05,0v0l0,.05Zm.14.81.24.07v0l-.19-.1-.05,0Zm.23,1.23v0l.12,0v0Zm0-1.7.12,0v0l-.12,0Zm0,.26h0l.42.17h.13l0-.08-.59-.18Zm0,.31.63.19,0-.08h0l-.34-.15C8.74,29.39,8.65,29.4,8.63,29.45Zm.15,1.2,0,0,.08,0,0,0ZM8.87,29l.14.09.77.14.23.12.05,0v0L9,28.91Zm.19-.2.47.14.28.05,0,0-.15-.09-.29,0L9,28.66Zm.2,1.18.23.07.19.1,0,.08-.05,0v0l.12,0,0-.05,0-.12.24,0,0,0a.25.25,0,0,1-.2-.19H9.52l-.24-.07Zm.37-.1.12-.1v0H9.63l-.19-.1v0C9.43,29.73,9.5,29.8,9.63,29.84Zm-.07.66.12,0v0l-.11-.08Zm.12.29.08,0,0,0-.08,0ZM9.85,29,10,29v0l-.15,0Zm.24-.49.11,0,0,0-.11-.08Zm0,1.73.12,0c.42.13.64.15.66.08l-.53-.21c-.15,0-.22,0-.24.06Zm.09-.87.46.18.05,0,0,0-.41-.21Zm0,.26.28.08,0-.08-.2-.06Zm.08-2.25v0l.11-.06,0,0v0l-.1.05Zm.12,3.42.47.14,0-.08-.47-.14Zm0-3.24,0,0h0l.06.1,0,0h0Zm.09-.15,0-.08.41.08h0l0,.05.05,0,.59.17.06,0,0,.05.51.15,0,.21c0,.13-.08.19-.14.17l0,.18c-.08.12-.14.18-.18.16s0-.2-.06-.23l.13-.13,0-.05h0l-.6-.14-.13-.13-.42,0-.11-.07,0-.08.11-.1-.18-.09Zm.06,3.19.12,0v0l-.12,0Zm0-2.44.51.16.16-.09-.1-.11-.12,0a.63.63,0,0,1-.44,0Zm.23,2.51.35.11,0-.08H11l-.11-.07-.05,0Zm0-2.18.37.07v0l-.05-.1-.2-.06-.1.05Zm.29-.81.08,0v0h.13v0l0-.1,0,0-.11.06Zm.52,1,.16.05v0l-.1-.08-.05,0Z"/><path class="cls-4" d="M4.07,22.44h0l0,0,0-.13.16,0,.06-.11c0-.05,0-.09-.07-.13l0-.07.18.09,0,0,0-.15,0,0,.62.23,0,0L5,21.91l0-.08h.18l0,0,.38.24.2,0L5.6,21.9l-.35-.14.11-.22-.05,0-.11,0,0-.08-.11-.05L5,21.43c.07,0,.1.08.07.13l-.18.09,0,0,0,.06,0,0-.3-.06,0,.2-.06,0,0,0,0-.08,0,0h.05l.1-.19.09-.27.29.06,0,0-.18-.18.15-.29c.11,0,.18,0,.21,0l0-.11.22-.07,0,0-.07,0,0-.08.11.06.32.08.3.15.05-.11c-.14-.07-.2-.14-.18-.18l.19-.37,0-.15q.35.14.39.06l0-.12a.75.75,0,0,1,.42.08c0-.05,0-.1-.11-.15l0-.06,0,0c0-.05.1-.05.22,0l.06-.11-.2-.15-.06,0,0,0,0-.06,0,0-.47-.15,0,0c.08-.16.57-.15,1.46,0l.15.08,0,.16.22.12,0-.08-.18-.09,0-.07.2.06.37.18h.05l0,.05,0,0c1,.54,1.39.88,1.32,1l0,0-.22-.12v0c.34.18.46.35.37.52l0,.44,0,0a1.48,1.48,0,0,1,1.69-.33l.33.26.12,0-.07.24,0,0c.08-.14.33-.1.77.13l1.06.54.16,0,.13.11.51.27.24.07q.15.15.12.21l-.11,0c.07,0,.1.08.07.13l-.05,0,0,.22-.12.13,0,.16-.05,0-.29-.15,0,0,0,.06,0,0,.2.05,0,0V24l0,0-.09.09-.1.27,0,0,0,.06-.17.33c-.07.14-.2.17-.37.08l-.16-.13-.35-.13-.14-.08,0-.11.06-.11.13-.07,0-.05-.11-.06s-.11.05-.2.22a2.6,2.6,0,0,1-.7-.27L11,23.28l0-.06q-.81-.31-1,0l0,0v.06l-.11.21L12.87,25c.05,0,.05.09,0,.19l.07,0a.5.5,0,0,1,.41,0l.16.13.24.08.18.09.05.17-.08.14-.13.16-.07.24-.1.18-.18.09,0,.08.07,0,0,.08-.08,0c-.05,0-.05-.08,0-.15l0-.05,0,0h0l0,.06-.12.22.18.09,0,.11-.06,0,0,.2-.16.29c0,.05-.16,0-.42-.08l-.09-.09-.16,0-.4-.3-.58-.21c-.26-.15-.39-.24-.37-.28l-.76-.3,0,0-.06,0,0,0V26l-.06,0-.44-.22v-.06l-.06,0-.54-.28-.39-.16a4,4,0,0,1-1.09-.84l-.05,0,0,0,.06-.11c.07,0,.12,0,.15,0l-.17-.14.13-.16V24L7.6,24l-.11,0,0,.13-.14-.07s-.06-.08,0-.15l-.11-.06c0,.11-.21.1-.46,0h0l0,0,0,.05h0l0,0a.45.45,0,0,0,.21.2l-.07.15-1.26-.61-.09-.09-.24-.08L4.17,23,4,22.83l.18-.09C4.07,22.6,4,22.51,4.07,22.44Zm.16,0,0-.07-.07,0Zm0,.33.15.08,0,0-.15-.07Zm.37-1.24.13,0,0,0-.11-.05Zm.06,1.14.47.24,0-.07-.4-.21Zm.16-.15H5l.66.34.42.17.16.13.06,0v0l-.07,0,0,0,0,0-.08,0-.31-.2-.38-.16-.11-.05-.2-.15-.29-.06,0,0ZM4.89,21l.11.06,0,0L4.93,21Zm.2,1.31,0,.06.15.07c.19.1.32.09.38,0l.11.06,0,.16.11.06,0-.08,0,0,.07.13.16-.05,0-.11,0,0,.22.12s.11,0,.18-.18l.17-.06,0-.14,0,0c.26.1.4.13.42.08l0,0-.22-.11v-.06L6.4,22l-.2-.15L6,21.79l0,.08H6l.34.23,0,0,.07.13h.06l.11,0,0,.07c0,.06-.1.07-.2,0l0,.07.07,0v0l-.21,0,0-.08.07,0,.06-.11c-.09-.05-.13-.1-.11-.15a.78.78,0,0,0-.44.05l-.57-.06a.35.35,0,0,1,.19.19l-.1.09v-.06l-.11-.06Zm.3-1.55.13.11.05,0,0,.05.06-.1H5.59v0l-.08,0Zm.14.9h0l0-.07-.11-.05Zm0-1.84,0-.07c0-.05.07-.06.15,0l.16.13,0,.08-.11,0Zm0,3.62.11.05,0,0-.11-.06Zm.08-.24,0,0,.16,0,.13.11,0,0,.11,0,0-.05,0,0-.26,0-.13-.11,0,0Zm.09-3.65c.22-.16.37-.23.42-.2l0,.06,0,0c-.15.2-.29.27-.42.2l0-.05Zm.14,3,.06-.11.14.07,0,0-.11,0Zm0-1.27,0,0,.11,0,0,0L6,21.22Zm.35,1.57.07,0,0,0,0-.06,0,0-.13,0Zm.1-3.32,0,0,.07,0,0,.11-.06,0,0,0Zm.14,2.15.22.11,0,.07.18.1,0,0,0,0,.06,0,0,0L7,22l.46.19,0,0,.05,0,.07,0,0,.05h.06l.47.24c.17.09.24.16.22.21l.13,0,.2-.4A.35.35,0,0,0,8.49,22l0-.07.09.09c.37.17.58.23.6.18L9.17,22a2.57,2.57,0,0,1-.71-.23l0-.06.15-.29c.08,0,.12,0,.15,0l0,0-.11-.06-.27-.09,0,0c.09.05.13.1.1.15s-.1.06-.23,0l-.09-.1-.44-.13,0,.07.31.21,0,0H7.89v0l-.17-.13-.18-.1c-.12-.06-.19-.07-.22,0l0-.05c-.37-.12-.62,0-.77.24l0,.08Zm.12,1.91.18.09,0,0-.19-.09Zm.29-4.24.08,0,0-.07-.08,0Zm0,.66.07,0,0,0L7,20Zm.14,4.37,0-.07.11,0,0,0-.08.15Zm.11-3.68.07,0,0,0-.07,0Zm.23,3,.06,0v0l-.1,0Zm.14-.53.11.05c.12.06.17.12.14.17l-.09.09v.05l.26.14.11,0c-.1-.05-.13-.1-.11-.15s.09,0,.19,0l.05,0,0-.07,0-.11H8.07L8,23.27c-.23-.09-.36-.11-.38-.06Zm.2-2.81.08,0v0l-.07,0Zm0,.61.37.19.11,0-.17-.13L7.92,21l-.11,0Zm0,3.21,0,0,0-.07-.11-.06,0,0ZM8,20.54l.15.16.2.06,0-.07-.06-.17C8.11,20.47,8,20.47,8,20.54Zm0-.63.11.06,0-.11,0,0Zm0,.94.11,0v0l0,0Zm0,2.31.11.06v0l-.1-.06ZM8,24l0,0,0-.07,0,0Zm.2-.73,0,0,.11,0-.11-.05Zm0-2.38.07,0,0,0-.07,0Zm.06-.48a.19.19,0,0,1,.09.28l.11,0,0,0c.07-.12.17-.14.32-.07l0-.07-.21-.11c-.13-.07-.22-.07-.28,0Zm.12,3.16.08,0v0l-.07,0Zm0-.83.31.21.06-.11-.15-.08-.2-.06Zm.17-1,.38.15,0,0c.19.06.29.07.31,0l0,0-.18-.09-.24-.08-.16-.13-.06,0Zm0-1.51.19.1v0h.06l.22.11.2.15.31,0,0,0-.27-.18-.13,0L9,20.24l-.28-.1Zm0,4,.11.06,0-.12h0Zm0-1.87.08,0,.2.05.05-.11L9,22.29l-.22,0,0,0Zm0-1.58L9,21v0l-.25-.14Zm0-.82.15.07,0,0L8.76,20Zm0,1.5.15.08,0-.08-.15-.07Zm.06,2.57.11.06,0,0-.11-.06Zm.07-4,.08,0,0,0-.08,0Zm0,1.17c.17.09.24.16.22.21l-.1.18.21.06v.05l.11,0v-.06l0-.07c0-.05.14-.05.32,0v0c-.19-.1-.27-.19-.23-.26s.07-.06.15,0l0-.07c-.17-.09-.28-.07-.34,0s-.17.05-.39-.06Zm.1-.27.25.13,0,0L9.08,21Zm0,4.07.15.08,0,0,0-.16.14-.11-.07,0-.2-.06-.07.15Zm.41-3,.11.06,0,0L9.5,22Zm0,2,.13,0,.16.22.29.06,0-.07L10,24.2l.05,0,.08-.15L9.93,24l0,0,0,0c0,.07,0,.12.05.16l-.11,0L9.53,24Zm0-1.71.14.08.11,0-.22-.11Zm.06-.47.07,0,.06-.1-.09-.1-.06,0,0,0Zm0,3,.11.06,0-.11,0,0Zm0,.72.07,0,.22,0,0-.15-.22,0Zm.1-1.1.11,0v-.05l-.11-.06,0,0Zm0-1.82.41.21,0-.07-.32-.17Zm.13,2.7,0,0,.07-.15h0l-.11,0Zm0-.39.22.12,0,0L9.79,25Zm0-.27.11.06,0,0-.11-.06Zm.08-1.67.08,0,0-.07ZM10,25.79l.11.06.05-.11-.07,0Zm.22.12.12.11.06,0,0,0-.18-.09Zm0-3.4.11,0-.15-.08Zm.08-.88.38.16,0-.11-.07,0-.06,0,0-.06-.07,0-.11,0Zm.07,2.9.07,0,0,0-.07,0Zm0,.57.22.12,0,0,0-.11-.07,0-.11,0Zm.07-2.55,0-.07-.07,0Zm.29-.73.31.21.05,0,0,0,0-.06-.25-.13Zm0,4.37.2.06,0,.07.11.06,0-.11-.29-.15ZM11,23.13l.14.08.12,0v0L11.19,23,11,23l0,0Zm.15-.2.11.06.11,0,0,0,0-.12-.13,0Zm.28-.27.11,0-.07,0Zm.19-.37,0,0,.11,0,0,0-.11,0Zm.08.83.07,0,.16.13.24.08.14.07,0-.07L11.8,23l-.06,0Zm.1-1.1,0,0,0-.07,0,0Zm0,1.51.21.06,0,.11.29.05V23.7l0,0-.28-.09-.22-.12Zm.07-1.73.07,0,0-.07-.08,0Zm.11,5,.07,0,0,0-.07,0Zm.24.08.11,0,0-.11-.07,0Zm0-4.88.11.05.06-.11-.11,0Zm0,4,.07.13.06,0,.06-.11-.08,0Zm.19-3.84,0,0,0,0,0-.11,0,0,0,0Zm0,3.75.11,0,0,0,0-.11-.11,0,0,0Zm0-.35.11.06,0-.08-.11-.05Zm.06.68.13,0,0,0,0-.11-.07,0,0,.08,0,.05Zm.2-3.87.06,0,0,0,0-.06-.07,0,0,0Zm.09,4,.19.09,0-.07,0-.11L13,26.17l0,.07Zm.07.59,0,0,.11,0v0l-.1-.05Zm1.45-2.81.07,0,.06-.2,0,0-.11,0,0,0Zm0-.64.11.06,0,0-.11-.06Z"/><path class="cls-4" d="M11.41,10.89l0,0c.05,0,.12,0,.23.06l0,0c-.09-.1-.12-.17-.08-.2l.15-.09.06-.11c.1,0,.17.06.2,0l0,0L12,10.32c.72-.43,1.19-.54,1.4-.32.06.06.11.07.15,0l-.14-.15,0,0a.82.82,0,0,1,.75.19l.05.06c.2-.19.72.15,1.55,1v.06l0,0,.46.36.05.12-.05.05-.12.06L16,12l-.77.74-.15,0v.12l0,0-.15,0V13l-.2,0v.06l0,0L14.47,13V12.9l-.17-.12-.2-.21,0-.2-.25-.21L13.68,12c-.38-.2-.63-.24-.75-.13l-.12.11.1.47.15,0v.06l.11.12h.06v.06l2.94,3.08-.09.09,0-.06,0,0c.13.17.17.28.14.32h-.06l0,0V16l0,0H16l-.09.09.23.17.06-.05v-.06l0,0c0,.06.16.07.32,0l.12.06.11.17.31.27v.12l.2,0,0,0v.06l.54.33.06.12.23.12.59.62,0,0V18l0,0-.65-.57c-.19-.19-.22-.36-.08-.49s-.1-.47-.67-1.06l-.77-.8h-.11l-.09.09v.06l0,0-.15,0-.08-.09-.94-.92v0l.26-.26h.06l.06-.11.15,0,.12-.23,0,0v-.06l.8-.76.2-.14.09-.14.15,0,2.52,2.64v.06h.06l.14.15-.06,0h-.06l0,0,.26.27c.08-.08.13-.1.17-.06l.2.27.14.09.06.12.28.23v.06l-.12.12s-.1,0-.17-.07h-.06l0,0a.22.22,0,0,1,0,.35l-.15.14h-.05V17l-.3.28h-.17l-.17-.18a.49.49,0,0,1-.11-.35l-.06,0c-.11-.08-.19-.1-.23-.06s.07.22-.07.35a.41.41,0,0,1,.14.44c.1.11,0,.41-.26.92l-.29.28c-.11.1-.19.13-.27.08v.06l-.06.06h-.17l-.31-.32-.37-.45-.14-.09V18l0,0-.48-.38-.06-.12-.11-.06-.09.08.08.15-.06.06-.31-.21,0,0,.11.17.2.15.06-.05v-.06c.09-.07.19,0,.32.09l0,0v.06l0,0L18.1,19V19a1.58,1.58,0,0,1-.93,0L17,18.88v.06l0,0H17l0,.06c-.11.12-.5,0-1.15-.43l-.11-.18.06-.05.06.06.09-.09L16,18.27h-.06l0,0,0,0-.11-.06-.09.09.06.06,0,0-.2-.1-.31-.38L15,17.73l-2.47-2.58a3.2,3.2,0,0,1-.62-.89l-.23-.12-.56-.71h.06l.09-.08L11,13.11a.84.84,0,0,1-.1-.75.27.27,0,0,1,0-.27H11l.2.21,0,0v-.11l-.29-.3.09-.08.26.26h.11l0,0-.17-.18L11,11.66l.12-.34h.12l.28.29h.12v-.06l0,0-.37-.33-.09-.09ZM11,12.56l0,0h.12L11,12.44Zm.1.35.17.18.06-.06-.17-.18Zm.12-.17.29.3L11.6,13l-.15-.15-.17-.12Zm.11-1,.23.23.06-.05-.23-.24Zm.14.49.08.09h.12l-.2-.2Zm.4,1.14.12.06,0,0-.11-.12v.06Zm0,.67.14.15h.12l.11.18.17.18.06-.06-.2-.21v-.06l-.11-.06L12.15,14l0,0,.09.09,0,0c.15.07.25.09.28.06l0-.18a.58.58,0,0,1-.29-.18l-.08.09.05.06-.06,0C12,14,12,14,12,14Zm.27-2.81h-.06l-.06.06.2.32.14,0,0,0,0-.18-.15-.15c.06-.05.08-.1,0-.14L12.22,11l0,0Zm0-.58.09.09,0,0-.09-.09Zm.08,3,.17.18.09-.08-.12-.12h-.11Zm.06-2.84.12.12v-.12Zm0,1.8,0,0h.12v-.06l-.12-.12,0,0Zm.06-.29v.06l.06.06h.12l0,0-.09-.09Zm0,1.1.48.51.06-.06-.43-.44Zm.1.53.09.09.09-.09,0,0h-.12Zm0,.67.05.05h.12l-.12-.12Zm.1.46.09.09,0-.05L12.68,15Zm0-4.32.57.59.06-.05-.57-.6Zm0,3.63.08.09,0,0v-.12l0,0Zm0-1.1.14.2.69.6,0,0-.25-.27L13,13.56l-.19-.26-.09-.09Zm.07.84,0,0h.11l-.08-.09Zm.12-1.36.17.18.06-.06-.17-.18Zm.25,1.74.05.06.18.12,0,0-.26-.26Zm.14,1.23.06,0h.12v-.06l0,0h-.12Zm.11-.73.08.09,0,0L13.38,15Zm.17-3.79.34.35.06-.05-.34-.36Zm.16,3.13.17.12.06,0-.22-.24,0,0S13.62,14.27,13.68,14.33Zm0-4.32.09.09.06-.12-.06-.05Zm0,5.77.08.09.09-.08,0,0h-.11Zm0-1.88.23.24.06-.06-.17-.18Zm.21-2.64.05.06v-.11Zm.12-.34.11.12.06-.06-.11-.12Zm.67,4.8-.12.11c0-.06-.1-.07-.14,0l0,.2-.11.06.14.15.12-.17,0,0,.14.09,0,0s0-.1-.05-.18c.11-.11.09-.26-.08-.43l0,0S14.65,15.64,14.72,15.72Zm-.25-2.88,0,0,.09-.08-.09-.09,0,0Zm0-.35.17.18h.11l-.22-.24Zm0,2.59.05.06.26.32.2.15.09-.08-.06-.06H15l-.06-.12L14.57,15Zm.06-.35v.06l.23.18.06-.06-.15-.09-.05-.12H14.6Zm.09-2.41.14.15h.11v-.06l-.12-.12h-.11Zm0,4.53,0,0,.2,0-.17-.18-.06.05Zm.21-.26.14.15h.11l-.19-.2Zm0-5.54.22.24.06-.06L15,11Zm.15,6,.08.09v-.11l0,0Zm0-1.8.06.12h.05l.06-.05,0-.06ZM15.18,11l.06.06,0,0-.06-.06Zm.07,5.6.09.09.09-.08,0,0h-.12Zm0-1.45.08.15c.13.1.22.13.26.09l-.28-.29Zm.1.47.17.18.06-.06-.17-.18Zm0,2.29v.06l0,0h.12l0,0-.06-.05Zm0-1.39.06.06.09-.08-.06-.06Zm.17.06v.06l.12.06.05-.05-.05-.06Zm0,1.19,0,0,.17.12.06-.05-.17-.18Zm.1-1.45.17.18c.12.11.21.14.25.1l-.28-.36-.11-.06,0,0Zm.2,1.29.17.17.06-.05L16,17.52Zm0-2.91.05.06,0,0,.23.12,0,0-.11-.18L16,14.59ZM16,18l.11.24.55.44.08.09.12-.05L16.18,18Zm.12-3.91v.06l0,0,.12.06v-.12l0,0Zm0,3.77.06.06.26.15,0-.14-.31-.21,0,0Zm.35.24.16.24.2.15.32.32.06-.05h-.06l0,0,0-.2L17,18.44H17l0,0v-.06l0,0H17l0,0v.06l0,0,.11.06.06-.06-.05-.06,0,0h-.06l0,0-.11-.18H17l0,0v-.06L16.88,18l0,0,0,.15,0,0h-.17l0,0-.11-.06Zm.11-1v.06l.18.12,0,.11.12.06L17,17.4l-.12-.18,0,0C16.77,17.09,16.68,17.06,16.61,17.1Zm.12-.23.08.09v-.12h-.06Zm0,1.13,0,0,.06-.06,0,0Zm.07-3.19,0,0,.06-.06-.08-.09Zm.41,3.69.09.09.06-.05-.09-.09Zm.06-1.13,1.1,1.16.06-.11-.05-.06-.12-.06-.11-.18-.45-.47-.32-.21v-.12l0,0Zm.1.41.12.12,0,0-.12-.12Zm.14-2.34.06.06,0,0-.06-.06Zm0,.43.06.06.06-.06-.06,0Zm.06,1.42.05.06,0,0-.05-.06ZM17.73,16v.06l.06.06.09-.09,0,0Zm.15-.2L18,16l0,0-.14-.15ZM18,17.74l.23.24.06-.06-.14-.21L18,17.62ZM18.08,15l.11.11.09-.08-.06-.06h-.11Zm.16.58,0,0h.11l0,0-.08-.08Zm.11,2.61.31.33,0,0v-.11l-.12-.12-.17-.12Zm.29-1.24V17l0,0,.34.3v-.12l-.11-.06-.14-.2Zm.1.53.06.06,0,0-.06-.06Zm0-.7L19,17l.06-.06-.17-.18Zm.06-1.48.15.15.06-.05-.09-.09Zm0,3,.09.09,0,0-.09-.09Zm.1-1.74.09.09,0,0L19,16.48Zm.26-1.21.17.12.06.12.62.53.06.12.23.18,0,0-.43-.5-.42-.39-.12-.17-.11-.06Zm0,.32.06.06,0,0-.06-.06Z"/><path class="cls-4" d="M16.47,7.46h.06l0,0,.09-.1.12.12.1-.07c.05,0,.05-.08,0-.15l.07,0,.1.18,0,0,.06-.13,0,0,.41.51,0,0-.1-.23.07,0,.16.09,0,0L18,8l.19.08-.11-.27-.23-.29.21-.13H18l-.07-.11.07,0-.06-.11-.17,0q.06.11,0,.15l-.21,0,0,0,0,0,0,0-.22-.2-.16.15L17,7.2l0,0,.07,0,0,0h.06L17.3,7l.22-.18.22.2,0,0-.06-.26L18,6.56c.07.09.14.11.19.08l0-.12.23.06,0,0,0-.07.07,0,.06.11.24.23.18.28.1-.06C19,6.86,19,6.77,19,6.74l.35-.21.06-.14c.15.2.26.28.3.25l.08-.1a.81.81,0,0,1,.33.29s0-.09,0-.19v0l0,0s.1,0,.17.13l.11-.07-.1-.23H20.3l0,0v0l0,0-.33-.37,0,0c.16-.09.57.17,1.25.77l.09.14-.12.13.13.21.07-.05-.11-.17.07,0,.14.16.22.35h.06l0,0,0,0c.54,1,.74,1.47.62,1.55l0,0-.13-.21,0,0c.2.32.22.54.06.64L22,9.82l0,0a1.48,1.48,0,0,1,1.62.59l.14.39.1.08-.19.17h.06c.14-.09.34.08.6.5l.63,1,.12.12,0,.16.3.49.16.18c.05.14.05.22,0,.24l-.11,0c0,.07,0,.12,0,.14h-.06l-.13.18-.16.05-.12.12H25L24.81,14l0,0v.06l0,0,.14.15,0,0,0,.05,0,0-.13,0-.22.18,0,0,0,.06-.31.19c-.14.09-.26.05-.36-.11l-.08-.2-.23-.29L23.45,14l0-.11.1-.07h.15v0l-.06-.11s-.13,0-.29.09a2.43,2.43,0,0,1-.46-.59L22,11.74v-.06c-.34-.46-.61-.63-.8-.52l0,0v.06l-.21.13,1.75,2.82s0,.1-.1.16l.05.07a.42.42,0,0,1,.33.22l.07.2.17.19.11.17,0,.17-.14.09-.2.07-.19.16-.17.11-.2,0-.07,0,0,.07-.07,0,0-.07c0-.05,0-.09.06-.13v-.06l0,0-.06,0v.06l-.21.13.11.17,0,.12-.06,0-.15.15-.28.17s-.15-.07-.32-.29l0-.12-.12-.12L21,15.37l-.39-.48c-.15-.27-.2-.41-.17-.43l-.5-.65,0,0-.05,0,0,0,0-.06h-.06l-.26-.42,0-.06h-.06l-.33-.52L19,12.33a3.86,3.86,0,0,1-.5-1.28H18.4l0,0,.11-.06c0,.07.08.09.13.06l-.07-.2.19-.07,0-.06-.05-.07-.11,0-.08.1-.09-.14s0-.09.06-.14l-.06-.1q-.15.09-.39-.24L18,10l0,0,0,0,.06,0,0,0a.44.44,0,0,0,.08.29l-.14.08-.77-1.16,0-.12L17,9.07,16.3,8l-.08-.19h.21C16.4,7.6,16.41,7.49,16.47,7.46Zm0,.41.08.14,0,0-.09-.14Zm.15-.3.07,0,0-.07Zm.26.42.28.46.07,0L17,8Zm.22,0L17.2,8l.39.62.28.37.07.19H18l0,0,0-.07,0,0H18l0-.07-.16-.34-.25-.32-.06-.11L17.35,8l-.22-.2,0,0Zm.18,1.15.06.1,0,0-.07-.1ZM17.39,7l.1.08,0,0-.06-.11Zm0,.9v.05l.09.14c.11.19.23.24.34.17l.07.11-.12.12.07.1.07,0,0,0v.15l.17,0,0-.11,0,0,.13.21s.12,0,.26-.06l.16,0,.07-.14,0,0c.17.22.28.31.32.28l0,0L19,8.71V8.66l-.36-.36-.1-.23-.11-.17-.07,0,0,0,.18.37,0,0v.14l.05,0,.07.1-.07,0c-.06,0-.12,0-.19-.07l-.07,0,0,.07,0,0-.15-.15.07,0,.05.07.1-.07c-.05-.09-.06-.15,0-.18a.62.62,0,0,0-.4-.18l-.46-.35A.26.26,0,0,1,17.7,8l-.12,0V8l-.06-.11Zm0,1,0,0,.12.12.05.16,0,0,.12,0V9.25l0,0-.2-.16-.05-.17h0Zm.47-2.27.06.11,0,0,0-.12Zm0,1.86.11-.07.08.14,0,0-.12,0Zm.11,2.2.07,0,.11,0,0,0-.13.08Zm0-.92.11.17,0,0-.11-.17Zm.05-2.25,0,0,.07,0-.06-.11Zm0,1.43,0,.07,0,0V9l0,0-.1-.08Zm.33-2.28.05.16.05,0v0l.11-.06h-.06V6.8l0-.07Zm.18.76,0,0,.11,0,0,0-.07-.1Zm0,2.87h0l0,0-.07-.1Zm.09.62h.06l.07,0-.07-.11,0,0Zm.16-2.85.13.21-.07,0,.11.17v.06l0,0,.06,0,0,0V8.55l.3.4,0,0h.06l0,.07v.06h.06l.28.45c.1.17.13.26.08.29l.1.08.38-.23a.37.37,0,0,0,0-.36l.07,0,0,.13c.23.34.37.49.42.46l0-.17a2.76,2.76,0,0,1-.49-.57V9.11l.28-.18C20.91,9,21,9,21,9l0,0L21,8.87l-.19-.22,0,0c.05.09.06.15,0,.18s-.12,0-.21-.11l0-.13-.31-.33-.07,0,.16.33,0,0h-.06l0,0-.08-.19L20,8.31c-.07-.11-.13-.16-.17-.13v0A.56.56,0,0,0,19,7.94L19,8Zm.14,1.84.06.11c.07.12.09.19,0,.22l-.13,0v0l.15.25.11,0c-.05-.09-.06-.15,0-.18s.1,0,.15.1h.06l.07,0,0-.12-.16-.09,0-.13c-.15-.19-.25-.28-.3-.25Zm0,.93,0,0,.07,0,0,0Zm0-4.89.07,0c.05,0,.09,0,.14.06l.07.2-.07,0-.11,0Zm.3-.13c.28,0,.43,0,.47.05l0,0,0,0c-.23.09-.39.08-.47,0l0,0Zm0,6.44.09.14,0,0,.12-.12.18,0,0-.07-.14-.15-.14.08Zm.09-.87.06.1,0-.11,0,0Zm0-1.31.07.1,0,0-.06-.1Zm.06,3,0,.07.18.13.06-.14L19.67,13Zm0-2.73,0,0,.11,0-.06-.11Zm0,.36.05.07,0,0,0-.07Zm.1.62.06.11,0,0-.07-.1Zm.11,2,.07.11.1-.07,0-.07Zm0-.38,0,0,.14-.09,0,0-.11,0Zm0-.56.07.1,0-.11,0,0Zm0-6.25,0,0,.05.07,0,.11h-.06l0,0Zm.05,7.4.05.16.06,0,0,0-.1-.17Zm0-.94.13.21,0,0-.13-.21Zm0-5,0,.07,0,0,0-.07Zm0,2.39.16.34.1-.07-.09-.14L20.11,10Zm.09,2.4.06.11,0,0-.07-.11Zm0-5.5,0,.07,0,0-.05-.07Zm0,5.28.11,0,0-.06L20.28,12l0,0Zm.06-.52.1.08,0,.27.22.21.07-.05L20.63,12h.05l.14-.09-.08-.14h-.06l0,0c-.07,0-.09.1,0,.16l-.12,0-.15-.25Zm.1,2.49.15.16-.07,0,.06.1.11-.06-.18-.28Zm0-6,.21.35.12,0-.08-.19-.11-.18-.11,0Zm.1-1.85.05.06.07,0-.05-.07Zm0,3.51.05.07.14.15.1-.06-.05-.16-.18-.13,0,0ZM20.59,13l.13.21,0,0,0-.11,0-.07-.11,0Zm.1-5.37,0,.07,0,0-.05-.07Zm0,.48.11,0V8.09l0,0Zm0,1.08.25.33,0,0c.13.14.21.2.25.18l0,0-.11-.18L21,9.35l-.07-.2h-.06Zm.06-1.38,0,.21.15.16.07,0,0-.17C21,7.83,20.86,7.78,20.8,7.82Zm.06,4.69,0,.07,0,0-.05-.07Zm0-4.2,0,.07,0,0,0-.07Zm.15.78.08.14.07-.05L21.07,9ZM21.09,11l0,.07.07,0Zm.07-3.08a.18.18,0,0,1-.07.28l.11,0,0,0c.12-.07.22,0,.31.11l.07-.05-.13-.21c-.08-.12-.16-.16-.24-.14Zm-.05,7.32,0,.07,0,0-.05-.07Zm0-4.65.23.39.07-.05-.19-.31Zm0-3.3.07.11,0-.11,0,0Zm0,2.89.09.14.11,0-.13-.21ZM21.27,9c.1.16.13.26.08.29l-.17.1.14.16v.05l.11,0V9.54l.07,0c.06,0,.14,0,.26.18l0,0c-.11-.19-.13-.3-.06-.34s.09,0,.13.06l.07-.05c-.1-.16-.21-.21-.32-.13s-.17,0-.3-.25Zm0,6.46.12,0,.1-.06,0-.07Zm0-7,.15.24,0,0-.16-.24Zm0,1.43.06.11,0,0-.07-.11Zm.14-.08,0,.07.11-.07,0-.12-.06,0,0,0Zm0-1,.15.25,0,0-.15-.25Zm.05-.85.11.18v.05l.06,0,.12.2.1.24.26.17,0,0-.14-.3L22,8.39l-.14-.3-.18-.22Zm.19-.16.09.14,0,0-.08-.13Zm0,2.92.11,0-.08-.14Zm0,4v.15h.06l.1-.06,0-.07Zm0-6.78,0,.07,0,0-.05-.07Zm0,8,0,0L22,16l0,0L22,15.83Zm.07-.82.1.08,0,0,0-.11L22,15,22,15v.06Zm0-4.22.07,0,0-.07Zm0,3.88.12,0,0,0,0-.12-.12,0,0,0Zm.08-3.14.09.14.11,0,0,0,0-.13-.15-.15,0,0Zm0,3.76.1.17.07,0,0-.11-.11-.18-.07.05Zm.12-.9.06.11.07,0-.06-.11ZM22.28,10l.26.33,0-.11,0-.07-.06,0,0,0L22.43,10l-.11,0Zm0,1.53.07.1.11,0,0,0,0-.12-.1-.08Zm.27-1.13.16.33.05,0,0,0v-.06l-.15-.25Zm0,2,.15.16,0,.11.22.2,0-.06,0,0-.19-.22-.12-.21Zm.08-.43,0,.07.07.2.17.19.08.14.07-.05-.31-.58h0Zm0-.53.12,0,0-.07ZM23,11.2l0,0,.12,0,0,0-.06-.1Zm.3-.14,0,0,.07,0,0,0Zm.21-.13,0,.07.07,0,0-.07Zm.25.33.07.11.1-.07-.06-.1Zm.12.27,0,0,0,0,0-.11,0,0,0,0Zm.16.33.05,0,0,0v0l0-.07,0,0Zm.45,2.37,0,.07.15-.14,0,0-.11,0,0,0Zm.34-.54.07.1,0,0-.06-.11Z"/><path class="cls-4" d="M22.21,3.51l.49-.2.06,0,0-.06h0l.17,0,.25-.14,1.68-.66,0,.21h.13L25,2.42l.11,0,.11,0,.12-.13.05,0,.12,0,.1-.09v0l.1.14L26.35,4l-.07.16-.39.14-.14,0-.09.12-.23.09c-.05,0-.09,0-.12-.08l0,0,0,0,0,.17L25,4.62l.57,1.45,0,0,.05,0,.1.26.21,0,0-.06,0,0,.16-.06,0-.06,0,0,.16-.06,0,0,.05,0,0,0L26.86,6c.11,0,.19,0,.24.17l.39,1s0,.1-.13.14l.09.23.23.13-.13.22-.05,0-.16.06,0,.05h-.18L27,8l-.11,0v0l0-.17-.18-.24-.08,0,.19.37,0,.08q0,.08-.09.12l-.05,0h0a.37.37,0,0,0-.17.46l.11.18v.13l.21.44.15.38.47,1.1V11l.05,0,.07.2-.07,0-.21-.31c-.07,0-.08.09-.06.2s.22.22.26.21l.1-.09v0l.14.12.16-.15.16.07V11.1c-.07,0-.16-.18-.27-.46l-.05,0,0,0,.12.3,0,.21h0c-.06,0-.21-.22-.47-.74l.1-.08.06,0h0l.29-.16.1.14,0,0,0-.11q.11,0,.24.3l.1-.09-.1-.26.05-.11.1.05,0,.05v0l.29.5v.26l.2.28.11.4-.12,0-.07-.19-.08,0,.12.18c-.08,0-.1.09-.06.19s-.06.07,0,.15l-.18.11-1.41.55c-.13.05-.2.05-.22,0l-.2.16-.58.23L25.89,13l-.5-1.3-.1-.14-.07-.41,0,0L25.11,11h0c.06,0,.11,0,.17.2l0,0-.3-.76h0l0,.06h0c-.05-.13-.1-.18-.15-.16-.08-.29-.1-.45-.05-.47l.08,0-.06-.15-.16.06-.13-.34.06-.2-.23-.35,0-.06-.25-.43,0-.07,0,0-.22-.44-.55-1.42V6.12l-.17-.2L22.8,5l-.06-.29,0,0,0,0-.39-.78,0-.24-.05,0,0,0Zm.58-.1c0,.08,0,.13,0,.15l-.14,0,0,.05v0l0,0,0,0,0-.05,0,0,.21,0-.08-.2Zm-.17.82.14.47h0v.13l.09.1,0,0,0-.21,0,0,0,0v0l-.2-.41Zm.38.2,0,.08,0,0,0-.08Zm0,.83.06.15.05-.1Zm.09.23.09.23.11.18.08,0-.05-.11-.12-.08,0-.17-.05,0Zm.18-1.57.19.37.1.27.08,0L23.4,4l0-.12,0,.06Zm.24,1.76.14.34.07,0-.13-.34Zm0-2.43.06.15.11.18,0,0-.08-.32-.06,0Zm.19,1.64,0,.07h0l0-.08Zm.09,1.46,0,.11h0l0-.12ZM24,4.8l.05.11.1,0-.07-.19Zm0,2.67,0,.21.1,0h0l-.1-.27ZM24.09,7l0,.08.08,0,0-.08Zm0-3.83,0,.07h0l0-.08Zm.13,2.15.24.61.1.05-.23-.62Zm0-1.77v0l.11.05-.05-.12ZM24.36,8,24.59,8l-.14-.26-.1-.26C24.28,7.45,24.28,7.66,24.36,8Zm-.05.19,0,.08.08,0,0-.08ZM24.37,7v0l.08,0,0,0Zm.14-3.57,0,.11.08,0,0,0Zm.07,4.68,0,.08,0,0,0-.07Zm0-.53v0l.15.25.07,0,0-.08-.05,0,0,0v0l-.08-.1Zm0-.68,0,0,0,.08.11,0V7Zm0-3.83.12.31.08,0-.09-.22Zm.07,5.39,0,.07.08,0Zm0-4.55,0,0,0,.08.11,0,0,0,0-.08Zm0,1.31.05.11.07,0v0Zm.05-.55.06.15h0l-.06-.15Zm0-.49,0,.07h0l0-.08Zm0,5.23,0,0,.07,0,0-.12Zm0-1.82,0,0,.11.17h0V7.68L25,7.5Zm0-.63.13.44.08.1.07-.16C25.07,7.09,25,7,24.92,7Zm0,2.64,0,.11.13.22,0,.05,0,0,.25.43,0,.24.09.23.08,0-.49-1.26L25,9.6Zm0,.87,0,0,.05.12h0Zm0-1.42V9.2l.44.89.13.34.11.05-.24-.61-.13-.22,0-.16L25,9.06Zm0-.62,0,.07h0l0-.08Zm0,2.27,0,0,0,.08h0Zm.05-5.4,0,.21.05,0h0l-.09-.23Zm.05,1.48,0,.08,0,0,0-.07Zm0,.8.05.11,0-.11-.05,0Zm0,1.27.08.19,0-.11v0Zm0-.63v.13l.08.1h0V8.33l-.08-.1Zm0-1.19.13.21v.13l0,0,.08,0-.22-.45Zm0-3.89.11.27.07,0-.07-.19Zm0,4.66,0,.08.08,0Zm.09.81.08.19,0,0,.05-.1,0-.08Zm.1-1.1.18.46.33.62,0,0V8.46l-.11-.17V8.16l-.34-.66Zm0,.7,0,.08.08,0,0-.08Zm.05,3.28,0,.08,0,0,0-.07Zm0-9,0,.11h0l-.05-.12Zm.12,4.17.11.27.08,0-.11-.27Zm0,4.57.05.12,0,0V11.2Zm0-2,.09.23s.06-.07,0-.15l-.08-.1Zm0-1.82,0,0,.07,0v0Zm.08,2.12.09.23h0l0-.21-.05,0Zm.12,1.1.09.23,0,.2-.07,0-.06,0,0,0,0,.11,0-.05.12-.05.13.22,0,0a.26.26,0,0,1,0-.27l-.17-.2L26,10.62Zm0-.79.24.61.07,0v0l-.1-.36C26,9.9,26,9.84,25.91,9.86ZM26,12.07l.18.46.07,0L26.06,12Zm0-3.38v.12l.14,0,0-.12ZM26,7.57v0l.08,0v0Zm.1,2.07,0,0,.12.43.08.1.08,0-.22-.57Zm0-.59,0,.12,0,0,0-.11Zm0,1.83.14,0h0l-.08-.1,0-.21,0,0C26.18,10.66,26.17,10.75,26.22,10.88Zm0-3.52.06.15.08,0,0-.07Zm0,4.13,0,.12c.16.4.28.59.35.56l-.17-.55c-.08-.11-.14-.16-.19-.14Zm0,.61.05.11h0l-.05-.12Zm.08-2.63.05.12,0,0,0-.11Zm0,2.86.14.34.07,0v0l-.1-.14v-.13l-.05,0Zm0-3.39.19.37,0,.07.08,0-.08-.19-.06-.28-.06,0h0l0,.05Zm.1.8,0,.17.36.7.05.24.05,0h0l-.42-1.07Zm0-1.82.05,0h0l-.05-.12Zm.06.06,0,.08,0,0,0-.07Zm.17,1.79.18.45.14.26,0,0,0-.17L26.9,10l-.14-.38Zm.05-2.58,0,.08L27,7.18l0-.12,0,0Zm0,4,.1.27.08,0-.07-.19Zm.15-3.58,0,.12,0,0,0-.1-.06,0ZM27,11l.14.47.05,0h0l-.09-.45Zm.06-.51.06.15,0,0-.06-.15Zm.11-2.91.1,0,.08,0-.06-.15-.07,0Zm.42,2.79.05.11h0v-.13Zm.5.6.17.33,0,0,0-.1-.08-.2-.1,0Zm.11-.4.19.5.16.07,0-.14,0-.12a.61.61,0,0,1-.3-.32Zm.26,1.13.06.16,0,0v-.13l-.05,0Zm.12-1.63.05,0v0l0,.11,0,0,0,0Zm.16,0,.08,0,.19.37v0l0,0,.05,0,.23.58,0,0,0,0,.19.5-.18.11c-.12.05-.2.05-.22,0l-.12.14c-.14,0-.22,0-.24,0,.13-.05.18-.12.15-.19l.18,0,0-.06v0l-.26-.55,0-.19-.23-.35V10.4l.08,0,.15,0,0-.2Zm-.12-.21,0,0,.1.05,0,0h0l-.11,0Zm.29.85,0,.08,0,0,.08.09h0l.05-.11,0,0-.11,0Z"/><path class="cls-4" d="M29.27,1l.29,0L31.85.55l.37,0V.48c.14,0,.33.47.56,1.49l.84,2.56v.29q.29.64,1.78,5.51l-.1.1-2,.36c-.07,0-.12,0-.15-.14l-.28-1.11V9.41c-.06-.26-.13-.39-.19-.38L32,9.15v.21q.27,1.48.09,1.65h0l-.34,0-.11.06h-.25l-.24,0-.31.14-.77.13-.14-.06-.16-3h0l-.48-7.25h.08Zm.9,1.33.11.57a1.17,1.17,0,0,1,0,.46l.09.27h0a.32.32,0,0,1,.07-.26l-.19-1.09Zm.11,1.77,0,.29.1.11v.21l.07.15,0,.55s.09,0,.1.11v.21l.08,0,0,.12c-.14,0-.19.13-.15.32l-.16.07.06.32.13,0-.06-.32.05,0h0l0-.25.2,0-.05-.24,0,0-.05,0,0-.16,0-.25-.17-.47,0-.12c.1,0,.14-.17.09-.44A.24.24,0,0,0,30.28,4.12Zm.41,2v.25l.1.06h0v0l-.09-.27Zm0,1.74,0,.12.12-.06v0Zm.1.53,0,.12.2,0V8.41Zm0,.24v.08l.21,0,0-.08Zm.1.77,0,.12.24,0,0-.12Zm.05.29,0,.12.36-.07,0,.08,0,.05v0l.05,0h0c0-.14,0-.21.09-.23l-.15-.1v0l0,.05Zm.13-1.57.07.11h0l0-.13Zm0,.29,0,.2h0l.05-.21,0-.08h0Zm.06.32,0,.12h0l0-.13Zm.09-5.31c.18,2.09.26,3.3.23,3.63l.14.27.68-.13-1-3.78Zm.09,4.91v.08l.08,0V8.33ZM31.43,10l0,.2.17,0,0-.12Zm.09.49,0,.12.11-.06v0Zm0,.2,0,.08.09.07v-.08Z"/><path class="cls-4" d="M35.93,2h.12a.18.18,0,0,0,.2.21l0,.21v.08L36,2.5l-.08-.12Zm0-.37H36v.08h0l0,.21h-.09Zm0-.21h0l.08.09v.08h-.13ZM36.22.5l.08.08V1h0l.12-.12.16.09c0-.28,0-.41.1-.41s.09.13.11.37h0q0-.36.09-.36H37l0,.2h.12V.52h.12V.69c0,.33.12.5.19.5-.07.17-.15.27-.21.28l-.08-.08V1.18h-.08v.33a.3.3,0,0,1-.13.24c-.1,0-.16-.09-.16-.17l0-.12,0,0h0l-.05.4-.12-.12,0,0,0-.13h-.08v0l0,.13,0,.24.08.09.16,0V2l0,.25,0,.16H36.7l-.08-.21.05-.16h-.13v.41h-.12l0-.57H36.3V2h-.08l-.08-.29,0-.13h0c.05,0,.08.07.07.2h.13l.09-.29-.16-.13h-.13c0,.08,0,.12-.08.12h0v0l.13-.16c-.06,0-.12-.11-.16-.33l.05-.17h-.05C36.12.6,36.16.5,36.22.5Zm.24,0h0V.71h0ZM37,2.24l.08.13v0L37,2.49h-.09l0-.17ZM38.35.51l0,0,0,.13.07.45h.13l0-.2L38.51.56l0,0h.17l.16,0,.29,0,1.6,0,0,.21,0,1.64,0,.2a4.77,4.77,0,0,1-1-.1l-.16,0,0,0a1.6,1.6,0,0,0-.15.82h0a.11.11,0,0,1-.12.12v.12h.09v.09l0,.24-.17.33h-.09c0-.22-.06-.33-.11-.34h0V4h0l0,0v.37l-.09.08c0-.09,0-.13-.08-.13s-.1.07-.12.2h-.05l-.07-.29v-.2H38.5s-.09.1-.13.29a.11.11,0,0,0-.12.12h0L38,4.15l-.09.29h0l0-.13,0,0V4.15L37.76,4V3.7h-.12V4h-.2v.2l.21.09v0c-.08,0-.15.05-.2.16l0,.61c0,.17.05.25.12.25s0-.2.08-.2l0-.21V4.76h0l.08.08v.21h.08l0-.33h0c.05,0,.1.08.16.25h0l0-.37h.12l0,0v0l.08.09h0l0-.29h.16l0,0v0c.05,0,.09.12.11.37l0,0V5l0,.66v.2h0l.08-.08v0l0-.41,0-.25h.08l0,.28v.13h.08v-.2L39,5.21l.08.2h0l.09-.28h.08c0,.19.08.29.12.29l-.09.33.06.65,0,0,0,.5,0,1.23,0,.37,0,.41-.05,1.76-.12.12-2-.05L37,10.69l0,0,0-.49.09-3.65.06-.45,0-.21,0,0v0l0-.12a1.45,1.45,0,0,0,.18-.73,1.79,1.79,0,0,1-.15-.58l0-.12.08-1.64h.08l0,.12,0,0v0l.11.29,0,.13h.08V3.07l0-.2h.08l0,.25h.08l0-.2v0c0-.06-.08-.09-.24-.09V2.71h0l.09-.13-.16-.29h.08v0l0,0h.09l.16,0,.24.13.3-.2.16.05V2.12L38.43,2l-.12.08L38.15,2l0,0h0l-.12,0-.08.08h0l0-.17,0,0h-.08V1.65c0-.25-.09-.38-.15-.38l.09-.16c-.17,0-.24-.2-.23-.58h.08l.08.09v.2h.08l0-.24h.08l.08.25H38V.67h0s.08.14.07.41L38.21,1l0-.29s.08,0,.09-.16l0,0ZM37.32,2l.08.09v0l0,0,0,0v.12l0,.21h0l-.12-.13.09-.24,0-.13,0,0Zm.13,1.65v.12h.13v0l-.08-.08Zm0,1.76v.13h0V5.41Zm0,1v.33h.08V6.36Zm0,1.56V8h.08V7.92ZM38,2.76l0,.12L38,3h0c0-.11,0-.17.08-.17l.12.09v0C38.25,2.84,38.17,2.8,38,2.76Zm0-.21,0,.13h0V2.56ZM38,6v.17h.09V6.13Zm.26-.57v.41h.08V5.68l0-.2Zm.11-1.06h.12v0h-.12Zm0-1.85v.13h.09v0l-.08.12a.61.61,0,0,1,.07.37h0l.05-.28,0-.41Zm.14,3.82v.13h.08V6.39Zm.13-1.59h0l.08.08-.05.21h-.08l0,0,0,0Zm0-2V2.9l.12.13L38.86,3V2.82Zm.1.82v.21l.08-.08v0Zm0-.2v.16h0V3.4Zm0,4.55V8.2l.12.12,0-.12C38.94,8,38.89,8,38.81,8Zm.08-3.12h0v.08h0Zm0-1.92h.13V2.83h0ZM39,5.45l0,.13,0,0h0l0,0,0-.13Zm0,.62,0,0v0l.08.08h0V6.15Zm.16-1.6h0l.12.12-.13.49h-.09c0-.11,0-.17-.07-.17C39.13,4.62,39.18,4.47,39.23,4.47Zm0-2.34v.13h0V2.14Zm.32.1v.08h0V2.23Z"/><path class="cls-4" d="M47.76,1.88l.74.27,0,.16.08,0c0-.1.08-.14.13-.13l.27.1.09.12.14,0h0l.09.12.1,0h0s.07.07,0,.15l0,0h0c.08-.09.14-.12.17-.11l.5.18c.19.07.28.16.26.27l-.08.1L50,4.44l.07,0,.31-.85.11,0,0,.37-.13.22-.17.6-.12.21h0q-.08,0,0-.15h0l-.11.05,0,.12.05.1,0,0,0,0h0l.05.11-.05,0-.13.48-.12.35,0,.21.11,0,.07-.2,0,0,.08-.1L50,5.61l.09-.14,0-.17.09-.14,0-.06v0l.05,0,0-.21.11-.3.17-.6.1-.18.16-.55.1-.05h0l0,.21-.14.39,0,0,0,.25h0s.09,0,.11-.09L51,3.32h.13a1.8,1.8,0,0,1,.39,2.06l-.05,0h0a.14.14,0,0,1-.21.1c0,.05,0,.09.08.12v.13h0l0,0,0,.08-.05,0v.22l-.17.24,0,.38,0,.11c-.44,1-.75,1.57-.93,1.63s-.19.16-.49.26l-.08,0,.22-.61,0-.11-.12.09,0,.08-.13.6,0,0-.08,0,0,0,0,0-.16.08,0-.06.06-.15.11-.18.08.12h0l.08-.1,0-.21,0-.11L49.43,8l0,.08,0,0,0,.05,0,.16h0V7.92l.13-.34-.05-.11-.12.22L49.17,8l-.05,0,0,0L49,8.5l-.06.15c0,.11-.21.1-.52,0L48,8.52l0,0c-.19,0-.3,0-.31,0l-.07.2L47.46,9a1,1,0,0,1-.07.45l-.74,2-.12.22,0,.2-.1.27-.16.08-.11,0-.3-.15L45.4,12l-1-.36,0,0,0,0,.11-.18.05-.15,0-.14,1-2.9,0-.17,0,0,.13-.48L46,6.73c.12-.31.2-.45.25-.44L46.28,6l0-.11,1.24-3.57h0l0,0,.08-.23Zm-3.08,9.18,0,.08h0l0-.08Zm1.27.46-.05.15,0,0,.06,0h0v-.13Zm.32-.28,0,.12.08,0v0Zm.91-2.9,0,.12h0l0-.11Zm.5-3.44,0,.08.08,0,0-.08Zm.14-2.08-.13.34.05.11.06,0,.14-.38Zm0,1.45,0,.16,0,.1.1-.18V4.22Zm0-1.74,0,.12.1,0,0-.05Zm.29.76,0,.12h0l0-.11Zm.09,5,0,.12.08,0,0-.11Zm0-4.44.05.11,0-.16Zm1,.48-.86,2.39,0,.11.15,0c.29.11.53-.14.75-.73l.1-.4.24-.57A.59.59,0,0,0,49.25,4.29Zm-.67-1.42v0l.08,0v0Zm.12,2.36-.05.11h0l0-.11Zm.06-2-.1.27.08,0,.07-.19Zm.13,4.84,0,.12.07,0,0-.12ZM49,3.36v0l0,.11,0-.12Zm.8,3.73,0,.12.1,0,0,0Zm0-3.28.1.21h0L50,4l0,0v0l.09-.14,0,0ZM50.2,3,50,3.31l0,0,0,0,0,0,0,0,0-.21L50.28,3Zm.24,2-.17.24,0,.06.16,0,0-.11,0-.21Zm.13-.48-.1.27.11,0,.07-.2Zm.37-.43-.21.58h0c.09,0,.15-.06.2-.19l0-.07,0-.3Z"/><path class="cls-4" d="M54.63,5.19v0l0,0,.13,0-.05.16.1.07s.09,0,.13-.06l.07,0-.1.17,0,0h.15l0,0-.28.6,0,0,.16-.18.07,0v.18l0,0-.27.36,0,.21.18-.23.16-.34.21.13,0,0,.07-.11.07,0,.06-.1,0-.17c0,.07-.09.09-.13.06L55.37,6l0,0h-.06l0,0,.08-.29-.19-.07,0,0,0,0,.07,0,0,0v.06l.17.1.27.12-.08.28,0,0L55.83,6l.28.17c0,.1,0,.17,0,.2l.12,0,0,.22,0,0,0-.07.07,0-.06.1L56.28,7l-.17.28.11.07c.08-.14.15-.2.2-.17l.35.21h.15c-.11.22-.14.35-.09.38l.12,0a.77.77,0,0,1-.1.41s.1,0,.15-.1h.06l0,0s0,.1,0,.22l.1.06.16-.19V8.12l0,0h.06l0,0,.19-.46,0,0c.15.1.11.58-.12,1.46l-.09.14-.16,0-.13.21.07.05.11-.18.07,0-.07.2-.21.35v.06h-.06l0,0c-.61.91-1,1.32-1.1,1.25l0,0,.13-.21,0,0c-.2.33-.38.45-.54.35L55,11.18l0,0a1.5,1.5,0,0,1,.21,1.71l-.29.31,0,.12-.23-.09v.05c.14.09.09.34-.17.76l-.62,1,0,.16-.12.12-.3.49-.09.23c-.1.1-.17.14-.21.11l0-.11c0,.07-.09.09-.13.06l0-.05-.22,0L52.58,16l-.16,0v-.06l.17-.28,0,0h-.06l0,0-.07.2,0,0-.06,0,0,0-.08-.1-.27-.11,0,0-.05,0-.32-.19c-.14-.09-.16-.21-.06-.38l.14-.15.16-.34.09-.14.11,0,.1.07.07.13h.05l.07-.11s0-.12-.21-.22a2.47,2.47,0,0,1,.32-.67l.9-1.47h0c.25-.52.29-.84.1-1l0,0-.05,0L53.23,11,51.5,13.8s-.09,0-.19,0l0,.07a.44.44,0,0,1-.05.4l-.14.15-.1.24-.1.17-.17,0-.14-.08-.16-.15-.23-.09L50,14.42l-.08-.19-.07,0,0,.07-.07,0,0-.07c0-.05.08-.05.15,0H50l0,0L50,14h0l-.21-.13-.11.18-.11,0,0-.06L49.31,14,49,13.83c-.05,0,0-.17.1-.42l.1-.08.05-.16.33-.38.25-.57c.17-.25.27-.36.31-.34l.35-.74,0,0,0-.06,0,0,0,0V11l.25-.42.06,0v-.05l.32-.53.18-.37a3.82,3.82,0,0,1,.91-1V8.53l0,0,.1.06c0,.07,0,.12,0,.15l.14-.15.16.14h0l0-.07,0-.12-.13,0,.09-.14s.07,0,.14,0L53,8.21c-.1-.06-.09-.21,0-.45l0-.06,0,0h-.06v.06l0,0a.48.48,0,0,0-.22.21l-.14-.09.69-1.21.1-.08.1-.24.68-1.12.14-.15.08.19C54.47,5.18,54.57,5.15,54.63,5.19Zm-5.1,8.61,0,0,0,.11,0,0,.06-.1Zm.15-.73,0,.11.1.07,0-.07Zm.09-.23,0,.07,0,0,.05-.07Zm.35.93L50,14l.07,0,.11,0,.11-.17-.07,0Zm.3-2.07-.07.2-.07-.05-.07.11.11.06.17-.28Zm-.13,1.79,0,.13,0,0,.12,0,0-.07-.07,0h-.06Zm.26-.27-.13.06v.06l.1.06,0-.07Zm.08.19,0,.11,0,0,.11,0,0-.12,0,0Zm.12-2.33-.12.12v.06l0,0,.1-.18Zm.13-.21-.07.11.11.06L51,11ZM51,13.48l-.06.1.07,0,.06-.1Zm.05-3,0,.07,0,.22h.15l0-.22Zm.2.22,0,0,.14.09,0,0,0-.11Zm.31.67-.12.21,0,0,.11,0,.05-.07,0-.11Zm.08-.68-.13.21,0,0,.12-.21Zm0-.69-.09.14,0,0,.16.05.1.15,0-.07L52,10.1,51.83,10Zm.09.48-.07.11.12,0,0,0Zm.14.24-.06.1,0,0,.07-.1Zm.22.66,0,.07,0,0,0-.07Zm0-.72,0,.12,0,0,.07-.1,0,0Zm.11,4.78,0,.07.2.07,0,0,0-.12,0,0Zm.38-5,0,.13-.23.15-.08.28.07.05.14-.16,0,.06.14.08.08-.14v0l0,0a.11.11,0,0,0-.17,0l0-.11.15-.24Zm-.16-2.4.07,0,0,.11,0,0-.14-.09Zm0,1.6-.07.1.12,0,0,0Zm.09-.86v.06l.07,0,.07-.1,0,0Zm.1,1-.07.11,0,0,.06-.11Zm.1-.8,0,0,.07,0,0,0ZM53,12.89l-.07.2-.12,0-.08.29h.06l0,0,.12-.27.13-.21Zm-.15,2.6-.06.11,0,0,.07-.11Zm.73-6.86-.07.11c-.07.11-.13.16-.17.13l-.09-.1h0L53.06,9l0,.11c.06-.09.11-.12.16-.09s0,.08,0,.18l0,0,.07.05.11,0,0-.18L53.53,9c.11-.22.14-.35.09-.38Zm-.17,4.13,0,.07-.14.15-.09.24-.09.14.07,0,.38-.54,0-.06Zm-.35-4.3v.06l0,0,.06-.11Zm.09,1,0,.07,0,0,0-.07Zm.1-1.81-.1.17,0,0,.11-.17Zm.2,4.4-.08.13,0,.12,0,0,.1-.08.07-.2,0,0Zm.06-5.45-.07.11,0,0,.06-.11Zm0,2.67,0,0,0,.11.07-.1Zm.06,1.62,0,.07.07,0Zm.21-4.2,0,0,0,.16L53.56,7l0,0,0,.12.06,0,0,0,.06-.25.12-.12v0ZM53.64,9.1l-.07.1,0,0,.06-.1Zm0,3.13-.06.1,0,.12,0,0,.11,0,0-.13Zm.27-1.47-.23.39.07,0,.19-.32Zm.54-4.82v.15l-.38.63-.2.41-.14.15v.06l0,0,0-.07,0,0v0l0-.07.23-.3.18-.37.06-.1.17-.19.07-.29,0,0ZM54,9.55l-.23.29.11.07L54,9.77l.07-.2Zm-.09,3,0,.11,0-.07ZM54,7.36l0,.07,0,0h0l0,0,0-.12Zm1.16.32-.13.21-.07,0L54.87,8l-.06,0,0,0,0,.06,0,0h.06l-.22.44,0,0,0,0,0,.07,0,0v.05l-.28.46c-.1.16-.17.23-.22.2l0,.13.39.23c.16,0,.27,0,.32-.14l.07,0-.09.08c-.2.36-.27.56-.22.59l.17,0a2.38,2.38,0,0,1,.28-.7h0l.28.17c0,.07,0,.12,0,.15l0,0,.06-.11.11-.26,0,0c-.06.09-.11.12-.16.09s0-.11,0-.24l.1-.08.17-.43-.07,0-.23.29,0,0,0,0,0,0,.14-.16.11-.17c.07-.12.08-.19,0-.22l.06,0a.56.56,0,0,0-.19-.78l-.07,0Zm-.86-1.91-.27.45.07,0,.23-.39Zm-.25,5.85.07,0,0-.07Zm.06-.25,0,.11.08-.14Zm0,2.59,0,.06,0,0h.06l0-.07,0,0Zm.54-7.74h-.05l-.09.14q-.16.28,0,.39l-.06.11-.16,0-.06.1.07,0,0,0-.13.06,0,.17.11,0,0,0-.13.21c0,.05,0,.12.17.2l0,.17h.15l0,0c-.12.25-.15.38-.11.41l0,0L54.67,8h0l.15-.49L55,7.36l.1-.18-.07,0,0,0-.25.33,0,0-.14.07,0,0-.07.11-.07,0s-.06-.1,0-.2l-.08,0,0,.07,0,0,.07-.2.07,0,0,.07.1.07c.07-.09.12-.13.16-.1a.66.66,0,0,0,0-.44l.1-.57a.29.29,0,0,1-.2.17l-.08-.1h.06l.06-.11Zm-.42-.88-.09.14,0,0,.08-.14Zm.08,4.52,0,.07-.07.19.1.07.12-.12,0-.22,0,0Zm0,.75-.08.14,0,.11.12-.21Zm0,2.13,0,0,0,.12,0,0,.07-.11ZM54.35,7l.11.07-.09.14,0,0,0-.11Zm0,6.69,0,0,0,0,.12,0,0,0,0,0Zm.18-.23-.06.11.1.06.07-.1Zm0-.5,0,0,.07,0,0,0Zm.27-1-.23.3,0,.05,0,0,.06,0,.15-.24Zm-.15-1.33-.06.1,0,0,.06-.1Zm-.05-5.27.07,0,0-.07Zm.14,7.72,0,.07.07,0,0-.08ZM55,9.78l-.18.37,0,0c-.07.18-.09.29,0,.31l0,0,.1-.17.1-.23.14-.16,0-.05Zm-.23.92,0,.07.11.07.1-.09,0-.05,0,0Zm.23.81-.18.37.12,0,0-.07,0-.06H55l0-.07,0-.12Zm.45-1.36c-.1.17-.18.23-.22.2l-.18-.1-.07.19-.06,0,0,.11H55l.07,0c.05,0,0,.13,0,.31l0,0c.11-.19.2-.26.27-.22s0,.08,0,.15l.07,0c.1-.16.09-.28,0-.35s0-.17.09-.38ZM55.22,10l-.08.14.07,0,.08-.14ZM55.3,6.7l0,0,.07,0,.07-.1Zm.16-.91,0,.13,0,0,.06-.11ZM55.76,9l-.21.35,0,.11.14-.15.11-.18,0-.11Zm0,1.27-.15.24,0,0,.15-.24Zm-.1-3.14,0,0,0,.12,0,0,.06-.11ZM55.9,10l-.14.25,0,0,.15-.25Zm0-.46,0,.07,0,0,0-.07ZM56,6.11l-.07.11,0,0,.1-.09Zm0,3.14,0,.12.06,0,0,0Zm.55.68-.11.17h-.06l0,.06-.13.21-.16.19-.05.31,0,0,.2-.26,0-.12.21-.26L56.6,10Zm-.24-.72-.17.13-.08.2.07,0,.17,0C56.32,9.35,56.32,9.24,56.26,9.21ZM56.2,6.63l-.12.11,0,.06H56l.11.07,0-.06h.06l0-.07Zm.12,3a.18.18,0,0,1-.28.07l0,.11,0,0c.12.07.13.17,0,.31l.07.05.12-.21c.08-.12.09-.22,0-.28Zm-.21-1.14,0,.07,0,0,0-.07Zm.26.59,0,.07,0,0,0-.07Zm.25,1.16,0,.08,0,0,0-.07Zm.11-.17-.09.14,0,0,.08-.14Zm.07-1.78,0,.07,0,0,0-.07Zm.08,1.06-.06.1.11,0,0,0Zm.24-2.45.07,0c.05,0,.05.08,0,.15l-.14.15-.07,0L57,7Zm.21.85,0,0,0,.07-.11,0,0,0,0,0Zm.05-.64c.15.23.2.38.17.43l-.06,0,0,0c-.19-.16-.24-.31-.17-.43l.06,0Zm.08,1.2,0,.07.07,0,0-.07Z"/><path class="cls-4" d="M62.47,10.47a.21.21,0,0,0,0,.23c.08-.07.14-.1.18-.06l0,0v.06h.06l0,0a2,2,0,0,1,.64,1.78,2.57,2.57,0,0,1-.82,1.77l-.06.12-.14.09-.5.59-.31.33-1.1,1.22-.23.18,0,0h0l-.12.12v.06h-.06l-.14.15c-1.09,1.15-1.7,1.67-1.82,1.56a1.4,1.4,0,0,1-1,.35L57,19.05s0-.11,0-.24l.12-.06.16-.24-.06-.05,0,.06,0,0-.25.33-.23.23-.35,0h-.11l0,0,.09-.09,0,0-.2.1L56,18.9l.17-.24-.06-.05-.09.09-.17.12-.09-.09.06-.06.17-.23h0v-.06l0,0a1,1,0,0,1-.48.33l-.06-.17h-.12l0,0-.09-.15h-.06a3,3,0,0,1-.73-1.25,2.76,2.76,0,0,1,.66-2.2l.2-.09.14-.26.25-.21c.1-.1.12-.17.08-.21h.06l0,0,1-1.1.26-.21.28-.36,1.29-1.37a.21.21,0,0,0,.21,0h0a.11.11,0,0,0,0-.18l0,0h.11l.17-.24.11-.12A2.21,2.21,0,0,1,61.58,10,2.37,2.37,0,0,1,62.47,10.47Zm-7.21,4.65-.17.18v.12l.17-.18Zm.2-.21-.14.15h.11l0,0ZM56,18l-.31.27-.09.15,0,0,.17-.12.11-.18.12-.06v-.06Zm-.34-2.51v.11l.12-.11Zm.17-.18-.06.06.06.06.06-.06ZM56,17.1l-.11.12v.12l.16-.18Zm0-2.84-.06.06,0,0,.06-.06Zm0,3.6,0,0V18l.14-.15Zm.21.19-.14.15.06.06.14-.15Zm.15-.58,0,.06v.11l.06-.06ZM60.86,12l-1.3,1.37v.06h-.06l-.4.42-.14,0-.06.06L59,14l-.73.83L58,15l-.22.29,0,0-.17.12-.14.21-.17.12-.28.36-.17.18-.14.09c-.29.4-.37.67-.24.79s.36.11.61-.11v.06l.06.06.11-.12,0,0h-.05l0,0v-.05l0,0,.62-.54V16.3l0,0h.06l0,0,0-.12.34-.24,0-.15.2-.15L60,13.94l1.46-1.55v.06l.06.05.11-.06.12-.18-.06,0-.12.12,0,0s0-.13.08-.26L61.52,12h-.05l-.07-.11A.55.55,0,0,0,60.86,12Zm-4.38,2.13-.06.06.06.06.06-.06Zm.22,3.42,0,0v.11h.06l0,0Zm.08.75-.06.06.06.05.06-.05Zm.11-1-.08.09,0,0,.08-.09ZM57,13.56l-.06.06,0,0,.06-.06Zm.19,4.64-.06.06,0,0,.06-.06Zm.33-4.54-.08.09,0,0h.11l.06-.06Zm.11-1.13-.05.06,0,0,0-.06Zm.2-.21h-.06l0,0v.12h.11l0,0Zm.51,1.38-.54.57,0,0h.06l0,0,.31-.38.17-.18Zm0,2.5-.11.12,0,0,.11-.12Zm.25-2.36-.11.12.06,0,.06-.06Zm.13,2.32-.09.09h.12v-.06Zm.07.28-.09.09v.12l.14-.15Zm0-4.06,0,0,.06.06,0,0Zm.22-.64,0,0-.09.14-.11.07v0l0,0,.2-.21Zm0,2.09-.06.06,0,0,.06-.05ZM59,11.18v.06l0,0,.08-.09Zm.22.55-.17.12v.06l.06.05.17-.18Zm.08-.5-.09.09-.11.18.06.06.23-.24ZM59.23,17l0,0v.11l.08-.08Zm.48-5.41-.22.24,0,0h.11l.12-.12v-.11Zm0-.38-.14.15.06.06.14-.15Zm.06,3.94-.17.18.06.06,0,0,.11-.18ZM60,12.52l-.19.21.06,0,.19-.21ZM60,15l-.12.11H60Zm0-2.85-.06.06v.12l.11-.12Zm0,2.41,0,.06.06.06.05-.06Zm.22-.59-.06.06.06.06.06-.06Zm.26-2.85c-.09.14-.12.23-.08.27l.12-.12v-.12Zm0,.44-.08.09.06.05,0,0Zm.57-.6L61,11h.12V11Zm.68.41v.12l.11-.12Zm.2,1-.06.06,0,0,.06-.06Z"/><path class="cls-4" d="M67.77,16.05l0,0c0,.05,0,.12-.1.22l0,0c.11-.07.19-.09.21,0l.06.16.1.08c-.06.1-.08.16-.06.19l0,0,.18,0c.32.78.34,1.26.09,1.43-.07.05-.09.1-.06.14l.17-.11,0,0a.81.81,0,0,1-.31.71l-.07,0q.23.33-1.26,1.35h-.06l0,0-.43.39-.12,0-.05-.06,0-.13L66,20.42l-.61-.88V19.4l-.11,0,0,0v-.15l-.11,0V19H65l0,0,.21-.19h.06l.15-.15.23-.16h.21l.24-.21.23-.11c.26-.34.35-.58.25-.72l-.09-.13-.48,0,0,.14h-.06l-.13.09v.06h-.06L62.2,20l-.07-.1.07-.05,0,0c-.19.1-.31.13-.34.08V19.8l0,0h0l0,0v-.06l-.07-.1-.21.2,0,.06h.06l0,0c-.06,0-.09.14-.08.31l-.08.1-.2.08-.31.27-.12,0-.06.2,0,0h-.06l-.42.49-.12,0-.16.21-.71.48,0,0h.06l0,0,.67-.55c.22-.16.39-.16.5,0s.48,0,1.15-.49l.92-.62,0-.12-.07-.1H62.7l0,0,0-.14.11-.07,1.06-.78H64l.21.31v.06l.1.07v.15l.2.16,0,0h.06l.62.92.11.22.12.12,0,.13-3,2.06h-.06v.06l-.17.12,0-.07v-.06l0,0-.31.21c.07.09.07.15,0,.18l-.29.15-.12.13-.12,0-.28.24h-.06l-.09-.13c0-.05,0-.1.09-.16v-.06l0,0a.22.22,0,0,1-.34-.07l-.11-.17v-.05h-.06l-.23-.34,0-.17.2-.14a.52.52,0,0,1,.37-.05l0-.07c.1-.09.14-.17.1-.22s-.22,0-.33-.12a.39.39,0,0,1-.45.06c-.13.09-.42,0-.88-.4L58.84,22c-.08-.12-.09-.21,0-.28h-.06l0-.06,0-.18.37-.25.49-.29.12-.13h.05l0,0,.46-.42.12,0,.08-.1-.07-.11-.16.06,0-.06.26-.28,0,0-.19.08-.18.17,0,.07h0c.05.1,0,.2-.14.3l0,0h0l0,0-1.23.89h0a1.46,1.46,0,0,1,.11-.92l.2-.14h0l0,0v.05l-.07,0c-.09-.14.12-.49.62-1.07l.19-.08,0,.07-.07.05.07.1.06,0,0-.06,0,0,0,0,.08-.11-.07-.1-.07,0,0,0,.12-.18.43-.24.16-.21,2.94-2a3.19,3.19,0,0,1,1-.46l.15-.21.79-.44v.05l.07.11.27-.19a.84.84,0,0,1,.77,0c.06,0,.15,0,.26,0v.06l-.24.16,0,0,.12,0,.34-.23.07.1-.31.21,0,.11,0,0,.21-.14.21-.2.32.18,0,.11-.34.23,0,.12h.06l0,0,.38-.31.1-.07ZM59.82,19.9l-.26.13-.18.17-.37.25,0,.07v-.06l0,0h.2l.1-.07,0-.06,0,0h.06l0,0v.06l0,0h0l0,0-.08.1.05.07.07-.05,0,0v-.06l0,0,.2-.09v-.05l0,0h.06l.1-.07,0,0-.14-.06,0,0,0-.17,0,0,.08-.1Zm.6.88-1.32.9.11.08.06-.05.08-.1.19-.08.55-.37.25-.28.12,0,0,0Zm-.94.94-.37.26,0,0,.11,0,.14-.09.14-.15ZM60,19.43l-.25.07-.53.46-.1.07,0,.12L60,19.6Zm-.7,2.76-.1.07,0,0,.1-.07Zm0-1.65-.11.07,0,.07.1-.07Zm.63.86-.27.18,0,.07.22-.11.12-.12Zm.16-1.8-.07,0-.19.23.14.06.26-.28,0,0Zm-.22.55,0,0,0,.07,0,0Zm.11.67-.13.09,0,0,.14-.09Zm.12,1.41-.07,0,0,0,.06,0Zm.1-3.35h-.06l0,0,0,.12,0,0L60.2,19Zm.1.23,0,0-.15.15,0,.07.2-.14Zm.34,3.1H60.6l0,0-.35.29.11,0,.08-.1.22-.11Zm-.22-2.79-.2.14,0,.07.21-.14Zm0,1.69-.07,0,0,0,.07-.05Zm.35-.94h-.06l-.14.15-.13,0-.07.11,0,.06.19-.08,0,0C60.78,20.33,60.83,20.25,60.8,20.17Zm0,2.18-.28.19,0,.07.2-.14Zm.19.22-.1.07,0,0,.1-.07Zm0-2.24-.1.07.11,0v-.06ZM62.16,23l-.15.15-.12,0-.64.54-.12,0-.21.2,0,0,.56-.34.45-.35.2-.09.08-.1Zm-1.1-4.37-.11.07.12,0,0,0Zm.3-.35,0,0v.2l.2-.13-.05-.07Zm.14,1-.06,0-.08.11,0,.07.06-.05Zm.24.13-.21.14c-.12.1-.17.18-.13.24l.4-.22.07-.11,0,0Zm-.16-.89-.17.12,0,.11.23-.16Zm0,.38-.1.07.06.1,0,0,0-.12Zm0,.22-.06,0,.07.1.06,0Zm.1,2.31h-.06l-.06,0,.07.1,0,0Zm.17.19-.16.11,0,0,.17-.11Zm0,1.35-.07.05,0,0,.07-.05Zm0-1.71-.07,0,.05.07.07,0Zm.61-2.75-.1-.13c.07,0,.09-.09.06-.14h-.21l0-.12-.17.11.15.15,0,0-.11.13,0,0c0,.05.1,0,.19,0,.09.13.24.13.44,0l0,0C62.62,18.46,62.56,18.47,62.47,18.53ZM62.08,22l0,0,0,.12,0,0,.11-.07Zm.17.62-.17.12.05.07.1-.07Zm0-1.32-.06.05,0,0,.07,0Zm.2-2.11-.21.13,0,.07.2-.14Zm.08-1.7-.11.07.07.1,0,0,0-.12Zm.57.9-.07,0-.36.2-.18.17.07.1.06,0v-.06l.13,0,.38-.31ZM62.68,22l-.14.09.07.1.07-.05,0-.11Zm0-4.9-.07.05,0,.11h.06l0,0,0-.11ZM63,19.19l-.16.06c-.12.11-.16.19-.13.24l.34-.24ZM62.82,19l-.12,0v.06l0,.06.07,0ZM63,20.73l0,0,0,.06.1-.07Zm.27-.83-.07.05,0,0-.16.21,0,0,.19-.08.1-.07Zm.17-1.36h-.06l-.21.2,0,.07.11-.13.13,0v-.05Zm-.06-1.25-.11.07,0,0,.1-.07Zm0-.73-.1.07,0,.07.1-.07Zm.39,3.62h-.06l0,0-.08.1.11,0,0,0Zm.1-3.05-.07,0-.15.15,0,0,.3-.21Zm0-.59-.07,0,0,.12.14-.1ZM64,17.73l-.14.15,0,.07.27-.19,0,0Q64.11,17.66,64,17.73ZM64.58,16l-.16.11,0,.12-.19.08-.2.14,0,.07.24-.16h.06l.08-.11.12,0,0,0-.11.07,0,0c-.1.14-.14.23-.11.27l.18,0a.56.56,0,0,1,.23-.26l-.07-.1-.07.05,0-.07c.07-.05.09-.09.06-.14Zm-.44.65-.1.07,0,0,.11,0,0,0Zm.28,1.15-.27.18,0,.07.2-.14Zm.8-.94L65,17l-.69.58,0,0,.3-.21.25-.22.3-.15.1-.07Zm-.84-.07,0,0,0,.11.1-.07Zm.21-.2-.1.07.07.1,0,0,0-.12Zm.54,0-.58.4,0,.06.51-.34Zm-.2-.21-.2.14.07.1.13-.09,0-.12Zm.32-.27-.08.11,0,0,.14-.09h-.06Zm.1,2.62,0,0,.07.1.1-.07,0,0Zm.34.06-.2.14,0,.12.27-.19Zm0-1.65-.2.14,0,.07.2-.14Zm.12-1.72-.21.14,0,.07.2-.14Zm.15.15-.34.23.05.07.16-.12.15-.15ZM65.83,19l-.17.11,0,.12h0l.14-.1,0-.11ZM66,16.65l0,0,0,.11.06,0,.13-.1,0,0Zm.27.11h-.06l-.06,0,0,.12,0,0,.1-.07Zm0-1.37,0,0,0,.11.16-.12Zm.26.52-.1.07,0,.12.23-.16Zm.51-.05-.27.19,0,.06.28-.18Zm.17,2.22-.4.28,0,.06.41-.27ZM67,19.48l-.27.18,0,.07.27-.18Zm-.05-1-.07,0,.12,0Zm.32-1.71V16.7l0-.07-.35.14v.15l0,0,.18,0,.17-.12c0,.07.09.09.14.06l.07-.05,0,0Zm-.23,3L67,19.8l0,0,.07,0Zm.64-2.47-.68.46,0,.07.67-.47Zm-.41,1.37-.13.09,0,.07.14-.1Zm.41-1.73-.13.09.11,0Zm.17-.11-.1.07,0,0,.1-.07Zm.38,1.63-.11.07.11.08.07-.05Z"/><path class="cls-4" d="M70.35,21.63l0,.05,0,0,.08.1-.13.1,0,.11s.07.06.15,0l0,.08-.19.08,0,0,.12.09v0l-.57.33v0l.25-.06,0,.08-.12.14h0l-.43.14-.11.17.28-.07.33-.18.09.23,0-.05.11,0,0,.08.11-.05.07-.16c-.07,0-.12,0-.14,0l0-.2,0,0,0,0,0,0,.24-.18-.12-.18,0-.05,0,0,0,.08,0,0,0,.06.08.19.14.25-.23.18,0,0,.25,0,.13.31c-.1,0-.13.11-.11.17l.11.05-.09.21,0,0,.07,0,0,.07-.12.05-.27.2-.3.13,0,.11c.15-.06.24-.07.26,0l.16.38.12.08c-.22.12-.31.21-.29.26l.08.1a.81.81,0,0,1-.33.27s.08,0,.18,0l0,0,0,0s0,.1-.16.15l0,.12.24-.06,0-.05,0,0,.06,0h0l.43-.26v0q.11.26-1,1.11l-.15.06-.1-.13-.23.09,0,.08.19-.08,0,.07-.17.12-.38.16,0,.05-.06,0h0c-1,.38-1.57.5-1.63.36l0,0,.23-.1v0c-.36.15-.57.13-.64,0l-.31-.32,0,0a1.49,1.49,0,0,1-.85,1.5l-.41.08-.09.08-.14-.21,0,.06c.06.15-.13.32-.59.5l-1.1.46-.13.1-.17,0-.53.22-.21.13q-.21,0-.24,0l0-.11q-.12,0-.15,0l0-.05-.15-.16,0-.17-.1-.13,0-.06.3-.12,0,0,0,0,0,0-.17.12h0l-.05,0h0v-.12L62,28.44l0,0-.05,0-.14-.34c-.06-.16,0-.27.17-.34l.2,0,.33-.18.15-.06.11,0,.05.12,0,.14,0,0,.11,0c.06,0,0-.12,0-.3a2.47,2.47,0,0,1,.65-.36l1.6-.65,0,0c.51-.27.72-.51.64-.71l0,0-.06,0-.09-.22-3.07,1.26c-.05,0-.1,0-.14-.12l-.08,0a.43.43,0,0,1-.28.29L62,27l-.21.14-.19.07-.16-.06L61.41,27l0-.21-.13-.21-.08-.19.06-.2,0-.08-.08,0,0-.08.07,0c.05,0,.09,0,.13.08l0,0h0l0-.06,0,0-.1-.23-.19.08-.1,0,0-.05-.12-.18-.12-.3q0-.08.33-.27h.13l.13-.1.49-.11.54-.31c.28-.1.43-.14.45-.1l.72-.39,0,0,0-.05,0,0,0,0,0,0,.45-.19.05,0,0-.05.57-.23.36-.2A4.06,4.06,0,0,1,66.48,23l0-.05,0,0,0,.12c-.07,0-.1.07-.08.12l.2,0,0,.21.06,0,.07,0,.05-.11-.09-.1.15-.06c.06,0,.1,0,.13.08l.11-.05c0-.1.06-.22.3-.34l0-.06,0,0-.05,0,0,.06h0a.48.48,0,0,0-.3,0l-.06-.15L68.34,22h.13l.21-.13,1.22-.5.2,0,0,.19C70.23,21.53,70.33,21.57,70.35,21.63Zm-9.2,3.93h0l0,.11v0l.12,0Zm.49.33-.19.08,0,.07.11.05.19-.08,0-.08Zm.06-.83-.05.11.05.11.08,0Zm.21-.13-.07,0v0l.08,0Zm0,.83-.09.09v0l.11,0,.07,0,0-.08,0,0Zm.38-.06-.15,0,0,0,.05.12.07,0Zm-.06.2,0,.1,0,0,.1.05,0-.11,0,0Zm.09,2.58-.07,0,.11.17h0l0-.11,0,0Zm.15-2.33-.11.05,0,.08.11-.05Zm.34,2.75-.12.05,0,0,.11,0Zm.27-4.51-.17.12,0-.08-.11.05.05.12.3-.13Zm.63-.3-.17,0,0,.05v0l.19-.08ZM64,24l-.12,0,0,.12.08,0Zm.23.79-.22.09v0l.11,0,.07,0,0-.11Zm.29,2.1-.17.11-.11,0-.23.18.05,0,0,0,.25-.14.22-.1Zm-.18-3.12-.07,0-.16.15.12.08.16-.15ZM64.9,27l-.07,0-.21,0-.21.13-.15.06,0,.08.62-.21,0-.06Zm-.55-3,0,0,.06.15,0,0,0-.1Zm.31.23-.23.09,0,0,.23-.1Zm0,.84-.08,0,0,0,.07,0Zm.11,3.28,0,.06,0,0,0,0,.08,0,0,0Zm.1-3.94-.11,0v0l.12,0Zm0-.28-.11,0,.1,0h0Zm.22-.44-.16.06,0,0,.1.13v.19l.07,0,.18-.12-.07-.15Zm.48.95-.1.09-.27,0L65,25,65,25l.21,0,0,.05.06.15.15-.06,0-.05,0,0a.1.1,0,0,0-.16-.06l0-.11.27-.11Zm-.51-.14,0,.1,0,0,.12-.05,0,0Zm0,3.75,0,0v0l.11.05,0,0,0,0Zm.23-1.82-.15.06,0,.11,0,0h.13l.17-.12,0,0Zm.05.24-.11.05,0,.11v0l.11,0,.1-.09Zm0,1.51-.11.05,0,.11.11,0Zm0-1.12,0,.11.07,0Zm.16.38h0l0,.11,0,0,.11-.05Zm.08.32h0l0,.08,0,0Zm.1.23-.08,0,0,.07.08,0ZM66,24l-.11,0,.11.05,0,0Zm.06.24-.11.05v0l.12,0Zm.08,1.39-.07,0,0,.07Zm.4.1-.42.17,0,.07.35-.14Zm0,1.47-.36.1,0,0v0l0,0,.27-.11Zm-.38-.69,0,.07.08,0Zm.2-.17,0,.11.15-.07Zm.23-3,0,.05,0,.08.12,0,0,0Zm0,.29,0,0,0,.08,0,0ZM66.91,27l-.36.2.11,0,.07,0,0-.05,0,0,.08,0,0-.11Zm-.28-2.72-.07,0v0l.08,0Zm.26,1.58-.15.06,0,.11.23-.09Zm0-3.15,0,.08,0,.11h0l-.07-.15Zm.6,1.13-.12.05c-.12.05-.2.05-.22,0v-.13l0,0-.27.11,0,.11c.1-.05.16,0,.18,0s0,.1-.12.14l0,.05,0,.08.11,0,.12-.14h.13c.21-.11.31-.2.29-.25Zm-.22,1-.36.1L67,25l.15-.07.17-.11ZM67,24.25l0,0,0,.11.11-.05ZM67.15,26l-.12,0,0,0,.11-.05Zm.2-.79-.07,0-.18.12.05.11.17,0,.16-.15,0,0Zm-.11-1-.11.05,0,0,.11,0Zm0,2-.08,0,.05.11h.13l0-.05v0Zm0-2.81,0,0v0l.12-.05Zm2.16.61-.23.1,0-.08-.19.08-.05,0h0l0,.06v0l.06,0-.44.22,0,0,0,.06-.08,0,0,0,0,0-.49.2c-.18.08-.28.09-.3,0l-.1.08.17.42a.38.38,0,0,0,.35.08l0,.07h-.13c-.37.18-.55.29-.52.35l.16.07a2.63,2.63,0,0,1,.63-.4l.06,0,.12.3c-.07,0-.1.07-.08.12v0l.12-.05.25-.14,0,0c-.1,0-.16,0-.18,0s0-.13.14-.2h.13l.39-.24,0-.08-.36.1,0,0,0-.06,0,0,.2,0,.19-.07c.13-.06.18-.11.16-.16l.06,0a.57.57,0,0,0,.31-.75l0-.07Zm-1.24,2.16q-.27.11-.3,0L67.7,26l-.17.12,0,0,0,.11.06,0,0,.08c0,.06,0,.13-.22.22v0c.21-.08.32-.09.35,0s0,.09-.08.12l0,.08c.18-.07.24-.17.19-.3s.07-.16.29-.26Zm-.14-.56-.37.19v0c-.17.11-.24.18-.22.22v0l.19-.08.21-.13.21,0,0,0Zm-.16-2.74-.18.08v0l.19-.08Zm.23,3-.15.06,0,.07.15-.06Zm.22.53-.27.11,0,0,.26-.11Zm.83.19-.19.07-.05,0,0,.06-.22.09-.25.06L68.1,27l0,0,.32-.09.1-.09.32-.08.25-.15Zm-.49-.33-.27.11,0,0,.26-.11Zm.17-3.89,0,0-.13.1-.17,0,0,0,0,.1.05,0,0,0,.19-.17.17,0,0,0Zm1-.2-.09.12-.68.28-.4.21-.21,0,0,.06,0,0,.07,0,0,0,0-.05.08,0,.35-.11.37-.19.11-.05.24-.05.24-.19,0,0Zm0,.35-.06,0-.15.06c-.2.08-.28.19-.22.31l-.12.05-.1-.14L69,22.8l0,.08h0l-.14,0L68.8,23l.11,0v0l-.22.09c-.06,0,0,.11,0,.26l-.06.16.12.08v0q-.36.2-.33.27l0,0,.23-.1,0,0,.41-.3.24-.06.19-.08,0-.07h0l-.39.12v0l-.14,0,0,.05-.11.05,0-.08c0-.06,0-.12.1-.17l0-.08-.07,0,0,0,.18-.11,0,.07-.08,0,0,.11c.1,0,.16,0,.18,0a.62.62,0,0,0,.25-.37l.41-.39a.31.31,0,0,1-.26,0v-.13l.05,0,.11,0Zm-1.17-.36-.12,0,0,0,.11,0Zm0,.9-.08,0,0,0,0,0,0,0,.1-.09ZM69,25.38l-.38.15,0,.11.21,0,.19-.08,0-.11Zm.1.79a.17.17,0,0,1-.26-.11l0,.11,0,0c.05.13,0,.23-.15.29l0,.07.23-.09q.2-.08.18-.21Zm-.32-.35-.08,0,0,0,.07,0Zm.49,0h-.22L68.9,26l0,.07.16.07C69.25,26,69.32,25.9,69.29,25.84Zm-.29,1-.08,0,0,0,.08,0Zm.07-3.93,0,.11-.15.06v0l0-.1ZM69,25.69l0,.11,0,0,0,0Zm.18,1.08-.15.06v0l.16-.06Zm.57-4.85-.49.2,0,.08.42-.17Zm-.28,3.84-.07,0v0l.08,0Zm.14-.63-.07,0v0l.08,0Zm.12,1.15-.11,0,.1.05,0,0ZM70,21.53l-.15.06v0l.15-.06Zm0,2.24,0,0,0,.11,0,0,.11,0Zm0-.53,0,0,0,.07.12,0Zm.22-1.51,0,.08.08,0Zm.08,3.65-.07,0v0l.08,0Zm.47-1.66-.16,0,0,.06,0,0,0,.11,0-.05.05,0,.08,0Zm-.1-1.11-.1.08,0,0,.11,0Zm.15,3.17-.07,0,0,.07.08,0Zm.08-2.6-.11,0,0,0h.13Zm.15,2.07v0l-.07,0-.11-.05,0-.05,0,0Zm.33-.81,0,.08c0,.05,0,.09-.08.12l-.2,0,0-.07,0-.11Zm.09.32c0,.28-.06.43-.13.45l0,0v0c-.06-.24,0-.39.12-.45l0,0Z"/><path class="cls-4" d="M73.78,29.27v.29l.46,2.29,0,.37h0c0,.14-.47.33-1.48.56l-2.56.84H70c-.44.19-2.27.78-5.51,1.78l-.1-.1-.37-2c0-.07,0-.12.14-.15l1.12-.28h.13c.26-.06.39-.13.38-.19L65.64,32h-.2c-1,.18-1.54.21-1.66.09v0l0-.34-.06-.11v-.25l0-.24-.14-.31L63.41,30l.06-.14,3-.16v0l7.25-.48v.08Zm-9.67,2.28-.08,0-.07.09H64Zm.2,0-.12,0,.06.11h0Zm.48-.09-.2,0,0,.17.12,0Zm.3-.43L65,31l.07.36-.08,0,0,0h0l0,.05v0c.14,0,.21,0,.23.09l.09-.15h0l0,0Zm.28-.05-.12,0,0,.24.12,0Zm.68.25-.13,0v0l.12,0Zm.1-.35h-.08l0,.21.09,0Zm.22.29-.2,0v0l.22.05.08,0v0Zm0-.33-.12,0,0,.2h.08Zm.06.57h-.08l0,.08h.08Zm.21-.25-.12.07v0l.12,0Zm.26-.42-.13,0,.07.12h0Zm4.43.58c-2.09.18-3.3.26-3.62.23l-.27.14.12.68,3.79-1Zm-.68-1-.29,0-.1.1h-.21l-.16.07-.54,0s0,.09-.11.1h-.21l0,.08-.13,0c0-.14-.13-.19-.31-.15l-.07-.16-.33.06,0,.13.33-.06,0,.05v0l.24,0,0,.2.24-.05,0,0,0-.05.16,0,.26,0,.47-.17.12,0c0,.1.17.14.43.09A.22.22,0,0,0,70.67,30.28Zm-2,.41h-.25l-.06.1v0h0l.28-.09Zm3.79-.52-.57.11a1.17,1.17,0,0,1-.46,0l-.27.09v0a.34.34,0,0,1,.27.07l1.09-.19Z"/><path class="cls-4" d="M74.51,36.58l0,.62-.13.11-.53,0v.08l.53,0,.12.13-.13,1.85c-.3.06-1.85.14-4.62.26v.08h0a27.23,27.23,0,0,1,3.09.54l0,0a6.61,6.61,0,0,1,1.38.3v.08l-.07.41v.57l-.11,1.68-.14.12-.61,0L73,43.27h-.5L68.11,43c-.13,0-.2,0-.19-.14h-.13c0,.08-.07.11-.21.11l-3.68-.26-.12-.13.12-1.72.13-.11,1.84.13c.41,0,.62.07.61.12l.34-.06,3.51.24v0L70.26,41h-.08q-.95-.08-6.18-1.08l0,0,.08-1.23q0-.13,1.41-.15l4.75-.29v0l-6-.41-.11-.13,0-.53.13-.11.49,0,.32.1h0a.71.71,0,0,1,.5-.09l.29,0L66,37l-.24,0-.65-.08-.05,0h0l0,0-.74,0-.07-.13V36.7c0-.14.1-.2.26-.19v-.08h0l-.13,0-.07-.13,0-.24c0-.17.12-.24.34-.23l1.84.13.24.06.79,0,.24.06.29,0,.32.07v0l.12.05h.49l.2.14h.12l.13-.07.41,0c.32.07.48.13.48.2v0l0,0v0h.12v-.12l0,0,0-.12.82.05h.57l.2.14.94.06h.37l.16,0,.79,0h.12Zm-9,.13,0,0-.21,0v.09h.16Zm.13-.15h-.12v.12l.13,0Zm1.66-.14h-.09v0l-.29,0-.21,0-.11-.13,0-.12h-.08v.12h-.12a.82.82,0,0,0-.51.21l.82.06Q67.32,36.54,67.33,36.42Zm-1,4.79H66.3v.08h.08Zm.32-4c-.06,0-.08-.06-.07-.17l0,0h0l-.06.28,0,0h0Zm.82.06h-.08v0h.08Zm.38-.84h-.45v0l.28.06Zm.08.74h-.09l-.08.08H68Zm.66-.69-.08-.09h-.12v.09h0l-.28-.06-.12,0,.11.13h.12c.06-.06.19-.07.42-.06Zm-.16.48H68.4l-.21,0V37l.28.06Zm0-.29h0l-.21,0,.08.09h.16Zm2.4.33-.61,0a1,1,0,0,0-.45,0l-.17,0-.94,0-.17,0v0l.12,0,0,0,.61.08h.08l0,0,.87-.11.49,0Zm-1.36-.54h-.16v.08h.09Zm-.06,2.17h-.08v0h.09Zm0-1.35h-.08v0h.09ZM71,40.41h-.24v.08h0l.21,0ZM71.23,37l0-.05h0l-.24,0,.07.09h.17Zm2.43,0L72.31,37l-.09.07.16.06.29,0,.9.07Zm-.88-.35h0l-.16,0-.12-.09c-.11,0-.17.07-.17.11v.08h0l.34-.06h.12Z"/><path class="cls-4" d="M73.1,48.63c-.1.33-.24.52-.39.56l0,.14a2,2,0,0,1-1.29,1.06l-.47,0-.08,0,0-.05h0c0,.09-.57,0-1.62-.31l0-.14.15-.47.06,0,0-.06.31-1,0,0,0,0v0c.07-.15.14-.21.19-.2l.12,0,0,.08.14,0,.33.19h0c.56.06.85,0,.88-.06l0-.08c.08-.26-.09-.46-.5-.59l-.36-.11A1.65,1.65,0,0,0,68.9,48c-1.23.9-2.19,1.24-2.9,1,0,0-.35,0-1-.19l0,0,0,0-.28-.09,0-.05-.06,0-.07,0q-.09,0,0-.18l0,0-.08,0a.22.22,0,0,1-.14.17,2.08,2.08,0,0,1-.72-.44l-.05,0h0c-.28-.22-.42-.39-.43-.52l.11,0,0-.08-.21,0a2.33,2.33,0,0,1-.15-1.94h.16a.5.5,0,0,0,0-.4l.21-.11,0-.14v0l.1-.05,0-.06,0,0c.14-.28.26-.39.37-.36l.06-.2a.74.74,0,0,1,.87-.15l.08,0V44l-.23-.08v0a1.93,1.93,0,0,1,1.19-.09l.06.1h0a.58.58,0,0,1,.31,0l.54.18.45.1.1.07.21,0,0,.18-.26.69v.13l0,0-.09.41-.16.5-.16.09c-.3-.12-.45-.2-.44-.23l0-.29,0,0,0,.06.07,0,.11-.05v0l-.12,0-.05,0,0-.05,0,0H66l-.3-.14-.2,0,0,.08,0,0v0a1.54,1.54,0,0,1-.59,0c0,.06-.14.14-.37.22l-.12.22,0,.31c.35.17.52.28.5.34l0,0-.18-.1h-.17l.08.15.12,0,0,0,.13.13.11-.22A1.86,1.86,0,0,0,67,46.5a7.08,7.08,0,0,1,2.43-1.29l1.26.1.18.1H71l.11.08.28,0c1.1.4,1.69.94,1.78,1.6l-.05,0c.09.05.13.11.11.17s-.06.06-.14,0l0,.08c.1,0,.15.07.13.13v0l-.52-.12,0,.11.35.11.18.1-.1.18.06.1,0,0,0,0,0,.18c-.12,0-.18,0-.19.07l0,0C73.07,48.5,73.12,48.56,73.1,48.63Zm-9.66-2.91L63,45.63v0l.34.15,0,0Zm.23-.44-.37-.21,0,0,0,.08.43.13Zm-.17-.7s-.11.05-.19.19l0,0-.05,0,0,.08,0,.1.08,0,0,0,0-.29,0,0ZM63.44,46l-.08,0v0l.08,0ZM64,47.8l-.07,0-.29-.05.08.15H64Zm-.21-3.12,0,0,0,.08h0Zm.25-.23-.21,0,0,.08a.22.22,0,0,1,.16.31l.08,0,.11-.05C64.15,44.58,64.11,44.47,64.06,44.45ZM64,44.12l-.05,0,0,.08.06.1.1,0Zm.59,3.28c-.3-.07-.45-.08-.47,0l.35.12.11-.06Zm.17-.41,0-.05-.12,0,0,.08,0,.05v0l0,0,0,0-.06,0,0,.12.11,0,0-.12Zm.35-1.92L65,45l0,0,.11.07Zm.36-.44-.27-.09,0,.08.28.09Zm.1-.31-.27-.09,0,.12.18.1h.13Zm.44.78-.37-.2h0l0,.11.43.14Zm-.34-1-.08,0v0l.08,0Zm.94,1.12-.21,0,0,0,0,0h-.13l0,.08.08,0v0h.13l.1.08,0,.07-.5-.07-.3-.14,0,0v0l0,.05.89.29,0-.16-.07,0,0-.08.08,0v0Zm-.51.53,0,.11h0l-.18-.1,0-.08.18,0Zm.74-1-.16-.05v0l.15.05Zm.24-.23-.08,0v0l.08,0Zm.55,2.07-.2-.06v0l.19.06Zm2.34-.2-.16-.05,0,.12.15,0Zm-.11.22h0l0,.12.12,0v0ZM70,48.36l-.08,0v0l.08,0Zm.86.27-.18-.1-.24-.07.08.15.12,0,.21,0Zm-.18-2.81-.08,0,0,.12.08,0Zm.5,2.87-.15,0,.05.11.16,0Zm1.45.46L72.38,49,72,49l-.5-.17-.21,0v0c0,.08,0,.13.11.17a.78.78,0,0,1,.43,0c.23.09.34.17.32.23l-.11.06.12,0,0-.15.27.08.11-.05Zm-.8.48-.27-.09v0l0,.11.19.06Zm.15.35-.29,0-.08,0v0l.06.11.23.07.1,0,0,0Zm0-.83-.05,0v0l.11,0Zm.78-.83-.47-.15s0,.09.1.12l.36.07Zm-.3-.4-.12,0,0,.11.12,0Zm.11-.48-.08,0-.1,0,.08,0Zm.24-.48h0l-.1,0,.19.06Zm.11.33-.12,0,0,.08.11,0Z"/></g></g></g></svg>