<svg xmlns="http://www.w3.org/2000/svg" xmlns:xlink="http://www.w3.org/1999/xlink" viewBox="0 0 74.8 74.8"><defs><style>.cls-1{opacity:0;}.cls-2{fill:#fff;}.cls-3{fill:url(#radial-gradient);}.cls-4{fill:#222;}.cls-5{fill:url(#radial-gradient-2);}.cls-6{fill:url(#linear-gradient);}</style><radialGradient id="radial-gradient" cx="37.4" cy="62.33" r="19.47" gradientTransform="translate(0 54) scale(1 0.13)" gradientUnits="userSpaceOnUse"><stop offset="0"/><stop offset="0.32" stop-color="#231f20" stop-opacity="0.6"/><stop offset="1" stop-opacity="0"/></radialGradient><radialGradient id="radial-gradient-2" cx="37.4" cy="37.4" r="24.93" gradientUnits="userSpaceOnUse"><stop offset="0.64" stop-opacity="0"/><stop offset="0.95" stop-color="#231f20" stop-opacity="0.29"/><stop offset="1" stop-opacity="0.5"/></radialGradient><linearGradient id="linear-gradient" x1="37.4" y1="39.33" x2="37.4" y2="13.47" gradientUnits="userSpaceOnUse"><stop offset="0" stop-color="#fff" stop-opacity="0"/><stop offset="1" stop-color="#fff" stop-opacity="0.7"/></linearGradient></defs><title>orb-ninja-wtext</title><g id="Layer_2" data-name="Layer 2"><g id="Layer_1-2" data-name="Layer 1"><g id="orb-ninja-wtext"><g class="cls-1"><circle class="cls-2" cx="37.4" cy="37.4" r="37.4"/></g><ellipse class="cls-3" cx="37.4" cy="62.33" rx="21.95" ry="3.59"/><circle class="cls-2" cx="37.4" cy="37.4" r="24.93"/><path d="M61.52,31c-4.91-3.11-13.22-5.26-22.83-5.6.86,0,1.72-.05,2.6-.05a62.29,62.29,0,0,1,19.28,2.8,25,25,0,0,0-46.35,0A62.38,62.38,0,0,1,33.5,25.3c.88,0,1.75,0,2.6.05-9.6.34-17.92,2.49-22.83,5.6a25,25,0,1,0,48.25,0ZM37.4,45.74c-12,0-21.67-3.74-21.67-8.34s9.7-8.34,21.67-8.34,21.67,3.73,21.67,8.34S49.36,45.74,37.4,45.74Z"/><path d="M51,33.93l-9.19,3.93A5,5,0,0,0,46.41,41h.06a1.39,1.39,0,1,1,2.23-1.11,1.34,1.34,0,0,1-.16.63A5,5,0,0,0,51,33.93Z"/><path d="M24,33.93l9,3.93A4.93,4.93,0,0,1,28.45,41h-.06a1.42,1.42,0,0,0,.55-1.11,1.37,1.37,0,1,0-2.74,0,1.46,1.46,0,0,0,.15.63A5,5,0,0,1,24,33.93Z"/><path class="cls-4" d="M3.39,23.77l.16-.33.05,0v-.05L3.76,23c0-.05.09-.06.19,0s0-.1-.12-.14l0,0L4,22.68l0-.05,0,0,.09-.1.07-.24,0,0,.17,0,.22.1c.06-.12.32-.1.79.06l3.5.67,0-.13H8.66l-.09-.08-.46-.18-.93-.44,0-.06,0,0L6.55,22l-.68-.37-.17,0c0-.05-.07-.14-.28-.27l-.11,0L5,21.23,4.73,21l.06-.11,0,0,0-.06,0-.07L5,20.57l0-.06v0l.06,0,0,0,.12-.35.14-.2,0-.17.09-.09,0-.13h.18l.17.12.08,0,0,0,0,.05.92.44c0,.05-.07.06-.14,0l0,.08.3.14c0-.1.09-.14.14-.11l.26.12,0,.05h.06l.29.14,0,.11,0,0,.15.07c0-.1.1-.13.18-.1l.2.14.06,0,.24.26.07,0A.12.12,0,0,1,8.81,21c.16.1.24.17.22.2l.15,0,0,.06,1.18.56.32.2.38.14L12.9,23l.16,0,.13.1.12.06,0,0,0,0,0,0,1.16.51.08,0,0,.11,0,0,0,.26-.06,0,0,0v0l-.09.1-.16.42-.18.28-.1.31,0,0a.22.22,0,0,1-.33.12l-.13-.11-.16.06,0,0,.05-.11-.26-.13,0,.08c.1,0,.13.09.11.14l-.7-.15-.24-.16c-.06.13-.42.08-1.07-.15a8.62,8.62,0,0,1-1.67-.3l-.06,0h0l0,.07L10,25l.35.21,0,0,0,0,.15.07.05,0,0,.06.47.17,1.74.83.31.2.24.07,0,.14-.14.21-.19.5-.13.16-.07.24-.16.34-.16.05-.09-.09L12,28l-1.33-.63-.21-.14-.2-.06-.19-.08,0-.06-.05,0-.11,0,0-.06-.44-.12v0H9.43l-.11,0c-.05,0-.05-.08,0-.18l0,0-.11.13-.56-.36,0,0-.08,0,0,0-.57-.23L5.74,25l0-.05,0,0-.26-.13,0-.05,0,0-.26-.13L5,24.62l-.2-.05-.44-.21-.19-.18H3.93l0-.11,0,0c-.12-.06-.19-.06-.21,0C3.45,23.91,3.37,23.82,3.39,23.77Zm.4-.26L4,23.6l.28.08,0,0-.13-.11C3.93,23.46,3.82,23.45,3.79,23.51Zm.26-.74.22.11,0-.08-.15-.07Zm0,1.1.15.07,0,0-.15-.07Zm.16-1.29.08,0,.11,0-.08,0Zm0,.85.17.12.13,0,0-.08-.3-.14Zm.09-.28.15.07,0,0-.15-.07Zm0-.2.11.05.11,0,0-.05-.07,0-.11,0Zm.31.69.37.17.11,0-.52-.25Zm0,.26.14.07.11,0-.22-.11Zm.17-.47.22.11.11,0-.29-.14Zm.06,1.12,0,0,.1,0v-.05l-.08,0ZM5,20.7l.06,0v0l0-.05-.07,0,0,0Zm.11,3.68.07,0,0,0-.08,0Zm0,.24.07,0,0,0-.07,0Zm.3-1.49.08,0v0l-.07,0Zm.16.89.14.11L5.82,24l0,0H5.65Zm.09.87,0,.05,0,0,0,0,0,0,0,0,0,0-.06,0Zm.06-1.07,0,.05,0,0,.11,0,0-.05,0,0Zm.09-2.77.08,0L6,21l-.07,0ZM6,24.7l.07,0,0,0-.08,0Zm0-1.31.07,0,.11,0,0-.05-.11-.06Zm.14-.2.11,0,0,0L6.2,23l0,0,0,0Zm0,1.14h0l.11,0,0-.06,0,0,0,0Zm0,.23.17.13.06,0,0-.07-.22-.11Zm0-3.34.08,0,0-.07-.07,0Zm.26-1.1.07,0,0,0-.07,0Zm.14,3.52.22.11,0-.08-.29-.14Zm.19-3.45,0,0,.07,0,0,0Zm0,5.19.26.12,0-.07-.17,0-.09-.09Zm.23-4.67.26.13,0-.08-.26-.12Zm0,1.14.13.11.06,0v-.22l0,0,0,0,.17.12,0-.07-.09-.09-.05,0,0-.06c0,.05-.1.05-.22,0l0,0,.07,0,0,0-.12.07Zm.15,2.07.2,0,0,0-.19-.09Zm0-.62.08,0,0,0-.08,0Zm0,1.69.07,0,0,0-.08,0Zm.07-3h0l0-.07,0,0Zm0-1.44.18.09.11,0L7.5,20.5Zm.07,4.81,0,0,0,0,.11,0,0-.05,0,0Zm.06-4.42h0l.2,0,0-.07-.23-.1Zm0,1.13.12.06,0-.08L7.56,22Zm0-.86.07,0,0-.08-.08,0Zm.18.95.18.09.24.07.1.09,0-.08L8,22.15l-.24-.07Zm.06,1.12.07,0,.11,0,0,0-.15-.07Zm0-1.36L8,22l0-.07-.19-.09Zm.12-.53,0,0,0,0-.11-.05ZM8,21.1l.08,0,0-.08L8,21Zm0,3.16.08,0,0-.07-.07,0Zm.26-.16,0,0,.11,0,0,0-.07,0Zm.25.9.37.18c.08,0,.08.12,0,.27l.07,0a.43.43,0,0,1,.25-.25l0,0H9.2l-.1-.09L8.68,25l-.11-.06Zm0,1.06.11.05,0-.1H8.59Zm.12-.72.07,0,0,0-.08,0Zm0,.3.22.1,0-.11-.15-.07Zm.06-3.56.11.05,0-.07L8.83,22Zm0,4.09.08,0,0-.07Zm.09-2.37.11,0-.15-.07Zm0,.24.07,0,0,0-.07,0ZM9,23.56l.07,0,0,0-.07,0Zm.26.12.52.25,0-.07-.18-.09-.28-.09,0-.05H9.31Zm.08,2.5.11.05.11,0,0-.06-.15-.07Zm.1-3.55.11.06,0-.08-.11-.05Zm0,2.79.11,0,0-.07,0,0Zm.1-1.91.14.07.06-.11-.11,0Zm0,2.18.11.06,0-.08-.12-.05Zm.06.35.15.07,0-.07L9.71,26Zm0-2.77.11.05,0-.07-.11-.05ZM10,24,10,24l.2.06,0-.08-.08,0-.2-.05Zm.12,2.24.05,0,0,0L10,26.13Zm.09,0,.13.11,0-.11,0,0h-.13Zm.1-2.4.08,0,.11,0,0-.11-.13.07Zm.11,2,.15.07.05-.11-.15-.07Zm.12-2.44.11,0,0,0-.11-.05Zm.1.27.15.07,0-.11-.08,0Zm0,2.83.08,0,0,0-.08,0Zm.21-1.59.08,0,0-.07-.07,0Zm0-1.17.17.13,0-.08-.18-.09Zm.12-.44.44.21.11,0,0-.05,0,0a1,1,0,0,1-.53-.12Zm.34.71.37.17,0-.07-.37-.18Zm0,3.61.11.05,0-.07-.11-.05ZM11.6,23l.07,0,0-.08-.07,0Zm0,.57.11,0,0-.07-.11-.06Zm.08,1.17.15.07,0,0-.15-.08Zm.06.35.11.05.11,0,0,0-.07,0-.11,0Zm0-.85.19.09.27.09,0,0-.44-.21Zm0,.28.11.05,0-.07,0,0Zm.22-.76.24.16a1.64,1.64,0,0,1,.7.25l0,0L12.84,24l-.4-.2-.28-.09,0-.05-.05,0Zm.08,1.18.22.1,0-.07,0,0-.21-.05Zm.06-1.38.19.09,0-.08-.11-.05Zm.2,4,.08,0,0,0-.08,0Zm0-4.44.1.09c.27.13.42.15.46.08L12.53,23Zm.14,3.7.08,0,0,0-.08,0Zm0,.28.07,0,0-.07-.08,0Zm.12-3.58.07,0,.06,0,.09.09.13,0,0-.08-.16-.12c-.12,0-.19,0-.21,0Zm.38.72.33.16,0-.07-.34-.16Zm0-.84.11.05v0l-.11,0Zm0,1.78h.13L13.3,25l-.07,0-.11,0,0,0Zm.22,0,.08,0,.05-.11,0,0Zm.14-1.34.08,0v0l-.07,0Zm.31.69.37.18,0-.08-.13-.1-.24-.07Z"/><path class="cls-4" d="M6.3,16.93l.33-.47.13-.12.06-.15H7l.37.26,0,.17-.22,0,.06.05,0,0,.36.2.5.35,0,0,0-.17-.27-.19H7.62l-.17-.12,0-.11.34.08.57.4.11-.08-.21-.19-.13,0L8,16.63l0,0,.25.07,0,0,0,.06.13.1.1-.08-.24-.22H8.15l0,0-.25-.22L7.34,16l-.15-.2.16-.09c-.09-.06-.12-.12-.09-.16l.19-.27.07.05,0,0v.06l.2.14.69.38.21.2.53.31,2.86,2,.22.25,0,0c.12.07.19.09.22.05v.05l.26.14.07,0,.78.6.29.15.15.15.22.11.11.13.56.34.88.61,0,.17-.09.14c-.16.22-.26.32-.31.29l-.07.25-.22.24v.06l0,0h-.06l-.25.43-.14.2s-.14,0-.34-.09l-.11-.12-.73-.46-.4-.28,0,0,.14-.05v-.06l0,0L13,21.6v0l-.07.1,0,0c-.4-.28-.61-.49-.61-.63l-.07,0a.44.44,0,0,1-.31-.07l-.13-.09-.28-.24-.36-.21-.07,0-.24-.22-.4-.23-1.07-.75-.56-.34v-.06l0,0-.49-.3-.41-.28-.38-.31h0v-.06l0,0q.11.06.15,0l0,0-.18-.17-.15-.06-.08-.1H7.13l0,.06.25.22,0,0-.13,0L7,17.59l-.3-.15-.32-.33-.12,0Zm.26,0,.1.07,0-.07-.12,0Zm.24-.48.3.21,0,0-.31-.21Zm.06.34,0,0,.13,0L7.2,17l0-.06-.33-.24Zm.17.47.1.07.12,0-.11-.13H7.08Zm.36-1.45.15.15H7.6l0,0-.2-.14Zm.32.27.11,0-.13-.1ZM8,17.49l.2.14.05-.07,0,0L8,17.45Zm.11.42.4.28.07-.1-.21-.2-.19-.08Zm.16-1.53.11.07,0,0-.1-.07Zm0,1.91.07,0,.11,0-.13-.09Zm.12-.47,0,0,0,0,0-.11,0,0,0,0Zm.09-1,.1.07,0,0-.1-.07Zm.21.49.1.07.12,0-.17-.12Zm1.19.08.21.2.31.21c.06-.09,0-.22-.28-.39l-.21-.05Zm.18.82c.32.21.5.28.54.23l-.5-.35Zm.07-.24.1.07h.15l.47.33.12,0-.68-.47-.11,0Zm.75.72.47.33.11,0-.08-.17c-.08,0-.22-.05-.42-.19h-.06Zm.43-.05.1.07,0,0-.1-.07Zm.09,1.66.1.07,0-.06-.1-.07Zm.74-.48.17.11.05-.06-.17-.12Zm.06-.31h.06l0,0-.11-.07Zm0-.26.1.07,0-.11h-.06Zm.12-.32.06.05,0,0-.07,0Zm.45,2.22.15.15.27.19c.16.12.27.14.33.09l-.7-.5Zm.61.13.31.21,0-.12-.17-.11Zm0-1.3.07.1h.06l0-.06L13.47,20Zm.48,1.89.1.07,0,0-.11-.07Zm0-.24.3.21c.05,0,.14,0,.29-.2h.06l.23.17,0-.07-.13,0-.14-.15-.13-.09-.12,0,0,.06.07.05s-.15,0-.39,0Zm.36.85.1.07,0,0-.1-.07Zm.16-.24.3.21s0-.14-.2-.28h-.05Zm.15-1.14.07,0,.07-.1L14.53,21l0,0Z"/><path class="cls-4" d="M9.6,13.55l.26-.27h.05v0l.29-.3s.1,0,.17.06,0-.1-.06-.18l0,0,.15-.09v-.06l0,0,.11-.06.14-.21,0,0,.15.09.17.17c.1-.1.34,0,.73.31L15,14.7l.06-.12-.18-.05-.06-.12-.38-.31-.73-.72v-.06H13.6l-.44-.43-.53-.57-.15-.08c0-.05,0-.16-.18-.35h-.11L12,11.66l-.18-.34.09-.09h.06v-.06l.05-.06.15-.09V11l0,0h.06l0,0,.23-.3.2-.15.09-.14.11-.06.06-.12.18.06.11.17.06.06h.06v.06l.73.71s-.08,0-.14,0l-.06.06.24.23c.07-.08.13-.1.17-.06l.21.2v.06h0l.24.23V12h-.06l.12.11c.08-.08.14-.09.2,0l.15.2h.06l.15.32.06.05a.1.1,0,0,1,.17,0c.12.15.17.23.15.26l.14,0V13l.94.91.24.29.32.26,1.44,1.4L19,16l.09.15.08.08h.06v.06l0,0,.94.86.06.05v.12H20.2l-.11.23H20v.05l0,0-.12.06L19.6,18l-.25.21-.2.26,0,0a.22.22,0,0,1-.35,0l-.09-.15h-.17l0,0,.08-.09-.2-.2-.06.06c.08.07.1.13.06.17l-.61-.37-.18-.23q-.15.16-1-.48a8.55,8.55,0,0,1-1.49-.82h-.06l0,0-.06.06.47.4.27.32,0,0v.05l.11.12h.06v.06l.38.31L17.67,19l.24.28.2.15,0,.14-.2.15-.35.41-.17.12-.14.2-.26.27H16.8l-.06-.12-.33-.25-1.05-1-.15-.21L15,19l-.14-.14v-.06h-.06l-.09-.09v-.05l-.38-.26,0,0h-.06l-.09-.09s0-.09.06-.17l0,0-.15.09-.41-.52h-.06l-.05-.05,0,0-.47-.4L11.42,15.5v-.06h-.06l-.2-.2v-.06H11.1l-.21-.2-.06-.11-.17-.12-.35-.34-.12-.23L10,14.1V14l0,0c-.1-.09-.16-.12-.2-.08C9.61,13.69,9.56,13.59,9.6,13.55Zm.46-.12.15.14.23.17,0,0-.09-.14C10.21,13.43,10.11,13.38,10.06,13.43Zm.15.43.12.11,0,0-.12-.12Zm.34-1,.17.17.06-.05-.12-.12Zm0,.7.11.17.12.06.06-.06-.24-.23Zm.17-.24.11.12,0,0-.11-.12Zm0-.58.06.06H11l-.06-.06Zm0,1.4.12.11H11L10.85,14Zm0,.69,0,0H11v-.06l-.06-.06Zm0-1.68.09.08H11v-.06l-.06,0h-.11Zm.07.75.29.29h.12l-.41-.4Zm.1,1.07.06.06,0,0L11,14.89Zm.05-.23.06.06,0,0-.06-.06Zm0-1,.18.18h.11l-.23-.22Zm.34,1.65v.06l0,0h.06l0,0v-.06l0,0h-.06Zm.19-.84.09.14.09-.08,0,0-.12-.06Zm.13.75.06.06,0,0,0-.06Zm0-1.65.06.06,0,0-.06-.06Zm.07.75v.06l0,0H12v-.06l0,0Zm.16.84.12.17h.05l.06-.06-.17-.17Zm.05-.23,0,0h.12v-.06l0,0h-.06Zm.1-3.8h.06l0,0v-.06L12.18,11l0,0ZM12.22,14l0,.06h.12V14L12.3,14Zm.14,2.14.2.2.06-.06-.15-.08-.05-.12Zm.06-2.29h.11l0,0-.06-.12h-.06l0,0Zm.29.58.18.17.06-.06-.24-.23Zm.11-2.7.06.06.06-.06-.06-.06Zm.06,4.17.06.06,0,0-.06-.06Zm.06.41v.06l0,0h.12v-.05l0,0Zm.18-4.3.06.06.05-.06L13.18,12Zm.06,2.88.18.11,0,0-.15-.14Zm.23-.59.06.06,0,0-.06-.06Zm.3-1.42.09.14h.06l.08-.2H14l0,0,.12.18,0-.06-.06-.12h-.05v-.05s-.11,0-.21-.09l0,0,.06.06,0,0-.14,0Zm0-1.83,0,.06,0,0-.06-.06Zm0,6.29.08.09v-.12h-.06Zm.06-1.88.06.05,0-.05,0-.06Zm.07-1,.06.06h.12l0,0L14,14.39Zm0-1.36,0,0,.06-.06,0,0Zm0,4.43.06.06.06-.06ZM14,11.26l0,0,.06.06,0,0Zm0,5.77.18.17v-.11L14.11,17Zm0-3.77.09.09.06-.06-.09-.09Zm0,3.1.3.29c.05.06,0,.15-.09.26l.06.06a.39.39,0,0,1,.32-.15l0,0h-.06l-.06-.11-.35-.29-.09-.08Zm0-4.52.21.2.06-.06-.21-.2Zm0,4.9.05.06,0,0-.06-.06Zm0-1.3,0,0h.11V15.4l-.06-.05Zm.09-2,.15.15.2.14.06.11.06-.05-.21-.26-.2-.15Zm.13-1,.06.05.06-.06-.06,0Zm0,.75.15.14.06-.06-.15-.14Zm.07-1.42.15.14h.11l-.14-.14Zm0,.4,0,0,.18.12.06-.06-.18-.18Zm.07,5.57.08.09h.12v-.06l-.12-.12Zm.14-5h0l0,0-.09-.08Zm.09,2.84.06.06,0,0-.06-.06Zm0-.23h.12l-.12-.12Zm0-2.84,0,.05.06-.05-.06-.06Zm0,5.22.12.11.06-.06-.12-.11Zm0-.64.09.08.06-.05,0,0Zm0,.29.09.08,0-.05-.08-.09ZM15,15.16l.06.06,0,0L15,15.13ZM15.14,18h.06l0,0-.08-.08Zm.08-2.67.41.4.06,0-.15-.15-.23-.17v-.06h-.06Zm0,2.7.09.14.09-.08,0,0L15.25,18Zm0-4.38.08.09.06-.06-.09-.09Zm.31,1.62.11.12.09-.09-.09-.09Zm0,2.41.12.11.08-.09-.12-.11Zm0,.69.06.06,0,0-.05-.06Zm.13-3.3.09.08,0-.06L15.77,15Zm0-.67.09.08.06,0-.09-.09Zm0,1.45.06.06.17.11L16,16,16,15.93l-.17-.11Zm.16,3.83.09.08.06-.06L16,19.65Zm.19-3.89,0,0h.12v-.11l-.15,0ZM16.28,17l.06.06L16.4,17l-.06,0Zm.19-1.54.09.09,0,0-.08-.08Zm0,.29.12.12v-.12l-.06-.05Zm.21.15.11.17.06-.06-.15-.14ZM16.93,20,17,20l0,0L17,19.92Zm0-4.46.35.34h.12v-.06l0,0a1.09,1.09,0,0,1-.47-.28Zm.1.78.29.28.06-.05-.29-.29Zm.1,1.19.09.08h.12v-.06l0-.05h-.12Zm.05-.35.12.11,0,0-.12-.11Zm.07,2.46.05.06.06-.06-.06-.06Zm.08-.26.06.06,0,0-.06-.06Zm0-2.38.08.09L17.5,17l0,0Zm.08-.26.15.14.23.17,0,0-.35-.34Zm0-.7.09.09.06-.06-.09-.09Zm0,1.45.17.17.06-.05,0,0-.17-.12Zm.12-2,.06.06,0-.06-.06-.06Zm.18.87.18.23c.09,0,.28.16.59.45l0,0-.11-.17-.33-.31-.23-.17v-.06h-.06Zm.2-.15.15.14.06-.06-.09-.08Zm.37,1.79.12.06.09-.09-.06-.06h-.12v0Zm0-2.17.06.11c.21.21.35.29.4.23l-.35-.34Zm.12.46.06.06h.05l.06.11.12.06.06-.06-.12-.17c-.11,0-.17-.06-.2,0Zm.08,1.8.06.06.08-.09,0,0Zm0-1,.27.26.06-.06L18.69,17Zm.31-.79.09.09,0,0L19,16.22Zm.21.55.06.06,0,0-.06-.06Zm.07.76.29.28.06-.06-.09-.14-.2-.14Z"/><path class="cls-4" d="M16,8.65l1-.71.33-.18.07-.11h.15l.09-.17.13.06.36.5.13.11,0,.12,1.76,2.32,1.33,1.87.13.32.23.18.71,1c.85,1.18.91,2,.2,2.53l-.18.17-.22.11v.06l0,0L22,17V17l0,0-.21,0v.06l0,0-.19.09v.06l0,0-.16.06,0,0v.05l0,0-.14-.05-.9-1.27V16h.15l.31-.42h.05l-.14-.34.19-.09-.15-.2-.06,0v.05l0,0h0L19.06,13l-.78-1.1-.13-.11v-.05l-.32-.38L17.6,11l-.23-.4h-.05l0,0a1.9,1.9,0,0,1-.24-.69l0-.06q-.11.08-.15,0l-.07-.1,0-.12-.15-.14-.12-.17-.23-.39L16,8.77Zm.3.14.15.14,0,0-.06-.16-.11-.08Zm.74.83.14.26h.05l0,0v0l0,0-.15-.14V9.57Zm.22-1,.36.5.12,0,0-.13,0,0V9l-.31-.44Zm.11-.13.31.28,0,.13.35.35,0-.17,0,0L18,9l0-.13.1-.07.05.07.06-.05a.31.31,0,0,0-.36-.09.89.89,0,0,1-.33-.32l-.17-.23Q17.27,8.25,17.37,8.53Zm0,.61.05.07.06-.05L17.38,9ZM17.43,8l.24.33h0l0,0v.06l.06-.05.07.1v.15L18,8.6l-.08-.25,0-.07L17.49,8Zm.08,1.25.07.1,0,0-.07-.1Zm.06-1.61.19.32.15.15.08.19.11.07.1.28.23.19.1-.07-.06-.16-.86-1Zm.2,2,.05.07,0,0,.1.08,0-.11,0,0Zm.17-1,0,0,.07,0,0,0Zm0,.89.08.1.06-.05L18,9.52Zm.32,0,0,0,.17,0,0-.11c-.1-.07-.16-.09-.2-.06Zm.26.22.07.1,0-.11h-.06Zm.14-.65.11.22h.06l0,0,.09.2c.1.06.16.08.19.06l-.08-.19-.36-.36Zm.12,1,.34.47.2.21,0,0-.45-.63Zm.41-.35.08.11.06,0,0,0Zm1.47,4.95.05.07.11,0,0-.12h-.05Zm.6-1.83.12.16.07,0-.12-.16Z"/><path class="cls-4" d="M20.22,4.43l.28-.09,2.1-1L23,3.19l0,0c.13-.06.44.37.92,1.29L25.32,6.7l.09.27c.29.38,1.35,2,3.15,4.87l-.08.12-1.85.88c-.06,0-.12,0-.18-.1l-.57-1v-.13c-.14-.24-.23-.35-.29-.32l-.63.3.05.2c.43.91.6,1.43.51,1.57l0,0-.34.06-.09.09-.24.07-.22.11-.26.21-.71.33-.15,0-.94-2.87,0,0L20.16,4.5l.08,0Zm1.22,1.05.25.52a1.16,1.16,0,0,1,.12.45l.16.24,0,0a.32.32,0,0,1,0-.27l-.47-1ZM22,7.17l.08.27.13.08.05.2.11.13.11.54c.05,0,.1,0,.13.08l.05.2.07,0,.06.12c-.13.05-.15.17-.07.34l-.13.11.14.3.13,0-.14-.3.06,0h0L22.72,9l.18-.08-.1-.23,0-.05-.06,0-.07-.15,0-.26-.28-.41-.05-.11c.1,0,.09-.19,0-.44A.21.21,0,0,0,22,7.17Zm.79-.92c.72,2,1.11,3.12,1.17,3.44l.19.23.63-.3-1.91-3.4ZM22.92,9l0,.2,0,0,.11,0h0v0L23,9Zm.47,1.68.06.11.09-.09,0,0Zm.23.48.05.11.19-.09,0-.07Zm.1.22,0,.08.19-.09,0-.08Zm.15-.56.09.09,0,0,0-.11Zm.08.27.09.19,0,0,0-.22L24,11h0Zm.07,1,.05.12.23-.11L24.24,12Zm.07-.71.05.11,0,0-.05-.11Zm.05,1,.05.12.34-.16,0,.07,0,.06,0,0,.06,0h0c0-.13,0-.21,0-.24l-.17-.06v0l0,.06Zm0-1.41,0,.08.08,0,0-.07Zm.47,1.59.09.19.15-.07-.05-.12Zm.21.45.05.11L25,13l0,0Zm.09.18,0,.08.1,0,0-.07Z"/><path class="cls-4" d="M31.6.34l0,0,2-.08.59,5.4,0,.2a2.68,2.68,0,0,1,.16.82l.12-.13,0-.2V6.18l0,0,0,0c.07-2.2.17-4,.28-5.31l0,0h0L34.73.63c0-.25.05-.37.11-.38l1.6-.06,0,0,0,0h.17l0,0c.21,0,.33,0,.33.19l0,.29,0,.12a8.65,8.65,0,0,1,.24,2h0l0,0v0l.11.57-.08.17.09.12,0,0,.06.49,0,.37.09.33V5l.15,1.68.05,0h0c0-.76,0-1.15.12-1.15l0,0v0c-.05-1.26,0-1.89.17-1.9L38,3.05A12.43,12.43,0,0,1,38.2.12h.09l.32,0L39.43,0h.82l0,0v0l-.58,10.2-.21,0-2.46.1c-.13,0-.4-1.31-.81-4v0h0l0,0,0-.37-.1-.45V5.46H36l-.09.87H36l0,.13h0l-.13-.08V6.5H36a18.23,18.23,0,0,1-.37,4h-.09l-1.84.11-.21,0-.28,0c-.22,0-.34-.26-.36-.8L31.52.43ZM32.53,4v.08h.08V4Zm.25,2.25v.16h0V6.24Zm.09-2V4.4H33V4.27ZM33,6.4l0,.29.13.08,0,0V6.6l-.09-.2Zm.08-2.22,0,0h0V4.1Zm.74,5.1,0,.05v0l0,.16.08-.09V9.36ZM35,6.94V7.1h0l.21,0V7l0,0ZM35.77,6v.12h0V6Zm.69-.16,0,0v.05l0,0,0,0,0,0,.12.08,0-.13,0,0h0l-.05-.12Zm0-.24v.12h.08V5.6Zm.7,0v0h.16V5.45h0Zm1-2.83v.12h.08V2.75Zm.61-2.2.09.08,0,0v0Zm0,2.26v0h.09v0Zm.1-1.65h0l-.07.29.05.28,0,.25,0,.16H39A.12.12,0,0,1,39.14,2l.11-.29h0l0,0v0l-.06-.37,0,.05h0L39,1.24v0h.08l0,0h0l0-.21h-.08V1C39,1,38.9,1.09,38.9,1.16Zm.26.44v.21h-.12L39,1.73v0ZM39,2.84,39,3h.09V2.8h0l0,0Zm.1-1.48h.08v.12h-.08ZM39.55,1l0,0-.16,0v.08l.09.12,0,.25.13.08c0-.09.09-.13.28-.14V1.29l-.09-.12v0h.08V1L39.62.72S39.54.81,39.55,1Zm0,.17h0v.09h0Z"/><path class="cls-4" d="M44.47.9l.27.11L47,1.5l.35.13v0c.14,0,.11.56-.08,1.58l-.25,2.68-.11.27c0,.48-.18,2.4-.56,5.77l-.13,0-2-.47c-.07,0-.09-.08-.08-.19l.18-1.14.07-.11q.06-.4,0-.42l-.67-.16-.09.19c-.23,1-.42,1.49-.58,1.55h0l-.3-.16h-.13l-.23-.09-.24-.06h-.34L41,10.71l-.1-.11,1-2.83h0L44.38.92l.08,0ZM42.59,9.56l0,.12.36.08,0,.08,0,0v0l0,0h0c0-.13.08-.19.16-.17L43,9.65v0l0,0Zm.07-.28,0,.12.24.06,0-.12Zm.05,1.4,0,.08.06.1,0-.08Zm0-.2,0,.12h.12v0Zm.12-.48,0,.2.16,0,0-.12Zm0-1.47,0,.08.2.05,0-.08Zm0-.24,0,.12.19.05,0-.08Zm.13-.52,0,.12h.13v0Zm.1,1,0,.12h0l0-.12Zm.07-.32,0,.2h0l.12-.18,0-.08h0Zm.93-4.29-.1.27,0,.14L44,4.76v.17l-.24.49s.07,0,0,.13l-.09.19.08,0,0,.12q-.21,0-.27.24h-.17l-.07.32.11.07.07-.32,0,0h0L43.6,6l.2,0,.05-.24,0,0,0,0,0-.16.14-.22,0-.5,0-.12c.11,0,.19-.09.25-.36C44.36,4.26,44.29,4.19,44.16,4.16Zm-.82,4v.13h0l0-.12Zm.14.28,0,.08.08,0,0-.08Zm.25-2.3-.09.19v0l.06.1h0v0l0-.29Zm1.62-2.23q-1,3-1.23,3.42l0,.3.68.16L45.43,4Zm-.58-1.44-.14.56a.91.91,0,0,1-.18.42l0,.29h0a.34.34,0,0,1,.18-.21l.25-1.07Z"/><path class="cls-4" d="M51.14,3.66l0,0,0,0,.13,0,0,.16.11,0c.05,0,.09,0,.13-.07l.07,0-.09.19,0,0,.15,0,0,0-.2.63,0,0,.15-.21.07,0v.22l-.23.39,0,.2.16-.24.12-.35.22.1,0,0,0-.11.08,0,.05-.11-.06-.16c0,.07-.08.1-.12.07L52,4.41l0,0-.05,0h0l.05-.3-.2,0,0,0,0,0,.07,0,0,0,0,0L52,4.1l.28.08,0,.3,0,0,.18-.19.29.14c0,.11,0,.17,0,.2l.11,0,.08.22,0,0,0-.08.08,0L53,4.92,53,5.25l-.14.3.11,0c.07-.15.13-.21.18-.19l.37.18.15,0c-.09.23-.1.36,0,.38l.13,0a.8.8,0,0,1-.07.42c.05,0,.1,0,.15-.11l.05,0,0,0s0,.1,0,.22l.12,0,.14-.2,0-.06,0,0,0,0,0,0,.14-.48,0,0c.16.07.17.56,0,1.46l-.07.15-.16,0-.11.22.08,0,.08-.19.08,0,0,.2L54.07,8l0,.05-.05,0,0,0c-.51,1-.83,1.42-1,1.36l0,0,.1-.22,0,0c-.17.35-.34.48-.51.4l-.44,0,0,0a1.49,1.49,0,0,1,.39,1.68l-.25.33,0,.13L52,11.69l0,.06c.15.07.12.33-.09.77l-.51,1.08,0,.16-.1.13-.25.52-.07.24c-.09.11-.16.15-.2.13l0-.11c0,.08-.07.1-.12.08l0-.05-.22,0-.14-.11-.16,0,0,0,.14-.3,0,0,0,0,0,0,0,.21,0,0,0,0,0,0-.09-.09-.28-.09,0,0-.06,0-.33-.16c-.15-.07-.18-.19-.1-.37l.13-.16.12-.35.07-.15.11,0,.11,0,.07.13.06,0,0-.11s0-.12-.22-.2a2.27,2.27,0,0,1,.24-.7l.74-1.56.05,0c.2-.54.2-.86,0-.95l0,0-.06,0-.22-.11-1.42,3s-.09,0-.19,0l0,.07a.46.46,0,0,1,0,.41l-.13.17-.06.24-.09.18-.17.06-.14-.07-.17-.13-.24-.06-.19-.09-.09-.18-.08,0,0,.08-.08,0,0-.07q0-.08.15,0h.05l0,0,0-.06-.06,0-.22-.1-.09.18-.11,0L47,13l-.2,0-.29-.14s0-.17.06-.43l.09-.09,0-.17.29-.41.19-.59c.14-.26.23-.39.26-.37l.28-.78,0,0,0,0,0,0,0,0,0-.05L48,9.41l.06,0,0-.05.26-.56.14-.39a4,4,0,0,1,.8-1.11l0-.06,0,0,.11.06c0,.07,0,.12,0,.14l.13-.16.17.12.05,0,0-.07,0-.11-.13,0L49.61,7s.07,0,.15,0l.05-.11c-.11,0-.11-.2,0-.46l0,0,0,0-.05,0,0,0,0,0a.42.42,0,0,0-.2.23l-.15-.08L49.9,5.3,50,5.2,50.06,5l.57-1.18.12-.17.1.18C51,3.67,51.07,3.63,51.14,3.66ZM47,12.75l0,0,0,.11,0,0,0-.12ZM47,12l0,.11.11,0,0-.08Zm.06-.24,0,.07,0,0,0-.08Zm.53-1.21-.05.21-.08,0,0,.11.11.06.14-.3Zm-.09,2.1-.08.18.07,0,.11,0,.09-.19-.08,0Zm.14-.3v.13l0,0,.1,0,0-.08-.07,0-.06,0Zm.21-2.44-.11.13,0,0,0,0,.09-.19Zm0,2.14-.13.08,0,0,.11.06,0-.08ZM48,9.7l-.06.11.12.06,0-.08Zm0,2.55,0,.11,0,0,.11,0,0-.11,0,0ZM48.1,9.3l0,.07v.22l.15,0V9.35Zm.22.19v0l.14.07,0,0,0-.11Zm0,2.79,0,.11.07,0,.06-.11Zm.34-2.15-.1.22,0,0,.11,0,0-.07,0-.11Zm0-.68-.11.22,0,0,.1-.22Zm0-.7-.07.15,0,0,.17,0,.11.15L49,9l.06-.2-.15-.07Zm.14.48-.05.11.11,0,0,0Zm.17.21,0,.12h0L49,9.46Zm.22-.07,0,.11,0,0,.06-.11,0,0Zm.06-2.61.07,0,0,.1,0,0-.15-.07Zm0,3.32,0,.08h0l0-.07Zm.4-.94v.13l-.22.17,0,.29.08,0,.12-.16,0,.05.15.07.07-.15,0-.05,0,0a.12.12,0,0,0-.17.06l0-.11.13-.26Zm-.22-.79-.05.11.11,0,0,0Zm0-.86,0,0,.08,0,.05-.11,0,0Zm.21,1,0,.12h0l.06-.11Zm0-.8,0,0,.08,0v0Zm.13,6.42,0,.07.2.05,0,0,0-.11h0Zm.11-7,0,0,0,0L50,7ZM50,6.27,50,6.45l0,0,.09-.19Zm.43.92-.06.12c0,.12-.11.17-.16.15l-.09-.09h0L50,7.64l0,.11c.05-.09.1-.13.15-.11s.05.09,0,.18l0,.06.07,0,.11,0V7.69l.09-.09c.08-.24.09-.36,0-.39Zm-.33.89,0,.08h0l0-.07Zm.2,3.41,0,.2-.11,0-.05.3.05,0h0l.09-.27.1-.22ZM50.18,5.2l0,.11,0,0,.06-.11Zm.24.07,0,0,0,.16-.11.13,0,0,0,.11.06,0,0,0,0-.26.11-.13,0-.06Zm0,2.59,0,0,0,.11.05-.11Zm0,6.23-.05.11,0,0,.05-.11Zm.28-2.77,0,.07-.12.17-.07.24-.07.15.07,0,.32-.57,0-.06ZM51,4.43l0,.15-.31.66-.16.43-.12.17,0,0,0,0,0-.08,0,0,0,0,0-.08.2-.31L50.94,5,51,4.91l.14-.21,0-.29,0,0Zm-.48,3.22-.05.11,0,0,.06-.11Zm.09,1.82,0,.07.07,0Zm0,1.15-.07.15,0,.11,0,0,.09-.1.05-.2,0,0Zm.2-6.35-.23.48.08,0,.19-.4Zm-.12-.42L50.7,4h0l.07-.14Zm0,2,0,.08,0,0,.06,0h0l0-.12ZM51,8.06l-.19.32.11,0,.07-.15.05-.2ZM51,9.27l-.2.41.07,0,.16-.34Zm-.12,1.49,0,.11,0,.11,0,0L51,11l0-.13Zm.39-6.08-.06,0-.07.15c-.09.2-.08.33.05.38l-.06.11-.16,0-.06.11.08,0,0,0-.13.07.06.17.11,0h0L51,5.94s0,.11.19.18l.06.16.15,0,0,0c-.09.25-.11.4-.06.42l0,0,.1-.23.06,0,.1-.49.14-.21.09-.18-.08,0,0,0-.21.35,0,0L51.46,6l0,0,0,.11-.08,0c-.06,0-.07-.1,0-.2l-.07,0,0,.07h0l0-.21.07,0,0,.07.11.06c.05-.1.1-.14.14-.12a.67.67,0,0,0-.06-.44l0-.57c-.05.11-.11.18-.18.19l-.09-.09.05,0,.06-.11Zm.65,1.4-.11.22-.07,0-.09.18-.05,0,0,0,0,0,0,0,.05,0L51.54,7l0,0,0,0,0,.08,0,0,0,0-.23.48c-.08.17-.15.25-.2.23v.13l.41.19c.15,0,.26-.07.3-.17l.08,0-.09.1c-.16.37-.21.58-.15.6l.16-.05a2.68,2.68,0,0,1,.2-.72L52,8l.3.14c0,.07,0,.12,0,.14l0,0,.06-.11.08-.28h0c0,.09-.1.13-.15.11s-.06-.11,0-.24l.09-.09.12-.45-.08,0-.19.31h0l0-.06,0,0,.13-.16.09-.19c.06-.12.06-.2,0-.22l0,0c.11-.37,0-.63-.27-.76l-.07,0Zm-.89-.6.11,0-.07.15,0,0,0-.11Zm.05-1.66.08,0,0-.08ZM51.18,11l0,.11,0-.07Zm.15-2.7,0,.08,0,.2.11.05.11-.13V8.31l0,0Zm-.08,1.78.08,0,0-.08Zm0-.25,0,.11.07-.15Zm.1-.78-.07.15,0,.11.1-.22Zm.17,2.13,0,0,0,.11,0,0,0-.11Zm0,1.23,0,.05,0,0,.06,0,0-.07,0,0Zm.15-3.38-.06.11,0,0,.05-.11Zm0,3.06,0,0,0,0,.11,0,0,0,0,0ZM52,8.19l-.14.39,0,0c-.05.19-.06.29,0,.31l0,0,.09-.19L52,8.47l.12-.17,0-.06Zm0,2.18-.19.32,0,.05,0,0,.06,0,.12-.26Zm-.16,1,0,0,.08,0v0Zm0-2.26,0,.07.11.06.09-.1,0-.05,0,0Zm0,2.75,0,.11L52,12l.05-.11ZM52,5.09l0,0,.07,0,.05-.11Zm.51,3.42c-.09.17-.15.25-.2.22l-.19-.08,0,.2-.05,0L52,9l0,0,.08,0c.05,0,.05.13,0,.32h0c.1-.19.18-.28.25-.24s.06.07,0,.15l.08,0c.08-.17.06-.29-.06-.35s-.06-.16,0-.38ZM52,4.17l0,.13,0,0,.05-.11Zm0,7.32,0,.08.07,0,0-.07Zm.12-1.58L52,10.3l.11,0,0-.07,0-.06.06,0,0-.07,0-.11Zm0-1.56-.07.15.08,0,.07-.15Zm.09-2.86,0,0,0,.11,0,0,.05-.11Zm.35,1.84-.17.37,0,.11.12-.17.09-.18,0-.11Zm-.08-2.9,0,.12h0l.09-.09Zm.16,4.17-.12.26h0l.12-.26Zm.11-3.68-.11.14,0,.05,0,0,.11,0,0,0,.05,0,0-.08ZM52.8,7.81l0,.07,0,0,0-.08Zm.1.45-.12.26,0,0,.12-.26Zm0-.69,0,.11.05,0,0,0Zm.07-.83,0,.07,0,0,0-.07Zm.24.75L53,7.64l-.05.2.07,0,.16,0C53.25,7.63,53.24,7.52,53.18,7.49Zm.1.36A.18.18,0,0,1,53,8l0,.11,0,0c.12.06.15.16.08.31l.08,0,.1-.23q.09-.18,0-.27Zm.21.33-.09.18-.06,0,0,.06-.1.22-.14.2,0,.32h0l.18-.28V8.79l.18-.28.09-.28Zm-.22-.88,0,.08h0l0-.07Zm.35-.83,0,.07,0,0,0-.07Zm0,2,0,.08h0l0-.07Zm.15-3.38.07,0s.06.07,0,.14l-.13.17-.07,0,0-.11Zm-.06,3.2-.07.14,0,0,.07-.15Zm.07-.74,0,.11.11,0,0,0Zm.27-2.28q.26.33.21.42l-.06,0,0,0q-.31-.23-.21-.42l.05,0Zm0,.64,0,0,0,.07L54,6l0,0,0,0Zm.2.55,0,.07.07,0,0-.08Z"/><path class="cls-4" d="M57.63,7.11v0l0,0,.12,0-.06.16.09.07s.09,0,.14,0l.07,0-.12.16,0,0h.15l0,0-.33.58,0,0L58,8.11l.07.05,0,.18,0,0-.3.34v.2l.2-.2.19-.32.2.14v0l.07-.1.07,0,.07-.1,0-.17c0,.06-.1.08-.14.05L58.28,8l0,0h-.06l0,0,.11-.28-.19-.09V7.54l0,0,.06,0,0,0v0l.17.13.25.14-.11.28,0,0L58.75,8l.26.2c0,.1,0,.16,0,.2h.12l0,.23,0,0,.05-.06.07.05-.08.09L59.1,9l-.2.26.1.07c.1-.13.17-.18.22-.14l.32.24h.15c-.13.21-.17.34-.12.37l.12,0a.69.69,0,0,1-.15.4c.05,0,.1,0,.17-.08h0l0,0s0,.1-.06.21l.1.07.18-.17v-.06l0,0h.06l0,0,.23-.44,0,0c.14.11,0,.59-.26,1.45l-.1.13-.16-.07-.15.2.07.05.12-.17.07,0-.09.19-.25.33V12h-.06l0,0c-.7.85-1.1,1.23-1.22,1.14l0,0,.15-.2,0,0c-.23.31-.42.4-.57.29l-.43-.12,0,0a1.5,1.5,0,0,1,0,1.73l-.31.27,0,.13-.22-.12v.06c.13.1.05.34-.25.74l-.71.95-.07.15-.13.11-.35.46-.11.22c-.11.09-.19.12-.22.09l0-.11c0,.06-.1.08-.14,0v-.05l-.21-.06-.11-.13-.15-.07v-.06l.2-.26,0,0h0l0,0-.09.19,0,0h-.06l0,0-.08-.1-.25-.14,0,0H53.9L53.6,17c-.13-.1-.14-.22,0-.38l.15-.14.19-.32L54,16h.12l.09.07.05.14h.06l.07-.1s0-.12-.18-.23a2.24,2.24,0,0,1,.38-.64l1-1.38h.06c.3-.49.36-.8.19-.93l0,0h-.06l-.19-.15-2,2.66s-.09,0-.18,0l-.05.06a.49.49,0,0,1-.09.4l-.16.13-.11.23-.13.16-.17,0-.13-.1-.14-.15L52.29,16l-.16-.12-.06-.2L52,15.6l0,.07-.06-.05,0-.07s.08,0,.15,0h0l0,0v0H52.1l-.19-.15-.13.17-.11,0v-.06l-.19-.09-.26-.2c-.05,0,0-.17.15-.4l.1-.08.07-.15.36-.35.31-.54c.19-.23.3-.33.33-.31l.43-.7,0,0v-.06l0,0h.06V12.5l.29-.4h.06V12l.37-.49.22-.36a3.88,3.88,0,0,1,1-.93V10.2l0,0,.09.07c0,.07,0,.12,0,.15l.16-.14.14.16h.06l0-.06,0-.12-.12,0,.1-.13c0-.05.08,0,.14,0l.08-.1c-.1-.07-.07-.22.08-.45V9.45l0,0h-.06v.06l0,0a.41.41,0,0,0-.24.18l-.13-.1.8-1.13.11-.08.11-.22.79-1L57.26,7l.06.2C57.47,7.09,57.57,7.06,57.63,7.11Zm-5.92,8.07,0,0,0,.11,0,0,.08-.1Zm.22-.71,0,.12.1.07.05-.06Zm.12-.22,0,.07,0,0,0-.06Zm.25,1-.12.16.06.05h.12l.12-.17-.07-.05Zm.2-.26,0,.12,0,0,.11,0,0-.07-.06,0h-.06Zm.3-1.77-.09.19-.06,0-.08.09.1.08.2-.26Zm0,1.52-.14.05v.06l.1.07,0-.06Zm.06.2,0,.11,0,0L53,15l0-.11,0,0Zm.35-2.3-.13.1v.06l0,0,.12-.16Zm0,2.4-.08.1.07.05.07-.1Zm.16-2.6-.08.1.1.07,0-.06Zm.18-.38-.05.07-.06.21h.15l.06-.21Zm.18.24,0,0,.14.1,0,0,0-.12Zm.24.7-.14.19,0,0,.11,0L54,13.1V13Zm.14-.67-.14.2,0,0,.15-.19Zm.11-.69-.1.14,0,0,.15.07.08.16,0-.07.09-.18-.13-.1Zm0,.5-.07.1.11,0,0,0Zm0,5,0,.06.19.09,0,0,0-.12,0,0Zm.12-4.74-.07.1,0,0,.08-.1Zm.16.68,0,.07,0,0,0-.06Zm.07-.71,0,.12h.06l.07-.1,0,0Zm.51-.13,0,.12-.24.13-.11.27.06.05.16-.14v.06l.13.1.1-.13v-.06l0,0a.12.12,0,0,0-.18,0v-.11l.17-.23Zm-.23,5-.07.1,0,0,.08-.09Zm.4-2.57-.09.19h-.11L55,15.1H55l0,0,.14-.26.15-.19ZM55,11.37l-.08.1.12,0,0,0Zm.12-1.6.07.05v.11l0,0-.13-.1Zm.05,1.78-.07.1,0,0,.07-.1Zm0-1v.06l.06.05.08-.1,0,0Zm.48,4,0,.06-.16.14-.11.22-.1.13.06.05.43-.5v-.05Zm-.3-3.77,0,0,.06.05,0,0Zm.86-.33-.07.1c-.08.11-.15.15-.19.12l-.07-.11h-.06l-.17.23v.11c.07-.08.12-.11.17-.08s0,.09,0,.18v.06l.07,0,.11,0,0-.18.1-.07c.13-.21.17-.34.13-.37Zm-.45,3.41-.1.13v.11l0,0,.1-.07.09-.19,0,0Zm0-2.6,0,.06,0,0,.05-.07Zm0-1v.06l0,0,.08-.09ZM56,14l-.08.1,0,.11,0,0,.12,0,0-.12ZM56,9.44l-.12.17,0,0,.13-.16Zm0,3.26-.05.06.06.05Zm.09-1.63,0,0v.11l.07-.1Zm.3,1.51-.27.36.07.05.22-.29Zm-.12-1.68-.07.1,0,0,.07-.1Zm-.07,3.44,0,.11,0-.06Zm.09,1.45v.06l0,0h.06l0-.07,0,0Zm.1-7.36-.07.09,0,0,.07-.1Zm.18,3-.25.27.1.07.1-.13.09-.19Zm0-2.85,0,0-.07.16-.13.11,0,0,0,.11h.06l0,0,.08-.25.13-.1V8.59Zm-.16,4.91.07.05.05-.06Zm.08,1.14,0,0,0,.11,0,0,.08-.1Zm0,.93,0,0,0,0,.11,0,0,0,0,0Zm0-2.31v.11l.1-.13Zm.85-5.37V8l-.44.59L56.69,9l-.16.14v.05l0,0,0-.07,0,0V9.09L56.7,9,57,8.75l.22-.35.07-.1.18-.17.11-.28,0,0Zm.55,1.8-.15.2-.07-.05-.12.16h-.06l0,0v.06l0,0h.06l-.27.42,0,0v.06l0,.06h-.06v.06l-.32.43c-.12.15-.19.21-.24.18l0,.12.36.27a.34.34,0,0,0,.34-.11l.06.05-.1.08c-.23.34-.33.53-.28.56l.18,0a2.47,2.47,0,0,1,.34-.67h.06l.26.19c-.05.07-.05.12,0,.15l0,0,.07-.1.14-.26,0,0c-.07.09-.12.11-.17.08s0-.12,0-.24L58,11.3l.2-.41-.06-.05-.26.27,0,0V11l0,0,.15-.14.13-.16c.08-.11.1-.18,0-.21h.06a.57.57,0,0,0-.11-.8l-.07,0Zm-1.19,5.68-.08.09.1.08.08-.1Zm0-2.85-.09.13v.12l.15-.2Zm0,2.35,0,0,.07.05,0,0Zm.12-3.1,0,.07-.09.19.1.07L57,12l.06-.22,0,0Zm-.06-2.51-.05.07,0,0h.05l0,0,0-.12Zm.31,4.65-.26.27v0l0,0H57l.17-.23ZM57,15,56.9,15l.07.05L57,15Zm.32-7.3L57,8.08l.06.05.27-.36Zm.3.48h-.06l-.1.13c-.13.17-.14.3,0,.38l-.07.1-.16-.06-.07.1.06,0,0,0-.14,0,0,.17.12,0,0,0L57,9.3s0,.12.15.22l0,.17h.15l0,0c-.14.24-.19.37-.15.4l0,0,.15-.2h0l.2-.46.18-.17.12-.17-.06-.05,0,0-.27.31,0,0-.14.05v.06l-.08.1-.06-.05q-.09-.06,0-.21l-.07-.05-.05.07,0,0,.09-.18.07,0-.05.06.09.07c.08-.08.13-.11.17-.08a.61.61,0,0,0,0-.44l.16-.55q-.1.15-.21.15l-.08-.11h.06l.08-.1Zm-.47,4.37-.07.1,0,0,.08-.09Zm.07-3.64.1.07-.1.13,0,0,0-.12Zm.06-1.65-.09.13,0,0,.1-.13Zm.15,6.22-.21.35h.11l0-.07v-.06h.06l0-.06,0-.12Zm-.15-.83,0,.07.1.07.11-.07v-.06l0,0Zm.32-.89-.22.35,0,0c-.09.18-.11.28-.07.31l0,0,.12-.16L57.5,12l.15-.14v-.06Zm.41.41q-.18.22-.24.18l-.17-.13-.09.19h-.05v.12h.06l.07,0c.05,0,0,.14-.08.3l0,0c.14-.17.23-.23.3-.18s0,.08,0,.14l.07,0c.11-.15.11-.27,0-.35s0-.17.12-.37Zm-.4-4.87.07,0,0-.06Zm.19,4.66-.1.13.07,0,.1-.13Zm.46.35L58,12.5l0,0,.17-.23Zm-.07-3.6,0,0,.06,0,.08-.1ZM58.39,11l-.25.33v.11l.16-.13.12-.17V11Zm0,1-.17.23,0,0,.18-.23Zm0-4.18,0,.12,0,0,.07-.1Zm0,3.71,0,.07,0,0,.05-.06Zm0-2.37,0,0v.11l0,0,.07-.1ZM59,12l-.12.16h-.06v.06l-.15.19-.18.17-.07.31,0,0,.23-.24,0-.12.23-.24.14-.25Zm-.48-.73,0,.12h0l0,0Zm.32,0-.19.11-.09.19.07,0,.17,0C58.9,11.42,58.92,11.31,58.86,11.27Zm0,.37a.18.18,0,0,1-.28,0v.11l0,0c.11.08.11.19,0,.32l.07.05.15-.2c.08-.11.1-.2.05-.27Zm-.1-1.15-.05.06,0,0,.05-.07Zm.11-2.33-.07.1,0,0L59,8.21Zm.16.53-.13.11v.06h-.06l.1.08V8.88H59l0-.06ZM59,11.1l0,.07,0,0,.05-.06Zm.14,1.18,0,.07,0,0,0-.07Zm.12-.16-.09.13,0,0,.1-.13Zm.23-.7-.08.09h.12l0,0Zm0-1.06-.05.06,0,0,.05-.07ZM60,9l.06,0c.05,0,0,.09,0,.15l-.15.14-.07-.05V9.18Zm.12.86,0,0-.05.07h-.11V9.92l0,0Zm.11-.63c.13.24.17.39.13.45h-.06l0,0c-.17-.19-.21-.34-.13-.45h.06Zm0,1.2,0,.07.07.05,0-.07Z"/><path class="cls-4" d="M63.42,10.78l.4.41.09.14.14.09,0,.15-.33.31h-.17v-.23l-.05,0,0,0-.27.32-.44.43,0,0h.17l.24-.23,0-.14.15-.15h.11l-.15.31-.5.49.06.12.23-.18.06-.11.24-.11,0,0-.12.23,0,0-.06-.06-.12.11.06.12.26-.2v-.06l0,0,.27-.2.41-.45.23-.12.06.18c.08-.08.13-.1.17-.06l.23.24-.06,0,0,0h-.06l-.17.17-.51.61-.23.17-.41.45L60.9,16.13l-.29.17,0,0c-.09.1-.12.17-.09.2h-.06l-.17.23-.06.06-.74.65-.2.26-.18.12-.15.2-.14.08-.45.49-.76.74H57.4l-.11-.12c-.19-.2-.27-.31-.23-.35l-.23-.12-.2-.26h-.05l0,0v-.06l-.37-.33L56,17.92s0-.15.14-.32l.15-.09.59-.63.35-.34,0,0,0,.15h.06l0,0,.17-.23h-.05l-.09-.09,0,0c.35-.34.6-.5.73-.48l.06-.06a.55.55,0,0,1,.12-.29l.12-.11.29-.23.27-.31.06-.06.26-.2.3-.34.94-.92.44-.48h.06l0,0,.38-.43.35-.34.39-.32v-.05h.06l0,0c-.06,0-.06.1,0,.14l0,0,.21-.14.09-.15.11,0v-.06l-.05-.06-.27.2,0,0,.06-.11.18-.12.21-.26.38-.25.06-.12Zm-7,6.71-.09.08,0,0,.08-.08Zm.2.2-.27.26s.15,0,.32-.14v-.06Zm.7-.39-.27.26s0,.14.14.32v.05l-.2.2,0,.06.06-.11.18-.12.12-.11v-.12l-.06-.05-.06.05s0-.16.1-.37Zm-.23-.06-.09.08,0,0,.09-.08Zm.91-.95-.18.12-.23.22c-.15.15-.2.25-.15.32l.62-.6Zm-.24.58-.26.26h.11l.15-.14Zm0,1.19-.06.06.09.08.12-.11,0,0Zm1.32-.94-.11.06v.06l.06.05.06-.05Zm.06-2-.09.09.06,0,.09-.08Zm.34.82-.15.14.06.06.15-.14Zm.29.12v.06l0,0,.09-.08Zm.26,0-.09.09H60v-.06Zm.28.18-.06.06,0,0,.06-.06Zm.52-1.36-.42.4v.12l.18-.06c0-.08.09-.2.26-.37v-.06Zm0,.44-.09.08,0,0,.09-.08Zm.66-1.15c-.26.28-.37.44-.33.49l.44-.43Zm.23.12-.09.08,0,.15-.41.4v.11l.59-.57v-.11Zm.05-1.89-.05.06v.12l.12-.12Zm.41-.11-.35.35.08.08.24-.17.12-.17Zm.15,1.86-.24.17-.26.26c.08.08.22,0,.44-.2l.09-.2Zm-.12-1.54,0,0,0,0h.12l0,0,0,0Zm.41-.34-.18.17.06.06,0,0,.12-.17Zm0,.73-.09.08v.12l.14-.15Zm.4-1.59-.09.08v.12l.14-.09v-.06Zm.12,1.48L63,13l0,0,.09-.08Zm.37-1.56,0,0-.06.12-.2.14,0,.06.3-.28ZM63.39,11l-.09.08.06.06.06-.11Zm.2,1.74-.08.08,0,0,.09-.08Zm.23-1.42-.27.26,0,0,.27-.26Zm.19,1v.12l.11-.12Zm.32-.25-.18.11v.06l0,0,.18-.18Z"/><path class="cls-4" d="M67.39,16.28a.23.23,0,0,0,0,.23q.14-.11.18,0l0,0v.06h0l.05.07a2,2,0,0,1,.25,1.87,2.51,2.51,0,0,1-1.16,1.56l-.08.1-.15.06-.62.48-.37.26-1.33,1-.25.13,0,0H63.9l-.13.1v.05H63.7l-.17.12c-1.3.91-2,1.29-2.09,1.16a1.45,1.45,0,0,1-1.06.13l-.07-.1s0-.11.1-.22l.12,0,.22-.2,0-.07-.07,0,0,0-.31.27L60,23.5l-.34-.12-.11,0,0,0,.1-.07,0,0-.21.05-.05-.06.21-.2,0-.07-.1.07-.19.08-.07-.1.06,0,.21-.2h.06V22.7l0,0a1,1,0,0,1-.54.22l0-.18-.11,0,0,0-.06-.16h0a2.93,2.93,0,0,1-.46-1.38,2.72,2.72,0,0,1,1.09-2l.22-.05.19-.23.29-.16c.11-.07.15-.14.12-.18h.06l0,0,1.19-.88.29-.15.35-.3,1.55-1.07a.21.21,0,0,0,.2.06h.05a.1.1,0,0,0,0-.17l0,0L64,16l.21-.2.14-.09a2.24,2.24,0,0,1,3,.6Zm-7.92,6.06-.36.2-.11.13,0,0,.19-.08.15-.15.12,0v-.06Zm-.08-3-.21.14,0,.11.21-.14Zm.23-.17-.17.12.12,0,0,0Zm0,3,0,0,0,.12.17-.12Zm.14-.74-.14.09,0,.11.2-.14Zm0,1-.17.12,0,.07.16-.12Zm-.12-2.61,0,.11.13-.09Zm.2-.14-.07,0,.05.06.07,0Zm.19,2.21-.07.05L60,22,60,22Zm5.46-4.44L64,18.52v.06h-.06l-.47.32h-.15l-.07,0,0,.07-.89.67-.25.07-.27.24,0,0-.19.08-.18.17-.19.09-.35.29-.2.14-.16.06c-.36.34-.5.58-.39.72s.33.19.61,0v0l0,.07.13-.09,0,0h-.06l0,0v-.06l0,0,.72-.4V21l0,0h0l0,0,.08-.1.38-.17,0-.13.23-.11,1.79-1.3L66,17.94V18l.05.07.13,0,.14-.15,0-.07-.13.1,0,0s0-.12.13-.24l-.07-.1h-.06l0-.12A.53.53,0,0,0,65.51,17.44Zm-5.29,5.33-.07,0,.05.07.06,0Zm.09-4.11-.07.05,0,0,.07,0Zm0,3.36,0,0,0,.11h.06l0,0Zm.24-.17-.1.07,0,0,.1-.08Zm.07.9-.06.05,0,0,.07,0Zm.18-4.12-.06,0,0,.07.07,0Zm.59-.46-.07,0,0,0,.07-.05Zm.49.21-.1.07,0,0,.12,0,.06,0ZM62.09,21l-.13.1,0,0,.14-.09Zm.56-2.43L62,19l0,0h.06l0,0,.38-.31.21-.14Zm-.45-1.29-.06.05,0,0,.07-.05Zm.24-.16h-.06l0,0,0,.11.11,0,0,0Zm0,4.22-.1.07,0,.11.17-.12Zm0-.3-.1.07.11,0v-.06Zm.35-2.29-.13.09.05.07.06-.05ZM62.89,22l0,0,0,.12.1-.07Zm.33-3.18-.06.05,0,0,.07-.05Zm.09-1.46,0,0,0,.07,0,0Zm.34-.59,0,0-.12.12-.12,0V17l0,0,.24-.16Zm.16,3.54-.2.14,0,.07,0,0,.14-.15ZM64,16.84l-.19.09V17l.05.06.2-.14Zm-.1-.57v.05l0,0,.1-.07Zm.16,3.89-.14.09.11,0Zm.11-3.78-.1.07-.14.15,0,.06.26-.18Zm0,3.35-.07.05,0,.07.07-.05Zm.32-2.92L64.2,17l0,0,.12,0,.13-.09,0-.11Zm.06,1-.23.16,0,.07.24-.17Zm0-1.32-.16.11,0,.07.17-.12Zm-.08,2.75-.07.05,0,.07.07-.05Zm.12-1.83-.06,0,0,.12.13-.1Zm.68-.47-.1.07,0,.07,0,0Zm0-.43c-.12.11-.17.19-.14.24l.14-.1,0-.11Zm.62,0-.1.07.12,0v-.06ZM66.53,18l-.07.05,0,0,.07,0Zm0-1,0,.11.14-.09Z"/><path class="cls-4" d="M70.14,21.42l0,0v0l.09.1-.14.1,0,.11c0,.05.07.06.14,0l0,.08-.19.08v0l.13.09v0l-.57.33,0,0,.24-.06,0,.08-.12.14h0l-.43.14-.1.18.28-.07.32-.19L70,23l0,0,.11-.05,0,.08.11,0,.06-.16c-.07,0-.12,0-.14,0l0-.2,0,0,0,0,0,0,.24-.19-.12-.17,0-.05,0,0,0,.08,0,0,0,.06.08.18.14.25-.23.19,0,0,.26,0,.12.3c-.09.06-.13.12-.1.18l.11,0-.09.22,0,0,.07,0,0,.08-.11.05-.27.2-.3.13,0,.11c.16-.06.24-.07.26,0l.16.38.13.08c-.22.12-.32.21-.3.26l.09.09a.8.8,0,0,1-.33.28c0,.05.08.05.18,0l.06,0v0c0,.05,0,.1-.16.15l0,.12.25-.06,0-.06h0l0,0,0,0,.42-.26v0c.07.16-.24.53-1,1.11l-.15.06-.1-.13-.23.09,0,.08.19-.08,0,.08-.17.11-.38.16,0,.06,0,0,0,0c-1,.38-1.57.51-1.63.37v0l.23-.09,0,0c-.35.15-.57.14-.64,0l-.31-.31h0A1.48,1.48,0,0,1,66.07,28l-.41.08-.1.09L65.43,28l0,.05c.07.15-.13.32-.58.51l-1.1.47-.13.1-.17,0-.53.23-.21.13q-.21,0-.24,0l.05-.11q-.12,0-.15,0l0,0-.15-.16,0-.17-.1-.13,0-.06.31-.12,0,0,0,0,0,0-.17.12h0l0,0,0,0v-.13l-.15-.25,0,0-.06,0-.14-.34c-.06-.15,0-.26.17-.34l.2,0,.33-.18.15-.06.11,0,0,.11,0,.15,0,0,.11-.05s0-.12,0-.29a2,2,0,0,1,.65-.37L65,26.23l.06,0c.51-.28.72-.51.63-.72h0l0,0-.1-.23-3.06,1.29c-.05,0-.1,0-.14-.12l-.08,0a.45.45,0,0,1-.27.3l-.21,0-.21.13-.19.08L61.3,27l-.06-.16,0-.2-.14-.21L61,26.21,61,26l0-.08-.07,0,0-.08.08,0c.05,0,.09,0,.12.08l.06,0h0l0-.06-.06,0-.09-.23-.19.08-.11,0,0-.05-.11-.18-.13-.3s.09-.14.33-.27H61l.13-.1.49-.12.53-.31c.29-.11.44-.14.45-.1l.72-.4,0,0,0-.05,0,0,.05,0,0,0,.45-.19,0,0,0-.05.56-.24.36-.2a4.2,4.2,0,0,1,1.35-.3l0-.05,0,0,0,.12q-.12,0-.09.12l.21,0,0,.2,0,0,.08,0,0-.1-.08-.1.15-.07s.09,0,.12.09l.12-.05c0-.11,0-.23.29-.35l0,0,0,0,0,0,0,.05,0,0a.41.41,0,0,0-.3,0l-.06-.15,1.27-.58h.13l.21-.13,1.21-.51.2,0,0,.2C70,21.32,70.11,21.35,70.14,21.42Zm-9.18,4h0l0,.11,0,0,.11,0Zm.5.32-.19.08,0,.08.11,0,.18-.08,0-.07Zm0-.82,0,.11,0,.11.08,0Zm.21-.13-.08,0,0,0,.08,0Zm0,.83-.1.08,0,0,.1,0,.08,0,0-.07-.06,0Zm.37-.07-.15,0,0,.05,0,.12.08,0Zm-.05.2,0,.1v0l.11.05,0-.11v0Zm.11,2.58-.08,0,.12.17h0l0-.11v0ZM62.32,26l-.11.05,0,.08.11-.05Zm.36,2.75-.12,0,0,0,.11,0Zm.23-4.51-.17.12,0-.08-.11,0,0,.11.3-.13Zm.63-.31-.17,0,0,.05,0,0,.19-.08Zm.23-.09-.12,0,.05.12.08,0Zm.24.78-.23.1,0,0,.11,0,.07,0,.05-.11Zm.3,2.1-.17.12L64,26.79,63.8,27l.05,0,0,0,.25-.15.23-.09Zm-.2-3.12-.07,0-.16.16.12.08.16-.16Zm.62,3.26-.08,0-.2,0-.21.13-.15.07,0,.07.62-.21,0-.06Zm-.58-3h0l.06.15h0l.05-.11Zm.32.22-.23.1v0l.23-.09Zm0,.85-.08,0,0,0,.07,0Zm.2-.67-.11.05,0,0,.11,0Zm0-.28-.11.05.11.05,0,0Zm-.09,4.23,0,.05,0,0,.05,0,.07,0v0Zm.3-4.67-.15.06,0,0,.1.14V24l.07,0,.18-.12L65,23.7Zm.49,1-.09.08H65l-.23.18,0,.08.21,0,0,.05.07.15.15-.06,0-.05,0,0a.11.11,0,0,0-.16-.07l0-.1.27-.11Zm-.5-.14,0,.1.05,0,.11-.05v0ZM65,28.14l0,0v0l.11,0,0,0,0,0Zm.21-1.82-.15.06,0,.11,0,0,.13,0,.17-.11,0,0Zm0,.24-.11.05,0,.1v0l.11.05.1-.09Zm0,1.51-.12,0,0,.12.12-.05Zm0-1.12-.05.1.08,0Zm.15.37,0,0,0,.11,0,0,.11,0Zm.09.32,0,0,0,.07h0Zm.1.23-.08,0,0,.08.07,0Zm.15-4.07-.11.05.11,0,0,0Zm.06.24-.11.05v0l.12-.05Zm.1,1.39-.08,0,0,.07Zm.39.1-.41.17,0,.08.34-.15Zm-.38.78,0,.08.08,0Zm.38.69-.36.1,0,.06,0,0,0,0,.27-.12Zm-.18-.86-.05.11.15-.07Zm.21-3,0,.05,0,.08.11-.05v0Zm0,.29,0,0,0,.07h0Zm.08.6-.08,0,0,0,.07,0Zm.3,2.72-.36.19.1.05.08,0,0-.06,0,0,.08,0,0-.1Zm0-1.14-.15.06,0,.11.22-.1Zm0-3.15,0,.08,0,.1,0,0-.07-.15Zm.6,1.12-.11,0c-.13.05-.2.06-.22,0v-.13l-.05,0-.27.12,0,.1c.1,0,.16,0,.18,0s0,.09-.12.13l0,.06,0,.07.11.05.12-.14H67c.21-.12.31-.21.29-.26Zm-.21,1-.35.11.05.11.15-.06.17-.12Zm-.26-.51,0,0,0,.1.11,0ZM67,25.83l-.11,0,0,0,.11-.05Zm.2-.8-.07,0-.18.12,0,.11.17,0,.16-.16,0,0ZM67,23.16l0,.05,0,0,.11-.05Zm.1.85-.12,0,0,0,.11-.05Zm0,2L67,26l0,.11h.13l0-.05v0Zm2.09-2.22-.23.1,0-.08-.19.08,0,0h0l0,.06,0,0,0,0-.44.23v0l0,.05-.07,0-.06,0,0,.06-.49.2c-.18.08-.27.09-.3,0l-.09.08.17.42a.38.38,0,0,0,.35.08l0,.07h-.13c-.37.18-.54.3-.52.36l.16.06a2.84,2.84,0,0,1,.63-.4l.06,0,.12.31c-.07,0-.1.07-.08.12l0,0,.11-.05.25-.15,0,0c-.1,0-.16,0-.18,0s0-.12.14-.19h.13l.39-.25,0-.08-.36.11,0,0,0-.05v0l.2,0,.19-.08c.13-.06.18-.11.16-.16l0,0a.57.57,0,0,0,.31-.75l0-.08Zm-1.23,2.16c-.17.08-.27.09-.29,0l-.08-.19-.17.12-.06,0,0,.1,0,0,0,.07c0,.06,0,.13-.21.23v0c.21-.08.32-.09.35,0s0,.09-.08.12l0,.08c.18-.08.24-.18.19-.3s.07-.16.29-.26Zm-.14-.56-.36.2,0,0c-.16.11-.23.18-.22.23l0,0,.19-.07.21-.14.2,0,0-.05Zm-.17-2.73-.19.08v0l.19-.08Zm.24,3-.15.07,0,.07.15-.06Zm.22.53-.26.11,0,0,.26-.11Zm.84.19-.19.08,0,0,0,.06-.22.09-.25.06-.21.22v0l.32-.09.1-.08.32-.09.25-.15Zm-.35-4.22,0,0-.14.1-.16,0,0,0,0,.11,0,0,0,0,.19-.17.17,0,0-.05ZM68.39,26l-.27.11,0,0,.26-.11Zm1.16-4.1-.08.13-.68.28-.4.22-.21,0,0,0,0,0,.08,0v0l0-.06.08,0,.35-.11.37-.19.11,0,.24-.06.24-.19,0,0Zm0,.35-.06,0-.15.06c-.2.09-.27.19-.22.32l-.12.05-.1-.14-.11.05,0,.08h0l-.14,0-.07.17.11,0,0,0-.23.09s0,.11,0,.26l-.07.16.13.08v0c-.24.13-.35.22-.33.28l0,0,.23-.09,0,0,.41-.31.24,0,.19-.08,0-.08,0,0-.4.12,0,0-.15,0,0,.05-.11.05,0-.08c0-.06,0-.12.1-.17l0-.08-.08,0v0l.17-.12,0,.07-.07,0,0,.11c.11,0,.17,0,.19,0a.67.67,0,0,0,.24-.37l.41-.39a.32.32,0,0,1-.25,0l0-.13.06,0,.11-.05Zm-1.18-.35-.11.05,0,0,.11-.05Zm0,.9-.07,0v0l.06,0v0l.1-.09Zm.46,2.35-.38.16,0,.1.21,0,.19-.08,0-.11Zm.11.79a.18.18,0,0,1-.27-.11l0,.11h0c0,.12,0,.22-.15.28l0,.08.23-.1Q69,26.15,69,26Zm-.33-.35-.07,0v0l.08,0Zm.5,0h-.22l-.17.12,0,.07.16.07C69.07,25.79,69.14,25.7,69.11,25.64Zm-.25-2.93,0,.12-.16.06v0l0-.1Zm0,3.94-.07,0v0l.08,0Zm0-1.16,0,.11,0,0,0,0ZM69,26.57l-.15.06,0,0L69,26.6Zm.54-4.86-.49.21,0,.07.41-.17Zm-.25,3.85-.08,0,0,0,.07,0Zm.13-.64-.07,0v0l.08,0Zm.13,1.15-.12.05.11,0,0,0Zm.18-4.75-.15.06v0l.16-.06Zm.06,2.25h0l-.05.11,0,0,.11-.05Zm0-.54,0,0,0,.07.11,0ZM70,21.52l0,.08.08,0Zm.11,3.65-.07,0v0l.08,0Zm.46-1.66-.17,0,0,.06,0,0,0,.12,0-.06,0,0,.08,0Zm-.11-1.11-.1.08,0,0,.11-.05Zm.18,3.17-.08,0,0,.08.07,0ZM70.7,23l-.12.05,0,0h.13ZM70.86,25v0l-.07,0-.11,0,0-.06h0Zm.33-.8,0,.07c0,.05,0,.09-.08.13l-.21,0,0-.08,0-.11Zm.09.31c0,.28-.06.43-.13.46l-.05,0,0,0c0-.25,0-.4.13-.45l.05,0Z"/><circle class="cls-5" cx="37.4" cy="37.4" r="24.93"/><ellipse class="cls-6" cx="37.4" cy="26.4" rx="18.29" ry="12.93"/></g></g></g></svg>