<svg xmlns="http://www.w3.org/2000/svg" xmlns:xlink="http://www.w3.org/1999/xlink" viewBox="0 0 74.8 74.8"><defs><style>.cls-1{opacity:0;}.cls-2{fill:#fff;}.cls-3{fill:url(#radial-gradient);}.cls-4{fill:#3c0;}.cls-5{fill:url(#radial-gradient-2);}.cls-6{fill:url(#linear-gradient);}</style><radialGradient id="radial-gradient" cx="37.4" cy="62.33" r="19.47" gradientTransform="translate(0 54) scale(1 0.13)" gradientUnits="userSpaceOnUse"><stop offset="0"/><stop offset="0.32" stop-color="#231f20" stop-opacity="0.6"/><stop offset="1" stop-opacity="0"/></radialGradient><radialGradient id="radial-gradient-2" cx="37.4" cy="37.4" r="24.93" gradientUnits="userSpaceOnUse"><stop offset="0.75" stop-opacity="0"/><stop offset="0.96" stop-color="#231f20" stop-opacity="0.2"/><stop offset="1" stop-opacity="0.5"/></radialGradient><linearGradient id="linear-gradient" x1="37.4" y1="39.33" x2="37.4" y2="13.47" gradientUnits="userSpaceOnUse"><stop offset="0" stop-color="#fff" stop-opacity="0"/><stop offset="1" stop-color="#fff" stop-opacity="0.7"/></linearGradient></defs><title>orb-music-wtext</title><g id="Layer_2" data-name="Layer 2"><g id="Layer_1-2" data-name="Layer 1"><g id="orb-music-wtext"><g class="cls-1"><circle class="cls-2" cx="37.4" cy="37.4" r="37.4"/></g><ellipse class="cls-3" cx="37.4" cy="62.33" rx="21.95" ry="3.59"/><circle class="cls-4" cx="37.4" cy="37.4" r="24.93" transform="translate(-15.49 37.4) rotate(-45)"/><path class="cls-2" d="M50.26,44.41l-1.38-10-12.6,4.11c0,.34.09.68.13,1,.13.91.26,1.82.38,2.73S37,44,37.16,44.9l.42,3c.15,1.09.31,2.17.45,3.26a2.92,2.92,0,0,1-.48,2,4.52,4.52,0,0,1-4.62,2.17,2.55,2.55,0,0,1-2.13-1.55,2.59,2.59,0,0,1,0-2.06,4.35,4.35,0,0,1,2.31-2.4,4.29,4.29,0,0,1,2.31-.43c.26,0,.52.09.81.14,0-.25-.07-.48-.1-.72l-.39-2.86c-.12-.87-.25-1.74-.38-2.62l-.48-3.47c-.14-1-.27-2-.41-2.94l-.15-1.11a.73.73,0,0,1,.53-.75l3.91-1.28,4.19-1.37,3.2-1.05,2.74-.89a.74.74,0,0,1,1,.62c.12.88.24,1.75.37,2.62.16,1.17.33,2.34.49,3.51s.31,2.32.47,3.49l.36,2.55.39,2.76a11.76,11.76,0,0,1,.15,1.33,3.26,3.26,0,0,1-1,2.41A4.49,4.49,0,0,1,47,50.7a2.58,2.58,0,0,1-2.23-1.79,2.67,2.67,0,0,1,.14-2,4.51,4.51,0,0,1,3.29-2.59,3.79,3.79,0,0,1,1.92,0Z"/><path class="cls-2" d="M28.92,35.09C29,34,29,33,29,32l.15-4.39.15-5,.06-1.37a.59.59,0,0,1,.39-.56.61.61,0,0,1,.69.24,24.91,24.91,0,0,0,2.36,2.66,17.6,17.6,0,0,1,1.38,1.6,4.21,4.21,0,0,1,.86,2.24,7.07,7.07,0,0,1-.19,2.71A4.72,4.72,0,0,1,34,31.79a.62.62,0,0,1-.18.18c-.06,0-.17.07-.21,0a.26.26,0,0,1-.08-.21c.07-.25.16-.5.24-.74a6.93,6.93,0,0,0,.35-3.16,3.6,3.6,0,0,0-.89-1.81,5.71,5.71,0,0,0-2.68-1.76l-.15,0v.79L30.2,32.5l-.15,4.35a2.26,2.26,0,0,1-1,1.78,3.83,3.83,0,0,1-3.34.74,2.26,2.26,0,0,1-1.41-.9,1.77,1.77,0,0,1-.09-2,3.3,3.3,0,0,1,2.07-1.58,3.66,3.66,0,0,1,2.1,0C28.56,35,28.73,35,28.92,35.09Z"/><circle class="cls-5" cx="37.4" cy="37.4" r="24.93"/><ellipse class="cls-6" cx="37.4" cy="26.4" rx="18.29" ry="12.93"/><path class="cls-4" d="M22.25,3.5l.59-.2.15.08.17.5.08,0-.17-.5.08-.16,1.74-.59c.18.25.85,1.64,2,4.16l.08,0v0a24.88,24.88,0,0,1-.7-3.05l-.05,0A6.83,6.83,0,0,1,26,2.22l.08,0,.4-.1L27,1.88l1.59-.54.16.07.2.59,0,.28.2.45,1.43,4.19c0,.13,0,.21-.05.24l0,.11c.08,0,.14,0,.18.16L32,10.92l-.08.16-1.63.55-.16-.07-.59-1.75c-.13-.39-.17-.59-.13-.61l-.18-.28L28.08,5.58h0L28,5.7l0,.08c.2.59.67,2.63,1.39,6.11l0,0-1.17.4c-.09,0-.32-.38-.68-1.24L25.43,6.83l0,0,1.94,5.66-.08.16-.5.17-.16-.07-.16-.47,0-.34v0a.7.7,0,0,1-.27-.42l-.1-.27-.1-.06.08.24.17.63,0,0,0,0,0,.05.32.67-.09.12-.08,0c-.13,0-.22,0-.27-.16l-.08,0v0l.08.11-.09.11-.23.08c-.16.06-.27,0-.34-.23l-.6-1.74,0-.25-.33-.71,0-.25-.13-.26-.07-.32h0V9.3L24,8.84,24,8.61l0-.12-.11-.09L23.75,8q-.09-.48,0-.51l0,0,.05,0,0,0,0-.11-.12,0,0,0h-.13l-.27-.78-.22-.53.05-.23L22.82,5l-.16-.34V4.53l-.33-.71,0-.11Zm.77.6.44,1.28.11,0,0-.16L23.42,5l-.29-.86Zm0,1,0,0,.09.14,0,.14c.08.09.13.13.17.12l.08,0v0l-.19-.28,0-.12Zm.88,1.3,0,.05v0l.12.22,0-.1,0-.16ZM24,6.7l.2.58a.88.88,0,0,0,.23.4v.17l.34.88.09.14h0V8.73l-.05,0-.16-.6,0-.08,0,0-.44-.76-.15-.47Zm0,1.47.05.15.08,0,0-.08Zm.35.79-.05.1,0,.12.08,0v0l.06.28.08.11.07-.16,0-.12q-.11,0-.21-.36Zm.24.69v0l.18.38,0,0-.06-.28Zm0-.6v0l.11.18.05-.1L24.79,9Zm.16-1.19,0,.08h0l0-.08Zm.06,2.32,0,.08,0,0,.14.25.06.2-.08.15h-.12l0,.08.12,0,0,.12a.82.82,0,0,0,.39.39l-.27-.78C25.06,10.31,25,10.16,24.89,10.18Zm0-1.27L25,9l.11.18h0L25,8.87Zm.39.39,0,.08.1,0-.05-.16Zm.26.39,0,.07h0l0-.08Zm.07,2,0,.11.11,0-.07-.1Zm.2-1.2s0,.1-.13.13l0,.06,0,0,.28,0,0-.05,0,0Zm0,1.26,0,0,.1.18.08,0L26,11.77Zm.26-4.33,0,.07h0l0-.08Zm1-2.14.08.23.08,0v0l-.11-.18ZM29.66,9.2l0,.08.08,0,0-.08Z"/><path class="cls-4" d="M31.74.73l.41,0,.17,0,.16-.06.41,0,.25.06.07-.09.17,0c.29,0,.45,0,.46.09l0,.69,0,.74.07.41h0l0,0,.08,1,0,.66,0,.12,0,.29.15,1.3V6.2l.08.45.13,1.55c.06.73.17,1.1.34,1.08s.35-.22.32-.6l-.07-.78a.34.34,0,0,1,.14-.3l-.06-.2,0-.57,0,0-.21-.55,0-.05L34.8,4.75l-.07-.81,0-.17-.06-.16,0-.33,0,0v0h0l0,0v0l-.07-.33c0-.13,0-.2.11-.21v0c-.08,0-.13-.09-.14-.28l0-.33,0,0-.05,0V.91l-.1-.24,0-.13h.16c0,.08,0,.12.1.11s0-.17.11-.17L35,.66V.74l0,.13h0l0,0h0a.8.8,0,0,1,0-.46c.2,0,.3.1.3.14V.71h0L35.27.64l0,.21s.09.08.25.1l.06.16c.06,0,.1-.08.1-.22h.09l0,.2h.13S36,1,36,.82h.08l.06.24h0c0-.27,0-.41.09-.41l.13.11,0-.13L36.37.46l0-.12h.12l0,.49,0,0,0,.05V1l.13.15v0l-.07.13.05.12,0,.25c.06,0,.12.18.17.56v.08h0l.11.81.18,2.13a.63.63,0,0,1-.17.46V5.8a1.42,1.42,0,0,1,.21.56l0,.13.08.4-.07.17.1.24.06,1.19.05,0v0c0,.22,0,.33-.09.34l-.13,0,0,0V9c0,.06.06.08.17.07a2.18,2.18,0,0,1-.9,1.56,2.64,2.64,0,0,1-1,.37l-.49,0a2.39,2.39,0,0,1-2.1-1,.46.46,0,0,0-.19-.31V9.64l.17,0,0-.2h-.12l0,.17h0l-.24-.89,0-.29-.11-.73,0-.36.08-.09.17,1h.08l0-.12,0-.12,0-.13c-.11-.76-.2-1.13-.27-1.13s0,.13-.07.13l0,0,0-.2,0-.25A1.92,1.92,0,0,1,32,5.73V5.12l-.06-.24V4.34l-.06-.12.07-.66V3.44L31.81,3l-.17-2,0,0C31.64.83,31.69.74,31.74.73Zm.09.57,0,.45.12,0,0-.24h-.08l0-.13-.05-.12ZM32.05,1l.06.69.08.49h0V1.72l.2,0,0-.05-.07-.4h0c0,.14,0,.22-.11.25L32.13,1Zm0,2.42v.37l.05,0h.08l0-.32Zm.11,3.7h0V7.2h0Zm0-4.45,0,.28h.08l-.07-.29Zm.09.53,0,0v.08l.09.08h0V3.23ZM32.3,1v.12l.09.07,0-.28Zm.06,2.58v.13l.05.16,0,.12h.12l0-.12,0-.16-.05-.12Zm.17,3-.07.13.22,1.13,0,.13c.05.29.1.44.16.43l0,0-.15-.77V7h.12l.09.49,0,.25H33V7.67l-.08-.49h0l0,0v0l0-.29h-.08l0-.21-.12,0Zm0-3.71v.16h.08V2.92Zm0-2.14,0,.53.09.07,0-.41-.06-.2Zm0,2.84v.08l.09.07.08-.09V3.61l-.09-.07Zm0-2.07v0l.09.08,0-.2Zm.11.82V2.5h.08V2.37ZM32.82.81l0,.53h0l0-.05h0l0,0,0-.45ZM33,2.48l0,.13.1.23.12,0,0-.24-.09-.08Zm0,1.11v.08h0V3.59Zm0,4.49v.08h0V8.08ZM33.1,7v.12h0V7Zm0,2.51v0h.08v0Zm.08-5.82-.07.22h.05l0,0h0l0,0V3.77Zm.05-1.28,0,.21h.08v-.2Zm.1,2.51V5h.08v0Zm0,2.1v.33l0,0h0l0,0,0-.25Zm0-5.81v.12h0V1.2Zm0,2.92v.12h.12v0l-.09-.08Zm.09-1.9,0,.4h.08l0-.33Zm.11-1,0,0v0l0,.17.05,0h0l0-.41C33.69,1.06,33.67,1.11,33.67,1.19Zm.19,9.41,0,0v.12h.05l.07-.09ZM34,7.26l0,0v0c.05.11.1.16.14.15l0-.16ZM34.7.69l0,.21.09.07,0,0V.88l-.06-.2Zm0,2.34v.08l0,0,0,0,.07.29v.16h.08l0-.2L34.82,3Zm.32.43,0,.28.08.08,0-.37Zm.1.73,0,.32h.08l0-.25Zm0,2.55v0l.06.2h.12l0-.21V6.68l-.09-.07Zm0-4.37,0,0v0l.13.11V2.49l0-.05-.08-.07Zm0,4.77v.09l.09.07h0V7.13Zm.39-5.63q-.12.25-.27.27v.08l0,0,0,.05v.12l.09.07c.06,0,.08,0,.07-.13l0-.12c.07,0,.12-.12.18-.34v0ZM35.41,6.1v0h.09V6Zm.09.53v.16h.08V6.62Zm0-4.2.17.06h0l.08-.09-.14-.11h0Zm0,4.73v.08h0V7.15ZM35.63.53l.09.07,0,.16h-.09Zm.07,3.61,0,.29.09.07,0,0V4.34l-.06-.21Zm0,2.59v0l.12,0V6.64h0Zm.06-2.18v.12h0V4.54Zm.21,2v.08l.09.07,0,0V6.5ZM36.24.35v.2h-.08L36.12.4l0,0Zm0,6.13v.21l.13,0,0-.2Zm.25.06.09.08,0,0,0-.12Zm.1-1.65v0h.08v0Zm.2,3.73,0,0v0h.12Zm0-3.8V5H37V4.82Zm0,4.16v.08h0V9Zm.19-.72v.17h.08V8.26Z"/><path class="cls-4" d="M41.68.22c.34,0,.55.14.62.28l.14-.06c.43,0,.86.4,1.28,1.06l.11.46v.09l0,0v0c.1,0,.1.56,0,1.65l-.14.07-.48-.06,0,0,0,0-1-.12,0,0-.05,0h0c-.16-.05-.23-.1-.23-.15l0-.12h.08l-.07-.14.13-.35v0c0-.56-.12-.84-.23-.86h-.08c-.27,0-.43.17-.48.61L41,3a1.67,1.67,0,0,0,.86,1.51c1.11,1,1.63,1.92,1.54,2.66,0,0,0,.35,0,1h0l0,0,0,.29,0,0,0,.05v.08q0,.09-.18.06l0,0v.08a.25.25,0,0,1,.19.11,2.15,2.15,0,0,1-.3.79l0,0v0c-.16.32-.3.49-.43.53v-.12h-.08l0,.21a2.42,2.42,0,0,1-1.88.52l0-.17a.54.54,0,0,0-.39.12l-.14-.18-.13.06h0l-.08-.09,0,0h0q-.43-.13-.42-.3l-.2,0a.73.73,0,0,1-.32-.82V9.47l-.13,0,0,.25h0a1.94,1.94,0,0,1-.31-1.15l.09-.07v0a.47.47,0,0,1-.09-.3l.07-.57V7.15L38.52,7l0-.2.17-.07.73.13.13,0,0,0H40l.53.06.1.14c0,.32-.1.48-.14.48h-.29l0,0,0,0V7.44l-.07-.09h0v.13l0,0,0,0v0l0,.13L40,8l0,.21h.08l0,0h0a1.6,1.6,0,0,1,.06.59c.07,0,.17.11.29.32l.24.07.3-.09c.1-.37.18-.55.23-.55l0,0-.07.2,0,.16.14-.1V8.75l0-.05.1-.15-.24-.07a1.87,1.87,0,0,0-.53-1.84A7.29,7.29,0,0,1,39,4.49l-.14-1.25L39,3l0-.13L39,2.79V2.5q.28-1.72,1.23-2l0,0c0-.11.07-.16.14-.15s.08,0,.07.13h.08c0-.11,0-.16.1-.15h0l0,.53.09-.07,0-.36.07-.2.2.06.09-.07h0l0,0,.17-.06c0,.11.06.17.1.18h0C41.55.28,41.6.21,41.68.22Zm-3,8.2V8.5h0V8.42ZM38.86,7V7h0V7Zm0,1.53,0,.29H39l.07-.2,0-.12Zm.1,1.58,0,0h.08l.09-.07L39.12,10Zm.14-2.91,0,.16h0l0-.17Zm.09,1.37,0,.29h.08l0-.29Zm.08,1.37,0,.21h.08a.22.22,0,0,1,.28-.21V9.81l-.08-.09C39.4,9.78,39.3,9.84,39.29,9.89Zm.1-6.72v.08l.12,0V3.19Zm.18,4.73-.13.4v0l.12,0,0-.45Zm0,2.52s.07.09.23.15v0l0,0h.08l.1-.07v-.08h-.33v0Zm.08-3.13,0,.21,0,0h0l0,.12h.08V7.58h0l0-.13.06-.12h.08l0,.5-.07.32,0,.05h0l0,0L40,7.25l-.16,0v.08h-.09V7.22h0Zm0,2.8v0h.09v0Zm.15-1.3v.12h0l.06-.11Zm.47,1.33-.13.4,0,.05h.08l.06-.45ZM40.11.9v0l.07.1,0-.21Zm0,2.86v.16l.12,0,0-.17Zm.08,3.93h.12v0l-.06.19h-.08l-.06-.17Zm.16-3.86v0h.12l0-.12h-.05Zm0-3.1,0,.13h.09V.74Zm.21.32v.08l.07.09V1.14Zm0,9.21v.41h0l.08-.36,0-.05ZM40.79,6l0,.21h0l0-.2Zm.12,4.19v.08h0v-.09Zm.21-9.14v.12h.12l0-.12Zm.34-.38-.06.49c.05,0,.09,0,.09-.11V.7Zm.2,8.08,0,0v.13h.08l0,0h.05l0,0v0l0,.05H42l0-.12-.12,0ZM42,3.36v.08h0V3.36Zm.1-.9-.06.2,0,.25.14-.11V2.47Zm0-.33,0,.17.09-.08,0-.16Zm0,6.73c0,.3,0,.46.07.47l0-.37-.07-.09ZM42.29.63l-.11.23,0,.38-.06.53V2h0c.09,0,.13,0,.14-.15a.93.93,0,0,1-.07-.42c0-.24.1-.36.17-.35l.07.09V1l-.16,0,0-.29L42.33.63Zm.13.67,0,.05h0l0-.12Zm.17,8v.37l.14-.1,0-.26Zm.32-8,0,.28h0L43,1.54l0-.21Zm.31-.21v.37h0l.09-.07,0-.24-.07-.09,0,0Z"/><path class="cls-4" d="M46.5,1.18l.55.16.15.08h.17l0,.15L47.29,2l-.15.09L47,1.88,47,2h0l-.07.41L46.73,3h0l.15-.08L47,2.56l0-.14,0-.2.11-.05,0,.34L47,3.19l.11.07L47.18,3V2.86l.14-.21h0V3l-.08,0,0,.15.11.08.12-.31,0,0v0l.13-.3.12-.61.15-.21.13.12c0-.1.07-.15.13-.14l.31.09,0,.08h0l-.05,0-.07.24-.13.77-.11.27-.13.6L47,7.08l-.16.29,0,0c0,.14,0,.21,0,.22l0,0,0,.29,0,.08L46.45,9l0,.33-.1.19,0,.25-.08.14-.14.65-.28,1-.15.09-.16-.05c-.27-.07-.39-.13-.37-.19l-.26,0-.31-.13-.05,0h0l0-.05-.48-.1-.24-.06s-.06-.13,0-.35l.08-.15.2-.84.13-.47h0l.09.11,0,0v0l0-.28,0,0-.12,0V9c.14-.47.27-.74.39-.79l0-.07a.46.46,0,0,1-.05-.31l.05-.16.14-.35.07-.4,0-.08.13-.31L45,6.09l.35-1.27.14-.64,0,0v0l.12-.56.13-.48L46,2.61l0,0,.05,0h0c0,.08,0,.13,0,.14l0,0,.1-.23V2.3l.07-.11,0,0-.08,0-.13.3h0V2.28l.09-.18,0-.33.2-.41V1.23ZM43.86,10.5l0,.11,0,0,0-.12Zm.27.07-.1.36c.06,0,.12-.08.21-.28l0-.06Zm.18-.63,0,.12h0l0-.12Zm.31-1.27-.09.18-.09.32c-.06.19,0,.31,0,.35l.23-.83Zm-.08,1.21-.1.35c0,.06.08.12.28.21l0,.05-.08.28.08,0v-.13l.09-.19,0-.16-.06-.1-.08,0,0,.08s-.08-.14-.11-.37Zm.16-.6-.1.36.11-.06,0-.19ZM45,7.1l0,.12.08,0,0-.12Zm.29,3.24,0,.07.12,0,0-.16h0Zm.41-2.7-.05.2.08,0,0-.2Zm.19-4.17,0,.08.06.1,0-.15Zm.07,5.39L45.86,9l0,0L46,9,46,9ZM46,7.6l0,.05h0l0-.12Zm.17-4.43L46,3.65l.12,0,.12-.26V3.21Zm.17,2.9-.15.56.06.1.12-.14c0-.07,0-.22,0-.45l0,0Zm-.1,1.42,0,.12.1-.05,0,0Zm.12-4.05,0,0h0l.11-.06v0h0ZM46.44,2l0,.12.06.1.08-.15,0,0Zm.06,3.16c-.09.38-.1.57,0,.59l.17-.59Zm0-2.21-.07.24.08,0v0l0-.2Zm0,3.54,0,.12h0l0-.12Zm.05,1,0,.08h0l0-.08Zm0-6.08,0,.12.07,0V1.44Zm.16,3.71,0,.12.05.14-.15.55.05.1.22-.79,0-.1Zm.07-3.47v.17l-.11.22.08,0,.11-.4Zm.07,1.89,0,.12.05.1.06-.2Zm.32,1.16L47.1,5l-.1.36c.11,0,.2-.1.28-.39l0-.22Zm-.08-3.22-.1.35,0,0,.1-.36Zm.16,1.7,0,.12h0l0-.11Zm.36-.36,0,.11,0,0,0-.12Zm.12-.61.06.1,0-.15Zm.15-.38L47.84,2l0,.05h0L48,1.85Z"/><path class="cls-4" d="M53.06,3.41l0,.14-.15.34.07,0,.16-.33.11,0s0,.07,0,.14l0,.06h0c0-.07.07-.1.12-.07h0l0,.11.13,0c.38.18.68.72.87,1.62a5.66,5.66,0,0,1-.71,2.43l-.2.44-.25.43-.22-.1-.1-.18c0,.08-.07.1-.12.08l0-.11.15-.34,0,0a.19.19,0,0,0,.06.26l.14-.21.17-.46-.07,0c-.16.29-.26.42-.32.4L53,8l0,0-.19.41,0,.05,0,0-.05,0-.15-.07.08-.27s-.12.05-.23.2h0l0-.06h0l-.15,0-.11-.14-.17,0,0-.1L51.74,8l-.14-.2-.05,0,0,0,0-.15.2-.44c.63-1.37.9-2.07.8-2.12L52.25,5c-.2-.09-.42.11-.64.61l-.3.54,0,.06,0,0c-.26.48-.41.71-.45.7l0,.13-1,2.28-.29.64-.15.42-.06,0v0c-.3.65-.34,1-.11,1.12l-.06.12.08,0c0-.1.14-.11.29,0l.71-1.26.11,0,.31-.85.16-.06,0,0,.17.13h0l.06,0,.07.13.26,0,.11.05c.12.06.18.12.16.16l.05,0,.11,0,0,.06h.18a.39.39,0,0,1,0,.29l.11.06.05-.21.15,0,0,.15-.12.26.07,0,.25-.34.13.11-.16.24-.06.15,0,.11-.17.19-.07.24-.1.13-.1.32a2.34,2.34,0,0,1-.71.94l0,0,0,0c-.26.28-.48.42-.64.42l0,0L50.7,13l-.11,0-.14.3a2.15,2.15,0,0,1-1.74,0l-.06-.16.24-.52,0-.11-.06,0-.29.63,0,0c-.05,0-.06-.1,0-.23l0,0-.18.19a.11.11,0,0,1-.06-.16l0,0,0,0A2,2,0,0,1,47,10.72a10.1,10.1,0,0,1,.81-2.25l.62-1.34.19-.32,0-.2.17-.28,0-.06,0,0,.1-.14h0l0,0,.28-.6,0,0,0,0,0,0,0-.2c.4-.81.66-1.19.79-1.13l0-.05v0c.16-.2.26-.29.31-.27l0,0,0,.11.08,0,.12-.26a.37.37,0,0,1,.36-.2q0-.1.33-.12c0-.08.17-.12.41-.12l.11,0,0,.16,0,0c.09-.2.23-.26.4-.18,0,0,.12,0,.29.05l0,0,0,.06h0ZM47.56,10l0,.07,0,0,0-.07Zm0-.66-.06.11,0,0,.05-.12Zm.23,2.72,0,.12h0l0-.11Zm0-2.73,0,0,0,.1.06,0,0,0,0-.06Zm.05-.88,0,.07.08,0,0-.07Zm.16,1.11L48,9.75l.11,0,0-.08Zm0,.59,0,.11,0,0,.06-.12Zm.16,2.29-.08.18.11,0v0Zm0-4,0,.08,0,.11,0-.08Zm.35,1.2-.16.34.08,0,.12-.26Zm0-1.43-.11.23.08,0v0l0-.2Zm.13.29-.06.15.07,0,.1-.22Zm.16-.33,0,.11,0,.11,0-.11Zm.21-1.94-.24.52,0,.11.31-.67Zm.13.42L49,7.26l.07,0,0-.07,0,0L49.21,7l.07-.15Zm-.12,5.73-.14.3.11,0,.07-.15Zm0-.64-.05.11.08,0,0-.11Zm.24-6L49.27,6h0l.07-.14Zm.08.4-.15.33,0,.11.15-.33Zm-.07,2.22,0,0,.07,0,.05-.11Zm.19-3.16-.21.45c.05,0,.1,0,.13-.08l.12-.35Zm0,1.32-.22.48,0,.11,0-.07,0,0C49.58,6.79,49.62,6.61,49.56,6.58Zm-.11,5.82-.1.23h.13l.07-.15Zm.17-4.57L49.53,8l-.08.28,0,0,.17-.37Zm.15-1.11,0,0L49.69,7l-.09.09c-.13.33-.17.51-.11.54l0-.08.32-.79Zm-.16,5.93-.09.28,0,0,.14-.3-.06,0Zm0-7-.12.26,0,0,.14-.21,0,0Zm.05-.88-.05.11.07,0,0,0Zm.18,2.34-.22.48,0,.11.28-.5,0-.06Zm0,5-.17.38,0,.11.24-.53ZM49.75,5.4l-.06.11,0,.11.06,0,0-.07,0-.11Zm.37-.23,0,.07h0l0,.2L49.73,6l.07,0,.31-.67,0-.2Zm-.2,1.22-.1.22,0,0s.09,0,.12-.08l0-.13Zm0-1.38,0,.08h0l0-.07Zm.22,1.68L50,6.86,50,7l0,0,.07-.15Zm-.05,1.56,0,.12h0l.05-.11Zm0-2.16,0,.07.07,0,0-.08Zm.13,1.09-.11.23,0,.2,0,0,.07-.15.08-.28Zm.24.07,0,0-.34.83,0,.06,0,0L50.21,8l0-.2.23-.3V7.29Zm-.18-1,0,0c-.07.21-.08.32,0,.34l.12-.26ZM50.17,12v0l.07,0,0,0Zm0-7.84,0,0,.08,0,0-.12Zm.14.38-.07.15.11,0Zm.06,8.21,0,.07,0,.11.06,0v0l0-.11Zm.06-8.47-.07.15.11,0Zm.32,2.05L50.51,7l0,.11L50.64,7C50.82,6.59,50.88,6.37,50.8,6.34Zm-.13-2.46L50.62,4h0l.05-.11Zm0,.55,0,.06,0,0,0-.12Zm0-.75,0,0,0,.11.09-.19Zm.21,6.6-.14.3.07,0,.14-.29Zm.13-6.85,0,.08.06.16,0-.11,0-.11Zm.08,7.67-.07.15.11.05,0-.07,0-.11Zm0-5.67,0,.07.08,0,0-.08Zm.2,5.15-.07.15.07,0,0-.07Zm0-7.08,0,.11h0l0-.11Zm.11,8.09,0,.07,0,0,0-.08Zm.18-8.14-.06.15,0,.11.1-.23Zm0,4,0,.07,0,0,0-.08Zm.36,3.42,0,.07,0,0,0-.08Zm.82-6.86-.16.34.08,0L53,4.09Zm0,2.11,0,.08,0,0,0-.08Zm.87,1.45L53.52,8l-.12.35.05,0,0,0,0-.06,0,0,.09-.1.2-.54Z"/></g></g></g></svg>