<svg xmlns="http://www.w3.org/2000/svg" xmlns:xlink="http://www.w3.org/1999/xlink" viewBox="0 0 74.8 74.8"><defs><style>.cls-1{opacity:0;}.cls-2,.cls-6{fill:#fff;}.cls-3{fill:url(#radial-gradient);}.cls-4{fill:#ff6e00;}.cls-5{fill:url(#radial-gradient-2);}.cls-6{fill-rule:evenodd;opacity:0.9;}.cls-7{fill:url(#linear-gradient);}</style><radialGradient id="radial-gradient" cx="37.4" cy="62.33" r="19.47" gradientTransform="translate(0 54) scale(1 0.13)" gradientUnits="userSpaceOnUse"><stop offset="0"/><stop offset="0.32" stop-color="#231f20" stop-opacity="0.6"/><stop offset="1" stop-opacity="0"/></radialGradient><radialGradient id="radial-gradient-2" cx="37.4" cy="37.4" r="24.93" gradientUnits="userSpaceOnUse"><stop offset="0.64" stop-opacity="0"/><stop offset="0.95" stop-color="#231f20" stop-opacity="0.29"/><stop offset="1" stop-opacity="0.5"/></radialGradient><linearGradient id="linear-gradient" x1="37.4" y1="39.33" x2="37.4" y2="13.47" gradientUnits="userSpaceOnUse"><stop offset="0" stop-color="#fff" stop-opacity="0"/><stop offset="1" stop-color="#fff" stop-opacity="0.7"/></linearGradient></defs><title>orb-activitycamp-wtext</title><g id="Layer_2" data-name="Layer 2"><g id="Layer_1-2" data-name="Layer 1"><g class="cls-1"><path class="cls-2" d="M37.4,0A37.4,37.4,0,0,1,74.8,37.4"/></g><g class="cls-1"><path class="cls-2" d="M0,37.4A37.39,37.39,0,0,1,37.4,0"/></g><g class="cls-1"><path class="cls-2" d="M74.8,37.4A37.4,37.4,0,0,1,0,37.4"/></g><ellipse class="cls-3" cx="37.4" cy="62.33" rx="21.95" ry="3.59"/><circle class="cls-4" cx="37.4" cy="37.4" r="24.93"/><circle class="cls-5" cx="37.4" cy="37.4" r="24.93"/><polygon class="cls-6" points="25.74 46.34 36.6 57.4 29.98 47.83 30.03 47.85 28.99 46.39 30.48 43.85 30.24 40.85 29.15 40.16 31.44 33.06 27.32 41 28.14 43.28 28.93 40.81 28.74 46.03 28.54 45.76 27.11 43.69 27.09 43.72 27.08 43.71 22.36 43.27 15.76 36.67 21.13 44.72 25.74 46.34"/><polygon class="cls-6" points="22.04 41.66 25.41 40.32 26.89 41.03 27.68 39.42 25.34 38.79 25.33 38.79 18.48 36.97 24.23 39.75 22.04 41.66"/><polygon class="cls-6" points="41.89 44.44 45.34 39.82 46.15 42.87 50.69 44.96 54.56 53.41 52.35 44.05 47.82 40.28 53.54 27.72 46.53 38.1 46.66 39.32 46.08 38.84 46.44 38.35 45.83 38.63 44.79 37.77 45.11 38.97 42.74 40.06 41.33 42.51 41.25 42.53 40.54 41.1 40.22 42.81 39.39 43.03 39.71 43.97 37.22 45.75 39.28 45.56 37.7 48.23 39.47 46.75 38.3 52.94 40.68 46.82 42.83 53.18 41.63 44.35 41.73 44.11 41.89 44.44"/><path class="cls-6" d="M45.4,25.15l-2-.08,0-.19,8.18-6.43L42,23.32,41.12,25,36,24.77l-.14.14-1.13-1.64-4.87.07,5.66,1.91-1.23,1.22,3.25-.38-.76.86-.82-.39-3.73.29,3.4,1.4-3.09,3.49,2,.25,1.81-3.44,2.43,1,0,.1.93.72L34.82,43.78,44,27.61l-1.28-.08.61-2.13Zm-6.25,3.61-.08-.68-2-1,.55-1,3.15-.37Z"/><ellipse class="cls-7" cx="37.4" cy="26.4" rx="18.29" ry="12.93"/><path class="cls-4" d="M14.59,7.91l.26-.13,1.88-1.39.32-.18,0,0c.11-.08.49.28,1.14,1.1l1.84,2,.14.26q.54.46,4,4.23l-.05.13-1.67,1.19c-.06,0-.12,0-.2-.06l-.73-.89,0-.12c-.17-.21-.29-.3-.34-.27l-.57.41.09.19c.58.82.84,1.3.78,1.46l0,0-.32.12L21,16l-.23.11-.2.14-.22.26-.63.45h-.15L18.1,14.33l0,0L14.55,8l.06,0ZM16,8.74l.33.46a1,1,0,0,1,.2.42l.2.21,0,0a.31.31,0,0,1,0-.27l-.64-.9Zm.86,1.55.13.26.14,0,.08.19.13.11.21.51s.09,0,.14.05l.08.19.07-.05.07.11c-.11.07-.11.19,0,.35l-.11.13.19.26.13,0-.2-.27H18l0,0-.15-.2.17-.11-.14-.21v0h-.06l-.1-.14-.07-.24-.35-.36-.07-.1c.08-.06.05-.2-.11-.43A.22.22,0,0,0,16.84,10.29Zm.61-1c1.06,1.81,1.64,2.87,1.76,3.18l.23.18.57-.4-2.49-3Zm.61,2.69.08.19,0,0,.11,0,0,0,0,0-.2-.21Zm.76,1.57.07.1L19,13.5l0,0Zm.31.43.07.1.17-.11-.05-.07Zm.14.2.05.07.17-.12,0-.06Zm0-.58.11.08,0,0-.07-.1Zm.14.26.11.17,0,0-.05-.21-.05-.07,0,0Zm.17-.18.05.07.07-.05,0-.06Zm0,.45.07.1,0,0-.07-.1Zm.05.71.07.1.2-.14-.07-.1Zm.17.24.07.1.3-.22.05.07v.06l0,0h.06l0,0c-.08-.11-.08-.19,0-.24l-.17,0,0,0v.05Zm.51.08.12.17.14-.09-.08-.1Zm.29.41.07.1.08-.11,0,0Zm.12.16,0,.07.12,0-.05-.07Z"/><path class="cls-4" d="M22.77,3,22.9,3l.14.34.08,0L23,3,23,2.89c.05,0,.09,0,.12.08l.05,0h0q0-.12,0-.15l0,0,.1,0,.1-.09a2.24,2.24,0,0,1,1.79.44,5.82,5.82,0,0,1,1.32,2.16l.19.46.16.46-.23.1-.2,0c0,.08,0,.13,0,.15l-.1,0-.15-.34h0a.19.19,0,0,0,.23.12L26.46,6l-.23-.44-.07,0c.11.31.13.48.08.51L26.13,6l0,0,.18.41.05,0,0,0,0,.06-.16.06L26,6.38c-.05,0-.05.13,0,.32h0l-.06,0,0,0-.08.12h-.18l-.13.1-.11,0L25.31,7l-.23,0,0,.06h0L24.89,7l-.19-.45c-.59-1.38-.93-2-1-2l-.28.07c-.2.09-.2.38,0,.89l.2.58.05,0,0,0c.18.52.25.78.21.8L24,7l1,2.28.27.65.21.4,0,.05,0,0c.28.65.53.93.76.83l0,.12.08,0c0-.11,0-.19.16-.25l-.45-1.37.05-.11-.43-.8.06-.16v0l.2,0h0l0-.06.15,0,.19-.17.12-.05c.12-.05.2-.05.22,0l0-.05.11,0,.05,0L27,8.12a.38.38,0,0,1,.19.23l.11,0-.11-.17L27.24,8l.12.08.11.27.08,0-.09-.41.17,0,.08.28.06.15.11,0,0,.26.13.21,0,.17.16.29a2.2,2.2,0,0,1,.23,1.15l.05,0,0,0a1.07,1.07,0,0,1-.12.76l0,0-.05-.11-.11.05.13.3a2.22,2.22,0,0,1-1.2,1.26L27,12.71l-.22-.53-.11,0,0,0,.27.64,0,0c-.06,0-.13,0-.2-.14h0l0,.26a.12.12,0,0,1-.17-.06l0,.05,0,0a2.07,2.07,0,0,1-2.31-.62A11.24,11.24,0,0,1,23,10.26L22.4,8.9l-.1-.36-.12-.17-.09-.32L22,8l0,0,0-.17,0,0,0,0-.26-.61,0,0,0,0,0,0-.12-.17q-.48-1.26-.3-1.35l-.05,0,0,0c0-.26,0-.39,0-.41h0l0,.11.08,0-.11-.27a.36.36,0,0,1,.1-.4c0-.07,0-.18.13-.32,0-.08,0-.21.19-.39l.11,0,.1.14,0,0c-.09-.2,0-.34.13-.41,0-.06.06-.12.24-.19l0,0,0,0,0,0ZM21.4,4.87l0,0,.11,0-.08-.19Zm0,.7,0,0,.08,0-.05-.11Zm0-1.12,0,.07.16.07-.05-.12-.1,0Zm.07.59.05.11h0L21.56,5Zm0,1.32.05.12.07,0v0Zm.15-.91.06.15,0-.1Zm0-1.21.05.12,0,0,0-.11Zm.06,2.56.19.45c.05,0,.06-.07,0-.14l-.18-.33Zm0-1.08.07.15,0-.11Zm0,.66,0,.08,0,0,0-.08ZM21.88,4l.07.15.1,0L22,4Zm.06,1.4,0,0,0,0L22,5.29ZM22,6.74l.05.12.11,0,0-.06,0-.07-.11,0Zm0,.57.07.15h0l-.06-.15Zm.07-1,0,.07,0,0,.12.17.25.6.08,0-.29-.68-.12-.17Zm.06.68.12.26h0L22.27,7l-.06,0Zm.08.81.23.53.1.05-.29-.68Zm.15-.28.14.34.11,0-.14-.34Zm.24.47.24.57.08,0,0-.08,0,0-.07-.28L22.75,8Zm.1-1,0,.08.07,0,0-.07Zm0,.7.21.49.11.05,0-.08,0,0C22.94,7.79,22.83,7.65,22.77,7.67Zm.1-.4.1.23,0,0s.06-.07,0-.14L23,7.24ZM23,7l0,0c.11.19.19.28.24.26L23.11,7ZM23,5.7l0,.08.07,0,0-.07Zm0,1.91v0l.14.21V8c.15.32.26.47.32.44l0-.07-.38-.78Zm.06,2.56,0,.08.08,0,0-.07Zm.06-6.67.15.34.07,0-.14-.34Zm.08,3.85,0,.2.11,0,0-.06-.07-.15Zm.07,2.6,0,.07.1,0,0-.07Zm.09-.44.09.23.08,0,0,0-.12-.18Zm0-1.71.21.49.11.05-.19-.55-.06,0Zm0-1.21.27.64.11,0V7.15C23.63,6.74,23.5,6.56,23.43,6.59ZM23.52,11l.05.11,0,0L23.56,11Zm0-1.75.05.12.11,0-.05-.12Zm.1-1.65.1.23.12.17h0l-.06-.15-.15-.25Zm0,2,.07.15.07,0-.09-.23Zm0,1.2,0,0,.11.05,0-.06,0,0,0,0Zm0-2.34.08.19L24,8.9h0l-.16-.38Zm.11-1,0,0,.39.81,0,0h0l-.08-.19L24.15,8l-.07-.38-.15-.15Zm.14,4,0,.07h0l0-.08Zm0-2.41,0,0,.07,0L24,9Zm0,1.73.07.15,0-.11,0-.07Zm.33-2.37.05.11h0l-.05-.12Zm.08,2.06.14.34.08,0-.11-.26Zm0,.7.05.12,0,0,0-.11Zm.24-6.25,0,.08,0,0,0-.08Zm.2,1.74,0,.08,0,0,0-.07Zm.81,6,.05.11,0,0,0-.11Zm.55-.06.08.19.05-.11,0,0Zm.07-1.1.05.11.08,0-.05-.11Zm0-6.25.14.44.18.32,0-.06h0l0,0,0,0V5.76l-.26-.51Zm.09,3.89.13.3.08,0-.13-.3Zm.38,2.78.13.3,0-.11L26.92,12ZM27,9l.07.16.07,0,0-.07ZM27,11.66l.1.23.09-.09-.06-.15Zm0-.51.16.38.11,0L27.1,11Zm.12-1.61.06.15.12,0,0-.08-.1,0Zm0,1.33v0l.08,0,0,0Zm.09.85.15.25,0,0-.13-.3,0,0Zm.37-3,0,.08,0,0,0-.08Zm.11.89,0,.07h0l0-.08Zm.14,1.59,0,.07.11.05,0-.06v0l-.11,0Z"/><path class="cls-4" d="M28,2.61h0l.1.07v.08l-.12,0ZM28,1.68l.1.06.07.36h0l.1-.15.18.05q-.09-.4,0-.42c.05,0,.11.1.19.34h0c-.05-.24-.05-.37,0-.38h.08l.08.19.12,0,0-.21.12,0,0,.16c.13.31.23.46.3.44,0,.19-.08.3-.14.32l-.1-.06,0-.2-.08,0,.06.32a.29.29,0,0,1-.07.26c-.11,0-.18-.05-.19-.13V2.47l0,0h0l0,.41-.14-.1,0,0-.06-.12-.08,0v0l.06.11V3l.09.07L28.93,3v.29l.08.16h-.08l-.13-.18V3.11l-.12,0,.08.41-.12,0L28.55,3l-.12,0,0,.12-.08,0-.13-.27V2.76h0c.06,0,.1.06.12.19l.12,0,0-.3-.19-.09-.12,0c0,.08,0,.13-.05.14h0v0l.09-.19c-.06,0-.14-.08-.23-.29V2h0C28,1.8,28,1.69,28,1.68Zm0,1.13.08,0,0,.09h0v.21h-.08Zm.07.36.12,0a.18.18,0,0,0,.24.16l.08.19,0,.08-.27.1-.11-.1Zm.2-1.5h0l0,.16h0Zm.94,1.53.1.1v0l-.06.1-.09,0-.07-.16Zm.9-2,.05,0,0,.13.17.43.12,0V1.57l-.15-.34,0-.05.16,0h.17l.27-.09L32.49.75l.08.19.32,1.61v.21a4.41,4.41,0,0,1-1,.11l-.15.07-.05,0a1.59,1.59,0,0,0,0,.83h0a.1.1,0,0,1-.1.14l0,.12h.08v.08l.09.23-.09.36h-.08c-.07-.21-.14-.31-.19-.3h0l0,.08h0l.05,0,.07.37L31.53,5c0-.08-.05-.11-.1-.1s-.09.08-.08.22h0l-.14-.27,0-.2-.08,0c-.05,0-.07.11-.06.31a.1.1,0,0,0-.1.14h0l-.3-.24,0,.3h0l-.07-.11,0,0,0-.12-.1-.11-.07-.32-.12,0,.06.28-.2,0L30,5l.21,0v0c-.08,0-.13.08-.17.2l.12.6c.05.16.11.23.17.22s0-.21,0-.22l-.08-.19,0-.16h0l.1.07,0,.2.08,0,0-.33h0c.05,0,.12.07.21.21h0l0-.36.12,0,0,0v0l.09.06h0l-.09-.28.16,0,0,0v0c.05,0,.12.1.2.34l0,0v0l.17.64,0,.2h0l.07-.09v0l-.12-.4V5.64h.08l.1.27,0,.12h.08l0-.21.1-.14.12.18h0l0-.3.08,0c.09.18.15.27.18.26l0,.34.21.63,0,0,.14.48.24,1.21,0,.37.12.39L33.24,11l-.1.14-2,.4L31,11.45l0,0-.13-.47-.72-3.58-.05-.45-.08-.19,0,0v0L30,6.5a1.32,1.32,0,0,0,0-.75,1.52,1.52,0,0,1-.27-.53V5.09l-.28-1.62h.08l.07.11,0,.05v0l.18.25,0,.13h.08l0-.12V3.7l.08,0,.09.23h.08V3.65c0-.06-.1-.07-.26,0V3.54h0l.05-.13-.21-.25.08,0v0l.05,0h.08L30,3l.27.08.24-.26h.17l0-.12-.09-.07-.11.11-.18,0,0,0h0l-.13,0-.06.1h0l-.07-.15,0,0-.08,0,0-.24c-.09-.23-.17-.34-.23-.33L29.6,2c-.17,0-.28-.14-.36-.51l.08,0,.1.06,0,.21.08,0V1.42l.08,0,.13.23.12,0,0-.17h0c.05,0,.11.11.16.38l.06-.09L30,1.45c.05,0,.07-.07.05-.17l0-.05ZM29.45,2.9l.1.06V3l0,0,.05,0,0,.13v.21h0l-.14-.09,0-.26L29.38,3l0,0Zm.48,1.58,0,.12.12,0v0L30,4.47Zm.27-1.19.06.12h0l0-.12Zm.08.2,0,.13.07.11h0c0-.11,0-.17.05-.18l.13.06v0C30.53,3.51,30.45,3.49,30.28,3.49Zm.08,2.7,0,.12h0l0-.12Zm.22.92.07.32.08,0-.07-.32Zm0-3.9,0,.12h.08v0l-.05.14a.67.67,0,0,1,.15.34h0l0-.29-.12-.39Zm.32.15,0,.12.14.1.07-.1,0-.12Zm0,5.27v.08l.09,0,0-.08ZM31,5l.12,0V5l-.12,0Zm0,1.67,0,.16.08,0V6.75Zm.13-.61.08.4.08,0,0-.2-.08-.19Zm0-2.14,0,.16h0l0-.16Zm0,.2,0,.2.07-.1v0Zm0-.72.12,0,0-.08h0Zm.09-.81,0,.12h0l0-.12Zm0,2.71h0l.09.07v.21h-.08l0,0,0,0Zm.23,1.59,0,.12.08,0,0-.12Zm0-1.6h0v.08h0Zm0-2.68,0,.08h0l0-.08Zm.2,2.26h0L32,5l0,.5-.09,0c0-.11-.05-.16-.11-.15C31.79,5.05,31.8,4.9,31.85,4.89Zm0,1,0,.13.05,0h0l0,0-.06-.11Zm.16.6,0,0v0l.1.06h0l0-.09Zm.17,1.89,0,.24.15.1V8.58C32.36,8.43,32.29,8.36,32.22,8.37Z"/><path class="cls-4" d="M34.57.17l.57,0,.17,0,.16,0,.09.12,0,.45-.12.13L35.29.67V.75h0l.06.41,0,.62h0l.12-.13V1.32L35.4,1.2V1l.08-.08.13.32,0,.69.12,0,0-.29,0-.12.07-.25h0l.1.24v0h-.08v.17l.12,0,0-.33-.05,0v0L36,1,35.93.43,36,.18l.17.08c0-.11,0-.17.08-.17l.32,0V.15h0l0,.05V.44l.12.77,0,.29.07.62.17,3.48-.07.33V6c0,.14,0,.2.1.2l0,0,0,.29V7.57l.06.32,0,.21.05.24,0,.17.07.65.06,1.07-.12.13h-.17c-.27,0-.41,0-.41-.06l-.24.1-.33,0,0,.05h0l0,0-.49.06-.25,0c-.05,0-.1-.11-.14-.33l0-.16-.08-.86,0-.49h0l.13.07,0,0v0L35,8.32l0,0h-.12v0c0-.49,0-.78.13-.87V7.38a.49.49,0,0,1-.14-.28V6.94l0-.37-.06-.41V6.08l0-.33L34.7,5.3,34.63,4l-.07-.66,0,0v0l-.07-.57,0-.49,0-.5,0,0,0,0h.05c0,.08,0,.12.08.12h0l0-.25-.05-.16,0-.13,0,0h-.09l0,.33h0l0-.12,0-.21L34.44.83l.05-.45,0-.12Zm.11,2.38v.08l.08.08V2.54ZM34.74.37V.49h.08l0-.12Zm0,.57v.12l.08.08,0-.16,0,0Zm.1,1.23,0,.49H35l0-.29,0-.2ZM35,6.27v.12h.08V6.26Zm0,3.57V10h0V9.84ZM35,.52v0l0,.12,0,.25h.08l0-.41Zm.11,7.34,0,.21,0,.33c0,.2,0,.31.13.32l0-.86Zm0-5.5v0h0l.08-.09v0h0Zm0-.53v.24h.09V2l0-.21Zm.12,7.34v.12h0V9.17Zm0-8.91,0,.37h0l0-.37Zm0,9.57,0,.37s.09-.12.1-.34l0,0Zm.13-1.41,0,.37.08-.08V8.5Zm0,.62,0,.37c0,.05.12.09.34.1l0,0v.29H36l-.05-.12,0-.2V9.34l-.09-.07h-.08v.08s-.12-.1-.22-.32Zm.25-6.75v.12l.09.08v-.2Zm.12,1.64q.06.57.15.57l0-.62Zm0,2.63v.2h.08V6.55ZM36,4.87l0,.57.08.08.08-.17A.72.72,0,0,1,36,4.9l0,0Zm0-3V2h0V1.83Zm.1,2V4l.09.12,0,.57.09.08,0-.82-.09-.08ZM36.14.34l0,.21,0,0h0V.34Zm0,6.08,0,0h0V6.33Zm0-5.67.08.08V.67Zm.07.61v.13h0V1.36Zm.06,3.82V5.3h0V5.18Zm0,4.06v.09h.12V9.16h0Zm0-3v.12l.08-.09,0,0Zm.06-3,0,.28v.37c.11,0,.16-.15.15-.46l-.1-.2Zm.09,4.34,0,.13,0,0h.08V7.71Zm.18-1.48v.08h0V6.15Z"/><path class="cls-4" d="M38.76.67l.37,0,.2.07v0l.12.09-.05,0v0l.05.25,0,.37.07.09V.8l.13,0,0,0h.41l.9.1c.08,0,.11.07.1.18l0,.95L41,2.29a.67.67,0,0,1,0,.41h0l0,0v.78l-.06.12a9.73,9.73,0,0,1,0,2.51l0,.13,0,0V7.4a9.42,9.42,0,0,0,.43-2l.06-.12,0,0,0,0,0-.2a21.14,21.14,0,0,1,.68-3.43l0-.05V1.42l.13-.36.12,0,.11.09h0V1.1l.74.08,0,.05,0,0,.2,0,0,.05,0,0,.49.06,0,0h0l0,0,.07.13-.06.2.09.26,0,.2q-.15,1.07-.24,1l0,.05v0l-.48,2h0q-1.35,5.67-1.4,6.12l-.13.06-1.14-.13-.32-.12-.34.05H40.2l-.36-.08h-.37L38.86,11v-.66l.06-.2,0-.12h0A10.54,10.54,0,0,1,38.83,7l.06-.12,0-.25,0-.25q-.18,0-.12-2.94l.1-.11-.13-.35,0,0h0l.14-.19,0-.2C38.75,2.49,38.7,1.88,38.76.67Zm.17,5.1,0,.16h0l0-.17ZM39,4.41l0,.45H39l0-.17.1-.15,0-.13ZM39.2,3l0,0v0c0,.08-.09.11-.26.09V3.3H39l.17,0,.12.06.1-.2,0-.25Zm-.15-.1V3h0V2.9Zm.11-1.39,0,.37L39.2,2l0-.37Zm0-.66v0l.07.17h0l.06-.2v0h0Zm0,3.14v.08l.12,0V4Zm.26-2.24,0,.12h0l0-.13Zm.06,2.32-.05.12,0,0h.09l0-.12,0,0Zm.06-.86,0,.16.12,0,0-.17Zm.28.11,0,0v0l0,0h.08v0Zm.15.06v.08l.13,0,0-.21Zm0,3.47v.08l.12,0V6.85Zm.26-5.54v.12h.08V1.31Zm.41,5.45-.05,0,0,.13h0l.06-.12,0,0Zm.71.66h.08V7.34ZM42,6l0,0h-.08L41.75,6v.25h0l.06-.16h.08l0,.13,0,0,.19.18v0l0,0,0,0h0l.05,0v0l0,0v0c0-.13.06-.2.14-.19v0l-.07-.09H42.1Q42,5.83,42,6Zm0,2.06v.08h0V8.06Zm.43-2.34,0,.12h0l0-.11Zm.06,3.76v0l.07.09,0-.12Zm.47-7.67,0,.13H43l0-.13Zm.3-.13,0,.25h.08l0-.17Zm.17,1.06v.12h.08V2.73Zm0-1.2,0,.41.11.06.06-.49ZM43.62,3V3l.07.09,0-.12Zm.13-1.51,0,.12h.05V1.49Z"/><path class="cls-4" d="M46.72,1.24l.55.16.15.08h.17l0,.14-.12.43-.15.09L47.24,2l0,.08,0,0-.07.41L46.94,3h0l.15-.08.09-.32,0-.14,0-.2.1,0,0,.35-.19.67.11.07.12-.26V2.93l.15-.22h0V3L47.5,3l0,.16.11.07.13-.3,0-.05v0l.13-.31.13-.6.15-.22.13.13c0-.11.07-.15.13-.14l.31.09,0,.08h0l-.05,0-.07.24-.14.77-.11.27-.13.6-1,3.35L47,7.43v0c0,.14,0,.21,0,.22l0,0L47,8l0,.08L46.63,9l-.05.33-.1.19,0,.24-.08.15-.14.64-.29,1-.16.08-.15,0c-.27-.08-.39-.14-.38-.19H45l-.31-.13,0,0h0l0-.05-.48-.09-.24-.07c-.05,0-.06-.13,0-.35l.09-.15.2-.84.13-.47h0l.1.12,0,0v0l0-.29,0,0-.12,0V9c.13-.47.27-.73.39-.78l0-.08a.44.44,0,0,1,0-.31l0-.15.14-.35L45,7l0-.08.13-.31.08-.44.36-1.26.14-.65.05,0,0,0,.11-.57L46,3.13l.17-.46,0,0,.05,0h0c0,.08,0,.13,0,.14h0l.11-.22V2.36l.08-.11,0,0-.08,0-.13.3h0V2.34l.1-.19.05-.32.2-.41V1.29ZM44,10.54l0,.12h0l0-.12Zm.28.08-.1.35s.12-.08.2-.28l0,0Zm.18-.63,0,.11,0,0,0-.12Zm.32-1.28-.1.19-.09.31c0,.2,0,.32,0,.35l.24-.82Zm-.09,1.21-.1.36c0,.05.08.12.28.21l0,0-.08.27.08,0v-.13l.1-.19,0-.16,0-.1-.08,0,0,.08s-.08-.14-.1-.37Zm.17-.59-.1.36.1-.06,0-.2Zm.28-2.18,0,.12.08,0,0-.12Zm.27,3.24,0,.07.12,0,0-.16h0Zm.43-2.7-.06.2.08,0,.06-.2Zm.25,1.23L46,9l0,.05.08,0,0-.08Zm0-5.39,0,.08.06.1,0-.16Zm.1,4.12,0,0h0l0-.11Zm.19-4.42-.13.47.12,0,.12-.27V3.26Zm.16,2.9-.16.55.06.11.12-.14c0-.07,0-.22,0-.46l0-.05Zm-.11,1.42,0,.12.1-.06,0-.05Zm.13-4v0h0l.1-.06,0,0h0Zm.16,1.7c-.09.38-.1.57,0,.59l.17-.59Zm0-3.16,0,.11.06.11.08-.15,0,0Zm.07,1-.07.24.08,0v0l0-.21Zm0,3.54,0,.11,0,0,0-.12Zm0,1,0,.08h0l0-.08Zm.07-6.08,0,.12.08,0V1.5ZM47,5.19l0,.12,0,.14L46.81,6l.06.1.22-.78L47,5.21Zm.09-3.47v.17l-.11.23.08,0,.11-.4Zm.06,1.89,0,.12.06.1.06-.19Zm.31,1.16L47.3,5l-.1.36c.1,0,.2-.1.28-.39l0-.22Zm-.06-3.22-.11.36h0l.1-.36Zm.15,1.71,0,.12h0l0-.12Zm.36-.37,0,.12h0l0-.12Zm.13-.6,0,.1.05-.16Zm.15-.38-.1.18,0,.05h0l.07-.23Z"/><path class="cls-4" d="M52.67,3.8l0,.05L52.6,4l-.11.44.11.05.12-.17.08-.37.05,0L53,4l.13.11.28.08,1.46.66,0,.21L54.14,6.5,54,6.67a4.24,4.24,0,0,1-.86-.48l-.17,0,0-.06c-.11.05-.26.28-.45.7h0a.11.11,0,0,1-.17.06l0,.12.08,0,0,.07-.06.25L52,7.57l-.07,0c.06-.21.07-.32,0-.35h0l0,.07,0,0,0,.06-.15.33-.11,0c0-.07,0-.12,0-.14s-.13,0-.2.13h0l.05-.3.08-.19-.07,0s-.12,0-.23.21a.12.12,0,0,0-.17.06h0L50.89,7l-.19.23,0,0V7.08l.06,0L50.78,7l0-.15.13-.29-.11,0-.12.26-.19-.09-.08.19.15.16,0,0c-.07,0-.15,0-.25.07L50,7.64c-.06.15-.06.25,0,.27s.12-.17.16-.15l0-.2.07-.15,0,0,0,.1-.09.19.08,0,.17-.28,0,0s.06.12.05.29l0,0,.19-.32.12,0-.06,0,0,0,0,.11h0l.08-.27.15.06-.05,0,0,0s0,.15,0,.39L51,8l0,0-.24.61-.08.19h0l.11,0v0L51,8.36l.14-.21.08,0-.08.28-.05.11.07,0,.09-.19.16-.06v.22l0,0,.19-.23.07,0c0,.2,0,.3,0,.32L51.48,9l-.2.63-.06,0-.16.47-.51,1.12-.19.32-.14.39-.73,1.6-.16.06-1.83-.83-.08-.13.06,0,.16-.46,1.52-3.32.22-.4,0-.2,0,0,0,0,0-.13a1.35,1.35,0,0,0,.45-.6,1.8,1.8,0,0,1,.09-.59l.09-.1.72-1.47.07,0v.13l-.06,0v.35l-.09.1.07,0,.06-.11L51,5.66l.07,0L51,5.93l.07,0,.13-.17v0s0-.11-.19-.18l0-.07,0,0,.12-.08,0-.33.08,0,0,0,0,0,.07,0,.17,0,.17.21L52,5.35l.13.1,0-.11,0-.11-.15,0-.11-.14-.06,0h0L51.7,5l-.11,0,0,0,0-.17,0,0-.07,0,.1-.22c.06-.25.06-.38,0-.41l.14-.11c-.15-.07-.14-.28,0-.63l.07,0,0,.1-.08.19.07,0,.14-.21.08,0,0,.26.11,0,.07-.15,0,0s0,.16-.1.41l.11,0,.08-.28s.1,0,.15-.12l.05,0ZM49,10.28l0,.08.07,0,0-.07Zm.61-1.43-.14.3.08,0,.13-.3Zm.27-4.66.11,0a.19.19,0,0,0,.11.28l-.05.2,0,.07-.27-.08,0-.14ZM50,8l-.05.11,0,0L50,8ZM50,3.86l.07,0,0,.08h0L50,4.15l-.07,0Zm.08-.19,0,0,0,.11,0,.07L50,3.82Zm.07,7.16-.1.22.06.16.09-.09C50.27,11,50.25,10.86,50.18,10.83Zm0-2.08-.06.15.07,0,0-.08ZM50.71,3l0,.11-.15.34h0l.17-.06.11.15c.12-.25.2-.37.25-.34s0,.15,0,.38l0,0c.11-.22.18-.32.23-.3l.08,0-.05.21.11,0,.08-.19.12.05-.07.15c-.08.32-.09.5,0,.53q-.21.2-.3.18l0-.11L51.37,4l-.07,0-.14.3a.28.28,0,0,1-.21.17c-.09-.07-.12-.14-.09-.22L51,4.1l0-.06h0l-.2.35-.06-.16,0,0V4.07l-.07,0,0,0V4.2l-.14.21,0,.11.17,0,0,0-.14.2,0,.17-.08,0,0-.22.1-.14-.11-.05-.17.38-.11-.05.23-.53-.11-.05-.05.11-.07,0,0-.3L50.25,4l0,0c.05,0,0,.09,0,.22l.11,0L50.58,4l-.1-.18-.11,0c0,.07-.07.1-.12.08l0,0,0,0,.18-.1c-.06,0-.06-.14,0-.36l.11-.13,0,0C50.58,3,50.66,2.93,50.71,3Zm-.06,5.38-.17.38.07,0,.09-.19,0-.2Zm-.12.94-.05.11.08,0,0-.11Zm.08-2.94,0,.11.11.06,0,0,0-.11Zm.17-1.45,0,.14,0,0-.1,0-.08,0,0-.17Zm.14-1.79,0,0-.06.15,0,0Zm.22,1.68,0,.11,0,0,0,0,0,0-.05.11L51,5.27h0l-.06-.17L51,4.9V4.78l.05,0Zm0,4.42,0,0,0,0,0,.11,0,0,0-.08Zm0-1.79.11,0v0l-.11-.05Zm.11.45,0,0,0,.11-.12.17-.08,0,.06,0,0-.05Zm.1.77-.09.09,0,.06h0l.06,0V8.63Zm.1-2.89-.09.1V6h0c0-.1.09-.13.14-.11l.08.12V6S51.6,5.83,51.47,5.73Zm0,2.26,0,0,0,.07,0,0Zm0-2.46,0,.13h0l.05-.11Zm.41,2.26,0,0L52,8l-.32.4-.07,0c0-.1,0-.16,0-.18Q51.86,7.76,51.93,7.79Zm0-2.09,0,.11.07,0v0L51.77,6a.57.57,0,0,1-.08.37l0,0,.16-.25L52,5.71Zm0,1.1L51.75,7l.11,0,0,0Zm.08-.18-.06.14,0,0L52,6.63ZM52.07,6l0,.12.06.16.11,0,.05-.11Zm.21.24.11,0,0-.08h0Zm.54-.61,0,.11,0,0,0-.11Zm.27.21,0,.07,0,0,0-.07Z"/><path class="cls-4" d="M57.06,5.82l0,0c.33.25.48.39.45.43l.32.12.83.61A36.25,36.25,0,0,1,57,10.21v.06l0,0,0,0q.16-.18.21-.15v-.06l0,0a14.86,14.86,0,0,1,2.47-2.36l1.56,1.13,0,0c-1.39,1.22-2.32,2-2.79,2.33-.09-.07-.15-.08-.19,0l0,.24-2.11,1.86-.74,1-.25.28-.21.35-.65.9c-.21.29-.34.41-.41.36l-1.49-1.08,0-.17.38-.53.23-.25.23-.39L54,12.62a.5.5,0,0,1,.27-.16l1-2.42.11-.08.17-.58.2-.21L55.87,9a.22.22,0,0,0,0-.32l.44-1.09h.05l0,0A9.47,9.47,0,0,1,57.06,5.82Zm-3.77,8.5-.1.14,0,0h.06l0,0,0-.13Zm.19.15-.07.1,0,.11.07.05.07-.1,0-.11Zm.21.2,0,0,0,.12,0,0,.07-.1Zm1.15-3.27-.09.13,0,0,.11,0v-.12Zm.81-1.19-.23.19.07.1,0,0h-.06l0,.12,0,0,.24-.33V10.3l0,0h.06Zm-.16,1.21-.09.13.06,0,.1-.14Zm0-1.35,0,0,.06.05,0,0Zm.5.71-.19.27.06,0,.2-.27ZM56.16,9l-.22.3,0,.11h0l.12-.16V9.14l0,0,0,0,0-.12Zm.18.44-.07-.11h-.06l-.13.26.23.17.11,0,0-.07.09-.19,0,0Zm.13,2.06-.15.2.07.05.15-.2Zm.21-1.82-.11.07,0,.13.1.07,0,0,.09-.19ZM56.83,11l-.24.34.07,0,.15-.15.07-.1,0-.11Zm.11-1.13h-.06l0,0,0,.12h.06l0,0Zm.12-2.75L57,7.15l0,0,.05-.07Zm.2.14,0,.07.07,0,0-.07Zm0,3.15,0,.06,0,0,0-.07Zm.07-.16,0,.07.06.05,0-.07Zm.11,1.25-.08.09,0,0,.07-.1Zm.22-.8,0,.06.07,0,0-.07Zm.14.15,0,.12.07.05.11-.07v-.06l0,0h0Z"/></g></g></svg>