<svg xmlns="http://www.w3.org/2000/svg" xmlns:xlink="http://www.w3.org/1999/xlink" viewBox="0 0 74.8 74.8"><defs><style>.cls-1{opacity:0;}.cls-2{fill:#fff;}.cls-3{fill:url(#radial-gradient);}.cls-4{fill:#ff7dff;}.cls-5{fill:url(#radial-gradient-2);}.cls-6{fill:url(#linear-gradient);}</style><radialGradient id="radial-gradient" cx="37.4" cy="62.33" r="19.47" gradientTransform="translate(0 54) scale(1 0.13)" gradientUnits="userSpaceOnUse"><stop offset="0"/><stop offset="0.32" stop-color="#231f20" stop-opacity="0.6"/><stop offset="1" stop-opacity="0"/></radialGradient><radialGradient id="radial-gradient-2" cx="37.4" cy="37.4" r="24.93" gradientUnits="userSpaceOnUse"><stop offset="0.64" stop-opacity="0"/><stop offset="0.95" stop-color="#231f20" stop-opacity="0.29"/><stop offset="1" stop-opacity="0.5"/></radialGradient><linearGradient id="linear-gradient" x1="37.4" y1="39.33" x2="37.4" y2="13.47" gradientUnits="userSpaceOnUse"><stop offset="0" stop-color="#fff" stop-opacity="0"/><stop offset="1" stop-color="#fff" stop-opacity="0.7"/></linearGradient></defs><title>orb-birthdays-wtext</title><g id="Layer_2" data-name="Layer 2"><g id="Layer_1-2" data-name="Layer 1"><g id="orb-birthdays-wtext"><g class="cls-1"><circle class="cls-2" cx="37.4" cy="37.4" r="37.4"/></g><ellipse class="cls-3" cx="37.4" cy="62.33" rx="21.95" ry="3.59"/><circle class="cls-4" cx="37.4" cy="37.4" r="24.93"/><path class="cls-2" d="M48.7,40.92a22.82,22.82,0,0,0-2.77,9.2.69.69,0,0,1-.64.67c-1.21.26-2.42.57-3.65.73a33.26,33.26,0,0,1-9.76,0,1.76,1.76,0,0,1-.33-.07,10.34,10.34,0,0,1-1.78-.6c-.67-.35-.3-1-.38-1.56a18.16,18.16,0,0,0-2.7-7l-.25-.42C33.94,43.33,41.37,43.77,48.7,40.92ZM37.64,44.18a13.25,13.25,0,0,0,.15,5.74A12,12,0,0,0,37.64,44.18Zm7.13-.64a8.26,8.26,0,0,0-1.24,6Zm-11.2.58,1.16,5.75A7.5,7.5,0,0,0,33.57,44.12Zm-1.69,5.46a7.7,7.7,0,0,0-1.18-5.8Zm10.44-5.72a8.22,8.22,0,0,0-1.22,6Z"/><path class="cls-2" d="M31.26,41.74c-1.05-.18-2.35-.36-3.63-.63-.78-.16-1.28-1.41-1-2.29a2.29,2.29,0,0,1,1.81-1.59c1.14-.25,2.32-.37,3.48-.51,2.79-.34,5.6-.59,8.37-1a13.44,13.44,0,0,0,5.59-2,.71.71,0,0,1,.6-.05,5.08,5.08,0,0,1,1.39,1c.75,1,.84,1.66-.25,2.49a16.31,16.31,0,0,1-4.75,2.34A50.17,50.17,0,0,1,31.26,41.74Z"/><path class="cls-2" d="M35.56,24.14a20.09,20.09,0,0,1,5.33,2.94,3.69,3.69,0,0,1,1.47,2.85.87.87,0,0,1-.73,1,27.19,27.19,0,0,1-3.22.71c-1.77.21-3.56.33-5.35.41a1.23,1.23,0,0,1-1.4-1.58A2.22,2.22,0,0,1,33,28.91a6.65,6.65,0,0,1,1.31-.49c1.71-.45,2.37-1.47,1.85-3A11.11,11.11,0,0,0,35.56,24.14Z"/><path class="cls-2" d="M29.05,36.4a1.58,1.58,0,0,1,.59-2.55,8.55,8.55,0,0,1,2.75-.79c2.51-.31,5-.47,7.58-.77a7.85,7.85,0,0,0,4-1.4.59.59,0,0,1,.13,0c.72.45,1.48.94,1.37,1.83a2.07,2.07,0,0,1-1.82,1.55c-1.63.35-3.29.6-4.95.8-2.65.32-5.32.55-8,.86A10.18,10.18,0,0,0,29.05,36.4Z"/><path class="cls-2" d="M36.47,42.06a31,31,0,0,0,12-4.62,2.42,2.42,0,0,1-1.64,3.26c-2.24.5-4.52.85-6.79,1.18C38.88,42,37.66,42,36.47,42.06Z"/><path class="cls-4" d="M1,31.83l0-.16.09-.23v-.21l0,0,.45.1.49.06v0L2,31.25l-.82-.09,0-.05L1.43,30l.12-.35,0-.29a2.42,2.42,0,0,1,.89-1.41,1.82,1.82,0,0,1,1.1-.26l0,0,.12,0,0,.12L4,27.8v-.08l-.2,0c0-.08.15-.09.35-.05l.56.12h.21v0H5a2,2,0,0,1,1.06.52H5.94l-.28-.1,0,0v.08l.44.09c.16,0,.25.17.29.4l-.1.06v0c.14,0,.19.1.17.21l.12,0c0-.08.09-.13.2-.16l0,0,0-.08a1.33,1.33,0,0,1,1.24-.49l.75,0,0,.05h.21l.52.11c1.33.29,2.09.68,2.27,1.16a.47.47,0,0,0,.06.31l0,.08h-.17v0c.21.05.26.34.15.88l-.05.24-.11.1,0,.18-.11.1,0,.26-.08.19-.06.45-.11.35,0,.41-.06.28-.14.47,0,0-.14.06-2.85-.61-.57-.08,0,0h0L7,33.36a1.2,1.2,0,0,1-.65-.27l0,0-.13,0v0l-1.3-.41-.5,0-.08,0v0l-.49-.06-1.32-.29-.37,0-.27-.1-.41-.05-.28-.1,0,0L1,32v0l.05,0v0ZM1.38,31l.12,0-.07-.09h0ZM2,28.74h0v-.08H2Zm.09,3.46H2.2l0-.08H2.14Zm.18-4,.08,0,0-.08-.08,0Zm0,.51H2.4v-.08H2.33Zm.16,0,.28.06,0-.08-.29-.06ZM3,32l.17,0V32H3.05Zm0-.25.12,0L3,31.72H3ZM3,28.9l.12,0,.1-.07-.12,0Zm.14,1.29,0,0,2.17.46.1-.06v-.08l0,0v0l.15-.09v0L5.32,30l-.44-.14-.8-.17c-.51-.11-.8,0-.86.32Zm.06,1.9h0L3.33,32l-.12,0Zm0-2.89.76.17c0-.07-.07-.13-.25-.18l-.33,0-.12-.07,0,0Zm.07,2.62.16,0v-.08H3.39Zm.08-2.33.12,0v0l-.12,0Zm.05-1.25h0l0-.08h0Zm0,2.86h.08v0H3.46ZM3.61,29l.56.12,0-.08L4,29l-.25,0-.11-.06,0,0Zm.07,2.41h0l0-.08h0Zm0-.8.08,0,0-.08-.08,0Zm.39-1,1.56.34.1-.07-.39-.12-.48-.1-.07-.1.15-.1-.24-.05v0l.08,0,0,.12-.58,0-.08,0Zm.13,2.92.28.06v-.08l-.29,0Zm0-1.29.12,0,0-.09h0Zm0-2.09.08,0,0-.08-.08,0Zm.47-1.2.12,0,.1-.06,0-.05H4.74Zm.1,4.42.08,0v0l-.08,0Zm.07-.53.28.06,0-.08-.28-.06Zm0-2.84L5,29l0-.08-.12,0Zm.33-.73.28.06v-.08l-.28-.06Zm0,2.65.09-.07H5.27Zm.07-2.13.36.08.1-.06-.23-.09H5.35Zm.51,1.16.24.05,0-.08H5.85Zm.09-.23.16,0v0L6,29.6Zm0,1.55.33.07.09-.06L6,31.19Zm0,.51H6l.1-.07-.12,0Zm.2-2.31.08,0,0-.08-.08,0Zm.61.89.32.07.1-.07-.11-.06-.05,0H7l-.15-.07H6.7Zm.53.87.29,0,2.21.43.11-.11c-.07,0-.08-.14-.05-.38l.39,0,.11.06,0-.08L10,31H9.84a3.36,3.36,0,0,0-.91-.28l-.28-.06-.15-.07H8.25l0-.05-.05,0-.12,0-.26-.14c-.48,0-.75.16-.8.42H7c0,.16.08.27.35.33Zm.76.37.12,0v-.08l-.12,0Zm1,2,.12,0,0-.08-.12,0ZM9.61,29l.12,0-.06-.09-.05,0Zm.32.07H10L10,29H10Zm.11.27.08,0,0-.08-.08,0Zm.25,1.4.16,0v-.08l-.08,0Zm.16-1.56.1-.07-.16,0Zm0,.29h0l.53.07-.06-.1-.4-.09-.1.07Zm.44,1.85.1-.06-.16,0Zm0-.29L11,31v0l-.08,0ZM11,30l.11.07h.13l-.13-.16Zm.05-.24.1.11.15-.1c0-.16,0-.25-.07-.26l-.12,0v.25Zm.23,1.86.12,0v0l-.12,0Z"/><path class="cls-4" d="M2.37,24.77l.21-.54.1-.13,0-.17.14,0,.42.16.07.16-.21.09.08,0,0,0,.4.11.57.23,0,0-.07-.16-.31-.12-.14,0-.19-.07,0-.11h.35l.65.25.08-.1-.25-.14H4.11l-.2-.17,0,0h.29l0,.08.16.06.08-.1L4.14,24l-.06,0,0,0-.29-.16-.59-.18L3,23.46l.14-.12C3,23.3,3,23.25,3,23.2l.12-.3.08,0v0l0,.05.23.09.75.21.25.14.59.19,3.25,1.27.27.19,0,0c.13,0,.21,0,.22,0l0,.05.28.07.07,0,.91.39.32.08.17.12.25.05.14.1.62.2,1,.38.06.16-.06.16c-.09.25-.17.37-.22.35v.26l-.16.29,0,.05v0l-.06,0-.14.48-.09.23c0,.05-.13,0-.35,0l-.14-.1-.81-.27L10.18,28v0l.13-.08,0-.06h0L10,27.74l0,.05,0,.12,0,0c-.46-.18-.7-.33-.74-.46l-.08,0a.48.48,0,0,1-.31,0l-.15-.06-.33-.17-.4-.12-.07,0-.3-.15-.43-.13-1.22-.48-.63-.2,0-.05,0,0-.55-.17-.46-.18-.44-.21-.05,0,0-.05,0,0c.07,0,.12,0,.14,0l0,0-.22-.13-.17,0-.1-.08-.05,0,0,.08.29.15v0H3.42l-.18-.12-.32-.08-.39-.24H2.4Zm.25-.08.12,0,0-.08H2.64Zm.12-.53.34.14,0,0-.35-.13Zm.14.32,0,0h.13l.21.12,0-.07-.38-.15Zm.28.42.11.05.11-.05-.14-.1-.05,0Zm0-1.49.17.11.06,0v0l-.23-.09Zm.36.18.11,0-.15-.06Zm.58,1.33.23.09,0-.07,0,0-.21,0Zm0-1.14.12,0v0l-.11-.05Zm.2,1.53.45.18.05-.12-.25-.14-.21,0Zm.13-1.14.12,0v0l-.11,0Zm.15,1h0l0,0L4.6,25l0,0,0,0Zm0,.48.07,0,.11-.05-.16-.06Zm.18-1,.11,0,.11,0-.19-.07ZM6,24.41l.25.14.34.13c0-.1-.08-.2-.36-.31H6Zm.36.75c.36.13.56.16.58.1L6.32,25Zm0-.25.12,0,.14,0,.54.21.1-.05-.76-.3-.11,0Zm.9.52.53.21.11-.05-.12-.13a.74.74,0,0,1-.45-.09l-.06,0Zm.41-.15.11,0,0,0-.12,0Zm.48,1.6.11,0,0-.07-.11-.05Zm.51-1.21.12,0-.05-.11,0,0Zm.08.25.05,0,0,0-.12,0Zm0-.58.07,0,0,0-.08,0Zm0,.9.19.07,0-.08-.19-.07Zm.92,1.15.17.11.31.12c.19.07.3.07.35,0l-.8-.31ZM10,26.1l.1.09,0,0,0-.07-.07,0Zm.3,1.27.34.13,0-.11-.19-.07Zm.57.22.35.13c.05,0,.13-.06.23-.26l0,0,.27.1,0-.07h-.13l-.17-.11-.16-.06-.1.05,0,.07.07,0s-.14.07-.38.07Zm0,.23.12.05v0l-.11,0Zm.49-.91.08,0,0-.11-.15-.06,0,0Zm0,1.42.12.05v0l-.11-.05Zm.1-.27.35.14c0-.05-.07-.13-.26-.24l-.06,0Z"/><path class="cls-4" d="M5,20.78H5l0,0,0-.13.17,0,.06-.11s0-.09-.07-.13l0-.07.18.1,0,0v-.15l0,0,.61.26,0,0-.19-.16,0-.07h.19l0,0,.37.27.2,0-.22-.18-.34-.15L6.32,20H6.27l-.11-.06,0-.07-.1-.06-.17,0c.07,0,.09.09.06.14L5.8,20l0,0,0,.06,0,0-.29-.07-.07.2H5.36l0,0,0-.07,0,0,.06,0,.1-.17.11-.27.29.07,0,0-.17-.2.17-.28c.1,0,.17,0,.2,0l0-.12.23-.05,0,0-.07,0,0-.07.1.06.33.09.28.17.06-.11c-.14-.08-.19-.14-.17-.19l.21-.35v-.15c.23.1.35.13.38.08l0-.13a.91.91,0,0,1,.42.1s0-.1-.1-.15l0-.06,0,0c0-.05.1,0,.22,0l.06-.11L7.92,18l-.06,0,0,0,0-.06,0,0-.47-.18,0,0c.09-.16.58-.12,1.47.1l.14.08,0,.16.21.13.05-.08L9,18,9,18l.2.07.35.21.06,0v.06l0,0c.92.59,1.34.95,1.27,1.08l0,0-.22-.12,0,0c.33.19.45.37.35.54L11,20.3l0,0a1.48,1.48,0,0,1,1.71-.24l.31.28.13,0-.09.23.06,0c.08-.14.33-.08.76.17l1,.6.16,0,.12.12.49.29.24.09c.1.1.13.17.11.21l-.11,0c.07,0,.09.09.06.13l-.05,0,0,.22-.11.12,0,.16-.06,0-.28-.17,0,0v.06l0,0,.2.06,0,0v.05l0,0-.1.09-.11.27,0,0,0,0-.19.32c-.08.14-.21.16-.37.07l-.16-.14-.34-.15-.14-.09,0-.11.06-.1.14-.07,0-.06-.1-.06s-.12,0-.22.21a2.27,2.27,0,0,1-.68-.3L11.89,22l0-.06c-.52-.24-.84-.27-.95-.08l0,0v.05l-.12.22,2.86,1.67s0,.09,0,.19l.07,0a.47.47,0,0,1,.4,0l.16.14.23.09.18.11,0,.16-.08.15-.14.15-.09.24-.1.17-.19.08,0,.07.07,0,0,.07-.07,0s0-.07,0-.14l0-.06,0,0h-.06l0,.06-.13.21.18.11,0,.11H14l-.07.2-.16.28c0,.05-.17,0-.42-.1l-.08-.1-.17,0-.38-.32-.57-.24c-.25-.17-.37-.27-.35-.3L11,24.78l0,0h0l0,0v0h-.06l-.43-.25V24.4h-.06l-.53-.31-.37-.17A4,4,0,0,1,8.41,23l-.05,0,0,0,.07-.1c.07,0,.12,0,.14,0l-.15-.14.14-.16,0-.05-.07,0-.11,0,0,.12-.14-.08c-.05,0-.05-.08,0-.15L8,22.38c-.06.1-.22.09-.46,0H7.52l0,0,0,.06.05,0,0,0a.41.41,0,0,0,.2.22l-.08.14-1.22-.67-.09-.1L6.19,22,5.06,21.3l-.16-.14.19-.08C5,20.94,5,20.84,5,20.78Zm.16,0,0-.07-.07,0Zm0,.33.14.08,0,0-.14-.09Zm.43-.08.46.27,0-.07-.39-.23Zm0-1.14.13,0,0,0-.11-.06Zm.17,1h.15l.64.38.41.19.15.14.06,0,0,0-.07,0,0,0-.06,0L7,21.48l-.29-.22-.38-.17L6.21,21,6,20.87l-.29-.08,0,0Zm.14-1.53.11.06,0,0-.09-.09ZM6,20.72l0,.06.14.08c.19.11.32.11.39,0l.1.06,0,.16.11.07,0-.08,0,0,.06.14.17,0,0-.11,0,0,.22.12s.11,0,.19-.17l.17,0v-.15l0,0c.25.12.39.15.42.1l0,0-.21-.13,0-.05-.49-.14-.19-.16L7,20.23l0,.07,0,0,.33.25,0,0,.07.13h0l.11.06,0,.07c0,.06-.1.07-.21,0l0,.07.07,0,0,0-.19-.07,0-.07.07.05.06-.11c-.09-.06-.12-.11-.1-.15a.66.66,0,0,0-.44,0l-.57-.09c.11.06.16.12.17.19l-.09.09,0-.06-.1-.06Zm.38-1.54.12.12h.06v.05l.07-.1H6.59l0-.06-.07,0Zm0,2.69.11.06,0,0-.11-.07Zm.05-1.78,0,0,0-.07L6.45,20Zm0,1.55,0,0,.16,0,.12.12,0,0,.11,0,0,0,0,0-.25,0-.12-.12-.06,0Zm.08-3.38,0-.07c0-.05.08-.05.15,0l.16.14,0,.07-.11,0ZM6.8,18c.23-.15.38-.21.44-.18v.06l0,0c-.16.19-.31.25-.43.18l0-.06Zm0,3,.07-.11L7,21l0,0-.12,0Zm.12-1.26,0,0,.11,0,0,0L7,19.66Zm.27,1.58.07,0,0,0,0-.05,0,0-.12,0Zm.29-1.16.22.13,0,.07.17.1,0,.06,0,0,.06,0,0,0,0-.06.45.21,0,0h.06l.07,0v.05h.06l.46.27c.16.09.23.17.2.21l.13,0,.23-.39a.34.34,0,0,0-.15-.32l.05-.07.08.1c.36.19.56.25.59.2l0-.17a2.49,2.49,0,0,1-.7-.26v-.06L9.55,20c.07,0,.12,0,.15,0l0,0-.11-.06-.26-.11,0,0c.1.05.13.1.11.15s-.12,0-.24,0l-.09-.1-.43-.15,0,.07.3.22,0,0H8.85l0,0L8.67,20l-.17-.11c-.12-.07-.2-.08-.22,0l0-.06a.56.56,0,0,0-.78.21l0,.07Zm0-2.15,0,0,.07.05,0,.11h0l0,0Zm0,4.06.18.11,0,0-.18-.1Zm.43.82,0-.07.11,0,0,0L8,23ZM8,18.55l.07.05,0,0-.07,0Zm0-.66.07,0,0-.07-.08,0Zm.21,1.36.07,0,0,0-.07,0Zm.07,3,.06,0,0,0-.11-.07Zm.16-.53.11.07c.12.07.16.12.14.17l-.1.09v.05l.25.15.11,0c-.09-.06-.13-.11-.1-.16s.09,0,.19,0l0,0,0-.07,0-.11H8.93l-.08-.1c-.23-.1-.36-.13-.39-.08Zm.21,1,.06,0,0-.07-.11-.06,0,0Zm.12-3.21.36.21.11,0-.16-.14-.17-.1-.12,0Zm0-.61.07.05,0,0-.07,0Zm.07,3.61,0,0,0-.07,0,0Zm0-.88.1.07,0,0-.1-.06ZM9,19.08l.14.17.2.07,0-.07,0-.17Q9,19,9,19.08Zm.06.31.11,0,0-.06,0,0Zm0-.93.11.06,0-.11,0,0Zm0,3.4,0,0,.12,0-.11-.06Zm.16-2.38.07.05,0,0-.07,0Zm0,2.69.07,0,0,0-.07,0Zm0-3.16a.18.18,0,0,1,.08.28l.11,0,0,0c.07-.12.18-.13.32,0l0-.07L9.64,19c-.12-.07-.21-.07-.28,0Zm0,2.34.3.22.06-.11-.14-.08-.19-.07Zm.16,1.51.11.07,0-.12,0,0Zm.06-2.53.37.17,0,0c.19.07.29.08.31,0l0,0-.17-.1-.24-.09-.15-.14-.06,0Zm.08.67.07,0,.2.07L10,21l-.12-.12-.21,0,0,0Zm0,1.67.11.07,0,0-.11-.06Zm0-3.84.17.11,0,0h.06l.21.12.19.16.31,0,0,0-.26-.21-.13,0-.26-.2-.27-.11Zm0,.59.25.15,0,0-.25-.14Zm0,.68.14.09,0-.07L9.79,20Zm0-1.5.14.08,0,0-.14-.09Zm.06,5.08.14.08,0,0,.05-.16.16-.1-.07,0-.2-.07-.08.14Zm.09-3.8c.17.09.23.17.21.21l-.11.18.2.07v.06l.12,0,0-.06,0-.07s.14,0,.31,0l0,0c-.18-.11-.26-.2-.22-.27s.08,0,.15,0l0-.07c-.16-.1-.28-.09-.35,0s-.16,0-.38-.08Zm0-1.18.07,0,0,0-.07,0Zm.09.91.25.14,0,0-.25-.15Zm.27,3.11.13,0,.15.23.29.08,0-.07-.16-.14.06,0,.08-.14-.14-.08H10.7l0,0a.11.11,0,0,0,0,.17l-.11,0-.25-.14Zm0,.86.1.06,0-.11,0,0Zm0,.72.08,0,.21,0v-.14l-.21,0ZM10.41,21l.14.09.11,0-.21-.13Zm0-.33.11.06,0,0-.11-.06Zm.08-.14.07,0,.07-.1-.09-.1h-.06l0,0Zm0,2.67.11,0v-.06l-.11-.06,0,0Zm.05.88,0,0,.08-.14,0,0-.11,0Zm0-.38.21.12,0,0-.21-.12Zm0-.28.1.06,0,0-.1-.06Zm0-2,.38.23.05-.07-.32-.19Zm.15.38.07,0,.05-.07Zm0,2.66.11.07.06-.11-.07,0Zm.21.13.12.12.06,0,0,0L11,24.52Zm.23-3.39.11,0-.14-.08Zm.05,2.6.21.12,0,0,0-.11-.07-.05-.11,0Zm0-.57.07,0,0,0-.07,0Zm.08-2.9.37.17,0-.11-.07,0h-.05l0,0-.07,0-.11,0Zm.12.93,0-.07-.07-.05Zm.14,3.65.2.07,0,.07.11.06.06-.11-.28-.16Zm.18-4.37.3.23.06,0,0,0,0-.06-.24-.15Zm.14,1.32.14.08.11,0,0,0-.08-.1-.2-.07,0,0Zm.16-.19.1.06.12,0,0,0,0-.11-.13,0Zm.29-.26.11,0-.07,0Zm.21-.35,0,0,.12,0,0,0-.11-.06Zm0,.83.08,0,.15.14.23.09.15.08,0-.07-.55-.37h-.05Zm.14.41.2.07,0,.11.29.07,0-.05,0,0L13,22.32l-.22-.12Zm0,3.24.07,0,0,0-.07,0Zm0-4.75,0,0,.05-.07,0,0Zm.12-.21.07,0,.05-.07-.07,0Zm.09,5,.11,0,.06-.1-.07,0Zm.13-.87.07.13h0l.07-.11-.08,0Zm.16-4,.1.07.07-.11-.11-.06Zm0,3.92.11,0,0,0,0-.12-.11,0,0,0Zm.06-.34.11.06,0-.07-.11-.07Zm0,.68.13,0,0,0,0-.11-.07,0-.05.07,0,.05Zm.11-4.08,0,0,0,0,0-.11,0,0,0,0Zm.17,4.24.18.11,0-.07,0-.12-.18-.1,0,.07Zm0,.59,0,0,.11,0,0,0-.1-.06Zm.08-4.6.06,0,0,0,0-.06-.07,0,0,0ZM15.27,23l.07,0,.07-.2,0,0-.11,0,0,0Zm.05-.64.1.06,0,0-.1-.07Z"/><path class="cls-4" d="M8.5,14.58h.12l.27.24,0,0v-.17l.17-.07c-.2-.18-.29-.29-.25-.33s.15,0,.36.15l0,0C9,14.18,9,14.07,9,14L9.05,14l.18.11.08-.1-.15-.13.08-.09.12.11c.29.17.46.22.5.17.09.17.11.28.08.34H9.83l-.16-.14-.05.07.24.21a.31.31,0,0,1,.11.26c-.1.06-.17.07-.24,0l-.06-.11H9.61l0,0,.28.31H9.69V15l-.12-.05L9.51,15l0,0,.12.05.16.19h.12l.07-.15,0,0,.16.2.15.08,0,.06-.21-.08-.1-.14-.08.09.31.28-.08.09-.43-.38-.09.09.1.08-.06.06-.27-.13-.06-.11,0,0s.1,0,.2.07l.09-.09L9.49,15l-.21,0-.08.09c.06.06.08.11,0,.15l0,0,0,0,0-.2s-.16,0-.35-.1l-.1-.14,0,0C8.52,14.73,8.46,14.62,8.5,14.58Zm.2-.15,0,0,.13.11,0,0Zm.31.94,0,0h.12l.06.05-.09.1Zm.15.13.06-.06.06.06,0,0,.12.16,0,.06ZM9.89,13H10l.06.11.39.24.08-.09-.12-.17L10,12.87v-.06l.1-.12.14-.1.16-.24,1.07-1.19.18.1,1.22,1.09.13.17a4.73,4.73,0,0,1-.72.68l-.07.15h-.06c0,.13.19.34.53.64l0,0a.11.11,0,0,1,0,.17l.09.08.05-.06.06.06.21.13.14.34-.05.06c-.19-.12-.29-.16-.33-.12l0,0,.06,0,0,0H13l.28.24v.12c-.07-.05-.11-.06-.15,0s0,.12.07.23l0,0-.26-.13-.16-.14-.05.06s0,.13.13.29a.11.11,0,0,0,0,.17l0,0h-.38l.16.26,0,0-.12-.05v-.06l-.09-.08-.14,0L12,15.46l-.08.09.21.19-.13.15.15.14.2-.1,0,0c-.06.06-.06.15,0,.26l.46.41c.13.1.22.12.26.07s-.13-.16-.1-.2l-.18-.1-.12-.11,0,0h.11l.16.14.05-.06-.22-.25,0,0s.13,0,.29,0l0,0-.25-.28.08-.09v.06l0,0h.11l0,0-.24-.16.11-.13v.06l0,0s.15,0,.36.15v.06l0,0,.52.4.15.14,0,0v-.12l0,0-.33-.24-.16-.2.06-.06.24.16.09.08.06-.06-.16-.14v-.17l.21.07,0,0L14,15.31l.05-.06c.18.09.28.13.3.1l.19.28L15,16v.06l.39.3.92.82.25.27.33.25,1.32,1.17V19l-1.34,1.5-.14,0v-.06l-.4-.29L13.66,17.8l-.31-.33-.18-.11V17.3l0,0L13,17.23a1.38,1.38,0,0,0-.44-.62,1.52,1.52,0,0,1-.54-.26L12,16.24l-1.2-1.12.05-.06.12,0v.06l0,0,.29.1.07.12.05-.07-.09-.08-.13-.16.06-.07.21.14.05-.06-.12-.17,0,0s-.12,0-.23.13l-.06,0,0,0,0-.15-.33-.06.06-.07,0,0h.06l.05-.06.08-.15.25-.1,0-.35.14-.1-.09-.08H11.1l0,.15-.17.06v.06l0,0-.11.07v.11l0,0-.15-.07v-.06l0,.06-.19-.16C10.15,14,10,14,10,14l-.07-.17c-.11.12-.3.06-.59-.2l0-.06h.12l.15.13.06-.06-.16-.19.06-.06.23.1.09-.09-.13-.11,0,0s.16,0,.36.21v-.12l-.24-.16s0-.1-.07-.17V13Zm-.45,2.79.08-.09a.18.18,0,0,0,.29,0l.18.11.06.05L9.89,16l-.14,0Zm.93-1h.11l0,0v.06h.06l.09.08.12.17,0,0h-.18l-.13-.22-.12,0v-.06Zm0,.38.15,0,0,0v.12l0,.06-.15-.08Zm.84-.52.12,0,0,0-.09-.08Zm.18.11.07.11.12.05,0,0c-.08-.07-.1-.13-.06-.17l.14,0,0,0S11.52,14.58,11.38,14.68Zm.1-.42.09.09,0-.06,0,0,0,.15a.55.55,0,0,1,.33.18l0,0-.19-.22-.33-.24Zm.2-.91.1.08,0,0-.09-.08Zm0,2.33.09.08.09-.09,0,0h-.12Zm.12-1.49.09.08h.17v-.12L12,14.06Zm.14-1,.06.06,0,0L12,13.13Zm.14.89.08-.09-.06-.05,0,0Zm.26.45.12.11,0,0-.12-.11Zm.15.14.16.14v-.12l0,0Zm.37.82.08-.09,0,0-.08.09Zm.19,1.33.1.08,0,0-.09-.08Zm.28-1.3,0,0h.12l.13.17-.06.06v0H13.5Zm.13-.64,0,0h.18l.28.42-.05.06c-.09-.07-.14-.08-.18,0C13.53,15,13.45,14.89,13.48,14.85Zm.06.49,0,0,.06,0,0,0Zm.08.89.31.27.05-.06-.15-.13-.18-.11Zm.19,1.15.24.22.06-.06-.25-.22Zm.08-.58.12.11.06-.07L14,16.79Zm.22-1.18.07.11h.05l0,0v-.06l-.12-.05Zm.38,1,.09.08.05-.06-.09-.08ZM14.6,16v.06l0,0h.12l0,0L14.71,16Zm.4,2.39.06.05,0-.06-.06-.05Zm.87-1,.18.16h.18l-.07-.11C16,17.37,15.92,17.35,15.87,17.41Z"/><path class="cls-4" d="M13.5,9.8l.66-.5.28.31.07-.11-.22-.29.06-.05h.12L14.55,9a.47.47,0,0,1,.24.18s0-.13-.08-.3l.07-.05.16.14,0,0V8.69l.18,0V8.54l.07,0,.16.14,1.3,1.74.14.25h.06l0,0h.05l.32.43s0,.1,0,.2.22.13.42.09l.05-.14.18,0,.11-.13c.15.16.25.22.29.19L18,10.9h0v-.05l0,0-.28-.3-.12-.22-.18-.17L17,9.59,16,8.4l-.17-.23,0-.11c.12.11.22.14.28.09-.12-.15-.14-.25-.08-.3l.22.15.06.15.28.31.21.35,0,0h-.11l-.3-.39h-.06V8.36l0,0-.12,0,.19.32.13.11.19.32.4.52.09-.07-.32-.43-.09-.19,0,0H17l.2.27.23.23.09.19.46.48V9.93l-.18-.17c-.11-.15-.15-.25-.1-.28l.12,0V9.38l0,0-.14,0v.06l0,0h-.11l-.4-.53,0-.11,0,0,.22.3L17.43,9l0,0-.33-.37,0,.14,0,0-.15-.14V8.51l0,0-.52-.63,0-.12,1.08-.82c.18.21.3.29.34.26l-.21-.35,0,0,.12,0,.64.85v.06h.06l.54.72-.07.05h-.05l0,0,.22.3V8.75l.1-.07.12.22.1.07V9l.15.14.42.56v.14l.17.23c.09.11.15.15.19.12l.05.06,0,0,1.38,1.78,1.36,1.8,0,.12-.12,0v0l.05.07.12,0v-.06l.14,0,.57.75,0,.18-.69.51s-.1,0-.18-.11l-.07.05a.19.19,0,0,1,0,.29l-.33.24-.22.12-.07.1-.14-.05-.4-.52q-.11-.16-.06-.21l.19,0v-.11l.23-.17,0,0-.41-.2.09.19h-.06l-.07.05-.14.16a1.21,1.21,0,0,1-.33-.32l-.64-.85V14h.12v-.15l-.21-.14v0l0,0h0l0,0,0,.12L20,13.67v-.29l0,0-.18,0-.09-.19-.25-.33c-.08.06-.19,0-.33-.11l0,0c.09.13.12.21.08.24s-.11,0-.19-.11l-.07.05c.09.11.06.21-.07.31l.29.39.14.11v.06l.61.67.11.22.16.14.21.35.1.13v.06h.06l.34.46-.1.07-.34-.46h-.12v.06l0,0h.06l.27.36.07-.05.07.1-.06,0,.05.06.06,0,0,0V16l.1-.07.33.36v.06l0,0h-.06l-.07.05.2.26,0,.17-.23,0L21,17l-.19.09-.07.11-.13,0v0l0,0-.18,0-.09-.19-.39-.52-.07.05.54.72-.13.15-.5.37-.17,0-.2-.26-.64-.8-.19-.32.07-.1h.06l-.08-.09c-.1.08-.21.05-.31-.08l0,0-.16-.35L18,15.82c-.07-.12-.06-.21,0-.28l-.2-.27-.15.07-.23-.3c.09-.06.11-.13.06-.19l-.26-.22L14.78,11.5,14,10.39l-.14-.11v-.06l0,0-.26-.27Zm.73.42,0,.07.1-.07-.1-.14,0,0Zm.07-.46,0,.07,0,0,.21.21,1.66,2.14h.06l0,0,0,0-1.85-2.4h-.06Zm.61,0,0,0h.11L15,9.71Zm.1-.69.07.1.07-.05,0,0Zm.26.69.09.13,0-.12-.05-.06Zm.36.49.25.32.07,0-.2-.27Zm.16-.27.22.29.07,0L15.91,10Zm.88.62.07.1,0-.12H16.7Zm1-2.5v.15h.05l.1-.07,0-.07Zm.26,3.29.05.07h.12L18,11.28ZM18,10.11v.06l.07.1.1-.07-.05-.07Zm0,2.23.1.14,0-.12Zm.09-4.52.05.06,0,0,.11.07.07-.05-.13-.16Zm.13,4.41.05.07,0,0-.05-.07Zm.09-3.3.07.1.07,0-.07-.1Zm0,2.18.08.09,0,0-.07-.1Zm.19,2.37.32.42.12,0v-.06l-.21-.2-.22-.3Zm.1-4.18.15.2V9.38l-.1-.13ZM19,8.87,19,9l.06-.05,0,0Zm.05.89.6.79h.11l-.64-.85Zm.34,4.62.08.1,0,0-.07-.1Zm.35-1.18.05.06.06,0,0-.06Zm.05-2.46.12,0-.1-.13Zm.54,5.7.45.59.09-.07-.14-.2-.28-.3V16.4h-.05Zm.18-2.28.05.06.06-.05,0-.06Zm.17.23h.06l0,0-.07-.1Zm1-.06,0,0,.29.45.11,0,.08-.11L22,14.43c-.08-.12-.16-.16-.24-.13Zm.24.73.12,0L22,15Zm.23-.58.1.13.1-.07-.1-.13Zm.26-.2,0,0c.11-.08.22-.05.34.1,0,0,0-.11,0-.23l-.19-.12Zm.46.28.15.19.1-.07,0,0-.16-.14Z"/><path class="cls-4" d="M19.52,4.87l.71-.33.05,0,0,0,.19-.09.05,0,0-.05.86-.4.11,0,.19-.18,0,0L22,3.78l.17.37,0-.11L22,3.75l.11-.06.11,0,.08-.12c.57-.2.9-.21,1,0l.19.32.13.26.11,0-.32-.67,0,0c.05,0,.1,0,.16.15h.13l0-.11a.37.37,0,0,1,.23.21l.3.63,0,0v0l0,0,0,0-.05-.11,0-.06-.06,0-.16-.33c.09,0,.25.11.49.45.05,0,.11,0,.18.19l0,0,.05.21,0,0,.23.3.4,1,0,.11,0,0,.21.17,0,.2.05,0,.05.2L26,6.8l.17.29,0,.12.57,1.14.42.89,0,.17.11.13,0,.05,0,0,.1.13,0,0,.05,0,.07.15c.45,1.18.53,1.83.24,2,.05.1-.1.3-.44.61l-.05,0,0,0-.15.16-.05,0h0l-.15.17-.06,0v0l0,.05-.12.06-.1,0-.18-.38-.11,0,.21.45-.06.16,0,0-.25.16-.07,0a.46.46,0,0,1-.31,0l0,.14-.15,0,0,.06-.15.07-.11-.14-.07,0c.06.12.05.2,0,.24l-.08,0a.46.46,0,0,1-.31,0l-.06.17-.34.15-.24.07-.16.12,0,0-.16-.06-.25-.52,0-.26-.21-.26L23,12.34l-.21-.26,0-.11-.13-.08,0-.05-.09-.19-.05,0,0-.05-.07-.15-.16-.24,0-.17-.58-1.13-.27-.6.11,0,.05.11.08,0,0-.26V9l-.13-.08,0-.14s-.12-.05-.23-.21l-.14-.39-.12,0,0,0L21,8.05l0-.15-.27-.59-.12.05,0-.08-.19-.5-.12-.16,0-.17-.31-.58L19.48,5Zm1,.16,0,.07.08,0,0-.08Zm.11,1.89.12.26.16.24,0,0,0,0-.23-.3,0-.16Zm.21-.82,0,.17.23.3.07.24.05.11.07,0-.14-.29L21,6.38,21,6.18l0-.11Zm.26,1.82,0,0,.05,0,0,0,.09-.09-.07-.15-.07,0Zm.14.3.05.11a.51.51,0,0,1,.22.17h0l-.08-.28,0-.11-.11,0Zm.08-1.76,0,.08,0,0,0-.08Zm0-.46.07.15,0-.11Zm.09-.4.11,0,0-.07Zm0,.63.07.15.07,0,0-.07Zm0,1.7.05.12.19.31v.22l.25.34,0,0-.12-.35,0,0V8.35l-.11,0V8.18l-.21-.36Zm0-2.73,0,0,.11,0-.09-.19Zm0-.55.31.67.11,0,0,0-.32-.67-.11,0Zm0,4,0,.06,0,0,.05,0,0,0,0-.06,0,0-.05,0Zm.09.19,0,.06v0l.11,0,0,0,0,0Zm0-1.06,0,0,.11.23.1,0,0-.29ZM21.78,9l0,.08,0,0,0-.07Zm.06-4.32.07.14,0-.11Zm0,1.08,0,.11,0,0-.06-.11Zm.07-1.49.16.25.07.14,0,.06.06,0,.31.67,0,0-.16,0a.38.38,0,0,0-.14.29l.19.41.21.26,0,.15,1.29,2.47.07.24.51,1,.24.52,0,.11-.12-.17-.16-.34-.08,0,.56,1.19s.1,0,.22,0l.16.06c.32-.21.38-.56.16-1l0-.07-.2-.32-.27-.69-.19-.41-.12-.35-.22-.26V8.19l-.12-.07,0-.11L24,7.52l0,0,.06.11-.12,0-.06-.14c-.09-.18-.09-.28,0-.32l-.28-.59A2.15,2.15,0,0,0,23.18,6l0-.06,0,0a1.07,1.07,0,0,0-.62-.56l-.37-.78L22,4.33h0L22,4.22l0,.06Zm.08,4,.09.19,0-.11,0,0Zm0-3.45.05.11h0l-.05-.11ZM22,9l0,.08.11,0,0-.08Zm.05-2.1.11.22.07,0-.1-.22Zm.07-2.66.26.55.12,0-.13-.26C22.33,4.29,22.25,4.21,22.16,4.23Zm0,6,.16.24,0,0-.15-.33Zm0-2.13,0,.07.08,0,0-.08Zm0,1.08,0,.07h0l0-.08Zm0-1.63.17.37.11,0-.18-.37Zm0,1.17.17.37.08,0-.14-.3Zm.07-.44.14.3.1,0-.17-.37Zm0-4.49,0,.07,0,0,0-.07Zm.12,3.07.17.37.11,0-.21-.45Zm0-2.81.14.29.11,0-.09-.19-.13-.17Zm.07,3.54.1.22.13.17h0l-.1-.32-.09-.09ZM22.57,9l.09.1,0,0-.11-.22C22.54,8.85,22.53,8.9,22.57,9Zm0-.68.05.11,0-.1-.05,0Zm.12-.91,0,.07h0l0-.08Zm0,.66.06.11.07,0,0,0Zm.11,3.53.24.52,0,0,0-.17-.21-.35Zm0-6.63.05.11.11,0-.08-.18Zm.05,3.51,0,0,.11,0L23,8.34Zm.15-4.24.11.23.07,0-.1-.22Zm.13,7.55,0,.11.11,0-.08-.19Zm0-7.85.43.93L23.8,5h0l-.06-.24-.46-.88Zm0,8.46,0,.07,0,0,0-.07Zm0-7.8.27.59.11,0-.31-.67Zm.13,6.5,0,.07.07,0,0-.08Zm0-5.67,0,.11,0,0-.06-.11Zm0,.66.07.15c.21.44.35.65.43.62l-.28-.6C23.63,6.1,23.56,6.05,23.47,6.06Zm.06,3.51.15.33,0-.11-.12-.26Zm0-3.95L23.7,6l.11-.06,0,0C23.7,5.68,23.62,5.6,23.54,5.62Zm0,6.87.19.4,0-.11-.12-.26Zm.1-.37.14.3.07,0-.14-.29Zm0-2.77.11,0-.07-.15Zm0,1.25.07.15.12.17,0-.11,0-.08-.17-.15Zm0-4.53.21.44.11,0h0L23.86,6Zm.07-.44.12.26.07,0-.09-.18Zm0-1.73,0,.08L24,4l-.07-.15Zm0,1.22,0,.11,0,0-.06-.11Zm0,8,.05.11,0-.11-.05,0Zm0,.49,0,.08,0,0,0-.08Zm0-1.59.05.11.08,0,0,0Zm0-7.31.05.12,0,0L24,4.7Zm.1,8.74.08.19.08,0-.05-.11Zm0-6.38.06.11,0,0-.05-.11Zm0-2.13.21.35.05.11.07,0-.12-.17L24.18,5Zm0,7.37.12.26.08,0-.13-.26Zm0-6.12c.14.26.24.38.3.35l-.11-.22-.12-.17Zm0,1.06.17.37.08,0-.14-.3Zm.12-.33.05.21.09.09.11,0,0-.07C24.4,7,24.32,6.91,24.24,6.92Zm0,4.08.1.22.11,0-.1-.22ZM24.33,13l.09.09,0,0,0-.07,0,0-.09-.09Zm0-8,.21.44.1,0L24.46,5Zm.13,1.93,0,.07,0,0,0-.07Zm0-.52,0,.06.16.24.1.22.08,0-.21-.45Zm0-1.72,0,0,0,.08.24.43.08,0L24.7,4.9l-.09-.28-.05,0Zm0,8.2,0,0,.12.17,0,0,0-.11-.07-.15-.11,0Zm0-1.32.21.45,0-.11-.18-.37Zm.06-4.42.12.26.11,0-.12-.26Zm0-1.14,0,.11h0l-.06-.11Zm0,5.05,0,0,.09.1-.07,0Zm.06-4.82.21.44.11,0-.25-.52Zm.05,5h0l0,.07,0,0ZM24.8,5.8l0,0,.11,0-.05-.11Zm0,6.33.06.15.08,0,0-.08Zm.07.74,0,.07L25,13l0-.05,0,0-.11,0ZM25,6.17l.1,0L25,6.06Zm.07.65.12.26.07,0-.15-.24Zm0,.62.1.23,0-.11,0-.08Zm.1-1,.14.3,0-.11-.11-.22Zm0,6.41.05.11,0,0-.06-.11Zm.12-5.45.13.26.1,0-.15-.34Zm0,.59,0,.07.08,0,0-.08Zm.15,2v0l.11,0L25.57,10Zm.1-3.26.09.19,0-.11,0,0Zm0,.62,0,.08.12.08,0,.05,0,0,.14.2h0l-.26-.56,0,0Zm.14,3.11.07.15,0-.11Zm0,.59,0,.07,0,0,0-.07Zm.1-1,.07.14.07,0-.07-.15Zm0-2.77.05.11,0,0,0-.11Zm.1,5.25.15.42.08,0-.2-.41Zm0-4.54.09.19.1,0L26.06,8Zm0,4,0,.08,0,0,0-.07Zm0-2.18.17.37,0,0c.06,0,.05-.15,0-.38l-.06,0Zm0-2.18.11.22.29.54.08,0-.11-.14,0-.05,0,0L26.3,8l-.12-.35-.05,0Zm.13.75.12.26.39.73,0,0,0-.07,0,0-.16-.24-.09-.28-.09-.09,0-.06v0l-.18-.28Zm0,3.43,0,.08.08,0,0-.07Zm.12.26.05.21,0,.07.17.06-.14-.3Zm.24-3.46v.13l.06,0,.1.22h.13l0,0-.21-.35Zm0,3.43v0l.11,0-.05-.11Zm0-2.4,0,.08,0,0,0-.08Zm.36.78,0,.08.07,0,0-.07Zm0-1.14,0,.17.25.43,0,0-.07-.33-.05,0,0,0,0-.16,0,0Zm0,.76.07.15.11,0,0,0-.07-.15-.11,0Zm.36,1.64,0,.07h0l0-.08Z"/><path class="cls-4" d="M27.68,1.51l.29,0L30.24.93l.37,0v0c.14,0,.34.46.62,1.46l1,2.52,0,.29c.21.43.88,2.23,2,5.42l-.11.11-2,.45c-.06,0-.11,0-.15-.13l-.34-1.1,0-.13c-.08-.26-.15-.39-.21-.37l-.69.15v.21c.22,1,.28,1.53.16,1.65h-.38l-.11.07h-.24l-.24,0-.31.16-.76.17-.14-.05-.3-3h0l-.79-7.22.08,0Zm1,1.3.13.56a1.05,1.05,0,0,1,0,.46l.1.27h0A.35.35,0,0,1,29,3.82l-.25-1.08Zm.19,1.76,0,.29L29,5v.2l.08.15v.55c.06,0,.09,0,.11.1v.21h.08l0,.12c-.13,0-.18.13-.13.32L29,6.69l.07.32h.13l-.07-.32.05,0h0l-.06-.24.2,0-.05-.24,0,0-.05,0,0-.16,0-.26-.19-.46,0-.12c.11,0,.13-.17.07-.44A.22.22,0,0,0,28.83,4.57Zm.5,2v.24l.1.07h0v0l-.1-.27Zm.1,1.74,0,.12.11-.07v0Zm.12.52,0,.12.2,0V8.82Zm.05.24,0,.08.2-.05,0-.08Zm.13.77,0,.12L30,9.9l0-.12Zm.07.28,0,.12.36-.08,0,.08,0,0v0l.05,0h0c0-.14,0-.21.07-.23L30.2,10v0l0,0Zm0-6.27c.27,2.08.4,3.28.39,3.61l.15.26L31,7.57,29.89,3.83Zm.05,4.7.07.11h0l0-.12Zm0,.29.05.2h0l0-.22V8.73h0Zm.08.32,0,.12h0l0-.12Zm.15-.42,0,.08.08,0V8.72Zm.13,1.66,0,.2.16,0,0-.12Zm.11.48,0,.12.12-.07v0Zm0,.2,0,.08.1.06,0-.08Z"/><path class="cls-4" d="M34.3.44h0c.41,0,.62,0,.62.07l.33-.09h1A34.33,34.33,0,0,1,36.86,4l0,0v0H37c0-.17,0-.25.07-.25l0,0v0A15.44,15.44,0,0,1,37.54.39l1.93,0V.4c-.38,1.81-.66,3-.85,3.54-.11,0-.16,0-.16.08l.13.2L38,7l0,1.27,0,.37,0,.41,0,1.11c0,.36,0,.53-.12.54l-1.84,0L36,10.58V9.93l0-.33,0-.45,0-1.44a.5.5,0,0,1,.12-.29L35.4,4.89l0-.12-.22-.57,0-.29V3.7a.23.23,0,0,0-.21-.24l-.31-1.14,0,0v0A10.13,10.13,0,0,1,34.3.44Zm.76,1v.08h0V1.45Zm.24,0v.08h.09V1.45Zm.16,2.05v.37l.09.08,0-.05V3.7l0,0v0h0l0-.12Zm.1,1.31v0h.08v0Zm.31-1.07-.12,0,0,0,0,.29H36l.08-.08V3.85l0-.2h0ZM35.81,4.8l-.08.29.12,0v0l0,0,0,.13h0V4.93l0,0v0l0,0Zm.06,1.44V6.4h.05L36,6.32l-.09-.08Zm.41-2.51,0,.12,0,.13h.12v0l0-.2Zm.1,5.78v.17h0l0,0h0l0-.12Zm0-4.43v.33h.08V5.08Zm0,.78V6h.08V5.86Zm.21-2.14,0,0v0l.08.08.05,0V3.8Zm0,5.79v.12l.09.08h.08V9.59l-.09-.08Zm.29,0v.05l.08.08h0V9.54Zm.24-5.74v.08h.08V3.8Zm0,.16V4h0V4Zm0,.74v.41h.08l0-.21V4.78l-.08-.08Zm0,.61v.25h.09V5.31ZM37.68,4V4h.08V4Zm.21,0,0,.12H38l0-.12,0,0h0l0,0Zm.09.74v.12h0V4.73Z"/><path class="cls-4" d="M46.61,1.67l.74.24v.17l.08,0c0-.11.07-.15.13-.13l.27.08.09.12.14,0h0l.09.12.11,0h0c.05,0,.06.06,0,.14l0,0,0,0c.08-.09.13-.13.17-.12l.51.16c.19.07.28.15.26.26l-.08.1L49,4.16l.08,0,.28-.86.11,0,0,.38L49.27,4l-.15.6L49,4.78h0s-.07-.07,0-.15h0l-.1,0,0,.12,0,.1,0,0,0,0h0L49,5l0,0-.11.48-.12.35,0,.21.12,0,.06-.19,0-.06.08-.1L49,5.32l.09-.14V5l.09-.14,0,0,0,0,0,0,0-.21.11-.31.15-.6.1-.18.14-.56.1-.05h0l0,.21-.12.39-.05,0,0,.24,0,0c.05,0,.09,0,.11-.1L49.93,3h.13a1.81,1.81,0,0,1,.45,2l0,0h0c0,.11-.1.14-.21.11s0,.09.1.11v.13h0l0,.05,0,.08-.05,0v.22l-.16.24,0,.38,0,.12c-.41,1-.7,1.58-.88,1.65,0,.07-.18.16-.48.28l-.08,0,.21-.62-.06-.1-.11.09,0,.07-.11.62-.05,0-.08,0,0-.06h0l-.16.08,0,0,.05-.16.11-.18.09.12h0l.08-.1,0-.21,0-.12-.11-.08,0,.08h0l0,0L48.38,8l0,0,0-.35.11-.35,0-.1-.11.22-.07.33-.05,0h0L48,8.25l0,.16c0,.1-.21.1-.52,0l-.35-.11,0-.06c-.19,0-.29,0-.31,0l-.06.2-.15.34a1,1,0,0,1-.07.45l-.67,2.07-.11.22,0,.21-.09.27-.15.08-.12,0-.3-.14-.44-.1-1-.33,0-.05h0l.1-.19.06-.15,0-.14L44.55,8V7.86l0,0,.11-.49L45,6.57c.1-.31.18-.45.22-.44l0-.28,0-.12,1.13-3.6h0l0-.05.08-.24Zm-2.79,9.27,0,.08h0l0-.08Zm1.28.42-.05.16h0l0,0h0v-.12Zm.31-.29,0,.12.08,0v0Zm.82-2.92,0,.11,0,0,0-.12Zm.47-5.54L46.58,3l.05.1.06,0,.12-.39Zm-.08,2.08,0,.08.07,0,0-.08Zm.12-2.37,0,.12.1-.06,0,0Zm0,1.74-.05.15.06.11.1-.19V4Zm.28-1,0,.12h0l0-.12Zm.14.52,0,.1,0-.16ZM47.31,8l0,.12.08,0,0-.11Zm.86-4-.78,2.42,0,.11.16.05c.28.09.52-.16.72-.76l.08-.4.23-.58C48.77,4.46,48.61,4.18,48.17,4Zm-.71-1.39v0l.08,0v0Zm.19.36-.09.27.07,0,.07-.2Zm0,2,0,.12h0l0-.11Zm.22-1.87,0,0,.06.11,0-.12Zm.06,4.73,0,.11L48,8l0-.12Zm.7-4.3.11.2,0,0,.1-.06,0-.05v0L49,3.47l0-.05Zm.15,3.28,0,.11.1,0,0,0Zm.3-4.13L48.93,3l0,.05h0l.06,0h0l0-.21,0-.15Zm.3,2-.16.24,0,.06.16,0,0-.12,0-.21Zm.12-.49-.09.28.1-.05.06-.2Zm.36-.44-.19.59h0c.09,0,.16-.07.2-.2l0-.08V3.79Z"/><path class="cls-4" d="M54.6,4.44l.23.18,2,1.13.3.22,0,0c.12.07,0,.56-.53,1.49l-1,2.49-.18.23q-.19.69-2.19,5.37h-.15l-1.77-1c-.06,0-.07-.1,0-.2l.51-1,.09-.08c.12-.25.15-.39.1-.42l-.6-.35-.14.16c-.5.87-.84,1.31-1,1.32l0,0L50,13.63l-.12,0-.2-.16-.21-.12-.33-.1-.67-.39-.07-.13,1.82-2.41,0,0,4.32-5.84.07,0Zm-4.49,8.87,0,.07,0,.11,0-.07Zm.1-.18-.06.11.12,0,0,0Zm.11-.93-.06.11.32.18,0,.07-.06,0,0,0v.06l0,0q.1-.18.21-.12l0-.17,0,0h0Zm.13.5-.1.18.14.08.06-.1Zm0-.75-.06.11.21.12.06-.11Zm.43-.65,0,.07.18.1,0-.07Zm.12-.22-.06.11.17.1.05-.07Zm.08.52-.06.11,0,0,.06-.11Zm.16-.28-.1.17,0,0,.17-.14,0-.07,0,0Zm0-.7-.07.11.13,0,0,0Zm.15.47,0,.13,0,0,.06-.11Zm.06.31,0,.08.07,0,0-.07Zm1.88-3.93-.18.23v.15L53.06,8l0,.16-.37.4s.05.08,0,.15l-.14.15.07.05-.06.1c-.12-.07-.23,0-.32.15L52,9.12l-.16.29L52,9.5l.16-.28v.06l0,0,.12-.22.18.1L52.6,9h.06l0-.06.09-.14.19-.17.17-.47L53.16,8c.09.06.21,0,.34-.27A.22.22,0,0,0,53.37,7.47Zm-1,1.8-.13.16,0,0,0,.12,0,0,0,0,.11-.27Zm2.2-1.67c-1.21,1.72-1.93,2.69-2.16,2.92l-.07.29.6.35,1.7-3.52Zm-.15-1.55-.29.5a1.06,1.06,0,0,1-.29.35l-.11.26,0,0A.34.34,0,0,1,54,7l.56-1Z"/><path class="cls-4" d="M60.18,9V9l0,0,.12.06-.08.15.09.08s.09,0,.15,0l.06.06-.14.15,0,0,.15,0,0,0-.38.55,0,0,.2-.15.06.05-.05.18,0,0-.33.31,0,.2.22-.18.22-.3.18.16V10.4l.08-.09.06.06.09-.1V10.1c-.06.06-.11.07-.15,0l0-.2,0,0h0l0,0,.14-.26-.18-.11V9.45l0,0,.06.06,0,0V9.5l.15.14.25.16-.14.27,0,0,.23-.13.24.22c-.06.09-.06.16,0,.2h.11v.23l0,0,0-.07.06.06-.08.09-.16.3-.22.24.09.09c.11-.13.19-.17.23-.13l.3.27.15,0c-.14.2-.2.32-.16.36l.12,0a.73.73,0,0,1-.18.39s.1,0,.17-.07H62l0,0s0,.1-.08.2l.1.09.19-.16v-.06l0,0h0l0,0,.27-.42,0,0c.13.12,0,.6-.39,1.42l-.11.12L62,13.35l-.16.18.06.06.13-.15.07.05-.11.18-.28.31v0H61.7l0,0c-.76.78-1.2,1.13-1.31,1l0,0,.17-.18,0,0c-.26.28-.46.36-.6.23l-.42-.15,0,0a1.5,1.5,0,0,1-.11,1.72l-.34.25,0,.12-.21-.13V17c.12.11,0,.34-.31.71l-.79.89-.08.14-.14.1-.39.43-.13.21c-.12.08-.19.1-.23.07v-.12c-.06.06-.11.07-.15,0V19.4l-.21-.08-.09-.14-.15-.08v-.05l.22-.25,0,0h-.06l0,0-.1.18,0,0H56l0,0-.07-.12-.24-.16,0,0h-.06l-.27-.24c-.13-.11-.12-.24,0-.38l.17-.13.22-.3.11-.12h.11l.09.09,0,.14h.06l.08-.1s0-.12-.16-.25a2.29,2.29,0,0,1,.43-.6l1.16-1.28h0c.35-.46.44-.77.27-.91l0,0h-.06l-.18-.16-2.22,2.47s-.1,0-.18-.05l-.05.06a.43.43,0,0,1-.13.38l-.16.13-.14.21-.13.15h-.18l-.12-.11-.13-.16-.21-.14-.15-.14,0-.2L53.84,17l-.05.06L53.73,17l.05-.06s.08,0,.15,0h0l0,0v-.06H54l-.18-.17-.14.15h-.12v-.06l-.18-.1-.24-.22s0-.17.18-.39l.11-.07.08-.14.39-.32L54.2,15c.21-.21.33-.31.36-.28l.49-.66,0,0v0l0,0h0V14l.33-.36h.06v-.05l.42-.46.24-.33a3.82,3.82,0,0,1,1.09-.85v-.05l0,0,.09.09c0,.06-.06.11,0,.14l.17-.12.12.17h.06l.06-.06V11.9l-.12-.06.11-.12s.09,0,.15,0l.08-.09c-.09-.08,0-.22.12-.44v-.06l0,0H58v.06l0,0a.44.44,0,0,0-.26.15l-.12-.11.9-1.06.11-.06.14-.21.88-1,.16-.13,0,.21C60,9,60.13,8.93,60.18,9Zm-6.6,7.53,0,0v.11l0,0,.09-.09Zm.29-.69v.12L54,16,54,16Zm.13-.21,0,.06,0,0,.05-.06Zm.17,1-.14.15.06.06h.12l.14-.15-.06-.05Zm.22-.24,0,.12,0,0h.11l.06-.06-.06-.06h-.06Zm.31-.22-.15,0v.06l.09.08.05-.06Zm.15-1.52-.11.18-.06-.06-.08.1.09.08.22-.25Zm-.11,1.72v.11l0,0h.12v-.12l0,0Zm.32.13-.08.09.06.05.08-.09Zm.22-2.4-.14.1v.06l0,0,.13-.15Zm.17-.18-.09.09.1.08,0-.06Zm.21-.36,0,.06-.08.21.15,0,.07-.21Zm.16.25,0,0,.12.11,0,0v-.11Zm.18.72-.16.18,0,0H56l0-.06v-.11Zm-.07,4.13,0,.06.18.1,0,0v-.11l0,0Zm.27-4.78L56,14l0,0,.16-.18Zm.17-.68-.11.12,0,0,.15.08.06.17.06-.06.11-.18-.13-.11Zm0,.5-.08.09h.12l0,0Zm.11.25-.09.09,0,0,.09-.09Zm.08,4.88-.08.09,0,0,.08-.1Zm0-4.19-.05.07,0,0,.05-.06Zm.14-.7V14h.06l.08-.09,0,0Zm.52-.09-.06.12-.25.1-.13.27.06.06.17-.13v.06l.12.11.11-.12v-.06l0,0c-.06-.06-.11,0-.17,0v-.12l.2-.21Zm0,2.45-.1.18H57l-.13.27h.06l0,0,.16-.25.16-.18Zm.44-.06-.06.06-.17.13-.13.21-.11.12.06.06.47-.46v-.06ZM57.23,13l-.08.09h.11l0,0Zm.16.2-.09.09,0,0,.09-.09Zm.1-1.78.06.05v.12l0,0-.12-.11Zm0,.75v.06l.06.06.08-.09,0,0Zm.15.26,0,0,.06,0,0,0Zm.14,3.1-.11.12v.11l0,0,.11-.06.11-.18,0,0Zm.16.19-.08.09v.12l0,0H58l0-.12Zm0-2.79L57.9,13l0,0L58,13Zm.57-.75-.08.09c-.09.1-.16.13-.2.09l-.06-.11h-.06l-.19.21v.11c.08-.08.13-.1.17-.06s0,.09,0,.17v.06l.06.06h.12l0-.18.12-.06q.21-.3.15-.36Zm-.46,2.23-.05.06.06,0Zm0-2.5V12l0,0,.08-.1Zm0,5.6v.06l0,0h.05l.06-.06,0,0Zm0-1.45v.12l0-.07Zm.34-1.73-.3.33.06.06.25-.28Zm-.08-3.16-.14.15,0,0,.14-.16Zm-.09,1.63,0,0v.11l.08-.09Zm.07,4.47,0,0,0,0h.12l0,0,0,0Zm.07-.94,0,0v.12l0,0,.09-.09Zm.06-3.69-.08.09,0,0,.08-.09Zm0,2.56.06.05.06-.06Zm.3-2-.28.25.09.08.11-.12.11-.18Zm-.17,3.93-.08.09.09.08.08-.09Zm0-2.12v.12l.11-.12Zm.08,1.62,0,0,.07.06,0,0Zm.18-6.4-.08.1,0,0,.08-.09Zm0,4.07-.1.12v.12l.17-.19ZM59,10.32l0,0-.07.15-.15.09,0,0v.12h.06l0,0,.11-.23.14-.1v-.06Zm-.21,6.43,0,.06.06.05.06-.06Zm1.44-5.22-.17.18L60,11.66l-.13.15h-.06l0,0v.06l0,0h.06l-.3.39,0,0v.06l-.06.06h-.06v.05l-.36.4c-.13.14-.21.2-.25.16l0,.12.33.3a.36.36,0,0,0,.35-.08l.06.06-.12.06c-.26.32-.36.5-.32.54h.18a2.73,2.73,0,0,1,.4-.63h.06l.24.22c-.05.06-.06.11,0,.14l0,0,.08-.09.17-.24,0,0c-.07.08-.13.1-.17.07s0-.12.05-.24l.11-.06.24-.39-.06-.06L60.1,13l0,0v-.05l0,0,.17-.13.14-.15c.09-.1.11-.17.07-.21h.06a.57.57,0,0,0,0-.81l-.07-.06Zm-1.17,4.13-.28.25V16l0,0h.06l.19-.21ZM59,13.51l-.06.06-.1.18.09.09.14-.1.08-.21,0,0Zm.84-3.82,0,.15-.49.55-.28.36-.16.13v0l0,0,0-.06,0,0v-.06l.06-.06.27-.25.25-.33.08-.09.2-.16L60,9.71l0,0Zm-.68,4.63-.08.09,0,0,.08-.09Zm0-3.31-.06.06,0,0h.06l0,0,0-.12Zm.19,4.26-.24.33h.12l.05-.06v-.06h.06l.05-.06v-.12Zm-.07-.84-.05.06.09.08.11-.06v-.06l0,0Zm.39-.87-.24.34,0,0c-.11.17-.14.26-.1.3l0,0,.13-.15.14-.21.16-.13v0ZM60,10H60l-.11.12c-.14.16-.16.29-.06.38l-.09.09-.14-.08-.09.09.06.06,0,0-.15,0v.17h.12l0,0-.17.18s0,.12.13.23v.17l.15,0,0,0q-.24.33-.18.39l0,0,.16-.19h.06l.24-.45.19-.15.14-.16-.06,0,0,0-.3.28,0,0-.15,0v.06l-.09.09-.06-.05c-.05,0,0-.12,0-.21l-.06-.05-.06.06,0,0,.11-.18.06.06-.05.06.09.08c.08-.08.13-.1.17-.07a.62.62,0,0,0,.06-.44l.21-.53a.32.32,0,0,1-.23.13l-.06-.12H60l.08-.09Zm-.26-.51-.35.4.06.06.3-.34Zm.3,4.52c-.13.14-.21.19-.25.16L59.67,14l-.11.18H59.5v.12h.06l.06.05s0,.14-.1.3l0,0c.14-.16.25-.21.31-.16s0,.09,0,.15l.06.05c.13-.14.14-.25,0-.35s0-.17.15-.35Zm-.5-3.31.1.08-.11.12,0,0v-.11Zm.21-1.64-.11.12,0,0,.11-.12Zm.11,4.73-.11.12.06.05.11-.12Zm.21-4.66.06,0,.06-.06Zm.21,5-.19.21,0,0,.19-.21Zm.29-1.23-.28.3v.12l.16-.13.14-.15V13Zm0,1-.19.21,0,0,.19-.22Zm.59.08-.14.15H61v0l-.16.19-.2.15-.1.3,0,0,.25-.22.06-.12.25-.22.16-.24Zm-.59-3.39,0,0,.06.05.08-.09Zm0,2.84-.05.06,0,0,0-.06Zm.14-.21v.11h.06l0,0Zm.32,0-.2.1-.11.18.06.05H61C61.08,13.39,61.1,13.28,61.05,13.23Zm0,.38a.18.18,0,0,1-.29,0v.12l0,0c.1.09.1.2,0,.32l.06.05L61,13.9c.09-.1.11-.19.07-.26Zm-.25-2.54,0,0v.11l0,0,.09-.09Zm.1-1.34,0,.11,0,0L61,9.78ZM61,12.45l-.05.06,0,0,.05-.07Zm.15.63,0,.06,0,0,.05-.06Zm0,1.19-.06.06,0,0,.06-.07Zm.14-.16-.11.13,0,0,.11-.12Zm0-4-.09.09,0,0,.12-.07Zm.11.54-.14.1v.05h0l.09.08v-.06h0l.06-.06Zm.18,2.75-.08.09h.11l0,0Zm.12-1-.06.06,0,0,.06-.06Zm.56-1.31.07.06s0,.08,0,.14l-.16.13-.06-.06v-.11Zm0,.87,0,0,0,.06h-.12v0l0,0Zm0,.58,0,.06.06.06.05-.07Zm.14-1.2c.1.26.13.41.08.46h0l0,0c-.16-.2-.18-.36-.09-.46h.06Z"/><path class="cls-4" d="M66.86,15.36v.05l-.12,0-.31.34.07.1.19-.09.25-.29h0l.1.13.07.16.2.2,1,1.28-.14.16-1.31,1-.19.09a4.74,4.74,0,0,1-.53-.83L66,17.58v-.06a1.57,1.57,0,0,0-.73.39l0,0a.11.11,0,0,1-.17,0L65,18l0,.06-.06.05-.18.18-.36.07,0-.07c.16-.15.23-.25.19-.3l0,0-.07.05,0,0V18l-.3.22-.11,0c.06,0,.08-.1.05-.14s-.12,0-.24,0l0,0,.18-.24.16-.12,0-.06s-.13,0-.3.07a.1.1,0,0,0-.17,0l0,0,.08-.37-.27.11,0,0,.07-.11h.06l.1-.08.05-.14.26-.19-.07-.1L63.7,17l-.12-.16-.17.12.06.21,0,0a.25.25,0,0,0-.26-.07l-.49.37c-.12.11-.16.19-.12.25s.18-.1.21-.06l.14-.16.13-.09,0,0v.11l-.17.13,0,.06.29-.16,0,0s0,.13-.1.28l0,0,.32-.19.07.1h0l0,0,0,.11,0,0,.21-.21.1.13h-.06l0,0s-.05.15-.23.32h0l0,0-.5.42-.16.12,0,0h.12l0,0,.3-.28.23-.11,0,.06-.21.21-.1.07,0,.07.17-.13.17,0-.12.19,0,0,.28-.11,0,.07q-.18.22-.15.27l-.31.13-.48.46h-.06l-.37.33-1,.74-.32.18-.31.28L59.4,22.37l-.17,0L58,20.73v-.14h0l.38-.32,2.92-2.19.38-.24.14-.15H62l0,0,.08-.11a1.37,1.37,0,0,0,.69-.31,1.78,1.78,0,0,1,.36-.47l.12,0,1.34-.95.05.06-.07.11h-.06l0,0-.15.27-.12,0,0,.06.09-.07.19-.09,0,.07-.17.18,0,.06.19-.09,0,0s0-.12-.08-.25l.06-.05,0,0h.15l.13-.3,0,.06,0,0v.06l0,.06.13.11,0,.27.34.11.06.15.1-.07,0-.12-.14-.05,0-.18h-.06l0,0,0-.12-.11,0,0,0,.11-.13h.06l0-.07.2-.15c.17-.18.23-.3.19-.35l.18,0c-.09-.13,0-.31.32-.54l0,.06,0,.12-.16.12,0,.07.23-.12,0,.07-.14.21.07.1.13-.1,0,0s-.06.15-.28.32h.11l.21-.2s.09,0,.18,0h0Zm-6.34,3.92-.06,0,0,.06.07-.05Zm.79,1-.2.15,0,.17.12,0C61.32,20.48,61.35,20.39,61.31,20.33Zm.43-2-.26.2.05.06.26-.19Zm.56.2-.13.1,0,.06.07-.05Zm.06.62-.1.08.05.06.1-.07Zm.12-1.42-.1.08,0,0,.1-.07Zm.43.65-.33.25.05.06.16-.12.14-.16Zm0,1h-.06l0,0,0,.11,0,0,.06-.05Zm.47-.4-.12,0v.06l0,0h.06l.07-.11Zm.28-.72,0,0v.12l-.19.09,0-.07h.06v-.06Zm.11.22,0,0-.07.05,0,0Zm0-1.87-.1.07.07.1,0,0v-.12Zm.46,1.91,0,0,0,.17-.47.19,0-.06c.09-.07.11-.12.08-.16C64.12,18.52,64.26,18.46,64.3,18.5Zm-.49-.71.08.1,0,0-.07-.1Zm.41-3.43.07.1a.18.18,0,0,0,0,.29l-.14.15-.06,0-.21-.2,0-.14Zm1.33-.69,0,.12-.29.22,0,0,.17,0,0,.18c.22-.17.34-.23.37-.18s0,.14-.22.32l0,0c.19-.15.31-.2.34-.16l.05.07-.14.16.07.09.17-.12.07.1-.13.1c-.22.25-.31.4-.27.46-.18.05-.3.05-.35,0V15l.17-.12,0-.07-.26.2a.32.32,0,0,1-.27.05c0-.11,0-.18,0-.23l.12,0v-.06l0,0-.36.21,0-.17h0l.08-.11,0-.07,0,0-.08.1-.22.12,0,.11.14.11,0,0-.22.12-.11.13-.05-.07.12-.18L64.6,15l-.08-.1-.33.25-.07-.1.46-.34-.07-.1-.1.07,0-.07.18-.23.12,0,0,0s0,.11-.12.19l.08.1.27-.11v-.21l-.08-.09q-.09.08-.15,0l0,0,0,0h.21s0-.16.16-.33l.16-.07,0,0C65.41,13.66,65.52,13.63,65.55,13.67Zm-1,.47,0,.07-.06,0,0,0-.19.09,0-.07Zm.17,1.25,0,.14,0,0-.11,0,0-.06.11-.13Zm0,2.2-.16.13h.11l0,0Zm0-3.57,0,0v.11l-.07.05-.07-.1Zm.37,1.46v.11l0,0H65v.06l-.1.07-.19.09,0,0,0-.18.25-.08.07-.1H65Zm-.17,1-.12,0-.08.11,0,0q.14-.11.18,0v.14l0,0S65,16.63,64.88,16.48Zm0,1-.14.1,0,0,.13-.1Zm.41-.82-.1.07,0,.07,0,0H65a.69.69,0,0,1-.25.29l0,0,.26-.14.3-.28ZM65,16.32l-.07.11,0,0,.1-.07Zm.25.68-.09.08,0,.17.12,0,.09-.08Zm.08.31.07.1.07-.05,0,0Zm.31-3.42,0,0-.13.1,0,0ZM66.12,17l-.1.07,0,0,.1-.07Zm.13.31-.07,0,0,0,.06-.05Z"/><path class="cls-4" d="M69.77,19l.27.51,0,.16.11.12-.07.13-.4.22-.17,0,.07-.22-.07,0,0,0-.34.23-.54.29v0l.17.05.29-.15.07-.13.18-.1.11,0-.23.26-.61.33,0,.13.27-.1.09-.1.25,0,0,0-.17.19,0,0,0-.07-.14.08,0,.13.31-.12v-.06l0,0,.31-.12.52-.32.26-.05v.19c.1-.05.16-.06.19,0l.15.29-.07,0,0,0-.06,0L70.4,21l-.65.44-.28.09-.52.33-3.07,1.64-.33.09,0,0c-.11.07-.16.12-.14.16h-.06l-.23.17-.07,0-.89.43-.27.19-.2.06-.2.15-.16,0-.56.35-.94.5-.17,0-.08-.15c-.12-.24-.17-.37-.12-.4l-.18-.18-.12-.3-.06,0,0,0,0-.05L60.79,24l-.12-.22s.06-.13.24-.26l.16,0,.74-.44.43-.23,0,0V23l0,0,0,0,.23-.17,0,0-.06-.11,0,0c.43-.23.71-.32.83-.26l.08,0a.44.44,0,0,1,.19-.24l.15-.08.34-.14.34-.23.08,0,.31-.11.37-.25,1.16-.62.56-.35.06,0,0,0,.49-.31.43-.23.46-.19v-.06l.06,0,0,0c-.07,0-.1.09-.07.13l0,0,.24-.08.12-.11.13,0v0l0-.07-.31.11,0,0,.09-.1.2-.06.27-.19.43-.14.09-.09Zm-8.42,4.78L61,24c0,.05.14,0,.34,0l0-.06Zm-.13-.26-.11.06,0,0,.11-.06Zm.92.07-.33.18c-.05,0,0,.14,0,.34l0,.06-.25.13,0,.08.08-.1.2-.06.15-.08,0-.11,0-.07L62,24s0-.15.2-.34Zm-.21-.12-.11.06,0,0,.11-.06Zm.38,1-.08,0,.06.11.15-.08,0,0Zm.76-1.62-.2.06-.29.16c-.18.1-.26.18-.23.26l.76-.4Zm-.39.49-.33.18.11,0,.19-.1Zm1.15.59-.13,0V24l0,.07.07,0Zm.61-1.9-.11.06,0,.07.11-.06Zm.1.88-.18.09,0,.08.18-.1Zm.24.19v.09l.11-.06Zm.24.1-.1.06.11,0v-.06Zm.23.26-.07,0,0,0,.07,0Zm.87-1.17-.51.27,0,.12h.18a.83.83,0,0,1,.36-.28l0-.06Zm-.16.41-.1.06,0,0,.1-.06Zm1.14-.74L67,22l-.07.13-.5.27,0,.12.73-.39,0-.11Zm-.19-.18c-.33.2-.48.32-.45.38l.55-.29Zm.82.21-.28.1-.32.18c.05.09.21.07.47-.07l.14-.17Zm0-1.83-.08,0,0,.11.14-.08Zm.42,0-.44.23.06.11.27-.1.17-.13Zm-.07.31,0,0,0,0,.11,0,0,0,0,0Zm.31.49-.11.06,0,.11.18-.1Zm.18-.7-.21.11,0,.07,0,0,.16-.13Zm.35.74-.11.06,0,0,.11-.06Zm.29-1.46-.1.06,0,.11.17,0v-.06ZM69.39,21l-.11.06,0,0,.11-.06Zm.27-1.4,0,0-.09.09-.23.08,0,.08.36-.2Zm0-.33-.11.06,0,.07.09-.09Zm.32.43-.32.18,0,0,.32-.17Zm-.08,1,0,.11.14-.08Zm.38-.16-.2.06,0,.06,0,0,.22-.11Z"/><path class="cls-4" d="M71.46,22.87l.19.5,0,.05.06,0v0l0,.17.14.26.62,1.69-.21,0v.13l.23-.08,0,.11-.05.11.14.12,0,.06,0,.11.08.1,0,0-.14.09-1.62.6-.16-.07-.14-.39,0-.14-.12-.09-.08-.23s0-.09.09-.12l0-.05v0l-.17,0-.09-.24-1.46.54,0,0,0,0-.27.1,0,.21,0,0,0,.05,0,.16,0,0,0,0,.06.16,0,0,0,.06v0l.18.37a.22.22,0,0,1-.17.24l-1,.37s-.09,0-.13-.12l-.23.08-.14.23L67,28.13l0-.05L67,27.92l-.06,0,0-.18-.09-.14,0-.11h0l.16,0,.25-.18,0-.07-.37.18-.08,0s-.09,0-.12-.08l0,0v0a.36.36,0,0,0-.46-.18l-.18.11H66l-.44.21-.39.14-1.1.45-.18,0,0,.05-.19.07,0-.08.32-.2c0-.06-.09-.08-.2-.06s-.23.21-.21.25l.08.11h0l-.12.13.14.17-.07.16h.22c0-.07.19-.16.47-.26l0-.05,0,0-.3.11-.21,0v0q0-.09.75-.45l.08.1,0,.05,0,0,.15.29-.14.1v0l.12,0c0,.08-.07.16-.3.25l.08.1.27-.1.1,0,0,.1,0,0h0l-.51.28h-.26l-.28.19-.4.11,0-.12.19-.07,0-.08-.17.11c0-.07-.1-.09-.2-.05s-.07-.07-.14,0L62.74,29l-.53-1.42c0-.13,0-.2,0-.22l-.16-.21-.22-.57.08-.16,1.31-.48.14-.1.41-.06,0,0,.16-.06v0s0,.1-.2.16v0l.77-.29v0l-.05,0,0,0c.13,0,.19-.09.17-.14.29-.08.44-.1.46,0l0,.07.15-.05,0-.16.34-.13.2.06.36-.22.05,0,.43-.25.08,0,0,0,.44-.21,1.43-.52h.26l.2-.16.88-.33.29-.06,0,0,.06,0L71,23l.24,0,0-.05,0,0Zm-8.89,4-.35.13,0,.07h0l.14-.1h.13l0-.05Zm.26-.36-.46.17,0,.08.46-.17Zm0,.27-.12.05,0,0,.11-.05Zm.61,0-.12,0c-.41.15-.6.27-.57.34l.55-.16q.18-.12.15-.18Zm1.36,2.51,0,.08-.37.18h0l0,0,0,0-.57.22,0,0-.05,0-.5.19-.11-.18c0-.13,0-.2,0-.22l-.13-.13c0-.14,0-.22,0-.23s.1.18.18.15l0,.18,0,0h0l.57-.25.18,0,.35-.22h.13l0,.07,0,.15.21,0ZM63.13,29,63,29l0,0h.13l0-.05ZM63.4,26l-.08,0,0,0,.07,0Zm.46,1.49-.48.13,0,.05v0l.45-.08Zm-.16-.2-.27.1,0,.07.19-.07Zm.17,1.29-.34.17,0,0,.11.05.19-.07,0-.1Zm-.19-2.42-.12,0v0h.13Zm.58.27-.24.08-.2,0,0-.07,0-.05v0l-.12,0,.06,0,0,.12-.22.12,0,0a.26.26,0,0,1,.27,0l.2-.16.23-.09Zm0,2.27-.5.18-.07.16.14,0L64,29a.63.63,0,0,1,.32-.29Zm-.13.7-.08,0,0,0-.1.08,0,0,.1.05h0l0-.11Zm1.17-3.93-.11.05-.22.12,0,0h0l-.43.25-.25,0L64,26l0,.07,1.27-.46,0-.11ZM64,26.74l0,.15,0,0,.1-.09.21,0,0,0Q64.21,26.68,64,26.74Zm1.14.24L65,27l-.71.34-.24.05,0,.05,0,0,1.08-.39Zm-1-1.4,0,0-.08,0v0Zm.17,2-.16.05,0,0,.15-.06Zm.06-2.08,0,0-.12,0v0Zm0,2.6-.12,0v0h.13Zm.64-.85-.46.17-.25.14v0l.17,0,.25-.14.39-.14Zm.73-1.71h-.13l-.9.42-.34.12,0,.11.62-.23.21-.12.17,0,.43-.25Zm-.8.91-.62.23,0,.08,0,0,.36-.09C65,26.56,65.06,26.5,65.05,26.45Zm-.3,2.65,0,0h0l-.11-.05,0-.05h0Zm.51-2.42h0l-.43.12-.11.08,0,.08.58-.21ZM65,29.14v0l0,.1,0,0v0l0-.11Zm.37-2.8-.24.08,0,0,.21,0,0-.05Zm.06.54-.11,0v0l.12,0Zm.24-.65-.23.08q0,.07.15,0l.1-.08Zm-.16-.82,0,0,0,.07.11,0ZM66,26.9l-.37.18-.08,0,0,.08.19-.07.28-.06,0,0,0,0,0,0Zm-.11-.17-.12,0,0,0,.11,0Zm.2-1-.19.07.1.05h0Zm.17.82h-.13l0,.14.12,0Zm.07-.64L66.1,26v0l.11.05.07,0Zm1.09.12-.46.17-.62.32v0h.13l.18-.11h.13l.66-.33Zm-.93-.75-.08,0,0,.08Zm0,.3-.07,0v0l.08,0Zm.2.19h-.13l-.1.08,0,0h.13l.1-.09Zm0,.26-.07,0,0,.08.08,0Zm0-1.15-.08,0,0,.08.08,0Zm.1.27-.08,0,0,0,.07,0Zm.11,2-.08,0,0,0,.07,0Zm0-2.18.08.23.26-.13.27-.1C67.48,24.87,67.28,24.87,66.9,24.94ZM67,27.05l0,.06v0l.12,0Zm.12-1.22-.08,0,0,.08Zm.24-.65h0l-.25.14,0,.07.07,0,0-.06,0,0,0,0,.1-.08Zm0,.31h0l-.18.11v0h.13l.18-.1Zm0,2-.11,0v0l.11.05,0-.05Zm0-1.76-.11,0,.1.05,0-.06Zm.15-1.15-.21,0-.05.11,0,0,.27-.1Zm-.2,3.13,0,.11,0,.08.15-.06,0-.08Zm.07-1.12,0,0,0,.08,0,0Zm.2.19-.16.06,0,.08.08,0Zm.4-1.28-.44.12-.1.08.16.07C67.83,25.66,68,25.57,67.94,25.52Zm-.46.78h0l0,.08h0Zm.39-.49-.22.12h-.13l0,.06,0,.07.44-.2Zm-.17,1.55-.08,0,.08.23.12-.05v0Zm.24-2.67-.08,0,0,.07.08,0Zm0,.27,0,0,0,.07h0Zm.1.27-.06,0-.07,0,0,.11h0Zm.24,1-.27.1,0,.07.27-.1Zm-.14-.48-.07,0v0l.08,0Zm.48-1.31-.11,0v0l.12,0Zm.68-.29-.34.12,0,.08.35-.13Zm.35.7-.62.22,0,.11.62-.23Zm-.15-1.13-.23.09-.18.11,0,.08L69.2,24l.09-.12.17,0,0-.05Zm.12,2-.2,0,0,.06,0,0,.23-.08Zm.11-2.09-.16.06.11,0Zm0,1.75-.12,0,0,.08h0Zm.45-.78-.11,0,0,.11.19-.07Zm-.08-.23-.08,0v0l.08,0Zm.68-1.12-.48.13,0,0h-.13l-.11.08,0,0,.21,0,0,0,0,0h0l.41-.2Zm-.51,2.19-.15.06v0l.16-.06ZM71,24l-.37.18-.27.09,0,.08.56-.25.12,0L71,24Zm-.5-.3-.08,0,0,0,.07,0Zm.2,1.85-.08,0v0l.08,0Zm.27-.1,0,0-.08,0-.05.11.05,0,.08,0Zm.55-1.95c-.08,0-.13,0-.15,0l0-.14,0,0h0l0,0,0,0,.06,0v0l0,.21.2-.07Zm-.17,1.46h0l0,.11.11-.05Zm.1.27-.11,0,0,.08,0,0Zm.22-1-.15.06-.18.11v0l.32-.08,0-.05Zm0,1.69-.27.1,0,.07L71.7,26Zm.09-.6-.31.11,0,.08.23-.09Zm-.07-.54-.08,0,0,0,.07,0Zm.65,1.42-.11,0v0l.12-.05Z"/><path class="cls-4" d="M74.16,31c.06.35,0,.57-.09.69l.1.1a2,2,0,0,1-.66,1.53l-.41.24H73l0,0h0q0,.15-1.59.48l-.1-.11-.08-.48,0,0,0,0-.17-1,0-.05-.05,0v0c0-.16,0-.25.08-.26l.13,0V32l.11-.1.38,0h0c.52-.2.77-.35.75-.46v-.08c0-.27-.29-.37-.72-.29l-.36.06c-.54.09-.94.5-1.21,1.24-.68,1.37-1.38,2.11-2.11,2.23a2.9,2.9,0,0,1-1,.3v0l0,0-.28,0,0,0,0,0-.08,0s-.09,0-.11-.15l0,0h-.09a.27.27,0,0,1,0,.22,2.12,2.12,0,0,1-.85-.07l0,0h0q-.52-.1-.63-.27l.12,0v-.08l-.2.07a2.39,2.39,0,0,1-1-1.65l.16-.07a.54.54,0,0,0-.22-.34l.13-.19-.1-.11v0l.07-.09,0,0v0c0-.31.06-.47.17-.49l0-.2c.06-.29.29-.47.7-.54h.08l-.06-.12-.24.05v0c.09-.2.43-.41,1-.64l.1.07h0a.44.44,0,0,1,.26-.17l.57-.1.44-.12.12,0,.2-.07.11.15.08.73.06.12,0,0,.11.4.09.53-.1.14c-.33,0-.5,0-.5,0l-.09-.28,0,0,0,0h.08l.07-.1v0l-.12,0,0,.05,0,0h0l-.12.06-.33,0-.19.07v.08l0,0v0a1.77,1.77,0,0,1-.55.22c0,.06-.06.19-.23.37v.25l.17.26q.58,0,.6.06L66,33h-.21l-.15.06.14.1.12,0,0,0,.18.05v-.25c.88-.15,1.42-.49,1.61-1a7.18,7.18,0,0,1,1.58-2.27l1.16-.49h.21l.11-.06.13,0,.28-.09c1.16-.14,1.93.06,2.31.61l0,.05c.11,0,.17,0,.19.09s0,.09-.11.1V30c.11,0,.17,0,.18.05v.05l-.51.13.09.06.36-.06h.21v.21l.09.06v0l0,.05.11.15c-.1.06-.15.11-.14.15v0C74.07,30.87,74.15,30.9,74.16,31Zm-10.39.81s-.07.1-.08.26h0l0,0v.09l.1.06h.08v0l-.09-.28h0Zm.47.55-.42,0,0,0v.08l.45-.07Zm0,.49-.4.11v0l.37,0,0,0ZM64,31.17l0,0v.08l.09.07.07-.09Zm.25.25-.2.07,0,.08a.21.21,0,0,1,.28.2h.08l.07-.1C64.35,31.49,64.26,31.41,64.21,31.42Zm-.11.31h0v.08h0Zm.26,1.32-.08,0v0l.08,0Zm1.09-2.43-.29.05,0,.12h.21l.11-.06Zm0,.33-.28,0v.08l.29,0Zm-.11.56-.12,0v0l.12,0Zm.33,2.89-.09,0-.27.09.14.1.23-.12Zm-.27-4-.08,0v0l.08,0ZM66,33.82c-.29.07-.43.13-.42.19l.36-.06.07-.09Zm.21-2.7h-.46l0,.13.44-.08ZM66,33.37l0,0-.12,0v.08l0,0v0l0,0h0l0,.05,0,.12.12,0,0-.13ZM66.8,31l-.2.07,0,0v0l-.12.06,0,.08h.08v0l.11-.07.13,0v.09l-.47.16H66l0,.05v0l.05,0,.93-.15,0-.17-.08,0V31.1l.08,0v0Zm-.22.7,0,.12h-.25l0-.08.15-.11Zm.22-1.2-.17,0v.05l.16,0Zm.11-.31h-.08v0h.08Zm1.43,1.58-.2,0v0l.2,0Zm2-1.25-.17,0,0,.12.16,0Zm0,.25h0l0,.12.12,0v0Zm.34-1.14H70.6l0,.12h.08Zm.56,2.57h-.08v0h.08Zm.89-.15h-.2l-.25,0,.14.1.13,0,.19-.07Zm.32-.1-.16,0,.09.07.17,0Zm1.5-.25-.26,0-.35.14-.52.09-.2.07v0c0,.08.07.12.18.1a.72.72,0,0,1,.38-.19q.38,0,.39.06l-.07.09.12,0,0-.16.29-.05.06-.09Zm-.88-1.48-.08,0-.06.09H73Zm0-.54h0l-.06.09.2,0Zm.13,1-.13,0,0,.12.12,0Zm.45.22-.49.08c0,.05.06.07.14.06l.36-.1Zm-.19,1.57-.29,0v.05l.1.06.2,0Zm-.14-2.56-.13,0,0,.08.12,0Zm0,2.08,0,.05v0l.12,0Zm.42.72-.28.09h-.08v0l.09.07.25,0,.06-.1,0,0Z"/><circle class="cls-5" cx="37.4" cy="37.4" r="24.93"/><ellipse class="cls-6" cx="37.4" cy="26.4" rx="18.29" ry="12.93"/></g></g></g></svg>