<svg xmlns="http://www.w3.org/2000/svg" xmlns:xlink="http://www.w3.org/1999/xlink" viewBox="0 0 74.8 74.8"><defs><style>.cls-1{opacity:0;}.cls-2,.cls-7{fill:#fff;}.cls-3{fill:url(#radial-gradient);}.cls-4{fill:#ec0e7a;}.cls-5{fill:url(#radial-gradient-2);}.cls-6{fill:url(#linear-gradient);}.cls-7{fill-rule:evenodd;}</style><radialGradient id="radial-gradient" cx="37.4" cy="62.33" r="19.47" gradientTransform="translate(0 54) scale(1 0.13)" gradientUnits="userSpaceOnUse"><stop offset="0"/><stop offset="0.32" stop-color="#231f20" stop-opacity="0.6"/><stop offset="1" stop-opacity="0"/></radialGradient><radialGradient id="radial-gradient-2" cx="37.4" cy="37.4" r="24.93" gradientUnits="userSpaceOnUse"><stop offset="0.64" stop-opacity="0"/><stop offset="0.95" stop-color="#231f20" stop-opacity="0.29"/><stop offset="1" stop-opacity="0.5"/></radialGradient><linearGradient id="linear-gradient" x1="37.4" y1="39.33" x2="37.4" y2="13.47" gradientUnits="userSpaceOnUse"><stop offset="0" stop-color="#fff" stop-opacity="0"/><stop offset="1" stop-color="#fff" stop-opacity="0.7"/></linearGradient></defs><title>orb-dance-wtext</title><g id="Layer_2" data-name="Layer 2"><g id="Layer_1-2" data-name="Layer 1"><g id="orb-dance-wtext"><g class="cls-1"><circle class="cls-2" cx="37.4" cy="37.4" r="37.4"/></g><ellipse class="cls-3" cx="37.4" cy="62.33" rx="21.95" ry="3.59"/><circle class="cls-4" cx="37.4" cy="37.4" r="24.93"/><circle class="cls-5" cx="37.4" cy="37.4" r="24.93"/><ellipse class="cls-6" cx="37.4" cy="26.4" rx="18.29" ry="12.93"/><polygon class="cls-7" points="48.51 53 40.03 40.73 40.1 40.76 38.77 38.88 40.67 35.63 40.37 31.78 38.96 30.89 41.9 21.8 36.61 31.98 37.67 34.89 38.69 31.73 38.44 38.42 38.19 38.07 36.35 35.42 36.33 35.46 36.32 35.44 30.27 34.89 21.81 26.43 28.68 36.74 34.6 38.82 48.51 53"/><polygon class="cls-7" points="32.67 30.37 29.86 32.82 34.18 31.1 36.07 32.02 37.09 29.94 34.08 29.14 34.08 29.14 25.29 26.81 32.67 30.37"/><path class="cls-4" d="M20.4,4.29,21.12,4l.05,0,0-.06.19-.08.06,0,0,0,.86-.38.11,0,.19-.18h0l.21-.05.16.38,0-.11-.13-.3.12,0,.1,0,.08-.13c.58-.18.91-.18,1,0l.18.32.12.27.1,0L24.33,3h0c.05,0,.1,0,.16.15h.12l.05-.11a.43.43,0,0,1,.22.22l.28.64,0,0,0-.05,0,0-.06,0,0-.11,0-.06-.06,0L25,3.27c.08,0,.23.12.47.47.05,0,.1,0,.17.19h0l0,.2,0,0,.22.3.37,1,0,.11v0l.21.17,0,.21.05,0,0,.2.1.23.17.28v.13L27.49,8l.4.91,0,.16.11.14,0,.05,0,0,.1.13,0,0,.05,0,.07.15c.41,1.2.47,1.85.18,2,0,.1-.11.3-.46.6l-.05,0h0l-.15.16-.06,0,0,0-.16.15-.05,0,0,0,0,.06-.11,0-.11,0L27,12.09l-.1-.05.19.46-.06.16-.06,0-.24.15-.08,0a.41.41,0,0,1-.31,0l0,.15-.14,0,0,.05-.15.07-.11-.13-.07,0q.07.18,0,.24l-.08,0a.54.54,0,0,1-.31,0l-.07.16-.33.15-.25.06-.17.12h0l-.16-.06-.23-.53,0-.26-.2-.26-.2-.77-.21-.27.05-.11-.13-.08,0-.05-.08-.19,0,0,0-.05-.07-.15-.15-.25,0-.17-.55-1.15-.26-.6.11,0,.05.11.08,0,0-.26,0,0-.12-.09,0-.14c-.05,0-.12,0-.22-.22L22,7.66h-.13l0,.06-.1-.23,0-.14-.26-.61-.12,0,0-.07-.17-.51-.12-.17,0-.17-.3-.58-.39-.91Zm1,.18,0,.08.08,0,0-.07Zm.06,1.9.12.26.15.25,0-.06h0l-.22-.31,0-.17Zm.23-.82,0,.17L22,6l.06.25.05.11.08,0L22,6.05l-.14-.21,0-.21-.05-.11Zm.21,1.83,0,0,0,0,0,0,.1-.09L22,7.24l-.07,0Zm.13.3.05.12a.38.38,0,0,1,.21.17h0l-.07-.28-.05-.12-.11,0Zm.14-1.75,0,.07h0l0-.08Zm0-.46.07.15,0-.11Zm.08,1.93.05.12.18.32v.22l.24.34h0L22.7,8l0,0V7.83l-.11,0V7.65l-.2-.36Zm0-2.33.11,0,0-.07Zm0,.62.07.16.07,0,0-.07Zm.05,2.4,0,.05,0,0,.05,0,0,0,0,0,0,0-.05,0Zm0-3.42,0,0,.11,0-.08-.19Zm0,3.6,0,.06,0,0,.11,0,0-.06,0,0Zm0-4.15.3.68.1,0h0l-.29-.68-.11,0Zm.09,3.09,0,.06.1.22.1,0,0-.3Zm0,1.29,0,.08,0,0,0-.08Zm.16-3.24.05.11,0,0-.05-.11Zm0-1.09.06.16,0-.11Zm.05,3.64.08.19.05-.1,0,0Zm0,.67,0,.07.11,0,0-.08Zm0-4.7L23,4l.07.15,0,.06.05,0,.29.68h0l-.17,0a.43.43,0,0,0-.15.29l.18.41.21.27,0,.14,1.22,2.51.06.25.48,1,.23.52,0,.11-.12-.17L25.05,10,25,10l.52,1.21c0,.05.09.05.22,0l.16.07c.33-.21.39-.55.19-1l0-.08-.18-.32-.26-.69-.18-.42-.11-.35-.2-.27,0-.37L25,7.66,25,7.55l-.22-.49,0,0,.05.11-.12,0-.06-.15c-.08-.17-.08-.28,0-.31l-.26-.6A2.42,2.42,0,0,0,24,5.53l0,0,0,0a1.09,1.09,0,0,0-.61-.58l-.34-.79-.15-.25,0,0-.09-.09,0,0Zm.08,6,.15.25,0,0-.15-.34Zm0-5.36.05.11,0,0,0-.11Zm0,2L23,6.6l.08,0L23,6.34Zm0,2.32,0,.07h0l0-.08ZM23,7.6l0,.08.08,0,0-.08Zm0,.63.16.38.08,0-.13-.3Zm0-1.18.16.38.11,0L23.1,7.1Zm.05.74.13.3.11.05-.17-.38Zm0-4.07.25.56.11,0L23.31,4C23.23,3.78,23.14,3.7,23.06,3.72Zm.14-.42,0,.08,0,0,0-.08Zm0,3.07.16.38.11,0-.2-.45Zm.05.74.1.22.12.18,0,0-.09-.32-.08-.09Zm0-3.55.13.3.11.05-.08-.19-.12-.17Zm0,4.91.09.1,0,0-.1-.23C23.31,8.35,23.3,8.39,23.33,8.47Zm0-.68,0,.11,0-.1-.05,0Zm.14-.91,0,.08,0,0,0-.08Zm0,.66,0,.12.08,0,0,0Zm0,3.53.23.53,0,0,0-.17-.2-.36ZM23.69,8l0,0,.11,0-.08-.19Zm0-3.51.05.11.11.05-.09-.19Zm.14,6.82.05.12.1,0L24,11.24Zm0,.61L24,12l0,0,0-.07Zm0-8.15.1.22.07,0L24,3.7Zm.16,6.86,0,.07.07,0,0-.07Zm0-7.16.41.94.12.17,0,0-.06-.24-.43-.89Zm0,.66.26.6.11,0-.29-.67ZM24.24,12l.18.41,0-.1-.11-.27Zm0-2.92.15.34,0-.11-.11-.26Zm0-4.17.05.12,0,0-.05-.11Zm0,.66.06.16c.2.45.33.66.41.62l-.26-.6Q24.44,5.57,24.32,5.58Zm0,6.07.13.3.08,0-.13-.3Zm0-6.5.14.34.12,0,0,0C24.56,5.21,24.48,5.13,24.4,5.15Zm.05,3.73.11,0-.07-.15Zm0,1.25.07.15.12.17,0-.11,0-.07-.16-.16Zm.06,3,0,.07,0,0,0-.07Zm0-.5.05.11,0-.1-.05,0Zm.06-1.1.05.11.07,0v0Zm0-6,.2.45.11,0h0l-.22-.53ZM24.66,13l.09.19.07,0L24.77,13Zm0-7.83.12.27.07,0-.08-.18Zm0,6.69.11.27.08,0-.12-.26Zm0-7.2.05.11h0l0-.11Zm0-1.21,0,.08.11,0-.06-.15Zm.09.81,0,.12,0,0,0-.11Zm0,2.36,0,.11,0,0-.05-.11Zm.06-2.13.2.36.05.11.08,0-.12-.17-.06-.24Zm0,1.25c.13.27.23.39.29.36l-.1-.22L25,5.7Zm0,1.06.16.38.08,0L25,6.84Zm0,3.75.09.23.11,0-.1-.22Zm0,2,.08.1,0,0,0-.07,0,0-.08-.1Zm.07-6,0,.21.09.09.11,0,0-.07Q25.18,6.45,25.06,6.47Zm.1,5.9v0l.12.17h0l0-.11-.06-.15-.11,0Zm.05-1.32.2.46,0-.11L25.29,11Zm0-6.57.19.45.11,0-.2-.45Zm.07,1.93,0,.08,0,0,0-.08Zm.05-.51,0,0,.15.25.1.23.07,0-.19-.45Zm0,4.65,0,0,.08.1-.07,0Zm.06-6.37,0,.05,0,.07.23.44.08,0-.16-.25-.07-.28-.06,0Zm0,2.46.11.26.11,0-.11-.26Zm0-1.14,0,.11h0l-.05-.12Zm0,5.27h0l0,.07,0,0Zm0,.92.06.15.08,0,0-.07Zm.05.74,0,.08.11,0,0-.05v0l-.11-.05Zm0-6.7.2.45.11,0-.23-.53Zm.11-.37,0,0,.11,0-.05-.11Zm.17.38.1,0-.06-.15Zm.05,6.73.05.11,0,0,0-.11Zm0-6.08.12.26.07,0-.15-.25Zm0,.62.1.23L26,7.13l0-.08Zm.13-1,.13.3,0-.1L26.08,6Zm.14,1.55,0,.08.07,0,0-.08Zm0-.58.11.26.11,0L26.23,7Zm.08,2.55,0,0,.1,0-.05-.11Zm.2-3.25.08.18,0-.1,0,0Zm0,.62,0,.08.13.08,0,0v0l.14.21,0,0-.24-.56h0Zm0,3.69,0,.08,0,0,0-.07Zm0-.58.06.15.05-.11Zm.11-.36.07.15.07,0-.06-.15Zm.05,2.48.14.43.07,0-.17-.42Zm0-.51,0,.07h0l0-.08Zm0-4.74,0,.11,0,0,0-.11Zm.08,2.56.16.37h0c.06,0,.05-.16,0-.39l-.05,0Zm0-1.84.08.19.11,0-.12-.26Zm.07-.35.1.23.28.55.08,0-.11-.14,0,0v0l-.12-.17L27,7.29l-.05,0Zm0,4.19,0,.08.08,0,0-.08ZM27,8.06l.11.27.36.73h0l0-.08h0l-.16-.25-.07-.28-.09-.1,0-.05v0L27,8Zm0,3.7,0,.2,0,.08.16.06-.13-.3Zm.26,0,0,0,.1.05-.05-.12Zm.08-2.41,0,.08,0,0,0-.07Zm0-1v.13l.05,0,.1.22h.13l0,0-.2-.36Zm.34,1.82,0,.08.08,0,0-.08Zm0-1.13,0,.16.23.44,0,0L28,9.24l-.06,0v0l0-.17,0,0Zm0,.75.06.15.11,0h0l-.07-.15-.11,0ZM28,11.39l0,.08,0,0,0-.07Z"/><path class="cls-4" d="M28.73,1.14l.29,0L31.3.64l.37,0v0C31.8.54,32,1,32.25,2l.87,2.54,0,.29q.28.66,1.86,5.49l-.1.1-2,.4c-.07,0-.12,0-.16-.14l-.3-1.11,0-.13c-.07-.26-.14-.39-.2-.38l-.68.14v.2c.19,1,.23,1.54.11,1.65h0l-.34,0-.11.07h-.25l-.24,0-.31.15-.76.15-.14-.06-.21-3h0L28.65,1.2l.09,0Zm.92,1.32.12.57a1,1,0,0,1,0,.45l.1.28h0A.29.29,0,0,1,30,3.49L29.77,2.4Zm.14,1.77,0,.29.1.11v.21L30,5l0,.55c.06,0,.09,0,.11.1v.21l.08,0,0,.13C30,6,30,6.09,30,6.28l-.16.07.07.32.12,0L30,6.37l.05,0h0L30,6.15l.2,0,0-.24,0,0-.05,0,0-.16,0-.26L30,4.9l0-.12c.11,0,.14-.17.09-.43C30,4.24,29.93,4.21,29.79,4.23Zm.44,2v.25l.1.06h0v0l-.09-.27ZM30.28,8l0,.12L30.41,8V8Zm.1.53,0,.12.2,0V8.51Zm.05.24v.08l.2,0V8.71Zm.1.77,0,.12.24-.05,0-.12Zm.06.28,0,.12L31,9.85v.08L31,10v0l.05,0h0c0-.14,0-.21.08-.23L31,9.72v0l0,.05Zm.11-1.57.07.12h0l0-.12Zm0,.29,0,.21h0l0-.22,0-.08h0Zm.06.33,0,.12h0l0-.12Zm0-5.31c.22,2.08.32,3.29.3,3.62l.13.26.69-.13-1-3.77ZM31,8.44l0,.08.08,0,0-.08ZM31,10.09l0,.2.16,0,0-.12Zm.1.49,0,.12.11-.07v0Zm0,.2v.08l.1.06,0-.08Z"/><path class="cls-4" d="M36,.69h.37l0,0,0,0h.41c.06,0,.08.06.08.17S37,.83,37,.72h0l.16,0,0,0h0l.12,0,.25,0V.78l0,.16v.25c.14,0,.23.25.27.74L38.8,5.4l.13,0-.08-.16,0-.13,0-.49,0-1,0,0,0,0,0-.61L39,2.08l0-.16c.06,0,.11-.13.14-.37L39,1.47V1.14l.14-.37h.12l0,0,0,0h.08l.17,0,0,0h0l0,0h0l.37,0,.25,0,.16,0,.12,0,.13,0,.07.17,0,.2v.09l0,0-.05,0,0,1c-.06,0-.08,0-.08-.12h-.08v.32c.11,0,.16,0,.16.09V3l0,0,0,0v.33l-.08.08,0,0v.17c.11,0,.17,0,.17.12l-.05.25,0,0-.13.33v.08c.08,0,.12,0,.12.13s-.06.28-.09.28l.07.12,0,0,0,1.31-.05.37,0,.41,0,2,0,.16,0,.16v.13l0,0,0,0V11l-.08.08,0,0-.25.08,0,0,0,0h0l-.13,0-.45,0L39.2,11l-.33,0h0a.21.21,0,0,1-.23-.25l0-.16-.12-.13v0h.12V10.2h-.08c0,.11,0,.17-.09.17l-.14-.71.05-.28c-.15,0-.25-.35-.31-1a10.28,10.28,0,0,1-.41-1.65l0,0v0h-.08l0,.61,0,.41h0l0,0v.17l0,0,0,0,0,.49,0,1.93-.05.37,0,.25-.12.07-.25,0-.53,0-.2,0-.25,0h-.37l-.12-.12,0-.12,0-.42,0-1.47,0-.25,0-.2V8.19l0,0,0,0V8l0,0-.07-.46h0l0,0V7.33s.06-.08.16-.08v0l-.17,0,.1-.66,0,0V6.39h0l0-.62.06-2.42,0,0,0,0V3l0,0,0-.05V2.62l0-.13,0-.2V1.8L36,1.55l-.08-.2L36,1.27V1.22c0-.13,0-.2-.08-.2C35.91.8,36,.69,36,.69Zm-.22,8.82v.12h.09V9.51ZM36,3.28l-.05,0v0l0,0h0l.05,0v0l0,0Zm0-.87v0l.08.09,0,0V2.42Zm0,2.1v.28H36l0-.17,0-.12Zm0-1.85v.08h0V2.66ZM36,6.6v.08h.09Zm0-.25v.13l.08-.08,0,0Zm.14-3.81v.08h0V2.54Zm.06,2.51,0,0v0l.08.08,0,0v0Zm0-3.7v.17h0V1.35Zm0,2.1v.08h0V3.45Zm0,3.69v.12l.08.09.05,0V7.14Zm0,3.28v.09h0v-.09Zm.13-6.84,0,.2,0,0h.09V3.58Zm0-2.63v.2l0,.29h0l.05-.16Q36.52,1,36.41,1Zm0,1V2.1l.08.08V1.94Zm0,4.4v.24l.08-.08V6.33Zm0-1.6v.08h0V4.73Zm.05,3.16-.05.16h.12V8l0-.12Zm0-.09,0,0h0V7.72Zm0-.45v.17h.09V7.35Zm0,1v.08h0V8.38Zm.13-4.92v0l.08.08,0,0v0l0,0Zm0-2.09,0,.2,0,.12h.08V1.37Zm0,1.47,0,.17h.12V3l0-.13Zm0-1v.41l.08.08V1.78Zm.31,4V6.3c0,.08-.09.12-.25.11V6.5a.38.38,0,0,1,.32.13h0l0,0,.05-.13,0-.45V5.89Zm-.26.28v.08h0V6.17Zm.06,1v.13h.08V7.16Zm0,3.24v.09h.08V10.4Zm.15-7.5,0,0V3l.08.09,0,0V3Zm0-1v.24l.08.09V1.91ZM37,1.33V1.5H37V1.33ZM37,7v.13h.08V7Zm0,1v.16h.13V7.9Zm0,2.38v.08h0v-.08Zm.15-9v.12l.08.08,0,0V1.38l-.08-.08Zm0-.41v.24h.08V1Zm.23,2.05V3l.08.08,0,0V3Zm0-2v.09l.08.08V1.06Zm0,3.29,0,.2h.05v-.2Zm0-1.93v.08h.05V2.33Zm0,1.27v.25h.08V3.52Zm0,1.52V5.2h.08V5.12ZM37.68,3l.08.09h0l0-.13,0,0h0Zm0,2.3v0l.08.08,0,0V5.29Zm.31.54v.08h0V5.83ZM38,4v.08h0V4Zm0,3.89V8h.08V7.93Zm.18-2.21.08.09V5.63Zm0-1.23v.08l.08.09h0V4.49Zm0,4.39V9l.08.08,0,0V9l-.08-.09Zm.21-2.08v.08l0,.2h.08V7l0-.2Zm0-.74v.57h.08v-.2l0-.29,0,0,0,0Zm0-.29v.08h0V5.76Zm0,3.37v.24h.08v0l0-.2Zm0-.45v.16h0V8.68ZM38.76,7v.08l.08.08.09-.08L38.8,7Zm0,3.12,0,.12h.13v-.08l-.08-.08,0,0Zm0-3.86v.16h.12V6.3Zm0,2.42V8.8h.08v0Zm0,1.64v.09H39v0ZM39,6.23v.12h.08V6.23Zm0,2.33v.21l0,.29h0V8.57Zm0-.57V8.4h.08V8Zm0-.53,0,.2h.09v-.2Zm0-.25v.17l.09-.08V7.21Zm.18-3.93-.05.16,0,0,.21-.07,0,0v0l0,.2h.08l.05-.12,0,0,0,0c-.05,0-.08-.07-.08-.21h0v.08h0l-.12-.08Zm0,.69v.21l0,.25,0,.12h.08l0-.33,0-.24Zm0-.2v.12h.08V3.77Zm0-.21v0h.08v0ZM39.3,7v.13h0V7ZM39.49.94l0,.05h0l0,0V.87h0Zm0,3v.2h.08V3.94Zm0-1.68v.08h.08V2.26Zm0-.41v.08h.08V1.85Zm0,3.94v.12h.08V5.79Zm.06,2.79-.05.28a1.85,1.85,0,0,1,.06.74h0l0-.21V9l0-.29,0,0,0,0Zm0-1.19v.49l.08.08,0,0h0a1.07,1.07,0,0,1-.11-.54Zm0,2.3v.37h.08V9.69Zm0-1.56v.12h.09V8.13Zm0,2.34v.41h.08l.05-.16,0-.25Zm.14-5.54v.12h.08V4.93Zm.07,3.7v.2h.09V8.71Zm.2-4.8,0,0h0V3.75Zm0-.41V3.5h.08V3.42Zm.06,4.43v.08h.09V7.85Zm0,1.19v.08l0,.05,0,.12,0,.12h.08l.05-.2c0-.11-.08-.17-.12-.17Zm0,.87V10h0V9.91Zm.16-6.61v0l0,.21h.08V3.31Zm0-.49V3.1h.08V2.81Zm0,5.83,0,.12c0,.3,0,.45.11.46v-.5Zm0-4.84v.08h.08V3.8Zm.07,5.58V9.5h0V9.38ZM40.59,3v.21l.08.08v-.2Zm0-1v.08h0V2Zm.08.33h0v.08h0Z"/><path class="cls-4" d="M46.34,1.06l0,.14-.08.35.08,0,.08-.35.1-.06c.06,0,.07.05,0,.13l0,.05h0c0-.08.06-.11.11-.1h0l.06.1H47c.42.1.8.58,1.17,1.43A5.82,5.82,0,0,1,48,5.3l-.12.48-.15.46-.24-.06L47.32,6c0,.08-.06.11-.11.1L47.15,6l.09-.36h0a.2.2,0,0,0,.11.24l.1-.23.07-.49-.08,0c-.09.31-.17.46-.23.45l-.06-.1h0L47,6l0,0v0l-.05,0-.16,0,0-.29c-.05,0-.11.07-.19.25h0l0,0h0L46.44,6l-.14-.12h-.17l-.06-.1-.14.09-.17-.17,0,0h0l-.05-.14.11-.48c.36-1.46.49-2.21.38-2.23l-.27-.11q-.31-.07-.51.72l-.19.59,0,.05v0c-.17.53-.27.78-.31.77V5L44.3,7.48l-.17.68-.06.45,0,0v0c-.17.69-.14,1.06.1,1.12l0,.12.08,0c0-.11.12-.14.28-.1l.46-1.37.1-.06.14-.89.14-.09v0l.19.09h0l0,0,.1.11.26,0,.12,0c.13,0,.19.09.18.13l.05,0,.12,0,0,0,.18,0a.42.42,0,0,1,0,.3l.12,0V7.83l.14,0,0,.14-.07.28.08,0,.18-.38.15.08-.11.27,0,.16.06.09-.14.22,0,.25L47,9.06l0,.33a2.19,2.19,0,0,1-.51,1.06l0,.05v0c-.2.32-.39.5-.55.54h0l0-.12-.12,0-.08.32a2.17,2.17,0,0,1-1.72.29l-.09-.15.14-.55-.06-.1,0,0-.17.67h0c-.06,0-.08-.09-.07-.23h0l-.14.22c-.08,0-.11-.07-.09-.14l0,0h0a2.06,2.06,0,0,1-1.48-1.89A11.33,11.33,0,0,1,42.13,7l.35-1.43.13-.35V5l.12-.31,0-.05v0l.08-.15h0l.05,0L43,3.82l0,0,0,0V3.49c.24-.87.43-1.29.56-1.26l0,0v0c.12-.22.2-.33.25-.32h0l0,.12.08,0L44,1.69a.37.37,0,0,1,.32-.26c0-.07.11-.13.29-.18,0-.08.15-.15.39-.2l.12,0v.17h0c0-.21.17-.3.36-.25,0-.05.11-.06.3,0V1l0,.05h0ZM42.11,8l0,.12h0l0-.12Zm.1.65,0,.08h0l0-.08Zm0-1.59,0,.08.08,0,0-.08Zm.12.88v0l.06.1,0,0V8l0,0ZM42.57,7l0,.08.06.1,0-.08Zm.06,1.11,0,.16.1-.06,0-.08Zm.11.58,0,.12h0l0-.12Zm.12,1.93,0,.12h0l0-.12Zm0-3.92,0,.24.08,0V6.68Zm.13-2-.14.56.06.1.17-.72Zm.06,2.3,0,.16.07,0,.06-.24Zm.06,1.15-.09.36.08,0,.07-.28ZM43.22,5l-.15.6.08,0,0-.08h0l.11-.27,0-.16Zm-.08-.91,0,.16h0l0-.16Zm.1-.56L43.12,4c.06,0,.09,0,.11-.1l.05-.36Zm-.07,3,0,.12.06.1,0-.12Zm.13-2.08-.08.36.06.1.08-.36Zm0-1.43,0,.12.08,0v0Zm0,7.82-.05.2.1-.06v0Zm.1-7-.07.28h0l.1-.23,0-.05Zm.07.91-.12.52.06.1,0-.08h0C43.57,5,43.57,4.85,43.51,4.84Zm0-1.2,0,.12.06.1,0,0,0-.08-.06-.1Zm.06-.4,0,.08h0l0-.08Zm.27.1,0,.08h0v.21l-.16.64.08,0,.18-.72V3.35Zm-.06,1.6V5l0,.25-.06.1c-.07.35-.07.54,0,.55l0-.08L43.82,5Zm-.09,1.75v0l.08,0,0-.12Zm.05-4.34v0l.08,0,0-.12Zm.11,3.7-.05.2,0,.29h0l.1-.4Zm0-1.47-.06.24h0s.09,0,.11-.1V4.6Zm.11.74-.12.52.06.1.17-.55,0,0Zm0-2.62,0,.16L44,2.8Zm0,1.56,0,.08.08,0,0-.08ZM44,2.42l0,.16.1-.06Zm.08,2.43L44,5l.06.09,0,0,0-.15Zm0,5.19,0,.12.08,0,0-.12Zm0-8.06,0,.12h0l0-.12Zm0,2.42-.05,0c0,.22,0,.33,0,.35l.07-.28Zm0-2.63v0l.06.1.05-.2Zm.09,8.89-.07.32.09-.06,0-.16Zm.05-5.35-.06.24v.21h0l0-.16,0-.29Zm0-2.79,0,0h0l0-.12Zm.11,3.87,0,.12h0l0-.12Zm.17-1.06v0l-.17.89,0,0h0l0-.2V5.91l.17-.34,0-.22Zm-.1-3.87,0,.08.09.15,0-.12-.06-.1Zm.12,9.11-.06.24h.13l0-.16Zm.18-6.2L44.52,5l.06.1L44.65,5C44.75,4.61,44.77,4.39,44.69,4.37Zm0,6.42,0,.29h0l.08-.32,0,0Zm0-9.33,0,.12h0l0-.12Zm.14,8.73-.1.4.06.1.14-.56Zm0-6.79,0,.08.08,0,0-.08Zm.12-2,0,.16.06.1.06-.24Zm.15,8.69v0l.08,0v0Zm.41-1.84-.08.32.08,0,.08-.32Zm0,2.53,0,.08.06.1,0,0v0l-.06-.1Zm.27-5.42,0,.08h0l0-.08ZM45.92,9l0,.16.12,0,0-.08L46,9Zm.14-.56,0,.16.08,0V8.52Zm.25-6.7-.09.36.08,0,.09-.36Zm.06,7.66,0,.08h0l0-.08Zm.31-5.58,0,.08h0l0-.08Zm.13,4.8,0,.08h0l0-.08Zm1-3.55-.15.43,0,.37.05,0h0l0,0v0l.06-.11.1-.57Z"/><path class="cls-4" d="M51.16,2.9l.49.23,0,.05,0,0,0,0,.13.1.28.09,1.64.75-.12.17.09.09.11-.23.11,0,0,.11h.18l0,.05.11,0,.13,0,0,0,0,.17L53.71,6.2l-.16.06-.37-.18L53.1,6,53,6l-.22-.1s-.06-.07,0-.15l0-.05,0,0-.1.13-.23-.1-.65,1.42-.05,0,0,0-.12.26.17.13.05,0,0,0,.15.07.05,0,0,0,.15.07.06,0,0,.06h0l.39.14a.21.21,0,0,1,0,.29l-.44,1s-.09,0-.19,0l-.1.23L52,9.7l-.25.07,0-.06-.15-.07-.06,0-.11-.14-.17,0,0-.11,0,0,.11-.13,0-.3-.07,0-.14.39,0,.08s-.07.05-.15,0l0-.06h0a.38.38,0,0,0-.46.2l0,.2-.09.09-.17.47-.17.37-.46,1.1-.15.11,0,.06-.08.18-.08,0,.08-.37c-.06,0-.12,0-.18.1s0,.31,0,.33h.13l0,0v.18h.22l.06.17.16-.16a1,1,0,0,1,.15-.51l0-.06,0,0-.13.3-.13.17,0,0c-.06,0,0-.3.21-.85l.12,0,0,0,0,0,.32.1,0,.16,0,0,.06-.11c.07,0,.06.16,0,.39h.13l.12-.26.11,0,0,.11-.05,0,0,0-.17.55-.17.19-.07.33-.2.36-.12-.05.09-.19-.08,0,0,.2c-.08,0-.14,0-.18.1s-.1,0-.13.08l-.2,0L48,12.75c-.13-.05-.18-.11-.15-.16l-.26,0L47,12.31l-.06-.16.58-1.27,0-.17.25-.34,0,0,.07-.15,0,0s0,.11,0,.26h0l.34-.74,0,0-.06,0,0,0c0-.12.06-.19,0-.22q.23-.39.3-.36l.07,0L48.54,9l-.15-.07.16-.34.18-.09.09-.41.06,0L49,7.6l0-.08,0,0,.17-.46.63-1.38.18-.19,0-.26.39-.86.16-.24,0,0,0,0,.29-.81.14-.21,0-.06,0,0Zm-3.53,8.67-.2.45.07,0,.21-.44Zm.07.44-.15.34.07,0,0,0,0-.16.09-.1,0-.05Zm0-1.18,0,.08,0,0,0-.08Zm.11,1-.06.11h0l.05-.11ZM48,10l0,0,0,.08,0,0Zm0,.79,0,.11,0,0,.08-.09Zm.22.6,0,.11c-.18.4-.24.62-.16.65l.28-.51c0-.13,0-.21,0-.23Zm-.16-1.61,0,0-.06.11,0,0Zm.6-.63-.05.12-.06.24-.06,0,0,0-.13.49-.14.2-.1.23.07,0,.57-1.23,0-.11Zm-.06,1.42-.1.22-.13.17-.07,0,0-.06h0l0,.11,0,0,.12.05-.07.24,0,0c0-.11.12-.17.21-.17l0-.26.1-.23Zm.49-1.76L49,8.86l-.33.93-.16.34,0,.11.28-.6.06-.24L49,9.27l.13-.48Zm-.44,2.14.08.13,0,0,0-.13.12-.17,0,0C48.79,10.73,48.71,10.79,48.66,10.91Zm.16.62-.11.26.07,0,.09-.19Zm-.06-2.6,0,0,.08,0,0-.11Zm.32,2.63-.24.43,0,0,0,0,.26-.37Zm.1-1.58-.28.6.08,0,0,0,.19-.32C49.22,10.09,49.22,10,49.18,10Zm.45.3-.11.13-.25.74-.14.21,0,.05,0,0,.48-1Zm-.4-2.58,0,.08.07,0,0-.07Zm.09,2-.11.22,0,0,.12-.17,0-.05Zm.17.31,0,0-.22.4,0,.13.08,0,.25-.56Zm-.11-1.23L49.29,9l.11,0,0,0Zm0-.6,0,.07.08,0Zm.11,1.22-.1.23s.09,0,.13-.08V9.4Zm0-1.78.23.11.08-.28.12-.26C49.77,7.14,49.63,7.28,49.41,7.6Zm.08,3.65-.06.15,0,0,.07-.15ZM49.57,7l-.12.17,0,.1,0,0L49.65,7Zm-.08.86,0,.08h0l0-.07Zm.31,2.67-.21.45-.08.28h0l.1-.13.09-.28.17-.37Zm-.21,2.61-.07.15,0,0,.09-.09,0-.06Zm0-4.75,0,.08h0l0-.07Zm.11.36-.09.19,0,0,.11,0,0-.08ZM51,12.16l.08,0-.13.39,0,0-.06,0,0,0-.25.56,0,.06-.06,0-.22.48-.2-.05c-.13,0-.18-.11-.16-.16h-.18c-.11-.09-.15-.15-.13-.2s.2.05.23,0l.12.14,0,0,0,0,.22-.57.14-.12.1-.41.09-.09.07,0,.08.13.12-.17ZM49.75,10l0,.11h0l.05-.11Zm.09-1.68-.09.1v.13h0l.09-.09,0-.13Zm0,4-.12.36h0l.11,0,.09-.18,0-.11Zm0-4.86v0l-.09.27.08,0,0-.08,0-.05.06,0v0l0-.13Zm.06,2.15-.06.11h0l0-.11Zm0,1.94-.06.11,0,0,.09-.1Zm0-4.86,0,.07.08,0,0-.07Zm.17,3L50,10l0,.08.08,0,.08-.18.16-.25,0-.05,0,0,0,0Zm-.07-.43L50,9.31l.08.13,0-.12Zm0-.7,0,.07.08,0,0-.08Zm.19,3.61-.22.48.06.17.13-.08.05-.11a.64.64,0,0,1,0-.44Zm-.13-4.44v0l0,.2,0,0,.08-.1.05-.2Zm.44.34-.21.44-.22.67,0,0,.09-.1.05-.2.09-.09.23-.71ZM50.14,6.9l0,0,.08,0,0,0Zm0,1.19,0,.08.07,0Zm.08-2,0,.11,0,0,0-.11Zm.11-1.12-.1.22-.05.21.07,0,.05-.11,0-.15L50.43,5l0,0Zm-.09,2.94L50.23,8l.11,0,0-.05ZM50.4,7l0,0,0,.08.11,0,0,0Zm.16.25-.23.39v.13l.16-.06C50.58,7.45,50.61,7.3,50.56,7.27Zm0-1.91-.15.34.07,0,.16-.33Zm-.06-.65-.07.14.11,0Zm.16,8,0,.08,0,0v.13h0l.11,0v0l0-.11Zm.08-5.2-.06.25-.09.09,0,0,.07,0,.17-.47Zm.22-3.82-.24.43,0,0-.09.09v.13l0,0,.13-.17,0,0,0,0,0,0L51,3.72Zm-.09,8.35,0,.06v0l-.11,0,0,0v0Zm-.05-3.9,0,0,.07,0,0,0Zm.06-.83,0,.07,0,0,0-.08Zm.06,1.15,0,0,.08,0v0Zm.06.66,0,.08h0l0-.07ZM51,9l0,.05,0,0,0-.11Zm.31-3.42L51,6.21l0,.11.27-.6ZM51,11.92h0l0,.11,0,0,0,0,0-.1Zm0-7.8,0,.07,0,0,0-.08Zm.12,4.34-.07.15.08,0,0-.08Zm.1-.9-.12.26.08,0,.12-.27Zm0-2.59,0,.08,0,0,0-.08Zm.39-1.72c0,.08-.08.1-.13.08l-.08-.12,0,0,0,0,0,.06,0,0,.06,0,0,0,.17.12.09-.18Zm0,.72-.13.39-.12.26.07,0,.22-.58L51.71,4l-.05,0Zm-.14,1.11-.06.11,0,.11.09-.19Zm0,4.07,0,.11,0,0,.1,0,0-.06Zm.15.16,0,.11.08,0,.06-.15-.07,0Zm0-.57,0,.07.23.11,0-.11,0,0Zm0-2.79-.06.11.08,0,0,0Zm.17.31-.12.17,0,.05,0,0,.1-.23Zm.26-.65-.07.14,0,0,.07-.15Zm.15-1.92-.07.15,0,.2,0,0,.18-.28,0,0Zm.22,1.59,0,.08h0l0-.07Zm0-.88v0l0,.1.05-.11Zm.08.62-.06,0,0,.07,0,.11.06,0,0-.07Zm.1-1,0,.07,0,0,0-.08Zm.09.49-.06.11.08,0,0,0Zm.34-.16-.14.3.08,0,.1-.22Zm.36.48-.12.26.08,0L53.56,5Zm.67-.28,0,.12h0l0-.11Z"/></g></g></g></svg>