<svg xmlns="http://www.w3.org/2000/svg" xmlns:xlink="http://www.w3.org/1999/xlink" viewBox="0 0 74.8 74.8"><defs><style>.cls-1{opacity:0;}.cls-2{fill:#fff;}.cls-3{fill:url(#radial-gradient);}.cls-4{fill:#9464ac;}.cls-5{fill:url(#radial-gradient-2);}.cls-6{fill:url(#linear-gradient);}</style><radialGradient id="radial-gradient" cx="37.4" cy="62.33" r="19.47" gradientTransform="translate(0 54) scale(1 0.13)" gradientUnits="userSpaceOnUse"><stop offset="0"/><stop offset="0.32" stop-color="#231f20" stop-opacity="0.6"/><stop offset="1" stop-opacity="0"/></radialGradient><radialGradient id="radial-gradient-2" cx="37.4" cy="37.4" r="24.93" gradientUnits="userSpaceOnUse"><stop offset="0.75" stop-opacity="0"/><stop offset="0.96" stop-color="#231f20" stop-opacity="0.2"/><stop offset="1" stop-opacity="0.5"/></radialGradient><linearGradient id="linear-gradient" x1="37.4" y1="39.33" x2="37.4" y2="13.47" gradientUnits="userSpaceOnUse"><stop offset="0" stop-color="#fff" stop-opacity="0"/><stop offset="1" stop-color="#fff" stop-opacity="0.7"/></linearGradient></defs><title>orb-barbella-wtext</title><g id="Layer_2" data-name="Layer 2"><g id="Layer_1-2" data-name="Layer 1"><g id="orb-barbella-wtext"><g class="cls-1"><circle class="cls-2" cx="37.4" cy="37.4" r="37.4"/></g><ellipse class="cls-3" cx="37.4" cy="62.33" rx="21.95" ry="3.59"/><circle class="cls-4" cx="37.4" cy="37.4" r="24.93" transform="translate(-15.49 37.4) rotate(-45)"/><path class="cls-2" d="M19.59,37.87h-1.5a.47.47,0,1,1,0-.94h1.5a.47.47,0,0,1,0,.94Z"/><path class="cls-2" d="M21.46,41.2a.94.94,0,0,1-.94-.94V34.53a.94.94,0,0,1,1.87,0v5.73A.94.94,0,0,1,21.46,41.2Z"/><path class="cls-2" d="M24,42.09a.93.93,0,0,1-.93-.93V33.64a.94.94,0,1,1,1.87,0v7.52A.94.94,0,0,1,24,42.09Z"/><path class="cls-2" d="M56.71,37.87h-1.5a.47.47,0,0,1,0-.94h1.5a.47.47,0,0,1,0,.94Z"/><path class="cls-2" d="M53.34,41.2a.94.94,0,0,1-.94-.94V34.53a.94.94,0,0,1,1.88,0v5.73A.94.94,0,0,1,53.34,41.2Z"/><path class="cls-2" d="M50.84,42.09a.93.93,0,0,1-.93-.93V33.64a.94.94,0,1,1,1.87,0v7.52A.94.94,0,0,1,50.84,42.09Z"/><path class="cls-2" d="M48.85,37.87H26a.47.47,0,1,1,0-.94h22.9a.47.47,0,0,1,0,.94Z"/><circle class="cls-5" cx="37.4" cy="37.4" r="24.93"/><ellipse class="cls-6" cx="37.4" cy="26.4" rx="18.29" ry="12.93"/><path class="cls-4" d="M1.68,28.12,1.73,28l.12-.23,0-.2,0,0,.43.14.48.11,0,0-.11-.07-.8-.18,0,0,.37-1.13L2.43,26l0-.29a2.42,2.42,0,0,1,1-1.3,1.8,1.8,0,0,1,1.12-.15l.06,0,.11,0,0,.12.23.07,0-.08-.19-.06c0-.07.16-.08.35,0l.55.17.2,0v0h.13a2.06,2.06,0,0,1,1,.63H6.92L6.66,25l0,0,0,.08.43.14c.15.05.23.19.25.43l-.11,0v0c.13,0,.18.11.14.22l.12,0a.26.26,0,0,1,.22-.14l0-.05,0-.08a1.34,1.34,0,0,1,1.28-.36l.74.11,0,.05.2,0,.51.16c1.3.42,2,.88,2.14,1.39a.44.44,0,0,0,0,.31l0,.08-.17,0v0c.21.07.23.36.06.88l-.07.24-.12.09,0,.18-.12.09v.26l-.1.19-.1.44-.15.34-.09.4-.09.27-.19.46,0,.05-.15,0-2.77-.9L8,30.42l0-.05h0l-.48-.12a1.24,1.24,0,0,1-.63-.33l0,0H6.61v0l-1.25-.54-.49-.07-.08,0v0l-.48-.11L3,28.77l-.36-.07-.26-.13L2,28.48l-.26-.13-.06,0,0-.05v0l.05,0v0Zm.44-.81.11,0,0-.1h0Zm.62,1.28.07,0,0-.08-.08,0ZM3,25.14H3l0-.07,0,0Zm.29.05.08,0,0-.08-.07,0Zm0-.51.07,0,0-.08-.08,0Zm.12.56.27.09,0-.08-.27-.09Zm.14,3.28.15.05,0-.08-.08,0Zm0-.24.11,0,0-.1h0Zm.19.32h0L4,28.56l-.12,0Zm.13-.26.16.05,0-.08-.08,0Zm0-2.93.12,0,.1-.05-.11,0ZM4,26.7l0,.06,2.11.68.1-.05,0-.08,0,0v0l.16-.08v0l-.24-.34-.41-.17-.78-.26c-.5-.16-.8-.08-.9.23Zm.19-1,.74.24c0-.06-.06-.13-.23-.21l-.33-.06-.1-.08,0,0Zm0,1.9.08,0v0l-.08,0ZM4.26,26l.12,0v0l-.12,0ZM4.37,28h0l0-.08h0Zm.07-3.17h0l0-.07h0Zm0,2.38.08,0,0-.08-.07,0Zm.09-1.61.55.17,0-.07L5,25.61l-.25,0-.1-.08-.06,0Zm.22,3.56.28.09,0-.08-.28-.05Zm.16-1.28.12,0,0-.08,0,0Zm0-1.64,1.52.5.1-.06-.38-.16-.47-.15,0-.11.16-.08-.24-.07v0l.08,0,0,.12L5,26.15l-.08,0Zm.23-.44.07,0,0-.08-.08,0ZM5.4,29l.08,0v0l-.08,0Zm.12-.52.28.09,0-.08-.27-.09Zm.23-3.9.12,0,.1,0,0-.05H5.78Zm.09,1.07.12,0,0-.08-.12,0ZM6,27.62l.11-.05-.08,0ZM6.24,25l.27.09,0-.08-.27-.09Zm0,.53.35.11.1-.05-.22-.12-.21,0Zm.31,3h0l.1,0-.12,0Zm0-.51.31.11L7,28.09,6.73,28Zm0-1.32.24.08,0-.08h0l-.2,0Zm.12-.22.16.05v0l0-.1ZM7,26.28l.08,0,0-.08-.08,0Zm.52.94.31.1.1-.05-.1-.08,0,0h0l-.15-.09H7.48Zm.43.92.29.05,2.16.65.11-.09q-.09,0,0-.39h.39l.1.08,0-.08-.35-.11-.17,0a3.69,3.69,0,0,0-.87-.36l-.28-.09-.14-.09H9.07l-.08,0,0,0-.05,0-.12,0-.25-.17q-.72,0-.84.33h0c0,.15.06.27.32.36Zm.72.45.12,0,0-.07-.12,0Zm.82,2.12.12,0,0-.07-.11,0Zm1-4.55.12,0-.05-.11-.05,0Zm.31.1.08,0,0-.08-.08,0Zm.08.29.08,0,0-.08-.08,0ZM11,28l.15.05,0-.08-.08,0Zm.32-1.53.1-.06-.15-.05Zm-.05.28h0l.52.13-.05-.1-.39-.13-.1.05Zm.25,1.89.1-.05-.15-.05Zm.05-.28.08,0v0l-.08,0Zm.23-1,.1.07H12l-.12-.17Zm.07-.24.09.12.16-.08c0-.17,0-.26,0-.27l-.12,0v0l0,.2Zm0,1.87L12,29v0l-.12,0Z"/><path class="cls-4" d="M4.5,19.87l.18-.23,1.14-2,.23-.3,0,0c.07-.12.57.06,1.49.54l2.49,1,.22.18q.69.21,5.35,2.24v.15l-1,1.76c0,.06-.1.07-.2,0l-1-.51-.08-.1c-.25-.12-.39-.16-.42-.1l-.35.6.16.14c.86.51,1.3.84,1.31,1l0,0-.24.24,0,.13-.16.19-.12.21-.1.33-.39.67-.14.06-2.39-1.83,0,0L4.49,20l0-.07Zm1.6.18.5.29a1,1,0,0,1,.34.3l.27.11,0,0a.34.34,0,0,1-.15-.23l-1-.56Zm1.42,1.07.22.18h.15l.16.14.16.05.4.38c0-.05.07-.05.15,0l.15.14,0-.07.11.06c-.07.12,0,.22.14.32l0,.16.28.17.1-.09-.29-.16.06,0,0,0-.21-.13.1-.17L9,21.9v0H8.94l-.14-.08-.17-.2-.47-.18-.11-.06c.06-.09,0-.21-.27-.35A.22.22,0,0,0,7.52,21.12Zm.13-1.2c1.71,1.22,2.68,1.95,2.91,2.18l.29.07.35-.6L7.7,19.85Zm1.66,2.2.15.14,0,0,.11,0,0,0,0,0-.27-.11Zm1.34,1.12.1.07,0-.13,0,0Zm.46.27.1.07.11-.18-.07,0Zm0-.42.12,0,0,0-.1-.06Zm.22.18.18.11,0,0-.13-.17-.07,0,0,0Zm0,.37.07,0,.1-.18-.07,0Zm.11-.6.07,0,.05-.07-.08,0Zm.2.4.1.06,0,0-.1-.07Zm.34.63.11.06.12-.21-.11-.06Zm.25.14.1.07.19-.32.07,0,0,.06,0,0,.06,0,0,0q-.18-.11-.12-.21l-.16,0,0,0,0,.06Zm.5-.13.18.11.08-.14-.1-.07Zm.43.25.1.06,0-.12,0,0Zm.17.11.08,0,.11,0-.07,0Z"/><path class="cls-4" d="M9.14,14.25H9.2l0,0,0-.12.15.08.08-.09s0-.09,0-.15l0-.06.15.14,0,0,0-.14,0,0,.54.38,0,0-.15-.2.05-.06.18.05,0,0,.3.33.21,0-.19-.22-.3-.22.17-.18h-.06l-.09-.08.06-.06-.09-.08h-.18c.06.06.07.11,0,.15l-.2,0,0,0v0l0,0-.26-.13-.11.18H9.62l0,0,.05-.06,0,0h.06l.14-.15.16-.24.27.14,0,0-.13-.23.23-.24c.09.06.15.07.2,0v-.12h.24l0,0-.06-.05.06-.07.09.09.3.16.24.22.08-.09c-.12-.11-.16-.19-.12-.23l.27-.3,0-.14c.2.14.31.19.35.15l0-.11a.73.73,0,0,1,.39.18s0-.1-.07-.17v-.06l0,0s.1,0,.21.08l.08-.09-.16-.2h-.05l0,0V12.1l0,0-.41-.27,0,0c.13-.13.59,0,1.41.4l.13.11-.09.15.19.17,0-.06-.15-.14.06-.06.17.11.31.28h.05v.06l0,0c.77.77,1.11,1.21,1,1.32l0,0L15.05,14l0,0c.28.26.35.46.23.6L15.1,15l0,0a1.5,1.5,0,0,1,1.72.13l.24.34.12.05-.13.21h.05c.12-.12.35,0,.71.32l.88.8.15.08.09.14.43.39.21.14c.07.12.1.19.06.23h-.11q.09.09,0,.15h-.06l-.07.2-.14.1-.09.15h0l-.25-.22,0,0v.06l0,0,.18.1,0,0v.06l0,0-.11.06-.16.24,0,0v.06l-.25.27c-.11.12-.24.12-.38,0L18.06,19l-.3-.22-.12-.11v-.12l.09-.09.14,0V18.4l-.09-.08s-.13,0-.26.15a2.07,2.07,0,0,1-.6-.43l-1.27-1.17v-.06c-.46-.34-.76-.44-.91-.28l0,0v0l-.17.18L17,19s0,.1-.05.18l.06,0a.46.46,0,0,1,.39.13l.12.17.21.14.15.13V20l-.11.12-.17.12-.14.21-.14.15-.2,0-.06.06.07.06-.06.06L17,20.73s0-.08,0-.14v-.06l0,0h-.06v.06l-.16.18.15.14V21h-.05l-.11.18-.22.24s-.17,0-.39-.19l-.06-.11L15.94,21l-.31-.4-.51-.35c-.21-.22-.3-.34-.27-.37l-.66-.49,0,0h-.05l0,0v-.05h-.06L13.7,19v-.06h-.06l-.45-.42-.33-.24a3.64,3.64,0,0,1-.83-1.1H12l0,0,.08-.09c.06.05.11.06.15,0L12,16.91l.17-.12v-.06l-.06-.06H12l0,.12-.12-.11s0-.09,0-.15l-.09-.08c-.08.08-.22,0-.44-.13h-.06l0,0v.06h.06l0,0a.45.45,0,0,0,.15.25l-.11.12-1.05-.91-.07-.11-.21-.14-1-.89L9,14.6l.21,0C9.11,14.41,9.09,14.3,9.14,14.25Zm.08.4.12.11,0,0-.12-.11Zm.07-.32.06-.06-.06-.06Zm.36.33.4.36,0-.06-.33-.3Zm.2-.09.15,0,.54.5.36.27.13.17h.06l0,0-.06-.06,0,0H11L11,15.36l-.24-.28-.33-.25-.09-.08-.16-.2-.26-.13,0,0Zm.05-1,.11,0,0,0L10,13.49Zm.27.86v.06l.12.11c.16.14.29.17.38.07l.09.08-.08.15.09.08.06-.06,0,0,0,.14h.17V15l0,0,.18.17s.11,0,.23-.13h.17l0-.14,0,0q.33.24.39.18l0,0L12,14.77v-.06l-.45-.24-.15-.2-.15-.14-.06.06,0,0,.28.31,0,0,0,.14h.06l.09.08-.06.06c0,.05-.11,0-.2,0l-.06.06.07.06,0,0-.18-.11.05-.06.06,0,.09-.09c-.08-.08-.1-.13-.07-.17a.7.7,0,0,0-.44-.07l-.53-.21a.34.34,0,0,1,.13.23l-.12.06v0l-.09-.09Zm.14-1.32.09.09,0,0L10.37,13Zm0,2.53.09.08,0,0-.09-.08Zm.14-.21,0,0,.15.08.09.14,0,0h.12v-.06l0,0-.23-.1-.1-.14h-.05Zm.28-1.52,0,0,.06-.06-.09-.09Zm.1,1,.09-.09.12.11,0,0h-.12Zm0-1.89.09.15H11v.06l.09-.09H11V13L11,13Zm.3,2.28.06.06,0,0v-.06l0,0-.11,0Zm.08-1.6,0,0h.11l0,0-.09-.09Zm0-1.53.05-.07s.09,0,.15,0l.12.17-.05.06h-.12Zm.05,3.94.15.14,0,0L11.34,16Zm.2-4.16c.26-.1.41-.12.46-.08v.06l0,0c-.2.15-.35.18-.46.08v-.06Zm0,5.05.06-.06h.11l0,0-.12.12Zm.14-2.76.19.16-.06.06.15.14v.06l0,0h.05l0,0v0l.39.3,0,0h.06l.06,0V15h.06l.39.36c.14.13.2.21.16.25l.12.06.3-.34a.34.34,0,0,0-.07-.34l.05-.06.07.11c.31.26.49.37.53.33v-.18a2.37,2.37,0,0,1-.63-.41v0l.22-.25c.06.06.11.07.14,0l0,0-.09-.09-.24-.16,0,0c.09.07.11.13.07.17s-.12,0-.23,0l-.07-.11L13,14l-.05.06.24.28,0,0h-.06l0,0-.12-.17-.15-.14c-.1-.09-.17-.12-.21-.08V14c-.33-.21-.6-.2-.81,0l-.06.06Zm.36,2.22h.06l0,0-.09-.08Zm.08-4.33,0,0,.06,0v.12h-.06l0,0Zm.18,4.9h.06l.05-.06-.09-.08,0,0Zm0-1,.09.08c.1.1.14.16.1.2l-.12.07v.05l.21.2h.11c-.08-.07-.1-.13-.06-.17s.1,0,.18.05h.05l.06-.06v-.12l-.17-.05-.06-.11c-.2-.15-.32-.2-.36-.16Zm.24-3.23.06,0,0,0-.06-.05Zm0,4.12,0,0,.06-.06,0,0Zm.06-3.4.06.06,0,0-.06-.06Zm.09-1.37.06.06.05-.06L12.76,12ZM12.79,16l.09.08,0,0L12.82,16Zm.15.19,0,0h.12L13,16.11Zm.13.35.06.05,0,0-.06-.05Zm0-2.65.31.28h.11L13.4,14l-.15-.14h-.12Zm0,3.37.09.08v-.11l0,0Zm.12-3.95.06.05,0,0-.06-.05Zm0,4.81.12.12,0,0,.09-.14.17-.07-.06,0-.18-.11-.11.12Zm0-2.38.24.28.09-.09-.12-.11-.18-.11Zm0,1.37.09.08,0,0-.09-.08Zm.06-3.34h.11v-.06l0,0Zm0-.32.1.2.18.1.05-.06V13.5C13.56,13.4,13.45,13.37,13.4,13.43Zm.2.45.06.06,0,0-.06-.06Zm0-1,.09.08V12.8l0,0Zm0,6,.06.05.2.08,0-.15-.21-.08Zm0-3.37.06.05.17.11.09-.09-.1-.14-.2-.08,0,0Zm.05-.67.33.24,0,0c.16.11.26.14.29.11l0,0L14.2,15,14,14.85l-.13-.17h0Zm.06,3.33.09.09v-.12l0,0Zm0-4.67a.18.18,0,0,1,0,.29h.12l0,0c.09-.11.2-.1.32,0l.06-.06-.19-.17c-.1-.09-.19-.12-.26-.07Zm.11,5.22,0,0,.11-.12,0,0h-.11Zm.06-1.4.11.06.1.25.27.14.06-.06-.13-.17h.06l.11-.12-.12-.11h-.06l0,0a.11.11,0,0,0,0,.17h-.12L14,17.2Zm0-2.67.12.11,0-.06L14,14.53Zm0,3.69.18.16,0,0L14,18.25ZM14,19l.1.09.08-.1L14.11,19Zm0-1.25h.11v-.06l-.09-.08,0,0ZM14,18l.09.09,0,0-.1-.09Zm0-4.09.21.19,0,0-.21-.19Zm.09-.58.16.13v.06h.06l.18.17.15.19L15,14l0,0-.21-.26-.12-.05-.21-.25-.24-.17Zm0,1.07c.14.13.19.21.16.25l-.14.15.18.11V15h.12v-.06l.06-.06s.14,0,.29.1l0,0c-.16-.15-.21-.25-.16-.31s.09,0,.15,0l.05-.06c-.14-.13-.25-.14-.35,0s-.17,0-.35-.16Zm0,4.79.1.14h.06l0,0-.15-.14Zm.12-6.07.12.11,0,0-.12-.11Zm.05,1,.21.19,0,0-.21-.19Zm.06,1.45.12.11h.11l-.18-.16Zm0-2.36.06.06,0,0-.06-.06Zm0,2,.09.08,0,0-.09-.08Zm0,.72.34.31,0-.06L14.59,16Zm.08.4.06.06.06-.06Zm0-1.24.06.05.09-.09L14.66,15H14.6l0,0Zm0,3.3.18.17,0,0V18.5l-.06-.05h-.11Zm.11,1.16.18.11-.06.06.09.08L15,19.8l-.24-.22Zm0-1.71.06.05,0,0-.06-.05Zm.38-2h.11l-.12-.11Zm.23.1L15.4,16l-.06-.05Zm.08-.93.33.25v-.12l-.06-.06h-.06v-.06l-.07-.06h-.11Zm.25,1.61.12.12h.11l0,0-.06-.11-.18-.11,0,0Zm0,3.78.06.05,0,0-.06-.05Zm.1-5.09.25.28h.05l0,0V15.6l-.21-.19Zm0,1.16.09.08h.12l0,0V16.5L16,16.45Zm.06,4.06H16l.08-.09-.06-.06Zm.28-4.25h.12l-.06-.06Zm0,3.43,0,.14h.06l.08-.09-.06-.06Zm.11-2.91.06.05.12.17.21.14.12.11.06-.06-.46-.47H16.4Zm.05.43.18.11v.12l.27.13v-.06l0,0-.23-.16-.19-.17Zm.05,2.44h.11l0,0v-.11h-.11l0,0Zm0,.35.12.05,0,0V20L16.53,20l-.05.06v.06Zm0-4,0,0h.12l0,0L16.56,16Zm.09,3.36.09.09.05-.06-.09-.09Zm0,1.48,0,0h.12l0,0-.1-.09Zm.09-.58.15.14.06-.06V20.3l-.15-.14,0,.06Zm0-4.47,0,0,.06-.06,0,0Zm.17-.19.06.06.05-.06L17,15.62Zm.33.25.09.08.08-.09-.09-.08Zm.18.23,0,0,0,0V16l0,0,0,0Zm.25.28h.05l0,0v-.06l-.06-.05,0,0Zm1.08,2.15.06.06.1-.18,0,0h-.11l0,0Zm.17-.61.09.08,0,0L18.94,18Z"/><path class="cls-4" d="M14.14,8.76l.13-.1.23-.11.14-.15h.06l.26.36.32.38,0,0,0-.13-.54-.62V8.33l1-.7L16,7.45l.21-.2a2.39,2.39,0,0,1,1.6-.44,1.94,1.94,0,0,1,1,.54h.05l.08.1-.1.07.14.2.07,0L19,7.52c.07,0,.17,0,.29.19l.33.47.16.14,0,0,.11.07a2.07,2.07,0,0,1,.43,1.1l-.1-.07L20,9.19H20l-.07.05.26.37c.1.13.08.29-.05.49l-.11,0,0,0c.08.11.08.2,0,.26l.07.1a.25.25,0,0,1,.26,0v-.06l.07-.05a1.35,1.35,0,0,1,1.25.47l.53.53v.06l.15.14.31.43c.8,1.11,1.1,1.9.9,2.38a.59.59,0,0,0-.16.27l-.06,0-.13-.11,0,0c.13.18,0,.43-.47.75l-.2.14h-.15l-.09.16H22l-.15.21-.2.08-.34.3-.32.18-.31.27-.23.17-.43.25v.06l-.14-.05-1.69-2.37-.37-.44v-.06l0,0-.32-.38a1.23,1.23,0,0,1-.3-.63h-.06L17,13.14l0,0L16.31,12,16,11.64l-.05-.07,0,0-.32-.37-.79-1.1-.24-.28-.14-.26-.27-.31L14,9h0V8.91l0,0h.06l0,0Zm.57,1,0,.07.06-.05,0-.07ZM15,8.36l.07.1,0-.11,0,0Zm.46,1.84.1.14.06-.05-.05-.07Zm.14.2,0,0h.11l-.07-.1Zm0-.37.07.1,0-.12,0,0Zm.22.24.1.13.06-.05-.05-.06Zm.2,1.12.17.23.06,0-.2-.21Zm.37-1.17,0,0,.07-.05,0,0Zm0-.38.05.06,0,0-.05-.07Zm.17,1.85,0,.06,0,0-.05-.07ZM16.81,9V9l1.29,1.8.12,0,.06-.05v-.06l0,0,.17,0,0,0V10.3l-.23-.39-.48-.67c-.3-.42-.59-.53-.85-.34Zm.11,1.49.07.1.07-.05,0,0Zm0-.82.05.06.07,0L17,9.58Zm0-2.5,0,0,.06,0,0,0ZM17,11.34l.16.24.07-.05-.17-.23Zm.15-4,.05.07.07,0-.05-.06Zm.1.14.17.23.06,0-.16-.23Zm.2,1.12.07.1,0,0-.07-.1Zm0-1.64.05.06.07,0-.05-.06Zm.05,1.33.45.63c.05,0,0-.14-.07-.31l-.22-.24,0-.12H17.6Zm0-.38.07.1.12,0-.08-.1Zm.27,4.1,0,0,.12,0L17.9,12Zm.06-2.87.93,1.3.11,0-.2-.36-.29-.4,0-.11.17,0-.14-.2,0,0,.05.06-.1.08L18,9.16,18,9.09Zm0,1.76.12,0L18,10.85ZM18,8.38l.34.47.06,0-.09-.13-.18-.18,0-.12H18Zm.21,3.24.19.27.11,0-.19-.27Zm.17-3.91,0,0,.07,0,0,0Zm0,1.21.05.06.07,0-.05-.07Zm.57,6.56.08.1.06-.05-.07-.1Zm0-6.23.07.1.07,0L19,9.2Zm0,1.33.15.2.06,0,0,0L19,10.56Zm.22,1.92.2.21,1.35,1.8h.14s0-.16.23-.32l.32.23,0,.13.06-.05-.21-.3-.13-.11a3.29,3.29,0,0,0-.49-.82L20.55,13l-.06-.16-.13-.1-.05-.07v-.06h-.06l-.07-.1-.1-.28c-.37-.31-.66-.39-.88-.23l0,0c-.13.09-.12.25,0,.47Zm0-2,.09.13,0,0v-.11Zm.17-1.09.22.3.11,0-.11-.22-.15-.14Zm0,2.12.19.27.12,0,0-.13H19.6l0,0-.07-.16-.1-.08Zm.11-3.16.07.1.11,0V8.4l-.13-.1Zm0,4.94.07.1.07,0-.07-.11Zm0-2.84,0,.06.07,0,0-.07Zm.13-1.51.16.23.07-.05-.17-.23Zm2.08,5.22.09.13.07,0-.05-.07Zm0,.83.11,0-.09-.13Zm.08.54.08.1,0,0-.07-.1Zm.13-.74,0,.06,0,0,0-.06Zm.42-2.37.07.1,0-.12h-.06Zm.08.54.05.07.07,0-.05-.07Zm.11-.27,0,.06.07-.05,0-.06Zm.1.63,0,0,.35.41v-.11l-.23-.34-.12,0Zm0,.83,0,.12.1.08v-.21Zm.17-1,.11,0L22.94,13ZM23,14v.15l.18,0c.11-.12.16-.2.12-.24l-.07-.1,0,0L23,14Z"/><path class="cls-4" d="M20.07,4.55l.48-.22h.06l0,0,0,0,.17,0,.24-.16,1.64-.76.05.21.13,0-.11-.22.12,0,.1,0,.12-.15.05,0,.11,0,.1-.09,0,0,.1.13.73,1.56-.06.16-.37.18-.15,0-.08.13-.22.11c-.05,0-.09,0-.13-.08l0,0,0,0,0,.16-.23.11.66,1.41,0,.05.05,0,.13.26.2,0,0,0,.05,0,.15-.07,0-.05.06,0L24.4,7l0-.06.06,0,0,0,.35-.21a.21.21,0,0,1,.25.16l.45,1s0,.09-.11.14l.1.22.24.12-.12.23-.05,0-.15.07,0,.06h-.19l-.13.11-.11,0v0l0-.16-.19-.23-.08,0,.21.36,0,.07s0,.1-.08.13l-.05,0,0,0a.37.37,0,0,0-.14.47l.12.17,0,.13.24.43.18.37.53,1.06v.18l.05,0,.09.19-.07,0-.23-.3c-.07,0-.08.1,0,.2s.23.21.27.2l.1-.09v0l.15.12.15-.16.16.06v-.22q-.11,0-.3-.45l0,0h0l.14.3.05.21h0c-.05,0-.22-.21-.51-.71L25.7,11l.06,0,0,0,.28-.17.11.13,0,0,0-.11c.07,0,.16.06.26.28l.1-.08-.12-.26,0-.11.1,0v.09l.32.48,0,.26.21.26.14.39-.11.06-.09-.19-.08,0,.13.17c-.08,0-.09.1,0,.2s-.06.08,0,.15l-.17.12-1.37.64c-.13.06-.2.06-.22,0l-.19.17-.56.26-.16-.06-.59-1.26-.11-.13L23.57,12l-.06,0-.07-.15,0,0c.05,0,.11,0,.18.19h0l-.34-.75,0,0,0,0,0,0c-.05-.12-.11-.17-.16-.15-.1-.28-.13-.44-.08-.46l.08,0L23,10.51l-.15.06-.16-.33.05-.2-.25-.34,0,0-.28-.41,0-.08,0,0L22,8.72l-.64-1.38,0-.26-.18-.19L20.76,6l-.08-.28,0,0,0-.06L20.22,5l-.06-.24-.06,0,0,0Zm.57-.13c0,.07,0,.12,0,.15l-.15,0,0,.06,0,0,.05,0,0,0,0-.05,0,0,.2,0-.08-.19Zm-.11.82.17.47,0,0,0,.13.09.09,0,0-.05-.2,0,0,0-.06,0,0-.23-.4Zm.39.18,0,.07h0l0-.08Zm.07.83.07.14,0-.1Zm.11.22.1.22.12.17.08,0,0-.11-.13-.08,0-.17-.06,0Zm.08-1.58.21.36.12.26.07,0-.29-.54-.05-.11,0,.06Zm.22-.69.07.15.12.17,0,0-.1-.31-.06,0Zm.13,2.43.16.33.07,0-.15-.34Zm.17-.8,0,.07,0,0,0-.07Zm.18,1.45.05.11h0l0-.12Zm.05-1.56.05.11.11,0L22,5.69Zm0-1.63,0,.07h0l0-.08Zm.17.37,0,0,.1,0-.05-.11Zm0,3.93,0,.2.11,0,0,0-.12-.26Zm.05-.48,0,.08.07,0,0-.07Zm0-1.68.27.59.11,0-.28-.6Zm.16-1.89.05.11.08,0,0,0Zm.14,4.59.23-.1-.16-.24-.12-.27C22.39,8.36,22.41,8.56,22.51,8.93Zm-.06-1,0,0,.07,0,0,0Zm0-3.94.14.29.07,0L22.58,4Zm0,5.15,0,.08.07,0,0-.07Zm.16-4.32,0,.05,0,.07.1,0,0,0,0-.07Zm.08,3,0,0,0,.08.11,0,0,0Zm0,.68,0,0,.16.24.07,0,0-.07-.05,0,0-.05,0,0-.09-.1Zm0,.53,0,.08,0,0,0-.08Zm0-2.9.05.11.08,0,0,0Zm0-1,0,.07,0,0,0-.07Zm0,.49.07.15,0,0-.07-.14Zm.13,3.79,0,.07.08,0ZM23,7.84l.16.43.09.1.05-.17Q23.07,7.81,23,7.84Zm0,.63,0,0,.12.17,0,0V8.53l-.13-.17ZM23.08,4l.12.26.07,0-.09-.19Zm0,2.17.05.2.05,0,0,0-.11-.22Zm0,4.11,0,0,.07,0-.05-.11Zm.08-1,0,.07h0l0-.08Zm0,1.17,0,.12.14.2,0,.06,0,0,.28.41.06.25.11.22.07,0-.57-1.22-.11,0Zm0-.55,0,.13.49.86.15.34.11,0-.28-.6-.14-.21,0-.16-.28-.41Zm0-2.27,0,.07h0l0-.08Zm0,3.69,0,0,.05.11,0,0Zm0-2.9,0,.11,0-.11-.05,0Zm0-.55.14.2v.13l.06,0,.07,0-.24-.43Zm0-4.57.05.11,0,0-.06-.11Zm.05,5.76,0,.13.09.1,0,0V9.16l-.09-.09Zm0,.63.09.18,0-.1,0,0Zm0,1.85,0,0,0,.08,0,0Zm0-2.9,0,.08.07,0Zm.15.8.08.18,0,0,0-.1,0-.08Zm0-1.1.2.44.37.6,0,0V9.25L24,9.09V9l-.39-.64Zm.05.69,0,.08.07,0,0-.07Zm.08-1.57.12.26.08,0-.12-.26Zm.13.75,0,0,.07,0,0,0Zm.05,4.1,0,.07,0,0,0-.07Zm0-2.28.11.23c.05,0,.06-.08,0-.15L23.93,10ZM24,12l.06.11,0,0V12Zm0-1.69.11.22h0l0-.21-.06,0Zm.11-2,0,0,.08,0,0,0Zm0,1.12V9.6l.15,0,0-.12Zm0,1.18.28.59.07,0v0l-.12-.35C24.29,10.69,24.21,10.63,24.17,10.65Zm0,.79.11.22.05.21-.08,0-.05,0,0,0,.05.11,0-.06.11,0,.14.21,0,0a.24.24,0,0,1,0-.27l-.18-.19-.1-.23Zm.1-3.3.06.15.08,0,0-.07Zm.06,1.69.05.11,0,0,0-.11Zm0,.59,0,0,.15.43.09.09.07,0-.26-.56Zm0,2.44.21.44.08,0-.21-.45Zm.17-1.21.14,0h0l-.09-.1-.05-.2,0,0C24.49,11.43,24.49,11.53,24.55,11.65Zm0-1.94.21.35,0,.07.08,0-.09-.19-.08-.27-.06,0h0l0,.06Zm0,.53.05.11,0,0-.05-.11Zm0,2,.06.11c.18.4.31.58.38.54l-.2-.54c-.09-.11-.16-.15-.2-.13Zm0-3.58.06,0,0,0-.05-.11Zm.05,4.18.05.12,0,0-.05-.11Zm0-4.12,0,.07,0,0,0-.07Zm0,1.76,0,.16.41.68.06.24.06,0,0,0-.48-1Zm.07,2.59.16.33.07,0v0l-.11-.13,0-.13-.05,0Zm.09-5.16,0,.08.22-.11-.05-.11,0,0ZM25,10.51l.21.44.16.25,0,0,0-.17-.16-.24L25,10.4ZM25,8.34l.06.11h0l0-.11-.05,0Zm.09,3.58.12.26.07,0L25.24,12Zm.13-3.59.11,0,.08,0-.07-.15-.08,0Zm0,3.42.18.46.05,0,0,0-.12-.44Zm0-.52.07.15,0,0-.07-.14Zm.52-.15.05.11h0l0-.13Zm.53.57.19.32,0,0,0-.11-.09-.19-.11,0Zm.09-.4.22.48.16.06,0-.15-.06-.11a.67.67,0,0,1-.32-.3Zm.34-.53.05,0,0,0,0,.11-.05,0,0,0Zm0,1.64.07.15,0,0,0-.13-.05,0Zm0-1.87,0,0,.11,0,0,0h0l-.11,0Zm.14.2.07,0,.21.35,0,0,0,0,0,0,.26.56.06,0,0,.06.22.48-.17.12c-.12.06-.19.06-.22,0l-.11.14c-.14,0-.22,0-.24,0s.17-.12.13-.19h.19l0-.05,0,0-.3-.54v-.19l-.25-.33V11L27,11l.15,0-.05-.21Zm.2.63,0,.08h0l.09.1,0,0,0-.11,0,0-.1,0Z"/><path class="cls-4" d="M25.6,2.14h.16L26,2l.28-.08.05,0,0-.05.12,0,.1.06.14-.12.18,0,.06-.1.59-.17c.08,0,.13,0,.16.13l0,.2.17.47,1.24,4.38.11.56.06,0,.08.62.23.49.16.72.2.41c0,.2,0,.31-.08.32l-.21-.45h0l.1.52.05,0L30,9.93h0A5.79,5.79,0,0,1,30.44,11l0,0,.08,0-.27-.82h0l-.05,0,0,0,.06-.1c.12.2.21.3.26.31l0,.29.08.27.15.39-.1.11-.32.09-.36.06-.39.15-.15,0c-.13,0-.21,0-.22,0l-.22.15-.63.17-.15-.08-.05-.16-.35-1.09,0-.25-.08-.11v-.5l0-.12-.16-.3-.1-.35V8.72l0-.08-.16-.29,0-.25-.15-.38,0-.29L27,7.12l-.8-2.67-.57-2.18Zm1.47,3.72.05.15,0,0h0l-.07-.11Zm.49,2.5.13.43.12,0,0-.29A.23.23,0,0,0,27.56,8.36Zm.3-1.06.05.15,0,.29h0a.1.1,0,0,1-.08.15v0c.08,0,.13,0,.16.13l0,0,.06-.1-.09-.31L28,7.56l0-.18-.07-.11ZM28,8.38l0,0,0,0,.08.14v.21l.1.06L28,8.39l-.05,0Zm0,1,.13.44.05-.1L28,9.42Zm.21-1.08,0,.29.07.11.09-.15-.06-.2-.1-.06Zm0-.89v0l.08,0v0Zm.14.47.1.06,0-.08Zm.24,0,.1.19-.24.07.06.19,0,.05.1.19.16-.3.1.18h0l0-.42c-.06,0-.11-.09-.18-.33C28.53,7.66,28.51,7.72,28.52,7.83Zm0,2.47,0,.12h0l.06-.1v0Zm.15-2.94,0,.08h0l0,0,.09.31,0,.21.05,0h0S29,8,29,7.88C28.86,7.51,28.77,7.34,28.69,7.36Zm0,2.88.1.06.05-.1-.1-.06Zm.16,1.19.06.2.12,0L29,11.4Zm0-3.2,0,.12h0l0-.12Zm.25,3.3v0l.11.06-.06-.2Zm.33-1.72,0,.2.11.06-.08-.28Zm.09-.58,0,.12h0l0-.12Zm.34,2.12.11.06L30,11.25Zm.22-1.93.05,0,.08.28h0l-.1-.05,0-.16Zm.21,0,.08,0,.09.14,0,.05-.08,0Zm.15.38.08,0c0,.13.08.19.14.18v.13l.07.1h0V10l-.1-.18V9.72l.12,0,.09.19.3,1.06.06,0v0h0l.05,0v0l-.06.1-.08,0-.07-.11,0,0h0c-.05,0-.07.06-.05.14l0,.05h0l-.11-.06-.07-.27,0,0-.21-.41Zm.16-.51.08,0,.1.05q-.09,0-.06.24l-.16-.09,0-.08Zm.13.94,0,.34L31,11l.08,0-.2-.71Zm.08-1,.11,0,.05.16-.12,0Zm.19.55.08,0c.13,0,.3.26.5.88l0,.12,0,.05,0,0,0,.12-.08.15-.08,0-.15-.08-.1-.36-.21-.58Z"/><path class="cls-4" d="M31.19.74l.17,0,.28-.07.28,0,0,0,0,0h.12l.09.07.15-.1.18.06.07-.09L33.23.5c.08,0,.13,0,.14.14l0,.21.1.49L34,5.86l0,.57,0,0v.62l.15.52,0,.74.14.44c0,.19-.09.29-.13.3l-.14-.48h0l0,.53,0,0,.19-.07h0a6.21,6.21,0,0,1,.21,1.13l0,0h.08l-.14-.85h0l-.05,0v0l.07-.09c.08.22.15.33.21.35v.29l0,.28.09.4-.11.1-.32,0h-.38l-.4.09-.16,0q-.21,0-.21-.06l-.24.12L32.5,11l-.14-.11,0-.16-.17-1.13V9.3l-.06-.12.06-.5V8.55l-.12-.31,0-.37,0-.33V7.46l-.12-.32V6.89l-.09-.4V6.2l-.08-.32-.38-2.77L31.17.87Zm.88,3.9,0,.16,0,0h0l-.06-.12Zm.1,2.55.06.45h.12V7.34A.2.2,0,0,0,32.17,7.19Zm.21,1,0,.45.08-.09,0-.29Zm.17-1,0,.05v0l.06.15,0,.17v0l.09.07,0-.49,0,0Zm.08-1.08,0,.16v.29h0c0,.09,0,.13-.1.14v0c.08,0,.13,0,.14.15h0l.08-.1,0-.32-.09-.07.06-.18-.06-.11Zm.12,1v.29l0,.12.11-.14,0-.2-.09-.07Zm.08,2.06,0,.12h0L33,9.29v0Zm.06-2.94v0H33v0Zm.06.49.09.07V6.8Zm.25,0,.07.2-.25,0,0,.2,0,0,.07.2.21-.28.07.2h0l0-.42s-.1-.11-.13-.36C33.24,6.65,33.2,6.71,33.2,6.82ZM33,10.44l0,.2h.12l0-.21Zm0-1.2.09.07.07-.09-.09-.08Zm.24,1.33v0l.1.07,0-.2Zm.16-4.19v.08h0l0,0,0,.33V7l0,0h0c.06,0,.08-.05.07-.14C33.58,6.55,33.52,6.37,33.44,6.38Zm.11.89V7.4h0V7.27Zm.32,1.66,0,.2.09.08,0-.29Zm.18-.56v.12h0V8.37Zm0,2.15.09.07,0-.16Zm.52-1.88,0,0,0,.29h0l-.1-.07V8.73Zm.21,0h.08l.06.16,0,0h-.08Zm.08.41H35c0,.13,0,.2.1.19l0,.13.05.12h0l0-.13-.07-.2,0-.12.12,0,.07.2.13,1.1,0,0v0h0l0,0v0l-.07.09h-.09l-.05-.12,0,0h0c-.06,0-.08.05-.07.13l0,.05h0l-.09-.07,0-.28,0-.05-.13-.44Zm.24-.49h.08l.09.08c-.06,0-.1.08-.1.21L35,8.75V8.67Zm0,1-.05.33.14.48h.09l-.09-.73Zm.21-.94h.13l0,.16h-.13Zm.11.57h.09c.13,0,.25.3.36.94v.13l0,0,0,0,0,.12-.11.14h-.08l-.14-.11,0-.37-.12-.6Z"/><path class="cls-4" d="M38.38.14l.28.06L41,.31l.36.07v0c.14,0,.2.54.18,1.58l.19,2.68-.06.29q.12.7.4,5.78l-.13.07L39.9,10.6c-.06,0-.1-.07-.11-.18V9.27l0-.12q0-.4-.09-.42l-.7,0,0,.2c-.07,1-.17,1.54-.32,1.62h0l-.32-.1-.12,0-.25-.06H37.7l-.33.06-.78,0-.12-.09.57-3h0L38.3.17h.08ZM38,9v.12l.36,0v.09l0,0v0l0,.05h0c0-.14.06-.2.14-.2L38.36,9V9l0,0Zm0-.29v.12l.24,0V8.72Zm.1-.77V8h.21V7.94Zm0-.25V7.8l.21,0V7.73Zm0-.53v.12l.13,0v0Zm.49-3.75-.06.28.08.13-.06.2,0,.17-.15.52s.07,0,.07.13l-.06.2h.09v.12c-.14,0-.21.08-.23.27l-.16,0,0,.33.12,0,0-.33,0,0h0V5.31l.21,0V5.08l.05,0,0,0V4.84l.1-.24-.05-.5V4c.11,0,.17-.13.19-.4Q38.82,3.42,38.61,3.4Zm-.36,6.67v.09l.07.08v-.08Zm0-.2V10l.12,0v0Zm0-.49v.2h.16V9.47Zm.08-1.27v.12h0V8.11Zm0-.33V8h0l.1-.2V7.71h0Zm.12-2.33-.06.2v0l.08.09h0v0l0-.29ZM38.46,7.5l0,.13h0V7.51Zm.19.26v.08h.08V7.76Zm.29-6.11,0,.58a1.12,1.12,0,0,1-.11.44l0,.29h0A.34.34,0,0,1,39,2.72l.07-1.1ZM39.75,3c-.33,2.07-.54,3.27-.65,3.57l.07.3.69,0,0-3.9Z"/><path class="cls-4" d="M51.83,2.86c.32.14.5.29.52.45l.15,0a2,2,0,0,1,.93,1.38l0,.48,0,.07-.06,0v0q.13.06-.45,1.59l-.15,0-.45-.19,0-.06-.06,0-.94-.4,0-.06-.06,0h0C51,6.13,50.92,6.06,51,6l0-.11.08,0,0-.15.22-.31,0,0c.11-.55.11-.85,0-.89l-.07,0q-.37-.16-.63.45l-.15.34A1.65,1.65,0,0,0,50.84,7c.79,1.31,1,2.3.74,3,.05,0,0,.35-.28,1l0,0,0,.06-.11.26-.05,0,0,.05,0,.08c0,.05-.09.05-.19,0l-.05,0,0,.08a.25.25,0,0,1,.15.15,2,2,0,0,1-.5.68l0,.05,0,0c-.24.26-.43.39-.56.39l0-.12-.08,0,0,.21a2.37,2.37,0,0,1-2,0l0-.16a.55.55,0,0,0-.4,0l-.09-.21-.14,0,0,0,0-.11-.06,0,0,0c-.26-.17-.37-.3-.32-.4l-.19-.08a.74.74,0,0,1-.08-.88l0-.08h-.12l-.1.23,0,0a1.92,1.92,0,0,1,0-1.19l.1-.05,0,0a.5.5,0,0,1,0-.32l.22-.52.14-.44.09-.09,0-.21h.18l.67.33h.13l0,0,.39.12.49.21.07.16q-.21.45-.27.42l-.28-.07,0-.06,0,0,0-.07,0-.11,0,0,0,.12,0,0-.06,0v.17l-.17.29,0,.2.07,0,.06,0,0,0a1.61,1.61,0,0,1-.11.57c.06,0,.12.16.19.4l.21.13h.31c.2-.33.32-.49.37-.47l0,.06-.11.17,0,.17.16-.07.05-.11,0-.06.14-.12-.21-.13a1.86,1.86,0,0,0,0-1.91,7.31,7.31,0,0,1-1.06-2.54L48.31,5l.11-.17,0-.13.08-.1.07-.28c.51-1,1.09-1.59,1.76-1.62l0,.06c.06-.1.12-.13.18-.11s.06.07,0,.15l.07,0c0-.1.09-.14.14-.12l0,0-.17.51.11-.05.14-.34L51,2.66l.17.12.11,0,0,0,0,0h.18c0,.12,0,.18.05.2l0,0C51.7,2.88,51.76,2.84,51.83,2.86ZM46.5,11.57l0,0,.08,0,.11,0-.05-.11Zm.17-1.67,0,.08h0l0-.07Zm.17.12-.11.26.12.05.11-.17V10Zm0,1.47-.05.2.08,0a.22.22,0,0,1,.32-.14l0-.07,0-.11C47,11.41,46.87,11.44,46.85,11.49Zm.07.56s0,.12.18.21v0l0,0,.07,0,.11,0,0-.08h0L47,12.1l0,0Zm.13-.3,0,0,.08,0v0Zm.1-1.6-.11.26.07,0,.11-.26Zm.1-1.61,0,.08h0l0-.07Zm.2.26L47.38,9h0l.07-.15ZM47.63,12l-.24.35,0,0,.07,0,.18-.42Zm0-2.3-.24.35v0l.11.05.18-.42Zm-.11.89-.05.12h0l.08-.09Zm.31-1.47,0,.21-.06,0,0,0,0,.13.08,0,0-.07h0V9.26l.09-.1.07,0-.11.49-.17.28,0,0,0,0,0,0,.37-.87-.15-.06,0,.07-.08,0L48,9h0Zm.18,3.15-.12.4h0l.18-.32,0-.06Zm.3-2.59.11,0,0,0-.11.17-.08,0V9.67Zm0,2.61,0,.08h0l0-.07Zm.5-7.18,0,.08.11,0,0-.07Zm.55,3.13-.08.19h0l.08-.19Zm0-2.36L49.31,6l.11,0,.07-.15Zm.06,5.24,0,0-.05.11.07,0,.06,0,0,0,0,0v0l0,.05.12,0,0-.12-.12,0ZM49.58,6V6l.11,0,0-.11,0,0Zm.25,5.31c-.1.29-.12.44-.06.46l.14-.34,0-.1Zm.35.55,0,.07-.07.28.16-.06,0-.26Zm0-8.75v0l0,.11L50.24,3ZM50.48,3l0,.11.08,0,0-.11Zm.11.36,0,.07,0,.11,0-.08Zm.47.15,0,.11.11.05,0-.11ZM51.27,6l0,.08h0l0-.07Zm.22-2.72-.19.46c.05,0,.09,0,.12-.08l.11-.36Zm.14,1.89-.12.17-.1.23.16-.07,0-.11,0-.21Zm.09-.32L51.65,5l.11,0,.06-.15Zm.59-1.4-.17.2L52.07,4l-.21.49,0,.2,0,0c.07,0,.13,0,.17-.1a.87.87,0,0,1,0-.43c.11-.22.19-.32.26-.29l0,.11,0-.12-.15-.06.11-.26,0-.11Zm-.07.69,0,0,0,0,.05-.12Zm.47.15-.11.27h0l.1,0,.08-.19Zm.36-.11L53,4.43l0,.07,0,0,.11,0,.1-.22-.05-.11,0,0Z"/><path class="cls-4" d="M58.15,6.89v.05l-.1.08-.19.42.11.07.15-.15L58.26,7h.06l.14.09.11.13.26.13,1.32.9-.08.19L59.15,9.8,59,9.94a4.35,4.35,0,0,1-.77-.62l-.16-.06v0c-.12,0-.31.23-.56.6l0,0a.1.1,0,0,1-.17,0l-.07.1.07,0,0,.07-.1.22-.32.18-.07-.05c.1-.19.13-.31.08-.34l0,0,0,.07,0,0v0l-.21.31-.11,0q.06-.11,0-.15s-.13,0-.22.1l0,0,.09-.29.12-.17-.07,0s-.13,0-.27.17a.11.11,0,0,0-.17,0l0,0,0-.38-.23.19,0,0,0-.13h.06l.07-.1V9.52l.18-.27-.1-.07-.16.24-.17-.12-.12.17.13.19,0,0a.25.25,0,0,0-.27,0l-.34.51c-.08.14-.09.23,0,.27q.12-.16.18-.12l.08-.19.1-.14,0,0,0,.12-.11.17.06,0,.22-.25,0,0s0,.12,0,.29l0,0,.24-.28.1.06-.06,0,0,0,0,.11,0,0,.12-.26.14.09H56l0,0s0,.16-.11.38h0l0,0-.33.57-.12.17,0,0,.11,0,0,0,.2-.36.17-.18L56,11l-.13.26-.07.1.07,0L56,11.2l.17,0-.05.21,0,0,.23-.19.07,0c-.07.18-.09.29-.06.31l-.25.22-.3.59h-.06l-.24.43-.7,1-.24.28-.2.36-1,1.46-.17,0-1.66-1.13-.06-.14h.06l.24-.43,2.06-3,.29-.35.08-.19h.06l0,0,0-.13a1.39,1.39,0,0,0,.55-.52,1.53,1.53,0,0,1,.19-.56l.1-.08,1-1.33.06,0,0,.13H56.1l0,0L56,8.56l-.1.08.06,0,.07-.1.15-.14.07,0-.1.23.06,0,.15-.14,0,0s0-.11-.16-.2l0-.07,0,0,.14-.06,0-.33.07.05,0,0,0,.06.06,0,.16.06.14.24h.35l.11.13.07-.11,0-.11h-.15l-.09-.16h0l0,0L57,7.93l-.11,0,0,0,.06-.16H57l-.07,0L57,7.51c.1-.23.13-.36.07-.4L57.26,7c-.13-.09-.09-.29.12-.61l.07,0,0,.11-.11.17.07,0,.17-.18.07,0-.08.25L57.7,7l.09-.13,0,0s0,.16-.16.39l.11,0L57.9,7c.05,0,.1,0,.16-.09h.06Zm-4.72,5.76,0,.07.07,0,0-.06Zm.84-1.31-.18.27.06.05.19-.28Zm.24,2.05-.14.2,0,.17.1-.08C54.57,13.53,54.57,13.43,54.51,13.39Zm.26-2.85-.07.1,0,0,.07-.1Zm.09.8-.09.14.07,0,0-.07Zm.26.58-.07.1.07,0,.07-.1Zm.21-5.12.1.07a.18.18,0,0,0,.06.28l-.08.2,0,.06-.26-.12V7.14ZM55.39,11l-.23.34.07,0,.11-.17.08-.19Zm.15-4.52.07,0,0,.07,0,0-.15.15-.07,0Zm.83-.77,0,.11-.21.31,0,0,.18,0,.09.16c.15-.23.25-.32.29-.29s0,.15-.1.37l0,0c.14-.2.23-.29.28-.26l.07,0L57,6.37l.11.07.11-.17.1.07-.09.14c-.13.3-.17.48-.11.52q-.24.17-.33.12l0-.11.11-.17-.06,0-.19.27a.3.3,0,0,1-.24.14c-.07-.09-.09-.16,0-.23l.1-.08V6.83l0,0-.27.32,0-.17.06,0,0-.12-.07-.05,0,0,0,.12-.18.18,0,.12.16,0,0,0-.17.18-.06.16-.07,0,.05-.21.13-.12-.11-.07-.23.34-.1-.07L55.79,7l-.11-.07-.07.1-.06,0,.09-.29.1-.08,0,0s0,.1-.05.21l.1.07.23-.19L56,6.56l-.11-.07c0,.06-.09.08-.13,0l0,0,0,0,.19-.07s0-.16.05-.36l.13-.12,0,0C56.23,5.76,56.32,5.69,56.37,5.72Zm-.71.61,0,0,0,.11,0,.07-.11-.07Zm0,2.7-.07.1.1.07,0,0,0-.11Zm0,2.92h-.05l0,0,0,.11,0,0,.05-.07Zm.37-4.32v.14l0,0-.11,0-.07,0L56,7.63Zm0,3,0,0,0,.12-.15.15-.06,0h0v-.06Zm0,.77-.11.08v.06l0,0h.06l0-.12Zm0-1.24.1.07,0,0-.1-.07Zm.42-2.58,0,.11,0,0h0V7.8l-.07.1-.15.15,0,0,0-.18.21-.15,0-.13h.06Zm-.21,3.22,0,0,0,.06,0,0Zm.48-.12,0,0,0,.17-.38.33-.06,0c.06-.09.07-.15,0-.18C56.58,10.76,56.7,10.66,56.75,10.69Zm-.2-4.8,0,0-.09.14,0,0Zm.09,2.7-.1.08,0,.12,0,0c.06-.09.11-.12.16-.09l.06.14,0,0S56.76,8.71,56.64,8.59Zm.09-.19,0,.12,0,0,.07-.1Zm.1,1.31-.12.16.11,0,0,0Zm.23-1.08-.06.1.06,0,0,0-.14,0a.61.61,0,0,1-.14.36l0,0L57,9l.2-.36Zm-.12.91-.09.13,0,0,.1-.13ZM57.19,9l-.07.1,0,.17.11,0,.07-.1Zm.16.26.11.07,0-.07,0,0Zm.65-.5-.07.1,0,0,.07-.1Zm.22.25,0,.07,0,0,0-.07Z"/><path class="cls-4" d="M62.17,9.79l.28.29.09.15.14.08.29.3.11.23h.12l.11.12c.21.22.29.35.23.41l-.5.49-.56.48-.26.32,0,0v.06l-.71.68-.5.43-.06.12-.23.17-.91.94-.23.18-.3.34-1.12,1.09c-.52.51-.73.83-.62.95s.4.13.67-.14l.56-.54a.32.32,0,0,1,.32-.09l.12-.17.41-.4h.06l.3-.52h0l1-1,.59-.57.15-.09.08-.14.24-.23h.06l0,0,0,0h.06l0,0,.2-.26c.1-.1.18-.12.23-.06l0,0c-.05-.06,0-.15.12-.28l.24-.23h.06v-.06l.73-.6.12-.23.12-.06.11.12c-.06.06-.07.11,0,.14s.16-.07.2,0l-.06.23-.06.06-.11,0,0,0v.06l0,0c.18-.17.3-.26.38-.26.09.19.12.29.09.32l-.09.09,0,0,0-.15-.17.12s0,.12.08.26L64.3,13s.12,0,.23-.05l.06.06-.12.17.09.09s.12,0,.23-.11l.06,0-.15.21,0,0c.2-.2.32-.26.38-.2v.17l.12-.06.08-.14.12-.06.09.09-.36.35v0h0l-.06.06,0,.2,0,0-.15,0-.06.11-.2.15s-.07.2-.33.48l-.06.06,0,0-.56.6L62.08,16.8a.64.64,0,0,1-.47.17l-.06.06a1.46,1.46,0,0,1-.29.52l-.12.05-.27.32L60.7,18l-.12.23-.88.8v0l0,0c-.18.14-.28.18-.32.14l-.06-.11h-.06l0,0s0,.09,0,.17a2.17,2.17,0,0,1-1.77.3,2.56,2.56,0,0,1-.92-.54l-.35-.35a2.39,2.39,0,0,1-.58-2.24.52.52,0,0,0,.12-.35l.06-.05.12.11.14-.14L56,16l-.15.09,0,0,.53-.75.24-.17.5-.55.26-.25h.12l-.68.77.06.06.12-.05L57,15l.11-.06c.52-.56.76-.86.71-.92s-.11.07-.15,0V14l.14-.14.21-.14a1.61,1.61,0,0,1,.41-.52l.15-.14.32-.26.15-.2.41-.34.06-.12.55-.37.09-.08.27-.38L61.88,9.9V9.84C62,9.76,62.13,9.75,62.17,9.79Zm-6.28,7.89h-.06l-.09.09,0,0h.12Zm.39-1.24,0,0,.06.06,0,0Zm1.83-2.3-.15,0-.73.89-.12.06c-.2.22-.28.35-.24.4h.06l.5-.6.47-.4.09.09-.33.37-.17.17,0,.06.06-.06.33-.37,0,0v-.06l0,0,.23-.17-.06-.06.18-.11-.12-.06Zm-.83,1.27-.06.06,0,0,.06-.06Zm.28-1.24,0,0-.09.09,0,0Zm.8.88-.27.2v.05l0,0h.06l.18-.17Zm-.17-.24-.09.09,0,0,.09-.09Zm.34.82h-.06l0,0c0,.1-.06.17,0,.2l.11-.12ZM59.06,19l-.06.06,0,0,.06-.06Zm.24-.29h-.06l0,0,.09.09Zm.14-2.14-.06.05v.12l0,0,.12-.11Zm.27-.32,0,0-.12.17.08.09.18-.11.06-.06v-.12Zm-.07.58-.06.06,0,0,.06-.06Zm.09,1.86-.11.11.05.06.12-.11ZM60,16.43l-.11.11,0,.06.12-.11Zm0-2.73,0,0,.06.06,0,0Zm.08,3,0,0,.09.09.08-.09,0,0Zm.29-4.58-.09.09-.09.14-.11.06.08.09.06-.12.15-.08.06-.12Zm0-.35-.29.23V12l.06.06.23-.23Zm0,4.3,0,0,.06.06.08-.09Zm0,.69-.06.06v.12h0l.09-.09Zm.08-4.43-.06.05v.12h.12l.06-.05v-.12Zm.12,4.64-.15.14.09.09.14-.14Zm.06-5.16H60.6l-.05.05v.12l0,0,.09-.09Zm0,1.51-.09.08.09.09,0,0v-.11Zm.18-.47-.2.09,0,0V13l0,0h0l.09-.09Zm-.08-.26-.06.06,0,0,.06-.06Zm0,4.61v.12h.06l.06-.11ZM61,11.37l-.21.2.06.06L61,11.4Zm0,.43-.12.12.06.05.12-.11Zm1.21-1.64-.5.49-.32.37,0,0,.32-.25.11.17h.06l.27-.31,0,0c-.1.09-.19.12-.26.08l.38-.49Zm-.57,1.71-.12.05-.12.23.12.06.17-.17v-.11Zm.05,2.75-.23.23.05.06.18-.17Zm-.14-3-.08.09,0,.06.09-.09Zm.25-1.38-.32.31.06.12.17-.17,0-.06.11-.06.06-.11Zm0,5.1-.09.09,0,0,.09-.09ZM61.85,12l-.15.15.06.06.15-.15ZM62,15l-.2.2v.11h0l.09-.08.12-.18Zm.13-2.88-.3.29.06.06.24-.23Zm.12,1.43-.06.06v.05h0L62,13.9l-.12.12.06.06.15-.15.26-.31Zm-.12.52-.21.2v.11l.27-.25Zm-.11,2.11,0,0,0,.06,0,0Zm0-5.19,0,0v.12l.15-.14Zm.17,5.34-.09.09.06.06.08-.09Zm0-5.94-.08.08v.12l.21-.2Zm.35.06-.38.37V11l.29-.29.12-.17Zm.14.2-.38.38,0,0h.06l0,0V11l.32-.32Zm.08.73-.09.09,0,0,.09-.09Zm.17.18v0l0,0-.14.09v.06l0,0,.29-.29S63.1,11.51,63,11.57Zm.07,1.94h-.06l0,0v.17l.06-.05h.05v-.12Zm.17.29,0,.18,0,0h.12v-.18l0,0Zm.76-.51c-.19.05-.31,0-.38,0l-.06.05v.06h-.06l-.09.09v.11s.09,0,.15,0l.06-.12s.17,0,.38-.08l0,0Zm0-1.25-.17.12v.11H64l0,0,.12-.18Zm.72.62v.12l-.12.11-.06-.06Zm.52.36-.15.14-.06-.06L65.2,13h.06Z"/><path class="cls-4" d="M67.45,15.45l.42.65,0,.06h.06l.11.18v0l0,0,.51.79,0,.12.2.16,0,0,.07.2-.34.22.11,0,.28-.17.06.1,0,.12.13.06c.27.54.33.86.18.95l-.29.24-.25.15,0,.11.62-.39,0,0c0,.05,0,.11-.13.18l0,.13.11,0a.44.44,0,0,1-.18.26l-.59.38,0,0h.05l0,0,0-.06.1-.07.06,0V20l.31-.2q.08.12-.39.54c0,.05,0,.11-.16.2l0,0-.19.07,0,0-.27.27-.88.52-.12,0,0,0-.14.24-.2.07v.06l-.2.07-.2.14-.26.21-.12,0L64.92,23l-.83.53-.16.06-.11.12h-.06l0,0-.11.12,0,0,0,.05-.13.09c-1.12.59-1.76.76-1.93.49-.09.06-.31-.06-.66-.35v-.06l0,0-.18-.13v-.05l0,0-.18-.13,0-.05,0,0-.06,0-.06-.1,0-.11.35-.22,0-.12-.41.27-.17,0v-.06L60,23l0-.07a.43.43,0,0,1-.05-.31h-.15v-.15h0l-.09-.14.12-.12-.05-.07c-.11.07-.19.08-.24,0l0-.07a.44.44,0,0,1,0-.31l-.17,0-.2-.31-.1-.23L58.78,21l0,0,0-.17.48-.3.25-.07.24-.24.72-.32.23-.24.12,0,.06-.13H61l.18-.11v-.05h0l.14-.09.22-.19.16-.05,1.06-.72.55-.35.07.1-.11.07,0,.07.25-.06,0,0,.06-.14h.15s0-.13.18-.25l.36-.19,0-.12,0,0,.2-.13h.15l.56-.35-.07-.1.07,0,.47-.25.15-.14.16-.05.54-.39.83-.53Zm-8.11,5.44-.07,0,0,0,.07,0Zm.18.12-.17.12,0,.06.1-.06Zm.31-.19-.1.06.11,0v-.06Zm.23.43-.08.1,0,0,.07,0,0,0,.08-.1Zm.14.16,0,0-.15.14,0,0,.11,0,.14-.09,0-.11Zm.22-1-.38.24.11,0,.24-.15Zm-.21,1.35-.07.05,0,.11h.06l0,0,0-.11Zm0,.33-.1.07,0,0,.1-.06Zm.41.72-.41.21.05.06.38-.24Zm0-2-.24.15,0,.07.24-.15Zm-.15-.78-.07,0,0,0,.07,0Zm.29.4-.27.17,0,.07.28-.17Zm.45-.91-.49.3,0,0,.16-.06.33-.25Zm-.31,2-.14.09,0,.06.07,0Zm.17,1.49-.2.08-.06,0,0,.17.27-.18Zm-.17-2.41-.11.06,0,.07,0,0Zm.16-.74L61,20l0,.11.17-.11Zm0,2.83-.07.05,0,0,.07,0Zm.38-1.55-.42.27.11,0,.35-.22Zm-.36,2.12,0,0,0,.12.11-.07Zm.18-.4-.07,0,0,.07.07,0Zm7-5.22-.22.19L68,18h0l0,.05-.62.4,0,0-.06-.16a.41.41,0,0,0-.3-.09l-.38.24-.23.24h-.15l-2.29,1.6-.23.1-.91.62-.49.31-.11,0,.15-.15.31-.2,0-.07-1.11.71c-.05,0,0,.1,0,.22l0,.16c.26.29.6.3,1,0l.07,0,.29-.23.64-.36.38-.24.33-.16.24-.25.36,0,.06-.13.12,0,.45-.28,0,0-.1.07-.07-.1.14-.09c.17-.11.27-.12.31-.05l.56-.35a2,2,0,0,0,.57-.47h.06l0,0a1.13,1.13,0,0,0,.48-.69l.73-.47.22-.18,0,0,.08-.1h-.06ZM61.62,24.1l-.07,0,0,0,.07-.05Zm.18-4-.07,0,.05.07.07,0Zm.18.81-.21.13,0,.12L62,21Zm-.15.53,0,0-.07,0,0,0Zm.21-.13,0,0-.08.11,0-.07Zm.27-.95-.14.09-.15.14.11,0,.07-.05.13-.18Zm-.19,2.07-.07,0,0,0,.07-.05Zm.34-3.67-.22.19,0,0,.31-.2Zm.24,3.59-.14.09.11,0Zm.12,1.19-.07,0,0,.07.07,0Zm.25-1.14-.14.09,0,.07.14-.09Zm.24.15-.35.21,0,0c0,.06.17,0,.38-.09v-.06Zm0-2.53-.31.2.11,0,.24-.15Zm-.1,3.51-.14.09,0,.11,0,0,.14-.09,0-.11ZM63.13,22l0,0,0,.11.1-.06ZM64,23.4l-.16.05-.4.3,0,0,.32-.11v-.06l0,0,.16-.05,0,0Zm-.45-4.77-.07.05,0,0,.07,0Zm0,4.44-.07.05,0,0,.07,0Zm0-2.91,0,.11.14-.08Zm.08-1.94-.07,0,0,0,.07-.05Zm.06.25-.07,0,0,.12.07-.05Zm.27.12-.34.22,0,.07.28-.18Zm-.18.4-.08.1,0,0,.21-.13C63.89,19,63.84,19,63.77,19Zm.06-.9-.06,0,0,0,0,.12h.06l0,0Zm.84-.29-.11.06-.29.23-.21,0-.31.29,0,0,.33-.16,0,0,.21,0,0-.11.13,0,.32-.26Zm.07,4.71-.24.15-.67.48,0,0,.07,0,0,0,.22-.19.27-.12.08-.1.06,0,0,0,.26-.21ZM64,18h0l0,0V18l0,0H64l0,0V18Zm.4.63-.28.17,0,.12.34-.22Zm-.05-1-.1.06a.39.39,0,0,1-.14.24l0,0,.26-.12.11-.06,0-.12Zm0,.74-.18.11.12,0,0,0Zm.22,4.56-.12,0,0,.05-.2.13,0,.13,0,0,.33-.26Zm-.22-3.64,0,0,0,.11.17-.11Zm.11-.36-.11.06.12,0v-.06Zm.12-.42-.07,0,0,.07.06,0Zm.06-1.06,0,0v.06l0,0,.1.08.14-.08-.05-.07Zm.26.56h-.06l-.2.13,0,.12.29-.09Zm-.17,1-.11.06,0,.07,0,0Zm.4-.6-.35.22,0,.11.34-.21Zm0,.3-.21.13-.15.14,0,0,.3-.14.09-.1Zm.37,3.56-.21.13-.5.36,0,.07.12-.12H65l0,0,.15-.14.34-.17v-.05Zm-.36,0-.17.11,0,.11.25-.15Zm-.06-.64-.07,0,0,.07.07,0Zm.5-4.79-.24.15-.22.19h.06l0,0,.27-.27.16-.05Zm-.19,2.06L65.3,19l0,0,.07,0Zm.31,1.41-.35.22,0,.07.27-.18Zm.08,1.5-.07.05-.06.13h-.06l0,0-.19.17,0,0,.51-.33,0,0Zm-.12-.26-.24.15,0,.12.31-.2Zm0-.27-.21.13.12,0,.07,0Zm.22-2.72-.34.22,0,.11.42-.26Zm0-.31-.21.14.05.06.21-.13Zm.13,2.5-.24.15,0,.12.24-.16Zm.49-3.81-.16,0-.26.27-.23.09-.11.07,0,.07.27-.18.19-.16.19-.08.11-.06Zm-.58,5.13-.1.06,0,0,.1-.07Zm.2-1.68-.2.07-.08.1.07.11.07-.05C66,20.55,66,20.47,66,20.39Zm-.17-.19-.1.07,0,0,.1-.06Zm.38,1-.24.15,0,.07.22-.19Zm-.12-3.72-.07.05,0,0,.07,0Zm0,3.16-.07,0,0,0,.07-.05Zm.66-1.1-.14.08c-.42.27-.6.43-.56.5l.56-.35C66.76,19.68,66.8,19.6,66.78,19.52Zm-.15,1.06h-.06l-.22.19-.21.13,0,.07.41-.26Zm-.25,1.14-.18.1.12,0,0,0Zm0-4.17-.14.09,0,.07.07-.05Zm.21,3.7-.28.18.11,0,.21-.13Zm.24-1.46-.42.26,0,.12,0,0,.48-.31Zm0,1-.42.26,0,.11.48-.3Zm-.1-.62c-.24.18-.35.29-.31.34l.2-.13.15-.14Zm-.17-2.71-.14.09.12,0Zm.29.45-.1.06,0,0,.1-.07Zm0,3.15,0,.11.14-.08Zm.36-1.49-.31.19.07.11,0,0C67.18,19.7,67.25,19.6,67.22,19.53ZM67,20.61l-.11.07,0,0,.1-.07ZM67,17.45l0,.11.07,0Zm.28,2.35L67,20l0,.07.17-.11Zm0,1,0,0,0,.12.11-.07Zm.73-3.37-.62.39,0,.11,0,0,.62-.4,0-.11Zm-.55.05,0,0,0,.12.17-.11Zm.05,1.91-.1.07,0,0,.1-.06Zm0-2.91-.07.05,0,.06.07,0ZM68,19.93l-.32.25-.1.07,0,.07.15-.14.23-.1Zm.05.31-.41.26,0,.11.42-.26Zm.22-1.11-.55.35,0,.11.63-.39Zm-.47-1.21-.11.07,0,0,.1-.06Zm0,1.85-.1.06,0,0,.1-.07Zm0-1-.11.06,0,.11.17-.1Zm.11-1.05-.14.09.12,0Zm.42,2.65h-.06l-.07,0-.39.3.05.07.22-.19.26-.12v-.05ZM68.88,19l-.86.54-.15.15,0,0,.23-.09.81-.56Zm-.45-1-.52.33.06.11.25-.16C68.39,18.15,68.46,18.06,68.43,18Zm-.26,1.82-.1.06,0,0,.1-.07Zm.45-1.6-.28.18,0,.11.18-.11.15-.14Zm-.06.67-.21.14,0,.06.21-.13Zm.3-.82-.07,0,0,0,.07-.05Zm.1,1.54-.07,0,0,.12.14-.09Z"/><path class="cls-4" d="M71.28,21.7l.23.53,0,.17.1.13-.08.13-.42.18L71,22.77l.09-.21-.08,0,0,0-.35.2-.57.25,0,0,.16.07.3-.13.08-.13.19-.08.11,0-.26.25-.64.27v.13l.28-.07.1-.09.26,0,0,0-.2.17h0l0-.07-.15.06v.13l.32-.09,0-.05,0,0,.32-.09.55-.28.25,0v.19c.1,0,.16,0,.19,0l.13.3-.08,0,0,0-.06,0-.22.1-.69.38-.27.08-.55.28L67,25.82l-.34.06h0c-.13.06-.18.12-.16.16l0,0-.25.15-.08,0-.92.35-.28.17-.21.05-.21.13-.16,0-.59.3-1,.42-.16-.07-.06-.15c-.11-.25-.14-.38-.09-.4l-.18-.2-.09-.32,0,0,0,0,0-.06L61.91,26l-.1-.23c0-.05.07-.13.26-.24l.16,0L63,25.1l.45-.2v0l0,.15,0,0,0,0,.25-.15-.06,0,0-.11,0,0c.45-.19.74-.26.86-.19l.07,0a.49.49,0,0,1,.22-.23l.15-.06.35-.11.36-.2.08,0,.32-.09.39-.22,1.21-.52.59-.29.05,0,0,0,.51-.26.45-.2.47-.16,0-.05,0,0,0,0c-.08,0-.1.07-.08.12l0,0,.24-.06.13-.1h.13l0-.06,0-.07-.32.09v0l.09-.08.21-.05.28-.17.45-.1.1-.09Zm-8.79,4.07-.34.15s.14,0,.35,0l0-.06Zm-.11-.26-.12,0,0,0,.11-.05Zm.91.14L63,25.8c-.05,0-.05.13,0,.34l0,.06-.27.11,0,.08.1-.09.21,0,.15-.07,0-.1,0-.08-.08,0s.06-.15.22-.32Zm-.2-.14-.11,0,0,0,.11,0Zm.3,1-.08,0,0,.11.15-.06v0Zm.46-1.1-.34.15.11,0,.19-.08Zm.43-.45-.2,0-.3.13c-.19.09-.27.17-.26.25l.79-.34ZM65,26.09h-.13l0,.06,0,.07.07,0Zm.79-1-.19.09,0,.07.19-.08Zm0-.88-.11.05,0,.08.11-.05Zm.25,1.1,0,.05v0l.12-.05Zm.23.12-.11.05.11,0,0-.05Zm.21.27-.08,0,0,0,.07,0Zm1-1.08-.53.22,0,.11H67c0-.07.16-.16.38-.25l0-.06Zm-.19.39-.11.05v0l.12-.05Zm1.19-.65-.11.05-.08.12-.53.23,0,.11.75-.33,0-.1Zm-.17-.19c-.34.17-.5.28-.48.34l.57-.25Zm.79.28-.28.07-.33.15c0,.1.2.09.47,0l.16-.15Zm.11-1.83-.08,0,0,.11.15-.07Zm.42,0-.46.19,0,.12.28-.08.17-.12Zm-.09.31h0v0l.11,0h0l0,0Zm.26.51-.11,0,0,.1.18-.08Zm.24-.69-.22.1,0,.08,0,0,.17-.12Zm.29.77-.11.05v0l.12-.05Zm.41-1.43-.11.05,0,.11.17,0,0-.05Zm.1,1.48-.11.05v0l.12-.05Zm.39-1.38,0,0-.09.09-.25.06,0,.07.37-.16Zm0-.32L71,22l0,.08.09-.09Zm.28.45-.34.15,0,0,.34-.15Zm-.16,1,0,.11.15-.07Zm.39-.13-.2.05,0,0v0l.23-.1Z"/><path class="cls-4" d="M73,28.18a.2.2,0,0,0-.12.2c.11,0,.16,0,.18,0v0l0,.05,0,0,0,.08a2,2,0,0,1-.43,1.84,2.5,2.5,0,0,1-1.64,1.05l-.11.07h-.17L70,31.8l-.44.11L68,32.35l-.29,0v0l0,0-.16,0,0,0,0,0-.2,0c-1.53.39-2.32.5-2.36.34a1.47,1.47,0,0,1-1-.24l0-.12s0-.11.17-.17h.13l.27-.11,0-.08-.08,0v0l-.39.14-.32.08-.27-.23L63.2,32v0l.12,0v0l-.21,0,0-.08.26-.11,0-.08-.12,0H63l0-.12.08,0,.26-.11.05,0,0-.05v0a.89.89,0,0,1-.58,0l0-.18-.1-.06v-.2l0,0a3.15,3.15,0,0,1,0-1.46A2.76,2.76,0,0,1,64.46,28l.22,0,.26-.15.33,0c.13,0,.19-.08.18-.13l0,0h0l1.42-.4.33,0,.42-.15,1.83-.46a.22.22,0,0,0,.16.13l0,0a.11.11,0,0,0,.09-.15h0l.1.06.27-.11.16,0a2.21,2.21,0,0,1,2.13.73A2.48,2.48,0,0,1,73,28.18ZM63.46,31l-.41.06-.14.08v0h.2l.19-.09h.13l0-.05Zm.26.19-.2.05,0,.08.2-.05ZM63.65,31h0l-.06.1.2,0Zm.39-.64-.16,0-.06.1.24-.06Zm0,1.4-.08,0,0,.08.08,0Zm.16-.89-.08,0-.06.1.08,0Zm.27-2.6-.24.06-.06.1.24-.06ZM64.35,31h0l-.06.1,0,0h0Zm0,.8-.08,0v0l.08,0Zm6.46-3.23L69,29.06l0,.05,0,0-.56.14-.14,0-.08,0,0,.08-1.06.31-.26,0-.35.13h-.24l-.23.1h-.21l-.43.15-.24.06H65c-.46.18-.67.36-.62.54s.24.29.56.23l0,.05,0,.08.16,0v0l0,0v0l0-.05h0l.82-.12,0-.05h0l.05,0h0l.11-.07.41,0,.1-.11.25,0,2.14-.58,2.07-.52,0,.05,0,.08h.13l.19-.09,0-.08-.16,0v0c0-.05,0-.11.21-.18l0-.12-.05,0v-.12A.56.56,0,0,0,70.84,28.6Zm-6.31.15-.06.09.16,0Zm.1,2.21-.12,0v0l.12,0Zm.09-2.81-.2.05.1.06h0Zm0,.53-.08,0,0,.07.08,0Zm.78-.78-.08,0v0l.08,0ZM66,28l-.08,0,0,.08.08,0Zm.39,2.69-.16,0v0l.16,0Zm.24.45-.12,0-.06.1.2,0Zm.09-.28-.11,0,.1.06,0,0Zm0-3.08-.08,0v0l.08,0Zm.07,4.12,0,0-.06.09.12,0Zm.32-3.76-.12,0v0l.1.06.08,0Zm.67.47-.76.19v0l0,0v0l.47-.16.24-.06Zm.1.23-.16,0,0,.08.08,0Zm-.07-1.59-.08,0v0l.08,0Zm.28-.07,0,0h0l-.06.1.1.06h0Zm.16,3.47-.24.06,0,.08h0l.19-.09Zm0-1.6-.08,0v0l.08,0Zm.3,1.53-.15,0,.1.06Zm.25-.36-.08,0,0,.08.08,0Zm0-2.51h0l0,.08h0Zm.53-.42h0l-.15.08H69l0,.05v0l.28-.07Zm-.08,2.55-.08,0,0,.08.08,0Zm.37-2.38h-.2l0,0,0,.08.23-.06Zm.19,1.06-.28.07,0,.08.28-.07ZM70,27.13l-.12,0-.19.09,0,.08.32-.08Zm-.22-.2,0,.05v0l.12,0Zm.35.71-.32.08v0l.1.06.16,0,.06-.1Zm-.07.57-.08,0-.06.1.16,0Zm.29-.88-.2.05,0,.08.2-.05Zm.51.68-.12,0,0,.08h0Zm.2-.39q-.22.11-.21.18l.16,0,.06-.1Zm.59.19-.11,0,.09.06,0,0Zm0,1.65-.08,0v0l.08,0Zm.35-.93-.06.1.16,0Z"/></g></g></g></svg>