<svg xmlns="http://www.w3.org/2000/svg" xmlns:xlink="http://www.w3.org/1999/xlink" viewBox="0 0 74.8 74.8"><defs><style>.cls-1{opacity:0;}.cls-2{fill:#fff;}.cls-3{fill:url(#radial-gradient);}.cls-4{fill:#ffb600;}.cls-5{fill:url(#radial-gradient-2);}.cls-6{fill:url(#linear-gradient);}</style><radialGradient id="radial-gradient" cx="37.4" cy="62.33" r="19.47" gradientTransform="translate(0 54) scale(1 0.13)" gradientUnits="userSpaceOnUse"><stop offset="0"/><stop offset="0.32" stop-color="#231f20" stop-opacity="0.6"/><stop offset="1" stop-opacity="0"/></radialGradient><radialGradient id="radial-gradient-2" cx="37.4" cy="37.4" r="24.93" gradientUnits="userSpaceOnUse"><stop offset="0.64" stop-opacity="0"/><stop offset="0.95" stop-color="#231f20" stop-opacity="0.29"/><stop offset="1" stop-opacity="0.5"/></radialGradient><linearGradient id="linear-gradient" x1="37.4" y1="39.33" x2="37.4" y2="13.47" gradientUnits="userSpaceOnUse"><stop offset="0" stop-color="#fff" stop-opacity="0"/><stop offset="1" stop-color="#fff" stop-opacity="0.7"/></linearGradient></defs><title>orb-bacare-wtext</title><g id="Layer_2" data-name="Layer 2"><g id="Layer_1-2" data-name="Layer 1"><g id="orb-bacare-wtext"><g class="cls-1"><circle class="cls-2" cx="37.4" cy="37.4" r="37.4"/></g><ellipse class="cls-3" cx="37.4" cy="62.33" rx="21.95" ry="3.59"/><circle class="cls-4" cx="37.4" cy="37.4" r="24.93"/><circle class="cls-5" cx="37.4" cy="37.4" r="24.93"/><g id="cWlTZj.tif"><path class="cls-2" d="M22.79,30.34v-.46a.72.72,0,0,1,.74-.75h1.7c0-.32.06-.64.11-1a4.7,4.7,0,0,1,3.5-4A10.07,10.07,0,0,1,32,23.78H42.16c.75,0,1.49,0,2.24,0a5.54,5.54,0,0,1,2.92.78,4.61,4.61,0,0,1,1.87,2.49,7.36,7.36,0,0,1,.36,2s0,.06,0,.11h1.67a.72.72,0,0,1,.76.77v.44h.44a.49.49,0,0,1,.54.54v4.77a.5.5,0,0,1-.55.54H52v.44a.72.72,0,0,1-.77.77H49.57v.18c0,.77,0,1.53,0,2.3a.31.31,0,0,0,.07.21A2.78,2.78,0,0,1,50.47,42c.06.83.06,1.66.08,2.49v1.48A2,2,0,0,1,49,47.82c-.11,0-.13.07-.13.16v1.75a1.3,1.3,0,0,1-1.3,1.3H45.76a1.3,1.3,0,0,1-1.3-1.31c0-.61,0-1.22,0-1.85H30.33v.64c0,.42,0,.83,0,1.24A1.31,1.31,0,0,1,29.05,51H27.26a1.3,1.3,0,0,1-1.3-1.3V48c0-.09,0-.14-.13-.16a1.94,1.94,0,0,1-1.58-1.92c0-1.08,0-2.17,0-3.26a3.68,3.68,0,0,1,.49-2,6.12,6.12,0,0,1,.39-.5.32.32,0,0,0,.09-.17V37.48a.45.45,0,0,0,0-.08H23.55a.73.73,0,0,1-.76-.75v-.46h-.44a.49.49,0,0,1-.53-.52V30.86a.49.49,0,0,1,.53-.52Zm14.11-.71H28.23a2,2,0,0,0-2,2c0,1.42,0,2.83,0,4.25a1,1,0,0,0,.22.64,1.05,1.05,0,0,0,.89.38H36.9Zm1,7.28h9.82a1,1,0,0,0,.88-1c0-1.47,0-2.94,0-4.4a1.86,1.86,0,0,0-.5-1.27,2,2,0,0,0-1.6-.65c-2.81,0-5.62,0-8.43,0h-.17Zm-.49-8.75H42a1,1,0,0,0,1-1c0-.34,0-.67,0-1a.91.91,0,0,0-.66-.87,3.17,3.17,0,0,0-.87-.07H32.74a1,1,0,0,0-.94,1c0,.26,0,.52,0,.79a1,1,0,0,0,1.12,1.13Zm0,12.89h-5a.46.46,0,0,0-.39.46c0,.32.21.5.6.5h9.5a.86.86,0,0,0,.23,0,.45.45,0,0,0,.36-.36.43.43,0,0,0-.2-.49.88.88,0,0,0-.4-.1Zm0,4.87h4.92a.49.49,0,0,0,.44-.46.48.48,0,0,0-.41-.5H32.67a.93.93,0,0,0-.23,0,.44.44,0,0,0-.38.39.45.45,0,0,0,.27.51.92.92,0,0,0,.33.06Zm0-2h4.71a1.32,1.32,0,0,0,.28,0,.48.48,0,0,0,.36-.49.48.48,0,0,0-.39-.45l-.25,0H32.69a1.18,1.18,0,0,0-.26,0,.45.45,0,0,0-.38.46.47.47,0,0,0,.38.47,1.14,1.14,0,0,0,.26,0Zm11.19.25a1.7,1.7,0,1,0-1.73,1.7A1.71,1.71,0,0,0,48.59,44.22ZM27.91,42.51a1.71,1.71,0,1,0,1.69,1.71A1.69,1.69,0,0,0,27.91,42.51ZM23.29,30.34h.42a.49.49,0,0,1,.54.54v4.77a.49.49,0,0,1-.54.54h-.42v.4c0,.24.07.32.32.32h1.48c.11,0,.14,0,.14-.15v-7c0-.11,0-.15-.14-.15-.38,0-.75,0-1.13,0h-.4c-.19,0-.27.08-.27.27S23.29,30.18,23.29,30.34Zm28.22,5.85h-.42a.48.48,0,0,1-.54-.54V30.87a.48.48,0,0,1,.53-.53h.43V30c0-.29-.07-.35-.36-.36H49.78c-.21,0-.21,0-.21.21v6.87a.65.65,0,0,0,0,.14s.06.08.09.08h1.61a.23.23,0,0,0,.24-.25Zm-4.62-9.51a1.22,1.22,0,1,0-1.21,1.23A1.22,1.22,0,0,0,46.89,26.68Zm-17.76-1.2a1.22,1.22,0,1,0,1.21,1.22A1.22,1.22,0,0,0,29.13,25.48Z"/></g><ellipse class="cls-6" cx="37.4" cy="26.4" rx="18.29" ry="12.93"/><path class="cls-4" d="M2.52,49.44l0-.16,0-.25-.1-.18,0-.05.43-.12.47-.18v0H3.14l-.77.3-.05,0L2,47.58l-.06-.36L1.82,47A2.37,2.37,0,0,1,2,45.3a1.77,1.77,0,0,1,.85-.75l0,0,.12,0,0,.12.24-.07,0-.07-.2.05c0-.08.09-.15.28-.21l.55-.15L4,44v0L4.15,44a2.17,2.17,0,0,1,1.18,0l-.1.07-.29,0,0,.05,0,.08.44-.12c.15,0,.3,0,.44.22l-.06.1v0c.14,0,.22,0,.25.1l.11,0c0-.08,0-.16.11-.25l-.05,0,0-.08a1.36,1.36,0,0,1,.87-1l.68-.32,0,0,.19-.09.51-.15q2-.54,2.55,0a.48.48,0,0,0,.19.25l0,.08-.15.08v0c.21-.06.39.17.54.7l.06.24,0,.14.12.13,0,.14.15.22v.21l.17.42.06.37.14.38.08.28.09.48.06,0-.1.11-2.81.79L9,47.88l0,0h0L8.47,48a1.25,1.25,0,0,1-.71.06l0,0-.11.08v0l-1.34.24-.45.21-.08,0v0l-.46.17L4,49.24l-.34.14-.29,0L3,49.57l-.29,0,0,.06-.05,0v0l0-.05v0ZM2,46.23H2l0-.08h0Zm0-.56.08,0,0-.08-.08,0Zm.25.44.08,0,0-.08L2.2,46Zm.15,0L2.66,46l0-.08L2.36,46Zm.05,2.46.12,0-.1-.05h0Zm.47-2.6.12,0,0-.1-.11,0ZM3,45.14H3l0-.08H3Zm.26,1L4,45.88c0-.06-.12-.08-.31,0l-.3.12H3.25l0,0Zm.24-.37L4,45.57l0-.08-.16,0-.22.11H3.5l0,0Zm0,.55.12,0v0l-.12,0Zm.12.73,0,0,2.14-.59.05-.11,0-.07,0,0v0L5.87,46v0l-.39-.15L5,45.93l-.79.22c-.5.14-.71.37-.62.68Zm0,2.25.08,0,0-.08-.08,0Zm.32-5,.12,0,0-.1,0,0L4,44.19Zm.14,1.28.08,0,0-.07-.08,0Zm.06.49,1.54-.43,0-.1-.4.07-.48.13-.1-.05.09-.15-.24.06v0l.08,0,0,.12-.53.23-.08,0Zm0,2.46.12,0-.1-.06h0Zm.08-1.39.08,0,0-.08-.08,0Zm0,.55.08,0v0l-.08,0Zm0,1.06.16,0,0-.08-.08,0Zm.2-.35.16,0,0-.08-.08,0Zm0,.29h0l.06-.1-.12,0Zm0-4.35.27-.08,0-.08-.28.08Zm0,.79.12,0,0-.08-.11,0Zm0,2.72h0l0-.08h0Zm.25-3.09.35-.1.06-.1-.25,0-.19.1Zm.15,2.68.12,0,0-.08h0Zm.58,1.16.27-.08,0-.08-.26.12Zm.18-1.93.06-.1-.08,0Zm0-1.37.15,0v0l-.1-.06Zm0,.25.24-.07,0-.08h0l-.19.1Zm0,2.12.28-.08,0-.08-.27.08ZM6,45l.08,0,0-.08-.08,0Zm.16,3.19.08,0v0l-.08,0Zm.48-1.5.32-.09,0-.1-.31.09Zm.31-1.19.31-.09.06-.1H7.14l0,.05H6.9l-.11.07Zm-.06,1.63h0l.06-.1-.12,0ZM7.77,46,8,45.86l2.16-.65.05-.14c-.06,0-.14-.09-.22-.32l.32-.22h.13l0-.08-.35.1-.15.08a3.22,3.22,0,0,0-.93.18l-.28.07H8.57L8.43,45l-.08,0,0,0,0,.06-.12,0h-.3c-.42.24-.59.48-.52.74h0c0,.16.2.2.46.12Zm.84,0,.12,0,0-.08-.12,0Zm.18-3,.12,0-.1-.06,0,.05Zm.31-.09.08,0,0-.08-.08,0Zm.23.2.08,0,0-.07-.08,0Zm.29-.34.05-.1-.15,0Zm.11.27,0,0,.51-.18-.1,0-.4.11-.06.1Zm.46,1.19.16,0,0-.08-.08,0ZM10.46,43l.14,0,.09-.15c-.07-.15-.13-.22-.19-.2l-.12,0,0,0,.09.19Zm0,4.29.12,0,0-.08-.11,0Zm.06-4.06h.13l.1-.07-.19-.08Zm.34.93.08,0v0l-.08,0Zm.12.26,0-.1-.15.05Zm.54.11.12,0,0,0-.11,0Z"/><path class="cls-4" d="M.6,42.4l0-.53,0,0,0,0v0l0-.17L.51,41.3.36,39.5l.2,0,0-.13-.25,0V39.3l.07-.09-.09-.16,0,0v-.13l-.06-.11H.34l.16,0,1.71-.15.14.12,0,.41-.07.12.09.12,0,.25c0,.05,0,.08-.11.09l0,0v0l.17,0,0,.24L4,39.89l0,0,0,0,.29,0,0-.2,0,0,0,0,0-.16,0,0,0,0,0-.16,0,0,0-.05v0l-.07-.4c0-.11.09-.17.23-.19l1.06-.09c.06,0,.09,0,.1.16l.24,0,.19-.18.18.19,0,0v.17l0,0-.06.16,0,.17-.07.08h0l-.16,0-.28.11v.08l.4-.08h.08c.06,0,.09,0,.09.11l0,.05v0a.37.37,0,0,0,.4.29l.2-.06.12,0,.49-.08.41,0,1.18-.14.17.07,0,0,.2,0v.09l-.36.11c0,.07.06.1.17.11s.28-.15.27-.19l-.05-.12h0l.16-.1-.1-.2L9.74,39,9.53,39c0,.06-.22.1-.52.12l0,0v0l.33,0,.21,0v0c0,.05-.27.13-.84.23l-.05-.12,0,0v0l-.07-.33.16,0v0H8.62c0-.08.11-.13.35-.15l-.05-.12-.28,0-.09-.07.07-.09.05,0h0l.56-.13.26.06.32-.11h.41v.12l-.21,0v.08l.2-.06c0,.08.07.12.18.11s0,.08.12.07l.06.2.13,1.52q0,.2-.06.21l.1.24,0,.61-.11.13-1.39.12-.16,0-.42,0,0,0H8.57v0s.07-.09.24-.1v0L8,41.62v0l0,0v0c-.14,0-.21,0-.2.1-.3,0-.46,0-.46-.09v-.08H7.21v.17l-.37,0-.17-.11-.4.11,0,0L5.75,42H5.67v0L5.18,42l-1.51.13-.26-.06-.23.1-.94.08-.29,0v0l-.05,0-.85.16-.24,0,0,0h0ZM.56,39H.68v0H.55Zm.12,2.87c.08,0,.12,0,.12.07L.73,42l.05,0h0l0-.05h0L.85,42v0l0-.21-.2,0Zm0-.79H.9L1.1,41v0H.76l0,0Zm.08-.54H.89v-.05H.81ZM.89,40l.33,0v-.08l-.25,0Zm.24-.55.29,0v-.08l-.21,0Zm.07.77h.12v-.08h0Zm0,.29h0l.07-.09H1.21Zm.09,1,.4-.08.29,0V41.3l-.61.09H1.26l0,0Zm.1.73H1.9v0l.12,0,.12-.05v0l-.21,0v0l-.05,0h0l-.45.08Zm.3-.31h.08v0H1.71Zm0-1.81.05,0h.08L1.92,40l0,0H1.8Zm.29,0h.08V40H2Zm.33,1h.12L2.54,41H2.33Zm0,.25h.08v0H2.36Zm.12-1.08h.16v0l-.17,0Zm0,1.89h.16L2.59,42Zm.25,0,.24,0L3.2,42v-.08H3.07L3,42l-.17,0,0,.05ZM2.91,41l.65,0,.08-.09L3,40.89ZM3,40.43h.12v-.08h0Zm.07,1.31.36,0v-.08l-.37,0Zm.11-1.61.2,0,0,0v0l-.25,0Zm.62,1.51h.12v0H3.78Zm.69-.06h.09v-.09H4.48ZM4.56,41l.05,0h.08V41h0Zm0,.29h0v-.08h0ZM4.6,40l.28,0V39.9l-.29,0Zm0,.49h.08v0H4.59Zm.1.28h.46l.12-.06-.14-.11C4.85,40.67,4.7,40.73,4.7,40.78Zm.15-.26.24-.06.12,0,0,0v-.08l-.48.08Zm.06,1.27.21,0,.08-.09v0l-.28,0Zm.65-.17,0-.25-.29.07-.28,0C5,41.53,5.17,41.59,5.56,41.62Zm-.36-.34h0l.28-.06v-.08H5.43l0,0-.05,0h0l-.12,0Zm.1-.3h0l.2-.06v0l-.12,0-.2.06Zm0-.83h0v-.08h0Zm0,.58h.12l-.09-.08,0,0Zm.06-1.65h.09l0-.25H5.36v.05Zm0,1.36.49,0,.69-.14v0l-.13,0-.2.05-.12,0-.73.15Zm.06-.79H5.6v-.08H5.51Zm.14.24h0V39.8h0Zm0,.82h.09v-.08Zm.11.73h.08v0H5.7Zm0,.29h.08v-.08H5.72Zm.21-2.9L6,38.74v-.08H5.84v.08ZM5.87,39H6v0l-.09-.08,0,.05Zm.17.52,0-.05v0H6Zm0,1.32.12,0,.12,0v0l-.13,0L6,40.84Zm.06-.25h.08v-.08H6Zm0,.78h.08v-.08Zm0-1.9H6.2v0H6.12Zm0,1.61h.08v0H6.13Zm.27-.27.2,0v0l-.09-.08H6.43Zm.18.23.2,0L6.7,41h0Zm0-.83.13,0,.07-.13H6.71Zm.09,1.06.13,0,1-.16.37,0,.08-.09-.66,0-.24.07-.17,0-.48.12ZM7,40l.41-.07h.08v-.08l-.2,0-.29,0,0,0v0l.05,0Zm0,1.56h0v-.08H6.94Zm0-1.36h.12v0H7Zm0,.54.25,0c0-.06,0-.08-.13-.08l-.12.06Zm.16.81h.12l.24-.07,0,0h.05l.48-.12.25,0,.24,0v-.09l-1.34.12-.08.09Zm.17-.84.25,0v0l-.2,0,0,0Zm.08-.54h.12v0H7.49Zm.1.24h.5l.11-.06v-.08l-.61,0Zm.15.27.65,0v-.09H8C7.81,40.56,7.74,40.6,7.74,40.65Zm0-.54.16,0L8.71,40,9,40l0,0v0L7.85,40Zm.1-.25.49,0,.28-.07v0l-.17,0-.28.07-.41,0Zm.2,1.87v0H8.2v0Zm.24,0v0H8.4v0Zm.18-.83.24,0,.21,0V41l0,0v0h.13L9,41v-.12l.24-.07v0a.24.24,0,0,1-.25-.1l-.24.1-.25,0Zm0-2.8v0L8.58,38h0v0l-.08.09Zm.3,2.56.07-.13v0l-.12.05-.21,0v0C8.59,40.62,8.67,40.66,8.81,40.64Zm-.12-.89.17,0v0l-.16,0Zm0-.54h.12v0l-.13,0Zm0-1,0,0h0l.09.08,0,0h0Zm0-.17v-.08l.41-.07h0l.05,0,0,0,.62-.05,0,0,.05,0,.53,0,.06.2c0,.14,0,.21-.07.22l.1.15c0,.14-.06.21-.11.22s-.06-.2-.14-.2l.07-.17,0,0h0l-.61.09-.17-.07-.41.12-.12,0v-.08L9.08,38l-.21,0ZM9,41.29h.12v0l-.13,0Zm.11-2.61.53,0,.11-.13-.13-.07H9.49a.7.7,0,0,1-.4.19ZM9.16,40h.5l0-.05v0l-.46,0Zm.05,1.55h.08v0H9.21Zm0-1.32.29,0v-.08h-.2Zm.14.61h.12c.44,0,.65-.1.64-.18H9.59c-.14.05-.2.09-.2.14Zm0-2.76h.08v0l.12,0v0l-.08-.07h0L9.41,38Zm0,.86.37-.07v0l-.09-.07H9.51l-.07.09Zm.45,2.31.49,0v-.08l-.49,0ZM10,41h.12V40.9l-.13,0Zm.24,0,.37,0v-.08h0l-.16.05-.12,0,0,0Zm0-2.19h.17v0l-.12,0,0,0Z"/><path class="cls-4" d="M.77,36.12l0-.41.09-.08-.07-.17.05-.16,0,0v0l0,0,0-.29,0-.29L1,34.49.9,34.4v0l0,0v0l.2.06.41,0a.22.22,0,0,0,.27-.23l0,0c.3,0,.45,0,.46-.09H2.13l-.25,0L1.76,34l-.05,0h0l0,0L1,34l0-.12.05,0,0-.21V33.5l.08-.41,0,0,.34-.14c-.22,0-.32-.07-.32-.15l0-.24.21,0,.45,0,1.06,0c.18.08.29.17.31.27L3,33l0,0,0,.12-.17,0v.08l.2,0,0,.25L3,33.82c0,.25.08.38.3.4l0,0v0l.12.09h0l.5,0,0-.05v0l.45,0,.12.09h0a.82.82,0,0,1,.42-.09l0,0L5,34.15,5,34v0l.09-.12L5,33.78c0-.06.12-.09.34-.1V33.6l-.25,0L5,33.49c0-.06,0-.08.12-.07v0q0-.09-.12-.09v0q0-.08.21-.06v0q0-.09-.12-.09l0,0v0l.12,0c.17.07.26.14.28.23l.2,0h.13V33H6c0,.08,0,.13.07.13l0,0v0l0,0h.08l.2.13h.29l.32,0v.08H7l0,0,0,.33-.25,0v.09l.2,0v.12l-.2,0s.06.09.19.1v.08c-.17,0-.25,0-.26.1a.66.66,0,0,1,.35.28l.57,0v.08l-.09.08H7.34l-.16-.05-.42.05c0,.08.1.13.24.14.43,0,.66-.06.68-.27l1,0,1.72.13,0,0,0,0h.16l.08.09,0,0v0L11,35l-.06.2c.16.07.24.13.23.18s-.07.11-.21.11,0,.09.12.09l0,0v.08l-.05,0,.08.13-.06.2,0,.12c0,.22-.09.32-.15.32l-.24,0-.74,0-.37-.07,0,0v.08l1.27.1.07.09,0,0-.53,0v.08l.08.09.49,0,.07.08v0l-.29,0-.32-.06H9.88l-.94-.07,0,0,0,0H8.52l-.32-.06v0l0,0H8l-.17,0-.2-.1,0,0H7.46a.39.39,0,0,0-.27-.19l-.05.16H7l-.16,0-.16,0h0l-.05,0-.44-.16v0l0,0H6c-.14,0-.21,0-.21.07l-.28-.1-.5,0-.24,0-.29-.06v0l0,0H3.87l-.45,0-.12-.13h.09v0l.2.06h.12c.17,0,.25,0,.26-.1l-.16-.06-.05,0h0l0,0H3.27l-.61-.09,0,0v.08l.33.07v.08l-.25,0-1.84-.1Zm.15-2L1,34l.41.07v0l-.08.08L1,34.2l0,0Zm.19,1.25.13,0,.2.06.25,0v-.08H1.12Zm.11-1.88h.12v-.08H1.22Zm.39.28h.16v-.08H1.7Zm0,1h0v-.08h0Zm.1-1.31h.12v0H1.72ZM2,33H2c.36,0,.53,0,.54-.08l-.29,0-.24,0Zm.16,3.18.16.06.09-.12s0-.09-.12-.09l-.12,0Zm.25-1h.08v0H2.37Zm.28,0h.08v-.08H2.66Zm.13-.56H3v-.12H2.87l-.09.08Zm0-.29,0,.05h0v-.12Zm0,1.4.17,0,.21,0v-.08h0C3,35.59,2.84,35.62,2.81,35.7Zm.07-.82.16.06c.19,0,.29,0,.3-.1l0-.05h0v0l0,0h0l-.29,0Zm.19-.27h.08l.09-.08.11.09.13,0v0l0,0v0l-.29,0H3.07Zm0,1.73v-.08h.08v.08Zm.34-.63.21,0,.08-.08H3.64l-.21,0Zm.16-1.43v0h.12v0Zm0,.37h0l.17-.07v0l-.2,0Zm.5,1.4.21,0,0,0,0,0h1l.12,0c.22,0,.33,0,.33-.1l0,0,0,0-.4-.08H5.26v-.13H5.4l.25,0,.15.1c.17,0,.26-.09.26-.15l-.2,0-.29,0v0l0,0-.33,0,0,0a.22.22,0,0,0-.17.15l.07.09V36l-.37,0v0l.14-.15-.28-.11q-.09,0-.09.12l0,.13,0,0h0l-.16,0-.12,0Zm.15-.23v-.13H4.17v0Zm.32.56.13,0v-.12H4.34c0,.06.07.09.23.11ZM4.5,34.64l0,0H5l.25.06.33,0,0,.05v.08l-.58,0-.37,0v.08l.33,0c.14,0,.2,0,.2.09H6.57V35l-.24,0a.62.62,0,0,1-.4-.23l.54,0v0l.12,0v0H6.52v0l0,0-.17,0,0,0,0,0-.16,0v0s.1-.08.3-.1v-.12l0,0v0c-.22,0-.34.12-.35.3l-1.44,0,0,0Zm.14.88.09-.08H4.65Zm.1-.28h0l.09-.07-.2,0Zm.07.25h.12v-.12h0l-.09.08ZM5,35.22l.12.09-.05,0v.08l.07.09c.11,0,.17-.06.18-.2H5.6l.25,0,.09-.08v-.08l-.2,0,0,0,0,0-.21,0,0,0,0-.05H5.25C5.11,35.1,5,35.14,5,35.22Zm0-.78.12.05h.46V34.4l-.37,0-.2,0Zm.25-.52h.16l.09-.07H5.35Zm.22-.19.09-.07v0l-.16,0v0Zm0,.45.32,0,.09-.08-.33,0Zm.13-.73h0l.08-.08,0,0-.17,0v0Zm.1,1.41v-.08h.08v.09Zm.07.66h.08v-.12H5.76Zm.16.55.29.06.28,0v-.08L6.37,36H5.92Zm0,.25.41,0v-.08l-.21,0-.2,0ZM6,33.4h.12v0H6Zm.34,2.41.21,0v0l-.2,0Zm.09-.52h.2v0h-.2Zm0-1.57h.12v-.08h0Zm.18-.27H6.7l-.08-.09h0Zm.14,2.4h.12v0H6.71Zm0,.29h0v-.08h0Zm.08-1.07L6.9,35v-.12l-.17,0V35Zm.4.77,0,0h0l0,0v-.08h0Zm1.07.5h.08v0H8.28Zm.32-1.5h0l.09-.08v0H8.61Zm1.26.27H10V35H9.86Zm0,1.15h0l.09-.08H9.89Zm0-.57h.13l.08-.07-.2,0Zm.24.6.49,0v-.08l-.57,0Zm.24-1.38h.12v-.05h-.12Zm.46-.09,0,0H11l.08.09v0h-.17Z"/><path class="cls-4" d="M1.9,27.73a.23.23,0,0,0,.2-.12c-.11,0-.15-.07-.14-.12v0l.06,0,0-.05,0-.08A2,2,0,0,1,3.3,25.9a2.53,2.53,0,0,1,1.94-.09h.13l.15.08.76.17.44.13,1.59.4.26.11v0l0,.05.16.05.05,0,0,.05.2.06c1.52.42,2.27.71,2.22.87a1.44,1.44,0,0,1,.78.73l0,.12s-.09.06-.24.06l-.1-.07-.29,0,0,.08.08,0v0l.4.07.32.09.12.33.05.1v0l-.11,0v0l.17.13,0,.08-.29,0,0,.07.12,0,.18.09,0,.12-.08,0-.29,0,0,0-.06,0v0a.92.92,0,0,1,.52.27l-.12.14.06.1v0l-.09.14,0,.05a3,3,0,0,1-.77,1.24,2.74,2.74,0,0,1-2.25.43L9.05,32h-.3l-.31-.13c-.13,0-.2,0-.22,0l0-.05h0L6.72,31.5l-.3-.13L6,31.29l-1.82-.51c0-.06,0-.12-.07-.19l0-.05a.11.11,0,0,0-.15.09h0l-.06-.11-.29,0-.15-.05a2.19,2.19,0,0,1-1.49-1.69A2.25,2.25,0,0,1,1.9,27.73ZM3,28l.1-.06-.16-.05Zm-.06.79.12,0,0-.1,0,0Zm.43.46c.17,0,.25,0,.27-.05l-.16,0-.1.06ZM4,28.44,5.82,29l0,0,0,0,.56.15.09.12.08,0,0-.08,1.08.26.22.14.36.06h0l.19.1.25,0,.18.1.45.08.24.07.14.08c.5.07.77,0,.81-.16s-.06-.37-.37-.48l0,0,0-.08-.16-.05v0l0,.05v0l-.05,0h0l-.77-.3,0,0h0l0-.05H9l-.37-.19-.14,0-.22-.11-2.15-.55-2-.57,0,0,0-.08L4,27.56l-.21,0,0,.08.16,0v0c0,.06-.11.07-.27.06l0,.11,0,.05L3.6,28A.56.56,0,0,0,4,28.44ZM3.72,29l.12,0,0-.07,0,0Zm0-1.65.08,0v0l-.08,0Zm.07,2.49.2.05,0-.07-.2-.06Zm.2.35.12,0h.21l0-.08L4.06,30Zm.09.28,0,0v0l-.11,0Zm0-.79.32.09v0l-.06-.1-.15-.05-.1.06ZM4.5,30l.19.09,0,0,0-.08-.23-.06Zm0-.81.08,0,.11-.05-.16,0Zm.16,1.11h.21l.11.07,0,0v0l-.27-.08ZM4.87,29l.28.08,0-.08-.28-.08Zm.47,1.2h0l0-.08h0Zm.37.83,0,0,0,0,.1-.06-.06-.1h0Zm.28.07.08,0v0L6,31Zm0-3,.08,0,0-.08L6,28Zm.51,1.2.08,0v0l-.08,0ZM6.63,28l.07,0,0-.08-.08,0Zm.06,1.9.76.21v0l0-.05v0L7,29.9l-.23-.06Zm0-.25.16,0,0-.08-.08,0ZM7,27.84l.16,0-.06-.1Zm0,2.81.12,0v0l-.06-.1-.07,0Zm.16.51.08,0v0l-.08,0Zm.1-3.25.23.07,0-.08h0l-.21,0Zm.62,3.41.08,0,0-.07-.08,0Zm.33.35.08,0v0l-.08,0Zm.46-3.19.12,0-.05-.1-.06,0Zm.21.31.16.05v0l-.15-.05Zm0-.5.12,0,.1-.06L9,28.21Zm.15,3.57.2.06-.06-.1h0Zm.1-4.31h0l.1-.06-.12,0Zm.12,3.82.08,0,0-.08-.08,0Zm.06.57L9.6,32,9.7,32l-.23-.07Zm.18-.5.1-.06-.16,0Zm1-2,.12,0v0l-.12,0Zm.18.87.16,0,.1-.06-.23-.06Zm.09-.79h0L11,29.5l0-.06h0Zm.06.27.08,0,.1,0-.08,0Zm.31-1,.08,0v0l-.08,0Zm.2,1.12h0l.1-.06-.2-.06Zm.06-.84.08,0,0-.08-.08,0Zm0,.56.19.05,0-.08-.2,0Zm.13.29.38.15h.17v0L12,30l-.21,0-.11-.07,0,0Z"/><path class="cls-4" d="M4.16,22.24l0,0,0,0,0-.13.17,0,0-.11s0-.09-.07-.13l0-.07.18.09,0,0V21.7l0,0,.61.24,0,0-.2-.15,0-.07h.19l0,0,.38.25.2,0-.23-.17-.35-.13.12-.22-.06,0-.11-.06,0-.07-.11-.06-.16.05c.07,0,.09.08.07.13l-.19.09,0,0,0,.05,0,0-.29-.06-.06.2H4.48l0-.08,0,0h.06l.09-.19.1-.27.29.06,0,0L4.86,21,5,20.7c.11,0,.17,0,.21,0l0-.12.22-.06,0,0-.07,0,0-.07.11.06.32.08.29.15.06-.11C6,20.44,6,20.38,6,20.33L6.18,20v-.15c.23.09.36.11.38.07l0-.13a.73.73,0,0,1,.42.08c0-.05,0-.1-.1-.15l0-.05,0,0c0-.05.1,0,.22,0l.06-.11L7,19.36l-.06,0,0,0V19.3h0l-.47-.16,0,0c.08-.16.57-.15,1.46,0L8,19.2l0,.16.22.12,0-.07L8,19.31l0-.07.2.06.36.19.06,0,0,.06,0,0c.95.54,1.39.88,1.32,1l0,0-.21-.12,0,0c.34.18.46.35.37.52l0,.44,0,0a1.49,1.49,0,0,1,1.7-.31l.32.26.13,0-.08.24.06,0c.07-.14.33-.1.76.13l1.06.55.16,0,.13.11.51.27.23.08c.11.09.15.16.13.2l-.11,0c.07,0,.09.08.07.13h-.06l0,.22L15,23.6l0,.16-.06,0-.29-.15,0,0,0,.06,0,0,.2.06h0v.06l0,0-.09.09-.1.27,0,0,0,.06-.17.32c-.08.15-.2.18-.37.09L14,24.59l-.35-.14-.14-.07,0-.12.06-.1.13-.07,0-.06L13.53,24s-.11.05-.2.22a2.6,2.6,0,0,1-.7-.27l-1.52-.8,0-.06c-.53-.22-.85-.23-.95,0l0,0,0,.06-.11.22L13,24.82s0,.09,0,.19L13,25a.47.47,0,0,1,.4,0l.16.13.24.08.18.1.05.16-.08.15-.13.16-.08.24-.09.18-.19.09,0,.07.07,0,0,.07-.07,0c-.05,0-.06-.07,0-.15l0-.05,0,0-.06,0,0,.05-.11.22.18.1,0,.11h-.05l-.06.2-.16.3s-.16,0-.42-.09l-.09-.09-.16,0-.4-.3-.58-.22c-.26-.15-.38-.24-.36-.28L10.36,26v0h0l0,0v-.05l-.06,0-.44-.23V25.6l-.06,0-.54-.29-.38-.15a3.87,3.87,0,0,1-1.09-.85l-.05,0,0,0,.06-.11c.07,0,.12,0,.14,0l-.16-.13.13-.16v-.06l-.08,0-.11,0,0,.13-.14-.08s-.06-.07,0-.14l-.11-.06c0,.1-.21.1-.46,0l-.05,0,0,0,0,.06.05,0,0,0a.42.42,0,0,0,.21.21L7,24.15l-1.26-.61-.09-.09-.23-.08-1.16-.61-.17-.14.19-.08Q4.1,22.33,4.16,22.24Zm.16,0,0-.07-.07,0Zm0,.33.15.08,0,0-.15-.08Zm.38-1.24.12,0,0,0-.11-.06Zm0,1.14.47.25,0-.08-.4-.21Zm.16-.14.15,0,.65.34.42.18.17.13.05,0,0,0-.07,0,0,0-.06,0-.07,0-.31-.21-.38-.15-.11-.06-.2-.15-.29-.06,0,0ZM5,20.83l.11.05,0,0L5,20.75Zm.2,1.3v.06l.15.07c.19.11.32.1.38,0l.11.05,0,.17.11.05,0-.07,0,0,.07.13.16-.05,0-.11,0,0,.22.12s.11,0,.18-.18l.17,0,0-.15,0,0c.26.11.4.13.42.08l0,0L7,22V22l-.5-.12L6.3,21.7l-.19-.1,0,.07,0,0,.35.23,0,0,.07.13h0l.11.05,0,.08c0,.06-.1.07-.2,0l0,.07.07,0v0l-.21-.06,0-.08.08,0,0-.11c-.09-.05-.13-.1-.1-.14a.67.67,0,0,0-.45,0l-.56-.07a.36.36,0,0,1,.18.19l-.1.09,0-.05-.1-.06Zm.3-1.55.13.11,0,0,0,.06.06-.11-.06,0v-.06l-.08,0Zm.13.9,0,0,0-.07-.11-.06Zm0-1.83,0-.07s.07-.06.14,0l.17.13,0,.07-.11,0Zm0,3.61.11.06,0,0-.11-.05ZM5.74,23l0,0,.17,0,.12.12,0,0,.11,0,0-.05,0,0-.25,0-.13-.12-.06,0Zm.11-3.64c.22-.16.36-.23.42-.2l0,.06,0,0c-.16.2-.3.27-.42.2l0-.06Zm.12,3L6,22.3l.14.07,0,0-.11,0ZM6,21.14l0,0,.11,0,0,0L6.09,21Zm.34,1.57.07,0,0,0,0-.06,0,0-.13,0Zm.12-3.32,0,0,.07,0,0,.11-.05,0,0,0Zm.12,2.15.22.11,0,.08.18.09,0,.06,0,0,0,0,0,0,0-.05.46.19,0,0,.05,0,.08,0v.05l.06,0,.47.25c.17.09.24.16.22.21l.12,0,.21-.4a.33.33,0,0,0-.15-.31l0-.08.09.1c.38.17.58.23.61.17l-.06-.16a2.69,2.69,0,0,1-.71-.24v-.05l.15-.29c.07,0,.12,0,.15,0l0,0-.11-.06-.28-.1,0,0c.1.05.14.1.11.15s-.11.06-.24,0l-.09-.09-.44-.14,0,.07.3.21,0,0H8l0,0-.16-.13-.18-.1c-.12-.06-.2-.07-.22,0l0-.06a.58.58,0,0,0-.78.24l0,.08Zm.11,1.91.18.09,0,0-.18-.1ZM7,19.22l.08,0,0-.08-.07,0Zm0,.66.07,0,0,0-.07,0Zm.11,4.37,0-.08.11,0,0,0-.07.14Zm.13-3.69.07,0,0,0-.07,0Zm.21,3h.06l0,0-.11-.06Zm.14-.53.11.06c.12.06.17.12.14.17l-.09.09,0,.05.25.14.11,0c-.09-.05-.13-.1-.1-.15s.08,0,.18,0l.05,0,0-.07,0-.11H8.15l-.08-.09C7.83,23,7.71,23,7.68,23Zm.26,1,0,0L8,24l-.11-.06,0,0Zm0-3.82.08,0,0,0-.08,0Zm0,.61.36.19.11,0-.16-.13L8,20.8l-.11,0Zm.18-.51.14.17.2,0,0-.07,0-.16C8.21,20.29,8.1,20.3,8.07,20.36Zm0-.63.11.06,0-.11,0,0Zm0,3.25.11.06,0,0L8.14,23Zm0,.88,0,0,0-.07,0,0Zm0-3.19.11,0v-.06l0,0Zm.19,2.46,0,0,.11,0-.11-.06Zm0-2.38.07,0,0,0-.07,0Zm.06-.48a.18.18,0,0,1,.09.28l.11,0,0,0c.07-.12.17-.15.32-.07l0-.07-.22-.12c-.13-.06-.22-.07-.28,0Zm.1,3.16.08,0,0,0-.08,0Zm0-.82.31.2.06-.11-.15-.07-.2-.06Zm.17-1,.38.16,0,0c.19.06.29.07.31,0l0,0-.18-.09L9,21.59l-.16-.13H8.78Zm0-1.5.18.09,0,.06,0,0,.22.12.2.15.31,0,0,0-.27-.19-.13,0-.27-.19L8.83,20Zm0,4,.11.06,0-.11,0,0Zm.05-1.87.08,0,.2.06.05-.11L9,22.12l-.22,0,0,0Zm0-1.57.25.13,0,0-.25-.13Zm0-.83.14.08,0,0-.14-.08Zm0,1.51.14.07,0-.07-.14-.08Zm0,2.57L9,24l0,0L9,23.88Zm.1-4,.07,0,0,0-.07,0Zm0,1.17c.17.09.24.16.22.21l-.1.18.2.06,0,.05.11,0,0-.06,0-.07c0-.05.13-.05.31,0l0,0c-.19-.1-.27-.19-.23-.26s.07-.06.14,0l0-.07c-.17-.09-.28-.07-.35.05s-.16.05-.38-.07Zm.09,3.8.14.08,0,0,0-.16.15-.11-.07,0-.2-.06-.08.15Zm0-4.07.25.13,0,0-.25-.14Zm.41,3.09.13,0,.16.22.29.06,0-.07L10,24l.05,0,.08-.14L10,23.79l0,0,0,0A.11.11,0,0,0,10,24l-.11,0-.25-.13Zm0-2,.1.06,0,0-.11-.05Zm0,.33.14.08.11,0-.21-.11Zm.06-.47.07,0,.06-.11-.09-.1,0,0,0,0Zm0,3,.11.06,0-.11,0,0Zm0,.72.07,0,.22,0,0-.15-.22,0Zm.11-1.1.11,0,0-.06-.1-.06,0,0Zm0-1.82.4.21,0-.07-.33-.17Zm.11,2.7,0,0,.08-.14,0,0-.11,0Zm0-.38.22.11,0,0-.22-.11Zm0-.28.11.06,0,0-.11-.06ZM9.94,23,10,23l0-.07Zm.13,2.67.11.05.05-.1-.07,0Zm.22.11.12.11h.06l0,0-.18-.09Zm.07-3.39.11,0-.15-.07Zm.09-.88.38.15,0-.11-.07,0-.05,0,0,0-.07,0-.11,0Zm.05,2.9.07,0,0,0-.07,0Zm0,.57.22.11,0,0,0-.11-.08,0-.11,0Zm.09-2.55,0-.07-.07,0Zm.29-.73.31.21,0,0,0,0v-.06L11,21.63Zm0,4.37.2.06,0,.07.11.06.06-.11L11,26ZM11.09,23l.15.08.11,0,0,0-.09-.09-.2-.06,0,0Zm.16-.2.1.06.12,0v0l0-.11-.13,0Zm.28-.27.11,0-.08,0Zm.19-.36,0,0,.11,0,0,0L11.77,22Zm.07.83.07,0,.17.13.23.08.15.08,0-.07-.56-.34h-.06Zm.12-1.1h0l0-.07,0,0Zm0,1.5.2.06,0,.11.3.06,0-.05,0,0-.28-.1L12,23.3ZM12,21.65l.07,0,0-.08-.07,0Zm.08,5,.08,0,0,0-.08,0Zm.24.08.11,0,.06-.11-.07,0Zm.06-4.88.11.06.06-.11-.11-.06Zm0,4,.07.13h.06l0-.11-.07,0Zm.19-.08.11,0,0,0,0-.11-.11,0,0,0Zm0-3.75,0,0,0,0,0-.12h0l0,0Zm0,3.4.11.05,0-.07-.11-.05Zm.06.68.13,0,0,0,0-.11-.07,0,0,.08,0,.05ZM13,22.18l.05,0,0,0,0-.06-.07,0,0,0Zm.06,4,.18.1,0-.08,0-.11L13,26l0,.07Zm.06.59,0,0,.11,0,0,0-.11-.06ZM14.54,24l.07,0,.06-.2,0,0-.11,0,0,0Zm0-.64.11.06,0,0-.11-.06Z"/><path class="cls-4" d="M7.1,15.93l.33-.42h.06v-.06l0,0,.14-.1.14-.25L8.9,13.64,9,13.8l.11-.07L9,13.58l.08-.1h.11l0-.18h.06l.07-.1,0-.12,0,0,.15.06,1.36,1.07,0,.17-.26.33-.14,0v.15l-.15.19c0,.05-.08,0-.15,0h-.06l0,0,.1.13-.15.2,1.22,1v.06h.06l.22.18.16-.14v-.05h.05l.11-.13v-.06H12l.1-.13v-.06h.06l0,0,.23-.35a.22.22,0,0,1,.29,0l.84.66s0,.09,0,.18l.19.15h.27V17h-.06l-.1.13v0l-.17.08-.07.16h-.11l0,0-.1-.13L13,17.13l-.05.06.35.22.07.05s0,.09,0,.15h-.05l0,0a.37.37,0,0,0,.09.49l.18.09.08.11.41.27.32.26,1,.7.08.17h0l.17.13-.06.06-.34-.16s0,.12.06.2.3.08.32,0l.05-.12,0,0,.18,0,.06-.21.17,0L16,19.52c-.07,0-.23-.08-.47-.26h-.05l0,0,.26.21.14.16,0,0s-.3-.09-.78-.41l.05-.12h0l0,0,.17-.28.15.07,0,0-.1-.08c0-.06.18,0,.37.13l0-.12-.22-.18,0-.11.12,0v.06l0,0,.5.29.14.21.31.14.3.29-.08.1-.16-.13,0,.06.19.1c-.05.06,0,.13.05.2s0,.09,0,.14l-.09.18-.94,1.2c-.08.1-.15.14-.19.11l-.09.24-.38.48-.17,0L14,21.36l-.15-.07L13.57,21h-.06l-.13-.1,0,0c0-.05.12,0,.25.08l0,0L13,20.39l0,0v.05l0,0c-.11-.09-.18-.11-.21-.07-.22-.2-.32-.33-.28-.37l.05-.07-.13-.1-.1.13L12,19.81l-.06-.2-.37-.19v-.05l-.43-.24-.07-.05,0,0-.41-.27-1.2-.94-.14-.22-.24-.08-.74-.59-.2-.21,0,0v-.05l-.72-.47-.17-.19H7.2l0,0Zm.45-.38c.06,0,.08.1,0,.14l-.14.05v.06l0,0h.06l0,0v-.06l0,0,.16-.14-.16-.12Zm.27.79.36.33,0,0,.07.11.12.05,0,0-.13-.16,0,0v-.06l0,0-.38-.24ZM8.13,15l.13.1.19.09,0,0-.23-.24H8.18Zm.11.71.35.22.23.18,0-.06-.51-.35-.1-.08v.06Zm0,.59.07.05,0,0-.06,0Zm.31-1.65.06.05,0,0-.07,0ZM8.69,17l.13.11,0-.12Zm.19-2.09,0,0H9l-.1-.08Zm0,2.25.19.15.19.09.05-.06-.09-.08H9.07L9,17.14H8.91ZM9,14.33l.26.2,0-.06-.19-.15Zm.08.37.09.08,0-.07,0,0Zm.07,1.63.07.05,0,0-.06-.05Zm.15-.2.1.08H9.5l-.16-.13Zm.06,1,.29.23,0-.06-.29-.23Zm.08-3.75.1.08,0,0-.1-.08ZM9.5,15v.06l.06,0,.12,0V15l-.06,0Zm0-.91.22.18.06-.07-.17-.12Zm.19,1.09.06.05,0,0-.07,0Zm0,1.28.52.4h.11l-.51-.41ZM10,17.55l.09.07,0,0-.1-.08Zm0-1.93.13.1,0,0-.13-.1Zm.24.5.09.07.05-.06,0,0ZM10.5,18l.06.05,0-.07-.06-.05Zm0-2,.13.16h.06l0,0L10.55,16Zm.14,2.4.13.16h.12l0,0-.22-.18Zm.07-.56,0,0,.05-.07,0,0Zm.18-.23v.06l.06,0,.08-.09,0,0Zm.34,1.1.15-.19-.25-.14-.23-.18C10.89,18.28,11,18.45,11.26,18.73Zm-.06-1.19.33.31.12,0,0-.17C11.38,17.56,11.24,17.5,11.2,17.54Zm0,.7,0,0,.25.14.05-.06-.06-.05h-.06v-.05l0,0-.12,0Zm.08.69.06.05.05-.06-.06-.05Zm0-1.66.06.05,0,0-.07-.06Zm.17.18.21.12.08.11h.05l.05-.06-.41-.27Zm0,1.26.06.05,0,0-.07-.06Zm0-.62,0,0,.19.09,0,0-.07-.11L11.49,18Zm.15-1.18.23.17,0-.06-.23-.18Zm.07,1,.1.08,0-.12h-.06Zm.06,1,.06,0,.05-.07Zm.13-.84.07,0,0-.06Zm0-.35.39.3.59.37,0,0-.07-.11-.19-.09-.07-.11-.63-.4Zm.09,1,.06,0,0,0L12,18.73Zm.05-.27.08.11.12,0,0,0-.07-.11-.12,0Zm0-1,0,0,0-.06,0,0Zm.18.83.07,0,.05-.06-.07-.06Zm0,1,.07.11.82.54.29.23h.12l-.52-.41-.22-.12-.1-.13-.44-.24Zm0-.27.16.13v-.12l0,0Zm0,.64,0,0,.05-.07-.09-.07Zm0-.93.16.12,0,0v-.12l-.06,0Zm0-1.27,0,0,0-.07,0,0Zm.06-.27.13.11,0-.07-.07-.05Zm0,2.6.1.07.22.12v.06l0,0,.43.24.17.18.19.15.06-.06-1.07-.84-.11,0Zm.35-3,.06.05.15-.19L13,16.57l0,0ZM13,18.47l.07.11.14,0-.1-.07Zm0,.64.19.15s0-.09,0-.14l-.12,0Zm0-1.55h.05l0,0-.1-.07Zm0,3,0,0,.1.08,0,0Zm.09-3,.06.05,0,0-.07-.05Zm.1,3.11,0,0,.06.05,0,0Zm0-3.62.1.07,0,0V17H13.3Zm0,2.25.2.15,0,0-.13-.16h-.06Zm.08-.63.09.08,0,0-.1-.08Zm.09-.18.35.22.06.05.05-.06-.16-.13-.2-.21h-.06l0,0v.06Zm0-1.55.12,0,0-.06-.13-.1-.05.06Zm.07,2.56.52.4.05-.06,0,0-.26-.27C13.63,19.5,13.54,19.48,13.51,19.52Zm.08-.3,0,0,.33.31.12.05.06-.07-.49-.38Zm.09-.25.1.08,0,0-.09-.08Zm.23.18.1.13.66.42.17.19h.06l0,0-.9-.71Zm0,1.05.2.15.13.16-.05.07h-.06l0,0,.09.07v-.06l.07-.09.22.12,0,0a.29.29,0,0,1-.12-.25l-.24-.09-.2-.15Zm.08.64.09.07,0,0L14,20.77Zm0,.32.06.05,0,0L14,21.12ZM14.15,19l.39.31.25.14,0,0-.11-.13-.25-.15-.32-.25Zm.15,1.21.14,0,0,0-.12-.05L14.21,20l0,0C14.15,20.08,14.19,20.16,14.3,20.24Zm.32.52.1.08c.34.27.54.37.59.31l-.43-.39c-.12-.06-.2-.07-.23,0Zm.08.63.38.31.05-.07-.38-.3Zm.12-1.88.13.1,0,0-.13-.1Zm.12.72.22.17.05-.06-.16-.13Zm0,1.05.09.07,0,0-.1-.08ZM15,20l.36.34h.06l0,0-.3-.34Zm.11,1.45.29.23.05-.07,0,0-.16-.07-.07-.11h-.06Zm.08-2.29.1.08,0,0-.07-.11Zm.61-1,0,0H16l0,0,0,0-.12,0Zm0,.85.41.33.18,0-.05-.14-.1-.08a.66.66,0,0,1-.42-.12Zm.07-.62H16l0,0v.11H16l0,0Zm0,1,.32.19,0,0v-.12l-.16-.12H16Zm.1-1.13.05-.06.35.22,0,0v.05h.06l.48.38h.06V19l.42.33-.09.19c-.09.1-.15.14-.19.11l0,.18c-.11.08-.19.11-.22.08s.09-.19,0-.24l.16-.08v-.05l0,0-.51-.35-.07-.16-.38-.19-.07-.11.05-.07.14,0-.13-.16Zm.47.47.06.05,0,0,.12,0,0,0v-.12l0,0h-.12Zm.13,1.1.13.1,0,0-.07-.11h-.06Z"/><path class="cls-4" d="M17.49,8l.17-.11a1.87,1.87,0,0,1,2.43.27,2.88,2.88,0,0,1,.51.55,4,4,0,0,1,.45,1.91c.9.65,1.41.94,1.51.88L23,10.25l.11,0,.79,1.2c.06.09,0,.37-.15.83l0,0,1.44,1v.06l-1.41.92c-.15.09-.35,0-.61-.19l-.11.07A3.48,3.48,0,0,1,22,15.79a1.88,1.88,0,0,1-2.36-.32,5.41,5.41,0,0,1-.7-.77,2.17,2.17,0,0,1-.16-2.35l0,0a2.68,2.68,0,0,1-1.68-1.16l-.07-.1a2.17,2.17,0,0,1-.09-2.54A2,2,0,0,1,17.49,8Zm.84,1.75a1.64,1.64,0,0,0,.89.69l.11-.07c.06,0,0-.31-.25-.82l-.15-.24A.51.51,0,0,0,18.42,9l-.17.12C18.15,9.19,18.18,9.38,18.33,9.71ZM19,10.8l0,0,.15.15.06.16q.23.29.3.24l-.18-.27-.17-.19v-.05l0,0-.1-.08Zm0,.51h.06l.07-.05-.07-.1,0,0Zm.4.38-.06,0,.09.14s.09,0,.18,0h.06l0,0,.06.16,0,0c.05,0,0-.16-.1-.38l-.12-.12Zm.19.36,0,.13h.06l.08-.1-.07-.1v0l0,0Zm.2-.52.22.2,0-.12-.14-.14Zm.06-1c.11.13.18.17.24.14L20,10.44Zm.23,1.32,0,0,.07,0,0,0Zm.37,1a1.71,1.71,0,0,0,.19.81c.28.43.55.57.8.4l0,0a.56.56,0,0,0,.3-.59l-1.22-.67Zm.26-3.06v.06l0,0,.18-.11,0,0Z"/><path class="cls-4" d="M27.77,1.38l.29,0L30.33.81l.37,0v0c.14,0,.34.45.62,1.46l.94,2.52,0,.29q.3.64,2,5.43l-.1.11-2,.45c-.06,0-.11,0-.15-.14l-.33-1.1V9.62c-.08-.26-.15-.39-.21-.37l-.68.15v.21c.21,1,.27,1.53.15,1.64h-.37l-.12.07-.25,0-.24.05-.3.15-.76.17-.14-.05-.29-3h0L27.7,1.44l.08,0Zm1,1.3.13.56a1,1,0,0,1,0,.46L29,4h0a.34.34,0,0,1,.06-.27l-.24-1.08Zm.19,1.77,0,.28.1.11v.21l.08.15v.54c.05,0,.09,0,.11.11v.2h.08l0,.12c-.13,0-.18.14-.14.32l-.15.08.07.32h.13l-.07-.32.05,0h0l-.05-.24.2,0-.06-.24,0-.05-.05,0,0-.16,0-.26-.18-.46,0-.12c.11,0,.13-.17.07-.44A.21.21,0,0,0,28.92,4.45Zm.48,2v.25l.09.06h0v0l-.11-.27Zm.1,1.74,0,.12.11-.07v0Zm.11.52,0,.12.2,0,0-.08Zm.06.24,0,.08.2,0,0-.08Zm.13.77,0,.12.25-.05,0-.12Zm.06.28,0,.12.36-.08,0,.08,0,.05v0l.05,0h0c0-.13,0-.21.08-.22l-.15-.1v0l0,.05Zm0-6.27c.27,2.08.4,3.29.39,3.62l.14.26.68-.15L30,3.71Zm0,4.7.07.11h0l0-.12Zm0,.29.05.2h0l0-.22,0-.08h0ZM30,9l0,.12h0l0-.12Zm.16-.41,0,.08.08,0,0-.08Zm.12,1.65.05.2.16,0,0-.12Zm.11.48,0,.12.11-.07v0Zm0,.2,0,.08.1.06,0-.08Z"/><path class="cls-4" d="M34.76.84h.41l.08.08.16-.09.17,0,0,0h0l0,0L36,.8h.28l.13.08.08-.09h0l0,0h0l0,.2v.41a.21.21,0,0,0,.25.24l0,0c0,.3.08.45.14.45V2l0-.25,0-.12,0,0v0l0-.05-.1-.65.12,0,0,0,.21,0h.12l.41,0,0-.05.17.33q0-.33.12-.33h.24l0,.2V1.4l.07,1.06a.46.46,0,0,1-.23.34l-.17,0,0,0-.12,0,0-.16H37.8l0,.21h-.24l-.25,0c-.24,0-.37.12-.36.34l0,0h0l-.08.12v0l.1.49,0-.05h0v.45l-.08.13v0a.78.78,0,0,1,.13.41l0,0,.21.12.12-.09h0l.13.08.08-.09s.1.11.13.33h.08V4.86l.08-.08s.08,0,.08.12h0c.06,0,.08-.05.08-.13h0c.06,0,.09.07.09.2h0c.06,0,.08,0,.08-.12l0,0h0l0,.12c0,.18-.12.28-.2.3l0,.2v.12h.12V5.7q-.12,0-.12.09l0,0h0l0,0v.08l-.12.21.05.28v.33h-.08v0l0,0h-.33l0-.24h-.08l0,.21h-.12l0-.2c-.05,0-.08.07-.07.2h-.08c0-.16-.05-.24-.13-.24a.76.76,0,0,1-.24.38l0,.57h-.09l-.08-.08V7.22l0-.16-.09-.41c-.08,0-.12.11-.12.25,0,.44.13.65.35.65l.07,1,0,1.72,0,0,0,0v.17l-.08.08,0,0h0v.29l-.21,0c0,.16-.1.24-.16.25s-.11-.07-.13-.21-.08,0-.07.13l0,0H36.3l0,0-.12.09-.21,0-.12,0q-.33,0-.33-.12v-.24L35.41,10l0-.37-.05,0h-.08l0,1.27-.08.09-.05,0v-.54h-.08l-.08.08V11l-.08.09h0v-.29l0-.33,0-.45,0-.94,0,0,0,0v0l0-.29,0-.33h-.05l0,0V8.14l0-.17.07-.2,0,0V7.56A.41.41,0,0,0,35,7.27l-.16,0V7.11l0-.16,0-.17v0l0,0,.11-.45h0l0,0V6.13q0-.21-.09-.21l.08-.29-.1-.49V4.9l0-.29h0l0,0L34.76,4V3.5l.12-.12v.08h0l0,.21v.12c0,.16.06.24.13.24l0-.16,0,0v0l0,0v0l0-.37,0-.61,0,0h-.08l0,.33h-.09l0-.24L34.64.92Zm0,2.34h.08v.09h-.08Zm0-1,0,.16.12.08c.06,0,.08,0,.08-.12l0-.12Zm.07,2.46,0,.12h.13v0l0-.33c-.06,0-.08.08-.08.25ZM35.1,6v.41h.08V6.2l0-.2Zm.07-1.85v.2l0,0,0,.05v0l.11.94,0,.12c0,.22.08.33.13.33l0,0,0,0,0-.42V5.29h.12v.12l0,.25-.07.16c.06.17.11.25.17.24l0-.2-.05-.29h0l0,0V5.2l0,0A.22.22,0,0,0,35.53,5l-.08.09h-.09V4.72h0l.17.12.08-.29c0-.06,0-.08-.13-.08l-.12,0,0,0v0l0-.16,0-.13ZM35.35,6l0,.29v.29h.08l0-.12,0-.45Zm0,2.38v.08h0V8.33Zm0-1.56v0h.08v0Zm0-3.94V3l0,.21h.08v0C35.51,3,35.47,2.84,35.38,2.83Zm0,1.44h.13V4.18h0Zm0-.83v.21l.08.08V3.65l-.05-.21ZM35.5,1.1l0,.13,0,.2.05.25h.08V1.59l-.06-.49Zm.08,8.82V10l.08.08V9.92Zm0,.29,0,.49h.08l0-.57Zm.06-3.9v.21h0V6.31Zm0,.41v.12h0V6.72Zm.06.49,0,0v0l0,0h.08v0Zm0-2.58.09.08V4.62Zm.05.16v.12h.12v0l-.08-.08ZM36.1,5,36,5.07l0,0H35.9l-.08.09c0,.11.07.16.21.16l0,.28v.25l.08.08h.09v-.2l0,0,0,0V5.39l0,0,0,0V5.19C36.22,5.05,36.18,5,36.1,5Zm-.23.78v.08H36V5.73Zm0-3.41v.09h0V2.32Zm0,.29v.08H36V2.61Zm.14,2.09v0l.09.08v-.2Zm.08-3.16v0h.08v0Zm0,8.37V10l.09.08v-.2Zm.05-7.1,0,.16c0,.19.07.29.13.29l0,0V3.17h0l0-.05v0l-.05-.28Zm0,3.53v.2h0v-.2Zm.44-1.94,0,0v0l.05.37,0,.25,0,.32,0,0h-.08l-.1-.57V4.53h-.08v.33c0,.13,0,.2-.07.2l.15,1.35V6.5h.08l0-.24a.62.62,0,0,1,.19-.42l.1.53h0l0,.13h0V6.4h0l0,0V6.2l0,0,0,0V6h0s.09.1.13.29h.13l0,0h0c0-.22-.16-.33-.34-.32L36.7,4.44l0,0Zm-.19,2.34.09.08h.12l0-.16h-.09Zm.06-4.06v.2h.13V2.76l-.08-.08Zm0,.29v.08l.08.08-.08.12,0,.12h0l0,0h0L36.62,3V3Zm0,.53v0l.09.16h0V3.49Zm0,2.09h.08v.08h-.08ZM36.72.78l.13.08,0,.41h0L36.7,1.2V.87l0,0Zm0,9v.16h.09V9.77Zm.06-7.1,0,0v0h.12Zm.1,2.21,0,.13,0,.37v.08H37V5.09l0-.21Zm0,3.61v0l.09.08h0V8.49Zm0-5h0v.12h0ZM37,10.3v.12H37V10.3Zm.14.44,0,0v.13l-.08.08h0v-.16Zm0-9.31v.16h.08V1.51Zm0,3.86v.32l.09.08V5.37ZM37.39,1v.13h.08V1Zm0,4.06v.17l.08.08V5.15Zm0-3.57v.13h0V1.5Zm.18,3.77.09.08h0V5.19h0Zm.11.9V6.3h.09v0Zm.18-.82v0l.08.08,0,0V5.26h0ZM38,1.69v.09c0,.35.06.53.14.53l0-.29V1.77Zm0,4v.13h0V5.71Zm0,.62v.12l.08-.08v0Z"/><path class="cls-4" d="M40.4,2.06l.12,0c0,.14,0,.21.17.23V2.6H40.4l-.07-.13ZM43,.92l0,0L43,1.08v.46l.13,0,.07-.2,0-.37,0,0,.16,0L43.5,1h.29l1.58.25V1.5l-.25,1.62-.07.19a4.51,4.51,0,0,1-1-.23l-.17,0,0-.05a1.55,1.55,0,0,0-.25.79h0a.1.1,0,0,1-.14.1l0,.13h.08v.33l-.21.3h-.08c0-.22,0-.34-.07-.35h0v.08h0l0,.05-.06.36L43,4.91c0-.08,0-.12-.06-.13s-.11,0-.15.18h0l0-.3,0-.2-.08,0s-.1.09-.17.27c-.08,0-.13,0-.14.1h0l-.2-.32L42,4.76h0l0-.13,0,0,0-.12L42,4.33,42,4l-.13,0,0,.28-.2,0,0,.21.19.11v0c-.08,0-.15,0-.23.13l-.09.61c0,.16,0,.25.09.26s.06-.2.11-.19V5.2l0-.16h0l.07.1,0,.2h.08L41.93,5h0c.05,0,.09.1.13.27h0l.1-.36h.12l0,0v0l.07.09h0V4.86l.16,0,0,0V5s.07.13.06.38l-.05,0v0l-.06.65,0,.21h0l.09-.07v0l0-.41.08-.24.08,0v.29l0,.12h.08l0-.2L43,5.65l0,.22h0l.12-.28.09,0c0,.19,0,.29.07.3l-.13.31v.66l0,0,0,.49L43,8.64l-.1.35,0,.42-.27,1.74-.13.1-2-.3-.11-.1,0,0,0-.49L41,6.71l.11-.44V6.06l0,0V6l0-.13a1.26,1.26,0,0,0,.27-.7,1.89,1.89,0,0,1-.07-.6l.06-.11.29-1.62.08,0,0,.12,0,0v0l.08.3-.06.12h.08l0-.12.07-.2H42v.25h.08l.07-.19v0c0-.06-.07-.1-.23-.12V3h0l.1-.11-.12-.31.08,0v0l0,0,.09,0,.16,0,.23.16.31-.16.16.06,0-.12-.07-.09-.13.06-.16-.1,0,0h0l-.12-.06-.09.07h0l0-.17.05,0H42.2l0-.24c0-.25-.05-.38-.11-.39l.1-.15c-.16,0-.21-.23-.15-.61l.08,0,.07.09,0,.2.08,0,.08-.24h.08l0,.26.12,0,0-.17h0s.06.15,0,.42l.09-.07V1.1c.06,0,.09,0,.11-.15l0,0Zm-2.53.78h.08v.08h0L40.49,2h-.08Zm0-.21h0l.07.09v.08h-.12Zm.38-.85.07.09-.06.37h0l.15-.1.14.11c0-.27.09-.4.15-.4s.07.14.06.39h0c0-.24.09-.36.14-.35h.08V1l.12,0,0-.2.13,0,0,.16c0,.33.06.5.13.52-.1.16-.18.24-.25.25l-.07-.09,0-.21H41.7l-.05.32a.32.32,0,0,1-.16.23c-.11,0-.15-.11-.14-.19l.06-.11,0-.05h0l-.1.4-.1-.14,0,0,0-.13h-.08v0l0,.13L41,2.11l.07.1.17,0v0l-.08.24,0,.17H41.1l-.05-.22.06-.16H41l-.06.4-.12,0,.08-.57h-.12l0,.12h-.08l0-.3,0-.12h.05s.07.08,0,.22h.13L41,1.7l-.14-.14-.12,0c0,.08-.05.11-.1.11h0v0l.15-.14c-.06,0-.1-.13-.11-.35L40.73,1h0C40.75.73,40.81.63,40.86.64Zm.24.08h0l0,.17h0Zm.11,7.44,0,.08h.09V8.17Zm.24-5.69.07.14v0l-.09.07-.09,0V2.53ZM41.4,6.61l0,.33h.08l0-.32Zm.1-.94,0,.13h.05V5.68Zm.27-3.4.07.1v0l-.05,0,0,.05v.12l-.08.19h0l-.1-.14.12-.23,0-.13,0,0Zm-.08,1.65,0,.12.12,0V4l-.07-.1Zm.25,2.44,0,.17H42l0-.08Zm.33-.53-.06.41h.08l0-.2V5.84Zm.08-2.72-.06.11,0,.13h0c0-.11,0-.16.1-.15l.11.1v0S42.51,3.17,42.35,3.11Zm0-.21,0,.13h0l0-.12Zm.07,3.87v.12h.08l0-.12Zm.09,1.59,0,.24.1.14.06-.11C42.62,8.46,42.58,8.37,42.5,8.36Zm0-3.57.12,0v0l-.12,0Zm.23.41h0l.07.09-.07.2-.09,0,.05,0,0,0Zm0-2.24,0,.12h.08v0l-.1.11a.56.56,0,0,1,0,.38h0l.08-.28,0-.41ZM43,6.52l0,0v0l.07.09h0V6.62Zm0-1.24H43l0,.08h0ZM43,4l0,.2.09-.07v0Zm0-.83,0,.12.1.14.1-.07,0-.12Zm0,2.7L43,6l0,0h0l0,0,0-.12Zm0-2.08L43,4h0l0-.16ZM43.35,5h0l.1.14-.2.47-.08,0c0-.1,0-.16-.06-.17C43.24,5.1,43.3,5,43.35,5Zm-.08-1.59.12,0V3.31h0Zm.36-.73,0,.12h0l0-.13Zm.31.13v.08h0V2.78Z"/><path class="cls-4" d="M47.68,1.71l.5.17,0,.05.06,0h0l.14.09.28.06,1.71.58-.11.18.11.08.08-.23.11,0,.05.1.19,0,0,.05.12,0h.13l0,0V3.1l-.56,1.63-.16.08L50,4.67l-.09-.11-.15,0-.23-.08c-.05,0-.06-.06,0-.14l0,0,0,0-.09.15-.24-.08-.5,1.47-.05,0,0,0-.09.27.18.11.05,0,0,.05.15.06,0,0,0,.05.15.06.06,0,0,.05,0,0,.4.09a.22.22,0,0,1,.08.29l-.35,1c0,.06-.08.06-.18,0l-.08.23.09.25L49,8.48l0-.06-.15-.05-.05,0-.13-.13-.17,0-.05-.1v0L48.47,8l0-.3-.08,0-.09.4,0,.08c0,.05-.06.06-.14,0l0-.05,0,0a.38.38,0,0,0-.43.25l0,.2-.08.11-.12.47-.14.39L47,10.65l-.14.13,0,.05-.07.2-.07,0,0-.38c-.07,0-.12,0-.17.12s0,.31.06.32h.13v0l0,.18H47l.08.16.14-.17a1,1,0,0,1,.1-.53l0-.05h0l-.1.31-.11.18,0,0c-.05,0,0-.3.13-.86h.13l0,.05h0l.32.07v.17h0l0-.11q.12,0,0,.39h.12l.1-.28.1-.05,0,.11,0,0v0l-.11.57-.16.21,0,.34-.17.37-.12,0,.07-.19-.08,0,0,.21c-.07,0-.13,0-.16.11s-.1,0-.12.09l-.21,0-1.44-.49c-.12,0-.18-.09-.16-.14H45l-.58-.2-.08-.15L44.82,10l0-.17.21-.36,0-.05.06-.16,0,0c.06,0,.06.1,0,.25l0,0,.27-.78h0l-.05,0h0c0-.13,0-.2,0-.22.12-.28.21-.4.26-.39l.08,0,.05-.15L45.52,8l.12-.35.17-.11,0-.42,0,0,.09-.5,0-.07h0l.12-.48.5-1.43.15-.21V4.15l.3-.89L47.27,3h0l0,0,.2-.84.12-.22,0,0,0,0Zm-2.66,9-.16.47.08,0,.16-.47ZM45,10,45,10l0,0,0-.08Zm.12,1.16-.12.35.08,0v-.21l.08-.1,0,0Zm.06-2.06,0,0,0,.07h0Zm0,1.83,0,.12h0l0-.12Zm.06-2.06h0l0,.12h0Zm0,1,0,.12h0l.08-.1Zm.49-1.69,0,.11,0,.25,0,0v0l-.09.5-.11.22-.08.23.07,0,.44-1.28,0-.1ZM45.6,10.4l0,.12c-.14.41-.18.64-.1.66l.23-.53c0-.14,0-.22,0-.23Zm.29-.85-.08.23-.1.19-.08,0,0,0,0,0,0,.12.06,0,.11,0,0,.25h0a.26.26,0,0,1,.2-.19V9.81L46,9.58Zm.32-1.8-.08.1-.25,1-.11.35,0,.11L46,8.64l0-.24.09-.14.08-.5Zm-.33.19V8l.07,0,0-.12Zm.1,2,.09.12h0V9.93l.1-.18h0C46.09,9.73,46,9.8,46,9.93Zm.23.6-.1.27.08,0,.07-.2ZM46.4,9l-.21.62.08,0v0l.16-.33C46.46,9.05,46.45,9,46.4,9Zm-.17-2.28,0,.08.08,0,0-.08Zm.24,3.86-.2.45,0,0,0,0,.23-.4Zm-.09-3.41,0,.08.08,0ZM46.5,5.9l-.11.18,0,.1,0,0,.09-.27Zm-.1.66.23.08.06-.29.09-.27C46.71,6.06,46.58,6.22,46.4,6.56Zm.08,1.16-.07.19.11,0v0Zm0,.92-.08.23h0l.1-.18,0,0Zm0-1.87,0,.08h0l0-.08Zm.38,2.43-.09.14-.18.76-.12.22,0,0,0,0,.37-1.09Zm-.17-.28V9l-.18.42v.13l.08,0,.2-.58Zm-.09-.59-.08.23c.05,0,.09,0,.11-.09V8.34Zm0-1,0,.08h0l0-.08Zm.13.35-.06.19,0,0,.1,0,0-.08Zm.09-1.27v0l-.05.28.07,0,0-.08,0,0,.06,0V6.4Zm0,3.81-.06.16h0l.05-.15Zm0-2.93-.08.1v.13l0,0,.08-.11V7.26Zm0-1.66,0,.08.08,0,0-.08Zm.21,3.8-.16.47,0,.28,0,0L47,10l0-.29.14-.39ZM47,8.93l0,.11,0,0,0-.12Zm.12-5.13L47,4l0,.2.08,0,0-.12,0-.14.09-.14,0-.05Zm0,2v0l.08,0v0Zm0,.79,0,0,0,.21h0l.08-.1,0-.21Zm0-1.65,0,.12h0l0-.11Zm0,7.08-.06.16h0l.08-.1,0-.05Zm0-4.6,0,.08.07,0,0-.07Zm0,1.09,0,.12h0l0-.12Zm.05-4.93-.06.16.11-.06Zm0,4.53-.07.1.09.12,0-.12Zm.08-3.88-.12.35.08,0,.12-.35ZM47.21,7l0,.08.07,0Zm.12,1.56-.1.4,0,.08.07,0,.07-.19.13-.26,0-.05,0,0-.05,0Zm0,2.68-.09.36,0,0,.11-.05.06-.2,0-.1Zm1.09-.27.08,0-.1.4v0l-.06,0,0,.05-.2.58,0,0-.06,0-.17.5-.21,0c-.13,0-.18-.1-.16-.15l-.19,0c-.11-.08-.16-.14-.15-.19s.21,0,.23-.05l.13.13,0,0,0,0,.16-.59.13-.13.06-.42.07-.1.08,0,.09.11.11-.18Zm-.86-4.07-.16.46L47.24,8h0l.08-.1,0-.21.08-.1.16-.72Zm-.22-1-.06,0,0,.07.11,0,0,0Zm0,.86,0,.11.11,0,0,0Zm0,3.69,0,.12h0l.08-.1Zm.21-7.91-.2.45,0,0-.07.1v.13h0l.11-.18h0l0,0,0,0,.1-.44Zm0,3.6-.19.41v.13l.16-.08C47.55,6.29,47.56,6.13,47.51,6.12ZM47.65,11l-.17.51.08.15.12-.09,0-.11a.69.69,0,0,1,0-.44Zm0-4.63,0,.25-.08.1,0,0,.08,0,.12-.48Zm0-3.42,0,.07,0,0,0-.08Zm.11,3.2,0,.08h0l0-.08Zm0,.83V7l.08,0V7Zm.23-2.56L47.84,5l0,.1.21-.62ZM48.18,2q0,.12-.12.09L48,2l0,0v0l0,.05v0l0,0,0,0,.18.1L48.26,2ZM48,3.76l0,.08h0l0-.08Zm0,3.51v0l.08,0v0Zm.27-4.55-.1.41-.09.27.08,0,.16-.59,0-.12,0,0Zm-.12,8.81,0,.08,0,0v.13l0,0,.1-.05,0,0-.05-.11Zm0-3.61,0,.08,0,0,0-.08Zm0-.09,0,.06h0l0-.12Zm.18,3,0,.06v0l-.11.05,0-.06v0Zm-.07-7,0,.12.05.1.07-.19Zm.06,2.49-.1.27.08,0,.09-.27Zm0,.91-.06.15.08,0,0-.08Zm.2,3.45h0l0,.11v0l0,0-.05-.1Zm.07-6,0,.11.07,0,0,0Zm.11,3.2,0,.12h0l.1,0,0,0ZM48.72,5l-.1.18,0,.06h0L48.76,5Zm.06,2.49,0,.08.23.08,0-.11,0,0Zm.1-5.08-.06.16,0,.2,0,0,.15-.3,0,0ZM48.8,8l.05.11.08,0L49,8,48.9,8Zm.11-3.73,0,.16h0L49,4.31Zm.3-1.24,0,0,.05.1,0-.12Zm0,.88,0,.08h0l0-.08Zm.09-.27-.05,0,0,.08.06.11,0,0,0-.08Zm0-1,0,.08h0l0-.08Zm.14.48,0,.12.08,0v0ZM49.8,3l-.1.31.08,0,.08-.24Zm.42.44-.1.28.08,0,.07-.19Zm.63-.34,0,.12h0l0-.12Z"/><path class="cls-4" d="M53.6,4.66l0,0,0,0,.13,0,0,.16.1.06s.09,0,.13-.07l.08,0-.11.18,0,0h.15l0,0-.25.61,0,0,.15-.19.08,0v.18l0,0-.26.37,0,.21.18-.23.15-.35.21.13V5.93l.06-.11.07,0,.06-.1-.05-.17c0,.07-.08.09-.13.07l-.08-.19,0,0h0l0,0,.07-.29-.2-.06V5l0,0,.07,0,0,0v.06l.18.1.27.1-.07.29,0,0,.19-.17.29.16c0,.1,0,.17,0,.2l.11,0,.07.23,0,0,0-.07.07,0-.06.1-.09.33-.16.29.11.06c.08-.15.14-.2.19-.18l.36.21.14,0c-.09.23-.12.36-.07.39l.13,0a.91.91,0,0,1-.1.42c.05,0,.1,0,.15-.1l.06,0,0,0c.05,0,0,.1,0,.22l.1.06.16-.19,0-.06,0,0,.06,0,0,0L56.64,7l0,0c.15.08.13.57-.08,1.46l-.08.14-.16,0-.12.21.07,0,.1-.18.07,0-.07.2-.2.36,0,.06h-.06l0,0c-.58.93-.93,1.36-1.06,1.28l0,0,.12-.21,0,0c-.19.33-.36.45-.53.36l-.44-.06,0,0a1.5,1.5,0,0,1,.26,1.71l-.27.31,0,.13-.23-.09v.06c.15.08.1.34-.15.76l-.58,1,0,.16-.11.12-.29.5-.08.24c-.1.1-.17.14-.21.11l0-.11c0,.07-.09.1-.13.07l0-.06-.22,0-.12-.11-.16-.05,0,0,.16-.29,0,0-.06,0,0,0-.06.19,0,0-.06,0,0,0-.08-.09-.27-.11,0,0-.06,0L50.88,15a.24.24,0,0,1-.07-.37l.13-.16.15-.34.08-.15.11,0,.11.06.07.13h0l.06-.11q0-.08-.21-.21a2.17,2.17,0,0,1,.3-.68l.85-1.5.05,0c.24-.52.26-.84.07-1l0,0h-.06l-.21-.12-1.64,2.89c0,.05-.09,0-.18,0l0,.07a.44.44,0,0,1,0,.4l-.14.16-.08.24-.11.17-.16,0-.15-.08-.15-.14-.24-.08-.18-.1-.08-.19-.07,0,0,.07-.07,0,0-.07s.08,0,.15,0l0,0,0,0v-.06l-.06,0L49,13.54l-.1.18-.12,0V13.7l-.2-.07-.28-.16q-.08,0,.09-.42l.1-.08,0-.17.32-.38.23-.58c.16-.25.26-.37.29-.35l.34-.76,0,0,0-.05,0,0h.05v-.06l.24-.43h.05v-.06l.3-.53.17-.38a4,4,0,0,1,.88-1.06v0l0,0,.1.06c0,.07,0,.12,0,.15l.14-.16.16.14,0,0,0-.07,0-.11-.12,0,.08-.14s.07,0,.15,0l.06-.11c-.11-.05-.1-.21,0-.45l0-.06,0,0-.06,0,0,0,0,0a.4.4,0,0,0-.22.21l-.14-.08.65-1.24.1-.08.09-.24.64-1.14.14-.16.08.19C53.44,4.66,53.54,4.62,53.6,4.66Zm-4.83,8.76,0,0,0,.11,0,0,.06-.11Zm.13-.73,0,.12.11.06,0-.07Zm.09-.23,0,.07,0,0,0-.07Zm.37.92-.1.18.07,0,.12,0,.1-.18-.07,0Zm.24-2.08-.07.2-.07,0-.06.1.11.06.16-.28Zm-.07,1.79,0,.13,0,0,.11,0,0-.07-.07,0h-.06Zm.25-.28-.13.07v.06l.11.06,0-.07Zm.13-2.14-.12.12,0,.06,0,0,.1-.18Zm0,2.33,0,.11,0,0,.11,0L50,13l0,0ZM50,10.46l-.06.1.11.07,0-.08Zm.13-.4,0,.07,0,.22h.15l0-.22Zm.05,3-.06.1.07,0,.06-.1Zm.16-2.79,0,0,.14.08,0,0,0-.11Zm.33.66-.12.22,0,0,.11,0,0-.07,0-.12Zm.06-.67-.12.21,0,0,.12-.21Zm0-.7-.09.14,0,0,.16,0,.1.15,0-.07.07-.2L51,9.57Zm.1.48-.06.11.11,0,0,0Zm.15.23-.06.11,0,0,.06-.11Zm.24.66,0,.07,0,0,0-.07Zm0-.72,0,.11h.05l.06-.11,0,0Zm.48-.2,0,.13-.23.16-.07.29.07,0,.14-.16v0l.15.08.08-.14,0-.05,0,0a.11.11,0,0,0-.17.05l0-.12.14-.25Zm-.24-2.4.07,0,0,.12,0,0-.14-.08Zm0,7.37,0,.07.2.07,0,0,0-.11,0,0Zm.06-5.76-.06.1.11,0,0,0Zm.07-.86v.05l.07,0,.06-.1,0,0Zm.13,1-.06.11,0,0,.06-.11Zm.08-.8,0,0,.08,0,0,0Zm.36,3.84-.06.2-.11,0-.07.29.05,0,0,0,.1-.27.13-.21ZM52.16,15l-.06.11,0,0L52.2,15Zm0-7,0,0,0,0,.06-.1Zm.53.15-.06.11c-.07.12-.13.17-.18.14l-.08-.1-.06,0-.14.25,0,.11c.06-.1.11-.13.15-.1s.05.09,0,.18l0,.06.07,0,.11,0V8.62l.1-.08c.1-.23.12-.36.07-.39Zm-.36-1-.1.18,0,0,.1-.18Zm0,1.82,0,.07,0,0,0-.08Zm.37,3.26,0,.08-.14.15-.09.24-.08.14.07,0,.36-.55v0Zm-.11-6.13-.06.1,0,0,.06-.11Zm0,2.66,0,0,0,.11.06-.11Zm.19-2.58,0,0,0,.16-.11.12,0,0,0,.11,0,0,0,0,.05-.25.11-.12V6.25Zm-.12,5.36-.08.14,0,.11,0,0,.1-.08.06-.2,0,0Zm.05-1.16-.05.07.08,0Zm0-1.81-.07.1,0,0,.06-.1Zm.71-3.18v.15l-.36.64-.19.41-.13.16v.06l0,0,0-.07h0v0l0-.07.22-.3L53.31,6l.06-.11.16-.19.07-.29,0,0Zm-.6,6.3-.06.11,0,.11,0,0,.12,0,0-.12Zm.22-1.47-.22.39.07,0,.18-.32ZM53.1,9l-.22.3L53,9.4l.08-.14.06-.2Zm0-2.19,0,.07,0,0h.06l0,0,0-.13Zm.24-1.6-.26.46.07,0,.23-.39ZM53.11,12l0,.12,0-.08Zm.12-7.19L53.15,5l0,0,.08-.14Zm1,2.31-.13.22L54,7.3l-.1.18,0,0,0,0v.06l0,0,.05,0-.2.45,0,0,0,.06,0,.07-.06,0v.05l-.26.47q-.14.24-.21.21l0,.12.4.23a.38.38,0,0,0,.32-.15l.07,0-.1.08c-.18.37-.25.57-.19.6l.16-.05a2.49,2.49,0,0,1,.26-.7l.06,0,.28.17c0,.07,0,.12,0,.14l0,0,.06-.1.1-.27,0,0c-.06.09-.11.13-.15.1s-.06-.11,0-.24l.1-.09.15-.43-.07,0-.22.3,0,0V8.51l0,0,.14-.15.1-.18c.07-.12.08-.19,0-.22l.06,0a.57.57,0,0,0-.22-.78l-.07,0Zm-.55-1.44h-.06l-.08.15c-.11.19-.1.32,0,.38l-.06.11-.17,0-.06.1.07,0,0,0-.13.07.05.16.11,0,0,0-.13.22s0,.11.18.19l0,.17h.15l0,0c-.11.25-.15.39-.1.41l0,0,.12-.21.05,0L53.92,7l.16-.2.1-.18-.07,0,0,0L53.85,7l0,0-.13.06,0,.06-.06.11-.07,0c-.06,0-.07-.1,0-.2l-.07,0,0,.07,0,0,.07-.2.07,0,0,.07.11.07c.06-.1.11-.13.15-.11a.73.73,0,0,0,0-.44l.08-.56c-.06.1-.12.16-.19.17l-.09-.1h.06l.06-.11Zm-.43,5.41.07,0,0-.07Zm0-.25,0,.11.08-.14Zm.08-4.39.11.06-.09.15,0,0,0-.12Zm.07,2.87,0,.07-.07.2.11.06.12-.12,0-.22,0,0Zm0,.76-.08.14,0,.11.12-.21Zm-.07,3.35,0,.06,0,0,.06,0,0-.07,0,0Zm.08-1.22v0l0,.11,0,0,.06-.1Zm.1-7.4.07,0,0-.07Zm0,8.32,0,0,0,0,.11,0,0,0,0,0Zm.13-.73,0,0,.07,0,0,0Zm.05.5-.06.11.1.06.06-.11Zm0-2.83-.06.11,0,0,.06-.11ZM54,11.42l-.22.3v0l0,0h.06l.14-.25Zm.15-2.18L54,9.62l0,0c-.06.19-.07.29,0,.32l0,0L54,9.75l.08-.24.14-.16,0,0Zm-.2.92,0,.08.11.06.09-.09v-.06l0,0Zm0,2.38,0,.07.08,0,0-.07ZM54.17,11l-.16.37.11,0,0-.07,0-.05.06,0,0-.07,0-.11Zm.4-1.38q-.14.25-.21.21l-.18-.1-.06.2-.06,0,0,.11.06,0,.07,0c.06,0,0,.14,0,.31l0,0c.11-.19.2-.26.27-.22s0,.07,0,.14l.07,0c.1-.17.08-.29,0-.36s0-.16.07-.38Zm-.22-.17-.09.14.08,0,.08-.14Zm0-3.28,0,0,.07,0,.07-.11Zm.14-.91,0,.13,0,0,.07-.11Zm.19,1.34,0,0,0,.11,0,0,.06-.1Zm.22,1.86-.21.36,0,.11.14-.16.1-.18,0-.11Zm0,1.27L54.7,10l0,0,.14-.25ZM55,9.38l-.14.25,0,0,.14-.25ZM55,8.91l0,.08,0,0,0-.08Zm0-3.37-.06.1,0,0,.1-.08Zm.06,3.14,0,.11h.05l0,0ZM55.22,6l-.12.13,0,0-.06,0,.11.06,0-.06h.06l0-.07Zm.14,2.58-.17.14-.07.2.07,0L55.36,9Q55.45,8.68,55.36,8.62Zm-.18-.76,0,.07,0,0,0-.07ZM55.43,9a.18.18,0,0,1-.28.08l0,.11,0,0c.12.07.14.17.06.31l.07,0,.12-.21c.07-.12.08-.21,0-.28Zm.19.35-.1.17-.06,0,0,.05-.13.22L55.2,10l0,.31,0,0,.2-.26,0-.13.2-.26.1-.27Zm-.16-.9,0,.08,0,0,0-.07Zm.29,1.16,0,.07,0,0,0-.07Zm.1-.18-.08.14,0,0,.08-.14Zm0-1.78,0,.07,0,0,0-.07Zm.11,1-.06.11.11,0,0,0Zm.17-2.45.07,0c.05,0,.05.08,0,.15l-.14.16-.07,0,0-.12Zm.23.84,0,0,0,.07-.11,0V7.14l0,0Zm0-.64c.15.23.21.37.18.43h-.06l0,0c-.19-.16-.25-.3-.18-.43h.06Zm.12,1.2,0,.07.07,0,0-.07Z"/><path class="cls-4" d="M65.15,12.29c.23.26.32.47.28.63l.14,0a2,2,0,0,1,.27,1.64l-.23.43-.06.05h-.06l0,0c.07.07-.29.49-1.08,1.24l-.15,0-.33-.37v-.06h-.06l-.69-.76v-.06h-.06l0,0c-.09-.14-.11-.23-.07-.27l.09-.08,0,.06,0-.14.33-.19,0,0c.33-.45.46-.71.39-.79l0-.06c-.18-.2-.44-.16-.76.13l-.28.25a1.65,1.65,0,0,0-.35,1.69c.15,1.52,0,2.53-.6,3,0,0-.19.3-.68.78l0,0v.06l-.21.19h-.06v.05l-.07.06s-.09,0-.17-.07h0l-.06.05a.3.3,0,0,1,.07.21,2.11,2.11,0,0,1-.75.4v.05l0,0c-.33.13-.55.17-.67.11l.09-.08-.06-.06-.12.16a2.36,2.36,0,0,1-1.76-.85l.1-.14a.54.54,0,0,0-.37-.16v-.23l-.14,0,0,0V19h-.06l0,0c-.16-.26-.2-.43-.12-.5l-.13-.15c-.11-.28,0-.55.3-.83l.06-.05-.11-.07-.18.17,0,0c0-.21.15-.57.52-1.08h.12l0,0a.43.43,0,0,1,.13-.28l.43-.39.3-.33.12,0,.13-.17.17.07.46.58.12.06v.06l.31.28.35.39v.18c-.25.2-.39.29-.42.26l-.22-.18v-.06h.06l.06-.05v-.12l0,0-.09.08v.06H59.1l0,0-.07.11-.27.19-.12.17,0,.06h.06l0,0a1.65,1.65,0,0,1-.35.48c.05.05.05.19,0,.43l.13.21.28.13c.33-.21.51-.3.54-.26v.06l-.18.11-.1.14h.18l.09-.09v-.05l.18,0-.13-.21a1.86,1.86,0,0,0,.81-1.73,7.3,7.3,0,0,1,.12-2.75l.73-1,.18-.11.06-.11.12-.05.19-.22c.9-.74,1.66-1,2.27-.72v.05c.09-.06.16-.06.2,0s0,.09,0,.14l0,.06c.08-.07.14-.09.18-.05l0,0-.37.39h.11l.28-.25.18-.11.1.18h.12l0,0V12l.17.06c0,.11-.06.18,0,.21l0,0C65,12.25,65.1,12.24,65.15,12.29ZM56.62,17.9V18l.06.06h.11v-.12Zm.17.62s0,.12.08.27l0,0v.06l.05.06h.12l.06-.06,0,0-.22-.19,0,0ZM57,18l-.13.17.06.06a.22.22,0,0,1,.35,0l.06-.06v-.11C57.12,18,57,17.94,57,18Zm.07.32,0,0,.05.06,0,0Zm.44.43-.36.22V19l.05.07.34-.31Zm.11-2.08-.21.19.08.09.18-.1.07-.12Zm-.1-.18-.06.05,0,0,.06-.05Zm.26,2.68-.28.31,0,0,.3-.22v-.05Zm.06-2.26-.21.19,0,.07.22-.2ZM58,19.28l-.06.06,0,0,.06-.06ZM58,17.43l-.1.08,0,0,.12-.05Zm.47-.76-.36.21,0,0,.08.09.34-.3Zm.43-.44-.12.16h-.06l0,0-.06.11.05.06.06-.05,0,0,.07-.11.11-.06.06.07-.31.39-.27.18V17l0,0h.06l.7-.63-.11-.13-.06.06L59,16.32l.07-.06,0,0Zm-.34-.75-.06.06,0,0,.06-.06Zm.07.32-.12.11,0,0,.12-.11Zm.47,1.13.08.09,0,0-.18.11-.06-.06.07-.17Zm.37,1.77h-.06l-.09.08,0,.07h.06l0,0v.06l0,0V19l.08.09.1-.08-.09-.09Zm.27.36c-.21.21-.3.35-.26.39l.28-.24v-.12Zm.08.64-.06.06-.19.22h.18l.12-.23Zm.81-3.64-.16.13,0,0,.15-.13ZM61.48,13l-.06.06.08.09.06-.05Zm.18.94-.12.11.08.09.12-.11Zm.13.21,0,0,.09.09.09-.08,0,0Zm1.53.72-.06.06,0,0,.06,0Zm.2-3.09,0,0v.11l.15-.14ZM64,14.26l-.18.11-.18.16h.18l.09-.08.12-.17Zm-.18-2-.06,0v.12l.06-.05Zm0-.38-.09.09.06.06.09-.08Zm.31.72-.09.08.08.09.1-.08Zm0,1.45-.12.11h.11l.13-.11Zm.46-1.51-.37.33s.09,0,.15,0l.25-.27Zm.67.5-.24.1-.22.31-.39.36-.13.16,0,0c0,.06.12.06.2,0a.81.81,0,0,1,.23-.37c.19-.15.31-.2.35-.16v.12l.09-.08-.11-.12.21-.2V13Zm-.35.59v.06l0,0,.1-.09Zm.36.34-.22.19,0,0h.12l.15-.14Zm.37.05-.18.22-.06.05,0,0h.12l.18-.16V14h-.06Z"/><path class="cls-4" d="M69.79,18.66l-.06.14-.32.18,0,.07.32-.18.11,0s0,.09-.06.13l0,0,0,0c.07,0,.12,0,.15,0l0,0,0,.12.1.08c.21.37.14,1-.22,1.84a6.08,6.08,0,0,1-2,1.57l-.43.24-.44.22L66.86,23l0-.2c-.07,0-.12,0-.15,0l0-.11.32-.19,0,0a.18.18,0,0,0-.09.24l.23-.08.4-.29,0-.07c-.29.15-.45.2-.48.14l0-.11,0,0-.4.22v.06l0,0,0,0-.08-.14.22-.18s-.12,0-.31,0l0,0,0-.05,0,0-.13-.06,0-.19-.11-.12,0-.11-.17-.05v-.23l0,0,0,0,.06-.14.43-.24c1.3-.76,1.92-1.18,1.87-1.28l-.11-.27c-.11-.18-.4-.14-.88.13l-.55.28v.05l0,0a2.37,2.37,0,0,1-.77.31l-.09.09-2.14,1.29-.61.35-.36.26h-.06l0,0c-.61.36-.86.64-.73.85l-.11.06,0,.08c.09-.06.18,0,.27.13l1.3-.62.11,0,.74-.52.17,0,0,0,.07.2,0,0h.06v.15l.19.17.07.11c.06.12.07.19,0,.22h0l.06.11v.05l.15.11a.4.4,0,0,1-.2.21l.06.11.15-.14.14.06-.07.14L65,24l0,.07.4-.13,0,.16-.27.11-.14.08,0,.11-.26.05-.19.16-.16,0-.27.2a2.21,2.21,0,0,1-1.11.36l0,.06,0,0a1.06,1.06,0,0,1-.78,0l0,0,.11-.06-.06-.11-.29.16a2.16,2.16,0,0,1-1.4-1l0-.17.5-.29,0-.11h-.06l-.6.35,0,0q0-.08.12-.21l0,0-.26.05a.11.11,0,0,1,0-.17H60.3l0,0a2,2,0,0,1,.33-2.37,10.21,10.21,0,0,1,2-1.37L63.84,19l.35-.15.15-.14.31-.13v-.06l0,0,.16,0,0,0,0,0,.57-.33,0-.06,0,0,0,0,.16-.14c.79-.43,1.22-.59,1.29-.47l0,0,0,0c.25-.07.38-.09.4,0l0,0-.1.06,0,.07.25-.14a.35.35,0,0,1,.4,0c.07,0,.18,0,.34.09s.22,0,.41.15l.06.1-.12.12,0,0c.19-.12.34-.09.43.08,0,0,.12,0,.22.21l0,0v0l0,0Zm-9.28,4.1-.11.06,0,0,.11-.06Zm.12.54-.17.11.11,0,0,0Zm.75.47-.28.17.11,0,.14-.09Zm.1-2.85-.07,0,0,0,.07,0Zm.17,3.31-.23.18,0,0,.28-.17h0Zm0-.29-.21.12.1.09.14-.08Zm.07-.7-.1.06,0,.07.1-.06Zm.09-1.9-.11.06,0,0,.11-.07Zm.07-.94-.11.06,0,0,.11-.06Zm.29,3.53-.36.2,0,.11.5-.28Zm0-3.07-.15.08.12,0,.07,0Zm0-.31,0,0,0,.11.06,0,0,0v-.05Zm.13,4.24-.07,0,0,.11h.05l0,0,0-.11Zm.26-3.57-.32.19,0,.07.25-.15Zm0,2.82,0,0,.05.07,0,0Zm.18-4.19-.07,0,0,.08.08,0Zm.25.19-.07,0,0,.11.07,0Zm.45,0-.22.12,0,.07,0,0,.16-.14Zm-.06.31-.14.09,0,.07.22-.13Zm.32-.18-.1.06,0,.11.1-.06Zm.17,3.64-.14.09.06.1.07,0,0-.11Zm0,.61-.07,0,0,0,.07,0Zm.28-1.4-.28.17,0,.07.28-.16Zm-.22-2.43,0,0,0,.08.11-.07Zm.57-.32-.18.1-.23.18,0,0,.36-.2Zm-.15,3.26-.14.08,0,.07.07,0Zm.48-4.41-.53.31,0,.07.07,0,0,0,.27-.11.14-.08Zm.14-.41-.5.29,0,.11.64-.37Zm.29.74,0,0-.19.16-.13,0c-.3.2-.43.32-.4.38l.07,0,.73-.46Zm-.65,1.41-.11.07,0,0,.11-.06Zm.51-1-.47.27,0,.11.52-.25,0-.06Zm-.38,4.34-.07,0,0,0,.07,0Zm.43-5-.46.27,0,.11.07,0,0,0C65,19.42,65.14,19.3,65.11,19.24Zm.32,1.05,0,0-.76.49v.05l0,0,.18-.1.15-.14.36-.12.14-.17Zm-.22-1.44-.32.19,0,.11.32-.19Zm.06,1.25-.21.12-.16.14,0,0,.14-.08.23-.18Zm.1-1.63-.14.09,0,0,.14-.08Zm.11,1.17-.2.07,0,.11.06,0,.14-.08Zm0-.35-.22.13,0,0c0,.05.08.05.15,0l.09-.1Zm.33-1.14-.43.25s.08.05.15,0l.3-.22Zm-.14.41-.25.15,0,0,.23-.08,0-.06Zm.67-.15-.07,0,0,0-.16.14-.57.32,0,.08.64-.37.16-.14Zm-.53,1h0c-.18.13-.25.22-.23.27l.25-.15Zm.41.38-.6.35,0,.11.12,0C66.13,20,66.3,19.83,66.26,19.76Zm-.46-.63-.07,0,0,.07.07,0Zm.14-.75-.11.07,0,.11h.06l.07,0,0-.11Zm.31-.51-.1.06,0,.07,0,0Zm0,.27-.07,0,0,0,.07,0Zm.08,3.09-.07,0,0,0,.07,0Zm.58-3.18-.15.08.12,0Zm.1-.39,0,0,0,.07.1-.07Zm.06,1.57-.07,0,0,.07.07,0Zm.09-1.33L67,18l.12,0Zm.75,4.59-.41.19-.29.22h0l0,0,0-.06,0,0,.13,0,.48-.33Zm-.67-4.35v.05l0,0,.11-.06Zm.31-.46-.11.06,0,0,.11-.06Zm.15-.14,0,0,0,.11.17-.1Zm.33,3.27-.07,0,0,0,.07,0Zm.1-3.28-.08,0,0,.17.11-.06,0-.11Zm.23.24-.11.07,0,0,.11-.06Zm.27.14L68.5,18l0,.11.22-.12Zm.64,1.19-.32.18,0,.07.32-.18Z"/><path class="cls-4" d="M71.38,23.75l.25.78-.38.16.08.11.35-.12,0,.08-.06.1.13.13a.37.37,0,0,1-.25.17c0,.05.12.06.31,0l0,.08-.18.1v0l.25.09,0,.18.1.06,0,.07-.19.11-2.07.66-.28.05,0,.05v0l0,.05-.5.16s-.1,0-.17-.12-.2.17-.23.38l.12.09,0,.18.09.14c-.2.1-.29.17-.27.22l.43-.14,0-.05,0,0,0,0,.38-.16.25,0,.22-.11.6-.15,1.43-.51.27-.09.11.06c-.15.08-.21.16-.19.23.18-.06.29-.05.31,0l-.21.15H72l-.38.17-.41.09v0l.06-.11.46-.15,0-.05,0,0,0,0,0-.1-.36.07-.14.09-.37.08-.62.2,0,.12.5-.17.21,0v0l0,.1-.31.1-.3.14-.21,0-.6.28.1.05L70,27.8c.18-.05.28-.06.3,0v.12l0,0h0l.1-.12-.06,0v0l.06-.11.62-.2.1.06,0,0-.36.12,0,.08,0,0,.45-.19-.11-.09v0l.18-.1,0,0,0,0,.77-.29h.13l.41,1.29c-.25.11-.37.19-.35.24l.4-.08v0l0,.1-1,.33,0,0,0,.05-.86.28,0-.08,0-.05v0l-.35.11,0,0,0,.12-.25,0-.1.07-.06,0-.18.1-.66.21-.14,0-.28.09c-.12,0-.18.1-.17.14l-.07,0,0,0-2.13.73-2.15.69-.1,0v-.13l0,0-.08,0v.13l0,0-.09.12-.9.29-.15-.08-.27-.82s0-.1.17-.14l0-.08a.18.18,0,0,1-.26-.13l-.13-.39,0-.25-.08-.1.09-.12.62-.2c.14,0,.21,0,.22,0l0,.18.1,0,.09.27h0l.32-.32-.2,0,0-.05,0-.08-.1-.18a1,1,0,0,1,.4-.22l1-.32.1,0,0,.1.14,0,.21-.15,0,0,0,0,0,.06h0l-.11-.05.38-.17.29.08h0l0-.18.21,0,.39-.12c0-.1,0-.2.21-.29v0c-.16.06-.24.05-.26,0s0-.1.17-.14l0-.08c-.13.05-.22,0-.27-.17l-.47.15-.14.09-.05,0-.83.35-.25,0-.18.1L64,28.4l-.15.05,0,0,0,0-.55.18,0-.12.54-.17,0-.11,0,0v0l0,0-.42.14,0,.08-.12,0,0-.07-.08,0,0,.08h0l0,0,0,.11-.46.19,0,0h0l0-.05,0-.08-.31.1-.16-.08.11-.2-.18,0,0-.21L62,28.2v-.13l0,0,0,0,0-.18.21,0,.62-.21,0-.07-.86.27-.1-.18L61.62,27l.08-.16.31-.1,1-.35.37-.08.07.11,0,.05.11,0q-.06-.2.18-.27h0l.38,0,.13-.13c.14,0,.22,0,.26.13l.31-.1v-.16l.35-.12c0,.11.09.14.17.12l.29-.18,3.76-1.3L70.68,24l.14-.09.05,0h0l.34-.16ZM62.88,28l-.7.22,0,.12.23-.08.38-.16.05,0,0-.05Zm.94,3.05-.23.08,0,.12,0,0,.18-.1ZM63.65,30l0,.1.08,0Zm.78,0h0l-.52.12,0,.11.08.1.35-.11c.13-.05.2-.11.19-.19Zm-.3.4-.16.05,0,.11.16,0Zm.1.31h0c0,.13,0,.22-.21.28,0,.06.1.08.23.06l.17-.14ZM64.71,29l0,.05v0l.12,0Zm.28-.09-.08,0,0,.07L65,29Zm.15-1.13-.12,0v0l.12,0Zm1.11-.44-.51.17,0,.1,0,0,.26-.12.35-.12Zm-.11,1.15-.07,0,0,.08.08,0Zm1.35-1.29-.15.05.1.05Zm0,.24-.08,0v0l.08,0Zm3.62-2.93-.08,0v0l-.26.13-2.56.87,0,.05v0h0l2.88-1,0-.05Zm-2.73,2.9-.07,0-.06.1.24-.07Zm0,1.94-.06.1.16-.05Zm.1-1.42-.12,0,0,0,.11,0Zm1.07,1-.94.3-.05.1,1-.32Zm0-1.08,0,0-.11,0,0,.12.08,0Zm0-1.41-.12,0,.1.05,0-.05Zm.67-.86-.39.12,0,.08.31-.1Zm-.1,3.17-.23.08.1.05.16-.05Zm.3-2.94-.35.11,0,.08.27-.09Zm0,3.36-.12,0,0,.08,0,0Zm.15-.61-.12,0,0,.08.11,0Zm.12-4.3-.08,0,0,.12.15-.05v0Zm.1,1.13-.15.05.1.05.08,0Zm.11-.34h0l0,.11.12,0Zm.67,3.15-.14,0,0,.06,0,.11.08,0Zm-.05-2.83-.12,0,0,.08h0Zm.18,3.35-.08,0,0,0-.1.08,0,.08.19-.07Z"/><path class="cls-4" d="M74,33.53a.22.22,0,0,0-.15.18c.11,0,.16,0,.17.07v0l0,0,0,0V34a2,2,0,0,1-.69,1.76,2.5,2.5,0,0,1-1.78.79l-.12,0-.17,0-.77.12-.45,0-1.63.2h-.28v0l0,0-.16,0,0,0,0,0-.2,0c-1.58.15-2.38.15-2.4,0a1.5,1.5,0,0,1-1-.4l0-.13s.06-.09.2-.14l.12,0,.29-.07v-.08h-.08v0l-.4.08-.33,0L63.8,36l-.09-.08v0h.13v0l-.21-.06v-.08l.28-.07v-.09l-.13,0-.2,0,0-.13h.09l.28-.07,0,0,0,0v0a1.07,1.07,0,0,1-.59-.07l.07-.17L63.37,35v0l0-.17,0,0a3.08,3.08,0,0,1,.27-1.43,2.81,2.81,0,0,1,2-1.22l.21.06.28-.11h.33c.13,0,.2,0,.19-.1l.05,0h0l1.46-.18h.33l.45-.09,1.88-.18c0,.06,0,.11.13.15l0,0a.11.11,0,0,0,.11-.14h0l.09.07.28-.07h.17a2.17,2.17,0,0,1,2,1A2.41,2.41,0,0,1,74,33.53ZM64.11,35H63.7l-.16,0v0l.21,0L64,35l.13,0,0,0Zm.23.22-.21,0v.08l.21,0Zm0-.29h0L64.2,35l.2,0Zm.24.81h-.08v.09h.08Zm.24-1.39-.16,0-.08.09.25,0Zm0,.53h-.08l-.07.09h.08Zm.06,1h-.08v0h.08Zm.09-.79h0l-.08.09,0,0h0Zm6.78-1.45-1.88.18,0,0,0,0-.57,0-.13-.07H69v.08L67.94,34l-.26,0-.36.07h0l-.21,0-.24.06-.21,0-.44.09-.25,0-.17,0c-.48.12-.71.27-.69.44s.19.33.52.32l0,0v.08l.17,0v0l0,0v0l0,0h.86l0-.05h0l0,0h0l.12,0,.41,0,.12-.09h.25l2.2-.25L72,34.31l0,0v.08l.13,0,.2-.06v-.08l-.16,0v0c0-.06.07-.11.24-.15l0-.12,0,0,0-.13A.57.57,0,0,0,71.77,33.63Zm-6.5,1.42h-.12v0h.13Zm.23-2.75-.25,0-.07.09.24,0Zm0,.54-.07.09.16,0Zm.27-.56-.2,0,.09.07h0Zm0,.54h-.08v.09h.08Zm.89-.67h-.08v0h.08Zm.41,2.93h-.16v0l.16,0Zm0-2.72H67v.09h.08Zm.15,3.2H67.1l-.08.09.21,0Zm0,.78h0l-.07.09h.12Zm.11-1h-.12l.09.07,0,0Zm.44-3.06h-.08v0h.08Zm.92,1L68,33.3v0l0,0v0l.48-.09.25,0Zm-.59-.56-.12,0v0l.09.07h.08Zm.66.81h-.17v.08h.08Zm.09,1.84-.24,0v.09h0l.2-.06ZM69,31.88h-.08v0H69Zm.21,3.4-.16,0,.09.07Zm-.07-1.56H69v0h.08Zm.14-1.87,0,0h0l-.07.09.09.07h0ZM69.47,35h-.08v.08h.08Zm.42-2.48h0v.08h0ZM70,34.66h-.09v.08H70Zm.45-2.51h0l-.16.06-.13,0,0,0v0l.29,0Zm.29,1.29-.28,0v.09l.29,0Zm0-1.07-.21,0,0,0v.08l.25,0Zm.38-.33H71l-.2.06v.09l.33,0Zm0,.53-.33,0v0l.09.08.16,0,.07-.09Zm-.15.55h-.08l-.08.09.17,0Zm-.09-1.31,0,.05v0H71Zm.5.49-.2,0v.08l.2,0Zm.4.74h-.12v.09h0Zm.26-.35c-.16,0-.24.09-.23.14H72l.07-.09Zm.31,1.9h-.08v0h.08ZM72.65,33h-.12l.09.08,0,0Zm.24.76-.07.09H73Z"/><path class="cls-4" d="M74,41.49a.23.23,0,0,0-.18.14c.11,0,.16,0,.15.1v0l-.05,0,0,0v.09a2,2,0,0,1-1,1.57A2.5,2.5,0,0,1,71,43.9l-.13,0-.15-.06-.78,0-.45-.06-1.63-.15-.28-.07v0l0,0-.17,0,0,0,0,0-.2,0c-1.58-.18-2.36-.36-2.34-.52a1.42,1.42,0,0,1-.88-.6l0-.12c0-.05.08-.08.22-.1l.11.06h.29v-.08h-.08v0H64l-.32,0-.17-.31-.07-.09v0l.12,0v0l-.2-.11v-.08h.29v-.08h-.12l-.2-.07,0-.12h.37l0,0,.05,0v0a1,1,0,0,1-.55-.19l.1-.15-.07-.09v0l.06-.15,0,0A3,3,0,0,1,63.89,39,2.74,2.74,0,0,1,66,38.25l.2.1.29-.05.32.08q.21,0,.21-.06l0,0h0l1.47.14.32.08h.46l1.87.22a.19.19,0,0,0,.1.17l0,0a.11.11,0,0,0,.14-.11h0l.07.09h.29l.16,0a2.21,2.21,0,0,1,1.73,1.44A2.31,2.31,0,0,1,74,41.49ZM64,40.77l-.4-.09-.17,0v0l.2.06h.21l.12.05,0,0Zm.18.27L64,41v.08l.21,0Zm0-.28h0l-.09.07.2,0Zm.07.83H64.2v.08h.09Zm.3.24h-.08v0h.08Zm.22-1.54-.16,0-.09.07.24,0Zm-.06.53h-.08l-.1.07h.09Zm.09.26h0l-.09.07,0,0h0Zm.29,0H65v0h.12Zm6.65,0-1.88-.22,0,0,0,0-.57-.07-.11-.09h-.08v.08l-1.11-.09-.23-.11h-.42l-.19-.06h-.25l-.2-.07H66.2l-.25,0-.16-.06c-.49,0-.75.11-.77.28s.12.36.44.43l0,0v.08l.16,0v0l0,0v0l0,0h0l.81.17,0,0h0l0,.05h0l.12,0,.4.13.13-.07.24.07,2.21.22,2.12.24,0,0v.08l.12.06.21,0v-.08l-.17,0v0c0-.06.09-.09.26-.09v-.13l0,0,0-.12A.56.56,0,0,0,71.78,41.11Zm-5.85-2.63-.24,0-.09.07.24,0Zm-.1.53-.09.07.16,0Zm.24,0H66v.09h.08Zm.15-.52-.21,0,.07.09h0Zm.57,4.28h0l-.09.07h.12Zm.06-1.27-.16,0v0l.16,0Zm.07.5H66.8l-.09.07.2,0Zm.19-.22-.12,0,.07.1,0,0Zm0-3.23H67v0h.08Zm.37.3h-.08v.08h.09Zm1.43,1.2-.77-.1V40l0,0v0l.49,0,.24,0Zm-.69-1.16h-.08v0h.08Zm.24.48H68.3v0l.07.09h.08Zm.17,2.75-.25,0v.08h0l.2,0Zm.28,0-.16,0,.07.09Zm0-1.86h-.17v.08h.08Zm.25.32h-.08v0h.08Zm.09,1.29h-.08V42h.08Zm.16-3.12h-.08v0h.08Zm.29,0,0-.05h0l-.09.07.07.09h0Zm.15,2.91h-.08v.08h.08Zm.34-2.15h0v.08h0Zm.64-.22h0l-.17,0-.11,0,0,0v0l.28,0Zm0,1.33-.28,0v.09l.28,0ZM71,39.66l-.2-.07,0,0v.08l.25,0Zm.11.8h-.08l-.09.07.16,0Zm.27-.51-.33,0v0l.07.09.16,0,.09-.07Zm.06-.53h-.33v.09l.32,0Zm-.14-.26,0,0v0l.13,0Zm.39.58-.2,0v.08l.2,0Zm.24.81h-.13v.08h0Zm.32-.29c-.17,0-.25,0-.26.09l.16,0,.09-.07Zm-.1,1.93H72.1v0h.08Zm.59-1.54-.12,0,.07.09,0,0Zm.07.79-.09.07.16,0Z"/><path class="cls-4" d="M64,47.21l0,.08q-.06.2-1-.06l-.11,0,0-.05-.05,0-.12,0L62.53,47l0-.08.16-.08.35.11.6.15Zm.32-.46,0,.08c-.13,0-.2,0-.22,0l-.1-.08H63.8l0,0,.11.07.21,0,.1.08,0,.12-.21,0-1.06-.33,0,0h0v0l0,0,0,0,0-.1,0-.08h.13l0,0v0s0-.09-.09-.11l0-.05v0l.11-.06.27.09,0,.05.45.06Zm9.09,0-.09.15,0,.29-.09.27-.05,0,0,.05,0,.12-.1,0,0,.18-.13.13,0,.1-.18.59c0,.08-.09.1-.19.07l-.19-.1-.48-.11-4.34-1.36L67,47.05l0,0-.56-.26-.54-.08-.69-.26-.46-.06c-.16-.12-.23-.2-.22-.24l.49.07,0,0-.5-.2-.05,0,0,.21,0,0A6.75,6.75,0,0,1,63.3,46l0,0,0,.08.83.21v0l0,0h0l0,.1c-.23,0-.36,0-.4.05l-.26-.13-.27-.08-.41-.09,0-.14.1-.31.15-.34.08-.41,0-.15c0-.13.09-.19.14-.17v-.26l.19-.63.16-.08.15.05,1.11.3.22.12h.13l.44.27.11,0,.34,0,.35.11.29.18.08,0,.34,0,.22.12.4.08.27.12.32.06,2.68.8,2.14.71Zm-9.61,0-.29-.17L63,46.52l0,.08.7.22Zm-.48-1.35-.1.06.15,0Zm.27-.73h0l-.1,0,.19.06Zm.23-.19-.2-.06,0,.12.19.06Zm.74,2.86,0,.11-.16,0,0-.12Zm.1-.19,0,.08-.11.06q0-.09-.15-.18l.15-.08.08,0Zm.16-.51,0,0-.27-.09v0l.1-.06.16,0Zm-.1.19,0,.08h-.17l0-.06,0-.07Zm.13-1-.2-.06-.1.05.27.09Zm.06-.88-.11.05.06.1.1,0Zm.06-.2-.12,0v0l0,.1,0,0Zm.31,1.47-.12,0v0l.12,0Zm.8-1.47-.43-.13.06.1.27.09Zm.41,1.46-.12,0v0l.12,0Zm.41-.9,0,0h-.21l-.14-.09h0l-.1,0,.45.19.06,0Zm.14.78-.21,0,.08-.23-.2-.06,0,0-.21,0,.16.31-.21,0v0l.37.2c0-.05.14,0,.37,0C67.14,46.25,67.1,46.19,67,46.15Zm-.16-.57-.27-.13h-.12l.08.15.19.06.1-.05Zm.25-.53-.43-.13,0,.12.26.12A.23.23,0,0,0,67.09,45.05Zm.22,1.49-.08,0v0l0,0-.31-.1-.19-.1,0,0v0c0,.05,0,.09.09.12C67.09,46.6,67.28,46.62,67.31,46.54Zm-.2-.62L67,46l.08,0Zm.71,0-.16,0-.26-.13,0,0a.12.12,0,0,1-.08-.16h0c0,.08-.08.1-.19.07v0l0,.1.32.1.1,0,.13.13h.13Zm-.24.19h0l0,.08h0ZM69.45,46l-.15,0,0,0v0h.13Z"/></g></g></g></svg>