<svg xmlns="http://www.w3.org/2000/svg" xmlns:xlink="http://www.w3.org/1999/xlink" viewBox="0 0 74.8 74.8"><defs><style>.cls-1{opacity:0;}.cls-2{fill:#fff;}.cls-3{fill:url(#radial-gradient);}.cls-4{fill:#618aa3;}.cls-5{fill:#b2d78b;}.cls-6{fill:#fdfdfd;}.cls-7{fill:#666;}.cls-8{fill:url(#radial-gradient-2);}.cls-9{fill:url(#linear-gradient);}</style><radialGradient id="radial-gradient" cx="37.4" cy="62.33" r="19.47" gradientTransform="translate(0 54) scale(1 0.13)" gradientUnits="userSpaceOnUse"><stop offset="0"/><stop offset="0.32" stop-color="#231f20" stop-opacity="0.6"/><stop offset="1" stop-opacity="0"/></radialGradient><radialGradient id="radial-gradient-2" cx="37.4" cy="37.4" r="24.93" gradientUnits="userSpaceOnUse"><stop offset="0.75" stop-opacity="0"/><stop offset="0.96" stop-color="#231f20" stop-opacity="0.2"/><stop offset="1" stop-opacity="0.5"/></radialGradient><linearGradient id="linear-gradient" x1="37.4" y1="39.33" x2="37.4" y2="13.47" gradientUnits="userSpaceOnUse"><stop offset="0" stop-color="#fff" stop-opacity="0"/><stop offset="1" stop-color="#fff" stop-opacity="0.7"/></linearGradient></defs><title>orb-chiropractic-wtext</title><g id="Layer_2" data-name="Layer 2"><g id="Layer_1-2" data-name="Layer 1"><g id="orb-chiropractic-wtext"><g class="cls-1"><circle class="cls-2" cx="37.4" cy="37.4" r="37.4"/></g><ellipse class="cls-3" cx="37.4" cy="62.33" rx="21.95" ry="3.59"/><path class="cls-4" d="M37.4,12.47A24.93,24.93,0,1,0,62.33,37.4,24.93,24.93,0,0,0,37.4,12.47Z"/><path class="cls-5" d="M31.92,55.77H31.7c-1.1,0-1.42-.34-1.29-1.47,2.28-.18,3.74-1.72,5.17-3.25a11.29,11.29,0,0,0,3-6.35,17.7,17.7,0,0,0-1.2-8.61c-.92-2.39-2-4.72-2.81-7.14a10.09,10.09,0,0,1,.5-8.5,17,17,0,0,1,1.6-2.11c.18-.23.41-.34.6,0-.07.49-.19,1-.21,1.47a10.33,10.33,0,0,0,1.75,5.85c1.08,1.73,2.26,3.4,3.42,5.09A9,9,0,0,1,44,36.24a17.37,17.37,0,0,1-.9,5.2,28.56,28.56,0,0,1-8,12C34.11,54.28,33,55,31.92,55.77Z"/><path class="cls-6" d="M34.11,32c-.52-1.21-.89-2.49-1.33-3.73l-.26-.54-.41.58c-.13.18-.29.33-.42.51a8.73,8.73,0,0,0-1.33,6.7,32,32,0,0,0,1.4,5c.58,1.73,1.38,3.38,2,5.1a6.18,6.18,0,0,1-.31,5.29h0a.47.47,0,0,0-.1.1l.08.09.12-.1.73-.49h0l.12-.13C36.67,48,37.23,45.05,37,41.87A32,32,0,0,0,34.11,32Z"/><path class="cls-6" d="M53.86,32.2v3.85h-4.2V32.19H48v9.2h1.63V37.55h4.22v3.83h1.7V32.2Z"/><path class="cls-6" d="M24.23,36.18c.8-1.32,1.58-2.65,2.36-4a12.18,12.18,0,0,0-1.48,0,.74.74,0,0,0-.53.33c-.62,1-1.22,2-1.8,3.08-.15.26-.3.4-.6.31h-.76V32.19H19.78v9.2h1.64v-4h.76a.48.48,0,0,1,.61.3c.38.72.79,1.42,1.18,2.12.9,1.63.9,1.63,2.76,1.55-.83-1.47-1.66-3-2.51-4.41A.69.69,0,0,1,24.23,36.18Z"/><path class="cls-6" d="M33.39,51,33.31,51l-.12.14Z"/><path class="cls-7" d="M39.39,25.41a9.47,9.47,0,0,1-1.49-6.52,5.45,5.45,0,0,0,0-.81l-.65.28c-.07.49-.19,1-.21,1.47a10.27,10.27,0,0,0,1.75,5.84c1.08,1.74,2.26,3.41,3.42,5.1A9,9,0,0,1,44,36.24a17.37,17.37,0,0,1-.9,5.2,28.56,28.56,0,0,1-8,12c-1,.87-2.11,1.58-3.17,2.36a3.82,3.82,0,0,0,1.25-.29,25.11,25.11,0,0,0,5.58-5.06,29.44,29.44,0,0,0,4.43-7.28,18.19,18.19,0,0,0,1.55-7.22,8.64,8.64,0,0,0-1.59-4.85C41.89,29.18,40.58,27.34,39.39,25.41Z"/><path class="cls-7" d="M37,41.87c.26,3.18-.3,6.09-2.61,8.46l-.12.13h0L34,51h0l-.11.12h0l-.05,0,.06,0L34,51a1,1,0,0,0,.26-.09,7.41,7.41,0,0,0,2.28-2.57,11.65,11.65,0,0,0,1.09-7.13,30.08,30.08,0,0,0-2-7.32c-.77-2-1.49-3.91-2.24-5.87,0-.06-.09-.11-.16-.18l-.5.36c.44,1.24.81,2.52,1.33,3.73A32,32,0,0,1,37,41.87Z"/><path class="cls-7" d="M25,37.1a.83.83,0,0,1,0-1c.46-.69.87-1.42,1.29-2.13.32-.55.64-1.12,1-1.76h-.74c-.78,1.33-1.56,2.66-2.36,4a.69.69,0,0,0,0,.8c.85,1.46,1.68,2.94,2.51,4.41h.75c-.08-.18-.12-.29-.17-.38C26.55,39.7,25.81,38.39,25,37.1Z"/><path class="cls-7" d="M55.58,32.2v9.18c.72,0,.72,0,.72-.7V32.9C56.3,32.18,56.3,32.18,55.58,32.2Z"/><path class="cls-7" d="M21.42,41.39h.76v-4h-.76Z"/><path class="cls-7" d="M49.66,36.05h.76V32.19h-.76Z"/><path class="cls-7" d="M49.66,41.39h.76V37.55h-.76Z"/><path class="cls-7" d="M22.18,32.19h-.76v3.73h.76Z"/><circle class="cls-8" cx="37.4" cy="37.4" r="24.93"/><ellipse class="cls-9" cx="37.4" cy="26.4" rx="18.29" ry="12.93"/><path class="cls-4" d="M.07,34.8l.13-.07.36,0v-.08l-.37,0-.07-.09c0-.05,0-.08.12-.07l0,0v0q-.12,0-.12-.09v0l.08-.08,0-.13c0-.42.43-.89,1.21-1.39A5.76,5.76,0,0,1,4,32.48l.49,0,.49.08,0,.25L4.8,33c.08,0,.12,0,.11.09l-.08.08-.37,0v0a.2.2,0,0,0,.22-.15l-.25-.06H3.94V33c.33,0,.49.1.49.16l-.09.08v0l.45,0,0,0h0l0,0v.16l-.29,0c0,.05.09.09.28.14v0l0,0v0l.07.13L4.81,34l0,.17-.09.07.11.13-.13.2,0,0v0l-.13.08-.49,0c-1.5-.1-2.25-.1-2.26,0L1.82,35c0,.21.25.34.8.38l.61.08,0,0h0q.82.11.81.18l.13,0,2.5.14.69,0H7.9l0,0H8c.71.05,1.08,0,1.09-.29h.13v-.08c-.11,0-.16-.09-.14-.25L7.62,35l-.07-.08H6.64l-.11-.13h0l.06-.2v0l0,0,.09-.12-.06-.25V34c0-.13,0-.2.09-.2l0,0v-.12l.05,0-.07-.17a.41.41,0,0,1,.29-.06v-.12l-.21,0-.07-.13L6.73,33l.28,0V33l-.41-.11.06-.16.28.06h.16l.09-.08.24.1.25,0,.16,0,.33,0a2.26,2.26,0,0,1,1.13.33l0,0h0c.36.15.57.3.63.46v0H9.89v.12l.32,0a2.18,2.18,0,0,1,.59,1.65l-.13.11-.58,0-.08.08,0,0,.69,0v0c0,.06-.08.1-.21.11v0l.24.1a.1.1,0,0,1-.13.11l0,0v0a2.06,2.06,0,0,1-1.61,1.78,10.5,10.5,0,0,1-2.38,0l-1.48-.1-.36-.07-.21,0-.32-.06,0,0h0l-.16,0v0l0,0-.66-.05,0,0,0,0h0l-.21,0c-.89-.09-1.34-.2-1.33-.34l0,0h0c-.24-.08-.36-.15-.36-.19v0h.12v-.08l-.29,0a.38.38,0,0,1-.31-.27c-.07,0-.15-.09-.22-.26-.09,0-.18-.12-.27-.34v-.13l.17,0v0c-.22,0-.32-.12-.31-.31-.05,0-.07-.1-.06-.29h0l0,0v0ZM.6,36.07H.76L.85,36,.6,36Zm.13-1.35.37,0v-.08l-.36,0Zm0,1.61H.87v0H.75Zm.06.33H.88L1,36.55H.89l-.09.07Zm.36.23h0l.08-.07-.2,0Zm.2,0h.13v0H1.37Zm.43.31h.05V37.1H1.72Zm.08-.53,0,0v0H1.8Zm-.06.25H2l-.08-.09Zm.29,0h.16l-.07-.09Zm.46.52h.12v-.08h0Zm.07-1.6h.08v-.08H2.63ZM2.7,37.2h.08v0H2.7Zm0-3.2h.08v0H2.72Zm0,2.92h.08v0l.2,0,.66,0V36.9l-.73,0-.21,0Zm.29.51.49,0q0-.09-.12-.09H3.05Zm.06-.24h.12l.09-.08,0,0H3.2l-.09.08Zm.29,0,.28,0v0l-.24-.06-.05,0Zm.21-1.3.7.05.08-.08-.12-.05C3.84,35.76,3.62,35.79,3.61,35.87Zm0,1.56h.16v0H3.63Zm0-.78h.08v-.08H3.65Zm.1-.24,0,.05c.22,0,.33-.05.33-.1l-.28,0Zm0-3.74.45.07h.37l0,0v0l0,0h0l-.12,0H3.75Zm.22,4h.24v0s0-.08-.11-.09l-.13,0Zm0,.53.37,0,.09-.07-.37,0Zm.19.26.57,0,.09-.08-.74,0Zm0-1.07.2.06.09-.08,0,0H4.28Zm.09.54.53,0,.09-.08H4.81v0C4.46,36.85,4.28,36.88,4.28,36.94Zm.06-.24h0l.24,0,.12,0c.36,0,.54,0,.55-.09H5.2l-.86,0Zm0-2.1h.08v0H4.36Zm.15,2.61.61,0v-.08H5v0l-.28-.06H4.59ZM4.6,35.9h0l.9,0,0,0v0H5.38l-.21,0-.36-.1-.21.06Zm0,.24.25,0,.2,0v0H4.91l-.29,0Zm.06.3.53,0,.09-.07-.57-.08,0,0Zm.74,0h.21l.29,0v0l-.41,0Zm.25-.56h.12v0H5.67Zm.41.6h0v-.08H6ZM6,37h.13l.08-.08H6.13Zm.15.26.24,0v-.09h0l-.21,0ZM6.41,37h.16v-.08l-.24,0Zm.13.5h.08l.09-.08H6.63Zm.1.29h.09v-.08H6.65Zm.61-3.45.33,0v-.08l-.33,0Zm.12-.52h.16v-.08H7.46Zm0-.78h.09v0H7.43Zm.06,4.48h0l.08-.08,0,0h0l0,0Zm.06-.77.37,0V36.7l-.28,0Zm0,1h.12v0H7.59Zm0-.53h.16l-.08-.09H7.63Zm.31-3.39h.17v-.13H8L8,33.82Zm.24,3.18H8.3V37H8.18Zm0,.53H8.3v0H8.22Zm0-4.23h.08v0H8.27Zm.87,1.09h0v-.08h0Zm.18.26.41,0,.09-.08-.57,0Zm0,.82h.12v-.08H9.31ZM9.75,34h.08l.09-.07,0-.05h0l-.09.08Zm0,1H10l0-.12H9.81Zm.14.29.33,0-.08-.09H10Zm0-.53.29,0v0l-.33,0,0,0Zm.12,1.86h.12v0h-.12Zm.2-.52h.2L10.39,36h-.05Z"/><path class="cls-4" d="M1.6,29.69l.23-.79.4.08v-.13l-.36-.1,0-.08.1-.06,0-.18a.39.39,0,0,1,.3,0s-.06-.11-.24-.2l0-.08.2,0v0l-.15-.21.13-.14-.06-.1,0-.08.21,0,2.09.6.27.12.05,0,0,0,.06,0,.51.14s.06.08.07.2.26,0,.4-.19l0-.14.13-.13V28c.22,0,.34,0,.35,0l-.43-.13,0,0,0-.05h0l-.41-.08-.22-.1-.25,0-.58-.21-1.47-.38L2.52,27l-.06-.11c.17,0,.26,0,.28-.08-.18-.06-.26-.12-.24-.2h.26l.15.08.4.08.38.15v0l-.1.06-.47-.14,0,0,0-.05,0,0-.1.06.34.14H3.4l.34.14.63.18,0-.12-.51-.14L3.71,27v0l.1-.06.32.1.32.05.19.09.65.11,0-.1-.25,0c-.18-.06-.27-.11-.25-.16l.07-.11,0-.05h0l-.14,0,0,.05v0l-.1.06-.63-.18-.06-.1v0l.36.1,0-.08h0l-.48-.1,0,.14v0l-.21,0,0-.05h0l-.8-.19-.1-.07.37-1.3c.27.05.42.05.43,0L3,24.92v0l.1-.05,1,.29,0,.05.06,0,.86.25,0,.08,0,0v0l.35.11,0-.06,0-.11.22.1h.13l0,.05.21,0,.67.19.09.11L7,26c.13,0,.21,0,.22,0l.08,0v0l2.18.59,2.16.63.06.1-.07.11,0,.05.08,0,.08-.11,0-.05.14,0,.91.26.08.15-.24.83c0,.05-.09.06-.22,0l0,.08a.18.18,0,0,1,.14.25l-.12.4-.1.22v.13l-.14.05-.63-.19c-.13,0-.19-.09-.17-.13l.12-.14-.06-.1.08-.27h0L11,29l.19.09-.05,0,0,.08v.21a1,1,0,0,1-.46-.05l-1-.29L9.58,29l.1-.06-.09-.11H9.33l0,.05,0,0,.05,0h0l.06.1-.4-.07-.2-.23h0l-.12.13-.18-.09-.4-.12q0,.16-.33.12v0c.15.05.23.1.21.15s-.09.06-.22,0l0,.08c.13,0,.17.13.13.29l.47.14h.17l0,0,.89.17.22.11H9.9l.38.16.16,0,0,.05,0,0,.55.15,0,.12-.56-.16-.1.06,0,.05v0l0,0,.43.13,0-.08.11,0,0,.08.08,0,0-.08,0,0,0-.06,0-.11.48.09,0,.06h0l0,0,0,.08.31.09.09.16-.21.11.14.12-.1.19v.13l-.08.11,0,.05v0l-.12.13-.19-.1-.63-.18,0,.08.86.25v.21l-.17.59-.16.08-.31-.09-1-.24L9.72,32v-.13l0,0-.11,0c0,.14-.14.18-.3.13h0L9,31.78l-.18,0a.19.19,0,0,1-.14-.25l-.32-.09-.08.15-.35-.11c0-.1,0-.17-.08-.19H7.49l-3.84-1L2.31,29.9H2.14l0-.05h0l-.36-.07Zm.62-.5.08,0,0,0,.29,0L5.18,30l.05,0,0,0h0l-2.93-.8,0,0Zm.15-1,.12,0,0-.08h0Zm.07,1.38.08,0,0-.11-.15-.05,0,0Zm.27-.78,0,0,.1-.06-.12,0ZM3,28.6l.16,0-.05-.1-.08,0Zm.56-.14.35.1,0-.08-.27-.08Zm0,.31.39.11,0-.08-.31-.09Zm.33-2.94L4,26l0,0,0-.12-.08,0Zm.19-.5.08,0v0H4.3l0-.08-.2-.06Zm.51,3.1.12,0-.06-.1,0,0ZM5,26.09l.12,0,0-.07L5,26Zm.43,1.15,0,.05.12,0,0-.11-.08,0Zm0-1.57.12,0,0-.08h0Zm0,.52.24.07-.06-.11-.16,0Zm.55.16.95.27.1-.06-1-.29ZM6.1,28.3l.08,0,.1-.05-.23-.07Zm.19-.5.12,0v0l-.12,0ZM6.75,29l.16.05L6.85,29Zm.11-.22.08,0v0l-.08,0Zm.31-2.09.1-.06-.16,0Zm.7,2.89.51.15.1-.06,0-.05-.28,0-.36-.1Zm.73-.9.07,0,0-.08-.08,0ZM9,29.83l.12,0v0l-.12,0ZM9.79,29l.08,0,0-.08-.08,0Zm.27.08.06,0v0L10,29Zm.8-.67,0,0,.5.18.1-.05v-.13l-.35-.11c-.14,0-.23,0-.27.05ZM11,30.92l.71.2,0-.11-.24-.07-.41-.08,0-.05,0,0Zm.31-2.69.16.05,0-.12-.16-.05Zm.09-.31h0q.06-.2.33-.12c0-.06,0-.12-.16-.17l-.22,0Zm.08.92.1-.06-.08,0Zm.45-1,.24.07,0-.12h0l-.21,0Z"/><path class="cls-4" d="M3.18,22.46l.24-.52.11-.13,0-.17.15,0,.4.19.06.16L4,22.05l.07,0,0,0,.39.13.56.26,0,0-.06-.17-.3-.14-.15,0-.18-.09,0-.11.35,0,.63.29.09-.09-.24-.16H5l-.19-.18,0,0,.25,0,0,0L5,22l.14.07L5.27,22,5,21.77l0,0,0,0-.28-.17-.57-.23-.19-.18L4,21.08c-.09,0-.13-.09-.11-.14l.14-.3.07,0,0,0,0,.05.22.11.74.25.25.16.57.22,3.16,1.49.26.21,0,0c.12.05.2.05.22,0l0,.05.28.09.07,0,.87.46.32.1.17.12.24.07.13.11.61.24,1,.45.06.17-.07.14c-.11.25-.19.36-.24.34l0,.26-.18.28,0,.05,0,0-.05,0-.17.46-.11.23c0,.05-.14,0-.35,0L12,26.73l-.8-.33-.44-.21,0,0,.12-.08,0-.06h0l-.27-.09,0,.06-.05.11,0,0c-.45-.21-.68-.38-.71-.51l-.08,0a.46.46,0,0,1-.31,0l-.15-.07-.31-.19-.39-.14-.08,0-.28-.18-.42-.15-1.19-.56L6,24l0-.06h0l-.54-.21-.44-.21-.43-.25-.06,0,0-.05,0,0c.08,0,.12,0,.15,0l0,0-.21-.14-.17,0-.09-.09,0,0,0,.07.28.18,0,0-.13,0L4,23l-.32-.1-.37-.27-.13,0Zm.25-.06.11.05,0-.07-.13,0Zm.15-.52.34.16,0,0-.34-.16Zm.12.33h0l.13,0,.2.14,0-.07-.37-.18Zm.25.43.11.05.11,0L4,22.55l0,0Zm.11-1.49.17.13,0,0,0,0-.22-.11Zm.36.21.1,0-.14-.07Zm.49,1.37.22.1,0-.07,0,0-.2,0ZM5,21.59l.11.05,0,0L5,21.55Zm.09,1.54.45.21,0-.12-.24-.16-.2,0ZM5.29,22l.12.05v0L5.31,22Zm0,1.47.08,0,.1,0-.14-.07Zm0-.48,0,0,0,0,0-.11,0,0,0,0Zm.21-.54.11.06.11,0-.18-.09Zm1.19-.12.24.16.34.16c0-.1-.07-.22-.34-.34l-.22,0Zm.31.78c.36.15.55.19.58.13L7.1,23Zm0-.26.11.06.15,0,.52.25.11,0-.74-.35-.11,0Zm.86.59.52.24.11,0-.11-.14A.86.86,0,0,1,8,23.38l0,0Zm.42-.12.11.05,0,0-.11,0Zm.37,1.62.11,0,0-.07-.11-.05Zm.6-1.17.11.05,0-.11-.06,0Zm.06.26.05,0,0,0-.11,0Zm0,.31.18.09,0-.08-.19-.09Zm0-.9.08,0v0l-.07,0Zm.83,2.11.16.12.3.14c.19.09.3.09.35,0l-.78-.37Zm.4-1.26.1.09.05,0,0-.08-.08,0Zm.22,1.28.33.15,0-.11L11,25.53Zm.56.26.33.15c.05,0,.13-.05.25-.24l.06,0,.26.12,0-.07-.13,0-.17-.12-.14-.07-.11,0,0,.07.08,0s-.15.05-.39,0Zm0,.24.11.05,0,0-.11,0Zm.47.53.12.06v0l-.11-.05ZM12,25.19l.07,0,.06-.11L12,25l0,0Zm.05,1.15.33.16c0-.05-.06-.13-.25-.25l-.05,0Z"/><path class="cls-4" d="M6,18.73h0l0,0,0-.12.16.06.07-.11s0-.09-.06-.13l0-.07.17.11,0,0v-.15l0,0,.59.3,0,0L7,18.3l0-.07.19,0,0,0,.35.29.21,0-.22-.19-.33-.17L7.39,18l-.06,0-.1-.07,0-.07-.11-.07-.17,0c.07.05.09.09.06.14L6.87,18l0,0v.06l0,0-.28-.09-.08.19H6.41l0,0,0-.07,0,0h.05L6.56,18l.12-.26L7,17.8l0,0-.16-.21L7,17.29c.1.05.16,0,.2,0l0-.12.23,0,0,0L7.38,17l0-.07.1.07.32.12.27.18.07-.1C8.05,17.15,8,17.08,8,17l.23-.34v-.15c.22.12.34.15.37.11l0-.13a.75.75,0,0,1,.41.13s0-.1-.09-.16v-.06l0,0s.1,0,.22.05l.07-.11-.19-.17h0l0,0V16.1l0,0-.46-.21,0,0c.1-.15.58-.09,1.45.19l.14.09-.06.16.2.14.05-.07-.17-.12,0-.06.19.08.34.23.06,0v.06l0,0c.88.65,1.28,1,1.2,1.16l0,0-.21-.14,0,0c.32.21.42.4.32.56l-.1.43,0,0a1.51,1.51,0,0,1,1.72-.13l.29.3.13,0-.11.22h.06q.13-.19.75.21l1,.66L16,20l.11.13.47.32.23.1c.1.11.13.18.1.22l-.11,0c.07,0,.09.09.06.14h-.06l0,.21-.12.12-.06.16h-.06l-.27-.19,0,0v.06l0,0,.19.08,0,0v.06l0,0-.11.08-.12.26,0,0v.06l-.2.3c-.09.14-.22.15-.38.05l-.14-.15L15.2,22l-.14-.1,0-.11.07-.1.13-.06v-.05l-.1-.07s-.12,0-.23.19a2.37,2.37,0,0,1-.66-.35l-1.42-1,0-.05c-.5-.28-.82-.33-.94-.14l0,0v.06l-.14.2,2.76,1.86s0,.09,0,.18l.07.05a.45.45,0,0,1,.4.07l.15.15.22.1.17.11,0,.17-.1.14-.14.15-.11.22-.11.17-.2.07,0,.07.07.05,0,.06-.07,0s0-.08,0-.15v-.06l0,0h-.06v.06l-.14.2.17.12,0,.11h-.06l-.08.19-.18.28s-.17,0-.41-.13l-.08-.1-.16-.06-.36-.34-.56-.28c-.24-.18-.35-.29-.33-.32l-.72-.39,0,0h-.06l0,0V23h-.06l-.41-.28v-.05h-.06l-.51-.35-.36-.19a3.74,3.74,0,0,1-1-1H9.23l0,0,.07-.1q.11.06.15,0l-.15-.15.15-.15v-.06l-.07,0-.11,0,0,.13-.13-.1c-.05,0-.05-.08,0-.14L9,20.52c-.07.09-.22.07-.46-.06H8.44l0,0v.06h.06l0,0a.47.47,0,0,0,.2.23l-.09.14-1.18-.75-.08-.1L7.13,20,6,19.25l-.15-.15.2-.06C6,18.89,6,18.79,6,18.73Zm.13.39.14.09,0,0-.13-.09Zm0-.33,0-.07-.07,0Zm.4.27.45.3,0-.07L6.68,19Zm.08-1.14.12,0,0,0-.11-.07Zm.11,1H6.9l.61.41.4.22.14.15h.06l0,0-.07,0,0,0H8l-.07,0-.28-.24-.36-.2-.11-.07L7,18.88l-.28-.09,0,0ZM7,17.41l.1.07,0,0L7,17.35Zm0,1.32v.06l.14.09c.18.12.31.13.39,0l.1.06-.06.16.1.07,0-.07,0,0,.06.13.17,0,0-.11,0,0,.2.14s.12,0,.21-.16l.17,0V18.9l0,0C8.87,19,9,19,9,19l0,0-.21-.14v-.06l-.48-.17-.18-.17L8,18.31l0,.06,0,0,.32.26,0,0,.06.13h.06l.1.07-.05.07c0,.05-.1.06-.2,0L8.26,19l.07,0,0,0L8.11,19l.05-.07.07,0,.07-.1c-.09-.07-.12-.12-.09-.16a.67.67,0,0,0-.45,0l-.56-.13c.1.07.16.14.16.21l-.1.08v-.06l-.1-.07Zm.35,1.18.1.07,0,0-.1-.07Zm.1-.23,0,0,.16.06.11.13,0,0,.12,0v-.06l0,0-.25-.07-.11-.13H7.53Zm0-2.46.11.13h.06v.05l.07-.1H7.7v-.05l-.07-.05Zm0,.91,0,0,0-.07L7.51,18Zm.23-1.82.05-.06q0-.08.15,0l.14.14,0,.07-.12,0Zm0,2.78.07-.1.14.09,0,0-.11,0Zm.21-3c.24-.13.39-.18.44-.14V16l0,0c-.17.18-.32.23-.44.15V16.1Zm0,1.78,0,0,.12,0,0,0-.1-.07Zm.16,1.59.07.05,0,0,0-.05,0,0-.13,0Zm.27.78.17.11,0,0-.17-.12Zm.1-1.91.21.13-.05.07.17.12v.05l0,0h0l0,0v-.06l.43.25,0,0h.06l.07,0V19h.06l.44.3c.16.1.22.18.19.23l.13,0,.25-.37a.34.34,0,0,0-.12-.33l0-.07.08.1c.35.21.54.29.58.24l0-.17a2.44,2.44,0,0,1-.69-.31v-.06l.19-.27c.06.05.11.05.14,0l0,0-.1-.07L10.42,18l0,0c.09.06.12.11.09.16s-.11.05-.24,0l-.08-.1-.42-.18,0,.07.28.24,0,0H9.9l0,0-.15-.15-.17-.12c-.11-.07-.18-.09-.21,0l0-.06a.57.57,0,0,0-.79.15l0,.07Zm.12-2.15,0,0,.07.05,0,.11H8.68l0,0Zm.16,4.9,0-.07L9,21l0,0-.09.14Zm.36-4.35.06,0,0,0-.07-.05Zm0,3.74h.05l0,0-.1-.07Zm0-4.4.06,0L9.31,16l-.07,0Zm.11,1.36.07.05,0,0-.07,0Zm.08,2.53L9.5,20q.16.11.12.18l-.1.08v0l.24.16.11,0c-.09-.06-.12-.11-.09-.16s.09,0,.18,0H10l0-.07,0-.12-.18,0L9.79,20c-.22-.12-.34-.15-.37-.11Zm.15,1h.05l.05-.07-.1-.06,0,0Zm.22-.19,0,0,0-.06,0,0Zm.1-3,.34.23.11,0-.14-.14L10,17.71l-.12,0Zm0,2.13L10,20l0,0-.11-.07Zm.06-2.73.07,0,0,0-.07-.05Zm.12,2.9,0,0,.11,0-.1-.07Zm.05-2.79.12.18.2.08,0-.07,0-.17C10.24,17.23,10.13,17.22,10.09,17.28Zm0,.32.11,0v-.06l0,0Zm.09-.93.1.07,0-.12,0,0Zm0,3.72.07,0,0,0-.07,0Zm.11-.82.28.24.07-.1-.14-.1-.19-.08Zm0-1.87.07.05,0,0-.07,0Zm0,3.39.1.07,0-.11,0,0Zm.07-3.85a.17.17,0,0,1,.06.28l.11,0,0,0c.08-.12.18-.13.32,0l0-.06-.2-.14c-.12-.08-.21-.09-.27,0Zm.1,3.67.1.07,0,0-.11-.07Zm0-2.34.36.19,0,0c.17.08.28.09.3.06l0,0-.17-.11-.23-.11-.15-.14h-.06Zm0,.67.07.05.19.08.07-.11-.12-.12-.21-.05,0,0Zm0,2.68.14.1,0,0,.06-.16.16-.09-.07,0-.19-.08-.1.13Zm.13-3.57.14.09,0-.06-.13-.1Zm0-.68.24.16,0,0-.24-.16Zm0-.59.17.11v.06h.06l.2.14.18.17.31.06,0,0-.25-.22-.12,0-.25-.22L10.89,17Zm.1-.23.14.09,0,0-.14-.09ZM11,18.14c.16.1.23.18.2.23l-.12.17.19.08,0,.05.11,0v-.06l0-.06c0-.06.14,0,.31,0l0,0c-.18-.12-.25-.22-.2-.29s.08,0,.15,0l.05-.07c-.16-.11-.28-.11-.36,0s-.17,0-.37-.11Zm.1-1.17.07,0,0,0-.07-.05Zm0,.91.24.16,0,0-.24-.16Zm0,4.69.07.05.22.05v-.15l-.22-.05Zm0-.71.1.07,0-.12,0,0Zm0-.87.12,0,.14.24.28.09,0-.07-.15-.15h.06l.09-.13-.14-.1-.05,0,0,0a.12.12,0,0,0,0,.17l-.11,0-.24-.16Zm.15,1.39,0,0,.1-.14,0,0-.11,0Zm0-.88.12,0v0l-.11-.07,0,0Zm0,.5.21.13,0,0-.2-.14Zm0-2.7.13.09.12,0-.21-.14Zm0,2.42.1.07,0,0-.1-.07Zm0-2.75.1.07,0,0-.1-.07Zm.09-.14.07.05.07-.1-.08-.1h-.06l0,0Zm0,3.91.1.06.07-.1-.07,0Zm0-3,.38.25,0-.07-.3-.2Zm.14.38.07.05,0-.07Zm0,2.8.12.13h.05l0,0-.18-.11ZM12,22.1l.21.14,0,0,0-.11-.07,0-.11,0Zm0-.57.07,0,0,0-.07,0Zm.08-2,.11,0-.13-.1Zm.16,3.72.2.08,0,.07.1.07.07-.11-.27-.18Zm0-4.59.37.2,0-.11-.06-.05h-.06v-.06l-.07,0-.11,0Zm.07.94,0-.07-.06-.05Zm.37-.7.28.25.06,0,0,0V19l-.24-.16Zm.05,1.33.13.09.12,0,0,0-.08-.1-.19-.08,0,0ZM13,20l.1.07.11,0,0,0,0-.12-.12,0Zm.31-.23.11,0-.07,0Zm.12,4.14.07,0,0,0-.07-.05Zm.09-3.65.07,0,.14.15.23.1.14.1,0-.07-.52-.4h0Zm0-.83,0,0,.11,0,0,0-.11-.07Zm.09,1.25.19.08,0,.11.28.09v-.05l0,0-.26-.12-.2-.14Zm0,3.33.12,0,.06-.1-.06-.05Zm.09-4.83,0,0,0-.07,0,0Zm.1,4,.05.13H14l.07-.1L14,23.14Zm0-4.18L14,19,14,19l-.06,0ZM14,23.1l.12,0,0,0,0-.11L14,23l0,0Zm.07.34.12,0,0,0,0-.11-.06,0-.05.07v.06Zm0-.68.1.07,0-.07-.1-.07Zm.13-3.57.1.07.07-.11-.1-.06Zm.13,4.44.17.11.05-.07,0-.11-.17-.12,0,.07Zm0,.59,0,0,.12,0,0,0-.1-.07Zm.09-4.84,0,0,0,0,0-.11,0,0,0,0Zm.28.24h.06l0,0v-.06l-.07-.05,0,0Zm1.39,2,.07,0,.08-.19,0,0-.12,0,0,0Zm.08-.64.11.07,0,0-.1-.07Z"/><path class="cls-4" d="M11.65,11.13a.24.24,0,0,0,.23,0q-.12-.12-.06-.18l0,0h.06v-.06l.06-.06a2,2,0,0,1,1.81-.55,2.5,2.5,0,0,1,1.72.9l.12.06.08.15.57.53.32.32,1.17,1.15.17.24,0,0v.06l.11.11h.06v.05l.14.15c1.1,1.14,1.6,1.77,1.48,1.88a1.45,1.45,0,0,1,.3,1L20,17s-.11,0-.23-.07l-.05-.11-.23-.18-.06.06.05.06,0,0,.31.27.23.24-.07.34v.12l0,0-.08-.09,0,0,.08.2-.06.06-.23-.18-.06.06.09.09.11.17-.09.09-.05-.06-.23-.18v-.06h-.06l0,0a.94.94,0,0,1,.31.5l-.17.06v.11l0,0-.15.08v.06a3.09,3.09,0,0,1-1.29.68,2.79,2.79,0,0,1-2.16-.76l-.08-.21-.26-.15-.2-.26c-.1-.1-.16-.13-.2-.09v-.06l0,0-1.06-1-.2-.27-.34-.29L12.05,14.9a.21.21,0,0,0,0-.2v-.06a.1.1,0,0,0-.17,0l0,0v-.12l-.23-.17-.11-.12A2.2,2.2,0,0,1,11.11,12,2.23,2.23,0,0,1,11.65,11.13ZM12,12.52l.09.09V12.5h-.06Zm.14.61c.13.1.21.13.25.1l-.11-.12h-.12Zm0,1.46h.06l0,0-.09-.09Zm.06-.29.09.09.17.11.06-.05-.23-.24Zm0-.41.14.15.06-.06-.14-.15Zm.21-2h.11l-.11-.12Zm.12,1.25.09.09.06-.06,0,0Zm0,.82.23.23,0,0V14l-.11-.12h-.12Zm.11.81,0,0,.14.09L13,15h0l0,0-.2-.21Zm0-.35.12.18h.05l.06-.06-.17-.17Zm.35-1.59,1.31,1.36h.06v.06l.4.41,0,.15.06.05.06-.05.8.76.11.24.29.23,0,0,.11.17.2.15.11.18.35.29.17.18.08.14c.39.31.65.4.78.28s.13-.36-.08-.61H18l.06-.06L18,16.65l0,0v.06l0,0h-.06l0,0-.51-.65h-.06l0,0V16l0,0-.11-.06-.23-.35-.14,0-.14-.2L15,13.76l-1.49-1.53h.06l.06-.06-.06-.11-.17-.12-.06.05.12.12,0,0s-.13,0-.26-.09l-.09.08v.06l-.12.06A.56.56,0,0,0,13.1,12.8Zm.07.9.06.06h.11l-.11-.11Zm.11,2.18v.06l0,0h.11v-.12l0,0Zm.1-.9,0,0,.06,0,0,0Zm.08-3.27.06,0,0,0-.06-.06Zm0,4.38.06.06,0,0-.06-.06Zm.1-2.38.2.21.06-.06-.2-.21Zm.9,3.06.06.06,0,0-.06-.06Zm.13-.52.08.09,0,0v-.12l-.06-.06Zm.07-.81.54.56,0,0v-.06l0,0-.37-.32-.17-.18Zm.15-.2.11.12L15,15.3l-.06-.06Zm0-.41.06.06,0,0-.06-.06Zm.17-1.3.06.06.06-.06-.06-.06Zm0,3.74.05.06.06-.06-.05-.05Zm.1.47.06.06,0,0-.06-.06Zm.45-4,.05.06.06-.06,0-.06Zm.18,4.56.15.15v-.12l0,0Zm.2.2.17.18h.12l-.17-.17ZM16,13.81l.12.12v-.12ZM16.2,18l.06.06.06-.06L16.26,18Zm0-4,.17.18.06-.06,0,0L16.24,14Zm.17,4.18h.11l-.11-.12Zm.77-3,.08.09v-.12h-.06Zm0,.38.12.11,0,0-.12-.11Zm.27-.43.09.08h.11l-.14-.15ZM18,17.84l.11.12h.12L18,17.79ZM18,14.65l0,0h.11l-.08-.08ZM18.25,17l.09.08,0,0L18.28,17Zm.11.46.06.06h.11l-.06-.06Zm.09-.26,0,0h.11v0l0,0Zm.28.64,0,0h.11l-.14-.15Zm.17.12.26.33.14.09,0,0-.11-.18-.17-.12L19,18h-.06Zm0-.31.14.14.06-.05L19,17.6Zm.18-.87.06.06,0,0-.06-.06Zm.09.38.05.06.06-.06-.06-.06Z"/><path class="cls-4" d="M15.82,7.35l.66-.42.12.12.07,0c-.06-.1-.06-.16,0-.19l.25-.15h.15l.05-.14,0,0h.15l0-.11,0,0s.09,0,.13.06h.06l0,0c0-.12,0-.18,0-.21L18,6c.17-.11.3-.12.37,0l0,.13.79,1.1.07,0-.48-.77.1-.06.27.27.09.23.37.5.09.23,0,0c-.05,0-.09,0-.14-.06l0,0,0,.11.07.11.11,0,0,0V7.64l0,0,.12,0,0,.06.3.39.2.31.14.15.11-.06-.11-.18h-.06l0-.12-.29-.31-.05-.16L20,7.6l-.06-.16h0l0,0V7.34l-.15-.15-.17-.28-.36-.5-.08-.19-.34-.47,0-.11,0,0,.15.15.21.35v0l.17.19,0,0s0-.08,0-.15L19,5.66l.08-.1a1.8,1.8,0,0,1,1.87,1v.06l0,0a.15.15,0,0,1-.05.23s.08,0,.15,0l.1.08,0,0,.06,0,0,.07V7l.18.13.08.29.27.27.06.1c.53,1,.77,1.56.71,1.74s0,.24-.1.54l-.06.05L22,9.58l-.12,0V9.7l0,.07.4.48v.06l-.07,0h-.06l0,0,0,.17H22l-.09-.14-.07-.2H22l0,0L22,10l-.14-.15-.07-.11-.13,0,.05.07,0,0,.06,0,.09.13,0,0-.28-.22-.19-.31-.12,0,.1.23.21.25v.06l0,0,.3.4.09.13c.06.1-.05.23-.33.41l-.31.19h-.06c-.14.13-.2.22-.18.26l.11.17.16.33a1,1,0,0,1,.31.34l1.16,1.84.1.23.14.15.15.25,0,.17L23,15l-.3.14-.36.28-.9.57-.06,0,0,0-.08-.19-.08-.14L21,15.61,19.38,13l-.12-.12v-.06L19,12.44l-.44-.7c-.17-.28-.23-.43-.19-.46l-.19-.22-.07-.1-2-3.17,0,0h0l-.13-.21Zm.58.31.07.1,0-.11h-.06Zm.19.22.2.31.11,0V8.16l-.21-.34Zm.52-.57,0,0,.07,0,0,0Zm.07.59.07.1,0,0-.06-.11Zm.32-.5.16.25.07-.05-.11-.17Zm.17.73.11,0L17.69,8Zm.06-.82,0,0,.12,0-.07-.11Zm0,1.43.09.14.11,0-.07-.2-.1-.08Zm.39.54,0,.06.07,0,0-.07Zm0-3.18.16.34h0l0,0V6.37l0,0-.15-.15-.08-.14Zm.36.89.23,0,0,0,0-.12h-.06l0,0-.05-.16-.06,0Zm.08.67L20,9.81l.11,0,.14-.09c.26-.16.22-.5-.12-1l-.25-.32-.3-.55A.6.6,0,0,0,18.63,7.66Zm.4,1,.06.11,0,0-.07-.11Zm.47-2.48.33.52,0,0c.05-.06,0-.16,0-.27l0-.07-.23-.2Zm.11.56.16.25,0-.12-.11-.17Zm.3.4.09.28.05,0,.14-.09-.06-.1L20,7.1Zm.64,4.64.07.1,0,0-.06-.11Zm.59-.91.07.1.07,0-.07-.1Zm0,4.55,0,.07,0,0,0-.07Zm0-6.45.07.1,0-.11H21.2Zm.24,1.3.06.11.07-.05-.06-.1Zm.87,4,.07.1.07,0,0,0Zm0,.42.08.14,0,0v-.06l0,0-.1-.08Z"/><path class="cls-4" d="M22.64,4l.06,0,0,0,.1-.08.09.14.12,0q.07,0,0-.15l.08,0,.07.19,0,0,.08-.12h0l.31.58h0l0-.25.08,0,.13.12,0,0,.12.44.17.11-.06-.29L24,4.26l.23-.08-.05,0L24.11,4l.08,0,0-.12L24,3.82c0,.08,0,.12,0,.14l-.19,0h0l0,.05,0,0-.18-.24-.18.11-.05,0,0,0,.08,0v0l.05,0,.19-.07.26-.14.17.24h0V3.51l.31-.12c.05.1.11.14.17.11l.05-.1.21.09h0l0-.08.08,0,0,.12.19.28.12.3.11,0c-.05-.15-.06-.24,0-.26l.39-.14.08-.12c.12.22.2.32.25.3l.1-.08a.77.77,0,0,1,.26.34c.05,0,.06-.08,0-.19l0,0h0s.1,0,.15.16l.12,0-.05-.25-.06,0v0l0,0v0l-.25-.43,0,0c.16-.06.52.27,1.07,1l.06.15-.14.1.09.23.08,0-.08-.19.08,0,.11.18.15.38.05,0,0,.06V5c.34,1,.45,1.58.31,1.63l0,0L28,6.42h0c.13.36.11.57-.07.64l-.33.3,0,0a1.47,1.47,0,0,1,1.47.89l.07.41.08.1L29,8.93l0,0c.15-.06.32.14.49.6L30,10.68l.1.14V11l.21.54.12.22c0,.14,0,.22,0,.23l-.11-.05q0,.12,0,.15l-.05,0-.17.15-.16,0-.14.1-.06,0-.11-.3h0l0,.06h0l.11.18v0l0,.05v0h-.13l-.25.14,0,0,0,.06-.34.13c-.16.05-.27,0-.34-.19l0-.2-.17-.33-.06-.16.05-.1.12,0,.14,0,0-.06-.05-.11c0-.05-.12,0-.3,0a2.05,2.05,0,0,1-.33-.66l-.61-1.61,0-.05c-.25-.52-.48-.74-.68-.66l0,0,0,.05-.23.09,1.17,3.11c0,.05,0,.09-.13.13l0,.08a.45.45,0,0,1,.29.28l0,.21.13.22.07.19-.07.16-.16.05-.2,0-.22.12-.19.08-.2-.06-.08,0,0,.07-.07,0,0-.07c0-.05,0-.09.08-.12l0-.06,0,0-.05,0,0,0-.23.09.07.19-.05.11-.05,0-.18.11-.31.12c-.05,0-.13-.09-.26-.34v-.13l-.1-.14-.09-.49-.3-.54c-.09-.29-.12-.44-.08-.46l-.37-.73,0,0-.05,0v0l0-.05-.05,0-.18-.46,0,0-.06,0-.21-.57-.19-.37a3.65,3.65,0,0,1-.24-1.35l-.06,0v0l.12,0q0,.12.12.09l0-.21.21,0,0-.06,0-.07-.1,0-.1.08L24,7.38s0-.09.08-.12l0-.12c-.11,0-.22-.06-.34-.31l-.05,0h0l0,0,.05,0,0,0a.43.43,0,0,0,0,.29l-.15.06L23,6V5.87l-.12-.21-.46-1.23,0-.21.2.06C22.54,4.1,22.58,4,22.64,4Zm-.11.39.06.15h0l-.06-.16Zm.21-.26.08,0,0-.08Zm.17.47.19.49.08,0L23,4.62Zm.18,1.16,0,.11h0l0-.12Zm0-1.16.12.09.26.69.2.4,0,.21.05,0h0l0-.08h0l-.06,0,0-.08-.09-.36-.18-.37,0-.12L23.4,4.7l-.18-.24h0Zm.17,1,0,0,.09.14,0,.17,0,0,.1,0,0,0h0l-.17-.21,0-.16-.05,0Zm.18-1,0,0,.06.16c.08.2.18.28.31.23l0,.11-.14.1,0,.12.08,0,0,0,0,.14.16.07.05-.1,0,0,.08.23c0,.05.11.05.26,0l.16.07.09-.12h0c.12.25.2.36.25.34h0l-.08-.23,0-.06-.29-.41,0-.25-.07-.19-.07,0v0l.11.39h0l0,.14.05,0,.05.11-.08,0c-.06,0-.12,0-.17-.11l-.08,0,0,.08h0l-.11-.18.08,0,0,.07.11,0c0-.11,0-.17,0-.18A.66.66,0,0,0,24.11,5l-.38-.43a.3.3,0,0,1,0,.26h-.13l0-.06,0-.11Zm.09,2.9.08,0,.1,0,0,0-.16.06Zm.06-3.79.08.1h0l0-.12Zm.13,2.89.07.19h0l-.07-.19Zm.13-1.28.11,0,.06.15,0,0-.1,0Zm.1.49,0,.08,0,0,0,0h0L24,5.69Zm.22-2.32,0,.12,0,0V3.44Zm0,4.38.06,0,.07,0,0-.11h0Zm0-3.47,0,0,.07,0,0-.11Zm0,2.84,0,0,0,0,0-.11Zm.27.6,0,0,.07,0v0Zm.06,2.26,0,.08.15.16.09-.12L24.71,10Zm0-.79.06.15h0l.14-.1.18,0,0-.08-.11-.18-.16.06Zm.12-2.37,0,.12c0,.12,0,.2,0,.22h-.13l0,0,.1.27.11,0c0-.1,0-.16,0-.18s.09,0,.13.12l.06,0,.07,0,.05-.11L25,7.34V7.21q-.16-.33-.24-.3Zm0-3.3,0,.17.05,0,0,.06.12-.05-.05,0,0,0,0-.08Zm0,.78v0l.11,0,0,0,0-.11Zm0,6,.05.12.11,0,0-.08Zm0-2,0,.11.05-.1,0,0Zm0,1.6v0l.16-.05,0,0-.1-.05Zm0,.61,0,.17,0,0,0,0-.07-.19ZM25,5.08l.08.23-.07,0,.07.19,0,.06,0,0,.05,0,0,0,0,0,.21.45h0l.05,0,0,.08,0,.05.06,0,.18.5c.07.18.08.28,0,.29l.08.11L26.13,7a.34.34,0,0,0,.09-.34l.08,0v.13c.16.37.27.55.33.53l.07-.16a2.61,2.61,0,0,1-.38-.65l0-.05.31-.12q0,.12.12.09h0l0-.12L26.64,6h0c0,.1,0,.16,0,.18s-.12,0-.18-.15V5.89l-.23-.39-.08,0,.09.36,0,0-.05,0,0,0,0-.21-.08-.19c0-.13-.09-.19-.14-.17l0,0c-.19-.33-.44-.45-.74-.33L25,5ZM25,9.52l0,.11.05-.1,0,0ZM25.1,8.4l0,.11h0l0-.12Zm0-1.24,0,.12,0,0-.05-.11Zm0,2.59.09.23,0,0-.09-.23Zm0-2,0,.08h0l0-.08Zm0-.36,0,0,.1,0,0-.12Zm0,3.89.12.18-.08,0,0,.11.12,0-.12-.31Zm.13-1.75,0,.11h0l0-.12Zm.1-.22.1.05,0-.05-.05-.12,0,0ZM25.49,3l.08,0c.05,0,.09,0,.12.08l0,.21-.08,0-.1-.05Zm.08,5.79.08.1,0,.28.18.24.08,0,0-.21.06,0,.15-.06L26,9l0,0,0,0a.11.11,0,0,0-.07.16l-.1,0-.1-.27Zm0,1.39.09.23h0l0-.11,0-.07-.1,0Zm.08,2.3,0,.07h0l0-.08Zm0-5.35.09.36.11,0-.05-.15-.11-.18ZM25.81,3c.28,0,.42.07.45.14l0,0h0c-.25,0-.4,0-.45-.13l0-.06Zm0,9.77.11,0,.11,0,0-.08Zm.16-3,0,.08,0,0,0-.08Zm.15-5,0,.07h0l0-.08Zm0,2.27,0,.07.11.18.11,0,0-.17L26.22,7h0Zm.14-3.7h0l0,.08-.05.1-.05,0,0,0Zm0,9.91v0l.11,0h0l0-.12Zm.06-7.87.14.38.11.05,0-.21-.07-.19-.1,0Zm0-1.29,0,.08h0l0-.08Zm.07,8,0,.14.05,0,.12,0,0-.08Zm0-3.78,0,.07.08,0Zm0-1.85.19.37,0,0c.1.16.17.24.21.22h0l-.07-.19-.13-.22,0-.21-.05,0Zm0,6,.08.1h0l0-.11,0-.08-.07,0,0,.06ZM26.6,8l.16.43.08,0L26.71,8Zm0,4.86.07.19.08,0,0-.11-.07-.19-.08,0Zm0-7.38.1,0,0,0,0,0Zm0,6.75.1.05h0l.05-.11-.1,0,0,0Zm.05-4.62.06.15.11,0-.09-.23Zm0-2.6,0,.08h0l0-.08Zm0,1.48,0,.15.08,0-.06-.16Zm0-.79,0,.08,0,0,0-.08Zm0-2,0,.08.08,0,0-.08Zm0,1.54v.22l.11.17.08,0,.07-.15C27,5.21,26.88,5.14,26.82,5.17Zm.24,1.22c.07.18.07.28,0,.3l-.19.07.11.18,0,0,.1,0,0-.06.07,0c.06,0,.14,0,.22.22h0c-.08-.21-.08-.33,0-.35s.09,0,.12.08l.08,0c-.07-.18-.17-.24-.3-.19s-.15-.08-.24-.31ZM26.92,12l0,.12.07,0,0-.12Zm0-4.64,0,.11h0L27,7.3Zm.22-2a.18.18,0,0,1-.12.26l.1,0v0c.13,0,.22,0,.28.16l.08,0-.09-.23c-.05-.13-.12-.19-.2-.19Zm-.07,1.91,0,.07.11,0V7.16l0,0h0Zm.1-1.36.1.27h0l-.1-.27Zm0,2.27.1.05-.06-.15Zm.06-3.44,0,.12.05-.11,0,0Zm0,1.52.1.27,0,0-.1-.27Zm0,2.88,0,.15.11.05h0V9.19L27.43,9h0Zm0-.75.08,0,0-.08Zm.16-3,.07.2,0,0,.05,0,.09.23,0,.25.22.22h0l-.08-.32L27.86,6l-.08-.33-.14-.25Zm.06,3.66,0,.12.11,0h0l0-.11L27.74,9Zm.13.92.11.18,0,.1.18.24,0,0,0,0-.14-.25L27.79,10Zm0-4.7.06.15h0l-.06-.16Zm.08.19,0,.08,0,0,0-.07Zm0,2.09L28,8l.05-.11,0-.08,0,0,0,0,0-.08-.1-.05Zm0,2,0,.08,0,.2.13.22.06.15.07,0L28,9.58l-.05,0ZM28,9.07l.11,0,0-.07ZM28.07,8l.09.36.05,0,0,0,0-.05-.11-.27Zm.29.9,0,0,.1,0,0,0,0-.11Zm.32-.08,0,0,.08,0,0,0Zm.24-.08,0,.07.08,0,0-.07Zm.18.37,0,.11.12,0-.05-.12Zm.06.28,0,0,0,0,.05-.1v0h0Zm.08,2.77,0,.08.18-.11,0,0-.1,0,0,0Zm0-2.41.06,0h0l0,0,0-.08h0Zm.43,1.94,0,.12,0,0,0-.11Z"/><path class="cls-4" d="M30.35.79h.29L33,.4h.37v0c.14,0,.32.48.52,1.49l.76,2.59v.29c.18.44.72,2.3,1.62,5.56l-.11.1-2,.3c-.06,0-.11,0-.14-.14l-.25-1.12,0-.13q-.09-.4-.18-.39l-.69.1v.21c.14,1,.16,1.55,0,1.66h0l-.34,0-.12.06h-.25l-.24,0-.31.13-.77.12-.14-.07-.07-3h0L30.28.84h.08Zm.87,1.36.09.57a1.11,1.11,0,0,1,0,.46l.08.28h.05a.29.29,0,0,1,.08-.26l-.16-1.1Zm.06,1.78v.29l.1.11v.21l.06.15,0,.55c.06,0,.09,0,.1.11v.21l.08,0,0,.13c-.14,0-.19.12-.16.31L31.26,6l0,.33.13,0-.05-.32.05,0h0l0-.24.2,0,0-.24,0,0,0,0,0-.16.05-.26-.16-.48,0-.12c.11,0,.15-.16.11-.43A.23.23,0,0,0,31.28,3.93Zm.31,3.77,0,.12.12-.06v0Zm0-1.75V6.2l.09.07h0v0l-.09-.28Zm.05,2.27,0,.12.2,0V8.23Zm0,.25v.08l.2,0V8.44Zm.07.77,0,.12.25,0,0-.12Zm0,.29v.12l.37-.06v.09l0,0v0l.05,0h0c0-.13,0-.21.09-.22l-.14-.1v0l0,0ZM32,8l.06.11h0l0-.13Zm0,.29,0,.2h0l.05-.21V8.16h0Zm.05.32,0,.12h0l0-.13Zm.19-.4v.08h.08V8.17Zm0,1.66,0,.2.16,0,0-.13Zm0-6.56c.12,2.09.16,3.3.13,3.63l.12.27.69-.1-.86-3.82Zm0,7,0,.13.11-.06v0Zm0,.21v.08l.09.07V10.6Z"/><path class="cls-4" d="M39.91.06,40,.19l0,.37H40l0-.37.09-.07c.05,0,.08.05.07.13l0,0h0c0-.08,0-.12.09-.11h0l.08.09.12,0c.43,0,.9.43,1.4,1.21A5.72,5.72,0,0,1,42.24,4l0,.49-.07.49-.25,0-.15-.13c0,.08,0,.12-.09.11l-.08-.08,0-.37h0a.2.2,0,0,0,.15.22l.06-.25V3.93h-.09c0,.33-.09.49-.15.49l-.08-.09h0l0,.45,0,0v0l0,0h-.16l0-.29s-.1.09-.14.28h0l0,0h0l-.13.07L40.7,4.8l-.17,0-.07-.09-.13.12-.2-.14,0,0h0L40,4.63l0-.49c.1-1.5.1-2.26,0-2.26l-.28-.06c-.22,0-.35.25-.39.79l-.08.61,0,0v0q-.12.81-.18.81l0,.12L39,6.74l0,.7v.45l0,0V8c0,.71,0,1.07.29,1.09v.12h.08c0-.11.09-.16.25-.15l.22-1.42.09-.08,0-.91L40,6.52v0l.2,0h0l0,0,.12.09.25-.07h.12c.13,0,.2,0,.2.1l0,0h.12l0,0,.17-.07a.41.41,0,0,1,.06.29h.13l0-.21.13-.07.07.13,0,.28h.09l.1-.41.16.06,0,.28,0,.16.08.09-.1.24,0,.25-.05.16v.33a2.26,2.26,0,0,1-.32,1.13l0,0v0c-.15.36-.3.57-.46.63h0V9.89H41l0,.33a2.15,2.15,0,0,1-1.64.58l-.12-.13,0-.57L39.2,10l0,0,0,.7h0c-.06,0-.1-.07-.11-.21h0l-.1.24c-.08,0-.12,0-.11-.13l0,0h-.05a2,2,0,0,1-1.78-1.6,11,11,0,0,1-.05-2.38l.1-1.48L37,4.84l0-.21L37,4.31l0,0v0l0-.16h0l0,0,0-.65,0-.05,0,0v0L37,3c.08-.9.19-1.35.33-1.34l0,0v0c.07-.24.14-.36.18-.36h0v.12h.08l0-.29a.38.38,0,0,1,.26-.31c0-.07.1-.15.27-.23,0-.09.12-.17.34-.26h.13l0,.16h0c0-.22.11-.32.31-.31,0-.06.1-.08.29-.07v0l0,.05h0Zm-3,6.58v.09H37V6.65Zm0,1v.12h0V7.59Zm.2.63V8.3h0V8.22Zm0-.73v0l.07.08.05,0v0l0,0Zm0-1v.08l.07.09V6.63Zm0-2.38,0,.57.08.09.05-.74Zm0-1.11,0,.49s.08,0,.09-.11l0-.38Zm0-.49v.12h.09v0Zm0,1.07v.16h0V3.63Zm.19,4v.16l.09-.08V7.63Zm0-1.44v.24h.08v0l0-.21Zm0-1.68,0,.61h.08V5h0l.06-.28V4.59Zm0-.54,0,.37.08.09,0-.37Zm0-1.27v.08h0V2.7Zm0,.41v.12l.07.09,0,0V3.2l-.08-.09Zm0-1.32v.05h.08V1.72Zm0,1.61,0,.28h0l.06-.25,0,0Zm.13,4.78V8.3h0V8.18Zm0-1.77v.16h.09V6.33Zm.08-3.65v.08h0l0,.2,0,.66h.08l0-.73,0-.21Zm0,3.28v.13l.08.08V6.13Zm0-1.76,0,.53.08.09V4.81h0C37.87,4.46,37.84,4.28,37.78,4.28Zm0-2.18v.16l.08-.07Zm0-.29,0,.17.09-.08Zm0-.65v0l.07.08,0-.2Zm0,.2v.13h0V1.37ZM38,7.54l0,.37H38l0-.29ZM38,4.33v0l0,.24,0,.12q0,.54.09.54V5.2l0-.86ZM38,4v.24h0s.08,0,.09-.11l0-.13Zm0-3.17V.88l.12.13V.89L38.09.8Zm0,1.07,0,0h0V1.79Zm0,1.77v.08h.08V3.64Zm.07,6.41v.13h0v-.12Zm.1-4v0h.08V6Zm.05-1.39,0,.53.07.09.08-.57,0,0Zm0-.94,0,0c0,.23.05.34.1.34l0-.29Zm0,.45-.06.2.08.09,0,0V4.28Zm0,1.23v.2l0,.29h0l0-.41ZM38.38.74V.86h0V.74Zm.19,3.88v.24l0,.21h0V4.91l0-.29Zm.07-4V.76l.07.08,0-.24Zm0,9.66v.21l.08-.08v0Zm.2-6.64-.05.69.08.09,0-.12C39,3.84,38.93,3.61,38.85,3.61Zm0,1v0l0,.91,0,0h0v-.2l0-.21.1-.36L38.9,4.6Zm0,1.07v.13h0V5.67Zm0-3v.09H39V2.63Zm.34,6.68v.13h.08V9.31Zm.25.6,0,.32.09-.07V10Zm.29-.15V10l.12,0V9.8Zm.23-9,0,.37H40l0-.37Zm0,9.21,0,.29h0l0-.32,0,0Zm0-.61,0,.41.08.08,0-.57Zm.08-5v.08h0V4.35Zm.18,4.78v0h.08v0Zm.08-1.88,0,.32h.08l0-.33Zm.35-4.54v.08h0V2.71Zm.06,7v.08l.07.09,0,0v0l-.08-.09Zm.08-1.81V8.1H41V8l-.08-.09Zm0-.57v.17H41V7.45Zm.47.9v.08h0V8.26Zm.31-.85V7.5h0V7.42Zm.37-3.67L42,4.19l0,.37,0,0h0l0,0v0l.05-.12V3.74Z"/><path class="cls-4" d="M47.25,1.83l0,0L47.2,2l0,.46.12,0,.1-.19,0-.38.05,0,.15,0,.15.08.29,0,1.54.43,0,.21-.43,1.58-.1.18a4.2,4.2,0,0,1-.92-.34h-.17l0-.05c-.11.07-.22.32-.34.75l0,0a.11.11,0,0,1-.15.08l0,.12.08,0,0,.08,0,.25-.25.27-.08,0c0-.22,0-.33,0-.35h0l0,.08h0l0,0-.1.35-.1.06c0-.08,0-.12,0-.14s-.12,0-.17.17l0,0V5.52l0-.2-.08,0s-.11.06-.19.24a.11.11,0,0,0-.15.09l0,0L46,5.27l-.16.26h0V5.39l.05,0,0-.12-.05-.14.09-.32-.12,0L45.72,5,45.53,5l-.06.2.18.13v0c-.08,0-.16,0-.25.11L45.23,6c0,.16,0,.25.05.27s.09-.19.14-.18V5.92l0-.15h0l0,.1,0,.2.08,0,.12-.31h0c.05,0,.08.11.1.28l0,0L46,5.75l.12,0,0,0v0l.06.1h0l0-.28.16,0-.05,0v0s.06.14,0,.39l-.05,0v0l-.14.65,0,.2h0l.1-.06V7l.07-.41.11-.22.08,0,0,.29,0,.12.08,0,.06-.2.15-.09,0,.22h0l.16-.25.08,0c0,.2,0,.3,0,.31l-.17.3-.09.65,0,0-.09.48-.33,1.19-.14.34-.07.41-.47,1.7-.15.09-1.94-.54-.1-.11,0,0,.09-.49,1-3.52.16-.42,0-.21,0,0V6.51a1.41,1.41,0,0,0,.36-.66,1.66,1.66,0,0,1,0-.6l.07-.11.48-1.57.08,0v.13l0,0v0l0,.31-.07.11.07,0,0-.12.09-.18L46,4l0,.25.08,0,.1-.19V4c0-.05-.06-.1-.22-.14l0-.08h0l.11-.1-.08-.32.07,0,0,0,0,.05.08,0h.17l.21.18.33-.12.15.09,0-.12L47,3.33l-.14,0-.14-.12,0,0h0l-.1-.08-.1.06h0V3.07l0,0-.08,0,.07-.24c0-.25,0-.38-.06-.4l.12-.13c-.16,0-.18-.25-.08-.62l.08,0,0,.1,0,.2.08,0,.1-.22.08,0,0,.26.11,0,0-.16h0s0,.16,0,.42l.1-.06L47,2c.05,0,.09,0,.12-.13l.05,0Zm-2.7.83.12,0a.18.18,0,0,0,.14.25v.21l0,.08-.28,0-.05-.14Zm.1-.36.08,0,0,.08h0l-.1.19-.08,0Zm0,6.51,0,.08.08,0,0-.08ZM44.7,2.1l0,0,.06.1,0,.08-.12,0Zm.48-.8.06.1-.1.36h0l.15-.09.14.13c.07-.27.13-.39.19-.38s.05.15,0,.39h0c.06-.24.12-.35.17-.33l.08,0v.21l.12,0,.05-.2.12,0,0,.16c0,.33,0,.5.06.52-.11.15-.2.23-.27.23l-.06-.11L46,2.21l-.08,0-.09.32a.33.33,0,0,1-.19.21c-.09-.06-.13-.13-.11-.21l.07-.1,0,0,0,0-.15.39-.08-.15.05,0V2.41l-.08,0v.17l-.11.22.06.1h.17v0l-.11.22v.17l-.08,0,0-.22.08-.15-.12,0L45,3.3l-.12,0,.16-.55-.12,0,0,.12-.08,0V2.48l.08-.11h0s.06.09,0,.22l.12,0,.15-.25-.12-.17-.12,0c0,.08-.06.11-.11.1h0v0L45,2.1s-.08-.13-.07-.36L45,1.59h0C45.06,1.38,45.13,1.29,45.18,1.3ZM45,7.3l-.09.31.08,0,.09-.31Zm.21-.92,0,.12h0l0-.12Zm.19-5h0l-.05.16,0,0Zm.14,1.78.05.14v0l-.1.06-.08,0V3.24Zm0,3.92,0,.16.08,0,0-.08Zm0-2.45,0,.11.12,0v0l-.06-.1ZM45.89,3l.06.1v0l0,0,0,0,0,.12-.1.18h0l-.08-.15.14-.21V3.05l.05,0Zm0,6.13-.07.24.09.15L46,9.44C46,9.27,46,9.18,45.9,9.16ZM46,6.62l-.11.4.08,0,.06-.2v-.2Zm0,1,0,.12.08,0,0-.12Zm.37-3.64L46.3,4v.13h0c0-.11.07-.15.13-.14l.09.11v0S46.52,4,46.37,3.93Zm0,1.69.11,0v0l-.12,0Zm.05-1.9v.13h0l0-.12Zm.12,2.33h0l.06.1-.09.19-.08,0,0,0,0,0Zm.1,1.35-.05,0v0l.05.1h0l0-.08Zm.12-.61-.07.11,0,0h0l.05,0V6.8Zm.06-3,0,.12.08,0,0,0-.11.1a.54.54,0,0,1,0,.37h0l.12-.26.07-.41Zm-.05,2.33h0l0,.08h0Zm.17-1.23,0,.19.1,0V5Zm.24,1h0l.09.15L47,6.49l-.08,0c0-.1,0-.17,0-.18C47,6,47.09,5.87,47.14,5.89ZM47,4.73l-.05.16h0l0-.16Zm0-.63,0,.12.08.15.11,0,0-.12Zm.25.2.11,0,0-.08h0Zm.44-.69,0,.12h0l0-.12Zm.29.17,0,.08h0l0-.08Z"/><path class="cls-4" d="M51.71,2.91l.53.23.13.11.16,0,0,.14-.18.42-.17.06-.08-.22,0,.08,0,0-.13.39-.25.56,0,0,.16-.06.13-.3,0-.15L52.07,4l.11,0,0,.35L51.87,5l.1.09.15-.25,0-.13.17-.19,0,0,0,.26v0l-.08,0-.06.15.09.09.17-.28,0-.06,0,0,.17-.28.21-.58L53,3.57l.11.14c0-.1.1-.14.15-.11l.3.13,0,.07,0,0,0,0-.1.23-.25.74L53,5.06l-.22.58L51.36,8.82l-.21.27v0c0,.13,0,.2,0,.22l-.06,0L51,9.64l0,.08-.44.88-.09.32-.13.17-.06.24-.1.13-.23.62-.44,1-.16.06-.15-.06c-.25-.12-.36-.2-.34-.25l-.26,0-.28-.17-.06,0,0,0,0,0-.47-.17-.23-.1s0-.13,0-.35l.1-.13.32-.8.2-.45,0,0,.08.12.06,0v0l.08-.28-.05,0-.11-.05v0c.2-.45.37-.69.5-.72l0-.08a.47.47,0,0,1,0-.31L48.84,9,49,8.72l.13-.39,0-.08L49.36,8l.15-.43L50,6.34l.23-.61.06,0v0l.2-.54.2-.45L51,4.25l0-.06,0,0,0,0c0,.07,0,.12,0,.14l0,0,.14-.21,0-.16.09-.1,0,0-.08,0-.17.29,0,0,0-.13.12-.17.09-.32.26-.38V2.94Zm-4,8.82,0,.11,0,0,0-.11Zm.26.12-.15.34s.13-.06.24-.25l0-.06Zm.27-.6,0,.11,0,0,0-.11Zm.23,0-.15.34s.06.13.25.24l0,.06-.11.26.07,0V12l.12-.18.07-.14,0-.11-.07,0,0,.08s-.06-.15,0-.38ZM48.75,10l-.12.17-.13.3c-.08.18-.09.3,0,.34l.35-.78Zm0,.62-.15.34.11,0,.09-.19Zm.4,1.12,0,.08.11.05.07-.15,0,0Zm.19-3.24,0,.11.08,0,0-.12Zm.62.64-.09.18.08,0L50,9.21ZM50,10.42l-.09.1,0,.05.08,0,0-.07Zm.24-1.24,0,.05,0,0,0-.11Zm.25-.07,0,.12.11-.05,0,0Zm.31-1.39-.23.53,0,.11.14-.12a.73.73,0,0,1,.11-.45l0,0Zm-.08-2.64,0,.08,0,.11.07-.15Zm.11,4.09,0,.08h0l0-.07Zm.23-4.34-.2.45.11,0,.15-.25,0-.2ZM51,8.14l-.05.11,0,0L51,8.16Zm.18-1.31q-.21.54-.12.57l.25-.56Zm.26,0,0,.12,0,.14-.23.53,0,.1L51.5,7l0-.11Zm-.17-1.73,0,0,0,0,.11,0,0,0h0Zm.25-.47-.1.22.08,0,0,0,0-.21Zm.07-1,0,.11,0,.11.11-.13,0-.06ZM51.9,6.5l-.15.25-.15.33c.1,0,.21-.07.33-.34V6.52Zm-.14-1.19,0,.12,0,.1.09-.18Zm0-2.14-.05.11.07,0V3.18Zm.19.26v0l0,.13-.14.21.08,0,.17-.37Zm.33-.12-.15.33,0,0,.16-.34ZM52.21,5l-.05.11,0,0L52.24,5Zm.41-.31,0,.11,0,0,0-.12Zm.21-.58,0,.11.07-.15Zm.2-.36-.12.17,0,.06h0l.1-.22Z"/><path class="cls-4" d="M57.86,6.06v.15l-.2.31.07,0,.2-.3.11,0q.08,0,0,.15v.06l0,0c0-.07.09-.09.13-.06l0,0,0,.12.13,0c.35.23.56.81.63,1.73A5.87,5.87,0,0,1,58,10.6l-.27.41-.31.39-.2-.13-.07-.19c-.05.06-.09.08-.14.05L57,11l.2-.31,0,0a.19.19,0,0,0,0,.26l.17-.18.23-.43-.06-.05c-.2.27-.32.38-.38.35l0-.12,0,0-.25.38V11l0,0h-.06l-.14-.09.13-.26s-.13,0-.26.17l0,0v-.06l0,0h-.15l-.09-.16-.16-.05,0-.12-.17,0-.1-.22-.06,0,0,0v-.14l.27-.42c.83-1.26,1.19-1.91,1.1-2l-.22-.2q-.27-.18-.72.51l-.37.49v.06l0,0c-.33.43-.52.64-.55.61l0,.13L53.8,11.45l-.38.58-.22.4h-.05l0,0c-.39.59-.49,1-.28,1.09l-.07.1.07.05q.09-.13.3,0L54,12.58l.11,0,.43-.8.17,0,0,0,.15.14,0,0,.06,0,.06.14.25.07.1.06c.11.09.15.15.13.19l.05,0,.11.07v.06l.18,0a.42.42,0,0,1-.09.28l.11.07.07-.19h.15v.14L56,13l.06,0,.3-.3.11.12-.19.22-.09.14,0,.11-.2.16-.1.23-.12.12-.15.29a2.25,2.25,0,0,1-.83.83V15l0,0a1.13,1.13,0,0,1-.71.33l0,0,.07-.1L54,15.16l-.18.28a2.18,2.18,0,0,1-1.72-.29l0-.17.31-.48,0-.12h-.06l-.38.59,0,0c-.06,0,0-.12,0-.24l0,0-.2.16a.11.11,0,0,1,0-.17l-.05,0,0,0a2,2,0,0,1-.77-2.26A11,11,0,0,1,51.9,10.3l.81-1.23.23-.29L53,8.59l.22-.26,0-.05,0,0,.12-.11,0,0,0,0,.36-.55v0h.06l0,0,.08-.19c.52-.74.83-1.08.94-1V6.19l0,0c.18-.17.3-.25.33-.22l0,0-.07.1.07.05.16-.24a.35.35,0,0,1,.38-.14c0-.07.16-.09.34-.07s.2-.1.44-.06l.1.06-.06.16,0,0q.18-.28.42-.12c0-.05.12,0,.28.09l0,0,0,.06,0,0ZM51.41,13.9l-.07.11,0,0,.06-.11Zm0-2.08-.05.07,0,0,0-.07Zm.13-.65-.07.1,0,0,.06-.11Zm.19,3.16-.12.17.12,0,0,0Zm.08-3.13,0,0,0,.11h.06l0,0v-.05Zm.09.84-.07.11,0,0,.06-.11Zm.08-.58-.09.14.12,0,0-.07Zm0-1.12L52,10.4l.07,0,0-.07Zm.3.05,0,.07,0,.11,0-.07Zm.17,1.24-.2.31.07,0,.16-.24Zm.14,2.78-.18.28.12,0,.09-.14Zm.1-4.19-.13.2.06.05,0,0,.08-.19Zm0,3.56-.07.1.07,0,.06-.1Zm.12-3.26-.09.14.06,0,.14-.2ZM53,14.43l-.13.21.12,0,.09-.13Zm.12.28L53,15l0,0,.18-.27h-.06ZM53,10.21l-.07.11,0,.11.07-.1Zm.38,4-.22.34,0,.12.32-.48Zm.11-5.86-.31.48,0,.12.41-.62Zm.06.43-.33.52.07,0,0-.07,0,0L53.53,9l.09-.13Zm-.14,1.72,0,0,.07,0,.06-.1Zm.36-.55-.11.17-.13.27,0,0,.22-.34Zm.12-1.24-.29.45,0,.11,0-.07,0,0C53.92,8.9,54,8.73,53.93,8.69Zm-.08-.4-.2.31,0,.12.2-.31Zm.27.57,0,0-.1.23-.1.08c-.18.31-.24.48-.19.52l0-.07.44-.74Zm-.38,5.29,0,0,.07,0,0,0Zm.08-6.27L53.73,8l0,0,.09-.14Zm.06,7.05-.05.07,0,.11h.06l0,0,0-.11Zm.22-7.55-.26.41s.09,0,.13,0l.17-.34Zm.08,1.91-.29.45,0,.11.35-.46V9.34Zm0-1.48L54,8.05l0,0,.17-.19v0Zm0,2.61-.07.1,0,0,.07-.1Zm.52-3-.05.07,0,0-.08.2-.36.55.07,0,.4-.62.08-.19Zm-.38,1.17-.14.21,0,0s.09,0,.13-.06l0-.12Zm.37.93,0,0-.46.77v.06l0,0,.11-.17.08-.19.27-.27,0-.21Zm-.4-1.93-.07.1,0,.12h.06l.05-.07,0-.12Zm.17,1.83-.13.21-.08.19,0,0,.09-.13.12-.27ZM54.34,7l-.07.1.07,0,0,0Zm.11,1.93L54.3,9l0,.11h.06L54.47,9Zm0-1.7,0,.07,0,0,0-.07Zm0,1.1,0,.07.07,0,0-.07Zm.16.2H54.6c-.09.2-.12.31-.07.34l.15-.24Zm.08,4.07-.18.28.07,0,.18-.27Zm.09.84-.09.14.1.07,0-.07,0-.11Zm.37-4.76-.39.59,0,.11.1-.08C55.18,8.89,55.26,8.68,55.2,8.63Zm-.26-2.22,0,0,.06,0,.07-.11ZM55,6.8l-.09.14.11,0Zm.12,6.11-.09.14.07,0,.05-.06Zm0,1,0,.06,0,0,0-.07Zm.06-7.37-.09.14.11,0Zm.24-.37-.06.1,0,0,.07-.1Zm-.06.54v.06l0,0,.06-.1ZM55.5,6l0,0,0,.11L55.62,6Zm.2,1.8,0,.07.06,0,.05-.07Zm.1,5.55,0,.07,0,0,0-.07Zm.08-7.54-.05.07,0,.17.06-.11,0-.11Zm.06,4.1,0,.07,0,0,0-.06Zm.26-4-.07.1,0,0,.07-.1Zm.29,0L56.4,6l0,.12L56.56,6Zm.78,2.86-.05.07,0,0,0-.07Zm.33-2.08L57.4,7l.07,0,.2-.31Zm.32,3.64-.28.35-.17.33h.06l0,0v0l0,0,.1-.08.28-.5Z"/><path class="cls-4" d="M67.05,14.58l0,.14-.3.22.05.07.3-.23.11,0s0,.08,0,.13V15l0,0c.07,0,.12,0,.15,0l0,0v.11l.11.07c.26.34.26,1,0,1.85a5.77,5.77,0,0,1-1.76,1.82l-.39.3-.41.27-.15-.2v-.2c-.07.05-.12.05-.15,0V19l.3-.22,0,0a.19.19,0,0,0-.06.26l.22-.12.36-.34,0-.06c-.27.18-.42.25-.46.2V18.6l0,0-.36.28v.06l0,0h-.06l-.1-.13.21-.21s-.13,0-.31.08l0,0v-.05l0,0-.14,0,0-.18-.14-.11,0-.11-.17,0,0-.23h-.06l0,0,0-.14.39-.31c1.19-.91,1.76-1.41,1.69-1.5l-.14-.25c-.14-.18-.42-.1-.85.24l-.52.34v.06l0,0c-.45.3-.69.44-.72.41l-.07.1-2,1.56-.55.43-.33.31h-.06l0,0c-.56.44-.76.75-.61.95l-.1.07.05.07c.08-.07.18,0,.28.09l1.21-.78.12,0,.66-.62.17,0,0,0,.09.19,0,0h.06v.14l.22.15.07.1q.12.17.06.21h.06l.07.09v.06l.16.08a.38.38,0,0,1-.18.24l.08.1.14-.16.14.05,0,.14-.23.17.05.07.38-.19.06.16-.25.14-.13.1v.12l-.25.08-.17.18-.15.07-.24.24a2.3,2.3,0,0,1-1.06.5V22l0,0a1.05,1.05,0,0,1-.77.08l0,0L60.5,22l-.07-.1-.26.2a2.18,2.18,0,0,1-1.53-.84l0-.17.46-.35v-.12h-.05l-.56.42,0,0c0-.05,0-.12.09-.22l0,0-.24.08c0-.07,0-.12,0-.17h-.06l0,0a2.08,2.08,0,0,1,0-2.4A10.83,10.83,0,0,1,60,16.62l1.17-.9.32-.2.14-.15.28-.17v-.06l0,0,.16-.07,0,0h.06l.52-.4v0h.06l0,0,.14-.16c.73-.53,1.13-.74,1.22-.63V13.7l0,0c.23-.1.36-.14.39-.1l0,0-.1.08,0,.06.23-.17a.37.37,0,0,1,.41,0c.06,0,.17,0,.34,0s.21,0,.43.08l.07.1-.1.13,0,0c.18-.14.32-.13.44,0q.06,0,.24.18l0,0v.06l0,0Zm-8.67,5.27-.09.08,0,0,.1-.07Zm.2.53-.16.12.11,0,0,0Zm.53-2.48L59,18l0,0,.06-.05Zm.27,2.84-.26.2.12,0,.13-.1Zm.06-3.41-.09.08,0,0,.1-.08Zm.06.94-.1.08,0,0,.1-.07Zm.19,2.6-.2.15.11.07.13-.1Zm0,.3-.21.2,0,0,.26-.2h-.06Zm-.05-1-.1.07,0,.07.1-.08Zm.11-2.42-.13.1.11,0,.07-.05Zm-.08-.3,0,0,0,.11h.06l0,0v-.05Zm.5,3.34-.32.25,0,.12.46-.35Zm0-2.72-.3.22.05.07.23-.18Zm0-1.38-.06,0,.05.06.06,0Zm.24,4.94-.07.05v.12h.05l0,0v-.11Zm0-4.79-.06.05,0,.12L60.4,17Zm.1,4,0,0,.05.06,0,0Zm.35-4.05-.2.15.05.07,0,0,.14-.16Zm0,.32-.13.1,0,.07.2-.15Zm.3-.22L61,17l0,.12.1-.08Zm.3.39,0,0,.05.07.1-.08Zm.52-.4-.17.12-.2.21,0,0,.32-.25Zm.18-1.18-.49.38.05.06.07-.05,0,0,.25-.14.13-.1Zm-.36,4.78-.13.1.08.1.06-.05,0-.12Zm.2-.82-.26.2.05.06.26-.2Zm.24-4.39-.45.35,0,.12.59-.45Zm-.34,5.81-.07,0,0,0,.06-.05ZM62.6,16l0,0-.17.18-.12,0c-.27.23-.39.37-.35.42l.06-.05.66-.56Zm-.12-.22-.42.32v.12l.06-.05,0,0C62.41,16,62.52,15.82,62.48,15.77Zm-.34,1.71-.09.07,0,0,.1-.07Zm.38-1.07-.43.33v.11l.48-.31v-.06Zm-.28,3.74-.13.1,0,.06.06,0Zm.7-3.39,0,0-.69.58v.06l0,0,.17-.13.13-.15.35-.16.11-.19Zm-.4-1.4-.3.23v.11l.29-.22Zm.22,1.23-.2.15-.14.16,0,0,.13-.1.2-.21ZM62.65,15l-.13.1,0,0,.13-.1Zm.06,5.8-.06.05,0,0,.07-.05Zm.37-6.18-.39.29s.08,0,.14,0l.27-.26Zm-.19,1.17-.19.15,0,0c0,.05.09,0,.15,0l.07-.1Zm0,.35-.19.1,0,.11h.06l.13-.1ZM63,15l-.23.18,0,0L63,15.1v0Zm.65-.24-.07.05,0,0-.14.16-.52.4,0,.07.58-.45.14-.16Zm-.4,1h-.06q-.24.22-.18.3l.22-.18Zm-.05-1-.09.08,0,.12h.06L63.2,15l0-.11Zm0,.76-.06,0,0,.07.06,0Zm.54.57-.55.42v.12l.12,0C63.6,16.36,63.74,16.19,63.69,16.13Zm-.25-1.88-.1.08,0,.06,0,0Zm.05.27-.06.05,0,0,.07,0ZM64,17.57l-.07.05,0,0,.06,0Zm.15-3.23-.13.1.12,0Zm.05-.4,0,0,0,.07.1-.08Zm.18.23-.13.1h.11Zm.09,1.32-.07,0,.05.07.07,0Zm0-1.1v0l0,0,.1-.08Zm.24-.5-.1.08,0,0,.1-.08Zm.13-.16,0,0v.11l.16-.12Zm.86,4.88-.38.24-.27.26h.06l0,0v-.06l0,0,.13,0,.43-.39Zm-.44-4.94-.06.05,0,.17.1-.07,0-.12Zm.27.21-.1.08,0,0,.1-.08Zm.07,3-.07.05,0,0,.06-.05ZM65.82,14l-.13.1,0,.11.2-.15Zm.79,1.09-.29.23.05.06.29-.22Z"/><path class="cls-4" d="M70.46,20.18l.09.27,1,2.1.12.35,0,0q.09.2-1.29.93l-2.26,1.47-.27.08q-.57.45-4.87,3.15l-.12-.07-.88-1.86c0-.06,0-.12.1-.18l1-.56.13,0c.24-.13.35-.23.32-.29l-.3-.63-.2.05c-.91.43-1.43.6-1.57.52l0,0-.06-.33-.09-.1-.07-.24-.11-.22L61,24.28l-.33-.71,0-.14,2.87-.94,0,0,6.88-2.33,0,.07Zm-8.75,4.7-.08,0,0,.11.08,0Zm.18-.08-.11.05.09.09h0Zm.45-.21-.19.09.07.14.12-.05Zm.18-.49-.12,0,.16.33-.07,0-.06,0h0l0,.06v0c.13-.06.21-.05.24,0l.06-.16,0,0-.06,0Zm.26-.13-.12.06.11.22.11-.05Zm.71.08-.11.05,0,0,.11-.05Zm0-.37-.08,0,.09.19.08,0Zm.29.23L63.6,24l0,0h.22l.07,0v0Zm-.07-.34-.11.06.09.18.07,0Zm.21.54-.08,0,0,.07.07,0Zm.13-.29-.09.09,0,0,.11-.06Zm.14-.47-.11,0,.09.09h0Zm4.44-.59c-2,.71-3.12,1.1-3.44,1.16l-.23.2.3.63,3.4-1.92Zm-.92-.8-.27.09-.08.13-.2,0-.13.11-.54.12c0,.05,0,.09-.08.12l-.2.05,0,.08-.12.05c0-.12-.17-.14-.34-.06l-.11-.13-.3.14,0,.13.3-.14,0,0v0l.23-.11.08.19.23-.11.05,0,0-.05.15-.07.26,0,.41-.29.11,0c0,.1.19.09.44,0A.22.22,0,0,0,67.72,22Zm-1.84.91-.2.05,0,0,0,.11,0,0,0,0,.24-.16Zm3.53-1.47-.52.24a1,1,0,0,1-.45.12l-.24.16,0,0a.32.32,0,0,1,.27,0l1-.47Z"/><path class="cls-4" d="M72.48,27.19l0,0v0l.07.11-.16.08,0,.12c0,.05.06.07.14.05l0,.08-.2.05v0l.11.1v0l-.63.23v0l.25,0,0,.08L72,28.4h0l-.45.06-.13.16.29,0,.35-.12,0,.24,0,0,.12,0,0,.08.12,0,.09-.14c-.08,0-.12,0-.13-.05l.08-.19v0l0,0v0l.26-.15-.08-.19,0-.05h0l0,.08h0l0,.05.05.2.11.27-.27.15v0l.26,0,.08.32c-.11,0-.15.09-.14.16l.1.06-.12.2v0l.08,0,0,.08-.12,0-.3.15-.32.07,0,.12c.16,0,.25,0,.26,0l.09.4.11.1c-.23.08-.34.15-.33.2l.07.11a.8.8,0,0,1-.38.22c0,.05.08.06.18,0l.05,0v0q0,.07-.18.12l0,.12h.25l0-.05h0l0,0h0l.46-.19v0c0,.18-.34.49-1.13.94l-.16,0-.08-.15-.24.06,0,.08.2-.05,0,.08-.19.09-.4.09,0,.05-.05,0h0c-1.08.2-1.63.23-1.67.09v0l.24-.06v0c-.37.09-.58,0-.62-.15l-.25-.36h0A1.49,1.49,0,0,1,67.34,33h-.42l-.11.07-.1-.23,0,0c0,.16-.18.3-.66.41l-1.16.26-.15.08h-.17l-.56.13-.23.09c-.14,0-.22,0-.23-.07l.07-.1c-.08,0-.13,0-.14-.05l0,0-.13-.18v-.17l-.07-.15,0,0,.32-.08v0l0,0v0l-.19.09h0l0,0h0v-.13l-.1-.27h0l0,0-.08-.36c0-.16,0-.26.22-.31h.21l.35-.13.16,0,.1.06,0,.12-.06.14.05,0,.12,0c.06,0,.06-.11,0-.3a2.34,2.34,0,0,1,.7-.24l1.68-.39,0,0c.54-.18.79-.38.74-.59h0l0,0,0-.24L64.13,31s-.09,0-.11-.14l-.08,0a.46.46,0,0,1-.33.24H63.4l-.23.09-.2,0-.14-.09,0-.16v-.21l-.09-.23,0-.2.08-.19v-.08l-.08,0,0-.08.08,0c.05,0,.09,0,.11.1l0,0h0l0-.05-.05,0-.06-.25-.2.05-.1-.06,0-.05-.08-.19-.08-.32c0-.05.12-.12.37-.21h.13L63,29l.49,0,.58-.22c.3-.05.45-.06.46,0l.78-.26v0l0-.05h0l0,0,0-.05.48-.11.05,0,0-.05.6-.14.39-.13a3.76,3.76,0,0,1,1.38-.06l0-.05h0l0,.12c-.07,0-.11.05-.1.11h.21v.21l0,0,.08,0,.06-.1-.07-.11.16,0s.09,0,.11.1l.12,0c0-.12.09-.21.35-.29l0-.05v0l0,0,0,.05h0a.39.39,0,0,0-.29,0l0-.16,1.35-.35h.13l.23-.1,1.28-.29h.21l-.09.19C72.37,27.08,72.46,27.13,72.48,27.19Zm-9.73,2.38h0l-.06.1v0l.12,0Zm.44.4L63,30v.08l.1.06.2-.05,0-.08Zm.19-.8-.06.1,0,.12.07,0Zm.09,3.47-.08,0,.08.19h0l.06-.1v0Zm0-2.74-.11.07v0l.1.06.08,0,0-.08-.05,0Zm.11-.83-.08,0v0l.08,0Zm.27.82-.13-.05,0,.05,0,.12.08,0Zm-.08.19-.06.1v0l.1.06.06-.1v0Zm.07,3.06-.12,0v0l.12,0ZM64,30.37l-.12,0,0,.08.12,0Zm.89-1.63-.19.08,0-.08-.12,0,0,.12.32-.07Zm1,2.68-.19.09-.1-.06-.26.14,0,0v0l.27-.1.24-.06Zm-.29-2.88h-.17l0,.05v0l.2-.05Zm.67,3.09-.08,0h-.21l-.23.1-.16,0,0,.08.65-.1,0-.05Zm-.33-2.33-.24.06v0l.1.06.08,0,.06-.1Zm-.1-.81-.12,0,0,.12h.08ZM65.86,33l0,.05v0l0,0H66v0Zm.31-4.66-.08,0-.18.13.11.1.18-.13Zm0,.3h0l0,.16h0l.06-.1Zm.07,4.32h0v0l.09.06h0v0Zm.2-4-.24.05v0l.24-.05Zm-.15.83-.08,0v0l.08,0Zm.23,3.19-.11,0,0,.12.12,0Zm.09-3.81-.12,0v0l.12,0Zm.15,2.07-.16,0-.07.09v0l.13,0,.19-.09v0Zm-.08-2.34-.12,0,.1.06h0Zm.09,2.59-.12,0-.06.1v0l.1.06.11-.07Zm.51-2-.11.07-.26-.07-.27.15,0,.08h.21l0,0,0,.16.16,0,0-.05h0a.11.11,0,0,0-.15-.09l.06-.1.28-.06Zm-.55,2.36-.06.09h.08Zm.1.4h0l-.07.09v0l.12,0Zm0-3-.06.1.05,0,.12,0v0Zm.15-.79-.15,0v0l.08.16,0,.17.08,0,.19-.08,0-.16Zm-.1,4.1h0l0,.08h0Zm.06.24-.08,0v.08l.08,0Zm.84-.74-.37,0,0,.05v0l.05,0,.28-.07Zm-.26-.74,0,.08.08,0Zm.14-.87-.08,0v.08Zm.37.17-.44.1,0,.08.36-.09Zm-.25-1.8-.12,0,.1.06h0Zm0,.25-.12,0v0l.12,0Zm-.06,2.12-.06.1.16,0Zm.5.72-.39.13.1.07.08,0L68,32l0,0,.08,0,.06-.1Zm.17-1.13-.17,0-.06.1.24-.06Zm0-1.6-.08,0v0l.08,0Zm0-.6h0v.08h0Zm0-.29,0,0,0,.08.12,0v0ZM68.6,31l-.12,0v0l.12,0Zm.31-1.2-.37,0,0,.12.16,0,.19-.08Zm-.27,1.36-.08,0,0,.12h.13l0,0v0Zm.65-2.29-.12,0c-.14,0-.21,0-.22,0v-.13l0,0-.28.07-.06.09c.1,0,.16,0,.18,0s0,.09-.14.11l0,0,0,.08.1.07.14-.12H69c.24-.08.35-.15.33-.2Zm-.55.38h0l-.06.09.12,0Zm.19,1-.08,0-.19.09,0,.12h.17l.18-.12v0Zm.57,1c-.19,0-.29,0-.3,0l0-.2-.2.09,0,0-.07.1.05,0,0,.08c0,.06-.07.12-.25.18v0c.21-.05.33,0,.35.05s0,.09-.11.11l0,.08c.19-.05.27-.13.24-.27s.09-.14.33-.2Zm1.58-1.92-.24.05,0-.08-.2.05-.05,0h0l0,.05v0l0,0-.47.15v0l0,.05-.08,0,0,0,0,0-.52.12c-.19,0-.29,0-.3,0l-.11.07.1.44a.34.34,0,0,0,.33.13v.08h-.12c-.4.11-.59.2-.58.26l.15.09a2.77,2.77,0,0,1,.69-.29l0,0,.08.32c-.08,0-.12.06-.11.11v0l.12,0,.27-.1v0c-.11,0-.17,0-.18,0s0-.12.17-.17h.13l.42-.18,0-.08-.37,0v0l0,0v0h.21l.2-.05q.21,0,.18-.12l.05,0c.36-.15.51-.38.43-.69v-.08Zm-2.2-1.68,0,.08-.06.09h0l0-.16Zm.57,3-.39.13v0c-.18.08-.26.14-.25.19v0l.2,0,.23-.09h.21l0-.05ZM69,29.22l-.12,0v0l.12,0Zm.06-.85,0,.05v0l.12,0ZM69.48,31l-.16,0v.08l.16,0Zm.12.56-.27.06v0l.28-.06Zm.79.32-.19.05,0,0,0,.05-.24.05-.25,0-.26.18v0l.33,0,.11-.07.33,0,.27-.11ZM69.75,28l-.2.05v0l.2-.05ZM70,31.44l-.28.06v0l.28-.06Zm.56,0c-.13,0-.21,0-.25-.16l-.06.1h0c0,.14,0,.22-.19.26l0,.08.24-.06c.14,0,.21-.09.21-.17Zm0-.81-.4.09-.07.1h.21l.2-.05.06-.1Zm-.29.4-.08,0v0l.08,0Zm0,1-.08,0v0l.08,0ZM71.77,28l0,0-.16,0c-.21.05-.31.14-.27.28l-.12,0-.08-.16-.12,0,0,.08h0l-.14,0-.09.15.1.06v0l-.24,0c-.06,0-.07.1,0,.26l-.09.15.11.1v0c-.26.09-.39.16-.38.21v0l.24-.05.05,0L71,29l.25,0,.2,0,0-.08h0l-.4.06v0l-.13-.05,0,0-.12,0,0-.08c0-.06,0-.12.13-.15l0-.08h-.08v0l.19-.08,0,.08-.08,0,0,.12c.11,0,.17,0,.18,0,.17-.12.28-.23.3-.32l.47-.32c-.11,0-.2,0-.25,0V28l0,0,.12,0Zm-1-.32h0l-.15.08h-.21l-.06.1,0,0v0l.22-.13h.17l0-.05Zm1,0-.1.11-.72.16-.43.15h-.21l0,.05v0l.08,0v0l0-.05.08,0,.37,0,.39-.13.12,0h.25l.26-.15v0Zm-1.32,4.47-.16,0v0l.16,0Zm.26-.9-.22,0-.19.08v.08l.15.1C70.68,31.32,70.76,31.24,70.75,31.17Zm-.25-2.89-.08,0v0l0,0v0l.11-.07Zm0,2.7-.06.1,0,0h0Zm.18-3.58-.12,0v0l.12,0Zm.33.85,0,.12-.15,0v0l.06-.1Zm0,2.88h-.08v0H71Zm.16.55-.12,0,.1.07h0Zm.07-1.16-.08,0v0l.08,0Zm.67-3.14-.52.12,0,.08.44-.1Zm-.07,1.87h0l-.07.1v0l.12,0Zm0,1.63-.08,0v0l.08,0Zm0-2.15h0l0,.08.12,0ZM72.1,27l-.16,0v0l.16,0Zm.16,4.34-.08,0,0,.08.08,0Zm.29-2.05h-.17l0,.05,0,0,0,.12,0-.05,0,0,.08,0Zm-.22-2.05,0,.08.08,0Zm.24,3.61v0l-.08,0-.1-.07,0,0h0Zm.06-2.67-.11.07v0l.12,0Zm.14.6-.12,0v0h.13ZM73,30.14l0,.08c0,.05,0,.09-.1.11h-.21l0-.08.06-.1Zm0,.33c-.07.27-.14.41-.2.42l-.05,0v0c0-.25.06-.39.2-.42l0,0Z"/><path class="cls-4" d="M74.36,33.86l0,.53,0,0,0,0v0l0,.17,0,.29.08,1.8-.2,0,0,.12h.25V37l-.08.09.09.16,0,0v.12l0,.13h0l-.17.05-1.72.07-.13-.12v-.4l.07-.13-.08-.12,0-.25s0-.08.12-.08l0-.05v0l-.17,0v-.25l-1.55.07,0,0,0,.05h-.29l0,.21,0,0,0,0v.16l0,0,0,0V37l0,0,0,0v0l.06.41c0,.11-.1.17-.24.17l-1.06.05c-.06,0-.09-.05-.09-.16H68.9l-.19.17-.18-.19,0-.05v-.16l0,0,.08-.17,0-.16.08-.09h0l.16,0,.29-.1v-.08l-.4.06h-.09c-.05,0-.08,0-.08-.12l0,0v0c-.07-.22-.2-.32-.38-.31l-.2,0-.13,0-.49.07H67l-1.18.1-.17-.08,0,0h-.21v-.08l.37-.1c0-.06-.06-.1-.17-.11s-.28.13-.28.18l0,.12h0l-.16.09.09.2-.11.13.2.07a1,1,0,0,1,.53-.11l0,0v0l-.33,0-.2,0v0c0-.06.29-.12.86-.2l0,.12,0,0v0l0,.33-.16.05v0h.12c0,.09-.11.13-.36.14l.05.13.28,0,.09.08-.08.09,0,0h0l-.57.11-.25-.07L65,37.6l-.41,0v-.12h.2v-.08l-.2.05c0-.09-.06-.12-.17-.12s0-.08-.13-.08l0-.2-.07-1.52c0-.13,0-.2.08-.2l-.1-.25,0-.61.11-.13,1.4-.06.16,0,.41.06,0,0h.16v0c0,.05-.08.08-.25.09v0l.82,0v0l0,0v0c.14,0,.2,0,.2-.09.3,0,.45,0,.46.1v.09h.16v-.17h.37l.16.11.41-.1,0,0,.49-.1h.08v0l.49-.07L71.29,34l.25.07.24-.1,1,0L73,34v0l0,0,.85-.12.25,0,0,0h0Zm-8.31,4.06V38l-.41.05h0l0,0,0,0-.62,0,0,0-.05,0-.53,0-.05-.2c0-.14,0-.2.07-.21l-.09-.16q0-.21.12-.21c0,.14,0,.21.13.2l-.08.17,0,0h0l.61-.07.17.07.41-.1.12,0v.08l-.07.13.2,0Zm-1.37-3h-.37V35h0l.16,0,.13,0,0,0Zm-.11,2.18h-.16v0l.13,0,0,0ZM65,34.68l-.49,0v.08l.49,0Zm.47.43h-.12c-.44,0-.66.07-.65.15l.57,0c.14,0,.2-.09.2-.13Zm-.58-.18h-.12v0h.12ZM65.39,37l-.37.06v0l.09.07h.21l.07-.09Zm.34.23-.53,0-.12.13.13.08h.12a.75.75,0,0,1,.4-.18Zm0-1.27-.49,0,0,0v0l.46.06Zm-.32,1.9H65.3v0l-.12.05v0l.09.08h0l.08-.09Zm.23-2.14h-.29v.08h.2Zm.11-1.32h-.09v0h.08Zm.68.66-.24,0-.21,0V35l0,0v0h-.12l0,0v.12l-.25.06v0a.25.25,0,0,1,.25.11l.24-.09h.25Zm-.47-.43h-.12v0l.13,0Zm1.16,1.22-.16,0-.78.12-.24,0,0,0v0L67,36Zm-1,1.9,0,0h0l-.09-.08,0,0h0Zm0-1H66v0l.12,0Zm0-.54H66v0h.17Zm-.08-.9-.07.13v0l.12,0,.21,0v0C66.31,35.33,66.23,35.29,66.09,35.29Zm.2,2.58v0l-.08.09h0v0l.08-.09Zm.7-1.75-.49,0-.28,0v0l.16,0,.29-.06.41,0Zm.71-1.64h-.12l-.25,0,0,0h0l-.49.11-.25,0h-.24v.08l1.35-.06.08-.09Zm-.54.85-.65,0v.08h0l.37,0C67.09,35.42,67.17,35.38,67.16,35.33Zm-.54-1.09v0h-.08v0Zm1.58.47-.12,0-1,.13h-.37l-.08.09.66,0,.24,0,.17,0,.49-.1Zm-.9.9h0l-.46,0-.12,0v.08l.61,0Zm-.43-1.38v0h-.12v0Zm.62,1.08h-.24v0l.2,0,0,0Zm-.1.54h-.12v0h.12Zm.5.19-.41.05H67.4v.08h.2l.29,0,0,0v0l0,0Zm-.07-.74h-.25c0,.06.05.08.13.08l.12,0Zm0,.53h-.12v0h.12Zm.07-1.36h0v.08H68Zm.34,1.3-.12,0-.08.12h.12Zm.09-.82h-.21l.09.08h0Zm.17.24h-.2v0l.08.07h.09Zm1,.44-.49,0-.7.11v0l.13,0,.2-.05.13,0,.73-.11Zm-.78.9h-.09v0h.08Zm.18-1.36-.12,0-.12,0v0l.12,0,.12,0Zm-.13-.24h-.08v0h.08Zm.06.49h-.08v.08h.08Zm0-.78h-.09v.08Zm0,1.85,0,0v0h.12Zm.07.73-.08.09v.08H69V37.3ZM69,37h-.12v0l.09.08,0,0Zm.25-2.68h-.08v.08h.09Zm0,.29h-.09v0h.08Zm.07.74h-.08v.08Zm0,.82h0v.08h0Zm.13.24h-.17v.08h.08Zm0,.57h-.08v.24h.12v0Zm.21-1.89h0l-.21,0v0l.13,0,.2,0Zm-.24-.65v.25l.29-.06H70C70,34.55,69.77,34.5,69.38,34.45Zm.35.35h0l-.29,0v.08h.09l0,0,0,0h0l.12,0Zm-.18.55h-.13l.09.08,0,0Zm0,.57h0V36h0Zm.67-.6-.45,0-.12,0,.12.12C70.05,35.42,70.2,35.37,70.2,35.32Zm-.15.25-.25,0-.12,0,0,0v.08l.49-.06Zm0-1.27-.2,0-.08.08v0H70Zm.25,1.79-.29,0v.08h.29Zm0-.49h-.09v0h.09Zm0-.54,0,0h-.08v.12h0Zm0-.28h0v.08h0Zm.11-.25h-.08v.08h.08Zm.7,0H71v0h.12Zm.85.7-.65,0-.08.09.65,0Zm-.29.83-.21,0,0,0v0h.24Zm.17-1.61-.36,0v.08l.37,0Zm.32-.34H72l-.2,0v.08h.13l.12-.09.16,0,0,0Zm-.3,1.65h-.12v.08h0Zm.51.23h-.17v0h.17Zm0-1.89h-.16l.09.07Zm.13,1.06h-.12l-.08.09h.21Zm0-.25h-.08v0h.08Zm.31,1.26h-.09v0h.09ZM73.55,34l-.49,0v0l-.13,0-.12,0v0l.21,0v0l0,0h0l.45-.06Zm.07.74-.4.05-.29,0v.08l.62-.07h.12l0,0Zm-.47,1.37,0,0H73l-.08.09,0,0h.08Zm.09-1.81h-.09v0h.08Zm.48,2.52-.29,0v.08h.21Zm0-1.06h0l-.08.09h.12Zm0,.29h-.12v.08h0Zm.3.23h-.33v.09l.24,0Zm.2-1.08H74l-.2.05v0l.33,0,0-.05Zm-.1.54H74v.05h.08Zm.19-1.32c-.08,0-.13,0-.13-.08l.08-.12,0,0h0l0,0h0l0,0v0l0,.21h.2Zm0,2.87h-.12v0h.12Z"/></g></g></g></svg>