<svg xmlns="http://www.w3.org/2000/svg" xmlns:xlink="http://www.w3.org/1999/xlink" viewBox="0 0 74.8 74.8"><defs><style>.cls-1{opacity:0;}.cls-2,.cls-7{fill:#fff;}.cls-3{fill:url(#radial-gradient);}.cls-4{fill:#844d9e;}.cls-5{fill:url(#radial-gradient-2);}.cls-6{fill:url(#linear-gradient);}.cls-7{fill-rule:evenodd;}</style><radialGradient id="radial-gradient" cx="37.4" cy="62.33" r="19.47" gradientTransform="translate(0 54) scale(1 0.13)" gradientUnits="userSpaceOnUse"><stop offset="0"/><stop offset="0.32" stop-color="#231f20" stop-opacity="0.6"/><stop offset="1" stop-opacity="0"/></radialGradient><radialGradient id="radial-gradient-2" cx="37.4" cy="37.4" r="24.93" gradientUnits="userSpaceOnUse"><stop offset="0.64" stop-opacity="0"/><stop offset="0.95" stop-color="#231f20" stop-opacity="0.29"/><stop offset="1" stop-opacity="0.5"/></radialGradient><linearGradient id="linear-gradient" x1="37.4" y1="39.33" x2="37.4" y2="13.47" gradientUnits="userSpaceOnUse"><stop offset="0" stop-color="#fff" stop-opacity="0"/><stop offset="1" stop-color="#fff" stop-opacity="0.7"/></linearGradient></defs><title>orb-gymnastics-wtext</title><g id="Layer_2" data-name="Layer 2"><g id="Layer_1-2" data-name="Layer 1"><g id="orb-gymnastics-wtext"><g class="cls-1"><circle class="cls-2" cx="37.4" cy="37.4" r="37.4"/></g><ellipse class="cls-3" cx="37.4" cy="62.33" rx="21.95" ry="3.59"/><circle class="cls-4" cx="37.4" cy="37.4" r="24.93"/><circle class="cls-5" cx="37.4" cy="37.4" r="24.93"/><ellipse class="cls-6" cx="37.4" cy="26.4" rx="18.29" ry="12.93"/><polygon class="cls-7" points="45.68 41.86 39.88 37.04 47.21 20.93 38.22 34.24 38.39 35.8 37.65 35.19 38.11 34.56 37.33 34.92 35.99 33.81 36.4 35.35 33.37 36.75 31.55 39.89 31.46 39.92 30.54 38.09 30.13 40.28 29.07 40.56 29.48 41.76 26.29 44.05 28.93 43.81 26.9 47.22 29.18 45.32 27.68 53.26 30.72 45.42 33.48 53.57 31.95 42.26 32.07 41.94 32.27 42.36 36.7 36.45 37.74 40.36 43.56 43.04 48.51 53.87 45.68 41.86"/><path class="cls-4" d="M7.63,15.21l0,0s.12,0,.24,0l0,0c-.11-.09-.15-.16-.12-.19l.14-.11,0-.12c.11,0,.18,0,.2,0l0,0-.08-.17c.64-.54,1.09-.71,1.33-.52.07.05.12.05.15,0l-.16-.13,0,0a.78.78,0,0,1,.77.07l.07,0c.16-.22.72,0,1.68.77v.06l0,0,.5.28.08.11,0,.06-.11.08-.09.18-.65.85-.14.05v.11l0,0-.14,0v.12l-.19.05v.06l0,0L11,16.79v-.06l-.19-.09-.23-.17,0-.2-.29-.17L10,15.92c-.41-.14-.66-.15-.76,0l-.1.13.18.45h.14v.06l.13.1h.06v.06l3.38,2.59-.07.1-.07-.05,0,0c.15.16.22.26.18.3H13l0,0v-.06l0,0h-.06l-.07.09.25.15.05-.07v-.06l0,0c.06.05.17,0,.32,0l.12,0,.14.16.35.21,0,.12h.2l0,0v.05l.59.25.07.11.25.08.68.52,0,0v-.06l0,0-.73-.46c-.22-.16-.27-.32-.15-.47s-.18-.45-.83-1l-.88-.67h-.11l-.08.1v.06l0,0H13l-.1-.07-1.07-.77v-.06l.22-.29h.06l0-.12.14-.05.09-.24,0,0v-.06l.67-.87L13.3,16l.06-.15h.15l2.9,2.22v.06h0l.17.13-.05.06h-.06l0,0,.3.22c.06-.08.12-.11.16-.08l.24.24.15.06.07.11.32.19v.06l-.1.13s-.09,0-.18,0h-.06l0,0a.21.21,0,0,1,0,.34l-.12.16h-.06v.06l-.25.33-.17,0-.2-.15a.51.51,0,0,1-.16-.33l-.05.06c-.12-.06-.2-.07-.24,0s.11.2,0,.35c.17.13.24.26.2.41.12.09.09.41-.11,1l-.25.33q-.12.16-.24.12V22l0,.07-.18,0-.36-.27-.43-.38-.15-.07v-.06l0,0L14,21,14,20.9l-.13,0-.07.1.1.13,0,.06L13.48,21l0,0,.14.15.22.12,0-.06v-.06c.08-.08.19-.06.33,0l0,0v.06l0,0,1.23.89v.06a1.58,1.58,0,0,1-.92.18l-.19-.15v.06l0,0h.06l.07.05c-.11.13-.51.05-1.21-.25L13.14,22l0-.06.07.05.07-.1-.06-.05h-.06l0,0,0,0-.12,0-.07.1.06.05,0,0-.22-.06-.36-.33-.25-.09L9.39,19.25a3.41,3.41,0,0,1-.75-.78l-.24-.08-.67-.62h.06l.07-.1-.26-.2a.83.83,0,0,1-.21-.73.25.25,0,0,1-.06-.26h.06l.22.18,0,0,0-.12-.32-.25.07-.1.3.23.11,0,0,0-.2-.15L7.36,16l.07-.36.11,0,.33.25H8v-.06l0,0-.42-.27-.09-.07ZM7.5,16.93l0,0h.11l-.16-.13Zm.16.33.2.15,0-.07-.2-.15Zm0-1.21.26.2,0-.06L7.76,16Zm0,1,.32.25.05-.07L8,17.13,7.78,17Zm.16-.55.1.08.11,0-.23-.17Zm.39-1.66.1.07,0,0-.1-.07Zm.14.57H8.39l-.05.06.24.29.14,0,0,0-.08-.17-.17-.12c.05-.07.06-.11,0-.15l-.06,0,0,0Zm0-.44.13.09,0-.11Zm0,2.6.12,0,0,0-.14-.1v.05Zm.11.65.17.13.11,0,.14.16.19.15,0-.07-.22-.17v-.06l-.12,0-.08-.11,0,0,.1.08,0,0c.17.05.27.05.3,0l-.08-.17A.52.52,0,0,1,8.85,18l-.08.1.07.05-.05.06c-.07,0-.12,0-.15,0Zm.16-1.48,0,0h.12v-.06l-.13-.1,0,0Zm0-.29v.05l.06.05H9l0,0-.1-.07Zm0-1.59.65.5,0-.06-.65-.5Zm0,2.92L9,18l.08-.1L9,17.76H8.87ZM9,17.55l.55.42.05-.06-.48-.38Zm.18.5.1.08.08-.1,0,0L9.2,18Zm.06-.68.17.18.77.49,0,0-.29-.23-.29-.17-.23-.23-.1-.07Zm.06,1.34.06.05.12,0-.13-.1Zm0-1.88.2.15.05-.06-.2-.15Zm0,1.63.1.08,0,0,0-.12,0,0Zm.06-.27,0,0,.11,0-.09-.07Zm0,1,.09.08,0-.07-.09-.07ZM9.75,14l.1.07,0-.12-.07,0Zm0,1.2.39.29,0-.06-.39-.3Zm.09,3.32.06.05.19.09,0,0-.3-.23Zm.32-3.32.07.05,0-.12Zm0,3.77.1.08,0,0-.1-.08Zm0,.73.07.05h.11v-.06l0,0h-.11Zm.06-4.86.13.1.05-.07-.13-.1Zm.16,3.43.19.09.05-.06-.26-.2,0,0S10.34,18.22,10.4,18.27Zm0-.43.26.19,0-.06-.19-.15Zm.28,1.86.1.08.07-.1,0,0-.12,0Zm.26-3.37.19.15h.12l-.26-.2Zm0,.35,0,0,.08-.1-.1-.07,0,0Zm.11-.54.16.12h.11v-.06l-.13-.1h-.12Zm.06-1.3.26.2,0-.07-.26-.19Zm.21,4,.07.05.3.28.22.12.07-.1-.06-.05h-.06l-.07-.11-.42-.27Zm0-.35v0l.25.15.05-.07-.15-.07-.08-.1h-.05Zm.3.95-.1.13c-.06-.05-.11-.05-.14,0l0,.2-.11.07.17.13.09-.19,0,0,.16.07,0,0s0-.1-.08-.17c.1-.13,0-.27-.14-.42l0,0S11.56,19.41,11.64,19.48Zm-.27-4.76.06,0,0,0-.07-.05Zm.39,5.89,0,0,.19-.05-.19-.15-.05.06Zm.17-.29.16.13.12,0L12,20.26ZM12,19l.07.11h.06l.05-.06L12.08,19Zm.15-.19.11.13c.14.08.23.09.27,0l-.33-.25Zm.09,2,.09.08v-.12l0,0Zm.09-1.53.19.15,0-.07-.19-.15Zm0,1,.1.08.07-.1,0,0h-.11Zm.19-.11.07.05.07-.1-.06,0Zm.18,0v.06l.12,0,0-.06-.06-.05Zm0,1.35v.06l0,0h.12l0,0-.06-.05Zm0-3.25.07,0,0,0,.25.09,0,0-.13-.16-.1-.08Zm0,1.63.2.15q.21.13.27.06l-.33-.31-.13,0,0,0Zm.06-2.23v.06l0,0,.12,0v-.12l0,0Zm.08,3.68,0,0,.18.1,0-.07-.19-.15Zm.26-.21.2.15,0-.07-.19-.15Zm.14.42.15.21.6.36.1.08.11-.07-.78-.6Zm.13-.16.06.05.28.11V21.4l-.34-.16,0,0Zm.17-3.13,0,0,.05-.07-.1-.07Zm.16,2.29v.06l.19.09.07.11.13,0,.05-.06L14,20.63l0,0Q13.81,20.48,13.72,20.55Zm0,1,.21.21.22.12.35.27.05-.07h-.05l0,0-.05-.2-.1-.08h-.06l0,0v-.06l0,0h.06l0,0v0l0,0,.12,0,.05-.06-.06-.05,0,0h0l0,0-.13-.16h-.06l0,0v-.06l-.1-.07,0,0v.15l0,0-.17,0,0,0-.12,0Zm0-1.26.1.07,0-.11h-.05ZM14,21.43l0,0,.05-.06,0,0Zm.38-2.66.06.05,0,0-.07-.05Zm.05,1.95,1.27,1,0-.12-.06,0-.12-.05-.14-.15-.52-.4-.35-.16v-.12l0,0Zm0-1.52.07.05.05-.07-.07-.05Zm.09,2.65.1.07,0-.06-.1-.08Zm.05-.74.13.1,0,0-.13-.1Zm.08-1.79v.05l.07.05.07-.09,0,0Zm.06,1.28.06,0,0,0-.07-.05Zm.06-1.5.17.12,0,0-.16-.13Zm.06-.89.13.1.08-.1L15,18.16l-.12,0Zm.25.55,0,0,.12,0,0,0-.1-.07ZM15.15,21l.26.2.05-.07-.17-.18-.16-.07Zm.45.35.36.27,0,0,0-.12-.13-.1-.19-.09Zm0-2.93.16.12.05-.06-.1-.08Zm.07,1.66v.05l0,0,.38.24v-.11L16,20.22,15.81,20Zm.09-.19.26.2L16.1,20l-.19-.15Zm.09.69.07.05,0,0-.06,0Zm0-.94.1.07,0,0-.1-.08ZM16,18.38l.19.09.07.11L17,19l.08.11.25.14,0,0-.5-.43-.48-.32-.14-.16-.12,0Zm.07.31.07,0,0,0-.06-.05Zm0,2.66.1.07,0,0-.1-.07Z"/><path class="cls-4" d="M11.29,10.9l0,0c.32-.27.49-.38.52-.34l.2-.28.77-.67c1.56,1.31,2.47,2.12,2.73,2.42h.06l0,0,0,0q-.13-.21-.09-.24H15.5l0,0a14.72,14.72,0,0,1-1.72-3l1.46-1.25,0,0c.86,1.63,1.4,2.72,1.61,3.26-.08.07-.11.13-.07.17l.23.08,1.32,2.48.83,1,.21.3.3.29.72.84c.23.27.31.43.25.48l-1.4,1.2h-.17l-.43-.5-.18-.27-.33-.32-.93-1.09a.45.45,0,0,1-.1-.29L15,13.63l-.05-.12-.53-.31L14.24,13l-.13-.16a.21.21,0,0,0-.31-.05l-1-.68V12l0,0A9.67,9.67,0,0,1,11.29,10.9Zm1.23.3.05.06,0,0,0-.06ZM12.7,11l.06.06.06,0L12.77,11Zm1.43,1.47.24.28h.12v-.05l-.13-.16H14.3l0,0,0,0-.11-.07Zm.48-.08-.12.05v.06l.22.19.22-.18v-.12l-.06-.06-.16-.13,0,0Zm.31-.26.05.12.11.06.09-.08,0,0L15,12.11Zm.13,1.29,0,0,.06-.06,0,0ZM15.16,12V12l0,0h.11V12l0,0Zm.08,1.35.12.27.12-.05,0,0v.06l.12.06,0,0-.27-.31h-.06l0,0v-.06Zm.38-1.63.06.06.06-.05-.05-.06Zm.14.1.05.06,0,0-.06-.06Zm.1,1.37.21.25.07-.05-.22-.25Zm.27-1.69.06.06.06-.06-.05-.06Zm.07,2.91.11.12,0,0v-.12h-.11Zm0-2,.27.31.06-.06-.1-.18-.08-.09h-.12Zm.08-1,.11.07.06-.05,0-.12h-.06l0,0v.06Zm.05,2.39.1.13.07-.06-.11-.12Zm.27-.94.16.19.06-.05-.16-.19Zm.22-.94.08.09,0,0-.08-.1Zm1.82,4.71.11.12,0,0v0l0,0-.11-.07Zm.19-.17.08.1h.12l.06-.06-.08-.09h-.12Zm.24-.15,0,0h.12l0,0-.08-.09Z"/><path class="cls-4" d="M17.71,5.92l.55-.27.16,0,.24.48.08,0-.24-.48.05-.16,1.65-.84q.32.34,2.58,3.84l.08,0,0,0A28.37,28.37,0,0,1,21.72,5.5l0,0a6.71,6.71,0,0,1-.45-1.34l.07,0L21.68,4l.49-.3,1.5-.76.17.06.28.55.09.27.26.42,2,4c.06.12.06.2,0,.24l.06.11c.07,0,.14,0,.2.13l1.67,3.29-.06.17-1.53.78-.17-.06-.83-1.65c-.18-.36-.25-.56-.21-.58l-.22-.26L23.77,7.18h0l0,.12,0,.07q.43.84,2.23,5.86v0l-1.1.56c-.09,0-.37-.34-.85-1.14L21.32,8.78l0,0L24,14.15l-.06.16-.47.24-.17-.05-.22-.44L23,13.73l0,0a.75.75,0,0,1-.33-.38l-.13-.26-.12,0,.12.22.26.6,0,0,0,0,0,.06.41.62-.07.13-.08,0c-.12.06-.22,0-.29-.13l-.07,0v0l.1.1-.08.12-.22.11q-.21.12-.36-.18l-.84-1.64L21.27,13l-.43-.66-.07-.24-.17-.23-.11-.32,0,0,0-.13L20.17,11l0-.23-.05-.11L20,10.55l-.19-.36c-.1-.32-.13-.49-.07-.52l0,0,.06,0,0,0-.05-.11-.11.06,0,.06h-.13l-.37-.73-.29-.49V8.21l-.42-.84-.21-.31,0-.17-.43-.66-.05-.1Zm.85.49.61,1.21.11,0,0-.17-.17-.23-.4-.81Zm.15.94,0,0,.11.12,0,.15q.13.12.18.09l.08,0,0,0-.22-.26-.06-.11Zm1.05,1.17,0,.05,0,0,.15.2,0-.11-.07-.15Zm.17.33.27.55a1,1,0,0,0,.28.36l0,.17.46.82.11.13,0,0,0-.13-.06,0-.24-.57,0-.07V10l-.53-.7L20,8.88Zm.22,1.44.08.15.07,0,0-.07Zm.46.74,0,.11.05.11.08,0,0,0,.09.27.09.09.06-.16-.06-.11c-.07,0-.16-.13-.26-.33Zm.26-1.14,0,.07,0,0,0-.07Zm0,1.19,0,0,.13.16,0-.11L21,11Zm.08.6,0,0,.22.35,0,0-.1-.27Zm.16-.77,0,.08.13.16,0,0-.09-.27Zm.13,1.27,0,.07,0,0,.16.24.09.18-.05.17-.13,0,0,.07.11-.06.05.11a.82.82,0,0,0,.45.33l-.37-.73Q21.36,12.12,21.24,12.18Zm.31-.94,0,.07.11,0-.08-.15Zm.32.35,0,.07,0,0,0-.07Zm.19-2.35,0,.07,0,0,0-.07Zm.18,3.08s0,.1-.11.15l0,0,0,0,.27-.09,0-.06,0,0Zm0,1.21.05.11.11-.05-.09-.1Zm.2,0,0,0,.13.17.07,0-.07-.15ZM22.8,7l.11.22.07,0,0,0L22.83,7Zm3,3.56,0,.07.07,0,0-.08Z"/><path class="cls-4" d="M27.16,2.11,27.52,2l.05,0,0,0,.4-.09c.06,0,.1,0,.12.14s.07-.07,0-.18h.21l0,0h.17l.23-.09v0l.08.15.05.24c.13,0,.28.19.44.66L31,6l.11-.07L31,5.8l0-.13-.15-.47-.22-1,0,0-.05,0-.13-.6-.13-.77-.08-.15c.06,0,.07-.15,0-.39l-.09-.06-.08-.32.05-.39.12,0,0,0,0-.05h.24l0,0h0l.05,0h0l.35-.12.25,0,.15-.07h.13l.11-.07.11.15v.2l0,.08,0,0,0,.05.22,1s-.08,0-.1-.11l-.08,0,.07.32c.11,0,.17,0,.18,0l.06.28,0,0,0,0,.07.32-.06.1-.05,0,0,.16c.11,0,.17,0,.19.09v.25l0,0,0,.35,0,.08a.11.11,0,0,1,.15.09c0,.19,0,.29,0,.3l.11.1,0,0L33,6.4l0,.37.13.39.43,2,.08.15v.17l0,.12.05,0,0,.05v0l.31,1.24,0,.08-.06.09-.05,0-.22.14,0,0,0,.05h-.17l-.43.14-.33,0-.32.11h0a.22.22,0,0,1-.29-.19v-.17L32,11.05v0l.12,0L32,10.7l-.08,0c0,.11,0,.17-.05.18l-.31-.65,0-.29Q31.34,10,31,9a8.85,8.85,0,0,1-.8-1.5l-.05,0v0l-.08,0,.18.59.05.41h0l0,0,0,.16.05,0,0,0,.14.47.42,1.88,0,.37.1.23-.11.11H30.7l-.51.16H30l-.23.09-.36.08-.15-.09,0-.13-.13-.39-.32-1.44V9.86l-.09-.19,0-.2,0-.05-.05,0,0-.12,0,0-.17-.42h0l-.05,0,0-.12c0-.06,0-.1.14-.12v0H28.4l-.06-.66-.05,0V7.71h0l-.18-.59-.52-2.37,0,0,0,0-.06-.28,0,0-.05,0L27.46,4V3.89l-.08-.19-.11-.48,0-.26-.13-.18.07-.1v0c0-.13-.07-.19-.13-.18C27.09,2.24,27.11,2.13,27.16,2.11Zm.33,1.69v0l.1.07,0-.05,0-.08Zm0-1.09,0,.16h0l0-.16ZM27.59,4l0,.08h0l0-.08Zm0-1.78,0,.21.1.27h0V2.56C27.74,2.35,27.68,2.25,27.62,2.26Zm.1,2.38,0,.05v0l.05,0h0l0,0v0l0,0Zm0-.77,0,.08h0l0-.08Zm.11-.65,0,.16.1.06L28,3.2ZM28,2.6v.21l.07.11h.08l-.07-.32Zm0,3.23.06.28.08,0-.08-.15,0-.13Zm0-1.1,0,.08h0l0-.08Zm.05-1.65.09.4.1.07L28.15,3Zm.17-.58,0,.16h0l0-.16Zm0,2.31V5l.05,0,.08,0-.06-.24Zm.08-1.74.05.24.1.06-.07-.32Zm0,1V4.2l.12,0v0L28.38,4Zm0-2,.05.24.08,0,0-.16Zm.06,4.27,0,0v0l.1.06,0-.05v0Zm0-1.64v0l.09.06,0,0v0l-.05,0Zm0-2.23,0,.12.1.06,0-.05V2.47l-.1-.06Zm.1,5.18,0,.12.07-.09-.05,0Zm0-3.58,0,.05v0l.1.06,0,0v0Zm0,1.89,0,.08h0l0-.08Zm0,1.93,0,.08h.08Zm0-5.8v.08l.1.07,0-.08ZM29,3.36l0,.08h0l0-.08Zm0,5,0,.12.1.06,0,0,0-.17Zm0-.84.05.24.07-.1,0-.16Zm.09,3.25,0,.12h.08l0-.13Zm0-6.76,0,.08.1.06,0,0,0-.12Zm.1,3.29,0,.08h0l0-.08Zm.18-.33.09.4c0,.08-.05.14-.21.17l0,.08a.42.42,0,0,1,.34,0h0l-.05,0,0-.13L29.47,7l0-.12Zm-.12,1.54,0,.16.08,0,0-.16Zm0-3.87.05.24.08,0-.07-.32Zm.06-.65.1.07h0V3.87l0,0h0Zm0,5,.05,0h0l0-.12ZM29.4,9v.17l.12,0v0L29.44,9Zm0-3.74.08.19h0l0-.2Zm.07,3,0,.12.08,0,0-.12Zm0,1.25,0,.08h0l0-.08ZM29.63,8l0,.12.08,0V8Zm0-1.89,0,.08.08,0,0-.08Zm.16,5.43,0,.08h0l0-.08Zm.09-2.63,0,.16L30,9l0-.16Zm0-2.69v0l.1.06,0,0,0-.08Zm0-1.31,0,.08h0l0-.08Zm.34.39,0,.08.1.06h0l0-.16Zm0,6.09,0,.08.08,0,0-.08Zm.09-4.72V6.7h0V6.61Zm.12,4.55,0,.08h0l0-.08Zm.05-4.72.1.06,0-.16Zm.08-4.93,0,0h0l0-.05,0-.08h0Zm.21,4.91,0,.08h0l0-.08Zm0-4v.08l.08,0V2.37Zm0,4.32.12.56.08,0,0-.2-.1-.27,0,0-.05,0Zm0,1.93,0,.08.08,0,0-.08Zm.05-5.85v.08l.08,0V2.77Zm0,1V4l0,0,.18-.13,0,0v.25h.08V4.05l0,0,0,0s-.09-.05-.12-.19h0l0,.08h0l-.14,0Zm.06.28v0l.08,0v0Zm0,3.31,0,.08.08.19h.08V7.6l-.09-.19Zm0-3.11,0,.12.08,0,0-.12Zm.05.2,0,.2.1.23,0,.13.08,0,0-.33-.09-.23Zm.1,2.33,0,.16.12,0,0-.12Zm.12,2.66,0,.12.1.06,0,0,0-.08-.1-.06Zm0-5.09,0,.2h.08l0-.2Zm0,3.15v.08l.1.06.06-.1-.13-.05Zm.07-.81,0,.12.08,0,0-.12Zm.13,2.49,0,.16h0l0-.16Zm.1.44.05.24.08,0v0l-.08-.19Zm.06-2,0,.16.06-.1,0-.08Zm0-3.91v.08l.08,0V3.77Zm.06,5.4,0,.12h.08v0Zm0-3,0,.12.08,0,0-.12Zm0,1.72v.21l.08,0,0-.2Zm0-2.61,0,.12h.08l0-.12Zm0-1.13.05,0h0l0-.12Zm0-1.06.06.28H32l-.06-.28Zm0,4.32,0,.12h0l0-.12Zm0,1,.09.4.08,0L32,8.44ZM32,3.61v0l.08.2.08,0,0-.24Zm0-1.3,0,.08h0l0-.08ZM32,9l.05.2.1.27h0L32.09,9Zm.09-4.93v.08l.08,0V4.07Zm0-1.48h0l0,.08h0Zm0,8,.07.11.12,0,0-.08-.1-.06,0,.05Zm.06-7.33,0,.2.1.06-.05-.2Zm.07,7.51v.08l.12,0v0Zm0-3,.1.48.1.07,0-.05h0a1.15,1.15,0,0,1-.23-.5Zm.2.71,0,.12h.08l0-.12Zm.09.44,0,.29a2.13,2.13,0,0,1,.24.71h0V9.68l-.1-.44L32.63,9l0-.05,0,0Zm.25,0,0,.2.08,0,0-.12Zm0,1.09.08.36.08,0L32.89,10Zm0-1.9,0,.08.08,0,0-.08ZM33,10.73l.09.4.08,0v-.17l-.1-.23Zm.13-1.5,0,.08,0,0,0,.13.07.11.08,0V9.35c-.06-.09-.12-.14-.16-.13Zm.15-.45v.13c.07.29.14.43.22.41l-.11-.48Zm.08,1.28,0,.08h0l0-.08Zm.12-.57,0,.12h0l0-.12Z"/><path class="cls-4" d="M36.1.13l.28,0h2.34l.37,0v0c.14,0,.23.52.26,1.56l.33,2.67,0,.29c.11.47.33,2.39.69,5.75l-.12.08-2.06,0c-.06,0-.1-.05-.12-.16L38,9.19l0-.13c0-.27,0-.41-.11-.41h-.7l0,.2c0,1-.1,1.55-.24,1.64h0l-.32-.09-.13,0-.24,0h-.25l-.33.08h-.78l-.12-.09.42-3h0L36,.17h.08Zm0,8.86v.12h.37V9.2l0,0v0l0,.05h0c0-.14,0-.21.13-.21L36.53,9V9l0,0Zm0-.29v.13h.25V8.71Zm.38-5.32,0,.28.08.13,0,.2,0,.17-.13.53c.06,0,.08,0,.08.12l0,.21h.08v.12c-.14,0-.21.09-.21.29l-.17,0v.33l.12,0V5.51l0,0h0V5.3h.21V5.06l0,0,0,0V4.81l.09-.24-.07-.49V4c.11,0,.17-.13.17-.4A.22.22,0,0,0,36.5,3.38Zm-.32,4.55V8h.21V7.93Zm0-.25V7.8h.2V7.72Zm0-.53v.12l.12,0v0Zm.31-1.72,0,.2v0l.08.09h0v0l0-.29Zm0,4.63v.09l.08.08v-.08Zm0-.2V10l.12,0v0Zm0-.49v.2h.16V9.45Zm0-1.27v.12h0V8.1Zm0-.33V8h0l.09-.2V7.69h0Zm0-.29,0,.12h0V7.48Zm.18-5.86v.57a.89.89,0,0,1-.09.45l0,.29h0a.3.3,0,0,1,.13-.24V1.58Zm0,6.11v.08h.08V7.73Zm.86-4.83c-.22,2.09-.38,3.29-.47,3.61l.08.28.7,0-.23-3.9Z"/><path class="cls-4" d="M45.07.77c.33.07.54.18.59.33l.14-.05c.43.09.82.48,1.18,1.17L47,2.7v.08l-.05,0v0c.1,0,.05.57-.14,1.65l-.14,0-.48-.1,0,0,0,0-1-.21,0,0-.05,0h0c-.16-.06-.23-.12-.22-.17l0-.12.08,0-.06-.14L45,3.44v0q0-.84-.15-.87l-.08,0c-.27-.06-.45.13-.54.55l-.08.37A1.65,1.65,0,0,0,44.88,5q1.51,1.71,1.29,2.79a3,3,0,0,1-.09,1h0l0,0L46,9.14l0,0,0,0,0,.08c0,.06-.07.07-.17,0l0,0,0,.08a.23.23,0,0,1,.18.13,2.11,2.11,0,0,1-.37.76l0,0v0c-.19.3-.35.46-.48.49l0-.12-.08,0V11a2.41,2.41,0,0,1-1.92.35v-.17a.49.49,0,0,0-.39.08l-.13-.19-.13,0H42.4L42.34,11l-.05,0h0c-.28-.12-.41-.23-.39-.34l-.2,0a.75.75,0,0,1-.24-.85l0-.08-.13,0-.05.24h0A1.88,1.88,0,0,1,41,8.79l.1-.06v0a.63.63,0,0,1-.06-.31l.12-.56.06-.45.06-.11V7.05l.17,0,.72.2.13,0,0,.05.41,0,.52.11.09.14c-.08.32-.14.48-.18.47L42.9,8l0-.05.05,0,0-.08-.07-.1h0l0,.12,0,0-.05,0V8l0,.13-.11.32v.2l.09,0,0,0h0a1.31,1.31,0,0,1,0,.59c.07,0,.16.13.27.34l.23.1.3-.06c.14-.37.23-.54.28-.53l0,.05-.09.19v.17l.14-.1,0-.12,0-.05L44.14,9,43.91,9a1.87,1.87,0,0,0-.35-1.88A7.26,7.26,0,0,1,42,4.78l0-1.27.08-.19,0-.13.07-.11,0-.29c.3-1.13.77-1.77,1.42-1.92l0,.05c0-.11.09-.15.15-.14s.07.06.06.14l.08,0c0-.11.06-.16.11-.15h0L44,1.33l.1-.06.07-.36.09-.19.19.08.1-.06h0l0,.05.18,0c0,.11,0,.17.08.18h0C44.94.81,45,.75,45.07.77ZM41.33,8.65v.08h0V8.66Zm.2.09L41.46,9l.13,0,.08-.19,0-.13Zm-.05,1.58,0,0,.08,0,.1-.07-.06-.1Zm.16-3.11,0,.08h0l0-.08Zm.21,1.59-.06.28.08,0,.06-.28Zm-.05,1.38v.21h.08a.21.21,0,0,1,.29-.18l0-.08-.06-.1C41.92,10.08,41.82,10.12,41.8,10.18Zm.09-2.75,0,.16h0l0-.16ZM42,10.72s.06.1.22.17v0l0,.05.08,0,.1-.07v-.08H42.1V10.7Zm.07-.32v0l.08,0v0Zm.21-2.18-.16.39v0l.12,0,.09-.44Zm.09-.61v.21l-.05,0h0V8l.08,0,0-.08h0V7.79l.06-.11h.08l0,.5-.11.31,0,.05h0l.05,0,.2-.92-.16,0,0,.08h-.08l0-.08h0Zm0,1.51,0,.12h0l.06-.11Zm.34,1.37-.16.38,0,.05.08,0,.09-.45Zm-.15-7v.08l.12,0V3.52Zm.41,4.58.12,0v0l-.09.2-.08,0,0-.18Zm.21,2.6-.05.41h0l.12-.35,0-.05Zm.08-6.52,0,.16.12,0,0-.16Zm.17,6.49v.08h0v-.08Zm.06-9.34v0l.07.1,0-.2Zm0,2.94v0l.12,0,0-.12h0Zm.19,2.22,0,.2h0l0-.2Zm.13-5.3,0,.12.08,0,0-.12Zm.18.33,0,.08.06.1,0-.08Zm.31,7.79,0,0,0,.12h.08l0,0h0l0,.05v0l0,.05.12,0,0-.12-.12,0Zm.18-7.72,0,.12.12,0,0-.12Zm.25,7.85c0,.3,0,.45,0,.47l.08-.37-.07-.09Zm.11-8.2-.1.48s.09,0,.11-.1l0-.37Zm.31,2.71,0,.08h0l0-.08Zm0,6,0,.08,0,.29.15-.09,0-.26ZM45.29,3l-.08.19-.05.24.15-.09,0-.12V3.05Zm0-.33,0,.16.1-.06,0-.17Zm.32-1.49-.13.23v.38l-.11.52v.21h0c.08,0,.13,0,.15-.13a.8.8,0,0,1,0-.43c.06-.23.13-.35.19-.33l.07.09,0-.12-.16,0,.06-.28-.06-.1Zm.06.69,0,.05h0l0-.12Zm.49.06-.06.28h0l.1-.06,0-.2Zm.34-.18,0,.29v.08h0l.1-.07,0-.24-.07-.09,0,0Z"/><path class="cls-4" d="M52,3.52l0,0-.09.1-.1.44.11,0L52.09,4l.07-.37.05,0,.15.06.14.1.28.08,1.47.64,0,.2-.65,1.51-.12.17a4.73,4.73,0,0,1-.87-.47l-.17,0,0-.06c-.11.05-.26.29-.44.7l0,0a.11.11,0,0,1-.16.07l-.05.11.08,0,0,.08-.06.24-.28.23-.07,0c.06-.21.06-.33,0-.35h0l0,.07,0,0,0,.06-.15.34-.11,0c0-.08,0-.12,0-.15s-.13,0-.2.14h0l0-.3.09-.19-.08,0s-.12.05-.23.21a.11.11,0,0,0-.16.07l0,0-.11-.36L50.12,7h0l0-.13,0,0,.05-.12,0-.14.13-.3-.11,0-.11.26-.19-.08-.08.19.15.15v0a.25.25,0,0,0-.26.07l-.24.57c-.05.15-.05.24,0,.27s.12-.17.16-.16l0-.2.07-.15,0,0,0,.1-.08.19.07,0L50,7.23l0,0s.06.11.05.29h0l.18-.32.12,0-.06,0v0l0,.11h0l.07-.28.15.07-.05,0,0,0s0,.15,0,.38l-.05,0,0,0-.22.62-.09.19,0,0,.11-.05,0,0,.12-.4.14-.21.07,0-.07.28,0,.11.07,0,.08-.19.17-.06v.22l0,0,.19-.23.07,0c0,.19,0,.3,0,.31l-.21.27-.18.63,0,0-.16.46L50.05,11l-.19.33-.12.39L49,13.31l-.16.06L47,12.57,47,12.45l.06,0,.15-.47,1.45-3.35.22-.4,0-.2.06,0,0,0V7.82a1.44,1.44,0,0,0,.44-.61,1.59,1.59,0,0,1,.08-.6l.08-.09L50.25,5l.08,0v.13l-.06,0v.35l-.09.1.08,0,0-.11.12-.17.08,0-.06.24.07,0,.12-.17,0,0s0-.1-.19-.17l0-.08h0l.12-.08,0-.33.07,0,0,0,0,.06.08,0,.16,0,.18.21.35-.07.13.1,0-.12,0-.1-.15,0-.12-.14-.05,0h0l-.1-.09-.1,0h0l0-.17.05,0-.07,0L51,4.34c.06-.24.06-.38,0-.4l.14-.12c-.15-.07-.15-.27,0-.63l.08,0,0,.11-.08.18.07,0,.14-.21.07,0,0,.26.11,0,.07-.15h0s0,.16-.09.41l.11,0,.07-.28c.05,0,.1,0,.14-.12l.06,0Zm-3.56,6.55,0,.07.08,0,0-.08Zm.59-1.45-.13.3L49,9l.13-.3ZM49.24,4l.11,0a.18.18,0,0,0,.11.27l0,.21,0,.07-.28-.07,0-.15Zm.15-.34.07,0,0,.07,0,0-.12.17-.08,0Zm0,4.12,0,.11,0,0,0-.11Zm.08-4.3h0l0,.11,0,.08-.12-.05Zm.58-.73,0,.1L50,3.15l0,0,.16-.07.12.15c.1-.26.18-.37.23-.35s0,.15,0,.39l0,0c.1-.23.17-.33.22-.31l.07,0,0,.21.11,0L51,3.1l.11,0L51,3.3c-.07.32-.07.5,0,.53-.14.13-.24.19-.31.18l0-.11.08-.18-.07,0-.13.3a.32.32,0,0,1-.21.18q-.14-.11-.09-.21l.09-.1,0-.06h0l-.2.36L50,4l.06,0V3.83l-.08,0V4l-.14.21,0,.11.17,0,0,0-.13.21,0,.17-.07,0V4.47l.1-.14-.11,0-.16.38-.11,0,.22-.53-.11,0,0,.12-.07,0,0-.3.08-.1,0,0c.05,0,.05.09,0,.22l.12,0L50,3.78l-.11-.18-.11-.05c0,.08-.07.1-.12.08l0,0,0,0,.17-.11s-.06-.14,0-.36L49.85,3h0C49.92,2.77,50,2.68,50.05,2.71Zm-.41,5.81-.07.15.08,0,0-.08Zm0,2.07-.1.22.06.17.09-.1C49.76,10.72,49.75,10.62,49.68,10.59Zm.41-2.5-.16.37.07,0,.09-.19,0-.21ZM50,9l0,.11.07,0,0-.11Zm0-2.94L50,6.2l.11,0,0,0,0-.11Zm.14-1.46,0,.14v0l-.11,0-.07,0,0-.16Zm.1-1.79,0,0L50.23,3l0,0Zm.26,1.68,0,.1v0l-.06,0,0,.06,0,.11L50.35,5h0l-.07-.17.18-.19V4.52l0,0Zm.1,4.42-.06,0V9l0,.11h0l0-.07Zm0-1.8.11.05v0l-.12-.05Zm.12.45,0,0,0,.11-.12.17-.08,0,.06,0,0-.06Zm.11.77-.08.09,0,.06,0,0,.05,0V8.37Zm0-2.89-.09.1V5.7h0c0-.1.09-.14.14-.11l.08.12v0S51,5.57,50.87,5.47Zm.05,2.26h0l0,.08,0,0Zm0-2.46V5.4h0L51,5.3Zm.45,2.25,0,0,.07.16-.31.4-.08,0c.05-.1,0-.16,0-.18C51.22,7.62,51.31,7.5,51.36,7.52Zm-.07-2.09,0,.11.07,0v0l-.13.08a.62.62,0,0,1-.07.37l0,0,.15-.25.13-.39Zm0,1.1-.09.19.11,0,0,0Zm.08-.18-.07.15h0l.06-.15Zm.13-.62,0,.12.06.16.11,0,0-.11Zm.21.23.12,0,0-.08h0Zm.54-.62,0,.11,0,0,0-.11Zm.27.21,0,.07,0,0,0-.08Z"/><path class="cls-4" d="M56.31,5.2l.49.31.11.12.16,0v.15l-.24.38-.17,0L56.62,6l0,.07,0,0-.18.37L56,7l0,0,.17,0,.17-.28V6.52l.1-.17.12,0-.07.35-.37.59.08.1.19-.22,0-.13.2-.17,0,0-.06.25,0,0-.07,0-.08.14.08.1.21-.26,0-.06,0,0L57,6.74l.29-.54.2-.17.1.16c.06-.09.11-.12.16-.09l.27.17,0,.07,0,0H58l-.13.21-.34.71-.19.22L57,8.05l-1.85,3-.24.23,0,0c-.07.12-.08.19,0,.22h-.06l-.12.27,0,.06-.56.82-.13.3-.15.15-.09.23-.12.12-.32.58-.56.9-.17,0-.14-.09c-.23-.14-.33-.24-.31-.28l-.25-.06-.25-.21h-.06l0,0,0-.06L51,14.05l-.21-.13s0-.15.07-.35l.13-.11.42-.76.26-.41,0,0,.06.13h.06l0,0,.12-.26h-.06l-.1-.06,0,0c.26-.42.46-.63.59-.64l.05-.07a.5.5,0,0,1,0-.31l.09-.14.23-.29.18-.37,0-.07.21-.26.2-.4.7-1.11.31-.58.06,0,0,0,.27-.51.26-.42.29-.39V6.37h.06l0,0q-.06.11,0,.15l0,0,.16-.19.06-.16.1-.08,0-.06-.07,0-.2.25,0,0,0-.12L55.68,6l.14-.3.31-.33,0-.13Zm-5.16,8.19-.07.11,0,0,.06-.1Zm.24.16-.19.31s.14,0,.28-.21l0-.06Zm.35-.56-.06.1,0,0,.07-.11ZM52,13l-.2.32s0,.14.22.28v.05l-.15.25.07,0,0-.13.14-.15.09-.14,0-.11-.07-.05,0,.07s0-.15,0-.38Zm.42-1.14-.14.16-.18.28c-.1.17-.13.28-.07.34l.46-.73Zm-.09.62-.2.32.11,0,.11-.17Zm.24,1.17,0,.07.11.06.08-.14,0,0Zm.63-3.19-.07.11.07,0,.07-.1Zm.42,2-.1.08v.06l.07,0,.05-.07Zm.1-1.24-.11.17.07,0,.11-.17Zm.31,0v.06l0,0,.06-.1Zm.26,0-.07.11.12,0,0,0Zm.49-1.33-.3.49,0,.11.15-.1a.77.77,0,0,1,.17-.42V9.87Zm-.17,1.44,0,.07,0,0,.05-.07Zm.24-1-.06.1,0,0,.07-.11ZM55.2,9c-.19.33-.26.51-.21.55L55.32,9Zm-.15-1.79,0,.07,0,.12.09-.14Zm.4,1.85-.07.1v.15l-.31.49,0,.11.43-.7,0-.11Zm0-2.05-.26.42.1.06.19-.22.07-.2Zm.1.3,0,0,0,0,.12,0,0,0,0,0ZM56,8.79,55.82,9l-.19.31c.09.06.21,0,.37-.29l0-.22Zm-.17-1.9-.13.21.07,0,0,0,.07-.2Zm.19.7L56,7.7l0,.11.11-.17ZM56,6,56,6.06l0,.11.12-.12V6Zm.3-.48-.06.1.06,0,0-.12Zm.16.29,0,0,0,.13-.17.18.07.05.22-.35Zm0,1.6-.06.11,0,0,.07-.11Zm.33-1.68-.2.31,0,0,.19-.31ZM57,7.11l-.07.1,0,0,.06-.1Zm.29-.54,0,.11.08-.14Zm.25-.33-.14.15v.06l0,0,.13-.21Z"/><path class="cls-4" d="M62,9.18l0,.14-.24.28.06.06L62,9.38h.11s0,.09,0,.15v.06l0,0c.05-.06.1-.07.14,0l0,0v.12l.12,0c.32.28.45.88.38,1.8a5.76,5.76,0,0,1-1.36,2.13l-.32.37-.36.34-.18-.16,0-.2c-.05.06-.1.08-.14,0V14l.24-.28,0,0a.2.2,0,0,0,0,.27l.2-.16.29-.4-.06-.05c-.23.23-.37.33-.42.29v-.12l0,0-.29.34v.06l0,0h0l-.13-.11.16-.24s-.13,0-.28.13l0,0v0l0,0-.14,0-.07-.17-.15-.08v-.11H59.4L59.33,13h-.06l0,0,0-.15.32-.37c1-1.13,1.44-1.74,1.36-1.81l-.19-.22c-.16-.14-.43,0-.78.41l-.44.43v.06l0,0q-.59.58-.63.54l-.05.12L57.21,14l-.45.53-.27.37h-.06l0,0c-.46.54-.6.88-.42,1L55.9,16l.06.05c.08-.08.17-.07.3,0l1-1h.12l.53-.73h.17l0,0,.13.16,0,0h.06l0,.15.24.1.09.08c.1.09.13.16.1.19h.06l.09.08v.06l.18,0a.38.38,0,0,1-.13.27l.1.09.1-.19.15,0,0,.15-.19.22.06.05.33-.26.1.14-.22.19-.11.13v.11l-.22.13-.13.22-.14.09-.19.28a2.19,2.19,0,0,1-.94.7v.06l0,0a1.1,1.1,0,0,1-.74.23l0,0,.08-.09-.09-.08-.22.24A2.19,2.19,0,0,1,55,17.39v-.18l.37-.43v-.12h0l-.46.52,0,0c-.05,0,0-.12,0-.24l0,0-.23.13a.12.12,0,0,1,0-.18h0l0,0a2.06,2.06,0,0,1-.45-2.35,10.48,10.48,0,0,1,1.41-1.93l1-1.11.27-.25.11-.19.24-.22v0l0,0,.14-.09,0,0h.06l.43-.5V10h.06l0,0,.11-.18c.61-.67,1-1,1.07-.86V8.89l0,0c.21-.14.33-.2.36-.17l0,0-.08.09.06,0,.19-.21a.35.35,0,0,1,.4-.09c0-.06.17-.07.35,0s.21-.07.44,0l.09.08-.08.15,0,0c.15-.16.29-.18.44,0,0-.05.12,0,.27.12l0,0v.06l0,0Zm-7.46,6.88-.08.09,0,0,.08-.1Zm.29.47-.13.16h.11l0,0Zm0-2.53,0,.06,0,0,0-.06Zm.22-.63-.08.1,0,0,.08-.09Zm.24.92-.08.09,0,0,.08-.09Zm0-.85,0,0v.12h.06l0,0V13.5Zm.13.28-.1.13h.11l.06-.06Zm.21,3-.21.25h.11l.11-.12Zm0-4.12,0,.06.06.05.05-.06Zm.3,1.35-.25.27.07.06.18-.22Zm-.09,2.15-.08.09.06.06.08-.09Zm.17.69-.17.18.12.05.11-.12Zm-.08-4.09-.06.06v.11l0-.06Zm.15,4.37-.16.25,0,0,.21-.24h-.06Zm.27-4.49-.16.18.07.06,0,0,.11-.18Zm.14,4-.27.31v.12l.38-.44Zm-.08-3.71-.11.12.06.05.16-.18Zm.24-.28-.08.09v.12l.08-.1Zm.18,4.78-.05.06v.12h0l0,0v-.11Zm0-.78,0,0,.06.05,0,0ZM57,13l0,0L57,13l.08-.09Zm.38-1.68-.41.46.07,0,.05-.06,0,0,.22-.19.11-.13Zm0-.44-.38.43v.12l.48-.56Zm0,1.63-.13.15-.16.24,0,0,.27-.31Zm.45-1,0,0-.13.21-.12.06c-.21.29-.3.45-.25.49l0-.06.54-.68Zm-.15-.2-.36.4v.12l.06-.06,0,0C57.69,11.45,57.77,11.28,57.73,11.24Zm0-.4-.25.28v.11L57.7,11Zm.18,1-.35.4v.12L58,12v-.05Zm-.15-1.44-.11.12,0,0,.11-.12Zm0,2.56-.08.09,0,0,.08-.1Zm.34-3-.32.37s.09,0,.14,0l.21-.3Zm.3,2.16,0,0-.56.71v.06l0,0L58,12.8l.1-.18.31-.23.07-.21Zm-.37,3-.22.25.06.05.22-.25ZM58,16l-.11.13.09.08.06-.06v-.12Zm.1-5.61-.18.21,0,0,.19-.16v-.06ZM58.15,12l-.16.18-.1.19,0,0,.11-.12.16-.24Zm0-.84-.17.18,0,0s.08,0,.14,0l0-.12Zm.53-1.11,0,.06,0,0-.11.18-.43.5.06.05.49-.56.1-.18Zm-.45,1.45-.17.13v.11h.06l.11-.12Zm0,5.09,0,.06,0,0,.05-.06Zm0-6.43-.08.09v.12h.06l.05-.07v-.11Zm.11,5.43-.1.12.06.06.05-.06Zm.13-4.46h0c-.13.18-.17.29-.13.33l.19-.22Zm-.1-1.56-.09.09.07.06,0,0Zm0,1.34-.05.06.06.06,0-.07Zm.13-1.08,0,.06,0,0,0-.06ZM59,11.36l-.45.53V12l.12-.06C58.93,11.61,59,11.41,59,11.36Zm0,4.74,0,.06,0,0,.05-.06Zm.13-6.58L59,9.65h.12Zm0-.4,0,0,.06,0,.08-.09Zm.22.19-.11.12h.12Zm.16.19v.06l0,0,.08-.09ZM59.55,9l-.09.09,0,0,.08-.1Zm0,3.75,0,.06,0,0,0-.07Zm.06-2.13-.06.06.07.06,0-.07Zm0-1.81,0,0v.11l.14-.15Zm.4-.14L60,8.7v.18l.09-.1V8.67Zm.3.16-.08.09,0,0,.08-.09Zm.29,0L60.53,9v.11l.16-.18Zm.81,4.57-.33.31-.21.31H61l0,0V14l0,0,.11-.06.35-.46ZM61,11.77l-.06.06,0,0,.06-.06Zm.61-2-.24.28.06.06.25-.28Z"/><path class="cls-4" d="M67.15,14.7c.21.28.29.5.24.65l.14.05a2,2,0,0,1,.12,1.66l-.26.4-.07.05h0l0,0c.06.09-.33.47-1.18,1.16l-.14-.05-.3-.39v-.06h-.06l-.62-.82V17.3h-.06l0,0c-.08-.15-.1-.24-.05-.27l.1-.08L65,17l0-.14.35-.16,0,0c.37-.43.52-.68.46-.76l0-.07c-.17-.21-.43-.19-.77.07l-.3.22a1.66,1.66,0,0,0-.49,1.66c0,1.53-.26,2.51-.85,3,0,0-.22.28-.74.72l0,0v.05l-.23.18h-.06v.06l-.06.05s-.1,0-.17-.09H62l-.06,0a.29.29,0,0,1,.06.21,2,2,0,0,1-.78.33v.06l0,0a1,1,0,0,1-.68.06l.1-.08-.05-.06-.14.15a2.37,2.37,0,0,1-1.68-1l.11-.13a.55.55,0,0,0-.36-.2l0-.23-.14-.05,0,0,0-.11h-.06l0,0c-.13-.28-.16-.45-.07-.51L58.11,20c-.08-.28,0-.54.38-.79l.06-.05-.1-.08-.2.15,0,0c0-.21.2-.56.61-1l.12,0,0,0a.48.48,0,0,1,.16-.27l.45-.35.34-.3.12,0,.14-.16.17.08.41.62.11.07v.06l.28.3.32.42,0,.18c-.27.18-.42.26-.45.23l-.2-.21v0h0l.07-.05,0-.11,0,0-.1.07v.06h-.05l0,0-.07.1-.29.17-.13.15.05.07h0l0,0a1.59,1.59,0,0,1-.39.44c.05.06,0,.21,0,.44l.12.22.27.16c.34-.19.52-.26.56-.22v.06l-.19.09-.11.13.18,0,.1-.07v-.06l.18,0-.11-.22a1.87,1.87,0,0,0,1-1.66,7,7,0,0,1,.35-2.73l.8-1,.19-.09.08-.11.12,0,.2-.21c1-.66,1.74-.83,2.33-.52v0q.15-.07.21,0c0,.05,0,.09,0,.14l0,.07c.08-.07.15-.08.18,0l0,0-.4.35.12,0,.29-.23.19-.09.09.19.12,0,0,0v.06l.17.08c-.06.1-.08.16-.06.2l0,0C67,14.65,67.11,14.64,67.15,14.7Zm-9,4.88v.06l.05.07h.11l0-.11Zm.12.64s0,.11,0,.27l0,0v.06l0,.06.11,0,.07-.05,0,0-.2-.21,0,0Zm.22-.53-.14.16,0,.06a.22.22,0,0,1,.35.05l.06-.05,0-.12C58.69,19.69,58.57,19.66,58.53,19.69Zm0,.33,0,0,.05.07,0,0Zm.41.46-.38.18v.06l0,.07.36-.27Zm.23.44-.3.28,0,0,.32-.19V21Zm0-2.51-.23.18.08.1.19-.1.07-.1Zm-.09-.18-.06.05,0,0,.07,0Zm.29.45-.23.17.05.06.23-.17Zm0,2.39-.06.05,0,0,.07,0Zm.2-1.85-.1.08,0,0,.12,0Zm.54-.71-.38.18,0,0,.07.09.36-.27Zm.46-.41-.14.16h0l0,0-.07.11.05.06.06-.05,0,0,.07-.11.12,0,.05.06-.34.37-.29.16v.06l0,0h.06l.75-.57-.1-.13-.06.05,0-.07.06-.05,0,0Zm-.23-.44-.13.1,0,0,.14-.09Zm0-.33-.07.05,0,0,.06-.05Zm.41,1.5.07.09,0,0-.19.09,0-.07.08-.16ZM61,20.61h-.06l-.1.07,0,.06h.06l0,0v.05l0,0v.06l.08.09.09-.07-.07-.1Zm.24.39c-.23.19-.32.32-.29.37l.3-.23V21Zm0,.65-.07,0-.2.21.17,0,.15-.21Zm1.1-3.57-.16.12,0,0,.16-.13Zm1.09-3-.07.05.08.09.06,0Zm.1,1-.13.1.08.1.13-.1Zm.12.22,0,0,.07.1.1-.07,0,0Zm1.46.85-.06.05,0,0,.07-.05Zm.72-.55-.19.09-.19.15.17,0,.1-.07.14-.16Zm-.26-2.52,0,0v.12l.16-.13Zm.25.47-.06.05,0,.11.07,0Zm.08-.37-.1.07,0,.07.1-.07Zm.17,2.19-.13.1h.11l.13-.09Zm.08-1.45-.1.07.08.1.1-.07Zm1.13.53-.25.09-.24.29-.43.32-.14.15,0,0c0,.06.12.06.2,0a.87.87,0,0,1,.26-.35q.3-.21.36-.12V16l.1-.07-.1-.14.23-.17v-.11Zm-.63-.55-.39.3s.08,0,.15,0l.27-.26ZM66.89,16V16l0,0L67,16Zm.33.37-.23.17,0,0h.12l.16-.12Zm.37.08-.21.21-.06.05,0,0,.12,0,.19-.15,0-.12h-.06Z"/></g></g></g></svg>