<svg xmlns="http://www.w3.org/2000/svg" xmlns:xlink="http://www.w3.org/1999/xlink" viewBox="0 0 74.8 74.8"><defs><style>.cls-1{opacity:0;}.cls-2,.cls-7{fill:#fff;}.cls-3{fill:url(#radial-gradient);}.cls-4{fill:#0094da;}.cls-5{fill:url(#radial-gradient-2);}.cls-6{fill:url(#linear-gradient);}.cls-7{fill-rule:evenodd;}</style><radialGradient id="radial-gradient" cx="37.4" cy="62.33" r="19.47" gradientTransform="translate(0 54) scale(1 0.13)" gradientUnits="userSpaceOnUse"><stop offset="0"/><stop offset="0.32" stop-color="#231f20" stop-opacity="0.6"/><stop offset="1" stop-opacity="0"/></radialGradient><radialGradient id="radial-gradient-2" cx="37.4" cy="37.4" r="24.93" gradientUnits="userSpaceOnUse"><stop offset="0.64" stop-opacity="0"/><stop offset="0.95" stop-color="#231f20" stop-opacity="0.29"/><stop offset="1" stop-opacity="0.5"/></radialGradient><linearGradient id="linear-gradient" x1="37.4" y1="39.33" x2="37.4" y2="13.47" gradientUnits="userSpaceOnUse"><stop offset="0" stop-color="#fff" stop-opacity="0"/><stop offset="1" stop-color="#fff" stop-opacity="0.7"/></linearGradient></defs><title>orb-martialarts-wtext</title><g id="Layer_2" data-name="Layer 2"><g id="Layer_1-2" data-name="Layer 1"><g id="orb-martialarts-wtext"><g class="cls-1"><circle class="cls-2" cx="37.4" cy="37.4" r="37.4"/></g><ellipse class="cls-3" cx="37.4" cy="62.33" rx="21.95" ry="3.59"/><circle class="cls-4" cx="37.4" cy="37.4" r="24.93"/><circle class="cls-5" cx="37.4" cy="37.4" r="24.93"/><ellipse class="cls-6" cx="37.4" cy="26.4" rx="18.29" ry="12.93"/><path class="cls-7" d="M45,32.15,42.41,32l.07-.24L53,23.57,40.65,29.81l-1.13,2.12-6.63-.27-.18.18-1.45-2.1L25,29.82l7.25,2.45L30.7,33.85l4.16-.5-1,1.1L32.83,34l-4.77.37,4.36,1.81-4,4.47,2.55.32,2.32-4.41,3.12,1.28-.06.12,1.19.93L31.44,56,43.15,35.3l-1.64-.1.79-2.73Zm-8,4.62-.1-.87L34.3,34.66l.7-1.32,4-.47Z"/><path class="cls-4" d="M4.18,20.82l.32-.52.17,0,.45.28,0-.07-.46-.28,0-.17,1-1.57q.45.14,4.2,1.93l.05-.07,0,0c-.47-.3-1.29-.94-2.48-1.92h0a6.31,6.31,0,0,1-1.08-.91l0-.07.25-.33.27-.51.89-1.43.17,0,.52.33.22.18.44.23,3.77,2.33c.11.07.15.14.11.21l.1.07q.08-.11.24,0l3.14,1.94,0,.17L15.54,22l-.17,0-1.56-1c-.35-.23-.51-.36-.49-.4l-.32-.1-3-1.86,0,0,0,.11.07,0c.53.33,2.19,1.61,4.95,3.84l0,.06-.65,1.05c-.05.08-.49-.1-1.32-.53l-4.33-2,0,0,5.09,3.15,0,.17-.28.45-.17,0L13,25l-.23-.24,0,0a.76.76,0,0,1-.48-.16L12,24.4l-.11,0,.21.13.54.38,0,0,0,0V25l.67.32v.15l-.05.07c-.07.12-.17.13-.31,0l-.05.07,0,0,.12,0v.14l-.13.21c-.09.14-.22.15-.41,0l-1.57-1L10.87,25l-.7-.34L10,24.46l-.27-.12-.25-.21,0,0-.09-.1-.44-.22-.11-.22-.1-.06H8.55l-.35-.21C8,23.14,7.84,23,7.87,23l0,0H8l0,0-.11-.07-.06.11v0l-.1.09L7,22.62l-.51-.26-.11-.22-.81-.49-.33-.16-.12-.12L4.44,21,4.33,21Zm1,0,1.15.71.11,0-.12-.12L6,21.25l-.77-.48Zm.61.72,0,0,.16.05.06.13c.12,0,.18,0,.2,0l0-.07,0,0-.32-.1-.1-.06ZM7.28,22V22l0,0,.23.1,0-.11-.14-.09Zm.31.19.53.32a.88.88,0,0,0,.42.17l.12.12.82.46.17.06,0,0-.09-.1H9.53L9,22.81l-.07,0,0-.05-.82-.32-.41-.26Zm.95,1.12.14.08,0-.07-.07,0Zm.4-.72.07,0,0,0L9,22.52Zm.13-3.49.21.13,0-.07,0,0L9.09,19Zm.25,4.59,0,.11.11.07,0-.07,0,0,.22.19.12,0,0-.17-.1-.07c-.07,0-.2,0-.39-.14Zm.24-.09,0,0,.19.08,0-.12-.14-.08Zm0-2.18.08,0,0,0-.07,0Zm.07,1.92.07,0,.2.07,0,0-.23-.19Zm.26.74,0,0,.37.18,0,0L10.15,24Zm.29-.69.07,0,.11,0-.14-.08Zm.22,1,.07,0,0,0,.27.12.17.11,0,.17-.1.08.07,0,.07-.1.1.06a.78.78,0,0,0,.55.05l-.7-.43C10.67,24.31,10.5,24.25,10.45,24.32Zm.23-.83.07,0,0,0-.07,0Zm.69.43c.05,0,0,.09,0,.18v.06l0,0,.19-.22V23.9l0,0ZM12,25l.1.07.07-.11-.13,0Zm.19-.07V25l.2.08,0-.07-.14-.09Zm1.35-4.37.07,0,.05-.07-.07,0Z"/><path class="cls-4" d="M10.41,11.69l.23-.17,1.65-1.66.3-.22,0,0c.1-.1.53.21,1.29.92L16,12.19l.17.23c.4.26,1.92,1.45,4.55,3.59l0,.14-1.47,1.43c-.05,0-.12,0-.21,0l-.85-.76-.06-.12c-.2-.18-.33-.25-.37-.21l-.5.49.11.17q1.05,1.08,1,1.32l0,0-.29.17-.06.12-.21.14-.17.17-.18.29-.56.54-.15,0-1.81-2.4,0,0-4.43-5.75.06-.06Zm1.49.6.4.42a.89.89,0,0,1,.26.38l.23.18,0,0a.31.31,0,0,1-.08-.26l-.78-.8ZM13,13.7l.17.24.15,0,.11.18.15.09.28.46s.09,0,.14,0l.12.17.05-.06.09.09c-.1.1-.08.21,0,.35l-.09.15.23.23.12-.05-.23-.24h.06l0,0-.17-.17.14-.15-.17-.17V14.8h-.05L14,14.68l-.11-.24-.4-.29-.09-.09c.08-.08,0-.21-.16-.41A.24.24,0,0,0,13,13.7Zm.46-1.12c1.31,1.64,2.05,2.59,2.21,2.88l.26.15.5-.49-2.91-2.6Zm1,2.57.11.18,0,0h.12l0,0,0,0-.23-.18Zm1,1.44.09.09.06-.12,0,0Zm.37.38.09.09.15-.14L16,16.86Zm.13-.4.11.06,0,0L16,16.51Zm0,.58.06.06.15-.15L16.12,17Zm.13-.35.14.15,0,0-.09-.2-.05-.06,0,0Zm.14-.2.06.06.06-.06-.06-.06Zm.08.44.09.08,0,0L16.35,17Zm.17.7.08.08.18-.17-.09-.09Zm.2.2.08.09.27-.26.05.06v.06l0,0h.06l0,0c-.1-.1-.11-.17-.06-.23H17l0,0v.06Zm.52,0,.14.15.12-.12-.09-.09Zm.34.35.09.09.06-.11,0,0Zm.14.15.06.06h.12l-.06-.06Z"/><path class="cls-4" d="M16.38,7.52h.06l0,0,.09-.1.12.12.1-.07s0-.07,0-.14l.07-.05.1.18,0,0,.06-.14,0,0,.41.51,0,0-.1-.23.07,0,.16.09,0,0,.2.4.19.08L18,7.83l-.23-.29L18,7.41l-.06,0-.07-.1.07,0-.06-.11-.17,0c0,.07,0,.12,0,.15l-.2,0,0,0,0,0,0,0-.22-.2L17,7.28l-.05,0,0,0,.07,0,0,0H17l.17-.1.23-.19.22.2,0,0-.06-.26.28-.17c.07.09.13.11.19.08l0-.12.22,0,0,0-.05-.07.07,0,.07.1.24.24.18.28.1-.07c-.09-.14-.11-.22-.06-.25l.35-.22.06-.13c.15.19.25.28.3.25l.08-.1a.76.76,0,0,1,.32.28c.05,0,0-.09,0-.18V6.64l0,0c.05,0,.11,0,.18.13l.11-.07-.1-.23H20.2l0,0,0-.06,0,0-.33-.37,0,0c.15-.1.57.16,1.25.76l.09.14-.12.12.13.21.07,0-.11-.17.07-.05L21.4,7l.22.35.06,0,0,0,0,0c.54.95.75,1.46.62,1.54l0,0-.13-.21,0,0q.3.48.06.63l-.26.36,0,0a1.48,1.48,0,0,1,1.62.58l.15.39.1.08-.19.17h.06c.14-.09.34.08.6.5l.63,1,.12.11.05.16.31.49.16.19c.05.13.05.21,0,.24l-.11,0c0,.07,0,.12,0,.15h-.06l-.13.17-.16.06L25,14.3h-.06L24.74,14l0,0v.06l0,0,.15.15,0,0,0,.06,0,0-.13,0-.22.18,0,0,0,0-.31.2c-.14.09-.26,0-.36-.11l-.07-.2-.23-.29-.09-.14,0-.11.11-.07h.15v-.06l-.07-.1c0-.05-.12,0-.28.08a2.32,2.32,0,0,1-.46-.58L22,11.78v0c-.35-.46-.62-.63-.81-.52l0,0v.06l-.21.13,1.76,2.81c0,.05,0,.1-.1.16l.05.07a.43.43,0,0,1,.33.23l.08.19.16.19.11.17,0,.17-.14.09-.19.07-.19.17-.18.11-.2,0-.07,0,0,.07-.07,0,0-.07s0-.09.06-.14v-.05l0,0h-.05l0,0-.21.13.11.18,0,.11H22l-.15.14-.28.18c-.05,0-.15-.07-.32-.29l0-.12-.12-.12-.19-.46-.4-.48c-.15-.26-.2-.41-.17-.43l-.5-.65,0,0h-.06l0,0,0,0-.06,0-.26-.42v-.05l-.05,0-.33-.52-.25-.32a3.73,3.73,0,0,1-.51-1.28h-.06l0,0,.11-.06c0,.06.08.09.13.06l-.07-.2.19-.07,0-.06-.05-.07-.11,0-.08.1-.09-.13s0-.1.06-.14l-.06-.1c-.1.06-.23,0-.4-.24l-.05,0,0,0v0l.06,0,0,0a.39.39,0,0,0,.08.29l-.14.08L17.1,9.44l0-.12-.17-.19L16.21,8l-.08-.2.21,0C16.31,7.66,16.32,7.56,16.38,7.52Zm0,.41.08.14,0,0-.09-.14Zm.15-.29.07,0,0-.07Zm.26.42.29.45.07,0-.24-.38ZM17,8l.14.06.39.62.27.36.08.2h.05l0,0-.05-.07,0,0h-.06l0-.07-.16-.34-.25-.32-.07-.11-.1-.23L17,7.88l0,0Zm.18,1.14.07.1,0,0-.06-.1Zm.14-2.11.1.08,0,0L17.36,7Zm0,.9V8l.09.14c.12.19.23.24.35.17l.06.11-.11.12.06.1.07,0,0,0v.15l.17,0,0-.11,0,0,.13.21s.11,0,.25-.07l.17,0,.06-.13,0,0c.16.22.27.31.32.28l0,0L19,8.77V8.71l-.36-.35-.1-.23L18.4,8l-.08,0,0,0,.18.37,0,0v.15h.06l.06.11-.07,0c-.05,0-.12,0-.19-.07l-.07,0,0,.07,0,0-.14-.15.07,0,0,.07.1-.07c-.05-.1-.05-.16,0-.18A.66.66,0,0,0,18,8.2l-.45-.35a.33.33,0,0,1,.06.25l-.13,0V8.08L17.44,8Zm0,1,0,0,.12.12.06.16,0,0,.11,0V9.31l0,0-.2-.16L17.48,9h-.06Zm.47-2.27.06.11,0,0,0-.12Zm0,1.86L18,8.51l.09.14,0,0-.11,0Zm.12,2.2.07,0,.11,0,0,0-.13.08Zm0-.92.1.17,0,0L18,9.83ZM18,7.6l0,0,.07,0-.06-.11Zm0,1.44,0,.07,0,0,0-.06,0,0-.1-.08Zm.31-2.28.06.16h.05V7l.1-.06-.05,0v0l0-.07Zm.19.76,0,0,.11,0,0,0-.07-.11Zm.05,2.87h.05l0,0-.07-.11Zm.09.61.06,0,.07,0-.07-.1,0,0Zm.16-2.85.13.21-.07,0,.11.18,0,.05,0,0h.06l0,0,0-.06.29.4,0,0,.05,0,.05.06v.06h.05l.28.46c.11.16.13.25.09.28L20,10l.38-.24a.34.34,0,0,0,0-.35l.07-.05,0,.13c.23.34.38.49.43.45l0-.17a2.26,2.26,0,0,1-.49-.56V9.16L20.78,9c0,.07.08.09.13.06l0,0-.07-.1-.19-.22,0,0c.06.09.06.15,0,.18s-.13,0-.22-.11l0-.12-.31-.34-.06,0,.16.34,0,0-.06,0,0,0L20,8.54l-.11-.17c-.07-.12-.13-.16-.18-.13V8.18A.57.57,0,0,0,19,8l-.07,0ZM19,10l.07.1c.07.12.08.19,0,.22l-.13,0v.06l.15.24.11,0c0-.09-.06-.16,0-.18s.1,0,.15.09h.06l.07,0,0-.11-.16-.1,0-.12c-.16-.2-.26-.28-.3-.25Zm0-4,.07,0s.09,0,.13.06l.08.19-.07,0-.12,0Zm0,4.88,0,0,.07-.05,0,0Zm.3-5c.27,0,.43,0,.46,0V6l0,0c-.23.09-.38.07-.46,0V5.92Zm.05,6.44.09.14,0,0,.11-.12.19,0-.05-.07-.14-.15-.14.09Zm.09-.87.06.1,0-.11,0,0Zm0-1.31.07.11,0,0-.06-.1Zm.06,3,.05.07.17.13.06-.13-.17-.13Zm0-2.73,0,0,.11,0-.06-.1Zm0,.37.05.07,0,0,0-.06Zm.1.61.06.11,0,0-.07-.11ZM19.78,13l0,0,.14-.08,0,0-.11,0Zm0,.39.06.1.11-.06-.05-.07Zm0-7.19,0,0,0,.07,0,.12-.06,0,0,0Zm0,6.24.06.11,0-.12,0,0Zm.09,1.16.05.16H20l0,0-.11-.18Zm0-1,.13.21,0,0L20,12.67Zm0-5,0,.07,0,0,0-.07Zm0,2.39.16.34.11-.07-.09-.14L20,10Zm.1-3.1,0,.07,0,0,0-.07Zm0,5.51.07.1,0,0-.06-.1Zm.05-.23.12,0V12.2l-.06-.1,0,0Zm.07-.52.1.08,0,.28.22.2.07,0L20.55,12h.06l.13-.09-.08-.14H20.6l0,0a.11.11,0,0,0,0,.17l-.11,0-.15-.24Zm.09-3.49.22.35.11,0-.07-.19-.11-.18-.12,0Zm0,6,.15.15-.07,0,.06.1.11-.06-.18-.28Zm.09-7.84,0,.07.07-.05,0-.07Zm0,3.51,0,.07.15.16.1-.07-.05-.16-.18-.13,0,0Zm.1,3.18.13.21,0,0,0-.11,0-.07-.12,0Zm.08-5.37,0,.07,0,0-.05-.07Zm0,.48.11,0V8.14l0,0Zm0,1.08.26.33,0,0c.13.14.22.2.26.18l0,0-.11-.18-.16-.18-.07-.2h-.06Zm.06-1.38,0,.21.14.16L21,8.19,21,8C20.86,7.88,20.77,7.83,20.71,7.87Zm.06.49.05.07,0,0,0-.07Zm0,4.2,0,.07,0,0,0-.07Zm.14-3.42.09.13.07,0L21,9.09ZM21.07,8a.18.18,0,0,1-.07.28l.12,0,0,0c.12-.07.22,0,.31.1l.07,0-.13-.21c-.08-.12-.15-.17-.24-.14ZM21,11.06l0,.07.07,0Zm0,4.24.05.07,0,0,0-.07Zm0-4.65.23.39.07,0-.19-.31Zm0-3.3.06.11,0-.12,0,0Zm0,2.89.09.14.11,0-.13-.21ZM21.19,9c.1.16.12.26.08.29l-.18.1.15.16,0,0,.12,0V9.59l.07,0s.14,0,.26.18l0,0c-.11-.19-.14-.3-.07-.35s.09,0,.14.06l.07,0c-.11-.16-.21-.21-.33-.13s-.17-.05-.3-.25Zm0,6.46.11,0,.11-.07-.05-.07Zm0-7,.15.24,0,0-.15-.24Zm0,1.43.06.11,0,0-.07-.11Zm.14-.08,0,.07.1-.07,0-.12,0,0,0,0Zm0-1,.15.25,0,0-.15-.24ZM21.46,8l.1.17v.06h.06l.13.21.09.23.26.18,0,0L22,8.52l-.1-.08-.14-.3-.19-.23Zm.18-.17.09.14,0,0-.08-.14Zm0,2.93.11,0-.08-.14Zm.05,4v.15h.05l.11-.06-.05-.07Zm0-6.78,0,.07,0,0,0-.07Zm0,8,0,0,.11,0,0,0-.07-.1Zm.07-.81.1.08,0,0,0-.11L22,15l-.07,0v.06Zm0-4.22.07-.05,0-.07Zm.05,3.88.12,0,0,0,0-.11-.11,0,0,0ZM22,11.65l.08.14.12,0,0,0,0-.12-.14-.16,0,0Zm0,3.76.11.17.07,0,0-.12-.1-.17-.07,0Zm.12-.9.06.1.07,0-.06-.1ZM22.2,10l.25.32,0-.11,0-.07h-.06V10.1l0-.07-.11,0Zm0,1.52.06.11.11,0,0,0,0-.11-.1-.08Zm.26-1.13.16.34h.05l0,0v-.06l-.15-.24Zm0,2,.14.15,0,.11.22.2v-.05l0,0-.19-.22-.13-.21Zm.07-.43,0,.07.08.19.16.19.09.14.07,0L22.74,12l-.06,0Zm0-.54.12,0-.05-.07Zm.35-.21,0,0,.12,0,0,0-.06-.1Zm.3-.14,0,0,.07,0,0,0Zm.21-.13,0,.07.07-.05,0-.07Zm.25.32.07.11.1-.07-.06-.1Zm.12.27,0,0,0,0,0-.11,0,0,0,0Zm.16.33.06,0,0,0,0-.05-.05-.07,0,0Zm.47,2.37,0,.07.15-.14,0,0-.11,0,0,0Zm.33-.55.06.11,0,0-.07-.11Z"/><path class="cls-4" d="M22.41,3.65l.11.05.13.34h0l.07-.16.18,0c-.09-.26-.12-.4-.07-.42s.13.09.25.31l0,0c-.09-.23-.11-.35-.05-.37l.07,0,.11.18.12,0-.08-.19.12,0,.06.15q.25.44.36.39c0,.19,0,.3-.09.34l-.1,0L23.6,3.9l-.07,0,.11.31a.27.27,0,0,1,0,.27q-.16,0-.21-.09V4.29l0,0,0,0,.1.39-.16-.07,0,0-.08-.1-.08,0v0l.09.1,0,.24.11,0,.14-.1v0l.05.25.1.14-.08,0-.15-.16,0-.17L23.31,5l.14.38-.11,0-.21-.53-.11,0,0,.12-.07,0-.18-.24V4.68h0c.05,0,.1,0,.15.16l.12,0,0-.3-.2,0-.11,0c0,.07,0,.12,0,.14l0,0,0,0,.06-.2s-.14-.06-.27-.25l0-.17,0,0C22.36,3.78,22.36,3.67,22.41,3.65Zm.09.93,0,0,.11.05,0,.08-.11,0Zm.07.19.08,0,0,.08,0,0,0,.21-.08,0Zm.09-1.17h0l.05.15h0Zm0,1.52.12,0a.18.18,0,0,0,.26.12l.11.18,0,.08L23,5.59l-.12-.09Zm1.7-2.26.05,0V3l.24.4.11-.05,0-.2-.21-.32,0,0,.15-.06.17,0,.25-.14L26.66,2l.11.18.58,1.53,0,.21a5.54,5.54,0,0,1-.95.27l-.14.09-.05,0a1.58,1.58,0,0,0,.17.81h0a.1.1,0,0,1-.07.15l0,.12.08,0,0,.08.12.21,0,.37-.08,0c-.1-.2-.18-.29-.23-.27l0,0,0,.07,0,0,0,0,.13.35,0,.1c0-.07-.07-.1-.12-.08s-.08.1-.05.23l0,0L26,6.24l-.08-.19-.07,0c-.05,0-.05.13,0,.32-.07,0-.1.08-.07.15l0,0-.33-.18,0,.29,0,0-.08-.1,0,0,0-.12-.12-.09L25.06,6l-.11,0,.1.27-.2.07.08.19h.22v0c-.08,0-.12.1-.13.22l.21.58c.08.15.14.21.21.19s0-.21,0-.23l-.11-.17-.06-.16h0l.11,0,.07.19.07,0L25.5,7l0,0s.12,0,.24.18l0,0-.1-.36.12,0,0,0,0,0,.1,0,0,0-.14-.25L26,6.51l0,0,0,0c.05,0,.13.09.24.3l0,.06V7l.27.6.07.19,0,0,.05-.1v0l-.19-.37,0-.24.07,0,.14.25,0,.12.08,0-.07-.2L26.73,7l.15.16,0,0,0-.29.08,0c.11.16.18.24.22.22l0,.34.3.59,0,0,.21.44.43,1.16.1.36.18.37L29.05,12l-.07.16-1.88.7-.15,0,0-.05-.22-.45L25.48,8.89l-.12-.43-.11-.18,0,0v0l-.08-.1a1.41,1.41,0,0,0-.11-.75,1.86,1.86,0,0,1-.35-.48V6.73l-.54-1.55.08,0,.08.1,0,0v0l.22.23V5.7l.08,0-.05-.12,0-.2.08,0,.12.21.08,0,0-.2,0,0s-.1,0-.26,0l0-.08,0,0,0-.15-.26-.21.08,0v0l.05,0,.08,0,.14-.1.27,0,.2-.29.16,0,0-.12-.11,0L25,4.36l-.18,0,0,0h-.17l0,.11h0l-.1-.14,0,0-.08,0-.09-.23c-.13-.22-.22-.31-.28-.29l0-.18c-.16.05-.3-.1-.43-.46l.07,0,.11,0,.07.2.08,0,0-.25.08,0,.16.21.11-.05-.05-.15,0,0c.06,0,.13.1.23.36l0-.11-.14-.25c.06,0,.06-.08,0-.18l0-.06ZM23.83,5,24,5v0l-.05.11-.07,0-.1-.14ZM24,4.63l.1,0,0,0,0,.06.06,0,0,.11,0,.21h0L24,5.05V4.79L24,4.69l0-.05Zm.73,1.47,0,.12.12,0,0,0-.1,0Zm.07-1.21.08.11,0,0,0-.11Zm.11.18V5.2l.08.1h0c0-.1,0-.17,0-.18l.15,0,0,0S25.09,5.05,24.92,5.07Zm.27-.32,0,.12.07,0,0,0,0,.15a.59.59,0,0,1,.21.32l0,0L25.48,5l-.19-.37Zm.25,3,0,.11h0l-.05-.12Zm.09-2.89,0,.12.16.07,0-.11,0-.11ZM25.8,4l.05.11h0l0-.12Zm0,4.55.11.31.08,0-.12-.3Zm0-3.73L26,4.81l0-.07h0Zm0,.51.05.16,0,0-.06-.15Zm0,1.09.12,0v0l-.11,0Zm.06-.89.07.19,0-.11,0,0ZM26.14,4l0,.08,0,0,0-.07Zm0,4.11.06.16.08,0,0-.08Zm0-.62.14.38.08,0-.07-.2-.11-.17Zm.1-.78,0,0,.1,0,0,.21-.08,0,0-.06,0,0ZM26.39,10l0,.08.08,0,0-.08Zm.14-3.38h0l0,.07,0,0Zm.17-.46,0,0,.16.08.06.5-.08,0c0-.1-.08-.14-.13-.13C26.67,6.37,26.65,6.22,26.7,6.2Zm.07,2,0,.12.08,0-.05-.11Zm.13-1.05v.13l.05,0h0l0-.06-.09-.1Zm.25.56,0,0v0l.11,0,0,0,0-.07Zm.47,1.84.09.23.16.07V9.75C27.77,9.61,27.69,9.55,27.62,9.58Z"/><path class="cls-4" d="M28.65,1.1,29.21,1h.17l.15-.08.1.1.1.45-.1.14-.19-.12,0,.08h0l.12.4.13.6h0l.09-.15-.06-.32L29.63,2l0-.2.06-.1.19.3.14.68h.13l0-.29L30,2.27l0-.25h0l.13.22v0l-.08,0,0,.16h.13l0-.33-.05,0v0l0-.33L30,1.14l0-.26.17.05c0-.11,0-.17.05-.18l.32-.07,0,.08h0l0,.05.05.24.24.75,0,.29.17.59.72,3.41v.38q.06.19.12.18l0,.05L32,7l0,.08.16,1,.11.32v.21l.1.23v.17l.18.63.22,1-.1.15-.16,0c-.26.06-.4.06-.42,0l-.22.13-.33,0,0,0h0l-.05,0-.47.15-.24,0c-.06,0-.12-.09-.19-.3v-.17l-.22-.83-.11-.48h0l.14,0,0,0v0l-.1-.27,0,.05-.12,0v0c-.1-.48-.11-.78,0-.88V8.16A.48.48,0,0,1,30,7.9l0-.16,0-.37L29.77,7l0-.08,0-.33-.14-.43-.27-1.28-.18-.64,0,0v0L29,3.58,28.9,3.1l-.06-.49-.05,0,0-.05h0c0,.08.06.12.11.1h0V2.37l-.08-.16,0-.12-.05,0-.08,0,0,.33h0l-.07-.11V2.09l-.11-.31V1.32l-.07-.11Zm.2.17,0,.12.08,0-.06-.11Zm.12.56L29,2l.1.06V1.84l-.05,0Zm.17,1.6,0,.08.1.06,0-.16Zm0-2.06v0l.07.11v.25l.08,0-.09-.4ZM29.26,3l.11.48.12,0,0-.29L29.38,3Zm.09-1.95.08.37h0l-.08-.36Zm.13,1.57.05.24h.08v0l-.08-.2Zm.07.53v0h0l.06-.09v0h0ZM30,7.05l0,.12.08,0,0-.12Zm.06-4,0,.12.09.07,0-.2Zm.12-2v.2l.05,0h0l0-.24Zm.05.41.09.06,0-.16Zm0,1.08,0,.12h0l0-.12ZM30.44,2l0,.12h0l0-.12Zm0,6.58v.21l.07.32c0,.2.11.3.19.29l-.18-.84Zm0-4c.1.37.18.55.24.53l-.13-.6Zm.14,6,0,.12h0l0-.12Zm.09-6.1,0,.12.11.1.12.56.09.07-.17-.81-.09-.06Zm.05,1,.12.57.1.06L31,6a.8.8,0,0,1-.17-.42l-.05,0Zm0,4.36,0,.12h0l0-.12Zm0-.76.08.36.06-.1,0-.2Zm.09,1.41.08.36c.05,0,.07-.13.05-.35l-.05,0Zm0-3.32,0,.2H31l0-.21Zm0-3.31,0,.29.07.36c.11,0,.13-.18.07-.48L31,3.88Zm0,5.82.08.36c0,.06.12.07.34,0l.05,0,.06.28.08,0-.06-.11V10.1l0-.16-.1-.07-.08,0,0,.08c-.05,0-.14-.08-.27-.28Zm.17-3.93,0,.12h0l0-.12ZM31.16,7l.05,0h0l0-.12Zm.17-.2,0,.12.06-.1-.05,0Zm.3-.15,0,.08h0l0-.08Zm.07,1.49v.13l0,0,.08,0,0-.08Zm.09,1.62,0,.08.12,0,0-.16h0Z"/><path class="cls-4" d="M34.09.27l.29,0L36.71.14l.37,0v0c.14,0,.26.5.36,1.54l.5,2.65,0,.28q.2.69,1.05,5.7l-.12.09-2.05.1c-.06,0-.11-.05-.13-.16l-.13-1.14,0-.13c0-.27-.08-.41-.14-.4l-.7,0,0,.21q.08,1.5-.12,1.65h0l-.33-.07-.12,0-.25,0h-.24l-.33.1-.77,0-.13-.08.23-3h0L34,.31h.08Zm.61,3.21,0,.29.09.12,0,.21,0,.16-.09.54s.08,0,.08.12l0,.2h.09v.12c-.14,0-.2.11-.19.3l-.16,0v.33l.13,0,0-.33,0,0h0l0-.25h.21V5.16l0,0,0,0V4.91l.07-.25-.11-.48V4.05c.1,0,.15-.14.14-.41A.23.23,0,0,0,34.7,3.48Zm-.07,3.78v.13l.12,0v0Zm0,.54v.12h.2V7.83Zm0,1V9l.24,0V8.81Zm0-.78v.08h.2V8Zm0,1.07v.12h.37V9.3l0,0v0l0,0h0c0-.14,0-.21.11-.21l-.12-.12v0l0,0Zm.14-7.4,0,.58a1,1,0,0,1-.06.45l.06.29h0A.3.3,0,0,1,35,2.77l-.05-1.1Zm0,3.82,0,.21v0l.08.08h0v0l0-.28ZM35,7.86v.21h0l.07-.21V7.78h0Zm0,.33v.12h0V8.19Zm0-.62.05.13h0V7.57Zm.05,1.89v.21h.17V9.54Zm0,.49v.13l.12-.05v0Zm0,.21v.08l.09.08v-.08Zm.13-2.35v.08h.09V7.81Zm.55-4.87c-.09,2.1-.17,3.3-.24,3.62l.1.29.69,0-.47-3.87Z"/><path class="cls-4" d="M40.77.37l.15.07h.29l.29,0,0,0,0,0h.12l.07.1L42,.54l.15.1.09-.07.61.09c.08,0,.11.07.1.18L42.83,1l0,.5L42.18,6l-.12.56,0,0-.16.6v.54l-.14.73,0,.46c-.1.18-.16.26-.21.26v-.5h0l-.11.53,0,0h.25a6.61,6.61,0,0,1-.08,1.15l0,0h.08l.08-.86h0l0-.05v0L42,9.48c0,.23.06.36.11.39l-.08.28,0,.28v.42l-.14.06-.32-.05-.36-.09H40.7l-.17,0c-.13,0-.19-.06-.19-.11l-.25,0-.65-.09-.11-.13,0-.17.11-1.14.08-.24,0-.13.19-.47,0-.12,0-.34.05-.36.13-.31V7.08l0-.33.08-.24V6.1L40,5.82V5.49l.34-2.77L40.71.49ZM40,7.93,40,8.38,40,8.31l0-.29Zm.07-1.07L40,7.31l.12,0,.08-.28A.24.24,0,0,0,40.08,6.86Zm0,3.36,0,.2.12,0,0-.21ZM40.19,9l0,.12h0l.1-.07v0Zm.1,1.38v0l.07.09,0-.2ZM40.43,7l0,0v0l0,.17-.06.16v0l.07.09.11-.48,0,0Zm0,2,.07.09.1-.07L40.49,9Zm.24-2-.08.28,0,.13.14-.11,0-.2L40.68,7Zm.15-1,0,.16-.08.28h0c0,.09-.05.12-.14.11v0c.08,0,.11.07.1.18h0l.09-.07.05-.32-.07-.09.1-.15,0-.13Zm-.15-1.64,0,.16,0,0h0l0-.13Zm.54,2.4V7l-.24,0,0,.2,0,0v.21l.28-.21v.21h0L41.34,7c-.05,0-.06-.14,0-.38C41.25,6.61,41.2,6.66,41.17,6.77Zm-.24-.08.07.09V6.7ZM41,6.2v0l.08,0v0Zm.06,4.36.07.09,0-.16ZM41.28,9l0,.2.07.09,0-.28Zm.1-1.69v.12h0V7.3Zm.13-.89v.08h0l0,0,0,.33L41.38,7l0,0h0c.06,0,.09,0,.1-.11C41.6,6.6,41.59,6.41,41.51,6.4Zm.08,2.08V8.6h0V8.49Zm.44.39,0,.05,0,.28h0l-.07-.09,0-.17Zm.19.48h.08c0,.14,0,.21.05.22l-.06.12,0,.12h0l.06-.12,0-.21.06-.11h.12l0,.21-.16,1.1,0,0v0h0l0,.05v0l-.09.07h-.08l0-.13.05,0h0c-.05,0-.09,0-.1.11l-.05,0h0L42,10.82l0-.29.05,0,0-.46Zm.09.51-.12.32v.5h.08l.1-.73Zm-.08-.92h.08l0,.17,0,0-.09,0Zm.33,0h.08l.07.09c-.06,0-.11,0-.15.19l-.1-.14V9Zm.16.64h.08c.14,0,.18.36.11,1v.12l0,0,0,0v.12l-.14.11h-.08l-.11-.14.05-.37,0-.61Zm0-.58.12,0,0,.16h-.12Z"/><path class="cls-4" d="M52.18,3.17l.24.16,2.13,1,.31.2,0,0q.19.09-.42,1.53l-.82,2.56-.16.24c-.11.47-.7,2.31-1.79,5.51l-.15,0-1.85-.89c-.06,0-.07-.1,0-.21l.43-1.07.09-.09q.15-.37.06-.42l-.62-.3-.13.16c-.44.91-.73,1.37-.9,1.39l0,0-.26-.21-.13,0L48,12.52l-.22-.11-.33-.07L46.7,12l-.08-.12,1.64-2.54,0,0,3.87-6.15.07,0Zm-3.82,9.18,0,.07,0,.11,0-.07Zm.08-.19,0,.11.13,0,0,0Zm.05-.93-.06.11.33.16,0,.07-.06,0v0l0,0,0,0c.06-.12.13-.17.2-.13l0-.17v0l0,0Zm.12-.26,0,.11.22.1,0-.11Zm0,.75-.09.18.15.07.05-.11ZM49,10.28l0,.08.18.08,0-.07Zm.1-.22-.05.11.18.09,0-.07Zm.12.51-.05.11,0,0,.06-.11Zm.14-.29-.09.18,0,0,.16-.15,0-.07,0,0Zm0-.7,0,.11.13,0,0,0Zm.19.46v.12l0,0,.06-.11Zm.08.31,0,.07.07,0,0-.08Zm1.59-4.06L51,6.53l0,.14-.12.17,0,.17-.34.42c.05,0,.06.08,0,.15l-.13.17.08,0-.06.11c-.12-.06-.22,0-.3.17L50,8l-.14.3.09.09.14-.3,0,.05,0,0L50.24,8l.18.09.11-.22,0,0,0-.06.07-.14.18-.19L51,7,51,6.84c.1,0,.2,0,.32-.3S51.31,6.35,51.18,6.29Zm-.85,1.86-.13.17v0l0,.11h0l0,0,.09-.28Zm2.06-1.83c-1.08,1.8-1.72,2.83-1.93,3.08l-.05.29L51,10l1.43-3.64Zm-.26-1.53-.25.51a1,1,0,0,1-.27.38L51.53,6l0,0a.35.35,0,0,1,.22-.17l.48-1Z"/><path class="cls-4" d="M58.19,7.36v.06l0,0,.12,0-.07.15.1.08s.09,0,.14,0l.07,0-.13.16,0,0h.15l0,0-.34.56,0,0,.18-.17.06.05,0,.18,0,0L58.24,9v.21l.21-.2.19-.32.2.15V8.74l.07-.09.07,0,.08-.1,0-.17c-.05.06-.09.08-.14,0l-.05-.19,0,0h-.06l0,0L58.82,8l-.19-.1V7.81l0,0,.07.05,0,0v.06l.16.12.25.15-.11.28,0,0,.22-.14.26.2c-.06.09-.06.16,0,.2h.12l0,.23,0,0,.05-.06.06.05-.07.1-.14.31-.2.26.1.07c.1-.13.17-.18.21-.14l.33.25h.14c-.13.21-.17.33-.13.37l.13,0a.8.8,0,0,1-.16.4c.05,0,.1,0,.17-.08h.06l0,0s0,.1-.06.21l.09.08.19-.17v-.06l0,0h.06l0,0,.23-.44,0,0c.14.11,0,.59-.29,1.44l-.1.13-.16-.07-.15.2.07.05.12-.16.07.05-.1.18-.25.33v.06h-.06l0,0c-.71.84-1.12,1.21-1.24,1.12l0,0,.15-.2,0,0c-.24.3-.43.39-.58.28l-.43-.13,0,0a1.49,1.49,0,0,1,0,1.73l-.32.27,0,.12-.22-.12v.06c.13.1,0,.35-.26.74l-.73.93-.07.16-.13.1-.36.46-.12.22c-.11.08-.18.11-.22.08V18c0,.06-.1.08-.14,0V18L55,18l-.11-.14-.15-.07V17.7l.2-.26,0,0h-.06l0,0-.09.19,0,0h-.06l0,0-.07-.11-.26-.14,0,0h-.06L54,17.15c-.13-.1-.13-.23,0-.38l.16-.14.2-.31.1-.13.11,0,.1.08.05.14h0l.08-.09c0-.05,0-.13-.18-.25a2.21,2.21,0,0,1,.39-.63l1.06-1.36h.06c.31-.49.38-.8.2-.94l0,0h-.06l-.19-.15-2,2.62s-.1,0-.18,0l-.05.07a.47.47,0,0,1-.1.39l-.16.14-.12.22-.13.16-.17,0-.13-.1-.13-.16-.22-.12L52.54,16l0-.19-.06-.05,0,.06-.07-.05,0-.06c0-.05.08,0,.15,0h.06l0,0v-.06h0l-.2-.15-.12.16h-.12V15.6l-.18-.09-.26-.2s0-.17.15-.4l.11-.07.07-.16.37-.33.31-.54c.2-.23.31-.33.34-.31l.44-.69,0,0v-.06l0,0h.06v-.05l.3-.39h.06v-.06l.37-.48.22-.35a4.09,4.09,0,0,1,1-.92v-.05l0,0,.09.08c0,.06,0,.11,0,.15l.16-.14.14.16H56l.05-.06,0-.12-.12,0,.1-.13s.08,0,.15,0l.07-.1q-.14-.11.09-.45V9.67l0,0h0v.05l0,0a.4.4,0,0,0-.24.17l-.13-.1.82-1.12.11-.08.12-.21.8-1,.16-.14.06.2C58,7.34,58.13,7.32,58.19,7.36Zm-6,8,0,0,0,.11,0,0,.08-.1Zm.23-.7,0,.12.09.07.05-.06Zm.12-.22-.05.07,0,0,.05-.06Zm.24,1-.13.16.07.05h.11l.13-.17-.07-.05Zm.2-.26,0,.12,0,0,.11,0,0-.06-.06,0H53Zm.34-1.77-.1.19-.06,0-.08.1.1.07.2-.26Zm-.05,1.53-.14,0V15l.1.08.05-.07Zm.06.2v.11l0,0,.12,0,0-.11,0,0Zm.38-2.3-.13.1v.06l0,0,.12-.16Zm0,2.4-.08.1.07.05.08-.1Zm.2-2.6-.07.1.09.08.06-.07Zm.19-.37,0,.06-.06.22H54l.06-.21Zm.18.24,0,0,.13.1,0,0,0-.11Zm.23.7-.15.2,0,0h.12l.05-.07,0-.11Zm.15-.66-.15.19,0,0,.15-.19Zm.12-.69-.1.13,0,0,.16.07.08.16,0-.06.09-.19-.13-.1Zm0,5.47-.05.07.19.09,0,0v-.11l0,0Zm.08-5-.07.09h.11l0,0Zm.12.24-.07.1,0,0,.07-.1Zm.14.69,0,.06,0,0,0-.07Zm.09-.71,0,.11h.05l.08-.09,0,0Zm.51-.13,0,.13-.25.11-.11.28.06.05.16-.13v.05l.13.1.1-.13v0l0,0a.1.1,0,0,0-.17,0l0-.12.18-.23Zm-.31,5-.08.1,0,0,.07-.09Zm.44-2.57-.09.19h-.12l-.11.28h.06l0,0,.14-.25.16-.2Zm-.17-3.25-.08.1.12,0,0,0Zm.15-1.6.07,0v.12l0,0-.13-.1Zm0,1.78-.08.1,0,0,.08-.1Zm.43,3-.05.06-.16.14-.12.22-.1.13.07,0,.43-.49V14.8Zm-.41-4v.06l.07,0,.07-.1,0,0Zm.17.24,0,0,.06.05,0,0Zm.36,3.08-.1.13v.12l0,0,.11-.07.1-.19,0,0Zm.51-3.39-.08.09c-.08.11-.14.15-.19.12l-.07-.11h-.06l-.17.22v.12c.07-.09.12-.12.17-.08s0,.09,0,.18v.06l.06.05.12,0,0-.18.1-.07c.13-.21.18-.33.13-.37Zm-.51.79,0,.07,0,0,.05-.06Zm0-1v.05l0,0,.08-.1Zm.16,3.81-.08.09,0,.12,0,0h.11l0-.12Zm0-1.32-.05.06.06,0Zm.09-3.26-.13.16,0,0,.13-.16Zm0,1.63,0,0,0,.11.07-.1Zm.27,1.52-.27.35.06.06.23-.3Zm-.22,1.75,0,.12.05-.07Zm.13-3.43-.08.09,0,0,.07-.1ZM56.7,16v.06l0,0h0l.05-.06,0,0Zm.35-4.4-.25.27.09.08.1-.13.1-.19Zm-.13-3-.08.1,0,0L57,8.69Zm.22.12,0,0L57.05,9l-.14.1,0,0v.12H57l0,0L57.08,9l.13-.1V8.83Zm-.24,4.91.07.05.05-.06ZM57,14.82l0,0L57,15l0,0,.07-.1Zm0,.94,0,0,0,0,.12,0,0,0,0,0Zm0-2.32v.12l.1-.13Zm.94-5.34v.14l-.45.59-.25.38-.16.13V9.4l0,0,0-.07,0,0V9.33l0-.06L57.49,9l.22-.35.07-.1L58,8.38l.11-.27,0,0Zm-.77,7.46-.07.09.1.08.07-.1ZM58.45,9.9l-.15.2-.07,0-.12.16h-.06l0,0v.06l0,0h.06l-.27.42,0,0v.06l0,.06h-.06v.06l-.32.42q-.18.23-.24.18l0,.12.36.27a.34.34,0,0,0,.34-.1l.06.05-.11.08c-.23.33-.33.52-.28.56l.17,0A2.54,2.54,0,0,1,58,11.8h.06l.26.2c0,.07-.06.12,0,.15l0,0,.08-.09.14-.25,0,0c-.07.09-.13.11-.17.08s0-.12,0-.24l.11-.07.21-.41-.06-.05-.26.27,0,0v-.05l0,0,.16-.13.13-.17q.12-.15.06-.21h.06a.57.57,0,0,0-.1-.8l-.07,0Zm-1.2,2.81-.1.13V13l.15-.2Zm-.06,2.35,0,0,.07.05,0,0ZM57.36,12l0,.06-.09.19.09.07.14-.1.06-.21,0,0Zm0-2.51-.05.06,0,0h.06l0,0,0-.12Zm.23,4.64-.26.27v.06l0,0h.06l.17-.23Zm-.19,1.11-.05.06.07.05.05-.06Zm.44-7.3-.33.42.07.05L57.83,8Zm-.24,4.85-.08.1,0,0,.08-.1Zm.53-4.37h0l-.1.13c-.14.17-.15.3,0,.39L57.84,9,57.69,9,57.61,9l.06.05,0,0-.14.05,0,.17h.12l0,0-.15.19s0,.11.14.22l0,.17h.15l0,0c-.14.24-.2.37-.15.4l0,0,.15-.2H58l.2-.47.19-.17.12-.16-.06-.05,0,0-.28.3,0,0-.14,0v.06l-.08.1-.06-.05s0-.11,0-.21L57.8,9.6l0,.07,0,0,.1-.18.06,0,0,.06.1.08c.07-.08.13-.11.16-.08a.65.65,0,0,0,0-.44l.16-.55a.29.29,0,0,1-.21.14L58,8.61h.06l.08-.1Zm-.27,5.3-.22.35.11,0,.05-.06V13.9h0l.05-.06v-.11Zm-.14-.83-.05.06.1.08.11-.07v-.06l0,0Zm0-3.74.09.07-.1.13,0,0V9.18ZM58,12l-.22.35,0,0c-.09.18-.12.28-.08.31l0,0,.13-.16.12-.22.16-.14v0Zm-.24-4.5-.1.13,0,0,.1-.12Zm.65,4.92c-.12.15-.2.21-.24.17L58,12.44l-.09.19h-.06l0,.12H58l.07,0s0,.14-.08.3l0,0c.14-.17.24-.24.3-.18s0,.08,0,.14l.06.05c.12-.15.13-.27,0-.35s0-.17.13-.37Zm-.32-4.87.07.05.05-.07Zm.11,4.66-.1.13.07,0,.1-.13Zm.46.35-.18.23,0,0,.18-.22Zm.19-1.25-.25.32,0,.12.15-.14.13-.16,0-.11Zm-.2-2.34,0,0,.07,0,.07-.1Zm.23,3.3-.17.23,0,0,.18-.22Zm0-.47,0,.07,0,0L59,11.8Zm0-3.71,0,.12,0,0L59,8.11Zm.55,4.22-.12.17h-.06v.06l-.15.2-.19.16-.08.31,0,0,.23-.23,0-.12.24-.24.14-.25ZM58.94,9.4l0,0v.11l0,0,.08-.1ZM59,11.55l0,.12h.06l0,0Zm.32,0-.19.11-.09.19.06.05.18,0C59.39,11.7,59.41,11.59,59.35,11.54Zm0,.38a.18.18,0,0,1-.29,0l0,.11,0,0c.11.08.11.19,0,.32l.07.05.15-.19c.09-.12.1-.2,0-.27Zm-.08-1.16,0,.07,0,0,0-.06Zm.14-2.32-.07.09,0,0,.11-.07Zm.16.53-.13.11v.05H59.4l.1.08V9.16h.06l.05-.06Zm-.11,2.41,0,.07,0,0,0-.06Zm.12,1.18-.05.07,0,0,.05-.06Zm.12-.16-.1.13,0,0,.11-.13Zm.24-.7-.08.1.12,0,0,0Zm0-1.06,0,.07,0,0,.05-.06Zm.48-1.34.06,0s0,.08,0,.15l-.16.13-.06-.05,0-.11Zm.1.86,0,0,0,.06-.12,0v-.06l0,0Zm.13-.63c.12.25.16.4.12.46h-.06l0,0q-.26-.29-.12-.45h.06Zm-.05,1.21,0,.06.06,0,0-.06Z"/><path class="cls-4" d="M65.31,13.27v.06l-.12.05-.29.35.08.1.18-.11.23-.3h.06l.11.13.07.15.22.19L66.9,15.1l-.13.17-1.24,1.07-.19.1a4.69,4.69,0,0,1-.58-.8l-.14-.1v0c-.13,0-.36.14-.7.44l0,0a.11.11,0,0,1-.17,0l-.09.08.05.06-.06.05-.16.2-.36.09,0-.07c.15-.16.2-.26.17-.3l0,0-.06,0,0,0v.06l-.28.24h-.12c.07-.05.08-.1,0-.14s-.12,0-.23,0l0,0L62.7,16l.16-.14,0-.06s-.13,0-.3.09a.12.12,0,0,0-.18,0l0,0,0-.37-.27.12,0,0,.06-.11h.06l.09-.08,0-.14.25-.21-.08-.1-.22.19-.13-.15-.15.13.07.21,0,0c-.06-.07-.14-.08-.26-.05l-.47.4c-.11.12-.15.2-.1.25s.17-.1.2-.07l.13-.16.13-.11,0,0v.12l-.16.13,0,.06.28-.18,0,0s0,.13-.08.29l0,0,.31-.21.08.09h-.06l0,0v.12l0,0,.19-.22.11.12h-.06l0,0s0,.15-.2.33h-.06l0,0-.47.46-.15.14,0,0h.12l0,0,.28-.3.22-.13,0,.06-.19.22-.09.08,0,.06.15-.13h.18l-.1.2,0,0,.27-.12.06.06c-.12.16-.16.25-.14.28l-.3.15-.44.49h-.06l-.35.35-.93.8-.3.21-.29.3-1.33,1.16-.18,0-1.31-1.52,0-.14h.06l.35-.35L60,16.37l.37-.26.12-.17h.06l0,0,.07-.11a1.39,1.39,0,0,0,.67-.36,1.41,1.41,0,0,1,.32-.5l.12,0,1.27-1,0,.06-.06.11H63l0,0-.14.28-.12.05.06.06.09-.08.18-.11.06.07-.16.19,0,.06.18-.1,0,0s0-.11-.1-.24l.07-.05,0,0,.15,0,.11-.31,0,.06,0,0v.06l.05.06.14.1.07.27.34.08.08.15.09-.08v-.12l-.15,0,0-.17H64l0,0,0-.12h-.11l0,0,.1-.14h.06l-.06-.06.19-.17c.16-.19.21-.31.17-.36l.18-.05c-.11-.12,0-.31.27-.56l.06.06v.12l-.16.13.06.07.21-.13.05.06-.13.22.08.09.13-.1,0,0s0,.15-.25.33h.11l.19-.22s.1,0,.18,0h.06Zm-6,4.35-.07.06.06.06.06,0Zm.85,1-.18.16V19l.12-.05C60.15,18.77,60.17,18.67,60.12,18.62Zm.3-2.05-.25.22.06.06.24-.21Zm.57.16-.12.11.05.06.06,0Zm.1.62-.09.08,0,.06.09-.08Zm0-1.42L61,16l0,0,.09-.08Zm.48.61-.31.27,0,.06.15-.13.13-.17Zm.1,1h-.06l0,0v.12l0,0,.06-.05Zm.44-.43-.12.05v.05l0,0h.06l.06-.11Zm.22-.74,0,0v.11l-.18.11,0-.07h.06V16.5Zm.26-3.91.08.09a.18.18,0,0,0,0,.29l-.13.17-.06.05-.22-.19,0-.14Zm-.22,2.25-.09.08.08.1,0,0v-.12Zm.06,1.2.08.09,0,0-.09-.09Zm0,.67,0,0-.06.05,0,0Zm.5,0,0,0v.17l-.45.23,0-.06c.08-.07.1-.13.07-.17C62.8,16.61,62.94,16.55,63,16.59Zm.91-4.91v.12L63.6,12l0,0h.17l.05.18c.2-.18.33-.25.36-.21s0,.15-.2.34l0,0q.28-.24.33-.18l.06.06-.13.17.08.09.15-.13.08.09-.12.11c-.21.26-.29.42-.24.47-.18.06-.3.08-.35,0V13l.15-.13,0-.07-.25.22a.35.35,0,0,1-.27.07.19.19,0,0,1,0-.24l.12,0v-.06l0,0-.34.23V12.8h.06l.07-.11,0-.06,0,0-.06.11L63,12.9V13l.13.1,0,0-.21.13-.1.14,0-.07.1-.19.15-.08L63,13l-.31.27-.08-.1.43-.37-.08-.09-.09.08,0-.07.16-.25.12,0,0,0s0,.1-.1.19l.08.1.27-.13,0-.2-.08-.1c-.06.06-.11.06-.14,0l0,0,0,0h.21c0-.05,0-.16.14-.34l.15-.08,0,0Q63.83,11.62,63.89,11.68Zm-1,.54,0,.06-.06.05,0,0-.18.1-.06-.06Zm.26,1.24,0,.14,0,0H63l-.05-.06.1-.14Zm-.1-1.38,0,0v.11l-.06.06-.08-.1Zm.47,1.44v.11l0,0h0v.06l-.09.08-.18.1,0,0v-.17l.24-.1.07-.11h.06Zm-.21,2.13-.16.14h.12l0,0Zm.11-1.12-.12.05-.07.11,0,0c.08-.07.14-.09.18-.05l0,.15,0,0S63.5,14.67,63.42,14.53Zm0,1-.12.1,0,0,.12-.11Zm.36-.85-.1.08.06.06,0,0-.15,0a.57.57,0,0,1-.23.3l0,0,.24-.15.29-.3Zm-.27-.31-.07.11,0,0,.09-.08Zm.3.66-.09.08,0,.18h.12L64,15.2ZM64,11.89l0,0-.13.1,0,0Zm-.08,3.43.08.09.07-.05,0,0Zm.75-.32-.09.08,0,0,.09-.08Zm.16.3-.07,0,0,0,.06-.05Z"/><path class="cls-4" d="M69.89,18.83c.17.3.22.53.15.67l.13.07a2,2,0,0,1-.1,1.66l-.31.36-.07,0h-.06l0,0c.05.08-.4.41-1.33,1l-.13-.06-.24-.43v-.06h0l-.51-.89v-.06l0,0,0,0c-.06-.16-.06-.25,0-.28l.1-.06,0,.07.07-.13.36-.11,0,0c.42-.37.6-.6.55-.69l0-.07q-.21-.36-.78,0l-.32.18a1.65,1.65,0,0,0-.7,1.58C66.42,23,66,24,65.36,24.32c0,0-.25.24-.83.61l0,0V25l-.25.14h-.06v.05l-.07,0s-.1,0-.16-.1H63.9l-.07,0a.29.29,0,0,1,0,.22,2.07,2.07,0,0,1-.82.22v.06l0,0a1,1,0,0,1-.68,0l.11-.06-.05-.07-.15.13a2.38,2.38,0,0,1-1.54-1.2l.13-.12a.57.57,0,0,0-.33-.24l.06-.22-.13-.07,0,0,0-.12h-.05l0,0c-.1-.29-.11-.46,0-.51l-.1-.18c-.05-.29.11-.54.47-.74l.07,0L60.69,22l-.22.12,0,0c0-.21.27-.53.74-.94l.12,0,0,0a.5.5,0,0,1,.19-.25l.5-.28.37-.26.13,0,.16-.14.15.1.33.66.1.09,0,.06.24.33.26.47,0,.16c-.29.15-.45.21-.46.18L63.06,22v-.06l.06,0,.07-.05,0-.11,0,0-.11.06v.05H63l0,0-.09.1-.3.12-.16.14,0,.07h0l0,0c0,.07-.17.2-.44.39,0,.06,0,.2-.08.43l.08.23.25.19c.36-.14.55-.19.58-.14v.06l-.2.06-.13.12.17.05.11-.07v-.05h.19L63,23.39c.78-.43,1.17-.94,1.17-1.51a7.12,7.12,0,0,1,.71-2.66l.93-.86.2-.06.08-.1.13,0,.23-.18c1-.53,1.83-.6,2.38-.22l0,.06c.1,0,.17,0,.2,0S69,18,69,18l0,.07c.09-.06.15-.06.18,0l0,0-.44.3.11,0,.32-.18.2-.06.07.19.11,0,0,0,0,.06.15.1c-.07.09-.1.15-.08.19l0,0C69.78,18.76,69.85,18.76,69.89,18.83Zm-9.52,3.66,0,.05,0,.07.11,0,0-.11Zm0,.64s0,.11,0,.27l0,0,0,.06,0,.07.12,0,.07,0,0,0-.18-.23,0,0Zm.29-.5-.16.14,0,.07a.21.21,0,0,1,.33.1l.07-.05,0-.11C60.84,22.66,60.73,22.61,60.69,22.63Zm.33.85-.39.13,0,.06,0,.07.39-.22ZM60.68,23l0,0,0,.08,0,0Zm.52,1-.34.24,0,0,.34-.14,0-.06Zm.19.17-.07,0,0,0,.07,0Zm.19-2.65-.25.14.06.11.2-.07.09-.1Zm-.07-.2-.07,0,0,0,.07,0Zm.23.48-.25.14,0,.08.25-.15Zm.09.57-.11.06,0,0,.13,0Zm.62-.64-.39.13,0,0,.06.11.39-.23Zm.52-.34-.16.14-.06,0v0l-.09.09,0,.07.07,0,0,0,.09-.1.12,0,0,.07-.38.31-.31.13V22l0,0,0,0,.82-.47-.08-.14-.07,0,0-.07.07,0,0,0Zm-.17-.47-.15.08,0,0,.14-.08Zm0-.33-.07,0,0,0,.07,0ZM63,22.07l.06.11,0,0-.2.07,0-.08L62.9,22Zm.11,2.86-.07,0-.23.18.17.05.17-.2ZM63,23.87h-.05l-.11.06,0,.07h.05l0,0,0,.06,0,0v.05l.06.11.11-.06-.06-.11Zm.19.42q-.37.24-.33.33l.32-.19,0-.11Zm1.51-2.75-.18.1,0,0,.18-.1Zm1.44-1.85-.14.08.06.1.14-.08Zm0-1-.07,0,.06.11.07,0Zm.06,1.19,0,0,.06.11.11-.06,0,0Zm1.34,1-.07,0,0,0,.07,0Zm.78-.44-.19.06-.22.12.17,0,.11-.06.15-.14ZM68.41,18l0,0,0,.11.18-.1Zm.2,2.34-.14.08.11,0,.14-.08Zm0-1.84-.08,0,0,.12.07,0Zm.12-.35-.1.06,0,.07.1-.06Zm1.2,1.44-.26.05-.28.26-.46.26-.16.14,0,0q.06.11.21,0a.8.8,0,0,1,.29-.31c.22-.11.35-.14.38-.08l0,.11.11-.06-.08-.14.25-.14,0-.11Zm-1.05-.68-.1.06.06.11.1-.06Zm.5.05-.43.24s.08,0,.15,0l.3-.22Zm.08,1.13,0,.06,0,0,.11-.07Zm.28.41-.25.14,0,0,.11,0,.18-.1Zm.35.13-.23.18-.07,0,0,0,.11,0,.22-.12,0-.11h-.06Z"/></g></g></g></svg>