<svg xmlns="http://www.w3.org/2000/svg" viewBox="0 0 74.8 74.8"><defs><style>.cls-1{opacity:0;}.cls-2{fill:#fff;}.cls-3{fill:#f9f;}.cls-4{fill:#c9f;}</style></defs><title>orb-familytree-wtext-noshadow</title><g id="Layer_2" data-name="Layer 2"><g id="Layer_1-2" data-name="Layer 1"><g id="orb-familytree-wtext-noshadow"><g class="cls-1"><circle class="cls-2" cx="37.4" cy="37.4" r="37.4"/></g><circle class="cls-2" cx="37.4" cy="37.4" r="24.93"/><path class="cls-2" d="M48.7,40.92a22.82,22.82,0,0,0-2.77,9.2.69.69,0,0,1-.64.67c-1.21.26-2.42.57-3.65.73a33.26,33.26,0,0,1-9.76,0,1.76,1.76,0,0,1-.33-.07,10.34,10.34,0,0,1-1.78-.6c-.67-.35-.3-1-.38-1.56a18.16,18.16,0,0,0-2.7-7l-.25-.42C33.94,43.33,41.37,43.77,48.7,40.92ZM37.64,44.18a13.25,13.25,0,0,0,.15,5.74A12,12,0,0,0,37.64,44.18Zm7.13-.64a8.26,8.26,0,0,0-1.24,6Zm-11.2.58,1.16,5.75A7.5,7.5,0,0,0,33.57,44.12Zm-1.69,5.46a7.7,7.7,0,0,0-1.18-5.8Zm10.44-5.72a8.22,8.22,0,0,0-1.22,6Z"/><path class="cls-2" d="M31.26,41.74c-1.05-.18-2.35-.36-3.63-.63-.78-.16-1.28-1.41-1-2.29a2.29,2.29,0,0,1,1.81-1.59c1.14-.25,2.32-.37,3.48-.51,2.79-.34,5.6-.59,8.37-1a13.44,13.44,0,0,0,5.59-2,.71.71,0,0,1,.6-.05,5.08,5.08,0,0,1,1.39,1c.75,1,.84,1.66-.25,2.49a16.31,16.31,0,0,1-4.75,2.34A50.17,50.17,0,0,1,31.26,41.74Z"/><path class="cls-2" d="M35.56,24.14a20.09,20.09,0,0,1,5.33,2.94,3.69,3.69,0,0,1,1.47,2.85.87.87,0,0,1-.73,1,27.19,27.19,0,0,1-3.22.71c-1.77.21-3.56.33-5.35.41a1.23,1.23,0,0,1-1.4-1.58A2.22,2.22,0,0,1,33,28.91a6.65,6.65,0,0,1,1.31-.49c1.71-.45,2.37-1.47,1.85-3A11.11,11.11,0,0,0,35.56,24.14Z"/><path class="cls-2" d="M29.05,36.4a1.58,1.58,0,0,1,.59-2.55,8.55,8.55,0,0,1,2.75-.79c2.51-.31,5-.47,7.58-.77a7.85,7.85,0,0,0,4-1.4.59.59,0,0,1,.13,0c.72.45,1.48.94,1.37,1.83a2.07,2.07,0,0,1-1.82,1.55c-1.63.35-3.29.6-4.95.8-2.65.32-5.32.55-8,.86A10.18,10.18,0,0,0,29.05,36.4Z"/><path class="cls-2" d="M36.47,42.06a31,31,0,0,0,12-4.62,2.42,2.42,0,0,1-1.64,3.26c-2.24.5-4.52.85-6.79,1.18C38.88,42,37.66,42,36.47,42.06Z"/><g id="Layer_2-2" data-name="Layer 2"><g id="Workspace"><path class="cls-3" d="M14.93,37.45A22.46,22.46,0,0,1,42.28,15.52V13a24.93,24.93,0,1,0,0,48.9V59.36A22.45,22.45,0,0,1,14.93,37.44Z"/><path class="cls-4" d="M43.24,13.21v2.55a22.46,22.46,0,0,1,0,43.37v2.56a24.94,24.94,0,0,0,0-48.48Z"/><path class="cls-3" d="M23.05,38a2.73,2.73,0,0,1,.78-.52,2.59,2.59,0,0,1,.92-.17,1.82,1.82,0,0,1,.65.12,1.32,1.32,0,0,1,.47.34,1.44,1.44,0,0,1,.29.51,2.22,2.22,0,0,1,.1.67v2.78h-.34a.38.38,0,0,1-.17,0,.26.26,0,0,1-.09-.14l-.09-.41-.33.28a2.33,2.33,0,0,1-.34.2,1.79,1.79,0,0,1-.39.13,1.68,1.68,0,0,1-.45,0,1.25,1.25,0,0,1-.47-.07,1,1,0,0,1-.39-.21,1,1,0,0,1-.26-.36,1.25,1.25,0,0,1-.1-.51A1,1,0,0,1,23,40.1a1.32,1.32,0,0,1,.46-.42,2.76,2.76,0,0,1,.83-.3,5.84,5.84,0,0,1,1.25-.14V38.9a1.15,1.15,0,0,0-.22-.76.76.76,0,0,0-.63-.26,1.33,1.33,0,0,0-.48.07,1.66,1.66,0,0,0-.33.16l-.24.16a.4.4,0,0,1-.19.07.33.33,0,0,1-.14,0l-.09-.1Zm2.47,1.77a6.86,6.86,0,0,0-.9.09A2.64,2.64,0,0,0,24,40a.87.87,0,0,0-.32.25.57.57,0,0,0-.11.33.72.72,0,0,0,.06.29.54.54,0,0,0,.16.21.57.57,0,0,0,.22.11.9.9,0,0,0,.28,0,1.5,1.5,0,0,0,.37,0,1.75,1.75,0,0,0,.32-.12,1.67,1.67,0,0,0,.28-.18,3.07,3.07,0,0,0,.26-.25Z"/><path class="cls-3" d="M27.59,41.68V37.34h.46a.18.18,0,0,1,.2.16l.06.44a2.07,2.07,0,0,1,.54-.48,1.31,1.31,0,0,1,.69-.19,1.07,1.07,0,0,1,.71.24,1.36,1.36,0,0,1,.39.66,1.45,1.45,0,0,1,.58-.69,1.68,1.68,0,0,1,.39-.16,2,2,0,0,1,.42,0,1.78,1.78,0,0,1,.61.11,1.2,1.2,0,0,1,.45.32,1.48,1.48,0,0,1,.29.52,2.32,2.32,0,0,1,.1.7v2.76h-.77V38.92a1.16,1.16,0,0,0-.22-.77.79.79,0,0,0-.64-.27,1,1,0,0,0-.66.26.83.83,0,0,0-.2.32,1.16,1.16,0,0,0-.08.45v2.76h-.76V38.92a1.26,1.26,0,0,0-.21-.78.77.77,0,0,0-.62-.26,1,1,0,0,0-.52.16,1.72,1.72,0,0,0-.44.41v3.24Z"/><path class="cls-3" d="M35.78,36a.54.54,0,0,1-.05.21.66.66,0,0,1-.12.17.45.45,0,0,1-.17.11.54.54,0,0,1-.22.05.46.46,0,0,1-.2-.05.34.34,0,0,1-.17-.11.66.66,0,0,1-.12-.17.52.52,0,0,1,0-.21.49.49,0,0,1,0-.21.57.57,0,0,1,.12-.18.43.43,0,0,1,.17-.12.45.45,0,0,1,.2,0,.78.78,0,0,1,.22,0,.66.66,0,0,1,.17.12.57.57,0,0,1,.12.18A.46.46,0,0,1,35.78,36Zm-.16,1.36v4.34h-.76V37.34Z"/><path class="cls-3" d="M37.82,35.37v6.31h-.76V35.37Z"/><path class="cls-3" d="M43,37.34,40.56,43a.36.36,0,0,1-.1.14.23.23,0,0,1-.18,0h-.56l.79-1.72-1.8-4.08h.66a.17.17,0,0,1,.15,0,.18.18,0,0,1,.08.11l1.16,2.73a2.4,2.4,0,0,1,.12.38c0-.14.08-.26.13-.39l1.13-2.72a.22.22,0,0,1,.09-.12.2.2,0,0,1,.13,0Z"/><path class="cls-3" d="M28.94,36.2a.37.37,0,0,1-.27-.09.37.37,0,0,1-.09-.28v-.75h-.14a.06.06,0,0,1-.05,0,0,0,0,0,1,0-.05v-.12l.21,0,.07-.37,0,0h.22v.42h.36v.23H28.9v.73a.13.13,0,0,0,0,.1.11.11,0,0,0,.08,0,0,0,0,0,0,.05,0h0l0,0h.05l0,0,.1.16a.51.51,0,0,1-.16.09A.46.46,0,0,1,28.94,36.2Z"/><path class="cls-3" d="M29.84,35a1,1,0,0,1,.17-.12.59.59,0,0,1,.23,0,.43.43,0,0,1,.19,0,.28.28,0,0,1,.14.1.51.51,0,0,1,.09.16.64.64,0,0,1,0,.2v.86h-.33v-.86a.27.27,0,0,0-.05-.19.21.21,0,0,0-.17-.06.29.29,0,0,0-.16,0,.45.45,0,0,0-.14.1v1h-.32V34.24h.32Z"/><path class="cls-3" d="M31.3,35.55a.57.57,0,0,0,0,.18.36.36,0,0,0,.08.12.28.28,0,0,0,.11.08.36.36,0,0,0,.14,0,.32.32,0,0,0,.14,0l.1,0,.07,0,.07,0s0,0,.06,0l.09.11a.43.43,0,0,1-.12.11l-.14.07-.15,0h-.14a.75.75,0,0,1-.26,0,.6.6,0,0,1-.21-.14.55.55,0,0,1-.14-.23.67.67,0,0,1-.05-.31.64.64,0,0,1,.17-.47.62.62,0,0,1,.2-.15.86.86,0,0,1,.27,0,.59.59,0,0,1,.23,0A.62.62,0,0,1,32,35a.76.76,0,0,1,.12.19.75.75,0,0,1,.05.26.36.36,0,0,1,0,.1,0,0,0,0,1-.06,0Zm.61-.19a.49.49,0,0,0,0-.12.21.21,0,0,0-.06-.1.22.22,0,0,0-.09-.07l-.12,0a.3.3,0,0,0-.22.08.38.38,0,0,0-.11.23Z"/><path class="cls-4" d="M48.57,37.43a2,2,0,0,0-.49.62l-.06-.5a.26.26,0,0,0-.24-.27h-.69v4.4h1.06V39a2.3,2.3,0,0,1,.15-.32,1.37,1.37,0,0,1,.19-.23,1.28,1.28,0,0,1,.25-.15,1.13,1.13,0,0,1,.32-.05l.24,0,.19,0a.15.15,0,0,0,.11,0,.15.15,0,0,0,.06-.11l.07-.79a.81.81,0,0,0-.48-.13A1,1,0,0,0,48.57,37.43Z"/><path class="cls-4" d="M54.06,39.53a.86.86,0,0,0,0-.32,2.4,2.4,0,0,0-.15-.84,1.71,1.71,0,0,0-.39-.63,1.61,1.61,0,0,0-.61-.38,2,2,0,0,0-.76-.14,2.43,2.43,0,0,0-.89.17,2,2,0,0,0-1.08,1.16,2.69,2.69,0,0,0-.14.84,2.73,2.73,0,0,0,.17,1,2,2,0,0,0,.46.74,2,2,0,0,0,.68.45,2.45,2.45,0,0,0,.85.15,3.87,3.87,0,0,0,.48,0,2.11,2.11,0,0,0,.48-.12,2.77,2.77,0,0,0,.46-.22,1.85,1.85,0,0,0,.39-.35l-.3-.38a.23.23,0,0,0-.2-.1.36.36,0,0,0-.2.06l-.25.13a1.83,1.83,0,0,1-.32.14,1.38,1.38,0,0,1-.45,0,1.25,1.25,0,0,1-.47-.07,1.13,1.13,0,0,1-.36-.24,1.16,1.16,0,0,1-.25-.41,2,2,0,0,1-.12-.58h2.71A.25.25,0,0,0,54.06,39.53ZM51.16,39a1.33,1.33,0,0,1,.34-.74,1,1,0,0,1,.72-.26,1.15,1.15,0,0,1,.41.08.84.84,0,0,1,.3.22,1.09,1.09,0,0,1,.17.32,1.21,1.21,0,0,1,.06.38Z"/><path class="cls-4" d="M58.3,40.54a.36.36,0,0,0-.2.06l-.24.13a2.26,2.26,0,0,1-.33.13,1.09,1.09,0,0,1-.44.06,1.13,1.13,0,0,1-.48-.08.88.88,0,0,1-.36-.24,1,1,0,0,1-.25-.4,2,2,0,0,1-.12-.59H58.6a.2.2,0,0,0,.19-.08.7.7,0,0,0,.06-.32,2.4,2.4,0,0,0-.15-.84,1.86,1.86,0,0,0-.39-.63,1.61,1.61,0,0,0-.61-.38,2,2,0,0,0-.76-.14,2.43,2.43,0,0,0-.89.17,1.94,1.94,0,0,0-.66.47,1.89,1.89,0,0,0-.42.69,2.42,2.42,0,0,0-.13.84,2.94,2.94,0,0,0,.15,1,2.19,2.19,0,0,0,.46.74,2,2,0,0,0,.69.45,2.45,2.45,0,0,0,.85.15,3.59,3.59,0,0,0,.47,0A2.07,2.07,0,0,0,58,41.6a2.35,2.35,0,0,0,.45-.22,1.9,1.9,0,0,0,.4-.35l-.31-.38A.21.21,0,0,0,58.3,40.54Zm-2-2.31A1,1,0,0,1,57,38a1.15,1.15,0,0,1,.41.08.89.89,0,0,1,.29.22.92.92,0,0,1,.18.32,1.21,1.21,0,0,1,.06.38h-2a1.33,1.33,0,0,1,.34-.74Z"/><path class="cls-4" d="M47.62,33.19a6.69,6.69,0,0,1,.14-1l.13-.44a2.56,2.56,0,0,0-.39,0,3.08,3.08,0,0,0-1.53.81,3.61,3.61,0,0,0-.81,1.12A2.25,2.25,0,0,0,45,34.83a3.15,3.15,0,0,0,.3,1,.32.32,0,0,1,0,.36s-.06.09-.1.13l-.1.15v-.52h-.55a.24.24,0,0,0-.16.05.22.22,0,0,0-.08.13l-.06.34a6.08,6.08,0,0,0-2.56-2.31,4,4,0,0,1,1.35.68A8.39,8.39,0,0,1,44.11,36c0-.08,0-.14,0-.2a1.41,1.41,0,0,0-.22-1.18,2.18,2.18,0,0,0-1.54-1,2.69,2.69,0,0,0-1,0,3.26,3.26,0,0,0-.71.22l-.12.08.09.06a5.29,5.29,0,0,1,.69.8c.19.25.37.51.57.76a1.76,1.76,0,0,0,.92.62,2.89,2.89,0,0,0,.87.11.35.35,0,0,1,.14.06.69.69,0,0,1,.11.13l.21.25-.11.63-.71.12v.41a.24.24,0,0,0,.06.17.2.2,0,0,0,.15.06H44v2.45a1.29,1.29,0,0,0,.31.89,1.16,1.16,0,0,0,.88.32,1.87,1.87,0,0,0,.62-.1,1.44,1.44,0,0,0,.53-.29L46,40.85a.23.23,0,0,0-.07-.07.11.11,0,0,0-.07,0,.11.11,0,0,0-.08,0l-.09,0-.11,0-.16,0a.36.36,0,0,1-.28-.12.5.5,0,0,1-.1-.31V38.08h1.17v-.76H45.07v-.56l0-.06c.11-.16.23-.31.33-.47a13.16,13.16,0,0,0,.87-1.91c.15-.43.32-.86.49-1.29a3,3,0,0,1,.16-.31c-.06.18-.07.35-.13.52-.15.43-.28.87-.43,1.3s-.28.75-.42,1.11c-.07.17-.16.33-.23.5h.13a1.56,1.56,0,0,0,.87-.51c.1-.11.2-.22.3-.35a1.91,1.91,0,0,0,.43-1A10.74,10.74,0,0,0,47.62,33.19Z"/><path class="cls-3" d="M23.44,32.35a2.77,2.77,0,0,0-2.76,2.76v.82h-.12a.34.34,0,0,0-.33.38.35.35,0,0,0,.33.33h.12v4.74a.36.36,0,0,0,.71,0V36.64h1.45a.36.36,0,0,0,0-.71H21.39v-.82a2,2,0,1,1,4.09,0,2,2,0,0,1-.27,1,.36.36,0,0,0,.62.36,2.77,2.77,0,0,0-2.39-4.14Z"/><path class="cls-3" d="M20.05,40.18a5,5,0,0,0-.42-.79,9.14,9.14,0,0,0-.67-.84l-.82-.87a7.86,7.86,0,0,1-.79-.94,3.09,3.09,0,0,1-.5-1.11,2.32,2.32,0,0,1,0-1.17,2.2,2.2,0,0,1,.54-1,2.53,2.53,0,0,1,.84-.6,2.33,2.33,0,0,1,.9-.21,2.63,2.63,0,0,1,.79.09,2.35,2.35,0,0,1,.57.23l.2.13.13.1.11.1-.08-.12-.1-.15-.17-.17a2.39,2.39,0,0,0-.56-.4,2.75,2.75,0,0,0-2-.21,3.12,3.12,0,0,0-1.17.64,2.62,2.62,0,0,0-.5.55,2.87,2.87,0,0,0-.35.7,3.11,3.11,0,0,0-.08,1.63,3.6,3.6,0,0,0,.27.78,4,4,0,0,0,.42.65,7.64,7.64,0,0,0,1,1c.32.28.63.52.92.75a9.59,9.59,0,0,1,.75.68,4.46,4.46,0,0,1,.52.63,2.58,2.58,0,0,1,.42.94l0,.14v-.15a2,2,0,0,0,0-.42A3.58,3.58,0,0,0,20.05,40.18Z"/></g></g><path class="cls-3" d="M2.11,26.87l.11-.05.34.13,0,0-.08-.16.14-.12c-.26-.1-.38-.17-.36-.22s.15-.05.39,0v0c-.23-.08-.34-.15-.32-.2l0-.08.21,0,0-.11L2.45,26l0-.12.15.06q.5.08.54,0c.14.13.2.22.2.29l-.11.05-.19-.07,0,.08.31.11a.32.32,0,0,1,.19.2c-.06.09-.14.13-.21.1l-.1-.08-.06,0v0l.37.18-.16.07,0-.05H3.23l0,.07,0,0h.13l.22.12.1-.05,0-.16h0l.22.12.16,0,0,.08H3.88l-.14-.09,0,.12.39.14,0,.11-.54-.19,0,.11.12,0,0,.08-.3,0-.1-.08,0,0c0-.05.09-.05.22,0l0-.11-.24-.18L3,27l0,.12q.12,0,.09.12v0l0,0-.11-.17c0,.06-.15.07-.37,0l-.14-.09v0C2.18,27,2.09,26.92,2.11,26.87Zm.12-.22,0,0,.15.06v0Zm.57-1.8.05,0,.11.08.45.08,0-.12-.18-.11-.37-.05,0-.05.06-.15L3,24.36l.06-.28.55-1.5.2,0,1.55.56.18.11a4.84,4.84,0,0,1-.42.9l0,.16,0,0c.06.11.3.24.73.39l0,0a.1.1,0,0,1,.07.15l.11.05,0-.08.08,0,.24,0,.26.27,0,.07c-.22,0-.33,0-.35,0l0,0,.08,0v0l0,0,.35.13.05.1c-.08,0-.13,0-.15,0s0,.12.15.18v0l-.3,0-.19-.07,0,.08s.06.11.23.21a.11.11,0,0,0,.07.16v0l-.36.13.25.17,0,0H6.23l0,0-.12-.05-.14,0-.31-.11,0,.11.27.1-.07.19.19.07.15-.16h0a.24.24,0,0,0,.08.25l.58.21q.24.06.27,0C7,27.11,6.93,27.06,7,27l-.21,0-.15-.05v0l.11-.05.19.07,0-.08-.3-.15,0,0s.11-.07.28-.07l0,0-.34-.16,0-.12,0,.06h0l.1-.05,0,0-.29-.06L6.61,26l0,.05h0s.15,0,.39,0l0,0h0l.63.19.19.07v0l0-.11h0l-.4-.1L7.26,26l0-.08.28.06.12,0,0-.08-.19-.07-.07-.15h.22v0l-.24-.18,0-.07c.19,0,.3,0,.31,0l.28.19.65.15,0,0,.48.13,1.15.42.34.16.4.1,1.65.61.08.16-.69,1.88-.12.09,0-.05-.48-.13L8.09,28l-.41-.19-.21,0,0-.05,0,0H7.28a1.45,1.45,0,0,0-.64-.41,1.59,1.59,0,0,1-.59,0L6,27.13l-1.53-.6,0-.08h.12l0,.05H5l.1.08,0-.08-.12,0-.18-.11,0-.08.25,0,0-.08-.18-.11h0s-.11.05-.16.2l-.08,0v0l-.09-.12-.33.06,0-.08h0l0,0,0-.07,0-.17.2-.19-.09-.34.09-.14-.12,0-.1,0,0,.15-.13.12,0,.06,0,0-.08.1.05.1v0l-.17,0,0-.05,0,.08-.24-.09c-.24,0-.38,0-.4,0l-.13-.13c0,.15-.26.16-.62,0l0-.07.1-.05.2.07,0-.08-.22-.12,0-.08H3l0-.12-.16-.05,0,0c0-.05.15,0,.41.06l0-.1-.28-.06c0-.06,0-.1-.13-.14l0-.05Zm.08,2.56v0l.1-.05.08,0,0,.12Zm.19.07,0-.08.07,0,0,0,.18.11,0,.08Zm.34.13,0-.12a.18.18,0,0,0,.26-.12l.21,0,.07,0-.06.28-.14,0Zm.48-1.31L4,26.25H4l0,0,.05,0,.12,0,.18.11,0,0-.15.07L4,26.39H3.9l0-.06Zm.13.35.15,0,0,0,0,.1,0,.08-.17,0Zm.59-2.1.12,0v0l-.11,0Zm0,1.31h.13v0l-.12,0Zm.14-.38.11,0,0-.08h0l.09.12a.67.67,0,0,1,.37.05l0,0-.26-.13-.4-.1Zm0-1.21.08,0v0l-.07,0Zm0,1.62.11.08h.12l0,0c-.1,0-.15-.08-.13-.14l.12-.08,0,0S4.91,25.75,4.82,25.89Zm.23-.61.11,0,.16-.08-.05-.1-.11,0Zm.21-.23,0-.12-.07,0,0,0Zm.23,1.65.12,0,0-.11,0,0-.11.05Zm.18-1.33.15.06,0,0-.16-.06Zm.19.07.19.07,0-.1,0,0Zm.65.63,0-.12,0,0,0,.11Zm.33-.8v0L7,25.16l.42.28,0,.08c-.1,0-.16,0-.18,0C7,25.41,6.82,25.32,6.84,25.27Zm.11.65v0l.11-.05.18.1,0,.08,0-.05-.06,0Zm.12-.21,0,0,.07,0v0Zm.1,1.52.12,0v0l-.11,0Zm.31-.72.38.14,0-.08L7.7,26.5l-.21,0Zm.23-.75.1.08.05,0,0,0,0-.05H7.72Zm.23,1.18.15,0,0-.07-.08,0Zm.14.57.3.11,0-.07-.31-.12Zm.22-1.58,0,.06h0L8.47,26v0l-.08,0Zm.13.62.11,0,0-.08-.12,0ZM9.55,28l.08,0,0-.07-.08,0ZM10,26.77l.23.09.16-.08-.1-.08C10.12,26.68,10,26.7,10,26.77Z"/><path class="cls-3" d="M5,20.54l.43-.7.37.18,0-.13-.31-.19,0-.07.11,0,0-.18A.39.39,0,0,1,6,19.5s0-.13-.18-.26l0-.07.2.07,0,0L6,19l.15-.09,0-.12,0-.07.2.08L8.2,19.89l.22.19.06,0,0,0h0l.46.27s0,.09,0,.21.25,0,.43-.07v-.15l.16-.1,0-.16c.2.09.31.11.34.07l-.38-.24H9.52v-.05l0,0-.37-.18-.19-.17-.23-.09-.5-.36L6.86,18.3l-.24-.15,0-.11c.16.06.26.05.3,0-.16-.1-.23-.19-.18-.26l.25.06.12.12.37.18.33.25,0,0-.12,0-.42-.25h0l0-.06,0,0-.11,0,.29.23.16.05.29.23.56.34.07-.1-.46-.28-.15-.15,0,0,.11,0,.28.17.31.14.15.14.6.28,0-.12L9,18.93c-.16-.1-.23-.17-.2-.22l.1-.08v-.06l0,0H8.68l0,.06,0,0-.12,0L8,18.33l0-.11,0,0,.31.19,0-.07,0,0-.44-.22v.15l0,0-.19-.07,0-.06,0,0L6.9,17.7l-.08-.1.7-1.15c.25.12.39.15.42.11l-.33-.25,0,0,.11,0,.91.56,0,.06.05,0,.77.48,0,.07H9.39l0,0,.32.19,0-.06.07-.1.18.16.13,0v.06l.2.07.59.36.07.14.24.15c.12.06.19.08.22,0l.07,0,0,0,1.94,1.15,1.92,1.18,0,.11-.1.08,0,.06.06,0,.1-.08V21h.15l.8.49,0,.17-.45.74s-.1,0-.22,0l0,.07a.18.18,0,0,1,.07.28l-.22.35-.16.19,0,.12h-.15l-.56-.34c-.11-.08-.15-.14-.13-.18l.16-.1,0-.11.15-.25,0,0-.46,0,.15.15h0l-.05.07-.07.2a1.09,1.09,0,0,1-.43-.17l-.91-.56,0-.11.11,0L13,21.8l-.25-.06v.06l0,0h.05l0,0,0,.11-.37-.18-.13-.27,0,0-.16.1L12,21.44l-.35-.22c-.06.09-.17.1-.35,0l0,0c.14.09.2.15.17.2s-.1,0-.22,0l0,.07c.12.07.13.18,0,.32l.42.26.16.05v.05l.81.41.19.16.2.07.33.25.14.09v0h.06l.48.3-.06.11-.49-.3-.11,0v.06l0,0h.06l.38.24,0-.07.11.06,0,.07.07,0,0-.07,0,0v-.05l.06-.11.45.23v0l0,0-.05,0,0,.07.28.17,0,.17-.22,0,.1.16-.15.15,0,.13-.09.08v.06l0,0-.16.1-.15-.14-.56-.35,0,.07.76.48-.07.19-.32.53-.17,0-.28-.17-.89-.51-.3-.22,0-.13h.06l-.11-.07c-.07.12-.17.13-.31.05l0,0-.27-.27h-.18c-.11-.09-.13-.19-.07-.28L11,24l-.12.12L10.61,24c.05-.09.05-.16,0-.21l-.33-.1-3.43-2-1.19-.73-.16-.05v-.06l0,0-.33-.16Zm.73-.33.07.05,0,0,.27.12,2.32,1.38.06,0,0,0,0,0L5.82,20.16l-.06,0Zm.11.45.07.05L6,20.6l-.14-.08,0,0Zm.3-1.35.11.06,0-.07,0,0Zm.16.68,0,0,.11,0-.1-.06Zm.33-.14.14.08,0-.11-.07,0Zm.52.32.35.22,0-.08-.27-.17Zm0-.31.31.19L7.57,20l-.25-.15Zm1,.26.11.06,0-.11H8.27Zm0-2.69.06.14.05,0,.07-.1-.07-.05ZM8.58,17l.07,0,0,0,.12,0L8.8,17l-.18-.11ZM9.2,18l.1.07,0-.07-.1-.07Zm.11,1.23v.06l.11.06.06-.1-.07-.05Zm.33-1,.21.12,0-.11-.14-.08Zm.08,2.21.07.05.11,0-.21-.13Zm0-2.72.11.07,0-.07,0,0ZM10,20l.11.06,0,0-.1-.06Zm.1-1.48L11,19l.11,0-.91-.55Zm0,2.76.14.09,0-.12Zm.17-.19.07.05,0,0-.07,0Zm.75,1,.46.28.11,0v-.06l-.27-.11-.32-.2Zm.1-3,.11,0L11.15,19Zm.84,2.3.07,0,.05-.07-.07,0Zm.12,1.23.1.06,0,0-.1-.07Zm.95-.62.07,0,.05-.07-.07,0Zm.25.15h.06l0,0-.11-.06Zm.43,2.05.63.38.06-.1-.21-.13-.37-.18v-.06l-.06,0Zm.51-2.48,0,0,.44.31.11,0,0-.13-.32-.19c-.12-.08-.21-.08-.27,0Zm.5,0,.14.08.06-.1-.14-.09Zm0,.62.11,0-.07-.05Zm.17-.9,0,0c.07-.12.18-.13.35,0,0-.05,0-.12-.11-.21l-.22,0Zm.53.08.21.13.06-.11,0,0-.2-.07Z"/><path class="cls-3" d="M8.73,14l.36-.39h.05v-.05l0,0,.14-.1.16-.24,1.21-1.34.13.17.11-.06-.18-.17.08-.09h.12l.05-.18h0l.09-.09,0-.12,0,0,.15.08,1.28,1.16v.18l-.27.3-.14,0,0,.14-.16.18s-.09,0-.15,0h-.06l0,0,.09.14-.16.18,1.15,1v.06H13l.21.19.17-.12v-.06h.06l.11-.12v-.06h.06l.11-.13v-.05h.06l0,0,.25-.33a.22.22,0,0,1,.29,0l.79.72s0,.1-.05.18l.19.16.26,0,0,.26h-.06l-.11.13v.05l-.18.07-.08.15h-.11l0,0-.1-.14-.26-.14-.06.07.33.24.06.06s0,.08,0,.14h-.06l0,0a.37.37,0,0,0,.05.49l.18.1.06.12.4.3.3.27.91.77.07.17h.05l.16.14-.06.06-.33-.19c0,.05,0,.12,0,.2s.29.1.32.07l.06-.12,0,0,.17.05.08-.21h.17l-.09-.19q-.12,0-.45-.3h-.06l0,0,.24.22.13.17,0,0s-.29-.11-.75-.46l.05-.11h.06l0,0,.19-.27.15.08,0,0-.09-.08c.05-.06.17,0,.35.16l.05-.12-.21-.2v-.11h.11v.06l0,0,.48.32.13.23.3.16.28.3-.09.1-.15-.14,0,.06.18.11c-.06.06-.05.12,0,.2s0,.09,0,.14l-.11.18-1,1.12c-.09.11-.15.14-.19.1l-.11.24-.41.45h-.17l-1-.93-.15-.08-.25-.34h-.05l-.13-.11,0,0s.12,0,.24.11l0,0-.61-.55,0,0v.05l0,0c-.1-.09-.17-.11-.21-.07-.2-.22-.29-.36-.25-.4l.05-.06-.12-.11-.11.12-.27-.24,0-.2L13,17.76V17.7l-.42-.27-.06-.05,0,0-.39-.3L11,16l-.13-.23-.24-.1-.7-.64-.18-.22,0,0v-.06L9,14.3l-.15-.2H8.82l0,0Zm.47-.34c.07.05.08.1,0,.14l-.14,0v.06l0,0h.06l0,0v-.06l0,0,.17-.12-.15-.14Zm.22.8.34.36,0,0,.07.12.12.05,0,0-.12-.17,0,0v-.06l0,0-.36-.27Zm.4-1.3.12.12.18.1,0,0-.22-.25H9.87Zm0,1.31.06.05,0,0-.06,0Zm0-.58.34.24.21.2.05-.07L10,13.84l-.09-.08v.06Zm.36,1.32.12.11v-.12Zm0-2.36.06.06,0,0-.06-.06Zm.15,2.52.18.17.18.1.06-.06-.09-.08-.15,0-.09-.14h-.06Zm.15-2.24,0,0h.12L10.63,13Zm.15-.59.24.22.06-.06-.19-.17Zm0,2,.06.06,0,0-.06-.06Zm0-1.63.09.09.05-.06,0,0Zm.11,2.44.28.25.05-.06-.27-.25Zm0-1,.1.08h.11L11,14.26Zm.3-1.12v.06l.06.06h.12v-.06l-.06-.05Zm0-1.63.1.09,0,0-.09-.09Zm.07.73.21.19.06-.06-.16-.14Zm.06,2.38.48.44H12l-.49-.44Zm.05-1.28.06,0,0,0-.06-.06Zm.06,2.37.09.09,0,0-.09-.09Zm.14-1.92.12.11,0,0-.13-.11Zm.2.51.09.09,0-.06,0,0ZM12,16.24l.06.06.05-.06L12,16.18Zm.13.46.13.17h.12l0,0-.21-.19Zm0-2.41.13.17h.05l0,0-.18-.16Zm.09,1.85,0,0,.06-.06,0,0Zm.45.91.17-.18-.24-.17-.21-.19C12.35,16.57,12.44,16.75,12.68,17.05Zm-.25-1.12V16l.06,0,.08-.09,0,0Zm.26.63,0,0,.24.17,0-.07L13,16.63h0v-.06l0,0-.12-.06Zm0-.7.31.33.12,0v-.17Q12.77,15.8,12.71,15.86Zm0,1.39.06.06.06-.07-.06,0Zm.12-1.66.06.05,0,0-.06,0ZM12.92,17l.06.05,0,0-.06,0Zm.05-.61,0,0,.18.11,0,0-.06-.11L13,16.31Zm0-.65.21.14.06.11h.06l.06-.06-.4-.3Zm.19,1.51.06.05.06-.06Zm0-1,.09.08v-.12h0Zm0-1.05.22.2.05-.07-.21-.19Zm.18,1.21.06.06.06-.06Zm0-.35.37.33.57.41,0,0-.07-.11-.18-.11-.06-.11-.6-.44Zm0,1,.06.05,0,0-.06,0Zm.08-.27.06.12.12.05,0,0-.07-.11-.12-.06Zm.09-1,0,0,0-.06,0,0Zm.09,1.8.07.11.78.6.27.25h.12l-.49-.44-.21-.13-.09-.14-.42-.27Zm0-1,.06.05.06-.06-.06-.05Zm0,1.33,0,0,.06-.06-.1-.08Zm0-.64.15.14v-.12l0,0Zm0-.29.15.14,0,0v-.12l-.06-.06Zm.08,1.07.09.08.21.14v.05l0,0,.42.27.15.2.18.16.06-.06-1-.91h-.12ZM14,15.88l0,0,.06-.06,0,0Zm.08-.26.12.11.05-.06-.06-.06ZM14.32,19l0,0,.1.08,0,0Zm.07-1.42.18.16s0-.09,0-.14l-.12-.05Zm0-.64.06.11.15,0-.1-.08Zm0-1.69.06.06.17-.19L14.59,15l0,0Zm.05,3.92,0,0,.06.05,0,0Zm0-3.14h.06l0,0-.1-.09Zm.09,0,.06,0,0,0L14.64,16Zm0,1.74.18.16,0,0-.13-.17h-.06Zm.11-.62.09.08,0,0-.09-.08Zm0-1.63.09.09,0,0v-.11h-.06ZM14.86,17l.33.25.06.05.06-.06-.16-.14L15,16.85h-.06l0,0v.06Zm0,1,.48.44.06-.06,0,0-.25-.28C15,18,14.91,18,14.88,18ZM15,15.43h.11l.06-.06L15,15.25l0,.06Zm0,2.26,0,0,.31.33.12.05.05-.06L15,17.63Zm.1-.24.1.09,0,0-.09-.09Zm.15,1.25.19.16.12.17,0,.06h-.06l0,0,.09.08v-.05l.08-.09.21.13,0,0a.26.26,0,0,1-.1-.26l-.24-.1-.18-.17Zm0,.95.06.06,0,0-.06-.06Zm0-.32.1.08,0,0-.06-.11Zm0-1.68.09.14.63.46.16.2h.06l0,0-.85-.77Zm.31,1.11.15,0,0,0-.11-.06-.13-.16,0,0C15.48,18.59,15.51,18.67,15.61,18.76Zm-.06-1.21.37.33.24.16,0,0-.1-.14-.24-.16-.3-.28Zm.35,1.75.09.08c.33.3.52.41.57.35l-.4-.41c-.12-.07-.2-.08-.23-.05Zm0,.64.37.33.05-.06L16,19.88Zm.26-1.87.12.11,0,0L16.22,18Zm0,1.77.09.08,0,0-.09-.08Zm.06-1.05.22.19.05-.06-.15-.14Zm.11-.24.34.36h.05l0,0-.28-.36Zm0,1.45.28.25.05-.06,0,0-.15-.08L16.46,20H16.4Zm.24-2.27.09.08,0,0-.07-.11Zm.63-.09.4.36h.17l0-.15-.1-.08a.69.69,0,0,1-.41-.15Zm.05-.85,0,0h.11l0,0,0,0h-.11Zm0,1.25.3.22,0,0v-.12L17.49,18h-.11Zm0-1h.06l0,0v.11h-.06l0,0Zm.14-.09.05-.06.33.24,0,0v.06H18l.45.41h.06v.05l.4.36-.11.18c-.09.1-.16.13-.2.1l0,.17c-.12.08-.19.11-.23.07s.11-.18.05-.23l.17-.07v-.06l0,0L18,17.77l-.06-.17-.36-.21-.06-.11.05-.06.14,0L17.59,17Zm.43.5.06.06,0,0,.12.05,0,0v-.12l0,0H18Zm.05,1.1.13.11,0,0-.06-.11H18Z"/><path class="cls-3" d="M17.19,6.94l.35-.21.12,0,.09-.16.17,0V6.49l0,0,.05,0,.23-.19.24-.14h.15l0-.11,0,0h.06l0,0,.07.2.22.35a.21.21,0,0,0,.33.09l0-.06c.18.24.29.35.34.32l-.07-.1-.16-.19,0-.13h-.05l0,0V6.39L19,5.87l.08-.09h.06l.16-.14.1-.06.37-.18,0-.06.31.2c-.11-.19-.14-.3-.07-.34l.21-.13.15.15.23.39.58.89a.48.48,0,0,1,0,.41L21,7V7l-.13,0-.12-.11-.07,0,.07.19-.21.13-.23.09c-.21.13-.26.29-.15.47h-.06l0,0V8l0,0,.33.38v0l0,0,.23.38v.15l0,0a.76.76,0,0,1,.32.28l0,.06h.24l.07-.13,0,0h.15l0-.11c.05,0,.14,0,.27.22l.07-.05L21.77,9l0-.11c.05,0,.1,0,.14.06l0,0c.05,0,.05-.07,0-.14l0,0c.05,0,.11,0,.18.14l0,0s.05-.08,0-.15l0-.06,0,0,.1.09c0,.17,0,.29,0,.35l.14.15.07.11.1-.07.09.15c-.07,0-.09.08-.07.13h.06l0,0v0l0,.07v.23L23,10l.16.28-.07,0,0,0-.05,0-.28.17-.16-.19-.07,0,.07.19-.11.07-.14-.16c-.05,0,0,.1,0,.22l-.07,0c-.08-.14-.16-.19-.23-.15a.7.7,0,0,1,0,.45l.3.49-.07,0-.12,0,0-.07-.05-.16L21.83,11a.24.24,0,0,0,0,.28c.23.37.43.5.62.39l.57.86L23.92,14v.06H24l.08.15,0,.11-.05,0,0,0,.15.25-.2.07c0,.17,0,.27,0,.3s-.14,0-.21-.12-.05.08,0,.15V15l-.07,0h-.06l-.06.13-.2.07-.08.1c-.21.09-.32.11-.35.06l-.13-.21-.41-.61-.16-.34h-.05l-.07,0,.65,1.09,0,.11h-.05L22.29,15l-.07.05,0,.11.25.42,0,.11,0,0-.15-.24-.14-.31-.26-.36L21.35,14h-.06l0-.06,0,0-.19-.23-.13-.3,0,0,0-.06-.07-.1-.12-.12,0-.22h-.06l-.08-.14a.43.43,0,0,0,0-.34l-.16.05-.06-.1-.12-.12,0-.16,0,0h-.06L20,11.58l0,0v-.06l0-.07c-.07-.11-.13-.16-.18-.13l-.08-.29-.32-.38-.13-.21-.11-.27,0,0v-.06l-.35-.51-.23-.38,0-.17,0,.07,0,0,.08.19.06.11c.1.13.17.18.23.15l-.05-.17h-.05l0,0,0-.06,0,0L18.62,9l-.28-.55h-.06l-.07,0,.14.3-.07,0-.17-.19-1-1.56Zm.73,1.14,0,.16h.15c.05,0,.05-.08,0-.15L18,8ZM18,6.8l.1.09.07.2.16.19.07,0,0-.07L18,6.76ZM18.36,9l.07,0,0,.07L18.4,9Zm.36-.59.08.14.15.15.07,0,0,0Q18.84,8.32,18.72,8.37Zm0-1.5,0,0,.07,0,0,0Zm.15-1H19l.17.37,0,0-.11,0L18.89,6V6Zm0,1.75,0,.07,0,0,0-.07Zm.15.24,0,.08.07,0,0-.07Zm0,1,.11.18.11,0,0-.07-.14-.15Zm.12,1.32.1.08.11-.06,0,0-.21-.26c-.05,0,0,.11.06.26Zm0-.57.1.17.06,0,0,0,0,0,.56.76,0,.13c.13.17.23.25.27.22l0-.06h-.06L20,10.57l0-.07.11-.07.06.11.16.19,0,.18c.13.11.22.15.27.13l-.08-.2-.18-.23,0,0h-.06l-.17-.28,0-.06a.21.21,0,0,0-.23-.05l0,.11-.07,0L19.62,10l0,0,.2,0-.08-.28c0-.05-.07-.05-.14,0l-.09.1-.06,0,0,0,0-.16-.09-.09Zm.23-1.68,0,.16c.12.15.21.22.26.19V8.23l0,0,0,0,0-.06,0,0-.19-.23Zm0,1.66.11-.07-.05-.07,0,0Zm.11-3.8.06.1.07,0-.06-.11Zm0,.48.08.14.07,0,0-.07Zm0,1.41.1.17.11-.06-.07-.1-.11,0Zm.14.25L19.8,8l.11,0v.15l.1.09,0,0,0-.05,0,0-.18-.23,0-.07Zm.1-.4V7.6l0,0,.1-.06Zm0-1.34.06.1,0,0-.07-.1Zm.07,3.54.11,0,0-.07ZM20,8.39l0,0,.15.1,0,0-.11-.17Zm0,2.87.21.35.07,0-.1-.17-.14-.16Zm0-1.4.06.11.11-.07,0,0-.11,0Zm.17-.2,0,0,.11,0-.1-.18Zm.16.19V10h-.05l-.07,0,0,.11c.06.1.14.11.26,0l.18.22.13.21.11,0,.07,0-.1-.18h-.06v-.06l-.1-.17-.06,0,0-.05L20.61,10C20.54,9.88,20.46,9.83,20.38,9.85Zm-.16,1.25.11.27.15.24.07,0,0-.13-.26-.36Zm.1-2.93,0,0,.06.1,0,0Zm.24.95v.06l0,0,.23.3.09.23.2.26v.06l-.07,0-.37-.45-.19-.32-.07.05.17.28c.07.11.08.19,0,.22l.8,1.09,0,.07.07,0-.16-.19a.63.63,0,0,1,0-.46l.35.42,0,0,.1.08,0,0-.05-.07,0,0h-.06l-.08-.14v-.06h-.05l-.09-.14,0,0s.12,0,.25.19l.11-.07v-.05l0,0c-.15-.17-.3-.21-.46-.12l-.81-1.18,0,0Zm-.14-3,0,.07c.19.3.31.43.38.39l-.18-.22-.13-.21Zm.15,4.55,0,.07.11-.06,0-.07Zm.07,1.15,0,0,.08,0,0,0Zm0-.53.1.17,0,0-.11-.17Zm.21.35.06.11,0,0-.07-.1ZM21,9.42l0,.12.22.3,0,.07.07,0-.19-.32-.14-.15Zm0,.79.07-.05,0,.07-.07,0Zm.07.82.1.17,0,0L21.17,11Zm0,1,0,.06,0,0,.06,0,.07-.05,0,0Zm.22,1.16,0,.07,0,0,0-.07Zm.11-3.56.16.28.12,0-.17-.28Zm.07,1.63.11,0,.11-.06-.12-.12-.07,0Zm0-1.93.09.14.11,0-.09-.14Zm.28.07.12,0,0,0-.08-.14,0,0Zm.29-.08,0,0,.11,0,0,0-.09-.14,0,0Zm.22,5.14,0,0,.11,0-.06-.11Zm0-4.33.06.11.07-.05,0,0Zm0-.53.06.1,0,0-.06-.11Zm.11,5.1.25.42.07,0-.3-.49Zm.21-4.58.06.11,0-.11,0,0Zm0,2.46,0,0,.12,0,0,0-.06-.11Zm.09,1.58.06.11.11,0-.1-.17Zm.43-.4.08.14.07,0-.08-.14Zm.48.33.07.1,0,0-.06-.1Zm.34.32.06,0,.06.1,0,.11,0,0-.09-.15Z"/><path class="cls-3" d="M23.33,3l.29-.06,2.18-.83L26.16,2V2c.13-.05.4.4.8,1.36L28.2,5.71l.06.29q.39.6,2.69,5.13l-.09.12-1.93.7c-.06,0-.12,0-.17-.11l-.47-1.05v-.13c-.11-.25-.2-.37-.26-.35l-.65.24,0,.21c.34.94.46,1.48.36,1.61h0l-.34,0-.1.08-.25,0-.23.09-.28.18-.73.27-.15,0L25,10.1l0,0L23.27,3.05l.08,0Zm1.12,1.17.2.54a1,1,0,0,1,.07.45l.14.26,0,0a.33.33,0,0,1,0-.27l-.38-1Zm.41,1.73.06.28.12.09,0,.21.09.14.07.54q.07,0,.12.09l0,.2.08,0,0,.11c-.13.05-.16.16-.1.34l-.14.1.11.3h.13L25.39,8l.05,0,0,0-.08-.23.19-.07-.08-.23,0,0-.05,0-.06-.15V6.94l-.25-.43,0-.12c.1,0,.11-.19,0-.44A.22.22,0,0,0,24.86,5.88Zm.73,1.91,0,.21V8l.1.05,0,0V8l-.14-.25ZM25.73,5c.53,2,.81,3.21.84,3.53l.18.24.65-.23L25.81,5Zm.18,4.47,0,.12.1-.09v0Zm.18.5,0,.12.2-.07,0-.08Zm.09.23,0,.08.2-.07,0-.08Zm.19-.55.08.1h0l0-.12Zm0,1.3,0,.11.24-.08-.05-.11Zm0-1,.07.19h0V9.93l0-.07h0Zm.07,1.28,0,.11.35-.12,0,.08,0,.05,0,0,.05,0h0c-.05-.13,0-.21,0-.24l-.15-.07,0,0,0,.05Zm0-1,0,.12h0l0-.12Zm.11-.43,0,.08.08,0,0-.07ZM27,11.48l.07.19.16-.05-.05-.12Zm.17.46,0,.12.1-.08v0Zm.07.2,0,.07.1,0,0-.07Z"/><path class="cls-3" d="M30.3,1.06,30.91,1l.13.11.06.53h.08l-.06-.53L31.23,1,33.07.78c.11.29.46,1.8,1,4.51h.08v0a29.09,29.09,0,0,1,0-3.14l0,0a7,7,0,0,1,.06-1.4h.5l.56-.1L37,.39l.13.11.06.61V1.4l.09.49.45,4.4c0,.14,0,.21-.1.22v.12c.08,0,.13.06.14.19l.38,3.68-.11.13-1.72.17-.13-.1L36,8.86c0-.41,0-.62,0-.62l-.11-.32L35.5,4.41h0l-.07.09v.09q.11.93,0,6.27l0,0L34.11,11c-.1,0-.23-.44-.39-1.36L32.64,5h0l.61,6-.11.14-.53,0-.14-.11-.05-.49.05-.33v0a.77.77,0,0,1-.17-.48l0-.29-.09-.07,0,.25,0,.65,0,0v0l0,0,.16.73-.12.1h-.08c-.13,0-.21-.06-.23-.22h-.08v0l0,.12-.12.09-.24,0c-.16,0-.26-.09-.28-.31l-.19-1.83,0-.25-.16-.77,0-.25-.07-.28V7.27h0l0-.12-.09-.49.1-.21V6.32l-.09-.11,0-.41c0-.33.05-.5.11-.5h0l0,0H31l0-.12h-.12l0,0-.12,0-.09-.82-.09-.56.1-.22-.1-.94-.08-.36,0-.17-.16-.77V1.27Zm.41,1.69v0l.06.16-.07.13c.05.11.1.16.14.15h.08v0l-.11-.32V2.74Zm.2-.92.14,1.34.09.08,0-.17-.07-.28L31,1.9ZM31,6l0,.16h.08V6.09Zm.17.85L31.1,7v.12h.08v.34l0,.11.11-.13V7.27a.69.69,0,0,1-.13-.4Zm.18,1.3v.08h-.05l.07.28,0,.2-.11.14-.12,0v.08h.12V9a.79.79,0,0,0,.3.47l-.09-.82C31.49,8.34,31.43,8.16,31.35,8.17Zm-.07-3.95,0,0v0l.07.24.07-.09,0-.17Zm0,3.38v.05l.08.4h0l0-.29Zm.06-3,.06.61a1,1,0,0,0,.13.44l0,.17.13.93.06.16h0l0-.13,0,0,0-.61V6l0,0-.25-.84-.05-.49ZM31.39,7v0l.06.2.07-.09V7Zm.29-.07V7l.06.2h.05V6.93Zm.08,2.84V9.9h.12l-.05-.12Zm.06-3.88V6h.05V5.89Zm.11,4,0,0,.06.2H32L32,10Zm0-2.48v.08l.09.07,0-.16Zm.25,1.25c0,.05,0,.09-.15.1l0,0v0l.29,0,0,0v0Zm-.08-.82v.09h0V7.84Zm1-2.12V5.8h0V5.72Zm1.5-1.84,0,.24h.08v0l-.06-.2ZM36.22,8.3v.08h.08V8.29Z"/><path class="cls-3" d="M39.71.24l.58,0,.16.06.16,0,.07.13,0,.45L40.51,1,40.36.83V.91h0v.41l0,.62h0l.13-.11,0-.33-.07-.13,0-.2.08-.08.1.34-.06.69.12.06.06-.29,0-.12.11-.24h0l.06.26v0h-.08V2l.12,0L41,1.71l0,0v0L41,1.3V.69l.11-.24.15.09c0-.1.05-.16.1-.15l.33,0V.5h0l0,0,0,.24,0,.79-.07.28v.62l-.31,3.47-.11.32v0c0,.14,0,.21.06.21l0,0v.37l-.13,1v.33l-.06.2,0,.25,0,.16,0,.65-.09,1.07-.14.11-.16,0c-.27,0-.41-.06-.4-.11L40,10.6l-.33-.07,0,0h0l0,0H39l-.25,0q-.08,0-.09-.33l0-.17,0-.86,0-.49h0l.12.09,0,0V8.37l0,0h-.12v0c0-.49.12-.77.23-.85V7.43a.56.56,0,0,1-.1-.29L39,7l.07-.36v-.5l.07-.32V5.34L39.26,4V3.37l0,0V2.72l0-.49.09-.49,0,0,0,0h0c0,.09,0,.13.07.13h0l.06-.24,0-.17.06-.12,0-.05h-.08l-.07.32h0l0-.13.06-.2,0-.33.12-.44,0-.13Zm-.89,9.64V10h0V9.88Zm.29,0,0,.36c.05,0,.1-.1.15-.31l0-.05Zm.13-2-.06.2,0,.33c0,.2,0,.31.1.34L39.32,8Zm-.07,1.31v.12h0V9.25Zm.13-2.91v.12h.08V6.35Zm.08,2.81,0,.36c0,.06.1.11.32.16l0,0,0,.29h.08l0-.12.06-.2V9.51l-.07-.09h-.08V9.5s-.1-.12-.17-.35Zm.06-.62,0,.37.09-.07,0-.21Zm.07-5.92v.08l.07.09,0-.16Zm.23-.35,0,.49h.12l.07-.28,0-.21ZM39.81,1v.12l.07.09.06-.16,0,0Zm0-.57V.58h.08l0-.13Zm.11,2v0h0l.09-.07v0h0ZM40.06,2l0,.24h.08v0l0-.21Zm0,4.78,0,.2h.08l0-.2Zm0-6.09v0l0,.13-.06.24h.08l0-.4Zm0,8.81v.09h.12l0-.17h0Zm.22-9,0,.37h0l0-.37Zm0,6.22,0,.05h0l0-.12Zm0-1.56,0,.57.08.09.09-.15a.8.8,0,0,1,0-.46l0,0Zm0-1c0,.39,0,.58.07.59l.06-.62Zm.12,3.76L40.51,8l0,.05h.08V8Zm0-5.39,0,.12.08.09,0-.21Zm.06,4,0,.12.09-.08,0,0Zm.09-2.43,0,.13.07.13,0,.57.08.09.07-.82-.07-.09Zm0,1.36v.13h0V5.44Zm.17-3.36v.12h0V2.08Zm.07,4.37v.08h0V6.45Zm.13-2.87L41,3.85l0,.37c.11,0,.18-.13.2-.43l-.06-.21Zm.09-1.93v.13h0V1.65Zm0-.61.07.09,0-.17Zm.08-.41-.06.2,0,.05h.05l0-.24Z"/><path class="cls-3" d="M43.83.89,44,1l.29,0,.28.07,0,.05.05,0,.12,0,.06.1.18,0,.14.11.1-.06.6.14c.08,0,.11.08.09.18l-.09.19-.07.49-1,4.44-.16.56,0,0-.22.59,0,.54-.21.71,0,.45c-.1.18-.18.26-.22.25l0-.5h0l-.16.51,0,.05H44A6.07,6.07,0,0,1,43.87,11l0,0,.08,0,.15-.85h0l0-.05v0l.1-.06c0,.23,0,.37.08.4l-.11.27-.06.28,0,.41-.14.05-.32-.07-.35-.12-.41,0-.16,0q-.19,0-.18-.12l-.26,0L41.65,11l-.09-.15,0-.16.22-1.13.09-.23V9.15l.22-.45,0-.12V8.24l.09-.36.15-.3,0-.08V7.16l.09-.23.05-.41.1-.27,0-.33.57-2.73L43.76,1Zm-1.52,9.74,0,.2.11,0,0-.2Zm.14-2.28-.1.44.09-.06.07-.28Zm.15-1.06-.1.44.12,0,.1-.27A.21.21,0,0,0,42.6,7.29Zm-.07,2.17,0,.12h0l.1-.06v0Zm0,1.39v0l.07.1,0-.2Zm.22-1.34.06.1.1-.07-.06-.09Zm.2-2,0,0v.2l-.08.16v0l.07.09L43,7.55l0,0Zm.21,0-.1.27V7.9l.15-.09,0-.2-.06-.1Zm.23-1,0,.16-.1.27h0a.11.11,0,0,1-.15.09v0c.08,0,.11.08.09.19h0l.09-.06.08-.32-.07-.1.12-.14V6.52Zm-.1,4.56.06.1,0-.16Zm.09-6.2,0,.16,0,0h0V4.87Zm.33,2.43V7.5l-.24-.06-.05.2,0,0v.21l.29-.18v.21h0l.17-.38c-.05,0-.05-.14,0-.38C43.78,7.14,43.73,7.18,43.69,7.29Zm-.23-.1.07.1V7.21Zm.11-.48v0l.08,0v0Zm0,2.79,0,.2.06.1.07-.28Zm.25-1.67,0,.12h0l0-.12ZM44.06,7V7h0l0,.05L44,7.39l-.08.19,0,0h0s.09,0,.11-.1C44.14,7.16,44.14,7,44.06,7ZM44,9l0,.12h0L44,9Zm.55.92.08,0c0,.14,0,.21,0,.22l-.07.11v.13h0l.07-.11v-.21l.06-.11.12,0v.2l-.25,1.08,0,0v0h0l0,0v0l-.1.07-.08,0v-.13l0,0h0c-.06,0-.09,0-.11.1l-.05,0h0l-.06-.1.06-.28.05,0,0-.45Zm-.14-.49,0,0-.06.28h0l-.06-.1,0-.16Zm.19,1-.15.3,0,.5.08,0,.17-.72Zm0-.92h.08v.17l0,0-.08,0Zm.44.68.08,0c.13,0,.14.37,0,1l0,.12,0,0,0,.05,0,.12-.15.1-.08,0-.09-.15.08-.36.1-.61Zm-.11-.65H45l.06.1c-.06,0-.11.05-.16.18l-.09-.15V9.64Zm.19.08.12,0,0,.16-.12,0Z"/><path class="cls-3" d="M49.55,2.34l0,0c.37.17.55.27.53.32l.33,0,.95.4c-.49,2-.81,3.15-1,3.52l0,0,0,0h0c.08-.14.14-.2.17-.19l0,0v0a15.26,15.26,0,0,1,1.89-2.85l1.77.75v0c-1.09,1.5-1.83,2.46-2.22,2.89-.1,0-.16,0-.18,0l0,.24L50.28,9.83,49.78,11l-.18.33-.13.39-.43,1c-.14.33-.25.47-.32.44L47,12.46,47,12.3l.26-.61.17-.28.14-.43.56-1.32a.45.45,0,0,1,.23-.22l.43-2.58.08-.1,0-.61L49,5.91l.08-.19A.22.22,0,0,0,49,5.41l.19-1.17.05,0,0,0A8.7,8.7,0,0,1,49.55,2.34Zm-1.8,9.14-.06.15h0l.06,0,0,0v-.13Zm.23.09,0,.12,0,.1.08,0,.05-.12-.05-.11Zm.24.15v0l0,.11h0l.05-.11Zm.4-3.44-.06.15,0,0,.1,0,0-.1Zm.3-1.43v0l.07,0,0,0Zm.23.09L49,7.18l.1.08,0,0,0,0v.13l0,0,.17-.38,0,0,0,0,0,0Zm.11,1.21-.07.15.08,0,.06-.15Zm.1-2.54L49.22,6l0,.11.05,0,.08-.19,0,0,0,0,0,0V5.64Zm.28.39-.1-.09,0,0-.07.28.26.11.11,0,0-.07,0-.21,0,0Zm-.08,1.43-.12.31.07,0,.13-.3Zm.27-3.85,0,.07,0,0,0-.08ZM50,6.16l-.09.09v.13l.12,0v0l0-.2Zm0-2.49,0,.08.08,0,0-.07ZM50.22,8l-.09.23.07,0L50.3,8Zm.1-1.7,0,0,0,0,0,.11.06,0v0Zm.14,1.14-.16.37.08,0,.12-.18,0-.11,0-.11Zm.29-.68,0,.07,0,0,0-.08Zm0-.17,0,.08.07,0,0-.08Zm.38,1.19,0,.11,0,0,.05-.11Zm.05-.83,0,.08.08,0,0-.08Zm.17.12v.13l.07,0,.09-.1,0-.05,0,0,0,0Z"/><path class="cls-4" d="M61.85,9.91V10l-.12.06-.24.39.1.08.16-.12.19-.33H62l.12.11.09.14.25.16,1.19,1.07-.11.18-1.09,1.22-.17.13a6,6,0,0,1-.68-.72l-.15-.08V12.2c-.12,0-.33.19-.64.53l0,0a.1.1,0,0,1-.17,0l-.08.1.06.05,0,.06-.14.21-.34.14-.06-.06c.13-.18.17-.29.13-.32l0,0-.06.06,0,0V13l-.24.28h-.12c.06-.06.06-.11,0-.14s-.12,0-.22.07l0,0,.12-.27.14-.15-.06-.06s-.13,0-.28.14c-.06-.06-.12-.05-.18,0l0,0v-.38L59,12.6l0,0,0-.12H59l.08-.09,0-.15.22-.24-.09-.08-.2.21L58.92,12l-.14.16.1.19,0,0a.28.28,0,0,0-.27,0l-.41.46c-.09.13-.12.22-.07.27.1-.1.17-.13.2-.1l.11-.18.11-.13,0,0v.12l-.13.15.06.06.25-.22,0,0s0,.12,0,.29l0,0,.27-.25.09.08h0l0,0v.12l0,0,.16-.25.12.11H59.3l0,0s0,.15-.15.36h-.06l0,0-.4.52-.14.15,0,0h.12l0,0,.24-.33.19-.16.06.05-.16.25-.08.09.06.05.14-.15h.17l-.07.21,0,0L59.5,14l.06.06c-.09.17-.12.27-.1.29l-.28.2-.37.54h-.06l-.3.4-.82.92-.27.24-.25.34-1.17,1.31h-.17l-1.5-1.33,0-.15h.06l.3-.39L57,13.67l.34-.31.1-.18h.06l0,0,.05-.12a1.44,1.44,0,0,0,.61-.44,1.63,1.63,0,0,1,.26-.54l.11-.07,1.13-1.19.06.05,0,.12h-.06l0,0-.1.3-.11.06.06.06.08-.09.17-.13.06.06-.13.21.06,0,.17-.12,0,0s0-.12-.13-.23l.06-.06,0,0,.14,0,.07-.32.06.06,0,0v0l.06.06.15.08.1.25.35,0,.1.14.08-.09v-.12l-.15,0-.07-.17h-.06l0,0-.06-.12h-.12l0,0,.08-.15h.06l-.06,0,.16-.19c.13-.21.17-.34.12-.38L61,9.93c-.12-.11-.05-.31.2-.59l.06.05v.12l-.14.15.07.06.19-.16.06,0-.1.24.09.08.11-.12,0,0s0,.16-.21.36h.11l.16-.24s.1,0,.17-.07h.06ZM56.42,15l-.05.06.06.06,0-.06Zm1-1.19-.22.25.06,0,.22-.24Zm0,2.07-.16.18v.17l.11-.06C57.45,16,57.46,15.93,57.4,15.89Zm.62-2-.11.13.06.05L58,14Zm0-.81-.08.09,0,0,.08-.09Zm.17,1.41-.09.1.06.05.09-.09Zm.38-.86-.27.31.06.05.14-.15.1-.18Zm.23,1h-.06l0,0v.11l0,0,.06-.06Zm.26-5.15.09.08a.18.18,0,0,0,0,.29l-.11.18,0,.06-.25-.16,0-.15Zm.07,2.26-.08.09.09.08,0,0v-.11Zm0,2.41-.11.06v.06l0,0h.06l0-.12Zm1-5.61v.11L60,8.91l0,0h.17l.07.17c.18-.21.29-.29.33-.25s0,.15-.15.35l0,0c.16-.18.26-.26.3-.22l.07.05-.11.18.09.09L61,9.17l.09.09L61,9.38c-.17.28-.23.45-.17.5-.17.09-.29.11-.35.08V9.84l.13-.15-.06,0-.22.24A.29.29,0,0,1,60,10a.17.17,0,0,1,0-.23l.12-.06V9.63l0,0-.3.28V9.71h.06l0-.12-.06-.05,0,0,0,.12-.2.16V10l.15.08,0,0-.19.16-.08.15-.06-.06.07-.21.14-.09-.09-.08-.27.3-.09-.08.38-.43-.09-.08-.08.09-.07-.05.13-.27.12-.06,0,0s0,.11-.08.21l.09.08.26-.16,0-.2-.1-.08c0,.06-.1.07-.14,0l0,0,0,0,.2,0s0-.16.09-.36L60,8.71l0,0C60.09,8.54,60.19,8.48,60.23,8.52Zm-.92.66.06.06,0,.06,0,0-.17.13-.06,0Zm0,4.18,0,0v.12l-.17.12-.06-.05h.06v-.06Zm0-.46.09.08,0,0-.1-.08ZM59.45,9l0,0v.11l-.06.06-.09-.08Zm0,4.53,0,0-.06.06,0,0Zm.25-3.18,0,.14,0,0h-.11l-.06-.05.07-.15ZM60,13.5l0,0v.17l-.42.29-.06-.06c.07-.08.09-.14,0-.17C59.8,13.55,59.93,13.47,60,13.5Zm.14-3.11v.11l0,0H60v.06l-.08.09-.17.13,0,0v-.17l.23-.13.05-.12h.06Zm0,1-.11.06-.06.12,0,0c.08-.08.13-.1.17-.07l0,.15,0,0S60.24,11.54,60.14,11.4Zm0,1.13-.13.15h.11l0,0Zm.38-1-.08.09.06.06,0,0-.14,0a.64.64,0,0,1-.19.33l0,0,.23-.18.24-.34Zm-.31-.27-.05.12,0,0,.08-.1Zm.07,1.16-.11.12,0,0,.11-.12Zm.08-3.67,0,0-.11.12,0,0Zm.24,3.13-.08.09v.17h.11l.08-.1Zm.13.28.09.08.06-.06,0,0Zm.7-.42-.08.09,0,0,.08-.09Zm.19.28,0,.06,0,0,0-.06Z"/><path class="cls-4" d="M65.21,13.88v.06l0,0,.11.08-.11.13.07.1s.09,0,.15,0l0,.06-.16.13,0,0,.14,0,0,0-.48.46,0,0L65.3,15l0,.06-.08.17,0,0-.38.24-.06.2L65,15.5l.28-.26.14.2v-.06l.1-.07.05.06.1-.07,0-.17c-.06,0-.11,0-.15,0v-.21l0,0h-.06l0,0,.18-.24-.16-.14v-.06l0,0,0,.06,0,0v.06l.13.16.2.2-.18.24,0,0,.24-.09.2.27c-.08.07-.09.14,0,.19l.11,0,0,.23,0,0,.07,0,0,.07-.1.07-.21.26-.27.2.08.1c.13-.1.21-.13.24-.08l.25.32.14.05c-.18.17-.25.28-.22.32l.11.08a.76.76,0,0,1-.26.34c0,.05.1,0,.19,0h0l0,0s0,.11-.12.19l.08.1.22-.12v-.06l0,0h.06l0,0,.34-.36,0,0c.11.15-.11.59-.65,1.32l-.14.1-.13-.11-.19.15,0,.06.16-.12,0,.07-.14.15-.33.25v.06h-.05l0,0c-.89.63-1.39.88-1.48.76l0,0,.19-.15,0,0q-.47.34-.63.12l-.38-.23,0,0a1.5,1.5,0,0,1-.44,1.67l-.38.18-.07.11-.18-.17v.05c.1.13,0,.35-.44.64l-1,.72-.11.13L60.6,23l-.46.34-.17.19c-.13.05-.21.06-.24,0l0-.11c-.07.05-.12.05-.15,0v-.06l-.19-.12-.07-.15L59.22,23V23l.26-.19,0,0h-.05l0,0-.14.16,0,0h-.06l0,0,0-.12-.21-.21,0,0h-.06l-.22-.29c-.1-.14-.08-.26.08-.37l.19-.09.27-.26.13-.1.11,0,.08.1v.14h.06l.1-.07s0-.13-.11-.28a2.24,2.24,0,0,1,.54-.51l1.38-1h0c.43-.39.58-.67.44-.85l0,0h-.06l-.15-.2-2.65,2s-.1,0-.16-.09l-.07.05a.48.48,0,0,1-.2.36l-.18.09-.18.18-.16.12-.17,0-.1-.13-.09-.19-.18-.17-.13-.17v-.2l0-.07-.06.05,0-.06.06,0c.05,0,.09,0,.14,0h.06l0,0v-.06h0l-.15-.19-.17.12-.11,0v0L57,20.12l-.2-.26c0-.05,0-.16.26-.35l.12,0,.1-.13.45-.23.44-.44c.25-.17.38-.24.41-.21l.6-.56,0,0v-.06l0,0h.06v-.05l.4-.3h.05v-.06l.49-.37.31-.28a3.75,3.75,0,0,1,1.23-.62v-.06l0,0,.07.1c-.07.05-.08.09,0,.14l.19-.09.09.18h.06l.06-.05,0-.11-.11-.08.13-.1s.09,0,.14.05l.1-.07c-.07-.09,0-.23.2-.41v-.06l0,0h-.06v.06l0,0a.46.46,0,0,0-.28.11l-.1-.13,1.09-.87.12,0,.17-.18,1.05-.79.19-.09v.21C65.06,13.82,65.17,13.83,65.21,13.88ZM57.3,20l0,0,0,.11,0,0,.1-.07Zm.41-.62,0,.12.08.1.06-.05Zm.15.82-.17.12.05.06.12,0,.16-.12L58,20.22Zm0-1-.07.05,0,0,.06-.05Zm.24.8-.07.1,0,0h.12l.06-.05,0-.06h-.06Zm.34-.16h-.14v.06l.07.1.07-.05Zm0,.21v.11l0,0,.12,0V20.1l0,0Zm.44-1.67-.14.16,0-.07-.1.07.08.1.26-.2Zm-.14,1.85-.1.08.05.06.1-.07Zm.44,2.29-.06,0,.15.14,0,0,0-.12,0,0Zm.23-4.59-.15.06v.06l0,0,.17-.12Zm.2-.15-.1.07.08.1.06-.05Zm.15,5-.1.07,0,0,.1-.07Zm.13-5.34-.07.05-.11.18.14.05.11-.19Zm.15,1-.2.15,0,0,.11,0,.07-.05v-.11Zm0-.74,0,0,.1.13,0,0,0-.12Zm.36.14-.2.15,0,0,.2-.14Zm.49,2.56-.14.16-.12,0-.18.24h.06l0,0,.2-.21.2-.14Zm-.3-2.71-.1.08h.12l0,0Zm0,1-.06.05,0,0,.07,0Zm0-.7-.09.08,0,0,.1-.07Zm.05-.75-.13.1,0,0,.14.11,0,.18.06-.05.14-.16-.1-.13Zm.63,3.22-.06.05-.19.09-.17.18-.13.1,0,.07.54-.36v-.06Zm-.45-2.43v.11h0l.1-.07,0,0Zm.53,0-.08.11-.27,0-.18.24,0,.06.19-.09v.06l.1.13.13-.1v-.06l0,0c-.05-.07-.1-.07-.17,0l0-.12.23-.17Zm.17-.79-.1.07.11,0,0,0Zm.05,2.58-.13.1,0,.11,0,0,.13-.05.14-.15,0,0Zm-.08,2v.06l0,0h.05l.07-.05,0,0Zm.14-4.37-.09.07,0,0,.1-.07Zm.05,2.58-.1.07v.12l0,0,.12,0,.07-.11Zm.13,1.6,0,0,0,0H62l0,0,0,0Zm0-1.23,0,.11.07,0ZM62,16.5v.06l.05.06.1-.07,0,0Zm.14,5L62,21.6l.07.1.1-.07Zm0-5.77,0,.07,0,.11,0,0-.1-.13Zm-.06,1,0,0,0,.07,0,0Zm0,2-.06.05,0,.06Zm0,2,0,0,0,.12,0,0,.1-.08Zm.42-2-.36.28,0,.06.3-.22Zm-.23-1.46-.07.05,0,0,.06-.05Zm0,3.71,0,0,.05.06,0,0ZM63,16.7l-.1.08q-.15.12-.21.06l0-.13h-.06l-.23.18V17c.08-.06.15-.07.18,0s0,.1-.08.16v.06l.05.07h.11l.08-.16.13,0c.18-.17.25-.28.22-.32Zm-.64,3,.05.06.06,0Zm.07,1.59-.07.05.05.06.07,0Zm.07-1.8v.11l.13-.1Zm.39.78-.32.19v.06l0,0h.06l.23-.17Zm-.31-3.88v.06l0,0,.1-.07Zm.08.92,0,0,0,.11.1-.07Zm.38.43-.32.19.07.1.14-.1.13-.15Zm-.16-.54-.1.07,0,0,.1-.07Zm.06,1.64-.13.1V19l.19-.15ZM63,15.69l-.17.12,0,0,.16-.12Zm.2,4.21-.3.28.11,0,.07-.05v-.06h.06l.07-.05v-.12Zm0-1.79-.07.05-.14.16.07.1.16-.07.12-.19,0,0ZM64.8,16.4l-.19.15,0-.06-.17.12h-.06l0,0v.05l0,0h.06l-.37.33,0,0v.06l-.07.05h-.06v.06l-.42.32c-.15.11-.25.15-.28.11l-.07.1.27.36a.33.33,0,0,0,.35,0l.05.07-.12,0c-.32.26-.46.42-.42.47l.17,0a2.45,2.45,0,0,1,.52-.54H64l.19.26c-.06.05-.08.1,0,.14l0,0,.1-.07.2-.21,0,0q-.14.11-.18,0c0-.05,0-.12.09-.22l.12,0,.31-.34,0-.06-.32.19,0,0v-.05l0,0,.19-.09.16-.12c.11-.08.15-.15.12-.19h0a.58.58,0,0,0,.12-.81l0-.06Zm-1.58,2.53-.1.08,0,0,.1-.07Zm.1.13-.07.05.08.1.12,0v-.06l0,0Zm.54-.77-.3.28,0,0c-.14.14-.19.23-.16.27l0,0,.16-.12.17-.18.19-.09v-.06Zm.28.51c-.15.12-.24.15-.27.11l-.13-.17-.14.16h-.05l0,.12h.06l0,.07c0,.05,0,.14-.16.27l0,0c.17-.13.28-.16.33-.1s0,.09-.05.14l.05.07c.16-.12.19-.23.11-.34s0-.17.22-.32ZM63.83,15l0,0-.11.13-.16.07,0,0v.11h0l0,0,.14-.21.16-.07V15Zm-.18-.17-.1.07,0,0,.1-.07Zm1.12-.29,0,.14-.59.45-.33.3-.19.09v.06l0,0,.06-.05,0,0v-.06l.07,0,.32-.19.3-.28.1-.07.22-.12.18-.24,0,0Zm-.92,1.16-.07.05,0,0h0l0,0L64,15.7ZM64,18.55l-.13.09.05.07.13-.1Zm.87-3.69h-.06l-.13.1c-.17.13-.22.25-.14.36l-.09.08-.14-.11-.09.07,0,.07,0,0h-.15l0,.18h.12l0,0-.2.15s0,.12.09.25l0,.17.14.05,0,0c-.2.19-.29.3-.26.35l0,0,.2-.15h0l.32-.39.22-.12.17-.12,0-.07,0,0-.35.21,0,0H64.4v.06l-.1.07-.05-.06c0-.06,0-.12.06-.2l0-.07-.06.05,0,0,.14-.15,0,.06-.07.05.08.1q.14-.09.18,0a.66.66,0,0,0,.14-.42l.31-.49a.31.31,0,0,1-.25.08l0-.12h.06l.09-.08ZM64.35,19l-.23.18,0,0,.22-.17Zm-.06-3.55.07.1-.13.1,0,0V15.5Zm.42-1.14-.42.32,0,.07.36-.27ZM65.2,19,65,19.1H65v.06l-.19.15-.22.11-.16.27,0,0,.28-.17.08-.1.28-.17.21-.2Zm-.55-.2-.23.17,0,0,.23-.18Zm.21-.93-.32.24,0,.12.19-.09.16-.13,0-.11Zm-.06-4-.13.1,0,0,.13-.1Zm0,4.45-.07.05,0,0,.06-.05Zm.4.26a.18.18,0,0,1-.29,0v.12l0,0c.08.11.06.21-.07.31l0,.07.19-.15c.11-.08.15-.17.12-.25Zm.08-.37-.21.06-.14.16,0,.06.17,0C65.25,18.38,65.29,18.28,65.25,18.22Zm-.31-.07,0,.11H65l0,0ZM65.11,14l0,.07.07-.05Zm.11,5.26-.07.05,0,0,.06-.05Zm0-3.74,0,0,.05.06.1-.07Zm.11,3.62-.13.1,0,0,.13-.1Zm0-1.7-.07.05,0,0,.06-.05Zm0,.65-.06,0,0,0,.07-.05Zm0-2.05,0,0v.12l0,0,.1-.07Zm.35-1.3-.07.11,0,0,.09-.07Zm0,3.78-.1.08h.12l0,0Zm.36-2.73-.16.07v.05h-.06L66,16V16h0l.07-.05Zm0-.56-.1.08,0,0,.12,0Zm0,2.28-.07.05,0,0,.06-.05Zm.69-.31,0,0-.06.05-.12,0v-.05l0,0Zm-.08.57-.07,0,0,.07.07,0Zm.2-1.43,0,.06c0,.05,0,.09,0,.14l-.19.09,0-.06,0-.12Zm.16.28c0,.28,0,.43,0,.47H67l0,0c-.11-.22-.1-.38,0-.47h.06Z"/><path class="cls-4" d="M69.67,19.23l.23.47v.06l0,0,0,0L70,20l.17.24L71,21.83l-.21.06,0,.13.22-.11.06.11,0,.11.15.11,0,.05,0,.11.1.09,0,0-.13.11-1.54.77-.17-.06L69.24,23l0-.15-.13-.07L69,22.53c0-.05,0-.09.07-.13l0-.06,0,0-.16,0-.11-.22-1.4.7,0,0,0,.06-.26.12.06.21h0v.06l.07.15h0v.06l.07.15h0l0,.06,0,0,.22.34a.21.21,0,0,1-.14.26l-1,.48c-.05,0-.1,0-.14-.11l-.22.11-.11.24L65.83,25l0-.06-.08-.15,0,0v-.18l-.11-.13,0-.11,0,0,.17,0,.22-.2L66,24l-.35.22-.07,0s-.09,0-.13-.07l0-.06,0,0a.38.38,0,0,0-.48-.12l-.16.12-.13,0-.42.26-.37.18-1.05.57h-.18l0,.05-.18.1,0-.08.29-.24c0-.06-.09-.07-.2,0s-.2.23-.18.27l.09.09,0,0-.11.15.17.15-.06.16.22,0c0-.07.18-.17.44-.31l0,0,0,0-.29.15-.2.05,0,0s.21-.23.7-.53l.09.09,0,.06,0,0,.18.27-.13.11,0,0,.11-.06c0,.08-.05.17-.27.28l.09.09.26-.13.11,0,0,.11-.06,0,0,0-.48.33-.26,0-.25.22-.39.15-.05-.11.18-.09,0-.07-.16.12c0-.07-.11-.08-.2,0s-.08-.06-.15,0l-.13-.17L61,24.89c-.06-.13-.06-.2,0-.22l-.19-.19-.27-.55.05-.16,1.25-.63.13-.11.4-.11,0-.05.15-.07,0,0c0,.05,0,.11-.19.19l0,0,.74-.36,0,0-.06,0,0,0c.13-.06.18-.11.15-.16.28-.11.44-.14.46-.09l0,.07.14-.07-.07-.15.33-.16.2,0,.33-.25.06,0,.4-.3.07,0,0,0,.43-.25,1.35-.68.26,0,.18-.18L68.2,20l.27-.09,0,0,.06,0,.73-.46.24-.07,0-.06,0,0Zm-8.41,4.92-.33.17,0,.07,0,0,.13-.11.13,0,0,0Zm.22-.38L61,24l0,.07.44-.22Zm0,.27-.11.06,0,0,.11-.05Zm.61-.07L62,24c-.4.2-.57.33-.54.41l.54-.22c.1-.09.14-.16.12-.2Zm1.63,2.35,0,.07-.35.22,0,0-.06,0,0,.06-.55.27,0,.06,0,0-.48.24-.13-.17c-.06-.12-.06-.19,0-.22l-.15-.11c0-.14,0-.22,0-.24s.13.17.2.13v.18l.05,0,0,0,.53-.31h.19l.33-.25.13,0,0,.07,0,.15.21-.06Zm-1.67-.13-.15.07,0,0,.13,0,0-.05Zm-.06-3-.07,0,0,0,.07,0Zm.63,1.43-.46.18,0,.06,0,0,.44-.13Zm-.19-.19-.25.13,0,.07.19-.09Zm-.14-1.12-.11.06,0,0,.12,0Zm.6.21-.22.11-.2.05,0-.07,0-.06,0,0-.11.05.06,0,0,.11-.2.15,0,0a.28.28,0,0,1,.28,0l.18-.18.22-.11Zm-.15,2.18-.31.2,0,0,.11,0,.18-.09,0-.11Zm1.09-3.25-.11.06-.2.15-.06,0,0,0L63,23l-.24.07-.22.11,0,.07,1.21-.6,0-.11Zm-.68,3.32-.48.24-.06.17h.15l.11,0a.7.7,0,0,1,.3-.33Zm-.46-1.92,0,.14,0,0,.09-.09.2-.06v0C62.9,23.84,62.81,23.84,62.69,23.9Zm.06-1.18,0,0-.08,0,0,0ZM63.85,24l-.17,0-.66.43-.24.07,0,.05,0,0,1-.51ZM63,22.61l0,0-.11.05,0,0Zm.12,3.93-.07,0,0,0-.09.09,0,0,.11,0h0l0-.12Zm0-1.85-.15.07,0,0,.15-.08Zm1.25-2.19-.13,0-.84.52-.33.16,0,.11.59-.29.2-.15.16,0,.41-.29Zm-.7,1-.59.3,0,.07,0,0,.35-.13C63.65,23.61,63.7,23.54,63.68,23.49Zm.17.79-.44.22-.24.17,0,0,.16,0,.24-.17.37-.18Zm-.56.92-.1.05v0l.13,0Zm.63-1.5h0l-.42.17-.09.09,0,.07.55-.27Zm-.24,2.45,0,.06,0,0-.11,0,0-.05,0,0Zm.3-2.8-.22.11v0l.21,0v-.09Zm-.06,2.82,0,0,0,.11,0,0,0,0,0-.11ZM64,22.41l0,0,0,.07.11-.05Zm.09,1.47-.11.05,0,0,.11,0Zm.17-.68-.22.11c0,.05.07.06.15,0l.09-.09Zm.37.64-.35.22-.08,0,0,.07.18-.09.28-.09,0,0,0,0-.06,0Zm-.13-.16-.11.05,0,0,.11-.05Zm.09-1-.18.09.11,0,0,0Zm.26.15-.19.09,0,0,.11,0,.07,0Zm0,.64-.13,0,0,.14.11-.05ZM65,22.17l-.07,0,0,.07Zm1,.65-.44.22-.59.38,0,0,.13,0,.16-.13.13,0,.62-.4Zm-1-.35-.07,0,0,0,.07,0Zm.22.16-.12,0-.1.09,0,0,.13,0,.09-.09Zm-.07-.88-.07,0,0,.07.08,0Zm.11,1.14-.07,0,0,.07.08,0Zm0-.88-.07,0v0l.08,0Zm.07-.22.11.22.24-.16.26-.13C65.92,21.65,65.72,21.68,65.35,21.79ZM65.61,24l-.08,0,0,0,.08,0Zm.2-2,0,0-.23.17,0,.07.08,0v-.05l.06,0,0,0,.09-.09Zm-.16.68-.08,0,0,.07Zm.18-.36h0l-.16.13,0,0,.12,0,.17-.13Zm-.17,1.59,0,.06,0,0,.11,0Zm.23-2.49-.21.05,0,.11v0l.26-.13Zm0,1.15-.11.06.11,0v-.09ZM66,24.3l-.11.06,0,0,.11,0,0-.05Zm0-.9,0,0,0,.08,0,0Zm.47-1.15-.42.16-.09.1.16,0C66.36,22.4,66.48,22.3,66.45,22.25ZM66,24.52l0,.11,0,.08.15-.08,0-.07Zm.17-.95-.15.07,0,.08.08,0Zm-.11-.5,0,0,0,.08,0,0Zm.33-.53-.21.15-.12,0,0,.05,0,.08.43-.26Zm-.06-1.12-.07,0,0,.07.08,0Zm0,.28,0,0,0,.07,0,0Zm0,2.4-.07,0,.11.22.11-.06,0,0ZM66.49,22l0,0-.08,0,.06.11h0Zm.16.51-.07,0,0,0,.07,0Zm.19.46-.26.13,0,.07.25-.13ZM67,21.11l-.11.06v0l.11-.05Zm.64-.36-.33.16,0,.07.33-.16Zm.15-.44-.22.11-.17.12,0,.08.11-.06.07-.13.17,0v-.09Zm.27,1.1-.59.29,0,.11.58-.29Zm0-1.21-.15.07.11,0Zm.12,2.09-.2.05,0,.06,0,0,.22-.11Zm.06-.35-.11,0,0,.08,0,0ZM69,19.7l-.46.19,0,0-.13,0-.09.09v0l.21-.06,0,0,0,0,0,0,.38-.24Zm-.55,1.19-.08,0,0,0,.07,0Zm.1.22-.1.06,0,.11.18-.09Zm.19.83-.15.07,0,0,.15-.07Zm.62-1.6-.35.22-.25.13,0,.08.54-.32.11-.05-.06,0Zm-.53-.23-.07,0,0,0,.07,0Zm.4,1.81-.07,0,0,0,.07,0Zm.26-.13h-.06l-.07,0,0,.11.05,0,.07,0Zm.33-2c-.07,0-.12,0-.14,0v-.15l-.05,0,0,0,0,.05,0,0,0,0,0,0,0,.2.19-.09Zm0,1.47,0,0,0,.11.11-.05Zm.24-.71-.15.07-.16.13,0,0,.31-.11,0-.06Zm-.11,1-.11.05,0,.08,0,0Zm.37.09-.3.15,0,.07.22-.11Zm0,.61-.26.12,0,.08.18-.09Zm-.11-1.14-.08,0,0,0,.08,0Zm.8,1.34-.11,0,0,0,.11-.05Z"/><path class="cls-4" d="M72.22,24.77l.15.51,0,0,.06,0v.21l.12.26.53,1.73-.21,0v.13l.23-.07,0,.11-.06.11.13.13,0,.05,0,.12.07.1,0,0-.14.08-1.65.51-.15-.09-.12-.39,0-.14-.11-.09L71,27.92c0-.05,0-.09.1-.11l0,0v0H71l-.07-.24L69.41,28l0,0,0,0-.27.08,0,.21,0,0,0,.05.05.16,0,0,0,0,0,.15.06,0,0,0v0l.16.38a.23.23,0,0,1-.19.23l-1,.31s-.09,0-.12-.13l-.24.07-.15.22-.21-.15,0-.05-.05-.16,0,0,0-.18-.08-.14,0-.1,0,0h.17l.25-.17,0-.08-.38.16-.08,0c-.06,0-.09,0-.12-.1l0-.05v0c-.13-.19-.28-.26-.45-.2l-.19.1h-.12l-.46.19-.4.12-1.12.38-.18,0,0,.05-.2.06,0-.07.33-.19c0-.06-.08-.09-.19-.07s-.24.2-.23.24l.08.11h0l-.14.13.14.17L64,30l.22,0c0-.07.2-.15.49-.23l0-.06v0l-.31.1-.21,0v0c0-.05.24-.19.77-.41l.08.11,0,.05v0l.14.3-.15.09,0,0,.11,0c0,.08-.08.16-.31.23l.07.1.28-.08.1,0-.06.11,0,0h0l-.52.25h-.26l-.29.18-.41.08,0-.12.19-.06,0-.08-.18.1c0-.08-.09-.1-.2-.07s-.06-.07-.14,0l-.1-.19-.44-1.45c0-.13,0-.2,0-.22l-.15-.21-.18-.59.08-.15,1.33-.41.15-.09.41,0,0-.05.16-.05v0q0,.08-.21.15v0l.78-.24v0l-.05,0v0c.13,0,.19-.09.17-.14.3-.06.45-.07.47,0l0,.08.16-.05,0-.15.35-.11.2.07.37-.2,0,0,.44-.23.08,0v0l.46-.18,1.45-.45h.26l.21-.15.91-.28.28,0v0l0,0,.8-.34.25,0,0,0h.17Zm-9.11,3.47-.35.11,0,.08h0l.15-.09h.13l0,0Zm.28-.34-.47.14,0,.08.47-.14Zm0,.27-.12,0v0l.12,0Zm.61,0-.12,0c-.42.12-.62.23-.59.31l.56-.13c.12-.08.17-.14.16-.18Zm1.22,2.59,0,.07-.38.16,0,0,0,0,0,0-.59.18,0,.05,0,0-.51.16-.1-.18c0-.13,0-.21,0-.22l-.13-.14c0-.14,0-.22.06-.23s.1.18.17.16l0,.18,0,0h0l.58-.22.18,0,.37-.2h.13l0,.08,0,.14.21,0Zm-1.63-.41-.15.05v0h.13l0,0Zm.81-1.4-.48.1,0,.05v0l.45-.05ZM64,27.46l-.08,0v0l.08,0Zm.22,1.3-.27.09,0,.08.2-.06Zm.1,1.3-.34.15v0l.11.05.19-.06.06-.1Zm.39.14-.51.16-.08.15.14,0,.12,0a.68.68,0,0,1,.34-.28Zm.12-2.26-.24.07-.2,0,0-.08,0-.05v0l-.12,0,0,0,0,.12-.23.11,0,0a.26.26,0,0,1,.27,0l.21-.15.23-.08Zm-.56-.3-.12,0v0h.13Zm.27,3.26-.08,0,0,0-.1.08v0l.1.05h0l.06-.1Zm1.16-2.37h-.17l-.72.3-.25,0,0,.05v0l1.1-.34Zm-1.12-.3,0,.14v0l.11-.08.21,0v0C64.79,28.2,64.7,28.19,64.57,28.23ZM65.92,27l-.12,0-.22.11,0,0h0L65,27.4l-.25,0-.23.07,0,.08,1.3-.4.05-.1Zm-1,2-.16.05v0l.16-.05Zm-.06-2,0,0-.08,0v0ZM65,29.61l-.12,0v0H65Zm.69-.81-.47.14-.26.13v0h.17l.26-.13.39-.12ZM65.05,27v0l-.12,0v0Zm.56,1-.63.2,0,.07h0l.37-.07C65.56,28.1,65.62,28,65.61,28Zm-.44,2.63,0,.05h0l-.1-.05,0-.06h0Zm1.29-3.49h-.13l-.92.37-.35.1,0,.11.62-.2.23-.11H66l.44-.23Zm-.65,1.1h0l-.44.1-.11.07,0,.08.58-.18Zm-.41,2.45v0l0,.11h0v0l0-.1Zm.52-2.78-.23.07v0l.21,0,0,0Zm0,.54-.12,0,0,0,.11,0Zm.28-.64-.24.07c0,.06.07.07.14.05l.11-.08Zm.25.7-.38.16-.08,0,0,.08.19-.06.29-.05,0,0v0l-.06,0ZM66.11,27h0l0,.08.12,0Zm.28,1.33-.11,0v0l.11,0Zm.26-1-.2.06.11.06h0Zm.12.82h-.13l0,.14.12,0Zm.11-.63-.2.06,0,0,.1.05.08,0ZM68,27.7l-.47.15-.64.28v0H67l.19-.1h.13l.68-.3Zm-.88-.8-.08,0L67,27Zm0,.3-.08,0,0,0,.07,0Zm.19.2h-.13l-.1.07v0h.13l.1-.07Zm0,.26-.08,0,0,.08.08,0Zm.08-1.14-.08,0,0,.08.08,0Zm.08.27-.08,0v0l.08,0Zm0,2-.08,0,0,0,.07,0Zm.07-.07,0,.05v0l.12,0Zm0-2.11.07.23.26-.12.28-.08C68.13,26.55,67.92,26.54,67.54,26.59Zm.14.9-.07,0,0,.08Zm.09,1.69-.12,0,0,0,.1.06,0,0ZM68,26.85h0l-.26.12,0,.08.08,0,0-.06,0,0h0l.1-.07Zm-.21,2.55,0,.1,0,.08.16,0,0-.08Zm.18-2.24h0l-.19.1,0,0h.12l.19-.1Zm0,.26-.12,0,.1.06,0-.05Zm0,.86,0,0,0,.08,0,0Zm.24-2-.21,0,0,.1v0l.27-.08Zm-.06,2.2-.15.05,0,.08.08,0Zm.48-1.26-.45.1-.1.07.15.08C68.43,27.36,68.56,27.28,68.55,27.22Zm-.5.76h0l0,.08h0Zm.41-.47-.22.11h-.13l0,.05,0,.08.46-.19Zm-.26,1.54-.07,0,.07.23.12,0,0,0Zm.43-2.11,0,0-.08,0,0,.12,0,0Zm-.08-.27h0l0,.08,0,0Zm0-.27-.07,0,0,.08.08,0ZM68.82,28l-.28.08,0,.08.28-.08Zm-.11-.49-.08,0v0l.08,0Zm.55-1.28-.12,0v0l.12,0Zm1,.47-.63.19,0,.1.63-.19ZM70,25.94l-.35.1,0,.08L70,26Zm.22-.41-.23.07-.19.1,0,.08.12,0,.09-.11h.17l0-.05Zm0,2-.21,0,0,.05v0l.24-.07Zm.11-.34-.12,0,0,.08h0Zm.11-1.75-.16.05.1.06Zm.39,1-.12,0-.05.1.19-.06Zm-.07-.24-.08,0v0l.08,0Zm.11,1.08-.15.05v0l.15-.05Zm.63-2.16-.49.11,0,0h-.13l-.11.08v0l.21,0v0l0,0h0l.42-.17Zm.25.69-.38.16-.27.09,0,.08.58-.22.12,0-.06,0Zm-.48-.32-.08,0v0l.08,0Zm.09,1.86-.07,0v0l.08,0Zm.28-.09,0,0-.08,0-.06.1.06,0,.07,0ZM72,26.8l0,0,0,.1.12,0Zm.09.28-.12,0,0,.08h0Zm.16-1.72c-.08,0-.13,0-.15,0l0-.15-.06,0h0l0,.05h0l0,0v0l0,.21.2-.06Zm.11.78-.16.05-.19.1,0,0,.32-.05,0-.05Zm0,1.68-.27.09,0,.08.2-.06Zm.12-.59-.31.1,0,.08.24-.08Zm0-.55-.07,0v0l.08,0ZM73,28.14l-.12,0v0l.12,0Z"/></g></g></g></svg>