<svg xmlns="http://www.w3.org/2000/svg" xmlns:xlink="http://www.w3.org/1999/xlink" viewBox="0 0 74.8 74.8"><defs><style>.cls-1{opacity:0;}.cls-2{fill:#fff;}.cls-3{fill:url(#radial-gradient);}.cls-4{fill:red;}.cls-5{fill:url(#radial-gradient-2);}.cls-6{fill:url(#linear-gradient);}</style><radialGradient id="radial-gradient" cx="37.4" cy="62.33" r="19.47" gradientTransform="translate(0 54) scale(1 0.13)" gradientUnits="userSpaceOnUse"><stop offset="0"/><stop offset="0.32" stop-color="#231f20" stop-opacity="0.6"/><stop offset="1" stop-opacity="0"/></radialGradient><radialGradient id="radial-gradient-2" cx="37.4" cy="37.4" r="24.93" gradientUnits="userSpaceOnUse"><stop offset="0.64" stop-opacity="0"/><stop offset="0.95" stop-color="#231f20" stop-opacity="0.29"/><stop offset="1" stop-opacity="0.5"/></radialGradient><linearGradient id="linear-gradient" x1="37.4" y1="39.33" x2="37.4" y2="13.47" gradientUnits="userSpaceOnUse"><stop offset="0" stop-color="#fff" stop-opacity="0"/><stop offset="1" stop-color="#fff" stop-opacity="0.7"/></linearGradient></defs><title>orb-theatre-wtext</title><g id="Layer_2" data-name="Layer 2"><g id="Layer_1-2" data-name="Layer 1"><g id="orb-theatre-wtext"><g class="cls-1"><circle class="cls-2" cx="37.4" cy="37.4" r="37.4"/></g><ellipse class="cls-3" cx="37.4" cy="62.33" rx="21.95" ry="3.59"/><circle class="cls-4" cx="37.4" cy="37.4" r="24.93"/><path class="cls-2" d="M33.05,49.23a3.63,3.63,0,0,1-3-1.35,51.88,51.88,0,0,0-5.25-5.54,16.11,16.11,0,0,1-2-2.36,3.61,3.61,0,0,1-.42-2.55,5.1,5.1,0,0,0-.13-1.91c-.36-1.28-.85-2.52-1.27-3.78a13.63,13.63,0,0,1-.48-1.69c-.08-.38.05-.75.53-.71a20.24,20.24,0,0,0,5.69-.72A38.73,38.73,0,0,0,34,26.26a9.7,9.7,0,0,0,1.35-.72c.61-.38.93-.33,1.13.38s.33,1.56.49,2.35.38,1.84.56,2.76a5,5,0,0,0,1.1,2.24A4,4,0,0,1,39.3,37c-.54,2.17-1.17,4.31-1.72,6.47-.19.73-.29,1.5-.41,2.25A4.05,4.05,0,0,1,33.05,49.23Zm-6.56-8.84a18,18,0,0,0,4,5c2.21,1.76,4,1.27,5-1.39a16.46,16.46,0,0,0,.92-4.82c0-.47,0-.94,0-1.43C33.75,41.12,30.45,41.94,26.49,40.39ZM29,35.21l.12-.13a14.81,14.81,0,0,0-1.44-1.32A1.21,1.21,0,0,0,26,34a3.74,3.74,0,0,0-.42,2.5C26.55,34.67,27.08,34.49,29,35.21Zm6.13-1.42.15-.15A19.73,19.73,0,0,0,33.78,32a1,1,0,0,0-1.39.11,2.88,2.88,0,0,0-.79,2.41C32.82,32.93,33.3,32.83,35.17,33.79ZM30.93,31.1c1.79-1.29,2-1.32,4-.76a2,2,0,0,0-2.16-1.23A2.31,2.31,0,0,0,30.93,31.1Zm-6.88,2.32C25,31.83,26.35,31.59,28,32a2.41,2.41,0,0,0-2.73-.82A2.16,2.16,0,0,0,24.05,33.42Zm5.7,5.35,0,.18c.66,0,1.1.94,1.81.51A9.72,9.72,0,0,0,33,38.15l-.15-.22a3.52,3.52,0,0,0-.88.54,1,1,0,0,1-1.14.32A3.93,3.93,0,0,0,29.75,38.77Zm-3.17.72c-.51-.17-.92-.2-1.22.21s-.1.57.27.89C25.62,39.89,25.74,39.73,26.58,39.49Zm9.36-2.73,0,.2a1.12,1.12,0,0,1,1.43.44c-.09-.34-.2-.79-.42-.85S36.29,36.68,35.94,36.76Z"/><path class="cls-2" d="M42.08,50.56a4.12,4.12,0,0,1-4.2-4.86c.41-2.31,1.07-4.57,1.62-6.85.2-.86.44-1.71.58-2.57a4.07,4.07,0,0,0-.94-3.46,2.12,2.12,0,0,1-.53-2.35,24.8,24.8,0,0,0,.64-2.74,3.85,3.85,0,0,1,.37-.92.48.48,0,0,1,.79-.17,22.11,22.11,0,0,0,5.83,2.71,35.29,35.29,0,0,0,7.51,1.87,6.36,6.36,0,0,0,.88,0c.63,0,.84.22.66.84s-.47,1.32-.72,2c-.44,1.17-.93,2.33-1.33,3.51A2.86,2.86,0,0,0,53.06,39a4.35,4.35,0,0,1-1.58,4.14c-1,.94-2.09,1.78-3.09,2.72S46.2,48,45.17,49.14A4.06,4.06,0,0,1,42.08,50.56Zm-3.53-5.47c2-1.19,5.85-.21,7,2.15.58-1.61.26-4.17-1.85-5S39.68,42.41,38.55,45.09ZM45,34.2,44.84,34a4.65,4.65,0,0,1-4.41.37A1.65,1.65,0,0,0,41,36.2a1.36,1.36,0,0,0,1.74,0C43.55,35.59,44.25,34.88,45,34.2Zm5.36,3.33a4.91,4.91,0,0,1-3.54-2.87,16.51,16.51,0,0,0,.47,2.91,1.41,1.41,0,0,0,1.43,1.09A1.77,1.77,0,0,0,50.33,37.53ZM51,36.07a8.83,8.83,0,0,1-3.29-4.29C47,33.75,48.41,35.56,51,36.07ZM40.66,32.74c2.13,1.21,4.87.36,5.16-1.53A8.69,8.69,0,0,1,40.66,32.74Zm5,7.85,0-.28a5.36,5.36,0,0,0-1.06,0A1,1,0,0,1,43.47,40a4.19,4.19,0,0,0-.87-.6l-.16.21c.44.46.8,1.15,1.33,1.32S45,40.71,45.62,40.59Z"/><path class="cls-4" d="M1.2,29.65l.18-.59L1.53,29l.51.16,0-.08-.51-.15-.08-.16L2,27q.47,0,4.56.81l0-.07,0,0a24.13,24.13,0,0,1-2.88-1.24l0,0a7.36,7.36,0,0,1-1.28-.61l0-.08.16-.38.13-.56.5-1.6.15-.08.59.18.26.12.49.11L8.9,24.92c.13,0,.18.1.16.17l.11,0c0-.08.1-.1.24-.06l3.52,1.1.08.16L12.5,28l-.15.08-1.77-.55c-.39-.13-.57-.21-.56-.26l-.34,0-3.37-1v0l.06.11.07,0c.6.19,2.52,1,5.76,2.48l0,.05-.37,1.18c0,.09-.49,0-1.4-.18l-4.69-.82v0l5.72,1.78.08.16-.16.5-.15.09-.47-.15-.29-.18h0a.77.77,0,0,1-.51,0l-.27-.08-.1,0,.23.07.62.24.05,0h0l0,0,.73.15,0,.14,0,.08q-.06.2-.3.12l0,.08h.17l0,.14-.07.23c-.05.16-.18.21-.39.14L8.94,32.1,8.71,32,8,31.84l-.23-.11-.28-.05-.3-.14,0,0L7,31.51l-.48-.11-.16-.18-.12,0-.14.05-.39-.13c-.3-.14-.44-.24-.43-.3l0,0,0,0v0l-.12,0,0,.12,0,0-.07.1-.79-.24-.56-.13-.16-.18-.9-.28L2.41,30l-.15-.09-.76-.15-.12,0Zm.94-.26,1.29.4.1-.06-.14-.08-.29,0-.86-.27Zm.77.54h.21l.09.11c.12,0,.19,0,.2-.06l0-.08h0l-.34,0-.11,0ZM4.48,30l0,.05h0l.25,0L4.74,30l-.15-.05Zm.36.11.58.18a1,1,0,0,0,.46.06l.14.08.92.24h.17v0L7,30.56l0,0-.57-.23-.08,0,0-.05-.87-.1L4.94,30Zm.65-3.36.24.07,0-.08h0l-.21,0ZM6,30.94l.16,0,0-.08-.07,0Zm.21-.79.08,0v0l-.08,0Zm.36-1.31.08,0v0l-.08,0Zm.28,2.28,0,.1.12,0,0-.08h0l.26.13h.13l-.08-.15-.12,0c-.07,0-.2,0-.42,0ZM7.1,31h0l.21,0-.06-.11-.16,0Zm0-.28.08,0,.21,0v0l-.26-.12Zm.45.65h0l.41.08v0l-.26-.12Zm.1-.74.08,0,.1-.05-.16-.05Zm.46.87.07,0v0l.29,0,.19.06.09.15-.08.11.08,0,0-.11.12,0a.8.8,0,0,0,.55-.09l-.79-.24C8.35,31.41,8.17,31.39,8.15,31.47Zm0-.86.07,0v0l-.07,0Zm.78.25q.08,0,0,.18l0,.05H9l.13-.26,0-.05h0Zm.85.86.11,0,0-.12H9.81ZM10,31.6l0,0,.21,0,0-.08-.16-.05ZM10.17,27l.08,0,0-.08-.07,0Z"/><path class="cls-4" d="M4.5,20.47l.21-.35L4.83,20l0-.16.22-.35.19-.17,0-.11.08-.14c.16-.26.27-.37.34-.32l.6.36.61.41.37.18,0,0,0,0,.85.51.54.37.12,0,.23.19,1.14.64.23.18.41.2,1.33.81q.94.57,1.08.36c.12-.21,0-.42-.31-.62l-.66-.4a.31.31,0,0,1-.16-.29l-.2-.07-.49-.29,0-.06-.57-.16,0-.05-1.25-.71-.7-.42-.12-.12-.16-.05-.28-.17v-.06l0,0,0,0,0-.06,0,0-.3-.14c-.12-.07-.16-.14-.11-.21l0,0c0,.07-.14.06-.31,0l-.28-.17v-.06l-.06,0-.77-.56L6,18.24,6,18.14,6,18q.11.06.15,0c-.09-.07-.11-.14-.08-.19h.24l.07,0,.09.1,0,0h0l0,0c-.21-.12-.33-.22-.35-.3.16-.13.25-.18.29-.16l.11.06,0,0-.13.06.16.14s.11,0,.23-.15l.16.05c0-.05,0-.12-.11-.21l0-.07.2.07.06-.1c0-.05,0-.11-.17-.2l0-.07.24.09,0,0c-.24-.14-.33-.25-.29-.32l.17,0-.09-.1L7,16.57l-.08-.1.06-.1.42.25h.06v.05l.07,0,.21,0,0,0,.07.13.12,0,.19.16c0-.05.22,0,.56.19l.07,0,0,0,.72.39,1.83,1.1a.7.7,0,0,1,.28.41l.07,0a1.31,1.31,0,0,1,.57.16l.09.1.37.17.1.16.25.05,1,.65h0l0,0c.17.14.24.23.22.28l-.1.08V21l0,0s.1,0,.15-.1c.38.23.62.77.74,1.64a2.59,2.59,0,0,1-.29,1l-.25.42a2.43,2.43,0,0,1-2,1.13.45.45,0,0,0-.37,0L12.2,25l.08-.14-.17-.1-.06.1.12.12,0,0-.85-.33-.23-.18-.65-.35L10.09,24l0-.11.92.46,0-.07-.09-.1-.12,0-.09-.1c-.67-.36-1-.51-1.07-.45s.1.09.07.13l-.06,0-.17-.11-.19-.16a1.66,1.66,0,0,1-.61-.27l-.17-.11-.33-.24L8,22.76l-.43-.32-.13,0L6.91,22l-.11-.06-.43-.16-1.68-1H4.63C4.52,20.61,4.47,20.52,4.5,20.47Zm.36-.11.6.36.44.21,0,0-.33-.25.14-.15v-.06l-.37-.17,0,0c.12.07.17.15.14.23l-.57-.24Zm.16.38L5.4,21l.1-.09-.21-.12,0,.07-.09-.1L5,20.7Zm0-.55.1.06.12,0L5,20.07Zm0-.35.46.27.11,0-.35-.21-.2-.07Zm.16-.19.46.27,0,0v-.06l0,0H5.62l-.38-.23Zm.51.59,0,0,.12,0-.18-.1Zm.18-.85.1.06,0,0-.1-.07ZM6,19.18l.06,0,0,0,.11.12h.06l0,0L5.94,19C5.91,19.09,5.93,19.13,6,19.18Zm.2-1.13.16.14.11,0v-.05l0,0L6.23,18Zm.12,3.14.25.15,0-.07-.27-.12Zm.1-.56.11.06,0-.07-.11-.06Zm.2-3.43.11,0,.14.09,0,.07Zm0,3.28.08.1.25.06,0-.13-.21-.13-.11,0Zm.09.63.14.09.05-.07L6.79,21Zm0-.9.17.11,0-.07-.18-.11Zm0-.33.35.21,0-.07-.28-.17Zm0-3.27.18.11,0,.07-.16-.05,0-.06Zm0,4.82v.06l.07,0,.12,0,0,0-.11-.07Zm0,.32.29.22H7.2l0-.07L7,21.72Zm.34-.09.1.07.16.05.09.09.06-.1-.12,0-.12-.12-.13,0Zm.16-.19.07.05.11,0,0-.11-.07-.05-.11,0Zm.07-3.69c.09.17.11.29.06.37l.07.05.06,0v.06l.11.06.11,0s0-.09-.06-.13l-.13,0c0-.05,0-.17-.17-.34l0,0Zm.12,3.38.07,0,0,0-.07,0ZM7.77,21l.14.18,0,0H8l0,0v-.05L7.88,21Zm.1-2.38v.05l0,0,.17,0-.07,0,0-.06-.11,0Zm.24-.24.15-.1,0,0,0-.11-.17,0,0,0Zm0,1,.07,0h.06v.06l.27.11.14.08,0-.07-.17-.1-.38-.18Zm.14,1.67.11.06.06-.1,0,0-.11,0Zm.4-1.68.24.15.11,0-.31-.19Zm.19,2.22,0,0,0-.07,0,0Zm.46-1.88.28.17,0-.07-.21-.12Zm.27-.45.25.15.11,0v-.06l-.11-.06-.19-.07Zm.16,4,.07.13,1,.49.09.1c.26.14.41.18.45.13l0-.06-.71-.33-.5-.35.06-.11.44.22.21.13.05-.07-.07,0-.45-.22,0,0-.06,0,0,0-.22-.18,0,.07L9.91,23l0,.13Zm.16.53,0,0,.11.07,0,0ZM10,19.45l.1.07,0,0-.1-.06Zm.41,3.61.11.06,0,0L10.39,23Zm.18-.23.26.21.06,0,0,0v-.06l-.21-.13ZM10.73,19l0,0,0-.07,0,0Zm.09-.23.11.07,0-.08-.1-.06ZM11,20.66l0,0,0-.07L11,20.55Zm.08,1.86v.06l0,0c.12,0,.19,0,.21,0l-.14-.08Zm.1,1.26.07,0,0,0-.07,0Zm.2-2.56,0,0,.19.08.07-.11-.16-.14-.07,0-.11,0Zm.1-.32.14.08,0-.07-.14-.08Zm.21-.11,0,0,.06-.11-.11-.06,0,0Zm0-.35.07,0,.12,0,0-.06-.1-.06Zm.09,1,.07,0,.12,0,0,0-.14-.09Zm.06-1.21.18.11.06-.11-.17-.1Zm.15.95.07,0,0,0-.07,0ZM12,20l.11,0v0l-.13,0Zm.42,4.47,0,0,0-.07,0,0Zm1.3.07v.05l.11.07,0,0,0-.11Zm0-4,.14.09,0-.07-.14-.09Zm.13.42,0,.05,0,0L14,21Zm.34.15.07.05,0,0-.07,0Z"/><path class="cls-4" d="M9.89,12.19c.23-.26.43-.37.59-.34l0-.15a2,2,0,0,1,1.61-.41l.45.18.06.06v.06l0,0c.07-.08.52.24,1.34,1l0,.14-.33.37h-.06v.06l-.7.75h-.05V14l0,0c-.13.1-.22.13-.26.1L12.45,14l.06-.06-.15,0-.21-.31,0,0c-.48-.29-.76-.39-.83-.31l0,.06c-.19.2-.12.45.2.74l.27.25a1.65,1.65,0,0,0,1.72.2c1.5-.3,2.52-.19,3.06.31,0,0,.31.17.84.61l0,0h.06l.21.2v.06h.06l.06,0s0,.1-.05.18V16l.06.06a.22.22,0,0,1,.2-.09,2,2,0,0,1,.46.7h.06l0,0c.16.31.22.53.17.66l-.09-.08-.05.06.18.11A2.39,2.39,0,0,1,18,19.27l-.14-.08a.49.49,0,0,0-.13.38h-.24l0,.15,0,0H17.3v.06l0,0c-.24.18-.41.24-.49.16l-.14.16c-.26.13-.54,0-.85-.23l-.06-.06-.05.12.18.17,0,0a2,2,0,0,1-1.12-.42v-.12l0,0a.45.45,0,0,1-.3-.1L14,19.14l-.36-.28-.06-.11-.18-.11.05-.17L14,18l.05-.12h.06l.24-.33.37-.39h.17c.23.24.33.37.31.4l-.17.24h-.06v-.06l-.06-.06h-.12l0,0,.09.08h.06v.06l0,0,.12.05.21.25.18.11.05-.06v-.06l0,0a1.8,1.8,0,0,1,.5.3c0-.05.2-.07.44,0l.19-.16.11-.29c-.24-.3-.35-.47-.31-.51h.06l.12.17.15.08v-.18l-.09-.08h-.06l-.06-.17-.2.15a1.87,1.87,0,0,0-1.8-.65,7.17,7.17,0,0,1-2.75.14l-1.1-.63-.12-.17L10.44,16l-.06-.11-.24-.17c-.82-.83-1.13-1.56-.93-2.2h.06c-.07-.09-.08-.15,0-.2s.09,0,.15,0l.06-.06c-.08-.07-.11-.13-.07-.17l0,0,.42.33V13.3l-.27-.25-.12-.17.17-.13v-.11l0,0h.06l.05-.17c.11,0,.18.05.21,0l0,0C9.86,12.32,9.84,12.24,9.89,12.19Zm-.37,1.67,0,0h.11l-.15-.14Zm0-.35.09.08.06-.06-.09-.08Zm.38,0,.06.06h.12l-.07-.05Zm.2-.88.36.34s0-.09,0-.15l-.3-.22Zm.1.49.09.09.09-.09L10.33,13Zm.33-1.2.13.23.32.19.4.36.17.11,0,0c.06-.06.05-.13,0-.2a.91.91,0,0,1-.38-.19c-.17-.18-.23-.29-.19-.34h.12L11,12l-.11.12-.21-.19H10.6Zm.36,3.85.06.05.08-.09L11,15.69Zm.26-3.55h.06l0,0-.09-.08Zm.31-.39.21.19,0,0v-.12l-.15-.13Zm0-.38.24.16.06.06,0,0v-.12l-.18-.16h-.11v.06Zm.18,1.5.12.11V13l-.12-.12Zm.16,2.55.12.11.08-.09-.12-.11ZM12,13.15l.12.17.18.17v-.17l-.09-.09L12,13.12ZM12,15.36l0,0,.09-.09-.09-.08,0,0Zm.58-1.59.06.05,0,0-.06,0Zm1.05,4.66.06.05,0,0-.06-.05Zm.32-.1.12.11,0,0L14,18.3Zm.06-2,.15.14,0,0-.15-.14Zm.33,1.7.18.11v.06l0,0,.11.05.06-.06-.06-.05,0,0-.12-.05L14.5,18l.05-.06.42.27.21.25h.06l0,0v-.06l-.7-.64-.11.12.06.06,0,.06-.06-.06,0,0Zm.38,1.41.06.05,0,0-.06-.05Zm.1-1,.25.34,0,0,.08-.09-.33-.3Zm.07.89.21.2.08-.09-.12-.17-.12,0Zm.14-1.54.08-.09,0,0,.13.17-.06.06-.18-.05Zm.08,1.3.21.2.06-.06-.21-.2Zm.51-.25.09.08,0,0-.06-.11Zm.61,1.34h.06l.05-.06V20h-.12Zm0-.35.18.11.05-.06a.22.22,0,0,1,0-.35l-.06-.05h-.11C16.29,19.65,16.27,19.76,16.31,19.8Zm.32-.1,0,0,.05-.06,0,0Zm.16-2.47v.06l.09.08.06-.06v-.06l0,0H17l0,0h.06l.08-.09L17,17l-.08.09Zm.08,2.69s.12,0,.25-.09l0,0h.06l.06-.06v-.12l-.06-.05,0,0-.17.23,0,0Zm.14-.7.25.34h.06l.05-.06L17,19.19Zm.12-2.29c.23.18.37.26.41.21l-.27-.25h-.12Zm.28,2,.33.24,0,0-.24-.28h-.06Zm.1-.24.07.06,0,0-.06-.06Zm.25-1.9.06.06.24.16v-.17l-.24-.11Z"/><path class="cls-4" d="M13.52,8.84,14,8.48l.15-.07.1-.13.14,0,.28.36,0,.17-.23,0,0,.07,0,0,.29.3.38.48,0,0,0-.18-.2-.25-.14-.05L14.66,9V8.91l.31.18.43.55.12,0-.15-.25-.1-.07L15.19,9l0,0,.22.14,0,0-.06.05.1.13.12,0L15.45,9h-.06l0,0-.18-.28-.41-.46L14.69,8l.18,0c-.07-.08-.08-.14,0-.18l.26-.2.05.06,0,0v.06l.15.19.55.56.14.25.42.46,2.17,2.73.14.31,0,0c.09.1.15.14.19.11v.05l.21.2.05.07.58.8.23.23.1.18.18.17.07.15.44.49.67.84,0,.17-.12.1C21.11,16,21,16,21,16l-.14.22-.28.17v.06l0,0h-.06l-.36.34-.19.15s-.14,0-.3-.18l-.07-.15L18.94,16l-.3-.39,0,0h.15v0l0,0-.21-.2v.06l-.1.08,0,0c-.31-.39-.44-.65-.41-.78L18,14.49a.39.39,0,0,1-.27-.14l-.11-.13-.19-.32-.29-.29-.05-.07-.17-.28-.31-.33-.82-1-.44-.48v-.06l0,0-.39-.43-.3-.38-.28-.42H14.3V10l0,0c.05.07.1.08.14.05l0,0-.12-.21-.14-.11,0-.12h-.06l-.06.06.17.28,0,0-.11-.07L14,9.69l-.24-.24-.21-.4L13.47,9Zm.25.06.08.09.06-.05-.11-.07Zm.33-.05,0,0,.11.07.12.22.07-.05-.26-.32Zm0,.5.07.09.12,0-.07-.16h-.06Zm0-.85.23.29,0,0-.23-.29Zm.75-.44.1.19h0l0,0L14.92,8Zm0,2.23.3.38.1-.08-.15-.25L15,10.21Zm0-.44.15.19.06,0,0,0L15,9.82Zm0,.85,0,.07h.12l-.1-.13Zm.12-2.29h.12l-.1-.13Zm.13,1.88,0,0,0,0,0-.12,0,0,0,0Zm.29-1.42L15.6,9l0,0-.08-.1Zm.08.5.08.1,0,0-.07-.09Zm.06.53.08.1h.11l-.13-.16Zm1,1.26c.25.29.41.42.45.38l-.38-.48Zm.07-.83.15.25.22.29c.09-.07,0-.22-.15-.46l-.19-.11Zm.07.62.08.09.14.05.36.45h.11L17,10.91h-.11Zm.51.9.36.45.11,0,0-.18a.86.86,0,0,1-.35-.31H17.4Zm0,1.7.08.1.06-.05-.08-.1Zm.39-1.62.08.1,0,0-.08-.09Zm.46,1.37.12.16.07-.05-.13-.16Zm.15-.28h.05l0,0-.07-.09Zm.05-.25.08.09v-.11H18.5Zm0,2,.09.19.21.26q.18.24.3.18l-.54-.68Zm.2-2.25,0,.06,0,0-.05-.07ZM19,15.05l.23.29v-.12l-.13-.16Zm.3.71.07.09,0,0-.07-.1Zm.07-1.95.05.12h.06l.06,0,0-.07Zm0,1.72.23.29s.14,0,.33-.11H20l.18.23.06-.06-.11-.07-.09-.18-.1-.13h-.12l-.06.05,0,.06s-.16,0-.37-.13Zm.1.92.08.09,0,0-.08-.1Zm.22-.18.23.29c.05,0,0-.15-.1-.33h-.06Zm.48-1.06.05.07.09-.08-.1-.13,0,0Z"/><path class="cls-4" d="M19.21,4.81l.13.07.18.32.07,0-.18-.32,0-.11s.09,0,.13.07h.06l0,0c0-.07,0-.12,0-.15l0,0,.11,0,.09-.1c.37-.21,1-.13,1.83.25a5.86,5.86,0,0,1,1.54,2l.24.43.21.45-.22.12-.2,0c0,.07,0,.12,0,.15l-.11,0L23,7.58l0,0a.21.21,0,0,0,.25.09l-.09-.23L22.93,7l-.08,0c.15.3.19.46.14.49l-.12,0,0,0,.22.39.06,0V8L23,8.11l-.18-.23s0,.13,0,.31l0,0-.06,0,0,0-.06.14h-.19l-.12.12-.11,0,0,.17h-.24v.05l0,0-.13-.06-.24-.43c-.73-1.32-1.15-1.95-1.24-1.89l-.27.1c-.2.11-.16.4.11.88l.26.56h.06l0,0c.23.49.33.75.29.77l.1.09,1.25,2.16.35.61.25.38v0l0,0q.51.93.84.75l.06.11.07,0c-.05-.1,0-.19.13-.27l-.59-1.31,0-.11-.51-.75.05-.17,0,0,.2-.07,0,0L23,10h.15l.17-.19.11-.06c.12-.06.19-.07.22,0V9.69l.11-.06.06,0,.1-.15a.42.42,0,0,1,.21.21l.11-.06-.14-.16.07-.13.13.06.14.26.07,0-.12-.39.16-.05.1.27.08.15.11,0,.05.25.16.2,0,.16.2.27a2.19,2.19,0,0,1,.34,1.12l.06,0,0,0a1.06,1.06,0,0,1,0,.77l0,0-.06-.1-.11.06.16.28a2.19,2.19,0,0,1-1.06,1.39l-.16,0-.28-.51-.12,0v.06l.34.61,0,0c-.05,0-.12,0-.2-.12l0,0,.05.25a.11.11,0,0,1-.17,0l0,.05,0,0A2,2,0,0,1,21.54,14a10.94,10.94,0,0,1-1.34-2l-.72-1.29-.14-.34-.14-.16L19.08,10l-.06,0,0,0,0-.16,0,0,0-.06-.32-.57-.06,0,0,0,0,0-.14-.16c-.42-.8-.56-1.23-.45-1.3l0,0,0,0c-.07-.25-.08-.38,0-.41l0,0L18,7.2l.07,0-.14-.25a.36.36,0,0,1,.05-.4c0-.07,0-.18.1-.34s0-.21.15-.41l.1-.06.12.12,0,0q-.15-.28.09-.42s0-.12.21-.22v0h.05l0,0ZM18.05,6.45l0,.07.17,0-.06-.1-.11,0Zm0,.42,0,0,.11,0-.1-.17Zm.11.69,0,0,.07,0-.06-.11Zm0-.53.06.1,0,0L18.22,7Zm.11-.82.06.11,0,0-.06-.11Zm.06,2.13.06.11.07,0,0,0Zm.05-.92.08.14,0-.11Zm0-1.47.08.14.11,0-.12-.21Zm.12,1.72.08.14,0-.11Zm.08.66,0,.07,0,0,0-.07Zm0,.42.24.43s.05-.08,0-.15l-.22-.3Zm0-1.41h.06l0,0-.06-.11Zm.23,1.33.06.1.11,0,0-.05,0-.07-.11,0Zm0-.45,0,.08,0,0,.13.15.33.58.07,0-.36-.65-.14-.16Zm0,1,.08.14,0,0L19,9.21Zm.1-.33.14.25,0,0-.08-.24h-.06Zm.16.8.28.5.11,0-.36-.64Zm.12-.3.18.32.11,0-.18-.32Zm.28-.58,0,.07.07,0,0-.07Zm0,1,.3.54.07,0,0-.07,0,0L19.81,10l-.08-.15Zm0-4.51.18.32.08,0-.18-.32Zm.09,4.18L20,10l.11,0,0-.08,0,0C19.89,9.61,19.77,9.48,19.72,9.51Zm0-2,0,.08.07,0,0-.08Zm0,1.58.12.22,0,0c.05,0,.05-.08,0-.15l-.1-.09Zm.1-.33,0,.05c.13.18.22.26.27.23L20,8.8Zm.08.65,0,0,.16.19,0,.13c.19.3.31.44.37.41l0-.07L20,9.38Zm.17-.28.07.2.11,0v0l-.08-.15Zm.13-.78.34.61.11,0,0-.12C20.47,8.49,20.32,8.32,20.25,8.36Zm0,3.6,0,.07.07,0,0-.07Zm.07-2.39.26.47.11,0-.24-.52-.06,0Zm.12,2.14,0,.07.11,0,0-.08Zm0-.44.12.22.08,0,0,0-.14-.16Zm.06-1.91.12.21.14.16,0,0-.09-.14-.17-.23ZM20.65,11l.06.1.11,0L20.76,11Zm.11-.82.1.18.17.23,0,0-.2-.35Zm0-1,0,0,.47.77h.06l0,0-.1-.18-.14-.16L21,9.3l-.17-.14Zm.05,3.54.06.11,0,0-.06-.11Zm0-1.41.08.14.07,0-.12-.21ZM21,12.52l0,0,.11,0v-.05l0,0h-.05Zm.1-1.75,0,0,.07,0-.06-.1Zm.21,1.71.08.15,0-.11,0-.08Zm0-5.89,0,.07,0,0,0-.07Zm0,6.57,0,.07,0,0,0-.07Zm0-3.07.06.11,0,0-.06-.11Zm.3,2.05.18.32.07,0-.14-.25Zm.06-3.84,0,.07,0,0,0-.07Zm0,4.53.06.11,0,0-.06-.11ZM23,6.73l.19.41.21.31,0-.06,0,0H23.4l0,0,0-.13L23,6.71Zm.16,7.43.06.11,0,0-.06-.11Zm.35-3.58.16.29.07,0-.16-.29Zm.15,2.36.06.11.07,0-.06-.11Zm.05,1.1.1.18,0-.11,0,0ZM24,10.39l.08.15.07,0,0-.07Zm.17,2.91.16.29,0-.11-.08-.14Zm.11-2.41.08.15.11-.06,0-.07-.12,0Zm.05,1.62.2.36.12,0-.28-.5Zm0,.51.12.22.09-.1L24.49,13Zm.11-.81,0,0,.07,0,0,0Zm.18.84.18.23,0,0L24.71,13l0,.06Zm.05-3,0,.07,0,0,0-.07Zm.2.87,0,.08,0,0,0-.08Zm.31,1.57,0,.07.12,0V12.5l0,0-.11,0Z"/><path class="cls-4" d="M25.18,2.29l.28,0,2.23-.71.36-.07v0c.14,0,.38.43.73,1.41l1.12,2.44.05.29q.36.62,2.41,5.27l-.1.11-2,.6c-.06,0-.12,0-.17-.12l-.41-1.08v-.13q-.15-.37-.24-.36l-.67.21,0,.2c.29,1,.39,1.51.28,1.63l0,0h-.34l-.1.08-.25,0-.23.07-.3.17-.74.23-.14,0-.52-3,0,0-1.3-7.15.08,0Zm1.05,1.22.17.55a1.14,1.14,0,0,1,.05.46l.12.26h0a.33.33,0,0,1,.05-.28l-.32-1.05Zm.32,1.75,0,.28.11.1,0,.21.09.14,0,.55s.09,0,.11.09l0,.21.08,0,0,.11c-.14,0-.17.15-.12.34l-.14.08.09.32h.13L27,7.36l.05,0,0,0L27,7.14l.19-.06-.07-.24,0,0-.05,0L27,6.61V6.35l-.22-.45,0-.12c.11,0,.12-.18,0-.44A.22.22,0,0,0,26.55,5.26Zm.63,2,0,.21v0l.1,0h0v0l-.12-.26Zm.22,1.73,0,.12.1-.08v0Zm.06-4.47q.63,3.08.66,3.57l.16.25.67-.2L27.54,4.44Zm.1,5,0,.12.2-.06,0-.08Zm.07.24,0,.07.2,0,0-.08Zm.19.75,0,.12.24-.07,0-.12Zm0-1.29.08.1h0l0-.12Zm0,.28.05.2h0l0-.22,0-.08h0Zm0,1.29,0,.12.36-.11,0,.08,0,0,0,0,.05,0,0,0c0-.13,0-.2.05-.23l-.15-.08v0l0,0Zm.09-1,0,.12,0,0,0-.11Zm.13-.43,0,.08.08,0,0-.08ZM28.36,11l.06.19.16-.05,0-.11Zm.14.47,0,.11.1-.07v0Zm.06.19,0,.08.11.06,0-.08Z"/><path class="cls-4" d="M31.72.76l.17,0,.28-.08.29,0,0,0,0,0,.12,0,.09.08.15-.1.18.06.07-.09.61-.06c.08,0,.13,0,.14.15l0,.21.09.48.48,4.53,0,.57.05,0,0,.62.14.52,0,.74.13.44c0,.2-.09.3-.13.3l-.13-.48h0l0,.53.05,0,.19-.06h0a6.53,6.53,0,0,1,.2,1.13l0,0h.08L35,9.49h0l0,0v0l.07-.09c.08.22.15.33.2.35V10l0,.28.08.41-.11.09-.33,0h-.37l-.4.09-.17,0q-.19,0-.21-.06l-.23.1-.66.07-.13-.11,0-.16-.16-1.14V9.33l0-.12.07-.5V8.59l-.12-.32,0-.37,0-.33V7.49l-.11-.32V6.92l-.08-.4V6.23l-.08-.32-.33-2.77L31.69.89Zm.83,3.92v.16l0,0h0l0-.12Zm.06,2.55,0,.44h.12V7.37A.23.23,0,0,0,32.61,7.23Zm.19,1,.05.45.07-.09,0-.29Zm.19-1,0,0V7.4l.06.15,0,.17v0l.09.08v-.5l0,0Zm.09-1.08,0,.16v.29h0c0,.08,0,.12-.11.13v0c.09,0,.13,0,.14.15h0l.08-.09,0-.33-.09-.07.07-.17-.06-.12Zm.11,1v.29l0,.12.11-.14,0-.2-.09-.08Zm.05,2.05v.13h0l.08-.09v0Zm.1-2.94v0h.08v0Zm.06.49.09.08V6.85Zm0,3.63,0,.21.12,0,0-.2Zm0-1.2.09.08.07-.1-.09-.07Zm.19-2.41.07.2-.25,0,0,.21,0,0,.06.2.22-.27.06.2h0l0-.42s-.09-.11-.12-.36C33.68,6.7,33.65,6.76,33.64,6.87Zm0,3.75v0l.09.07,0-.2Zm.22-4.19v.08h0l0,0,0,.33,0,.21.05,0h0c.06,0,.08,0,.07-.13C34,6.61,34,6.42,33.89,6.43Zm.09.9v.12h0V7.32ZM34.28,9l0,.2.09.07,0-.28Zm.17,1.59.09.07,0-.16Zm0-2.15v.12h0V8.43Zm.52.28,0,0,0,.29h0L34.94,9l0-.16Zm.21,0h.08l.06.16,0,0h-.08Zm.08.4h.09c0,.14.05.2.1.2l0,.12.06.12h0l0-.13-.06-.2,0-.13h.12l.06.2.12,1.1.05,0v0h0l0,0v0l-.07.09h-.09l0-.12,0,0h0c-.06,0-.08,0-.07.13l0,.05h0l-.09-.07,0-.29,0,0-.13-.44Zm.24-.48h.09l.09.07c-.07,0-.1.08-.11.22l-.13-.11V8.74Zm0,.95,0,.34.14.48h.08l-.08-.74Zm.23-.93h.12l0,.16h-.12Zm.1.57h.08c.14,0,.26.3.35.95l0,.12,0,0,0,0,0,.13-.11.13h-.08L36,10.54l0-.37-.1-.6Z"/><path class="cls-4" d="M44.52,1.3l0,0-.06.12v.46l.12,0,.08-.19V1.37l0,0,.16,0,.16.07.29,0,1.57.3V2l-.32,1.61-.08.2a4.69,4.69,0,0,1-1-.27h-.17l0,0c-.1.07-.19.33-.28.78h0c0,.08-.06.11-.15.09l0,.12.08,0v.33l-.23.29-.08,0c0-.22,0-.33,0-.34h0l0,.08h0l0,.05-.07.36-.1.07c0-.08,0-.13,0-.14s-.12,0-.16.18h0l0-.3,0-.2-.08,0s-.1.08-.17.26a.12.12,0,0,0-.15.1h0l-.19-.33-.13.27h0l0-.13,0,0,0-.12,0-.14.06-.32-.12,0-.06.28-.2,0,0,.2.19.12v0c-.08,0-.16,0-.23.12l-.12.6c0,.17,0,.26.07.27s.08-.19.12-.19v-.2l0-.17h0l.07.1,0,.2.08,0,.1-.32h0s.09.1.12.27h0l.11-.35.12,0,0,0v0l.07.1h0V5.21l.16,0,0,0v0c.05,0,.06.14.05.39l-.05,0v0l-.09.65,0,.2h0l.1-.06v0l0-.41L44,5.88l.08,0,0,.29,0,.12h.08l0-.2L44.34,6l0,.21h0L44.56,6h.08c0,.2,0,.3.06.31l-.14.3-.05.66,0,0-.06.49L44.17,9l-.11.36,0,.41-.34,1.73-.14.09-2-.38-.1-.11,0,0,.05-.49L42.27,7l.13-.44V6.35l0,0V6.15a1.38,1.38,0,0,0,.3-.69,1.71,1.71,0,0,1-.05-.6l.06-.11.36-1.6.08,0,0,.12-.05,0v0l.07.3-.07.12h.08l0-.12.08-.19h.08v.25l.08,0,.08-.19V3.53s-.07-.09-.23-.12l0-.08h0l.1-.11-.1-.31.08,0v0l0,0,.08,0h.17l.22.17L44.24,3l.15.08,0-.12-.06-.1-.14.06-.14-.12,0,0h0l-.11-.07-.1.07h0V2.6l.05,0-.08,0,.05-.24q0-.37-.09-.39l.11-.15c-.16,0-.2-.23-.13-.61l.08,0,.06.09,0,.21h.08l.08-.23H44l0,.26.12,0,0-.16h0s0,.15,0,.42l.1-.06V1.47c.06,0,.09,0,.11-.15l0,0Zm-2.62,1,.12,0a.18.18,0,0,0,.16.24V2.8l0,.08-.29,0,0-.13ZM42,2l.08,0,0,.08h0L42,2.26l-.08,0Zm0-.2h0l.06.1V2l-.13,0Zm.41-.84.07.1-.07.36h0l.14-.1.14.12c.06-.27.11-.4.17-.39s.06.14,0,.39h0c0-.24.1-.35.16-.34h.08v.21l.12,0,0-.21.12,0,0,.16c0,.33,0,.51.1.52-.1.16-.19.24-.25.24L43.26,2l0-.2-.08,0-.06.32a.32.32,0,0,1-.17.22c-.1,0-.15-.11-.13-.19L42.92,2l0,0h0l-.12.39-.1-.14,0,0V2l-.08,0v.17l-.08.23.06.1h.17v0l-.09.24v.16h-.08l0-.22.07-.15-.12,0-.08.41-.12,0,.11-.56-.12,0,0,.12-.08,0,0-.3L42.21,2h0s.07.08,0,.22l.12,0L42.55,2l-.14-.15-.12,0c0,.08,0,.11-.11.1h0v0l.15-.13s-.09-.13-.09-.36l.07-.15h0Q42.35.91,42.42.92Zm0,7.53v.08l.08,0V8.47ZM42.66,1h0l0,.16h0Zm0,5.91-.06.32h.08l.06-.32Zm.23-4.14.06.14V3L42.89,3h-.08V2.84ZM42.85,6l0,.12h0l0-.12Zm.41-3.39.07.1v0l0,0,0,.05,0,.12-.08.2h0L43.06,3l.13-.22,0-.13,0,0Zm-.15,1.65,0,.12.12,0v0l-.06-.1Zm.14,2.45,0,.16.08,0V6.79Zm.35-.52-.08.41h.08l0-.2V6.18Zm.13,2.54,0,.24.1.14L43.84,9C43.84,8.81,43.8,8.72,43.73,8.71Zm0-1.6,0,.13h.08l0-.12Zm.09-3.66-.06.12,0,.13h0c0-.1.06-.15.11-.14l.1.1v0S44,3.52,43.8,3.45Zm0-.21,0,.13h0l0-.12Zm.09,1.9.12,0v0l-.12,0Zm.21.42h0l.06.1-.08.19-.08,0,.05,0,0,0Zm.11-2.24,0,.13h.08v0l-.1.11a.63.63,0,0,1,0,.37h0l.1-.27,0-.41ZM44.3,6.9l0,0V7l.06.09h0l0-.08Zm.07-.62-.06.12,0,0h0l0,0,0-.13Zm0-.63h0v.08h0Zm.08-1.24,0,.2.1-.06v0Zm0-.2,0,.16h0l0-.16Zm0-.63,0,.12.1.15.1-.07,0-.12Zm.28,1.77h0l.09.14L44.65,6h-.08c0-.11,0-.17,0-.18Q44.64,5.34,44.73,5.35Zm0-1.59.12,0V3.7h0ZM45.1,3l0,.12h0l0-.12Zm.3.14v.08h0V3.19Z"/><path class="cls-4" d="M49.13,2.82l.75.31-.12.4h.13L50,3.2l.08,0,0,.11h.19a.46.46,0,0,1,0,.29s.12-.05.23-.22l.07,0,0,.2,0,0,.23-.13.12.14.11,0,.07,0,0,.2-.84,2-.15.25,0,0h0l0,0-.21.49s-.08,0-.2,0,0,.26.14.41l.14,0,.12.14.17,0c-.06.21-.06.33,0,.35l.17-.42,0-.05.05,0,0,0,.12-.39.13-.21.06-.25.28-.55.55-1.41L51.73,4l.1,0c0,.16,0,.26.06.29.07-.18.15-.25.23-.22l0,.26L52,4.47l-.12.39-.19.36h0l0-.11.19-.46,0,0,.06,0v0l0-.11-.18.33,0,.17-.18.32-.25.6.11,0,.21-.49.12-.17h0l.05.11-.13.3L51.45,6l-.12.18-.17.63.1,0,.06-.24c.07-.18.14-.26.19-.24l.1.09,0,0v0l0-.15-.06,0h0l0-.11.25-.6.11-.05,0,0-.14.34.07,0,0,0L52,5.27l-.14,0,0,0,0-.2.05,0,0,0,.28-.77.08-.1,1.25.52c-.08.27-.09.41,0,.43l.19-.36h0l0,.11-.41,1,0,0,0,0L53,6.75l-.07,0,0,0,0,0L52.71,7l.06,0,.11,0-.13.21v.13l-.06,0,0,.2-.27.65-.12.08-.11.26c0,.13,0,.21,0,.22l0,.08,0,0L51.23,11,50.36,13l-.11,0-.1-.08,0,0,0,.08.1.08,0,0,0,.15-.37.87-.16.06-.79-.33s0-.1,0-.22l-.07,0a.19.19,0,0,1-.27.11l-.38-.16L48,13.46h-.13l0-.14.25-.61c.07-.12.12-.17.16-.15l.12.14.11,0,.26.11,0,0,0-.45-.12.17,0,0-.08,0-.2,0a.91.91,0,0,1,.1-.44l.41-1,.11,0,0,.11.12-.09,0-.26,0,0,0,0,0,.05v0l-.11.05.12-.4.25-.16v0L49.18,10l.12-.17.16-.38c-.1,0-.12-.15-.08-.34l0,0c-.06.15-.12.22-.17.2s-.05-.1,0-.23L49.1,9c-.05.13-.15.16-.31.1l-.19.45,0,.17-.06,0-.27.86-.13.21,0,.21-.2.36-.06.15-.06,0,0,.05-.22.53-.11-.05.22-.53,0-.11-.06,0,0,0,0,0-.18.42.08,0-.05.12-.07,0,0,.08.08,0,0,0,.06,0,.11,0-.15.47-.05,0,0,0,0,0-.08,0-.13.3-.16.07-.08-.22L46.7,13l-.18-.12h-.13l-.09-.09-.06,0h0l-.12-.14.12-.18.26-.6-.08,0-.35.83-.2,0-.57-.24-.07-.16.13-.3.36-1,.18-.32H46l0,.05.05-.11c-.13-.05-.16-.16-.1-.31l0,0,.22-.31V9.72a.2.2,0,0,1,.26-.11l.13-.3-.13-.1.14-.34c.1,0,.17,0,.2,0l.05-.33L48.3,4.78l.54-1.28,0-.17.05,0,0,0,.1-.35ZM46.82,12l-.29.69.12,0,.09-.22.12-.4.06,0,0,0Zm1.31-1.85-.05.12h0l.05-.11Zm.38-1.13-.2.5,0,.1,0,0,.08-.28L48.62,9Zm1.05-5.56,0,.07h0l-.08.28-1,2.51,0,0,0,0v0l1.14-2.81,0-.06Zm-.79,7.81,0,0,0,0,.05-.12Zm.06,1.45.05.1,0-.07ZM48.88,11l0,.08.08,0,0-.08Zm.47,1.13,0,0-.24.47,0,.11h.13l.14-.34c.06-.13.05-.22,0-.27Zm-.22-8.5,0,.08.11,0,.06-.15,0,0ZM49.22,8l-.07.16.11-.05Zm.1,1.87,0,.08.08,0,0-.08Zm.13,2.77-.06.15.11,0,.07-.15Zm0-4.5,0,.07,0,0,0-.08Zm.39-3.26-.16.37.07,0L49.86,5Zm-.07,8.42-.09.23.11,0,0,0,0-.21Zm0-.53v0c.12.06.15.17.08.35,0,0,.12,0,.19-.14V12.8ZM49.87,4l0,0,0,.1,0-.11ZM50,7.45l0,.07,0,.11.09-.23Zm.14-2.57L50,5.22l.07,0L50.17,5ZM50,6l0,.11.1,0,0-.06Zm0-1.64L50,4.47l.11,0,0-.08Zm.41,3.37-.05.12h0l0-.11Zm0-3.94,0,.12.07,0,0,0Zm.61,3.11,0,0L51,7l.12,0,0-.07Zm.35,1.83,0,.11.06-.15Zm.47-1.13-.38.9,0,.11.41-1ZM52.16,7l-.09.22.11,0,.06-.15Zm.16-.47,0,.11.08,0,0-.11Zm.37-1-.12.08,0,.05.11,0,0-.07Zm0,1.51,0,.11.08,0,0,0Zm.49-1.27,0,.08,0,0V6l.07,0,.08-.19Z"/><path class="cls-4" d="M56.19,5.49l.45.29v.06h.05l0,0,.11.12.27.13,1.5,1-.15.15.08.1.14-.2.1.07,0,.11.18,0V7.4l.1.07.13,0,0,0-.05.16-.95,1.44-.17,0-.34-.23-.06-.14h-.15l-.21-.13s0-.08,0-.15V8.46l0,0-.13.12-.2-.14-.86,1.3H56v.06l-.15.24.14.15.06,0v.06l.14.09h.06v.06l.14.09h.05v.05l0,0,.36.2a.2.2,0,0,1,0,.29l-.58.89s-.09,0-.19,0l-.13.21,0,.26-.26,0V12.3l-.14-.09,0,0-.1-.16L55.28,12l0-.11,0,0,.13-.11.09-.29-.07,0-.19.36,0,.07q0,.08-.15,0v0l0,0a.38.38,0,0,0-.48.13l-.08.19-.1.08-.24.44-.22.34-.62,1-.16.1v0l-.11.17-.07,0,.13-.35s-.12,0-.19.06-.06.31,0,.33l.12,0,0,0,0,.18.22.05,0,.17.18-.13a1,1,0,0,1,.23-.49v-.05l0,0-.18.28-.15.15,0,0c-.05,0,.06-.3.34-.81l.12,0v.06l0,0,.3.14-.06.16,0,0L54,14c.07,0,0,.17-.1.38l.13,0,.15-.24.12,0,0,.11-.06,0,0,0-.25.52-.2.16-.11.32-.26.32-.11-.06.12-.18-.07,0-.08.19c-.07,0-.13,0-.19.07s-.09,0-.14.06l-.19-.08-1.27-.84c-.11-.07-.16-.13-.13-.18l-.25-.06-.51-.34,0-.17.77-1.17.06-.16.29-.29V12.3l.09-.14,0,0s0,.12-.07.26l0,0,.46-.69,0,0h-.05l0,0c.08-.11.09-.19,0-.22.18-.23.3-.34.35-.31l.07,0,.09-.14L52.53,11l.2-.31.2-.06.15-.39h.06l.2-.46,0-.07,0,0,.24-.43.83-1.27.21-.16.07-.25.52-.78.19-.22,0,0h0l.41-.77.17-.18V5.6l0,0Zm-4.81,8-.27.41.07,0,.27-.41Zm0,.44-.2.31.07,0,0,0,.06-.16.1-.08V14Zm.14-.2-.07.1,0,0,.07-.1Zm0-1-.05.07,0,0,0-.07Zm.44.59-.06.1c-.24.37-.33.57-.26.62l.35-.46c0-.13,0-.21,0-.24Zm-.12-.63-.07.11,0,0,.11-.08ZM52,12l0,0-.05.07,0,0Zm.14-.21,0,0-.06.1,0,0Zm.69-.52-.07.1-.1.23h-.06l0,0-.2.46-.17.18-.14.21.07,0,.75-1.13,0-.11Zm-.28,1.39-.13.2-.15.15-.07,0v-.06l0,0L52,13h.05l.11.06-.1.23,0,0a.24.24,0,0,1,.24-.14l.06-.25.14-.21Zm.06,1-.15.24.06,0,.12-.18Zm.7-2.69-.1.08-.48.87-.2.31,0,.11.36-.55.1-.22.13-.12.2-.45Zm-.77,2,.06.14,0,0,0-.12.14-.15,0,0C52.65,12.86,52.57,12.91,52.49,13Zm.32.71-.3.39v.05l0,0,.32-.34Zm.34-1.55-.36.55.07,0,0,0,.24-.29C53.18,12.3,53.19,12.2,53.15,12.18Zm-.26-1.1,0,0,.07.05.07-.11Zm.66,1.46-.13.12-.36.69-.17.18v.06l0,0,.63-.95Zm-.47,2.79-.09.14,0,0,.1-.08v-.06Zm1.51-.72.07,0-.19.37,0,0h-.06v.06l-.34.51v.06h0l-.3.45-.19-.08c-.12-.08-.16-.14-.13-.18l-.18,0c-.09-.1-.13-.17-.1-.21s.19.08.24,0l.09.16h.06l0,0,.3-.53.16-.1.16-.38.1-.08.07,0,.06.14.14-.15Zm-1.13-2.38,0,0-.28.35,0,.13.07,0,.33-.51Zm-.19,1.26-.09.13,0,0,.09-.14Zm.06-1.58-.14.2,0,0,.14-.15v-.05Zm.36.87-.28.41-.12.26,0,0,.12-.11.12-.26.23-.34Zm-.22,1.82-.17.33,0,0,.12,0,.11-.17,0-.11Zm0-3-.14.21c.05,0,.1,0,.14-.06l0-.13Zm0-.62-.11.17.11,0,0,0Zm0-1.07,0,.06.07.05,0-.07Zm0,.46,0,.07.07,0Zm.27,4.06-.29.45,0,.17.14-.06.07-.1a.69.69,0,0,1,.09-.43Zm-.18-.61-.07.1,0,0,.11-.08Zm0-1.55-.07.1,0,0,.07-.11Zm.12-1.3-.12.18,0,0,.11,0,0-.06Zm0-.37-.05.07,0,0,0-.07Zm0-.76L54,10l.12-.26.16-.24C54.17,9.46,54,9.58,53.74,9.87Zm0,.22,0,.07,0,0,0-.07ZM54,9.25l-.15.15,0,.11,0,0,.16-.24Zm0,2.68-.06.1,0,0L54,12Zm.2.07-.19.37-.05.07.07,0,.11-.17.2-.22,0-.05,0,0-.06,0Zm-.1-1.34-.1.08,0,.13,0,0,.1-.08,0-.13Zm.1.9-.11.08.06.14.07-.11Zm0,3.55,0,.07,0,0,0,.12,0,0,.12,0,0,0,0-.12Zm.07-5.31,0,0-.13.26.07.05.05-.07V10h.05l0,0,0-.13Zm0,1.07,0,.06.07.05,0-.07Zm.57-.42-.27.41-.32.63,0,0,.1-.08.08-.19.1-.08.34-.66Zm-.38-.39,0,0-.08.2,0,0,.11-.08.08-.2Zm.08,4.42v.06l0,0-.12,0v-.06l0,0Zm0-4,0,.07.07,0Zm0-1.42,0,.06.06.05,0-.07Zm.13,1.21-.07.1.12,0v-.06Zm0-1,0,0,.07,0,0,0Zm.35.43-.28.36,0,.12.17,0C54.92,9.89,55,9.74,54.92,9.71Zm-.23,4.67,0,0,0,.12,0,0,0,0,0-.12Zm.12-4.94h-.06l0,.07.1.07,0,0Zm0-1-.07.11,0,0,.07-.1ZM55,10l-.1.22-.11.08,0,.06.06.05.24-.44Zm.06-2.62-.14.2-.08.2.07,0,.07-.1V7.56l.12-.11V7.39Zm.09.45-.2.31.06,0,.21-.31ZM55,10.61l0,0,.06,0,0,0Zm0,1,0,.07,0,0,0-.06Zm0-.09v.06l0,0,.07-.1Zm0-.57,0,0,.06,0,0,0Zm.14-3.79-.09.14.11,0Zm0,2.64-.05.07,0,0,0-.06ZM55.36,11l-.09.13.07.05,0-.07Zm.48-4.75-.3.39,0,0-.1.08,0,.13,0,0,.15-.15,0,0h.06l0,0,.22-.4Zm-.24,3.87-.16.24.07,0,.15-.24Zm0,1.6-.07.11,0,0,.11,0v-.06Zm.31-3.52-.36.54,0,.12.36-.55Zm-.18,3.7,0,.12.07,0,.09-.13-.07-.05Zm.12-.55,0,.07.21.13.07-.1,0,0Zm.08-4.67,0,.07,0,0,0-.06Zm.06.88,0,.07,0,0,0-.07Zm.21.13-.07.11,0,.11.11-.17Zm.31-1.07L56.29,7l-.16.24.07,0,.3-.53.07-.11-.06,0Zm-.22,2-.07.1.07.05,0,0Zm.13.33-.15.15v.06l0,0,.13-.21Zm.21-3c0,.07-.09.08-.13,0l-.06-.13h-.06l0,0v.06l0,0,0,0,0,0,.15.14L56.67,6Zm.14,2.4-.09.13,0,0,.09-.14Zm.44-1.87-.09.14L57,6.77l0,0,.21-.25V6.48Zm0,1.6,0,.07,0,0,0-.06Zm.16-.24-.06,0,0,.06,0,.12h0l.05-.07Zm0-.62,0,0,0,.12.06-.11Zm.24.16-.07.1.07,0,0,0Zm0-.5,0,.06,0,0,.05-.07Zm.38.39-.18.28.07,0,.13-.2Zm.29.54L58.07,8l.07,0,.11-.17Zm.7-.18-.07.1,0,0L59,7.61Z"/><path class="cls-4" d="M62.27,9.78l.18.23,1.7,1.61.24.28,0,0c.11.1-.19.54-.88,1.32l-1.6,2.16-.23.18q-.37.62-3.46,4.65l-.14,0-1.47-1.43c-.05,0,0-.12,0-.2l.74-.88.12-.06c.18-.21.24-.34.2-.38l-.5-.49-.17.12c-.71.72-1.14,1.06-1.3,1l0,0-.17-.29-.12-.05-.15-.21-.17-.17-.3-.17-.55-.54,0-.15,2.35-1.88,0,0,5.64-4.59.06.06Zm-6.55,7.47-.06.06v.11l.06-.05Zm.14-.15-.09.09.12.06,0,0Zm.34-.35-.14.15.12.11.08-.09Zm0-.52-.09.09.27.26-.06.05h-.06l0,0v.06l0,0c.1-.1.17-.12.23-.06v-.17l0,0h-.06Zm.2-.21-.09.09.18.17.08-.08ZM57,15.5l-.06.05.15.15.06-.06Zm.12.34-.08.09,0,0,.08-.09Zm0-.52-.08.09.14.14.06-.06Zm.18.29-.14.14,0,0,.2-.09.06-.06,0,0Zm.2-.67-.09.09.12.05,0,0Zm0,.81-.06.06.06.06,0-.06Zm0-.32-.06.12,0,0,.09-.09Zm2.78-3-.23.18,0,.14-.17.12-.08.15-.46.29s0,.09,0,.15l-.17.12.05,0-.08.09c-.1-.09-.22-.07-.35.06l-.15-.08-.22.23.05.12.23-.24v.06l0,0,.18-.18.14.15.17-.18h.06v-.06l.12-.11.23-.12L59.9,13l.09-.09c.08.08.21,0,.4-.18A.22.22,0,0,0,60.33,12.41Zm1.14.42c-1.6,1.37-2.54,2.13-2.82,2.3l-.14.26.5.49,2.52-3Zm-2.54,1.08-.18.12,0,0v.12l0,0,0,0,.18-.23Zm2.78-2.61-.4.41a1.2,1.2,0,0,1-.37.26l-.18.23,0,0a.39.39,0,0,1,.26-.09l.78-.79Z"/><path class="cls-4" d="M67.92,16.84v.06l-.13,0-.33.32.07.1.19-.08L68,17h0l.09.14.06.16.2.21.89,1.33-.15.15-1.36.92-.19.08a4.68,4.68,0,0,1-.48-.87L67,19V19a1.74,1.74,0,0,0-.75.36l0,0a.1.1,0,0,1-.17,0l-.11.07,0,.07-.07,0-.18.18-.36,0,0-.07c.17-.14.23-.24.2-.28l0,0-.07,0,0,0v0l-.31.21-.11,0c.07-.05.09-.09,0-.14s-.11-.05-.23,0l0,0L65,19.2l.17-.11,0-.07s-.13,0-.31.06a.11.11,0,0,0-.17,0l0,0,.1-.36-.28.09,0,0,.08-.1h.06l.1-.07.06-.13.27-.19-.07-.1-.24.16-.11-.17-.17.12,0,.21,0,0a.25.25,0,0,0-.25-.07l-.51.34c-.13.1-.17.18-.14.24s.19-.09.22,0l.15-.15.13-.09,0,0,0,.11-.17.12,0,.06.29-.15,0,0s0,.13-.12.27l0,0,.33-.18.07.1h-.06l0,0,0,.11,0,0,.21-.19.09.14h0l0,0s0,.14-.24.31h-.05l0,0-.52.4-.17.11,0,0,.12,0,0,0,.32-.27.23-.1,0,.07-.21.19-.1.07,0,.07.17-.12.17,0-.12.18,0,0,.28-.09.05.07c-.13.15-.19.23-.17.26l-.32.12-.5.43h0l-.39.31-1,.69-.33.17-.32.26-1.46,1-.17,0-1.12-1.67v-.15h.05l.39-.31,3-2,.4-.21.14-.15h.06l0,0,.08-.1a1.51,1.51,0,0,0,.71-.27,1.45,1.45,0,0,1,.38-.46l.13,0,1.38-.88,0,.07-.08.1h-.06l0,0-.17.27-.13,0,0,.07.1-.07.19-.08,0,.07-.18.17,0,.07.2-.08,0,0s0-.11-.07-.25l.07,0,0,0h.14l.15-.29,0,.07,0,0v.06l0,.07.13.11,0,.27.33.13,0,.16.11-.07,0-.12-.14-.05,0-.18-.06,0,0,0,0-.12-.11,0,0,0,.11-.13.06,0,0-.07.2-.14c.18-.18.25-.29.22-.34l.18,0c-.09-.13,0-.31.34-.52l.05.07,0,.11-.17.12,0,.06.23-.1,0,.07-.16.2.07.11.14-.1,0,0s-.07.14-.29.29l.11,0,.22-.2c0,.05.09,0,.18,0h0Zm-6.53,3.61-.06,0,0,.07.07,0Zm.74,1.09-.21.13,0,.17.12,0Q62.19,21.63,62.13,21.54Zm.53-2-.27.19,0,.06.27-.18Zm.55.23-.14.09,0,.07.07-.05Zm0,.62-.11.07,0,.07.1-.07ZM63.42,19l-.1.07,0,0,.11-.07Zm.4.67-.34.23.05.07.17-.12.15-.15Zm0,1h-.06l0,0,0,.12,0,0,.06,0Zm.48-.38-.12,0v.06l0,0h.06l.08-.1Zm.32-.7,0,0,0,.12-.19.08,0-.07h.06v-.06Zm.1.22,0,0-.07,0,0,0Zm.49.07,0,0,0,.17-.48.18,0-.07c.09-.06.12-.11.09-.16C65,19.86,65.17,19.81,65.2,19.86Zm-.45-.74.07.1,0,0-.07-.1Zm.09-1.19-.1.07.07.1,0,0,0-.12Zm.49-2.21.07.1a.19.19,0,0,0-.06.29l-.14.14-.07.05-.2-.22L65,16Zm1.36-.62,0,.11-.31.21,0,0,.17,0,0,.18c.23-.16.36-.21.39-.16s0,.14-.24.3l0,0c.21-.14.32-.18.35-.14l.05.07-.15.15.07.1.17-.12.07.11-.14.09c-.23.23-.33.38-.29.44-.18,0-.3,0-.35,0l0-.11.17-.11,0-.07-.27.18a.29.29,0,0,1-.27,0c0-.11,0-.19,0-.23l.13,0v-.05l0,0-.37.2,0-.17H66l.08-.1,0-.07,0,0-.07.1-.23.11,0,.11.12.11,0,0-.23.1-.11.13,0-.07.13-.19.15-.05-.06-.11-.34.23-.07-.1.47-.32L65.6,16l-.1.07,0-.07.19-.23.12,0,0,0c0,.05,0,.11-.13.18l.07.11.29-.1v-.2l-.07-.1q-.1.06-.15,0l0,0,0,0H66c0-.05,0-.15.19-.32l.15-.06,0,0C66.55,15.08,66.66,15.05,66.69,15.1Zm-1,.41,0,.07-.07.05,0,0-.2.08,0-.07Zm0,3.46-.17.12.11,0,0,0Zm.1-2.2,0,.14,0,0-.11,0-.05-.07.12-.12Zm.37.11,0,.11,0,0h0v.06l-.11.07-.19.08,0,0,0-.17.25-.07.08-.1h.06Zm-.3-1.48,0,0,0,.12-.07,0-.07-.1Zm0,3.46-.14.09,0,0,.13-.09Zm.08-1-.13,0-.08.1,0,0c.1-.06.16-.07.19,0v.15l0,0S66,18,65.89,17.87Zm.37.19-.1.07,0,.06,0,0H66c0,.08-.11.17-.26.27l0,0,.26-.13.32-.26ZM66,17.72l-.08.1,0,0,.1-.06Zm.22.69-.1.07,0,.17.11,0,.1-.07Zm.06.31.07.1.07-.05,0,0Zm.49-3.4,0,0-.14.09,0,0Zm.29,3.17-.1.06,0,0,.1-.07Zm.12.31-.07.05,0,0,.07,0Z"/><path class="cls-4" d="M70.21,21.57l0,.05v0l.09.1-.14.1,0,.11c0,.05.07.06.14,0l0,.08-.18.08v0l.12.08,0,0-.57.32v0l.24-.06,0,.08-.12.14h0l-.43.14-.11.18.28-.08.33-.18.09.23,0-.05L70.2,23l0,.08.11-.05.07-.16q-.12,0-.15,0l0-.2v0l-.06,0v0l.23-.18-.11-.18,0,0,0,0,0,.08,0,0,0,.06.08.19.15.25-.23.18v0l.26,0,.13.3c-.1.06-.13.12-.11.18l.11.05-.09.21,0,0,.07,0,0,.07-.11.05-.27.2-.3.13,0,.11c.16-.06.24-.07.26,0l.16.38.12.08c-.21.12-.31.21-.29.26l.08.1a.81.81,0,0,1-.33.27c0,.05.09.05.19,0l0,0v0c0,.05,0,.1-.15.15l0,.12.25-.06,0-.05,0,0,0,0h0l.42-.27,0,0q.11.25-1,1.11l-.15.06-.1-.13-.23.09,0,.08.19-.08,0,.08-.17.11-.38.16,0,0-.06,0,0,0c-1,.38-1.57.5-1.63.36l0,0L68,27v0c-.36.15-.57.13-.65,0l-.3-.32,0,0a1.49,1.49,0,0,1-.84,1.5l-.41.08-.1.09-.13-.21,0,.05c.06.15-.14.32-.59.51l-1.1.46-.14.1-.16,0-.53.22-.22.14c-.13,0-.21,0-.23,0l0-.11c-.07,0-.12,0-.14,0l0-.06-.16-.16,0-.16-.1-.14,0-.05.3-.13v0l-.06,0v0l-.17.12,0,0-.06,0,0,0v-.13l-.15-.25h0l-.06,0L61.74,28c-.06-.15,0-.26.17-.34l.21,0,.32-.18.15-.06.11.05,0,.11,0,.14.05,0,.12-.05s0-.12,0-.3A2.47,2.47,0,0,1,63.5,27l1.59-.66.06,0c.51-.27.72-.5.63-.7l0,0,0,0-.1-.23-3.06,1.28s-.1,0-.14-.12l-.08,0a.45.45,0,0,1-.28.29l-.2,0-.21.13-.19.08-.16-.06-.07-.16,0-.2-.13-.21L61,26.32l0-.2,0-.08-.07,0,0-.07L61,26s.09,0,.12.08l.06,0h0l0-.06-.06,0-.09-.23-.19.08-.11,0,0-.06-.11-.17-.13-.3q0-.07.33-.27h.13l.14-.1.48-.12.54-.31c.28-.1.43-.13.45-.1l.72-.39,0,0,0-.05,0,0,0,0,0-.05.45-.19.05,0,0-.05.56-.24.37-.19A3.76,3.76,0,0,1,66.34,23l0-.06h0l0,.11c-.08,0-.1.07-.08.12l.2,0,0,.21.06,0,.07,0,.05-.11-.09-.1.15-.06c.05,0,.09,0,.13.08l.11-.05c0-.1,0-.22.3-.34l0-.06v0l-.06,0,0,.06h0a.45.45,0,0,0-.29,0l-.07-.15L68.2,22h.12l.22-.13,1.21-.5.2,0,0,.2C70.08,21.47,70.18,21.51,70.21,21.57Zm-9.2,4h0l0,.11,0,0,.11-.05Zm.5.32-.19.08,0,.08.11,0,.19-.08,0-.07Zm.05-.82,0,.11,0,.11.07,0Zm.22-.13-.08,0v0l.08,0Zm0,.83-.1.08,0,0,.1,0,.08,0,0-.07-.05,0Zm.37-.07-.14,0,0,.06.05.11.08,0Zm0,.2,0,.11v0l.11,0,0-.11v0Zm.1,2.58-.08,0,.12.18,0,0,0-.11,0,0Zm.14-2.32-.11,0,0,.08.11,0Zm.34,2.74-.11.05v0l.12-.05Zm.26-4.5-.17.11,0-.07-.12.05.05.11.3-.13Zm.63-.31-.17,0,0,.05,0,0,.19-.08Zm.23-.09-.12,0,0,.12.08,0Zm.24.79-.23.09v0l.11,0,.08,0,0-.11Zm.29,2.09-.17.12-.11,0-.23.18,0,0,0,0,.24-.15.23-.09Zm-.19-3.12-.07,0-.16.15.12.08.16-.15Zm.6,3.26-.07,0-.21,0-.21.13-.15.06,0,.08.62-.22,0-.05Zm-.56-3,0,0,.06.15,0,0,0-.11Zm.31.22-.22.1v0l.23-.1Zm0,.85-.08,0,0,0,.08,0Zm.21-.67-.11,0v0l.12-.05Zm-.09,3.95,0,.06v0l.06,0,.07,0v0Zm.11-4.22-.11.05.1,0h0Zm.22-.44-.16.06,0,0,.1.13v.19l.07,0,.18-.11-.07-.15Zm.48.95-.1.08-.27,0-.24.19,0,.08.2,0,0,.05.06.15.15-.06,0-.06h0a.11.11,0,0,0-.16-.07l0-.11.26-.11Zm-.5-.15,0,.11.06,0,.11,0,0,0Zm0,3.76h0l0,0,.1.05,0,0,0,0Zm.22-1.83-.16.07,0,.1,0,0h.13l.17-.11,0,0Zm0,.25-.11,0,0,.11v0l.11,0,.1-.08Zm0,1.51-.12,0,0,.12.12-.05Zm0-1.12,0,.1.07,0Zm.16.37,0,0,0,.11v0l.12,0Zm.09.32,0,0,0,.07h0Zm.09.23-.07,0,0,.08.07,0Zm.17-4.07L65.7,24l.11,0h0Zm.06.24-.11,0v0l.12-.05ZM66,25.56l-.08,0,0,.08Zm.4.1-.42.17,0,.08.34-.14Zm0,1.47-.36.1,0,.06v0l.06,0,.26-.11ZM66,26.44l0,.08.08,0Zm.2-.17,0,.11.15-.06Zm.22-3,0,.05,0,.08.12-.05,0,0Zm0,.3h0l0,.08,0,0Zm.07.59-.08,0,0,0,.07,0Zm.28,2.72-.36.2.11,0,.07,0,0-.05.05,0,.08,0,0-.11Zm0-1.14-.15.06,0,.11.22-.09Zm0-3.14,0,.07,0,.11h0l-.06-.15Zm.6,1.12-.11.05c-.12.05-.2.05-.22,0v-.13l0,0-.27.11,0,.11c.1,0,.16,0,.18,0s0,.1-.12.14l0,0,0,.08.11,0,.12-.14h.13c.21-.12.31-.21.29-.26Zm-.21,1-.36.1,0,.12.15-.07.18-.11Zm-.26-.51h0l0,.11.11,0ZM67,26,66.9,26l0,0L67,26Zm.21-.79-.08,0-.17.12,0,.11.16,0,.16-.15v0Zm-.12-1L67,24.2l0,0,.11,0ZM67,23.3l0,.05,0,0,.11-.05Zm.06,2.81-.08,0,0,.11h.13l0-.05v0Zm2.1-2.2L69,24l0-.07-.19.08,0,0,0,0,0,.05v0l.06,0-.44.23,0,0,0,.05-.07,0-.06,0,0,.06-.49.2c-.18.08-.28.09-.3,0l-.1.08.18.42a.36.36,0,0,0,.34.08l0,.07h-.13c-.37.18-.54.29-.52.35l.16.07a2.68,2.68,0,0,1,.64-.4l0,0,.13.31q-.12,0-.09.12l0,0,.11,0,.25-.15v0c-.1.05-.16,0-.19,0s0-.12.15-.19h.13l.38-.25,0-.07-.36.1v0l0-.05,0,0,.21,0,.19-.08c.12-.05.18-.1.16-.15l.05,0c.33-.21.43-.46.31-.75l0-.08ZM68,26.06c-.18.08-.28.09-.3,0l-.08-.19L67.4,26l-.06,0,0,.11,0,0,0,.08c0,.06,0,.13-.21.22v0c.2-.08.32-.09.35,0s0,.09-.08.12l0,.08c.18-.08.24-.18.19-.3s.07-.16.29-.26Zm-.15-.56-.36.2,0,0c-.16.11-.23.18-.22.22l0,0,.19-.08.21-.13.21,0,0-.05Zm-.16-2.73-.19.08,0,0,.19-.08Zm.23,3-.15.07,0,.07.16-.06Zm.22.53-.26.11v0l.27-.11Zm.84.19-.19.08-.06,0,0,.05-.23.1-.24.05L68,27l0,0,.32-.08.1-.09.31-.09.25-.15Zm-.5-.33-.26.11,0,0,.26-.11Zm.17-3.88h0l-.14.1-.17,0h0l0,.11.06,0v0l.2-.17.16,0,0-.05Zm1-.21-.08.12-.68.29-.4.21-.21,0,0,.05v0l.08,0,0,0,0-.06.07,0,.36-.1.36-.2.12,0,.24-.06.23-.19v0Zm0,.35,0,0-.15.06c-.2.09-.28.19-.23.32l-.11,0L69,22.7l-.11.05,0,.07,0,0-.15,0-.06.16.1,0,0,0-.23.1s0,.1,0,.26l-.06.16.12.08v0q-.36.19-.33.27l0,0,.23-.1,0,0,.41-.3.24-.06.19-.07,0-.08,0,0-.39.11v0l-.14,0,0,.06-.11,0,0-.07c0-.06,0-.12.1-.18l0-.07-.07,0,0,0,.17-.12,0,.08-.07,0,0,.11c.1,0,.16,0,.18,0a.68.68,0,0,0,.25-.37l.41-.4a.27.27,0,0,1-.26,0v-.13l.06,0,.11-.05Zm-1.17-.36-.11.05,0,0,.11-.05Zm0,.9-.08,0,0,0,.05,0,0,0,.09-.08Zm.44,2.35-.38.16,0,.11.2-.05.19-.07.05-.11Zm.11.8a.19.19,0,0,1-.27-.11l0,.11,0,0c0,.13,0,.22-.15.28l0,.08.23-.1c.13-.05.19-.12.18-.2Zm-.33-.35-.07,0,0,0,.07,0Zm.5,0h-.22l-.17.12,0,.08L69,26C69.12,25.93,69.19,25.85,69.16,25.78Zm-.29,1-.08,0,0,0,.08,0Zm0-3.93L69,23l-.15.07,0,0,0-.11Zm0,2.77,0,.11.06,0h0Zm.18,1.08-.15.07v0l.15-.06Zm.56-4.85-.49.2,0,.08.41-.17Zm-.27,3.84-.08,0,0,0,.08,0Zm.14-.63-.08,0,0,0,.07,0Zm.12,1.15-.12,0,.11,0,0,0Zm.2-4.75-.15.06v0l.16-.06Zm0,2.25h0l0,.11,0,0,.11-.05Zm0-.54,0,0,0,.07.11,0Zm.21-1.51,0,.08.08,0Zm.1,3.65-.08,0,0,0,.07,0Zm.46-1.66-.17,0,0,.06,0,0,0,.11,0,0,.05,0,.08,0Zm-.1-1.11-.1.08v0l.12-.05Zm.16,3.17-.07,0,0,.08.07,0Zm.07-2.6-.11,0v0h.13Zm.15,2.07,0,0-.08,0-.11-.05,0-.05,0,0Zm.33-.81,0,.08q0,.08-.09.12l-.2,0,0-.07,0-.11Zm.09.32q0,.42-.12.45l0,0,0,0q-.08-.36.12-.45l.06,0Z"/><path class="cls-4" d="M73.18,27.84l.11.52,0,.05,0,0v.21l.1.27.37,1.77h-.2l0,.13.24-.05,0,.12-.07.09.12.15,0,.05,0,.12.07.11h0l-.15.07-1.69.36-.15-.1-.08-.4,0-.13-.1-.11,0-.24c0-.05,0-.09.1-.1l0-.05v0h-.17l-.05-.24-1.52.32,0,0,0,.05-.28.06V31l0,0,0,.05,0,.16,0,0,0,.05,0,.16.05,0,0,.05v0L70,32c0,.11-.07.18-.2.21l-1,.22s-.09,0-.11-.14l-.24.05-.17.2-.2-.17,0,0,0-.16,0,0L68,32,68,31.84l.06-.09h.21l.27-.14,0-.08-.39.13-.08,0c-.06,0-.09,0-.11-.11l0,0v0a.37.37,0,0,0-.43-.24l-.19.08h-.13l-.47.14-.4.09-1.16.28-.17,0,0,.05-.21,0v-.08l.34-.16c0-.06-.07-.09-.18-.08s-.26.17-.25.22l.06.11h0L64.5,32l.12.18-.09.15.22,0c0-.07.21-.13.5-.19l0-.05v0l-.32.07h-.21v0c0-.06.25-.17.8-.34l.07.11,0,.05v0l.11.31-.16.08v0l.12,0c0,.08-.09.15-.33.2l.06.11.28-.06.1.06-.06.1,0,0h0l-.55.2-.25,0-.31.15-.41,0,0-.12.2,0,0-.08-.19.08c0-.08-.08-.11-.19-.09s0-.07-.14,0l-.08-.19-.31-1.49q0-.2,0-.21l-.13-.23-.13-.6.1-.15,1.36-.29.15-.07h.42l0,0,.16,0v0c0,.06-.06.1-.22.13v0l.8-.17v0l0,0v0q.19,0,.18-.12c.3,0,.45,0,.47,0v.08l.16,0,0-.16.36-.08.19.09.38-.17,0,0,.46-.19h.08v0l.48-.15,1.48-.31.26,0,.22-.13.92-.2.29,0v0l.05,0,.83-.26H73l0-.05h0ZM63.81,30.5l-.36.08v.08h0l.16-.07h.12l0-.05Zm.31-.32-.48.11v.08l.48-.11Zm1.52,3,0,.08-.39.12h0l0,0,0,.05-.61.12,0,0-.05,0-.52.11-.08-.19c0-.13,0-.21,0-.22l-.12-.14c0-.14,0-.22.08-.23s.08.19.16.18l0,.18.05,0h0l.59-.17.18,0,.38-.17.13,0,0,.08-.06.13h.21Zm-1.58-.55-.16,0v0H64l0,0Zm.59-2.14-.12,0c-.43.09-.63.17-.61.25l.57-.07c.12-.07.18-.12.17-.17Zm-.6-.08-.12,0v0l.12,0Zm.94.89-.49.06,0,.05v0h.46Zm-.15,1.08-.35.12v0l.1.06.2,0,.06-.1Zm0-1.3-.28.06,0,.08.2-.05Zm.36,1.47-.52.11-.1.15.14,0,.12,0a.72.72,0,0,1,.36-.25Zm-.47-2.79-.08,0v0l.08,0ZM65,33.27l-.08,0v0l-.11.06v0l.1.07h0l.06-.1Zm.55-2.93-.24.06h-.21v-.08l0-.05v0l-.12,0,0,0,0,.12-.23.09v0a.26.26,0,0,1,.27.07l.22-.13.24-.06ZM65,30l-.12,0v0l.13,0Zm1.35,1h-.17l-.75.25h-.25l0,0v0l1.12-.24Zm-1.09-.4-.06.14v0l.11-.06h.21v0C65.48,30.61,65.39,30.58,65.26,30.61Zm1.45-1.06-.12,0-.23.09,0,0h0l-.47.19h-.25l-.24.05,0,.08,1.32-.28.07-.1Zm-1.23,1.94-.16,0v0l.16,0Zm0,.54-.13,0v0l.13,0Zm.13,1,0,0h0l-.1-.06,0,0h0Zm-.05-3.56v0l-.08,0v0Zm.68,1.79-.48.1-.28.1v0h.17l.27-.1.41-.09Zm0-.81-.65.14,0,.08h0l.37,0C66.25,30.57,66.33,30.52,66.32,30.47Zm-.47-1v0l-.12,0v0Zm1.39.25-.13,0-.94.29L65.8,30l-.06.09.64-.13.24-.09h.16l.47-.18Zm-1.37,3.43v0l-.06.1h0v0l.06-.1Zm.63-2.39h0l-.45.05-.11.06v.09l.6-.13Zm.14-.33-.24.05v0h.2l0,0Zm0,.55-.12,0v0l.12,0Zm.52.1-.39.12-.08,0,0,.08.2,0,.29,0,0-.05v0l0,0ZM67,30.34l-.24.05c0,.05.06.07.14.05l.11-.06Zm0-.83h0v.08l.13,0Zm.16,1.35-.12,0v0l.12,0Zm.34-1-.2.05.1.06h0Zm0,.83h-.13l0,.13.12,0Zm.16-.62-.2,0v0l.1.07.08,0Zm1.07.28-.48.1-.67.22v0l.13,0,.19-.08H68l.71-.23Zm-.84-.58-.08,0v0l.08,0ZM68,30H67.9l-.12.07v0h.13l.11-.07Zm-.15-.51-.08,0,0,.08Zm.13.77-.09,0,0,.08.08,0Zm.07,1.12-.08,0v0l.08,0Zm.1-2.25-.08,0,0,.08.08,0Zm0,2.19,0,.05v0l.12,0Zm.09-1.91-.08,0v0l.08,0Zm.14,2.41-.12,0v0l.09.07,0,0Zm0,.22-.06.09v.08l.17,0,0-.08Zm.1-1.91-.08,0,0,.08Zm-.07-.91,0,.24.27-.1.28-.06C69,29.25,68.75,29.22,68.36,29.24Zm.4.29h0l-.27.1v.08l.08,0,0,0,0,0h0l.12-.07Zm-.06.31h0l-.19.08v0l.13,0,.2-.09ZM68.56,31h0l0,.08h0Zm.11-.86-.12,0,.1.07,0-.05Zm.06,1.07-.16,0,0,.08.08,0ZM69,29h-.21l-.07.09v0l.28-.06Zm-.23,1.69h0l0,.08h0Zm.06,1.07-.08,0,0,.24.12,0v0Zm.5-1.78-.45.05-.11.07.15.09C69.18,30.09,69.32,30,69.31,30Zm-.11.28-.23.09-.13,0,0,.05,0,.08.47-.14Zm.31.47-.28.06,0,.08.28-.06Zm-.09-1,0,0-.08,0,0,.12h0Zm-.06-.29h0l0,.08h0Zm.07-.26-.08,0,0,.08.08,0Zm0,1.08-.08,0v0l.08,0ZM70.11,29,70,29v0l.12,0Zm1,.55-.64.14-.07.1.64-.14Zm-.24-.74-.37.08,0,.08.36-.08Zm.25-.39-.24.05-.19.08v.08l.12,0,.11-.11h.16l0-.05Zm-.16,2h-.21l0,0v0l.24-.05Zm.14-.33-.12,0v.08h0Zm.26-1.73-.16,0,.09.07Zm.27,1.87-.16,0v0l.16,0Zm0-.85-.12,0-.06.1.2,0Zm-.05-.24-.08,0v0l.08,0Zm.83-1-.49.06v0h-.13l-.11.06v0h.21v0l0,0h0l.43-.13Zm.2.71-.4.13-.28.06,0,.08.59-.17.12,0-.05,0Zm-.52,1.5H72v0h.08Zm.06-1.86h-.08v0h.08Zm.22,1.8,0,0h-.08l-.07.1,0,0,.08,0Zm.45-.44h0l-.06.1.12,0Zm.06.29-.12,0,0,.08h0Zm.16.76-.28.06,0,.08.2,0Zm.19-1.68-.16,0-.19.08v0l.33,0,0-.05Zm0,1.1-.32.06,0,.09.24-.06Zm0-1.89c-.08,0-.13,0-.14-.05l0-.14,0,0h0l0,.05h0l0,0v.25l.2-.05Zm0,1.34-.08,0v0l.08,0Zm.45,1.5-.13,0v0l.12,0Z"/><circle class="cls-5" cx="37.4" cy="37.4" r="24.93"/><ellipse class="cls-6" cx="37.4" cy="26.4" rx="18.29" ry="12.93"/></g></g></g></svg>