<svg xmlns="http://www.w3.org/2000/svg" xmlns:xlink="http://www.w3.org/1999/xlink" viewBox="0 0 74.8 74.8"><defs><style>.cls-1{opacity:0;}.cls-2,.cls-6{fill:#fff;}.cls-3{fill:url(#radial-gradient);}.cls-4{fill:#ff6e00;}.cls-5{fill:url(#radial-gradient-2);}.cls-6{fill-rule:evenodd;opacity:0.9;}.cls-7{fill:url(#linear-gradient);}</style><radialGradient id="radial-gradient" cx="37.4" cy="62.33" r="19.47" gradientTransform="translate(0 54) scale(1 0.13)" gradientUnits="userSpaceOnUse"><stop offset="0"/><stop offset="0.32" stop-color="#231f20" stop-opacity="0.6"/><stop offset="1" stop-opacity="0"/></radialGradient><radialGradient id="radial-gradient-2" cx="37.4" cy="37.4" r="24.93" gradientUnits="userSpaceOnUse"><stop offset="0.64" stop-opacity="0"/><stop offset="0.95" stop-color="#231f20" stop-opacity="0.29"/><stop offset="1" stop-opacity="0.5"/></radialGradient><linearGradient id="linear-gradient" x1="37.4" y1="39.33" x2="37.4" y2="13.47" gradientUnits="userSpaceOnUse"><stop offset="0" stop-color="#fff" stop-opacity="0"/><stop offset="1" stop-color="#fff" stop-opacity="0.7"/></linearGradient></defs><title>orb-camps-wtext</title><g id="Layer_2" data-name="Layer 2"><g id="Layer_1-2" data-name="Layer 1"><g id="orb-camps-wtext"><g class="cls-1"><circle class="cls-2" cx="37.4" cy="37.4" r="37.4"/></g><ellipse class="cls-3" cx="37.4" cy="62.33" rx="21.95" ry="3.59"/><circle class="cls-4" cx="37.4" cy="37.4" r="24.93"/><circle class="cls-5" cx="37.4" cy="37.4" r="24.93"/><polygon class="cls-6" points="25.74 46.34 36.6 57.4 29.98 47.83 30.03 47.85 28.99 46.39 30.48 43.85 30.24 40.85 29.15 40.16 31.44 33.06 27.32 41 28.14 43.28 28.93 40.81 28.74 46.03 28.54 45.76 27.11 43.69 27.09 43.72 27.08 43.71 22.36 43.27 15.76 36.67 21.13 44.72 25.74 46.34"/><polygon class="cls-6" points="22.04 41.66 25.41 40.32 26.89 41.03 27.68 39.42 25.34 38.79 25.33 38.79 18.48 36.97 24.23 39.75 22.04 41.66"/><polygon class="cls-6" points="41.89 44.44 45.34 39.82 46.15 42.87 50.69 44.96 54.56 53.41 52.35 44.05 47.82 40.28 53.54 27.72 46.53 38.1 46.66 39.32 46.08 38.84 46.44 38.35 45.83 38.63 44.79 37.77 45.11 38.97 42.74 40.06 41.33 42.51 41.25 42.53 40.54 41.1 40.22 42.81 39.39 43.03 39.71 43.97 37.22 45.75 39.28 45.56 37.7 48.23 39.47 46.75 38.3 52.94 40.68 46.82 42.83 53.18 41.63 44.35 41.73 44.11 41.89 44.44"/><path class="cls-6" d="M45.4,25.15l-2-.08,0-.19,8.18-6.43L42,23.32,41.12,25,36,24.77l-.14.14-1.13-1.64-4.87.07,5.66,1.91-1.23,1.22,3.25-.38-.76.86-.82-.39-3.73.29,3.4,1.4-3.09,3.49,2,.25,1.81-3.44,2.43,1,0,.1.93.72L34.82,43.78,44,27.61l-1.28-.08.61-2.13Zm-6.25,3.61-.08-.68-2-1,.55-1,3.15-.37Z"/><ellipse class="cls-7" cx="37.4" cy="26.4" rx="18.29" ry="12.93"/><path class="cls-4" d="M21.17,3.68l.12.07.16.33.08,0-.16-.33,0-.11c.05,0,.1,0,.13.07l.06,0,0,0c0-.07,0-.12,0-.14l0,0,.11,0,.09-.09c.39-.19,1-.07,1.81.35a5.73,5.73,0,0,1,1.42,2.1l.22.44.17.46-.22.11-.2,0c0,.07,0,.12,0,.14L25,7l-.16-.34h0a.2.2,0,0,0,.23.11L25,6.52l-.25-.43-.07,0c.13.3.16.47.1.5l-.11,0,0,0,.19.4.06,0v.09l-.15.07L24.57,7c-.05,0,0,.13,0,.32h-.13l-.07.13h-.19l-.13.11-.11,0-.05.16-.24,0,0,0,0,0-.13-.07-.21-.45c-.65-1.35-1-2-1.13-2l-.27.09c-.2.09-.18.39.06.88l.23.57.05,0,0,0a2.47,2.47,0,0,1,.25.79l.09.1,1.12,2.23.3.63.23.39V11c.31.64.58.91.8.8l0,.11.08,0c-.05-.1,0-.19.15-.26l-.52-1.35,0-.11-.46-.77,0-.17v0l.2-.06h0V9.1l.15,0L25,8.94l.11,0c.13-.05.2-.06.22,0l0,0,.11-.06,0,0,.12-.14a.42.42,0,0,1,.19.22l.12,0-.13-.17.07-.13.13.08.13.26.07,0-.1-.4.16,0,.09.28.07.15.11,0,0,.25.15.21,0,.16.18.28a2.37,2.37,0,0,1,.28,1.14l0,0,0,0a1.12,1.12,0,0,1-.08.77h0l-.06-.11-.11.06.15.29A2.26,2.26,0,0,1,26,13.29l-.17-.06-.25-.52-.1,0,0,.06.3.63h0c-.06,0-.12,0-.2-.13l0,0,0,.26a.12.12,0,0,1-.17-.06l0,0,0,0A2,2,0,0,1,22.94,13a10.47,10.47,0,0,1-1.22-2l-.64-1.33L21,9.29l-.13-.17-.11-.31,0,0,0,0,0-.17,0,0,0,0L20.31,8l0,0,0-.06,0,0-.12-.17c-.37-.83-.49-1.27-.37-1.33l-.06,0v0c-.05-.25-.06-.39,0-.41l0,0,.05.12.08,0-.13-.26a.37.37,0,0,1,.08-.4q0-.11.12-.33c0-.08,0-.21.17-.4l.11,0,.11.13,0,0q-.14-.3.12-.42s.05-.12.22-.2V4l0,0,0,0Zm-1.28,2,0,0,.11,0-.09-.18Zm0-.42,0,.07.16.06-.05-.11-.11,0Zm0,1.11,0,0,.07,0L20,6.24ZM20,5.82l.05.11h0l-.06-.11Zm.09,1.33.05.11.07,0v0ZM20.17,5l.06.11,0,0L20.21,5Zm0,1.21.07.15,0-.11Zm.11-1.47.07.15.11,0-.1-.22Zm0,1.73.07.15,0-.11Zm0,1.08.21.44c.05,0,.06-.07,0-.14l-.2-.32Zm0-.42,0,.07h0l0-.08Zm.07-1,.06,0,0,0-.05-.11ZM20.6,7.5l0,.11.11,0,0-.05,0-.08-.11,0Zm0,.57.07.15,0,0-.07-.15Zm0-1,0,.08h0l.12.17.29.59.07,0-.32-.67L20.69,7Zm.1.68.12.26,0,0-.07-.24-.06,0Zm.11.81.25.52.11,0-.32-.67ZM21,8.26l.16.33.11,0-.16-.33Zm.26.46.27.56.08,0,0-.07h0l-.08-.27-.08-.15Zm.06-1,0,.07.08,0,0-.07Zm.06.69.23.48.11,0,0-.07,0,0C21.56,8.51,21.45,8.37,21.39,8.39Zm.08-.4.11.22h0c.05,0,.06-.08,0-.15L21.54,8Zm.06-1.58,0,.08.08,0,0-.07Zm0-2.2.16.34.08,0-.16-.33Zm0,3.45,0,.06c.13.18.21.26.26.24l-.13-.26Zm.05.66,0,0,.14.2,0,.13c.17.31.28.46.34.43l0-.07-.41-.76Zm.18,2.56,0,.07.07,0,0-.07Zm0-2.83.05.2.11,0,0,0-.07-.15ZM22,7.28l.31.63.11,0,0-.13C22.2,7.43,22.07,7.25,22,7.28Zm0,3.36,0,.07.11,0,0-.07Zm0-2.15.23.48.11,0-.21-.53-.06,0Zm0,1.71.11.22.07,0,0,0-.12-.17Zm.15-.25.05.11.11,0L22.34,10Zm0-1.65.11.22.13.16h0l-.07-.15-.16-.24Zm.05,3.39.05.11,0,0-.06-.11Zm.09-2.55.09.19.16.24,0,0-.18-.37Zm0,1.14.07.15.07,0-.1-.22Zm.07-2.13,0,0L22.9,9,23,9h0l-.09-.19-.13-.17-.09-.36-.16-.15Zm0,3.32,0,0,.11,0,0-.06,0,0-.05,0Zm.21-1.74,0,0,.08,0-.06-.11Zm.11,1.73.07.15,0-.11,0-.08Zm0,.68,0,.07,0,0,0-.07ZM23,9.08l.06.11,0,0,0-.11Zm.18,2.05.16.34.07,0-.12-.26Zm0-5.55,0,.07,0,0,0-.07Zm.06,6.25.05.11h0l-.05-.12Zm.23-4.53,0,.08,0,0,0-.07Zm1.09,6,.05.11,0,0-.06-.11Zm.29-7.43.16.42.2.32,0-.06h0l-.05,0,0,0,0-.13-.28-.5Zm.26,7.34.09.19,0-.11,0,0Zm0-3.46.15.29.07,0-.14-.3Zm0,2.36.05.11.07,0,0-.11Zm.5.39.15.3,0-.11-.07-.15Zm0-2.91.07.15.07,0,0-.07Zm.18,2.64.11.22.09-.09-.07-.14Zm0-.51L26,12l.1,0-.25-.52Zm0-1.61.07.14.11,0,0-.07-.1,0ZM26,11.38l0,0,.07,0,0,0Zm.13.84.17.24h0l-.14-.3,0,.06Zm.23-3,0,.07h0l0-.08Zm.15.88,0,.08,0,0,0-.08Zm.22,1.58,0,.08.11,0,0-.06v0l-.11,0Z"/><path class="cls-4" d="M27.35,1.5l.29,0L29.9.89l.37,0v0c.14,0,.35.45.64,1.45l1,2.51,0,.29q.32.65,2.07,5.41l-.1.11-2,.47c-.07,0-.12,0-.16-.13l-.34-1.1V9.69c-.08-.26-.16-.39-.22-.37l-.67.16v.21c.23,1,.29,1.52.18,1.64H30.3l-.11.07-.25,0-.24.06-.3.15-.76.18-.13-.05-.33-3h0l-.86-7.22h.08Zm1,1.28.13.56a1.05,1.05,0,0,1,0,.46l.11.27h0a.34.34,0,0,1,.06-.27l-.25-1.08Zm.2,1.77,0,.28.11.11v.2l.08.16v.54c.06,0,.09,0,.11.1v.21l.08,0,0,.12c-.14,0-.18.14-.14.33l-.15.08.08.32h.13l-.08-.32.05,0h0l-.06-.24.21,0L29,6.16l0,0-.05,0,0-.16,0-.25-.2-.46,0-.12c.11,0,.13-.17.07-.44C28.76,4.55,28.67,4.52,28.53,4.55Zm.51,2v.25l.1.06h0v0l-.11-.27Zm.12,1.75,0,.11.11-.06v0Zm.12.51,0,.12.2,0,0-.08Zm.06.24,0,.08.2,0,0-.08Zm.14.77,0,.12.23-.05,0-.12Zm0-6c.29,2.08.43,3.28.43,3.61l.14.26.68-.16L29.58,3.79Zm0,6.27,0,.12.36-.08,0,.08,0,.05v0l.05,0h0c0-.14,0-.21.07-.23L29.94,10v0l0,.05Zm.05-1.57.07.11h0l0-.12Zm0,.29.05.2h0l0-.22,0-.08h0Zm.07.32,0,.12h0l0-.12Zm.16-.42,0,.08.08,0,0-.08ZM30,10.36l0,.2.16,0,0-.12Zm.11.47,0,.12.11-.06v0Zm0,.2,0,.08.09.07V11.1Z"/><path class="cls-4" d="M34.66.38h.61l.12.12v.54h.08V.52L35.6.39l1.85,0c.07.3.24,1.83.49,4.6H38V5a25.41,25.41,0,0,1,.38-3.11l0,0A7.56,7.56,0,0,1,38.59.44h.09l.41,0,.57,0,1.68,0,.12.12v.62l0,.29,0,.49-.07,4.43c0,.14,0,.2-.13.2v.12c.08,0,.12.07.12.21l-.06,3.69-.13.12-1.72,0-.12-.12,0-1.85c0-.41,0-.61.09-.61l-.08-.33.06-3.53h0l-.08.08v.09c0,.62-.27,2.7-.76,6.22l0,0-1.24,0c-.09,0-.17-.47-.22-1.4l-.53-4.73h-.05l-.1,6-.12.12h-.53l-.12-.12v-.49l.09-.33v0a.76.76,0,0,1-.11-.5V8.93l-.08-.09v.25l-.06.65.05,0v0l0,0,.07.74-.12.08h-.08c-.14,0-.21-.09-.2-.25H35v.05l0,.12-.12.08h-.25c-.16,0-.24-.12-.24-.34l0-1.84.05-.25-.07-.78,0-.24,0-.29,0-.33h0l.05-.12,0-.49.13-.21V5.67l-.08-.12V5.14c.05-.33.11-.5.17-.49h0l0,0h0V4.57h-.12l0,0-.12,0V3.74l0-.57L34.66,3V2l0-.37,0-.16L34.61.71V.58Zm.21,7.18v.08h0l0,.29v.21l-.13.12-.12,0v.08h.12v.12a.81.81,0,0,0,.24.5V8.1C35,7.74,35,7.56,34.87,7.56Zm0-1.31-.09.08v.12h.08v0l0,.29,0,.12L35,6.78V6.66a.62.62,0,0,1-.07-.41Zm-.07-.86v.16h.08V5.47Zm.09-3.29v0l0,.16-.08.12c0,.11.08.17.12.17H35v0L35,2.23V2.11Zm0,4.89V7l0,.41h0L35,7.15Zm.22-.57v0l0,.2.08-.08V6.42Zm0,2.79v.12h.13l0-.12Zm.09-8,0,1.35.08.08.05-.16,0-.29,0-.9Zm.07,8.12,0,0,0,.21h.08V9.41Zm0-5.7,0,0v0l0,.25.09-.08V3.71Zm0,.37v.61a1.12,1.12,0,0,0,.08.46l0,.16,0,.94,0,.17h0l0-.12,0,0,0-.61V5.48l0,0-.15-.87V4.08Zm.09,2.38v.08l0,.21h0l.05-.29Zm.34,1.77s-.06.08-.17.08l0,0v0l.29,0,0,0v0Zm-.11-1.27V7l.08.08V6.88Zm0-1.52v.08h0V5.36Zm.09,2v.08h0V7.33Zm1.26-2v.08h0V5.34Zm1.71-1.65v.24h.08v0l0-.2Zm1,4.57v.08h.09V8.26Z"/><path class="cls-4" d="M44.5,1.09l.75.19v.17l.08,0c0-.1.07-.15.12-.13l.28.07.09.11L46,1.47h0l.1.11.1-.06h0c.06,0,.07.06,0,.14l0,.05h0c.07-.09.12-.14.16-.13l.52.14c.19.05.29.13.27.24l-.07.11L47,3.43l.08,0,.23-.87.12,0,0,.37-.1.23-.11.61-.1.23h0C47,4,47,4,47,3.9h0l-.1,0,0,.12.06.1h0l.06,0,0,0,.06.09-.05,0-.08.49-.09.36,0,.21.12,0,.06-.2,0,0L47,5l0-.42.08-.15V4.28l.08-.15,0,0V4l0,0,0-.21.08-.32.11-.6.1-.19.1-.57.1-.06h0v.21l-.1.4-.06,0,0,.25h0c.06,0,.09,0,.11-.1l.13-.65H48a1.83,1.83,0,0,1,.58,2l-.05,0h0a.16.16,0,0,1-.2.12c0,.05,0,.09.09.11v.13h0l0,0,0,.08-.05,0,0,.22-.15.26,0,.38,0,.12c-.34,1-.6,1.62-.78,1.7,0,.07-.17.18-.46.31l-.08,0,.17-.64L47,7l-.11.1,0,.08-.08.61,0,0-.08,0,0,0h0l-.15.09,0,0,.05-.16.09-.19.1.11h0l.07-.1V7.24l0-.12-.11-.07,0,.08h0l0,0,0,.16,0,0,0-.34.09-.36-.06-.1-.1.23,0,.32-.05,0h0l-.08.49,0,.16c0,.11-.2.12-.52,0l-.36-.09,0,0c-.19,0-.3,0-.31,0l-.05.2-.13.34a1.11,1.11,0,0,1,0,.46l-.54,2.11-.1.22,0,.21-.07.28-.15.09-.12,0-.3-.12-.45-.08-1-.27L42,11h0l.09-.19,0-.15L42,10.54l.77-3V7.39l0,0L43,6.87l.21-.79c.09-.32.15-.47.2-.46l0-.28,0-.12.91-3.67h0l0-.05.06-.23Zm-2.24,9.42,0,.08h0l0-.08Zm1.31.34,0,.16h0l0,0h0v-.13Zm.29-.31,0,.12.08,0v0Zm.65-3,0,.12h0l0-.12ZM44.64,2l-.1.36.06.1,0,0,.11-.39Zm0-.28,0,.12.1-.06,0-.05Zm0,2.37,0,.08.08,0,0-.08Zm.12-.64,0,.16.06.1.09-.19V3.4Zm.22-1,0,.11,0,0,0-.12Zm.16.5.06.1,0-.15Zm.21-1V2l.08,0V2Zm.21.35-.07.28.08,0,.05-.2Zm0,5,0,.11.08,0,0-.11Zm.63-4-.64,2.46.06.1.15,0c.3.08.52-.19.68-.8l.06-.4.2-.59Q46.88,3.53,46.2,3.35Zm-.47,1,0,.12h0l0-.12Zm.11-1.88v0l.06.1,0-.12Zm.34,4.71,0,.12.08,0,0-.12Zm.45-4.33.12.2h0l.1-.06,0,0v0L47,2.74l0-.05ZM47,2l-.13.34,0,.05h0l0,0h0v-.2l0-.16ZM47,6.09l0,.12.1-.06,0-.05Zm.47-2.16-.15.26,0,0,.16,0,0-.12V4Zm.09-.49-.07.28.1-.06,0-.2ZM47.86,3l-.15.59h0c.08,0,.14-.07.18-.2l0-.08V3Z"/><path class="cls-4" d="M53.7,3.71c.31.15.48.31.5.47l.15,0a2,2,0,0,1,.85,1.43l-.05.47,0,.08,0,0,0,0c.09,0-.09.57-.54,1.57l-.14,0-.44-.22,0-.06-.06,0-.92-.45,0-.05,0,0,0,0c-.13-.1-.19-.17-.17-.22l.06-.11.07,0,0-.14.24-.3,0,0c.13-.55.16-.84.06-.88l-.07,0c-.25-.12-.47,0-.66.41l-.16.33a1.63,1.63,0,0,0,.31,1.7c.71,1.35.9,2.36.57,3,0,0-.07.35-.34,1l0,0v.06l-.12.25-.06,0,0,.06,0,.07s-.09,0-.19,0l0,0,0,.08a.26.26,0,0,1,.15.16,2.33,2.33,0,0,1-.54.65v.09c-.26.24-.45.36-.59.35l.06-.11-.08,0,0,.21a2.43,2.43,0,0,1-2-.13l0-.17a.53.53,0,0,0-.41,0l-.07-.22-.15,0,0,0,0-.11-.06,0,0,0q-.37-.27-.3-.42L48,12.47a.73.73,0,0,1,0-.88l0-.07-.13,0-.11.22,0,0a1.94,1.94,0,0,1,.08-1.19l.11,0,0,0a.45.45,0,0,1,0-.31l.25-.51.16-.43.09-.09.06-.2h.18l.64.36.13,0,0,.05.39.14.48.24,0,.16c-.15.29-.25.43-.29.41l-.27-.09,0,0,.05,0,0-.08,0-.11h0l-.06.11,0,.05-.05,0,0,0,0,.12-.18.28-.06.2.08,0,0,0,0,0a1.49,1.49,0,0,1-.14.57c.06,0,.12.16.17.4l.2.15h.31c.22-.32.35-.47.4-.44l0,0-.13.17,0,.16.16-.05.06-.11,0-.06.14-.11-.2-.14a1.87,1.87,0,0,0,.11-1.91,7.21,7.21,0,0,1-.92-2.6l.28-1.23.13-.17,0-.13.09-.09L50.39,5c.56-1,1.18-1.54,1.84-1.52l0,0q.09-.13.18-.09s.06.07,0,.14l.07,0c0-.1.1-.14.15-.11l0,0-.2.49.11,0,.16-.34.13-.16.16.13.11,0,0,0,0,.05h.18c0,.12,0,.18,0,.2l0,0C53.57,3.72,53.63,3.68,53.7,3.71ZM47.9,12.1l0,.06.07,0,.11,0,0-.11Zm.26-1.65,0,.07,0,0,0-.07Zm.09,1.6,0,.2.07,0a.22.22,0,0,1,.33-.11l0-.07,0-.11C48.39,12,48.27,12,48.25,12.05Zm.08-1.47-.13.26.11.05.13-.17,0-.12Zm0,2c0,.05,0,.12.17.22l0,0v0l.08,0,.11,0,0-.07,0,0-.28-.09,0,0Zm.15-.29,0,0,.07,0,0,0Zm.18-1.6L48.5,11l.07,0,.13-.26ZM49,12.55l-.26.34,0,0,.07,0,.2-.41Zm-.2-3.43,0,.08,0,0,0-.08Zm.36,1.14-.25.33,0,0,.11,0,.2-.4ZM49,9.4l-.07.15h0L49,9.42Zm0,1.74,0,.11,0,0,.1-.09Zm.39-1.45,0,.2-.06,0,0,0,0,.13.07,0,0-.08,0,0V9.87l.1-.09.07,0-.14.47-.18.28v.06h0l.06,0,.41-.84-.15-.08,0,.08-.08,0,0-.07,0,0Zm0,3.15-.14.39,0,0,.19-.32,0,0Zm.26,0,0,.07,0,0,0-.07Zm.18-2.61.11.06,0,0-.13.17-.07,0v-.18Zm.71-4.54,0,.08.11.05,0-.07Zm.29,6-.05,0-.06.11.08,0,0,0,0,0,0,.06v0L51,12l.11.06.06-.11L51,11.89Zm.09-2.88-.09.18,0,0L51,8.9Zm.14-2.35L51,6.68l.11.06.07-.15ZM51.24,12c-.12.28-.14.43-.09.46l.16-.33,0-.11Zm0-5.32v0l.11,0,0-.11,0,0Zm.28,5.89,0,.07-.09.28.16-.06,0-.26ZM52,3.83v0L52,4l.09-.18Zm.35-.05-.05.11.07,0,.06-.11Zm.1.36,0,.08,0,.1,0-.07Zm.46.18-.06.11.11.06L53,4.37ZM53,6.78l0,.07,0,0,0-.07Zm.37-2.7-.22.44c.05,0,.09,0,.13-.07l.12-.35Zm0,1.89-.13.16-.1.22.16,0,.05-.11.06-.2Zm.11-.31-.07.14.11,0,.07-.14Zm.66-1.37L54,4.48l-.09.36-.23.48,0,.21h0c.08,0,.14,0,.19-.09A.72.72,0,0,1,53.88,5c.12-.22.21-.31.27-.28l0,.11.05-.11-.15-.07.13-.26,0-.11ZM54,5l0,.06h0l0-.11Zm.46.18-.13.26,0,0,.11,0,.09-.19Zm.37-.09-.09.27,0,.08h0l.11,0L55,5.16l0-.1h-.09Z"/></g></g></g></svg>