<svg xmlns="http://www.w3.org/2000/svg" viewBox="0 0 180.9 187.75"><g id="Layer_2" data-name="Layer 2"><g id="Layer_1-2" data-name="Layer 1"><path d="M38.649,56.8v95.838a14.092,14.092,0,0,0,14.092,14.092h75.418a14.092,14.092,0,0,0,14.092-14.092V56.8Zm78.532,51.523H63.719c-3.282,0-5.942-3.251-5.942-7.262s2.66-7.261,5.942-7.261h53.462c3.281,0,5.941,3.251,5.941,7.261S120.462,108.324,117.181,108.324Zm0-25H63.719c-3.282,0-5.942-3.251-5.942-7.262s2.66-7.261,5.942-7.261h53.462c3.281,0,5.941,3.251,5.941,7.261S120.462,83.324,117.181,83.324Z"/><path d="M90.45,0a51.8,51.8,0,0,0-51.8,51.8h103.6A51.8,51.8,0,0,0,90.45,0Zm0,37.955A12.055,12.055,0,1,1,102.5,25.9,12.054,12.054,0,0,1,90.45,37.955Zm25.543,6.237a6.539,6.539,0,1,1,6.539-6.539A6.538,6.538,0,0,1,115.993,44.192Z"/><path d="M33.649,161.376V56.8H17.887A7.887,7.887,0,0,0,10,64.688v96.688L0,187.75H43.649Z"/><path d="M147.251,161.376V56.8h15.762a7.887,7.887,0,0,1,7.887,7.887v96.688l10,26.374H137.251Z"/></g></g></svg>