<svg xmlns="http://www.w3.org/2000/svg" viewBox="0 0 450.76 62.93"><defs><style>.cls-1{fill:#fff;}</style></defs><title>Asset 8</title><g id="Layer_2" data-name="Layer 2"><g id="Layer_1-2" data-name="Layer 1"><path class="cls-1" d="M0,8.2H.22l.43.46v.46H0ZM0,9.35H.44V9.8H.65L.44,11H0Zm0,2.06H.65c0,.77.37,1.15,1.1,1.15L2,13.71v.45L.44,14.4,0,13.71ZM1.31,3.15l.44.46V5.67H2L2.62,5l.87.46c0-1.53.14-2.29.44-2.29s.48.69.65,2.06H4.8c0-1.37.14-2.06.43-2.06h.44l.22,1.14h.65V3.15H7.2v.92c.33,1.83.69,2.75,1.09,2.75-.38,1-.74,1.52-1.09,1.61L6.76,8V6.82H6.32V8.66A1.72,1.72,0,0,1,5.67,10c-.58-.15-.87-.46-.87-.91L5,8.43,4.8,8.2H4.58l-.22,2.29L3.71,9.8l.22-.23-.22-.68H3.27v.23l.22.68-.22,1.38.44.46.87-.23v.23L4.36,13l.22.92H4.14l-.43-1.15.22-.92H3.27v2.29H2.62V11H2v.69H1.53L1.09,10l.22-.68h.22c.29,0,.43.38.43,1.14h.66l.43-1.6L2.18,8.2H1.53c0,.46-.15.69-.44.69H.87V8.66l.66-.92c-.31,0-.61-.61-.88-1.84L.87,5H.65Q.88,3.15,1.31,3.15Zm1.31.23h.22v.91H2.62Zm3.27,9.41.43.69v.23l-.43.45H5.45l-.22-.91Zm6.76-9.87.22.23-.22.69.43,2.52h.66L14,5.21l-.44-2.06.22-.23h.87l.87.23L17,2.92h8.5l.22,1.15v9.18l-.22,1.15a24,24,0,0,1-5.23-.46l-.87.22-.22-.22c-.44.52-.65,2.05-.65,4.59h.21c0,.46-.21.69-.65.69v.68h.44v.46l.21,1.38-.87,1.84h-.43c-.15-1.23-.37-1.84-.66-1.84h-.22v.46h-.21l.21.23V24.5l-.43.46c0-.46-.15-.69-.44-.69s-.55.38-.65,1.14h-.22l-.44-1.6V22.66H14c-.25,0-.47.54-.66,1.61-.43,0-.65.23-.65.69h-.22l-1.31-1.61L10.69,25h-.22l-.22-.69.22-.23v-.69L10,22.66V20.82H9.38v1.61H8.29v1.15L9.38,24v.23c-.44,0-.8.3-1.09.91v3.45c.08.92.3,1.37.65,1.37,0-.76.19-1.14.44-1.14l-.22-1.15v-.92h.22l.43.46V28.4h.44l.22-1.84h.22c.24,0,.54.46.87,1.38h.22L12,25.87h.66l-.22.23v.23l.44.46h.21l-.21-1.61h.87l-.22.23v.23c.27,0,.49.69.65,2.07l-.21.23v.23l.21,3.67V33h.22l.44-.46V32.3L14.61,30l.22-1.37h.44l.21,1.6v.69h.44V29.77l.65-.68L17,30.23h.22l.43-1.6h.44c.25,1.07.47,1.6.65,1.6l-.43,1.84.43,3.67-.21.23.21,2.76v6.88l-.21,2.07.21,2.3v9.87l-.65.68H7.41l-.65-.46L7,59.85l-.22-2.76V36.66L7,34.14,6.76,33,7,32.76v-.23l-.22-.69a8.16,8.16,0,0,0,.87-4.13,9.68,9.68,0,0,1-.87-3.21L7,23.81l.22-9.18h.43l.22.68-.22.23v.23l.66,1.61-.22.69H8.5v-.69l.22-1.15h.44l.22,1.38h.43L10,16.46v-.23c0-.3-.43-.46-1.31-.46v-.46H8.5l.44-.68L8.07,13H8.5v-.23l.22.23h.44l.87-.23,1.31.69,1.53-1.15.87.23v-.69l-.44-.46-.65.46-.87-.46-.22.23h-.22l-.65-.23-.44.46H10L9.81,11l.22-.23H9.6V9.35C9.35,8,9.05,7.28,8.72,7.28l.44-.92c-.87,0-1.31-1.07-1.31-3.21h.44l.43.46V4.75h.44l.22-1.37h.43l.44,1.37h.65V3.84h.22c.29,0,.44.76.44,2.29L12,5.67l-.21-1.6c.29,0,.43-.31.43-.92l.22-.23ZM7.41,11.41l.44.46v.23l-.22.23.22.23v.69L7.63,14.4H7.41l-.65-.69.44-1.38L7,11.64l.22-.23Zm.88,9.18v.69h.65v-.23l-.44-.46Zm.43,9.87v.69h.22v-.69Zm.22,5.28v1.84h.44V35.74Zm.22,8.73v.45H9.6v-.45ZM10.9,14.4l.22.68h.22V14.4Zm.22,1.14-.22.69.22.69h.22c0-.61.14-.92.44-.92l.65.46v-.23C12.43,16,12,15.74,11.12,15.54Zm.44,18.37v.92H12v-.46Zm1.31-3.22V33h.43V31.84l-.22-1.15Zm.21-16.29v.68h.44v.23l-.44.69a3.55,3.55,0,0,1,.44,2.07h.22L14,16.46l-.22-2.3Zm.22,10.32H14V25H13.3Zm1.09,11v.69h.44v-.69Zm.22-20.2v.69l.66.69.43-.46v-.69Zm.22,11.25h.22l.43.46-.21,1.15h-.44l.22-.23-.22-.23Zm.44-7.8v.91h.21V19Zm0,1.14v1.15l.43-.46v-.23Zm.87-3.9h.65v-.46h-.22Zm0,10.79h.22v.46h-.22Zm0,17.45v1.37l.65.69.22-.69C16.82,44.92,16.53,44.47,16.14,44.47Zm.87-14-.22.69.22.23h.22l.22-.23-.22-.69Zm.22,3.45-.22.23v.23l.44.46h.21v-.46ZM17.88,25h.22l.65.68L18.1,28.4h-.44c0-.61-.14-.92-.43-.92C17.37,25.8,17.59,25,17.88,25Zm-.43-13.09v.69h.21v-.69Zm1.74.46v.46h.22v-.46Z"/><path class="cls-1" d="M29.58,5h4.36l.22,2.29.65-.23V5h.44l.43.46L36.55,5A2.41,2.41,0,0,1,37,6.62c.25,0,.47-.53.65-1.6h.44l.22,1.14h.22L39.39,5l.87.46L40.7,5h.43l.22,1.14V18.33l-.22,1.61.22.23h-.22l.22.23v3q0,.33-.87.69c0,.72.51,1.33,1.53,1.84l.65-.46.87.46.88-.23c.14,1.22.36,1.83.65,1.83V25l-.22-.23.22-.23V24.3L44.84,22l.22-1.37-.22-1.38.22-3.44-.22-8.5V5.7l.44-.45c.18.91.47,1.37.87,1.37,0-1.07.22-1.6.65-1.6l.44,1.37L47,7.31l.22,2.3L47,11.9H46.8l-.43-.46V8.69l-.22-.23.22-.23V8l-.44-.46-.22,2.07.22.92-.22,2.06v3.67h.66v-3l.22-1.15h.21l.44.46v1.84l.22,1.83-.22,1.15.44,3.68.43-.46-.22-1.38c0-1.07.15-1.61.44-1.61l.65.23.22-.23v-.23l-.43-.69-.22.23h-.22l-.44-.46V12.82l.44-.46h.22v2.07H49V14.2l-.21-2.76-.66.46h-.22l-.21-1.14.21-.23V10.3l-.21-4.6L47.89,5h7.2c.14,1.53.36,2.29.65,2.29L56,5h.22l.44.46v6l-.22.23.22.23v5h-.44L56,16.72h-.22v2.07l.22-.23h.66l-.22,1.38.22.69-.22.22L56.62,22v3.91l-.44.68V28.2c0,.77.19,1.15.44,1.15v.46H56.4l.22,12.62V55.06l-.44.46-.65-.23-.22.23V56l.65.22.22-.22.44.68v5.28l-.66.69H51.38c-.29,0-.43-.38-.43-1.15h-.44c0,.77-.36,1.15-1.09,1.15H47.24l-1.31-.23-.65.23-.44-.69V58.27c0-.76.19-1.15.44-1.15l.87.46.44-.46h1.52v-.23L47,54.6l-.22,1.15-.21-.23h-.44l-1.09.23a5.86,5.86,0,0,1-.44-2.53v-6l.44-.46.43.46.44-.69-.44-1.37-.21.23h-.22l.22.23v.23l-.44.45L44.62,44l.87-1.38v-.23L44.62,42l.22-1.14v-2.3c-.56,0-.92-.53-1.09-1.61h-.22c0,.92-.14,1.38-.43,1.38s-.44-.38-.44-1.15h-.44c0,.77-.43,1.15-1.3,1.15v2.76l.21.91-.21.23.43,5-.22,1.38.22,1.15-.22,2.29V53l-.21.23.21.23v3.21h-.65V53.45L40,53l-.21.23h-.22l.22.23V56h.43v.68h-.43v.46h.43v.23l.22-.23h.65l.22,2.76-.22.23v.23l-.21-.23h-.44v1.83l-.65.69L39,61.72l-.43.91-1.09-.23-.66.23-.65-.23-.22.23h-.22l-.87-.46L35,61V57.35h-.44v5l-1.09.23H30.23l-.65-.69V60.11l-.22-5.74.22-2.07.65-.23.22.23v-.69c-.73,0-1.09-.45-1.09-1.37V50l.43-2.07L29.36,47c.1-.76.47-1.14,1.09-1.14V44l-.87-.23V41.74c.58,0,.87-.22.87-.68L30,39.22,29.58,17V9.15l-.22-.92L29.58,8V7.77L29.36,5.7Zm1.74,4.36v.46H32V8.92h-.21Zm1.75-1.84V8h-.22l.22,1.61.21,15.15.22.23h.22v-.23l-.22-17-.22-.23Zm2.61,2.07v.23l.44.46V9.61Zm1.53,1.15v.91l.43-.46v-.45Zm0,3.44v2.29h.43V14.66Zm0,43.38v4.14h.65V60.34L37.64,58l.22-.23-.22-.23ZM38.3,6.85v.69h.44V7.31Zm.44,6.66v2.07h.43V14Zm.65,25v3l.44.45.21-.23-.21-1.6V38.07Zm.44,6.66v.69H40v-.69Zm.65-25.94v.69l.44-.46-.22-.23Zm.22,12.39v.92l.43-.46Zm1.31.23v.46h.21v-.46Zm1.3-4.82v.46l.44.46V26.59Zm1.75,14v.46h.43v-.46Zm.22,6.88v.46h.43v-.46Zm0,1.61.21.23h.22v-.69Zm.87-22.27V28h.22v-.69Zm1.53-5.74-.22.23v.69h.65V22Zm.87,35.35.43.46v-.46Zm1.31-4.13V53l-.22,3,.43.46.66-.24V54.14q0-1.19-.66-1.38Zm1.52,2.3V56H52v-.92Zm1.31-43.62-.43.69.21.23h.66V11.9Zm.22,6v.69h.44v-.69Zm.22,2.76v1.37l.43-.45v-.92Zm0,3.21v5.51l.43.46v-6Zm0,6.89.43.46v-.92Zm0,24.79v.23c.72,0,1.09.53,1.09,1.6.33,0,.55-.38.65-1.14l-.43-1.15Zm1.09,2.75v1.38h.65V59l-.22-1.15Zm1.31-46.14v.46h-.22l.22.69H56V11.67Zm.21,7.58v.69h.44v-.23Z"/><path class="cls-1" d="M61.07,1.87h2.84l.21.23.22-.23h.22l.87.23L67,1.87h9.59L76.34,3l.65.23V1.87h.65l.44.46L79,1.87l.22.23h.66l.65-.23V2.1L80.7,3v9.64l-.66.69H77.86l-.65-.46-.66.46h-1.3c-.3,0-.44-.23-.44-.69l-.22-.23h-.22l-.21.92H72.85v8.72l-.22.23.22.23v1.6l1.09.23.22-.23.21.23h.88l.21-.23.22.23h.87l.22-.23.22.23h.22l2.18-.23q.87.24.87,1.38v6c0,.31-.29.46-.87.46v1.38l.87,1.15-1.09.91L79,35.15h-.87l-.22.23L77,34.92l-.87.23-.44-.46v-.22l.22-.92-.44-1.61H75l.22,2.29v.46c0,.31-.22.46-.66.46l-.22-.23h-.21A2.08,2.08,0,0,0,72.41,37l.22,1.15-.22.69.22,2.75v2.3l.22,6.65-.44.92.22.23v1.15h-.44l-.43-2.07c-.36,0-.58.31-.66.92.36,1.07.65,1.61.87,1.61l.66-.23v.23l.44.92,1.09-.46.65.68.44-1.14c-.3-.31-.44-1.3-.44-3l-.22-.23h-.22v1.84l-.21,1.15h-.22c-.31,0-.61-1.61-.87-4.82l.65-.23.22.23h.22L75.9,48l.22.92h.22v-.69c.43,0,.65.69.65,2.06l.65-.23v-1.6l.44-.46.44.46-.22.23v.23l.44,3.21-.44,1.38.44,1.83-.22,2.3h-.66V56.5h-.43l.21,1.15c-.43,0-.65.3-.65.92-.29,0-.44.23-.44.69l-1.09.22H67.4c-.73,0-1.1-.15-1.1-.46l-1.3.46H61.73l-.66-.68V51l-.22-.92.44-2.29-.22-.23v-.92h.22c.29,0,.44.46.44,1.38h.21V43.42h-.21l-.22.23h-.22c0-.77-.15-1.15-.44-1.15.15-1.68.37-2.53.66-2.53h.43v-.91h-.87V37l.66-.92-.44-2.29.22-.23-.44-2.76v-.46h.22l-.22-2.75v-8.5l.44-1.37-.44-1.38V11.05l.22-1.61h-.22l.22-.23-.44-4.82L61.07,3l-.22-.23V2.56Zm.22,42h.22v.68h-.22Zm0,1.37h.22v.46h-.22Zm.44-38.79-.22,2.75h.22l-.22.69.22.69h.21l.22-1.15h-.22l.22-.23V9l-.22-2.52Zm0,6.2v.92l.43-.46Zm0,1.37v1.38l.21,1.15h.44v-.69l-.44-.69.22-.92L61.94,14Zm.21,36.27v.46h.22V50.3Zm.44-24.1-.22,1.15.44.46h.22V26.2Zm0,4.59v.46h.44v-.46ZM64.12,2.56c0,.46-.14.69-.43.69L63,2.79,62.82,3v.23l.21.23v.23l.22-.23h.22l1.09.23V2.56Zm-1.3,35.58v.23h.43v-.69Zm0,1.14V40L63,41.35l-.21.23v.23l.43,2.75L63,45.94v1.38h.44V39.74L63,39.28ZM63,29.87h1.31l-.22-1.6V26.66C63.73,26.66,63.37,27.73,63,29.87ZM63.25,8.3v.46h.22V8.3Zm0,40.85v.69h.22l.22-.69Zm0,5.06V57h.44V54.21Zm.22-38.34v2.07h.44V15.87ZM63.69,20v.69h.22V20Zm0,3.91v.45h.43v-.45Zm.22,6.88v.46h.21v-.46Zm0,2.07v.46h.43Zm.21,3.67-.21.69.43,5.51v2.06l.44.46V41.58l-.22-1.38.22-.92-.44-2.75Zm1.53,10.1V48l-.22,1.14H65l-.22-.22h-.22v.68l.22-.23h.65l.22,1.38h.22a1.5,1.5,0,0,1,.65-1.38L66.09,48V46.63Zm-1.09,8.26v.69h.22v-.69Zm0,1.38v2.07H65v-.23l-.22-.92L65,56.5l-.22-.23ZM65,24.59v.23h.43v-.23ZM65,28v.23l.22,1.6h.43v-.46l-.22-.22.22-.24v-.22L65.43,28Zm.43,5.28v.46h.22v-.46Zm0,2.52V37l.44-.46V36.3Zm.22-29.61.22,2.29v1.61h.43l-.21-3.44V6l-.22.23Zm0,45.45v.69c0,2.45.22,3.67.65,3.67l.22-3.21c-.18-.77-.4-1.15-.65-1.15Zm.44-39.48v.46h.21V12.2Zm.43,12.39-.22.23v.46H67v-.23Zm0,4.14V29l.22,1.15H67l.22-.69L67,28.27Zm.22,3.9-.22.69.22.68H67l.22-.68L67,32.63Zm0,2.29v1.15H67l.44-.46v-.46Zm0,13.55.66.46h.21l-.21-.69.21-1.15H67.4Q66.74,47.32,66.74,48.47Zm.44-9.64V40.2c.29,0,.43-.23.43-.69l-.21-.68Zm0,1.83V42h.22l.21-1.15-.21-.23Zm0,1.84v3.67h.43v-.23l.22-2.06C67.64,43,67.43,42.5,67.18,42.5Zm.22-30.3v.69l.43.46V12.2Zm.21,3.21v3.67l.44.46V15.87Zm.22,10.1L67.61,28l.22.69.66-.69C68.34,26.35,68.12,25.51,67.83,25.51Zm0,3.68v.68l.44-.46-.22-.22Zm0,1.37V31h.44Zm.22,2.53v.46h.44v-.46Zm.22-29.84v.91l.22,1.15h.21l.22-1.83-.22-.23Zm.43,38.56V42l-.21,2.52.21.69h.44V41.81Zm.22,9.41v1.61h.44V51.68Zm.22-24.79.22,1.38-.22.69.22.23h.43L69.58,26Zm.22-1.38v.46h.22v-.46Zm0,4.36v2.76l.43,3.9H70l.22-.69L70,34.23l.22-.68-.44-4.14Zm.43,7.12-.21.69.65.46V37ZM70,43l-.22.92.44,4.36L70,49.61l.22.23h.22V43.42Zm0-4.13v.68h.22v-.68Zm0,2.52V42h.22v-.69Zm.22,9.41L70,53.52l.22.23h.22l.43-2.53Zm.22-34.66v.69h.43v-.23Zm.43,13.31v.23h.44v-.23ZM71.1,3.93v.46h.22V3.93Zm0,2.3v.23l.44.46V6.23Zm0,32.37.22,2.29v.46h.44V40.2L72,38.6l-.21-.23h-.22l-.22.23Zm.22,5V46.4L71.54,48h.22l.21-.92-.21-1.61V43.19Zm.22,4.59v.91h.22v-.91Zm.22-34.89v.91H72v-.91Zm.21,3.9-.21,1.15.21.23h.22V17.25Zm0,8v1.61h.44V25.28Zm.22,5.51V31h.44v-.23Zm.44-24.56v.69h.44V6.69Zm.22,3-.22.23V9.9l.44.46.21-.23V9.67Zm0,1.61v.46h.22v-.46ZM73.5,30.1V31h.44v-.46Zm.22,3.45.22.23h.22v-.69Zm.22-28.93V6.46h.43V5.08Zm0,29.38v.47h.22V34Zm.43,14.7v.68h.22l.22-.68Zm1.31,4.13.22,2.06h.22l.43-.46V53.29l-.43-.46Zm.44,4.59v.92h.22l.21-.69-.21-.23Zm.43-27.09v.46h1.31V30.1h-.22Zm0,2.53v.69h.22l.44-.46L77,32.86Zm.22-26.63V7.84h.44V6.69ZM77,51v3l.65.68.44-.68v-.69a4,4,0,0,1-.87-2.3Zm3.71-1.61h.43l.22,2.3v.23l-.22.23.22.23v3.44l.22.23-.22.23v3l-1.09.22c-.73,0-1.09-.15-1.09-.46l-.87.46c-.73-.19-1.09-.42-1.09-.68.73,0,1.09-.23,1.09-.69l.87.46.22-.23v-.23l-.22-3.45.44-.91-.44-2.3.22-.69h.44l.65.46.22-1.15ZM77.64,33.32l.44.46h.44v-.92h-.44ZM79.39,3.25v.68h.22V3.25Zm.44,45.9.21.23v.23l-.43.46-.22-.23v-.23Zm.43,3.91v.46H80l.22.69h.22l.44-.46v-.23l-.44-.46ZM80.48,48h.22l.43.46v.23h-.21l-.44-.46Z"/><path class="cls-1" d="M104.48,1.61h4.14l.22.23.22-.23h1.09l.22.23.22-.23h5l.44.46,1.31-.46h.22l1.09.23V4.13l.43-.46V1.84h.66l.43.46.66-.46q4.78.55,4.79,2.06L125.85,6v1.6l.44.46V3.9h.22c.29,0,.43.38.43,1.15l.66.23.43-.46a2.67,2.67,0,0,1,.66,1.61v3.9h.21l.22-.23h.22l-.22-.23V9.18l.22-.23-.22-.23V6.66c.48,0,.92,1.14,1.31,3.44.29,0,.44.46.44,1.38h.22l-.22,1.14v.23l.43,2.07-.21,5.74-.44.46v.23l.65,1.37-.21,1.15.21.23-.21,1.15v1.38l.21,1.83-.21.69.21,7.12v5.51l-.21.92.21.91-.21.23v.23l.21.92h-.21l.21.23v.92Q130.52,56.7,128,56.7c0,.61-1.16,1.3-3.49,2.06l-.22-.23h-.21L123,59l-.22-.23h-.22l-1.09.46-.22-.23v-.23l-.22.23h-.65l-.44-.46V56.24l-.43-.46v2.75l-.66.69-.21-.23-1.53.23h-.44a2.4,2.4,0,0,1-1.52-.69l-.44.69-.65-.46-.22.23H113l-.22-.92h-.44c0,.77-.22,1.15-.65,1.15h-.44a2.43,2.43,0,0,1-1.53-.69l-.65.69h-2L105.79,59l-1.09.23h-.22l-.65-.69V55.32l.43-1.38-.43-1.83.65-4.37L104,45.91l.44-.46-.44-.69.22-.23V43.38l-.22-.23.22-.22V42L104,40.4l.22-.92L104,32.37V28.69h.66v.69h.43l.44-1.38v-.22l-.44-.69.44-.69c-.29,0-.51-.54-.65-1.61l.21-2.29-.65-.24-.22.24V21.12l.44-.69V16.76H104V16.3l.22-3L104,12.17l.22-.92L104,7.57V2.07Zm.65,33.51.22,1.61h.22V34.66Zm.22-20.43V16.3l.22,1.6.22-.23H106l-.44-2.06.22-.92Zm0,6.2v.23l.22.23v.23l.66-.23v-.92h-.44Zm0,1.83v.69a2.23,2.23,0,0,1,.66,1.38h.22l.21-1.61V22.5L106,22Zm0,20.66V46.6h.22l.22-.92-.22-2.3Zm.22,5v.46h.22v-.46ZM106,25.48l-.22.23v.23l.22.23h.22l.21-.23v-.23l-.21-.23Zm0,1.15-.22.23v.23l.44.45.21-.22v-.23Zm-.22,29.61v.46H106v-.46ZM106,28v.46h.22V28Zm.65,17.22v.69l.44.46V45.22Zm.44-23.41v.69l.22,2.06-.44,1.15.44,2.29h.21l.22-2.06h-.22l.44-1.15-.44-.46.22-.69-.22-2.29Zm-.22,28v2.53l.44-.46V50.27Zm0,3.9v.69l.44-.46-.22-.23Zm0,2.07v1.15h.44v-.69Zm.44-27.32v.46l.43.46v-.46Zm.21,1.38v.46h.22v-.46ZM108.19,11l-.22.92.44,2.06-.22,1.38v.69h.43V14.23l-.21-1.38.21-1.14V11Zm0,37.18V50h.43V48.2Zm.43-26.85-.21.23V23l.43.46.44-1.6Zm0,3.67v1.15l.44-.46v-.23Zm0,2.52v2.3h.44V28Zm.44-22.72v.46h.44V4.82Zm.22,37.42v.46h.43v-.46Zm.22,6v.69h.43v-.23Zm0,1.84v1.61h.43V50Zm0,3.9.21.69h.22v-.46h.22l-.22-.69ZM109.71,14v.46h.22V14Zm.22,10.33v.46h.44v-.46Zm0,1.15v1.84l.44.46v-2.3Zm0,4.13.22.69h.22V28.92C110.08,28.92,109.93,29.15,109.93,29.61Zm.66,24.1v.23l.21,1.15H111l.44-.46v-.92l-.44-.46Zm.21-42v.91l.44-.45Zm0,1.37V14h.44v-.46Zm.44,8.5v2.29l.44.46V22Zm.22,4.59v.69l.44-.46-.22-.23Zm.44,14.46v.92l.21,1.15.44-.46v-.46l-.44-1.15Zm.21-30.76.44.46V9.87Zm.22,8v1.38h.44V17.9Zm0,37v.46l.44.46.22-.23v-.23l-.44-.46Zm.22-32.36v1.37l.22,1.15H113l.21-1.84L113,22.5Zm.22,2.75v.69h.43v-.23Zm0,2.53V28l.43.46V27.32Zm.43,7.11V37l.44-.46V34.89ZM113.42,8v.23l.44.46V7.57Zm0,35.81v1.38l.44.46V44.3Zm.22-32.13v.68h.22v-.68Zm0,35.35v2.75l.44-.46V47.06Zm0,3.9v.92h.44v-.46Zm.22-32.37v2.3l.43.46V18.59Zm0,37.19v.69h.22v-.69Zm.22-34v.45h.21v-.45Zm.43,12.39.44.46v-.92Zm2.84-29.84L117.57,6v.92l-.22.22.22.24v4.13h-.22l-.88-.23a2.26,2.26,0,0,0-1.3,1.14v2.53l.43,1.84-.43.69.65,15.61-.22,1.37.22,6.2v3.21l-.44.46-.21-1.15V41.09h-.44v7.34c0,.31.36.46,1.09.46l.65.69c2-.35,3.06-1.95,3.06-4.82V44.3l-.22-2.06.22-4.14V35.58l.22-2.07-.44-1.83.87-1.84-.43-.69.43-.46v-3H120v.69h-.65v-.92c0-1.07.22-1.61.65-1.61V20.2a13.27,13.27,0,0,0-.43-4.13l.22-.23v-.23A6.36,6.36,0,0,0,118,11.25V6.43l-.22-1.61H118l-.22-.69-.21.23Zm-2.62.92V9.41l.44.46h.21V5.74L115,5.28Zm.65,39.48h.22l.22.69h-.44Zm0,1.38h.22v.46h-.22ZM116,6.2v.91l.43-.45Zm.43,1.37v.69h.22V7.57ZM118.22,56,118,58.53h.44V56Zm.44-51.42V8h.65V6.43C119.31,5.29,119.09,4.68,118.66,4.59Zm.87,48.89v.46h.22v-.46Zm.65-50.73v.46h.22V2.75Zm0,1.61V6.2l.44.46V5.51l-.22-1.15Zm.22,5.51v.69l.44.46V9.87Zm.22,37.87v.46h.22v-.46Zm.22,6.89-.22,1.15v.46l.65.69V55.09Zm0-37.64v.91c0,2.76.21,4.14.65,4.14V18.36C121.49,17.58,121.27,17.12,120.84,17Zm0,36v.46h.43V53Zm.43-29.61v.69h.22v-.69Zm0,1.15v2.3h.44V25Zm.44,17.22V42l.43.46v-.69Zm.22,3v.92l.43-.46Zm.21-31.22v.69h.22v-.69Zm0,1.38V17h.66v-.23C122.8,15.62,122.58,15,122.14,14.92Zm0,2.75v2.76l.44.46h.22V17.67Zm0,37.42v.23l.44.46v-.69Zm.44-31.91-.22,1.15.22.69h.65v-.46C123.23,23.77,123,23.31,122.58,23.18ZM123,6.66V8h.43V6.66ZM123.23,9v3.67l.44.46V9Zm0,34.2v.92h.44v-.92Zm.22-27.54v1.61h.44V16.07Zm0,3.44c.11,1.69.32,2.53.66,2.53V20.2l-.22-1.15Zm.44,4.36v.46h.22v-.46Zm0,1.38V26.4l.43.46V25.25Zm.65-19.28v5.74l.22,1.14H125L125.2,11,125,5.51Zm0,37v2.29h.22c.35,0,.57-.69.66-2.06l-.22-.23Zm.22-29.39v.69H125v-.69Zm.44,7.81-.22.23.22,1.6V24.1h.43V21.35Zm.22,6.89v1.37l.43-.46v-.46Zm0,3.67v.46h.43v-.46Zm.65-20.2v.69h.22v-.69Zm0,1.37.22,2.3v.69h.43l-.21-1.15.21-1.38Zm.44,6.43v.69h.21v-.69Zm0,1.38v2.75l.43.46V20.43Zm.21,4.13v1.61h.44l-.22-1.61Zm0,3.9v1.61l.44.46V28.46Zm0,26.63v.46h.22v-.46Zm.66-48.2v.46l.43.45V6.89Zm.22,6.42v2.76l.43.46V13.77Zm0,29.62v.45h.21v-.45Zm0,4.81v.46H128v-.46Zm.21-28.92v.23l.44.46v-.69Zm0,2.3.44.46v-.92Zm.22,2.06V25l.44-.46V23.18Zm.22,5.51v.46l.44.69-.22.23v.23l.22,1.38h.21V28.23h-.21Zm.22,4.37V34.2l.43.46v-1.6Zm0,2.52v1.61l.22,4.59h.21v-.46h.22l-.22-1.61.22-1.61-.22-.68.22-.23V37l-.22-1.84Zm.22,10.33v.92l.43.46h.22v-.92l-.44-.46Zm.43-33.74-.22.22v.46l.22,2.76h.44L129.34,14l.22-1.61-.22-.22Zm.44,13.31v1.15l.43-.46v-.23Zm0,3.67v.69h.22v-.69Zm0,2.3v1.37l.22,3.45h.43l-.22-.92.22-.23v-.23L130,33.74l.22-2.06-.22-.23Zm.22,6.2-.22.68.22.23v1.38l.65.23v-.23l-.22-2.29Zm.43,4.36-.22.92.22,2.75h.22l.44-1.84-.22-.23v-.23l.22-.91v-.23Z"/><path class="cls-1" d="M137.6,5.31l.22.23H138l.65-.23.22.92h.65c.29,0,.44-.23.44-.69h.43V6.69h.22l.66-.46h.21L142,9.9h.22l.22-1.38h.43l.44.92v.23l-.22,2.53.66.92.21-1.61-.21-2.07H145l-.21-.23V8.52h.43V7.84l-.65-.69c0,.46-.15.69-.44.69l-.87-.69h-.22l-.22.23h-.22l-.43-1.61L141.09,6l-.22-.23V5.54h.44V5.31l.21.23h1.09l1.53-.23.44,1.61h.22l.43-1.38H147c.08.61.3.92.65.92l.44-.46.87.92h.22V6.46h.43v.69L150,9v1.84h.65c0-.92.15-1.38.44-1.38h2.18L154,9q.23,2.07.66,2.07l.65-.23a4.52,4.52,0,0,1,.66,2.3c.29,0,.43-.31.43-.92l.22-.23h.22c.29,0,.44.38.44,1.15h.65l.22-1.38-.22-.23v-.23l.22-.23v-.23l-.44-2.75h.22q1.44,0,3.49,7.34v.92l-.87.23v1.38h.43V16.79h.44l.22,1.15v2.29l.21.23-.21.23v.23q-.34,9.18-1.53,9.18h-.22V28.73h-.22c0,2.14-.5,3.21-1.52,3.21l-2.18.92v.23q5.67,2.65,5.67,7.57l-.44,2.3.22.69-1.31.23.22.23c.87,0,1.31,1.37,1.31,4.13v6.65l.21.92-.21.92v3.21l.21,1.38c-.18.77-.4,1.15-.65,1.15l-.44-.46c0,.46-.14.69-.43.69l-.22-.23-1.09.46-.87-.23-.87.23L157,62.7V60.86h-.22l-.22.23h-.22l.22,1.15v.23l-.22.23v.23l-.65-.23-1.53.23V62.7l-.22.23h-2c-.87,0-1.31-.54-1.31-1.61l.22-1.15-.22-2.06v-.92l.44-.46h.65l.66.46.22-.23v-.69c0-.3-.51-.46-1.53-.46a13.18,13.18,0,0,1-.44-4.13V42l.22-.23Q150.47,37,148.72,37v-.23l-.22.23h-1.31V55.58c0,.31-.29.46-.87.46v.46a2.59,2.59,0,0,1,.87,2.07L147,59.71l.21,1.38v1.15l-.65.69h-.87l-1.09-.23-1.31.23h-1.09l-.87-.69h-.44v.46h-.44v-.46c0-.31.22-.46.66-.46l.22-.23v-.23l-.22-.23-.22.23h-1.31v1.15l-.43.46-.22-.23-1.09.23h-1.75c-.29,0-.51-.77-.65-2.3l.22-.69-.22-.92.44-2.75-.44-3.44c.08-1.68.23-2.53.44-2.53l-.44-4.59h.22l-.22-.23v-.23l.22-.23-.22-.23V42l.22-.23-.22-.23V38.14l-.22-2.3q.38-5.81,1.31-7.57l-.22-.23v-.23h.65c0,.46.15.69.44.69l.22-1.15,1.09.23.22-.23v-.46l-.44-.46-.65.23v-.92c0-.3.22-.46.65-.46v-.69c-.62,0-1-.76-1.09-2.29l-.22-.23h-.22l-.21.23.21.23v.23a2.47,2.47,0,0,0-.43,1.6h-.87l-.22-7.8.22-.69-.22-1.38V7.15L135.64,6l.87.69C136.86,5.77,137.23,5.31,137.6,5.31Zm-2,20.2h.43l.44.46v.23h-.87Zm.22,15.61v.46l.43,1.15.65-.46-.43-1.15Zm.43,3.67-.22.92.22.23h.22V44.79Zm0-37.64v.92h.22V7.15Zm0,36.27v.69h.65v-.46Zm.22,5.28.22,1.14h-.44v.69h.65V48.7Zm0-33.29v.69h.22v-.69ZM136.73,56v.46h.21V56Zm.21,1.38.44.46H138v-.46ZM137.38,37v.92h.22l.87-.23.87.46v-.46l-.21-1.15h-.88Zm0,4.59v.23h.87v-.23l-.43-.46Zm.44-35.35h.43V5.77Zm0,2.75v3h.43V9.44Zm0,6.2v.23l.22.92-.22.92v.23l.43.46.22-.23h.22l-.44-1.38.22-.92-.22-.23Zm.43,6V22.3h.22V21.15Zm0,7.58.22.22h.44v-.68h-.22Zm0,32.59v.23l.44.46h.22v-.69Zm.66-51.88.43.69v4.13l.22,2.53-.22,1.15.22.23h.22v-.46H140l-.22-.23V17L140,15l-.22-2.29V12l.22-1.38L139.56,9h-.22Zm.22,29.62v.68l.43-.46v-.22Zm0,1.37v1.38h.21V40.43Zm.43-14.92.22.23H140v-.69Zm.22,3.68v.22h.44v-.22Zm.44,3.9v.69l.43-.46v-.23Zm.43-23-.22.23v.92c0,1.22.37,1.84,1.09,1.84v.68l-.87.23v.69h.44V15l-.44.69.66.69.43-.46H142v1.38c0,.31.44.46,1.31.46l.65.69.66-.46h.22c.14,1.53.36,2.29.65,2.29h.22V18.86l.22-.23-.66-2.76.22-1.38V13.35H145v.23l-.21,2.29H145l-.43.69.22.23v.69h-.44c-.35,0-.57-.31-.65-.92h-.44V17h-.22l-.22-1.15h.44v.46h.65c0-.61.19-.92.44-.92a3.74,3.74,0,0,0-1.31-2.06l-1.09-3a1.7,1.7,0,0,1-.44,1.38l-.65-.23.22-.23v-.69Zm-.22,29.61v.69h.22v-.69Zm.22,4.14v1.37h.22l.44-.46v-.45l-.44-.46Zm.22-26.4v.46h.22l.22-.23h.21l-.21-.69Zm.44,38.1-.44.69.22.23h.65V56Zm-.44,2.07.22.69h.22l.43-.46v-.46h-.43l-.22.23Zm0,1.83v1.15h.44l.43-.46V59h-.43Zm1.53-34.66v.69c0,.77-.15,1.15-.44,1.15l-.65-.23-.22.23v1.61l.43.46c0-.62.15-.92.44-.92s.44.3.44.92l.21.22h.44l.44-.45-.44-.92.22-.69c-.15-1.38-.36-2.07-.66-2.07Zm-1.09-10.1H142v.92h-.22l-.43-.46Zm0,24.11.43.45.22-.22v-.69h-.22Zm.21-5.51V34h.22v-.68Zm.66,23,.43.46h.22l.44-.46-.44-.46h-.22Zm.87-19.74.22.69-.66,1.38.44,1.6h.44l.22-1.14.21.22h.88v-.91l-.22-.23v-.23q-.66,0-.66.69l-.43-.46V36.53Zm-.22-6.43v.46h.22V30.1Zm.22-24.33.22.69h.22V5.77Zm.22,36.5v.46h.22v-.46Zm.44-14v.23l.43.45v-.68Zm.21-1.38v.69h.22v-.69Zm0,28.69v.69h.44v-.69Zm.88-45v.23h.43v-.69Zm1.52-4.82v.69h.22l.22-.69Zm.66,9.87V17h-.44v1.15l-.22.23v.23l.22.23h.22l.22-.23.21,2.75H147l.21.23v.46l-.21.23.21.23v3c0,1.07-.14,1.61-.43,1.61l.22.69h2.4a2,2,0,0,0,1.09-1.61h.43l-.22.69c.11,2.3.33,3.44.66,3.44l.65-.69a15.12,15.12,0,0,1-.65-4.13l.22-.23h1.74c0,.46.15.69.44.69H154v-.69l-.21-1.61h-.22c0,.62-.15.92-.44.92s-.55-.38-.65-1.14l.22-.69-.44-2.53h-.44l-.21,2.07h-.22l-.22-.23h-.22l.22-1.15V19.77c0-.76-.15-1.14-.44-1.14l.22-.23q-.5-3.22-3.05-3.22h-.44ZM146.76,28l-.22,2.06h.65v-.91L147,28Zm.65-16.3V12l.44.46h.22v-.69Zm1.31-4.13-.22.91.22.24L148.5,9h.66l-.22-.22.22-.24V8.07Zm-.22,28.23v.46h.44Zm.66-7.34V29l.22,1.15H150l.22-.91L149.81,28h-.22Zm.65,5.5v2.53h.44V34.47Zm1.31-1.83v.92l.44.46V32.17Zm.22,9.41v.92l.43.46H152l.22-.69L152,41.12h-.22Zm.22,5.28.21,1.15-.43.46.43,1.6.22-.23h.22l-.22-1.6V46.86ZM152,26.2l.22,2.3H152c.19,1.07.41,1.6.66,1.6h.21V29l-.21-1.37.21-1.15-.21-.23Zm.44,10.1.43.46v-.92Zm.22-5v.69h.21v-.69Zm0,10.56v.69l.43.46h.22l.44-.46-.22-.69Zm.21-4.13h.44v-.46Zm.22,7.34v.46l-.22,1.15.22,1.38v.92h.44l.22-3.68-.22-.23Zm.44-39H154c.3,0,.44.23.44.69l-.22,1.15h-.43l-.44-.46Zm-.22,10.56V17h.22v-.46Zm0,3.67v2.3l.44.46.21-1.15V20.69l-.43-.46Zm.22,6.2v.92H154v-.92Zm1.53.23c0,1.07-.15,1.61-.44,1.61h-1.09l.22,1.14-.22.23.43.46.22-.23h.44c.33,0,.55.54.65,1.61h.22c0-1.22.22-1.84.65-1.84s.44.23.44.69H157c0-1.07-.37-1.6-1.09-1.6q-.63,0-.66-2.07Zm-1.53,4.59v.46h.65l.22-.69-.22-.23H154Zm1.09,11.25.44.46V42.5Zm.65-36.27c1.31.7,2,1.23,2,1.61l-.22.23h-.22c-1.31-.27-2-.8-2-1.61l.22-.23Zm-.43,14.69.43.46.22-.23v-.23Zm.22,1.38v.46h.21V22.3Zm0,39v.46l1.08-.23v-.23l-.43-.46h-.22Zm1.08-41.55-.43,1.15.22,1.15h.43l.66-.69C156.8,20.31,156.51,19.77,156.13,19.77Zm-.21-6.19V14h.21v-.45Zm.21,5v.45h.22v-.45Zm.66-9.19H157V9.9l-.44.46-.22-.23V9.9Zm.65,11.94c0,.77-.36,1.15-1.09,1.15l.44.46v-.23c.73,0,1.09.46,1.09,1.37h.44V22.76q0-1.19-.66-1.38Zm-.87,3V26h.22V24.36Zm0,2.07V28h.22V26.43Zm.22,8,.22,2.29.43-.46v-.46l-.21-.23.21-.23v-.46l-.43-.45Zm.22,2.75-.22,2.06.22.23h.22l.21-.23v-1.6Zm-.22,5.28v.23l.44.46h.21V42.5Zm1.31,17.21v.69h.22v-.69Zm.43-17V43H159v-.23Zm.44-31v.46h.44v-.46Zm.22,10.79v1.14l-.22.24.22.22v1.38L159,26.89l.65,1.61h.22l.22-1.84-.22-.69.22-1.84-.22-1.6Zm0-4.13v.68l.43-.45V18.4Zm.43,30.3.22.23h.22l.22-.23v-.46h-.22Zm.22-6v.46h.44v-.46Zm0,3.9v.23h.22l.44-.46v-.23h-.22Zm.22-1.61v.69h.65V45Zm.44-22.72v.92h.21V22.3Zm0,1.15v.46h.21v-.46Z"/><path class="cls-1" d="M165.83,1.87h2.84l.22.23.21-.23h.22l.88.23,1.52-.23h9.6L181.1,3l.65.23V1.87h.66l.43.46.88-.46.21.23h.66l.65-.23V2.1l.22.92v9.64l-.65.69h-2.19l-.65-.46-.65.46H180c-.29,0-.44-.23-.44-.69l-.22-.23h-.21l-.22.92h-1.31v8.72l-.22.23.22.23v1.6l1.09.23.22-.23.22.23H180l.22-.23.21.23h.88l.21-.23.22.23H182l2.18-.23q.87.24.87,1.38v6c0,.31-.29.46-.87.46v1.38l.87,1.15-1.09.91-.21-.23h-.88l-.22.23-.87-.46-.87.23-.44-.46v-.22l.22-.92-.43-1.61h-.44l.22,2.29v.46c0,.31-.22.46-.66.46l-.21-.23h-.22A2.08,2.08,0,0,0,177.17,37l.22,1.15-.22.69.22,2.75v2.3l.22,6.65-.44.92.22.23v1.15H177l-.43-2.07c-.35,0-.57.31-.66.92.36,1.07.65,1.61.88,1.61l.65-.23v.23l.44.92,1.09-.46.65.68.44-1.14c-.29-.31-.44-1.3-.44-3l-.22-.23h-.21v1.84l-.22,1.15h-.22c-.31,0-.6-1.61-.87-4.82l.65-.23.22.23h.22l1.74-.23.22.92h.22v-.69c.43,0,.65.69.65,2.06l.66-.23v-1.6l.43-.46.44.46-.22.23v.23l.44,3.21-.44,1.38.44,1.83-.22,2.3h-.66V56.5h-.43l.22,1.15c-.44,0-.66.3-.66.92-.29,0-.43.23-.43.69l-1.09.22h-8.07c-.73,0-1.09-.15-1.09-.46l-1.31.46h-3.27l-.66-.68V51l-.22-.92.44-2.29-.22-.23v-.92h.22c.29,0,.44.46.44,1.38h.22V43.42h-.22l-.22.23h-.22c0-.77-.14-1.15-.44-1.15.15-1.68.37-2.53.66-2.53h.44v-.91h-.88V37l.66-.92-.44-2.29.22-.23-.44-2.76v-.46h.22l-.22-2.75v-8.5l.44-1.37-.44-1.38V11.05l.22-1.61h-.22l.22-.23-.44-4.82L165.83,3l-.22-.23V2.56Zm.22,42h.22v.68h-.22Zm0,1.37h.22v.46h-.22Zm.44-38.79-.22,2.75h.22l-.22.69.22.69h.22l.21-1.15h-.21l.21-.23V9l-.21-2.52Zm0,6.2v.92l.43-.46Zm0,1.37v1.38l.22,1.15h.43v-.69l-.43-.69.21-.92-.21-.23Zm.22,36.27v.46h.21V50.3Zm.43-24.1-.22,1.15.44.46h.22V26.2Zm0,4.59v.46h.44v-.46Zm1.75-28.23c0,.46-.15.69-.44.69l-.65-.46-.22.23v.23l.22.23v.23l.21-.23h.22l1.09.23V2.56Zm-1.31,35.58v.23H168v-.69Zm0,1.14V40l.22,1.38-.22.23v.23l.43,2.75-.21,1.38v1.38h.43V39.74l-.43-.46Zm.22-9.41h1.3l-.21-1.6V26.66C168.49,26.66,168.13,27.73,167.8,29.87ZM168,8.3v.46h.22V8.3Zm0,40.85v.69h.22l.22-.69Zm0,5.06V57h.44V54.21Zm.22-38.34v2.07h.44V15.87Zm.22,4.13v.69h.22V20Zm0,3.91v.45h.44v-.45Zm.22,6.88v.46h.22v-.46Zm0,2.07v.46h.43Zm.22,3.67-.22.69.43,5.51v2.06l.44.46V41.58l-.22-1.38.22-.92-.44-2.75Zm1.52,10.1V48l-.21,1.14h-.44l-.22-.22h-.22v.68l.22-.23h.66l.21,1.38h.22a1.5,1.5,0,0,1,.65-1.38L170.85,48V46.63Zm-1.09,8.26v.69h.22v-.69Zm0,1.38v2.07h.44v-.23l-.22-.92.22-.69-.22-.23Zm.44-31.68v.23h.44v-.23Zm0,3.45v.23l.22,1.6h.43v-.46l-.21-.22.21-.24v-.22L170.2,28Zm.44,5.28v.46h.21v-.46Zm0,2.52V37l.43-.46V36.3Zm.21-29.61.22,2.29v1.61h.44l-.22-3.44V6l-.22.23Zm0,45.45v.69c0,2.45.22,3.67.66,3.67l.21-3.21c-.18-.77-.4-1.15-.65-1.15Zm.44-39.48v.46h.22V12.2Zm.43,12.39-.21.23v.46h.65v-.23Zm0,4.14V29l.22,1.15h.22l.22-.69-.22-1.14Zm.22,3.9-.22.69.22.68h.22l.22-.68-.22-.69Zm0,2.29v1.15h.22l.44-.46v-.46Zm0,13.55.66.46h.22l-.22-.69.22-1.15h-.22Q171.5,47.32,171.5,48.47Zm.44-9.64V40.2c.29,0,.44-.23.44-.69l-.22-.68Zm0,1.83V42h.22l.22-1.15-.22-.23Zm0,1.84v3.67h.44v-.23l.21-2.06C172.41,43,172.19,42.5,171.94,42.5Zm.22-30.3v.69l.43.46V12.2Zm.22,3.21v3.67l.43.46V15.87Zm.21,10.1L172.38,28l.21.69.66-.69C173.1,26.35,172.88,25.51,172.59,25.51Zm0,3.68v.68l.44-.46-.22-.22Zm0,1.37V31H173Zm.22,2.53v.46h.44v-.46ZM173,3.25v.91l.22,1.15h.22l.21-1.83-.21-.23Zm.44,38.56V42l-.22,2.52.22.69h.43V41.81Zm.21,9.41v1.61h.44V51.68Zm.22-24.79.22,1.38-.22.69.22.23h.44L174.34,26Zm.22-1.38v.46h.22v-.46Zm0,4.36v2.76l.44,3.9h.21l.22-.69-.22-1.15.22-.68-.43-4.14Zm.44,7.12-.22.69.65.46V37Zm.21,6.43-.21.92.43,4.36-.22,1.37.22.23h.22V43.42Zm0-4.13v.68H175v-.68Zm0,2.52V42H175v-.69Zm.22,9.41-.22,2.76.22.23h.22l.44-2.53Zm.22-34.66v.69h.44v-.23Zm.44,13.31v.23h.43v-.23Zm.21-25.48v.46h.22V3.93Zm0,2.3v.23l.44.46V6.23Zm0,32.37.22,2.29v.46h.44V40.2l.22-1.6-.22-.23h-.22l-.22.23Zm.22,5V46.4L176.3,48h.22l.22-.92-.22-1.61V43.19Zm.22,4.59v.91h.22v-.91Zm.22-34.89v.91h.22v-.91Zm.22,3.9-.22,1.15.22.23H177V17.25Zm0,8v1.61h.43V25.28Zm.21,5.51V31h.44v-.23Zm.44-24.56v.69h.44V6.69Zm.22,3-.22.23V9.9l.44.46.22-.23V9.67Zm0,1.61v.46h.22v-.46Zm.65,19.28V31h.44v-.46Zm.22,3.45.22.23h.22v-.69Zm.22-28.93V6.46h.44V5.08Zm0,29.38v.47h.22V34Zm.44,14.7v.68h.21l.22-.68Zm1.3,4.13.22,2.06h.22l.44-.46V53.29l-.44-.46Zm.44,4.59v.92h.22l.22-.69-.22-.23Zm.44-27.09v.46h1.3V30.1h-.21Zm0,2.53v.69h.21l.44-.46-.22-.23Zm.21-26.63V7.84H182V6.69ZM181.75,51v3l.66.68.43-.68v-.69A4,4,0,0,1,182,51Zm3.71-1.61h.44l.21,2.3v.23l-.21.23.21.23v3.44l.22.23-.22.23v3l-1.09.22c-.72,0-1.09-.15-1.09-.46l-.87.46c-.73-.19-1.09-.42-1.09-.68.73,0,1.09-.23,1.09-.69l.87.46.22-.23v-.23l-.22-3.45.44-.91-.44-2.3.22-.69h.44l.65.46.22-1.15Zm-3.05-16.06.43.46h.44v-.92h-.44Zm1.74-30.07v.68h.22V3.25Zm.44,45.9.22.23v.23l-.44.46-.22-.23v-.23Zm.43,3.91v.46h-.21l.21.69h.22l.44-.46v-.23l-.44-.46Zm.22-5.05h.22l.44.46v.23h-.22l-.44-.46Z"/><path class="cls-1" d="M196.54,1l1.53.23L210.5,1l2,.23V1q1.13,0,1.53,8.73l2,14.92-.22,1.6q.87,3.91,4.14,32.14l-.65.46h-10.9c-.36,0-.58-.31-.66-.92l-.43-6.43.21-.69c-.1-1.53-.32-2.29-.65-2.29h-3.71l-.22,1.15q0,8.43-1.09,9.18h-.21l-1.75-.46-.65.23-1.31-.23h-1.31l-1.74.46h-4.15l-.65-.46,2-16.76h-.22l4.36-40.4h.44Zm2.4,18.14-.22,1.6.44.69-.22,1.15.22.92-.66,3c.29,0,.44.23.44.69l-.22,1.15h.44V29c-.73,0-1.09.53-1.09,1.61l-.88.22v1.84l.66.23V31.05l.22.23h.22V29.91h1.08V28.53l.22-.23-.22-.23v-.92l.44-1.38L199.37,23v-.69c.59,0,.88-.76.88-2.29A1.17,1.17,0,0,0,198.94,19.12ZM197.41,49v.69h1.31V49Zm0,1.6v.69h2v.46l-.21.23v.23l.21.23h.22c0-.76.22-1.15.66-1.15l-.66-.69v-.22l-.22.22Zm.22-10.32v.68l.66-.23v-.22Zm0,3v.69h1.09v-.46Zm0,1.38v.46h1.09V44.6Zm1.53-14-.22,1.14V32l.43.46h.22V32.2l-.22-1.6Zm.21,13.08v1.15h.22l.44-1.15v-.46h-.22Zm0,1.84v.68h.22v-.68Zm0,7.11v1.15h.88v-.69Zm0,2.76v.68l.66-.23v-.22Zm0,1.14V57l.44.46V57ZM200,9.25v3.21a5.89,5.89,0,0,1-.44,2.53l.22,1.6H200a1.84,1.84,0,0,1,.65-1.38V9Zm-.44,32.82.22.69H200v-.69Zm1.09,1.38v.46h.44v-.46Zm4.15-27.09q-1.53,17.55-2.18,20.2l.43,1.61h3.71l-1.53-21.81Z"/><path class="cls-1" d="M223.82,2.52h3.27l.66.69v3h.43v-3l.66-.69h9.81q.66,2.53,3,25.71h.44V28a157.07,157.07,0,0,1,1.74-17.44l-.21-.23c.47-4.94.84-7.54,1.09-7.81h.43l2.18.23,3.06-.23h8.94l.65.69V6.66l-.22,1.6L260,11V35.81c0,.76-.22,1.15-.65,1.15v.69c.43,0,.65.38.65,1.14V59.45l-.65.69h-9.16l-.66-.69V49.12c0-2.29.19-3.44.44-3.44l-.44-1.84V24.1h-.22l-.43.46V25q0,5.28-3.49,34.89l-.22.23h-6.54q-.78,0-1.31-7.8l-3.27-26.4h-.22V59.45l-.65.69h-2.84l-.65-.69V56.7l.44-1.84v-.23a4.44,4.44,0,0,1-.66-2.75V50.27l-.43-.46v1.38l-.22,3.67.22.23v.23l-.22.23.43,4.13-.65.46h-.44c-.72,0-1.09-.46-1.09-1.38h-.43V59l.22.69-.66.46h-1.31c-.87,0-1.31-.61-1.31-1.84V48l.22-1.37-.43-4.36.21-1.38-.21-1.61.21-1.83h-.21l.21-.69L223.39,34l.65-1.15v-.68l-.44-.69v-2.3c.25-1.83.54-2.75.88-2.75h.21l.22.23h.22v-.69h-.65l-.22.23-.66-.23V21.35l-.21-3.22L224,17V11.71l-.22-2.07.22-.92-.44-4.36V3.67Zm1.75,40.18v.45h-.22l.22,1.61v1.15l-.66.69-.65-.23v.46h.65v.69a4.66,4.66,0,0,0,1.31,2.75V45.68C226.22,43.69,226,42.7,225.57,42.7Zm-.44-30.53v.22l.22.92-.44.69c.23.61.45.92.66.92H226v-.23l-.43-1.84v-.68Zm-.22,18.36v.92h.44V31Zm.44,4.82-.44.46v.69h.44v.23l-.22,1.6.22.69.65-.69v-.68a3.73,3.73,0,0,1-.43-2.3Zm0,4.13v.23l.22,2.3h.21L226,40.4Zm1.09-3.21v.23l.22,1.15.43-.46v-.92Zm.22-29.16v7.58l.43.46.22-.92-.22-1.61v-5Zm.22,44.77v.69h.65l-.22-.69Zm.43-31.22-.22.23v.23l.22,1.38.44-.46v-.92Zm0,2.06v3.45a5.84,5.84,0,0,0,.44,2.52l-.22.92.22,5.28.21.92h.22l.22-.69-.22-.23.22-3.44V31l.22-.23-.87-4.82V23.18Zm.44,29.85-.22.23.22,1.14h.43V53ZM228,36v.46l.22,1.15h.22l.22-1.61Zm2,9.87c0,.31-.29.46-.87.46l-.22.23v.23l1.52.23.22-.23V46.6Zm-.66-15.61v.46h.22V30.3Zm0,8.49v.46l.44.46v-.92Zm.66,2.53v.46h.22v-.46Zm6.54-11.25v.46h.22v-.46Zm8.94-9.41V22h.44v-.23l-.22-1.15Zm5.89,25.48v.46h.43v-.46Z"/><path class="cls-1" d="M296.76,0l.44.69V2.75h.44V.69l.43-.46c.29,0,.44.23.44.69l.22.23h.21c0-.46.15-.69.44-.69h.22l.44.46.65-.23q3.39,0,7.85,6.2,2,3.87,2,14v2.75l-.22,2.76H309l-.88-.69c0,.46-.14.69-.43.69l-.44-.46V23.87h.22a1.08,1.08,0,0,0,.87,1.15l.22-1.38-.22-2.75h-.43c-.11,1.83-.33,2.75-.66,2.75l-.43-.46h-.22v2.53l.22.23v.23l-.22.23h-.88l-.21-1.61c-.25,0-.47.54-.66,1.61h-.22l-.22-.23h-.21l-.66.46-.87-.46-.87.23-.44-.46-.65.69-1.09-.69-.22.23h-.22l-.43-.69V22.72q0-12.61-.88-12.62l-1.52-.23q-1.75,0-1.75,4.59l-.22,3.44.22.23v.23c-.21,3.06-.42,4.59-.65,4.59l.22.69.21,14v3.9l.22,2.52-.22.23v.23q0,6,2,6v.69h.43c0-.61.44-.92,1.31-.92l.66-8,.43-.46-.43-5.05.65-.69v-.23l1.09.23h.22l.22-.23.65.46,1.31-.46h.65c.73,0,1.09.2,1.09.46l.22-.23h.66l.21.23.88-.46a2.48,2.48,0,0,1,.43,1.61h.66l-.22-1.15.65-.46.44.69v1.6H309l.43-2.29.87.23-.21,1.61v.91l.43.46-.43,1.38.21,1.38-.21.92.21,1.83A13.24,13.24,0,0,1,309,51l.21.23v.23c-.64,2-1.37,3.28-2.18,3.67h-.21V54.4h-.66v1.84a11.37,11.37,0,0,1-8.5,3.9l-.66-.69V56.24l-.43-.46-.22.23v3.9h-.22c-.33,0-.55-.38-.65-1.15h-.22l-.44,1.38c-.44,0-.65-.23-.65-.69l-.22.23h-.22q-6.6,0-10-8.26a63.23,63.23,0,0,1-1.09-13.32V29.84l.22-2.06-.22-1.15.22-1.84-.22-.23v-.23l.22-.92h-.22l.22-.23V19.51l-.22-.23.22-.23v-.23l-.22-1.15q.21-7.58,1.31-7.57l-.22-.23V9.64q.49-2.07.87-2.07h.22v.69h.44V6.66a2.06,2.06,0,0,1,1.3-1.84c0-.44.44-.9,1.31-1.38,0-.5.58-1,1.75-1.6h.65l.22.91h.22c0-1.22.51-1.83,1.52-1.83,0-.31.51-.46,1.53-.46V.23l.22.23h.22ZM283.24,37.87v.46h.44v-.46Zm.44-22.95v.69h.44v-.23Zm0,28.23v.69h.22v-.69Zm.22-25.48v2.76c.29,0,.43-.23.43-.69l-.21-2.07Zm.22,3.22v.92h.21v-.92Zm0,3v3.22l.43.45V23.41Zm.65-13.31v.23h.44V10.1Zm0,26.63v.46l.44.45v-.45ZM285,15.61v.46h.22v-.46Zm0,26.86v.23l.43.45.22-.22V42.7l-.22-.23Zm0,4.13v.46h.22V46.6Zm.22-28.7v.69l.43.46.22-.23v-.46l-.44-.46Zm.21,1.61v1.61h.22l.22-1.38-.22-.23Zm0,3.21v2.07l.44.46V23.18Zm.22,3v3.44h.44v-.46h-.22l.22-1.6v-.92Zm.44-18.82v.22l.43.46V6.43Zm0,28.23V36.5h.43v-.23l-.21-1.15ZM286.3,8v.69h.21V8Zm0,2.53v.92l.43-.46Zm0,1.61v.91l.43-.46Zm.21,3.67v.46h-.21l.21,1.15v3.67H287V17l-.22-1.15Zm0,27.31v.92l.44-.46v-.46ZM287,24.33v3l.44.46v-.46h.21C287.5,25.33,287.28,24.33,287,24.33Zm.22-19.51v.46l.65.69V5.28l-.43-.46Zm.22,29.38v.69l.43.46v-.69Zm0,2.07v.92h.43V35.81Zm.21-25.48.22.23H288v-.69Zm.22,35.35v.69H288v-.69Zm.44-25.48v.46h.44v-.46Zm0,1.84v1.37h.22c.29,0,.43-.23.43-.69l-.21-.68Zm0,2.06v.23l.22,1.38-.22.69c.1,2,.32,3,.65,3v-.46l-.21-4.82Zm.65-20.2v.69h.22V4.36Zm.22,38.11v2.06h.44v-1.6Zm.44-21.35-.22.23c.14,1.22.36,1.83.65,1.83v-1.6Zm.21,2.52-.21,1.15.43.46.22-.23V24.1Zm0,2.76v3l.44.46.22-3.21-.22-.23Zm.22,4.13v1.15l.22,1.6h.22V31Zm0,3.67v.23h.44v-.69Zm.22-30.76v.92l.44.46V3.44Zm.66,53v.69h.21v-.69Zm.43-30.53v1.38l.22,1.14h.22v-.92l-.22-1.6Zm.87-11.25v.46h.44v-.46Zm.22,5.51v3.9l.44.46.22-.69C293.06,21.42,292.84,20.2,292.4,20.2Zm.22,5.51v.23l.22,5,.22.23h.21V30.07l-.21-1.15.43-2.06-.43-1.15Zm.44,6v.69h.21v-.69Zm.65,25.71v1.14l.44-.46v-.22Zm2.62-5.51v.69h.43v-.69Zm1.09-48.21V5.74h.43V3.67Zm.43,51.42v1.84l.44-.46v-.92Zm1.53-31.22v.46h.22v-.46Zm0,30.3v1.38l.66-.23V54.4Zm1.31-2.52v2.29l.43.46V51.19Zm0,3.44.22,1.61h.21V54.86l-.21.23Zm1.09-15.15v1.84h.44V39.94ZM302,14.46v.46h.22v-.46Zm0,36v.23h.43V50.5Zm2.61-10.1v.92h.44v-.46Zm0,3.21v.92h.66v-.46l-.44-.46Zm.22,10.1v.46l.44.46.22-.23v-.23l-.44-.46Zm2.62-8.49v.46h.22v-.46Zm1.31-4.82v.46H309V40.4Zm.65-20.66-.22,2.52.22,2.07.22-.23h.22l-.22-.23v-.23l.22-.69-.22-3.21Z"/><path class="cls-1" d="M314.72,1.87h2.83l.22.23.22-.23h.22l.87.23,1.52-.23h9.6L330,3l.66.23V1.87h.65l.44.46.87-.46.22.23h.65l.66-.23V2.1l.21.92v9.64l-.65.69h-2.18l-.66-.46-.65.46h-1.31c-.29,0-.43-.23-.43-.69l-.22-.23H328l-.22.92h-1.31v8.72l-.21.23.21.23v1.6l1.1.23.21-.23.22.23h.87l.22-.23.22.23h.87l.22-.23.22.23h.21l2.19-.23q.87.24.87,1.38v6c0,.31-.29.46-.87.46v1.38l.87,1.15-1.09.91-.22-.23h-.87l-.22.23-.87-.46-.88.23-.43-.46v-.22l.22-.92-.44-1.61h-.44l.22,2.29v.46c0,.31-.22.46-.65.46l-.22-.23h-.22A2.08,2.08,0,0,0,326.06,37l.22,1.15-.22.69.22,2.75v2.3l.21,6.65-.43.92.22.23v1.15h-.44l-.44-2.07c-.35,0-.57.31-.65.92.35,1.07.64,1.61.87,1.61l.66-.23v.23l.43.92,1.09-.46.66.68.43-1.14c-.29-.31-.43-1.3-.43-3l-.22-.23H328v1.84l-.22,1.15h-.21c-.32,0-.61-1.61-.88-4.82l.65-.23.23.23h.21l1.75-.23.21.92H330v-.69c.44,0,.66.69.66,2.06l.65-.23v-1.6l.44-.46.43.46-.22.23v.23l.44,3.21-.44,1.38.44,1.83-.22,2.3h-.65V56.5h-.44l.22,1.15c-.44,0-.65.3-.65.92-.29,0-.44.23-.44.69l-1.09.22H321c-.73,0-1.09-.15-1.09-.46l-1.31.46h-3.27l-.65-.68V51l-.22-.92.44-2.29-.22-.23v-.92h.22c.29,0,.43.46.43,1.38h.22V43.42h-.22l-.22.23h-.21c0-.77-.15-1.15-.44-1.15.14-1.68.36-2.53.65-2.53h.44v-.91h-.87V37l.65-.92-.43-2.29.21-.23-.43-2.76v-.46h.22l-.22-2.75v-8.5l.43-1.37-.43-1.38V11.05l.22-1.61h-.22l.22-.23-.44-4.82L314.72,3l-.22-.23V2.56Zm.22,42h.21v.68h-.21Zm0,1.37h.21v.46h-.21Zm.43-38.79-.22,2.75h.22l-.22.69.22.69h.22l.22-1.15h-.22l.22-.23V9l-.22-2.52Zm0,6.2v.92l.44-.46Zm0,1.37v1.38l.22,1.15H316v-.69l-.44-.69.22-.92-.22-.23Zm.22,36.27v.46h.22V50.3ZM316,26.2l-.22,1.15.44.46h.21V26.2Zm0,4.59v.46h.43v-.46Zm1.74-28.23c0,.46-.14.69-.44.69l-.65-.46-.22.23v.23l.22.23v.23l.22-.23h.22l1.09.23V2.56Zm-1.31,35.58v.23h.44v-.69Zm0,1.14V40l.22,1.38-.22.23v.23l.44,2.75-.22,1.38v1.38h.44V39.74l-.44-.46Zm.22-9.41H318l-.22-1.6V26.66C317.38,26.66,317,27.73,316.68,29.87ZM316.9,8.3v.46h.22V8.3Zm0,40.85v.69h.22l.21-.69Zm0,5.06V57h.43V54.21Zm.22-38.34v2.07h.43V15.87Zm.21,4.13v.69h.22V20Zm0,3.91v.45h.44v-.45Zm.22,6.88v.46h.22v-.46Zm0,2.07v.46H318Zm.22,3.67-.22.69.44,5.51v2.06l.44.46V41.58l-.22-1.38.22-.92L318,36.53Zm1.53,10.1V48l-.22,1.14h-.44l-.21-.22h-.22v.68l.22-.23h.65l.22,1.38h.22a1.48,1.48,0,0,1,.65-1.38L319.73,48V46.63Zm-1.09,8.26v.69h.22v-.69Zm0,1.38v2.07h.43v-.23l-.21-.92.21-.69-.21-.23Zm.43-31.68v.23h.44v-.23Zm0,3.45v.23l.22,1.6h.44v-.46l-.22-.22.22-.24v-.22l-.22-.69Zm.44,5.28v.46h.22v-.46Zm0,2.52V37l.44-.46V36.3Zm.22-29.61.22,2.29v1.61H320l-.22-3.44V6l-.21.23Zm0,45.45v.69c0,2.45.22,3.67.65,3.67l.22-3.21c-.19-.77-.4-1.15-.65-1.15Zm.43-39.48v.46H320V12.2Zm.44,12.39-.22.23v.46h.65v-.23Zm0,4.14V29l.22,1.15h.21l.22-.69-.22-1.14Zm.22,3.9-.22.69.22.68h.21l.22-.68-.22-.69Zm0,2.29v1.15h.21l.44-.46v-.46Zm0,13.55.65.46h.22l-.22-.69.22-1.15H321C320.6,47.24,320.39,47.7,320.39,48.47Zm.43-9.64V40.2c.29,0,.44-.23.44-.69l-.22-.68Zm0,1.83V42H321l.22-1.15-.22-.23Zm0,1.84v3.67h.44v-.23l.22-2.06Q321.2,42.5,320.82,42.5ZM321,12.2v.69l.44.46V12.2Zm.22,3.21v3.67l.44.46V15.87Zm.22,10.1L321.26,28l.22.69.65-.69C322,26.35,321.77,25.51,321.48,25.51Zm0,3.68v.68l.43-.46-.21-.22Zm0,1.37V31h.43Zm.22,2.53v.46h.43v-.46Zm.21-29.84v.91l.22,1.15h.22l.22-1.83-.22-.23Zm.44,38.56V42l-.22,2.52.22.69h.44V41.81Zm.22,9.41v1.61H323V51.68Zm.22-24.79.22,1.38-.22.69.22.23h.43L323.22,26Zm.22-1.38v.46h.21v-.46Zm0,4.36v2.76l.43,3.9h.22l.22-.69-.22-1.15.22-.68-.44-4.14Zm.43,7.12-.22.69.66.46V37Zm.22,6.43-.22.92.44,4.36-.22,1.37.22.23h.22V43.42Zm0-4.13v.68h.22v-.68Zm0,2.52V42h.22v-.69Zm.22,9.41-.22,2.76.22.23h.22l.43-2.53Zm.22-34.66v.69h.43v-.23Zm.43,13.31v.23H325v-.23Zm.22-25.48v.46H325V3.93Zm0,2.3v.23l.43.46V6.23Zm0,32.37.22,2.29v.46h.43V40.2l.22-1.6-.22-.23h-.22l-.21.23Zm.22,5V46.4l.21,1.61h.22l.22-.92-.22-1.61V43.19Zm.21,4.59v.91h.22v-.91Zm.22-34.89v.91h.22v-.91Zm.22,3.9-.22,1.15.22.23h.22V17.25Zm0,8v1.61h.44V25.28Zm.22,5.51V31h.44v-.23Zm.44-24.56v.69h.43V6.69Zm.21,3-.21.23V9.9l.43.46.22-.23V9.67Zm0,1.61v.46h.22v-.46Zm.66,19.28V31h.44v-.46Zm.21,3.45.23.23h.21v-.69Zm.23-28.93V6.46H328V5.08Zm0,29.38v.47h.21V34ZM328,48.7v.68h.22l.22-.68Zm1.31,4.13.22,2.06h.21l.44-.46V53.29l-.44-.46Zm.43,4.59v.92H330l.22-.69-.22-.23Zm.44-27.09v.46h1.31V30.1h-.22Zm0,2.53v.69h.22l.43-.46-.21-.23Zm.22-26.63V7.84h.43V6.69ZM330.64,51v3l.65.68.44-.68v-.69a4,4,0,0,1-.88-2.3Zm3.7-1.61h.44l.22,2.3v.23l-.22.23.22.23v3.44l.22.23-.22.23v3l-1.09.22c-.73,0-1.09-.15-1.09-.46l-.88.46c-.72-.19-1.09-.42-1.09-.68.73,0,1.09-.23,1.09-.69l.88.46.22-.23v-.23l-.22-3.45.43-.91-.43-2.3.22-.69h.43l.66.46.21-1.15Zm-3-16.06.44.46h.43v-.92h-.43ZM333,3.25v.68h.21V3.25Zm.43,45.9.22.23v.23l-.44.46-.21-.23v-.23Zm.44,3.91v.46h-.22l.22.69h.22l.43-.46v-.23l-.43-.46Zm.22-5.05h.21l.44.46v.23h-.22l-.43-.46Z"/><path class="cls-1" d="M340.35,4.26h2l.21.23.22-.23h2.18c.29,0,.44.31.44.92.29,0,.44-.3.44-.92H346l.87.23.22-.23h.22l.66.23,1.31-.23v.23l.21.92V6.79c.73,0,1.24,1.37,1.53,4.13l4.8,19.28.65-.23-.44-.92.22-.69-.22-2.75V19.87l.22-.23-.22-.23V16l.22-4.36-.22-.92c.32,0,.53-.69.66-2.07l-.44-.46V6.33l.66-2.07h.65l.22.23.22-.23h.43l.88.23.21-.23h.22l.22.23h.22l2-.23,1.31.23.87-.23.65.23.66-.23.44.92-.22,1.15v.46l.22.23-.22.23V13c-.29,0-.44-.24-.44-.69H365v1.83c.59,0,.88.16.88.46V16.2l-.22.23.22.23v1.83l-.44.46-.22-.23v.92c.59,0,.88.23.88.69l-.22,1.38.22.23-.66,1.83v.46q.66,0,.66.69c-.11,1.07-.25,1.61-.44,1.61l.44.69-.22.23v7.34l-.22,2.07.22,2.29V50.4l.22.92-.22.92v.69l.22.23-.22.22v.24l.22,7.11v.46l-.44.46-.22-.23-1.31.46-.22-.23-.21.23h-.22l-.66-.23-2.39.23-1.75-.23-1.74.23h-.22c-.87,0-1.31-.46-1.31-1.38l.22-.92-.66-.69v-.23h.66v-1.6h-.44c0,.61-.14.92-.43.92l-.88-3.91.22-1.6c-.77,0-1.35-1.92-1.74-5.74q-.32,0-2.4-9.18l-.22-.23v-.23h-.43l.21,3.44-.21,2.3h.21l-.21.23V44l.21.23-.21.23.21,2.76V58L349.3,60l.21,1.38-.65.46-1.31-.23-2.83.23-1.1-.23-1.3.23h-2l-.65-.69.22-.69-.22-2.29V49.94l.22-1.37-.22-1.15V46.27l.22-.23-.22-.23v-.69l.22-.23-.44-2.52h.22l-.22-.23v-.69c0-.31.29-.46.87-.46v-.23l-.87-.23.44-3.67-.22-.23v-.46h.22l-.22-3.44V19.18l.22-.23-.22-.23v-1.6l.22-.23-.22-.23V15.05l.22-.69-.22-1.14V10.46l.44-1.38-.44-1.14.44-.46V7.25c0-.77-.15-1.15-.44-1.15C339.84,4.88,340.06,4.26,340.35,4.26Zm-.21,9.64v.23l.43.46.22-.23V13.9Zm.21,4.82-.21.23v.23l.21.23h.22l.22-.23V19l-.22-.23Zm0-3.44v.46h.22v-.46Zm0,38.34v.68h.44v-.68Zm.22-28v1.61H341l-.22-.92.22-.69Zm.66,10.33v.69l.43-.46-.22-.23Zm0,1.38v.46h.43Zm.21-29.38v.91h.22V7.94Zm0,6.65v.46h.22v-.46Zm.44,5.05v.46h.22v-.46Zm.22,9-.22.23v.23l.44.46.21-.23v-.23Zm.43-22.95V6.79l.22,1.6H343l.22-.91C343.11,6.25,342.89,5.64,342.53,5.64Zm0,34.66V41l.44.46.22-.23V40.3Zm.22-29.15v.92l.44.46V11.15Zm.22,9.18-.22,1.15.22.23h.44V20.33Zm.22,38.33v.46h.22v-.46Zm.22-31.9v.46h.21v-.46Zm.21,9v1.38l.44-.46v-.92Zm.44-27.77-.22,1.14.22.69h.44V7.94Zm-.22,33.51v.92h.44v-.92Zm0,2.52.22.23h.22v-.69Zm.22.46-.22.92h.66v-.23l-.22-.69Zm0-33.74V13l.44.45V10.23Zm.22,5.51-.22.92h.66v-.23l-.22-.69Zm-.22,3.44v.23l.44.46.22-.23v-.23l-.22-.23Zm0,27.55v.46h.22v-.46Zm2.18-14v2.3c0,.46-.43.69-1.31.69v.46a2.13,2.13,0,0,1,1.75.69h.21l-.21-.23.21-.69-.21-2.53v-.69Zm-1.31,1.61v.46h.22v-.46Zm.44-23.87V12.3l.44.45V10.92Zm.22,5.51-.22.23v.23l.44.46.21-.23v-.23Zm-.22,23.87V41h.44V40.3Zm.22-32.59v.91h.22V7.71Zm.22,50.73v.45h.43v-.45Zm.65-19.29v.69h.43v-.23Zm.22-34V6.56h.43V5.64Zm0,2.3v.68l.43.46.22-.23V7.94l-.44-.46Zm0,37v.92h.65v-.92Zm.43,13.32v.46h.22v-.46ZM348,5.64V6.1l.43.46V6.1Zm.21,7.58v.45h.22v-.45Zm0,3.44v.46l.44.46.22-.23v-.69Zm.22,3.67v1.38h.44V19.87Zm0,3.67.22,1.15h.22V24Zm.22,4.82v.46h.44v-.46Zm.87-11.93.44.46h.22l.21-.69-.21-.23H350ZM350,29.74V30l.43.46.22-.23v-.46Zm1.52-7.11v.46h.22v-.46Zm.22,10.1v.45h.22v-.45Zm.44,11.7v.46h.43v-.46Zm.65-19.28v.46l.44.46h.22v-.92Zm0,6.89.44.46v-.92Zm.66,17.67v.69l.43.46.22-.23v-.46l-.44-.46Zm.87-17.44v.46h.22v-.46Zm0,1.6v3.22h.44V35.94l-.22-1.61.22-.23-.22-.23Zm0,4.14v.45l.22,1.15H355v-.46L354.75,38ZM355,48.57v.91h.22v-.91Zm0,2.52v1.38h.44v-.23l-.22-1.15ZM355.84,35v.92h.65v-.69Zm0,4.13v.46l.43.46.44-.46-.66-.46Zm.43,9.42v.68h.44V49Zm0,8,.22.69h.65v-.46l-.43-.46-.22.23Zm.44,1.15v.46h.65V58Zm.43-23v.69h.44v-.69Zm.44,5.51v.92l.44-.46V40.3Zm.22,1.38-.22,1.15H358V41.68Zm-.22,3V47H358v-2.3Zm0,3.22V49l.22,1.61H358V47.88ZM358,18.27l-.22.91.22.23,1.09-.46.22.23v.23l-.22,1.15h.43l.22-.69-.22-.23.22-.23c-.29,0-.43-.38-.43-1.14h-.22v.45h-.22l-.66-.45Zm0,1.6v.23h.43v-.23ZM358,21v.69h.43V21Zm0,1.15v1.14l.21,1.38-.21.69h.43l.22-1.83-.22-1.38Zm.65,17v.69h.22v-.69Zm.22-34,.22.23h.22l.21-.23V4.72h-.21Zm.22,5.05v.46h.43v-.46Zm0,2.3V13h.43v-.46Zm.22,9.41v1.15h.43V21.94Zm.43,10.33V33h.44v-.69Zm.44,8.95V44l.43.46.22-.23h.22a6.53,6.53,0,0,1-.65-3Zm.22,6.66-.22,1.6c.29.37.43,1.75.43,4.14h.22l.22-1.15V49.94l-.22-1.6.22-.23-.22-.23Zm0-2.53V46h.43v-.69Zm.21,8.72v2.07h.44V54.07Zm.22-26.62v.69h.44v-.69Zm0,31v2.29h.44l.22-.92-.22-1.37Zm.87-10.33v1.14h.44v-.68ZM362.16,19v.46h.44V19Zm0,2.3.22.23h.22v-.69ZM363,43.74v.46h.44v-.46Zm.22,6.66v.46l.22.23-.22.69.22.69h.43l.22-1.15c-.21-.61-.42-.92-.65-.92Zm.22-34.89v1.61h.43V15.51Zm0,2.76v.22l.22,1.15h.43V18.27Zm0,37v.46h.22v-.46Zm.22-34.2v.46h.43V21Zm.87,27.09-.22.68c0,1.69.22,2.53.65,2.53V48.57Zm.22,4.13v.69H365v-.69ZM365,11.15v.46h.22v-.46Zm0,5.51v1.15l.44.46V17.12Zm.44-3.67h.22v.45h-.22Z"/><path class="cls-1" d="M370.34,8.2h.22l.44.46v.46h-.66Zm0,1.15h.44V9.8H371L370.78,11h-.44Zm0,2.06H371c0,.77.36,1.15,1.09,1.15l.22,1.15v.45l-1.53.24-.44-.69Zm1.31-8.26.44.46V5.67h.22L373,5l.87.46c0-1.53.15-2.29.44-2.29s.49.69.65,2.06h.22c0-1.37.15-2.06.44-2.06H376l.22,1.14h.66V3.15h.65v.92c.33,1.83.7,2.75,1.09,2.75-.37,1-.74,1.52-1.09,1.61L377.1,8V6.82h-.43V8.66A1.73,1.73,0,0,1,376,10c-.58-.15-.87-.46-.87-.91l.22-.69-.22-.23h-.22l-.21,2.29-.66-.69.22-.23-.22-.68h-.43v.23l.21.68-.21,1.38.43.46.87-.23v.23L374.71,13l.21.92h-.43l-.44-1.15.22-.92h-.65v2.29H373V11h-.65v.69h-.44L371.44,10l.21-.68h.22c.29,0,.44.38.44,1.14H373l.44-1.6-.88-.69h-.65c0,.46-.14.69-.43.69h-.22V8.66l.65-.92c-.31,0-.6-.61-.87-1.84l.22-.92H371C371.14,3.76,371.36,3.15,371.65,3.15Zm1.31.23h.22v.91H373Zm3.27,9.41.44.69v.23l-.44.45h-.43l-.22-.91ZM383,2.92l.22.23-.22.69.44,2.52h.65l.22-1.15-.44-2.06.22-.23H385l.88.23,1.52-.23h8.51l.22,1.15v9.18l-.22,1.15a24.06,24.06,0,0,1-5.24-.46l-.87.22-.22-.22c-.43.52-.65,2.05-.65,4.59h.22q0,.69-.66.69v.68h.44v.46l.22,1.38-.87,1.84h-.44c-.15-1.23-.36-1.84-.66-1.84h-.21v.46h-.22l.22.23V24.5l-.44.46c0-.46-.14-.69-.44-.69s-.55.38-.65,1.14h-.22l-.43-1.6V22.66h-.44c-.25,0-.47.54-.65,1.61q-.66,0-.66.69h-.21l-1.31-1.61L381,25h-.22l-.22-.69.22-.23v-.69l-.43-.69V20.82h-.66v1.61h-1.09v1.15l1.09.46v.23c-.43,0-.8.3-1.09.91v3.45c.08.92.3,1.37.66,1.37,0-.76.18-1.14.43-1.14l-.22-1.15v-.92h.22l.44.46V28.4h.43l.22-1.84H381q.38,0,.87,1.38h.22l.22-2.07H383l-.21.23v.23l.43.46h.22l-.22-1.61h.87l-.22.23v.23q.4,0,.66,2.07l-.22.23v.23l.22,3.67V33h.22l.43-.46V32.3L385,30l.22-1.37h.44l.22,1.6v.69h.43V29.77l.66-.68.43,1.14h.22l.44-1.6h.43c.25,1.07.47,1.6.66,1.6l-.44,1.84.44,3.67-.22.23.22,2.76v6.88l-.22,2.07.22,2.3v9.87l-.66.68H377.76l-.66-.46.22-.22-.22-2.76V36.66l.22-2.52L377.1,33l.22-.23v-.23l-.22-.69a8.15,8.15,0,0,0,.88-4.13,9.42,9.42,0,0,1-.88-3.21l.22-.69.22-9.18H378l.22.68-.22.23v.23l.65,1.61-.22.69h.44v-.69l.22-1.15h.43l.22,1.38h.44l.22-1.15v-.23c0-.3-.44-.46-1.31-.46v-.46h-.22l.44-.68L378.41,13h.44v-.23l.22.23h.43l.88-.23,1.3.69,1.53-1.15.87.23v-.69l-.43-.46-.66.46-.87-.46-.22.23h-.22l-.65-.23-.44.46h-.21l-.22-.92.22-.23h-.44V9.35q-.37-2.07-.87-2.07l.43-.92c-.87,0-1.3-1.07-1.3-3.21h.43l.44.46V4.75h.43l.22-1.37h.44l.43,1.37h.66V3.84h.22c.29,0,.43.76.43,2.29l.44-.46-.22-1.6c.29,0,.43-.31.43-.92l.23-.23Zm-5.23,8.49.44.46v.23l-.22.23.22.23v.69L378,14.4h-.22l-.66-.69.44-1.38-.22-.69.22-.23Zm.87,9.18v.69h.66v-.23l-.44-.46Zm.44,9.87v.69h.22v-.69Zm.22,5.28v1.84h.43V35.74Zm.21,8.73v.45h.44v-.45Zm1.75-30.07.22.68h.21V14.4Zm.22,1.14-.22.69.22.69h.21c0-.61.15-.92.44-.92l.66.46v-.23C382.78,16,382.34,15.74,381.47,15.54Zm.43,18.37v.92h.44v-.46Zm1.31-3.22V33h.44V31.84l-.22-1.15Zm.22-16.29v.68h.43v.23l-.43.69a3.64,3.64,0,0,1,.43,2.07h.22l.22-1.61-.22-2.3Zm.22,10.32h.65V25h-.65Zm1.09,11v.69h.43v-.69Zm.21-20.2v.69l.66.69.43-.46v-.69Zm.22,11.25h.22l.44.46-.22,1.15h-.44l.22-.23-.22-.23Zm.44-7.8v.91h.22V19Zm0,1.14v1.15l.43-.46v-.23Zm.87-3.9h.65v-.46h-.21Zm0,10.79h.22v.46h-.22Zm0,17.45v1.37l.65.69.22-.69C387.17,44.92,386.88,44.47,386.48,44.47Zm.87-14-.22.69.22.23h.22l.22-.23-.22-.69Zm.22,3.45-.22.23v.23l.44.46H388v-.46Zm.66-8.95h.21l.66.68-.66,2.76H388c0-.61-.15-.92-.44-.92Q387.8,25,388.23,25Zm-.44-13.09v.69H388v-.69Zm1.74.46v.46h.22v-.46Z"/><path class="cls-1" d="M402,5.31l.22.23h.21l.66-.23.22.92H404c.29,0,.44-.23.44-.69h.43V6.69h.22l.65-.46H406l.44,3.67h.22l.22-1.38h.43l.44.92v.23l-.22,2.53.65.92.22-1.61-.22-2.07h1.31l-.22-.23V8.52h.44V7.84L409,7.15c0,.46-.15.69-.44.69l-.87-.69h-.22l-.22.23H407l-.43-1.61L405.52,6l-.22-.23V5.54h.43V5.31l.22.23H407l1.53-.23L409,6.92h.21l.44-1.38h1.74c.09.61.3.92.66.92l.43-.46.88.92h.22V6.46H414v.69L414.46,9v1.84h.65c0-.92.15-1.38.44-1.38h2.18l.65-.46q.22,2.07.66,2.07l.65-.23a4.63,4.63,0,0,1,.66,2.3c.29,0,.43-.31.43-.92L421,12h.22c.29,0,.43.38.43,1.15h.66l.22-1.38-.22-.23v-.23l.22-.23v-.23l-.44-2.75h.22c.95,0,2.12,2.45,3.49,7.34v.92l-.87.23v1.38h.43V16.79h.44l.22,1.15v2.29l.21.23-.21.23v.23q-.34,9.18-1.53,9.18h-.22V28.73h-.22c0,2.14-.51,3.21-1.52,3.21l-2.18.92v.23c3.77,1.77,5.67,4.29,5.67,7.57l-.44,2.3.22.69-1.31.23.22.23c.87,0,1.31,1.37,1.31,4.13v6.65l.21.92-.21.92v3.21l.21,1.38c-.18.77-.4,1.15-.65,1.15l-.44-.46c0,.46-.14.69-.43.69l-.22-.23-1.09.46-.87-.23-.88.23-.21-.23V60.86h-.22l-.22.23h-.22l.22,1.15v.23l-.22.23v.23l-.65-.23-1.53.23V62.7l-.22.23h-2c-.87,0-1.31-.54-1.31-1.61l.22-1.15-.22-2.06v-.92l.44-.46h.65l.66.46.21-.23v-.69c0-.3-.51-.46-1.52-.46a13.18,13.18,0,0,1-.44-4.13V42l.22-.23Q414.9,37,413.15,37v-.23l-.22.23h-1.31V55.58c0,.31-.29.46-.87.46v.46a2.59,2.59,0,0,1,.87,2.07l-.22,1.14.22,1.38v1.15l-.65.69h-.87L409,62.7l-1.31.23h-1.09l-.88-.69h-.43v.46h-.44v-.46c0-.31.22-.46.66-.46l.21-.23v-.23l-.21-.23-.22.23H404v1.15l-.44.46-.21-.23-1.09.23H400.5c-.29,0-.51-.77-.65-2.3l.22-.69-.22-.92.43-2.75-.43-3.44c.08-1.68.23-2.53.43-2.53l-.43-4.59h.22l-.22-.23v-.23l.22-.23-.22-.23V42l.22-.23-.22-.23V38.14l-.22-2.3c.25-3.87.68-6.39,1.31-7.57l-.22-.23v-.23h.65c0,.46.15.69.44.69l.22-1.15,1.09.23.22-.23v-.46l-.44-.46-.65.23v-.92c0-.3.21-.46.65-.46v-.69c-.62,0-1-.76-1.09-2.29l-.22-.23h-.22l-.22.23.22.23v.23a2.47,2.47,0,0,0-.43,1.6h-.87l-.22-7.8.22-.69-.22-1.38V7.15L400.07,6l.87.69C401.29,5.77,401.65,5.31,402,5.31Zm-2,20.2h.43l.44.46v.23h-.87Zm.21,15.61v.46l.44,1.15.65-.46-.43-1.15Zm.44,3.67-.22.92.22.23h.22V44.79Zm0-37.64v.92h.22V7.15Zm0,36.27v.69h.65v-.46Zm.22,5.28.21,1.14h-.43v.69h.65V48.7Zm0-33.29v.69h.21v-.69ZM401.15,56v.46h.22V56Zm.22,1.38.44.46h.65v-.46ZM401.81,37v.92H402l.87-.23.87.46v-.46l-.22-1.15h-.87Zm0,4.59v.23h.87v-.23l-.43-.46Zm.44-35.35h.43V5.77Zm0,2.75v3h.43V9.44Zm0,6.2v.23l.21.92-.21.92v.23l.43.46.22-.23h.22l-.44-1.38.22-.92-.22-.23Zm.43,6V22.3h.22V21.15Zm0,7.58.22.22h.44v-.68h-.22Zm0,32.59v.23l.44.46h.22v-.69Zm.66-51.88.43.69v4.13l.22,2.53-.22,1.15.22.23h.22v-.46h.22l-.22-.23V17l.22-2.07-.22-2.29V12l.22-1.38L404,9h-.22Zm.21,29.62v.68l.44-.46v-.22Zm0,1.37v1.38h.22V40.43ZM404,25.51l.22.23h.22v-.69Zm.22,3.68v.22h.43v-.22Zm.43,3.9v.69l.44-.46v-.23Zm.44-23-.22.23v.92c0,1.22.37,1.84,1.09,1.84v.68l-.87.23v.69h.44V15l-.44.69.65.69.44-.46h.22v1.38c0,.31.44.46,1.31.46l.65.69.66-.46h.21c.15,1.53.37,2.29.66,2.29h.22V18.86l.21-.23-.65-2.76.22-1.38V13.35h-.44v.23l-.22,2.29h.22l-.43.69.21.23v.69h-.43c-.35,0-.58-.31-.66-.92h-.43V17h-.22l-.22-1.15h.44v.46h.65c0-.61.19-.92.44-.92a3.74,3.74,0,0,0-1.31-2.06l-1.09-3a1.74,1.74,0,0,1-.44,1.38l-.65-.23.22-.23v-.69Zm-.22,29.61v.69h.22v-.69Zm.22,4.14v1.37h.22l.43-.46v-.45l-.43-.46Zm.22-26.4v.46h.22l.21-.23H406l-.22-.69Zm.43,38.1-.43.69.22.23h.65V56Zm-.43,2.07.22.69h.21l.44-.46v-.46h-.44l-.21.23Zm0,1.83v1.15h.43l.44-.46V59h-.44Zm1.53-34.66v.69c0,.77-.15,1.15-.44,1.15l-.66-.23-.21.23v1.61l.43.46c0-.62.15-.92.44-.92s.44.3.44.92L407,29h.44l.44-.45-.44-.92.22-.69q-.22-2.07-.66-2.07Zm-1.1-10.1h.66v.92h-.22l-.44-.46Zm0,24.11.44.45.22-.22v-.69h-.22Zm.22-5.51V34h.22v-.68Zm.66,23,.43.46h.22l.44-.46-.44-.46H407Zm.87-19.74.22.69L407,38.6l.44,1.6h.44l.21-1.14.22.22h.87v-.91l-.21-.23v-.23q-.66,0-.66.69l-.43-.46V36.53Zm-.22-6.43v.46h.22V30.1Zm.22-24.33.22.69h.22V5.77Zm.22,36.5v.46h.22v-.46Zm.43-14v.23l.44.45v-.68Zm.22-1.38v.69h.22v-.69Zm0,28.69v.69h.44v-.69Zm.87-45v.23h.44v-.69Zm1.53-4.82v.69H411l.22-.69Zm.65,9.87V17H411v1.15l-.22.23v.23l.22.23h.22l.21-.23.22,2.75h-.22l.22.23v.46l-.22.23.22.23v3c0,1.07-.14,1.61-.43,1.61l.21.69h2.4a1.94,1.94,0,0,0,1.09-1.61h.44l-.22.69c.11,2.3.32,3.44.66,3.44l.65-.69a14.75,14.75,0,0,1-.65-4.13l.21-.23h1.75c0,.46.14.69.44.69h.21v-.69l-.21-1.61H418c0,.62-.15.92-.44.92s-.55-.38-.65-1.14l.21-.69-.43-2.53h-.44L416,22.3h-.21l-.22-.23h-.22l.22-1.15V19.77c0-.76-.15-1.14-.44-1.14l.22-.23q-.49-3.22-3.05-3.22h-.44ZM411.19,28,411,30.1h.65v-.91L411.4,28Zm.65-16.3V12l.44.46h.21v-.69Zm1.31-4.13-.22.91.22.24-.22.22h.66l-.22-.22.22-.24V8.07Zm-.22,28.23v.46h.44Zm.66-7.34V29l.21,1.15h.66l.22-.91L414.24,28H414Zm.65,5.5v2.53h.44V34.47Zm1.31-1.83v.92l.43.46V32.17Zm.22,9.41v.92l.43.46h.22l.22-.69-.22-1.15h-.22Zm.21,5.28L416.2,48l-.43.46.43,1.6.22-.23h.22l-.22-1.6V46.86Zm.44-20.66.22,2.3h-.22c.19,1.07.41,1.6.65,1.6h.22V29l-.22-1.37.22-1.15-.22-.23Zm.44,10.1.43.46v-.92Zm.21-5v.69h.22v-.69Zm0,10.56v.69l.44.46h.22l.44-.46-.22-.69Zm.22-4.13h.44v-.46Zm.22,7.34v.46l-.22,1.15.22,1.38v.92H418l.22-3.68L418,45ZM418,6h.43c.29,0,.44.23.44.69l-.22,1.15h-.43l-.44-.46Zm-.22,10.56V17H418v-.46Zm0,3.67v2.3l.44.46.21-1.15V20.69l-.43-.46Zm.22,6.2v.92h.43v-.92Zm1.52.23c0,1.07-.14,1.61-.43,1.61H418l.22,1.14-.22.23.43.46.22-.23H419c.33,0,.55.54.65,1.61h.22c0-1.22.22-1.84.65-1.84s.44.23.44.69h.44c0-1.07-.37-1.6-1.09-1.6q-.63,0-.66-2.07ZM418,31.25v.46h.65l.22-.69-.22-.23h-.22ZM419,42.5l.43.46V42.5Zm.65-36.27c1.31.7,2,1.23,2,1.61l-.21.23h-.22c-1.31-.27-2-.8-2-1.61l.21-.23Zm-.43,14.69.43.46.22-.23v-.23Zm.21,1.38v.46h.22V22.3Zm0,39v.46l1.09-.23v-.23l-.43-.46h-.22Zm1.09-41.55-.43,1.15.22,1.15h.43l.66-.69C421.23,20.31,420.94,19.77,420.56,19.77Zm-.21-6.19V14h.21v-.45Zm.21,5v.45h.22v-.45Zm.66-9.19h.22V9.9l-.44.46-.22-.23V9.9Zm.65,11.94c0,.77-.36,1.15-1.09,1.15l.44.46v-.23c.72,0,1.09.46,1.09,1.37h.43V22.76c0-.79-.21-1.25-.65-1.38Zm-.87,3V26h.22V24.36Zm0,2.07V28h.22V26.43Zm.22,8,.22,2.29.43-.46v-.46l-.22-.23.22-.23v-.46l-.43-.45Zm.22,2.75-.22,2.06.22.23h.21l.22-.23v-1.6Zm-.22,5.28v.23l.43.46h.22V42.5Zm1.31,17.21v.69h.21v-.69Zm.43-17V43h.44v-.23Zm.44-31v.46h.43v-.46Zm.22,10.79v1.14l-.22.24.22.22v1.38l-.22,1.38.65,1.61h.22l.22-1.84-.22-.69.22-1.84-.22-1.6Zm0-4.13v.68l.43-.45V18.4Zm.43,30.3.22.23h.22l.22-.23v-.46h-.22Zm.22-6v.46h.44v-.46Zm0,3.9v.23h.22l.44-.46v-.23h-.22Zm.22-1.61v.69h.65V45Zm.44-22.72v.92h.21V22.3Zm0,1.15v.46h.21v-.46Z"/><path class="cls-1" d="M430.26,1.87h2.84l.22.23.21-.23h.22l.87.23,1.53-.23h9.59L445.53,3l.65.23V1.87h.65l.44.46.87-.46.22.23H449l.65-.23V2.1l.22.92v9.64l-.66.69h-2.18l-.65-.46-.66.46h-1.3c-.29,0-.44-.23-.44-.69l-.22-.23h-.22l-.21.92H442v8.72l-.22.23.22.23v1.6l1.09.23.22-.23.21.23h.88l.22-.23.21.23h.87l.22-.23.22.23h.22l2.18-.23q.87.24.87,1.38v6c0,.31-.29.46-.87.46v1.38l.87,1.15-1.09.91-.22-.23h-.87l-.22.23-.87-.46-.87.23-.44-.46v-.22l.22-.92-.43-1.61h-.44l.22,2.29v.46c0,.31-.22.46-.66.46l-.22-.23h-.21A2.08,2.08,0,0,0,441.6,37l.22,1.15-.22.69.22,2.75v2.3l.22,6.65-.44.92.22.23v1.15h-.44L441,50.76c-.36,0-.57.31-.66.92.36,1.07.65,1.61.88,1.61l.65-.23v.23l.44.92,1.09-.46.65.68.44-1.14c-.29-.31-.44-1.3-.44-3l-.22-.23h-.22v1.84l-.21,1.15h-.22c-.31,0-.6-1.61-.87-4.82l.65-.23.22.23h.22l1.74-.23.22.92h.22v-.69c.43,0,.65.69.65,2.06l.65-.23v-1.6l.44-.46.44.46-.22.23v.23l.44,3.21-.44,1.38.44,1.83-.22,2.3h-.66V56.5h-.43l.21,1.15c-.43,0-.65.3-.65.92-.29,0-.44.23-.44.69l-1.08.22h-8.07c-.73,0-1.09-.15-1.09-.46l-1.31.46h-3.27l-.66-.68V51l-.22-.92.44-2.29-.22-.23v-.92h.22c.29,0,.44.46.44,1.38h.22V43.42h-.22l-.22.23h-.22c0-.77-.15-1.15-.44-1.15.15-1.68.37-2.53.66-2.53h.44v-.91h-.88V37l.66-.92-.44-2.29.22-.23-.44-2.76v-.46h.22l-.22-2.75v-8.5l.44-1.37-.44-1.38V11.05l.22-1.61h-.22l.22-.23L430,4.39,430.26,3,430,2.79V2.56Zm.22,42h.22v.68h-.22Zm0,1.37h.22v.46h-.22Zm.44-38.79-.22,2.75h.22l-.22.69.22.69h.22l.21-1.15h-.21l.21-.23V9l-.21-2.52Zm0,6.2v.92l.43-.46Zm0,1.37v1.38l.22,1.15h.43v-.69l-.43-.69.21-.92-.21-.23Zm.22,36.27v.46h.21V50.3Zm.43-24.1-.22,1.15.44.46H432V26.2Zm0,4.59v.46H432v-.46Zm1.75-28.23c0,.46-.15.69-.44.69l-.66-.46L432,3v.23l.21.23v.23l.22-.23h.22l1.09.23V2.56ZM432,38.14v.23h.43v-.69Zm0,1.14V40l.21,1.38-.21.23v.23l.43,2.75-.22,1.38v1.38h.44V39.74l-.44-.46Zm.21-9.41h1.31l-.21-1.6V26.66C432.92,26.66,432.56,27.73,432.22,29.87Zm.22-21.57v.46h.22V8.3Zm0,40.85v.69h.22l.22-.69Zm0,5.06V57h.44V54.21Zm.22-38.34v2.07h.44V15.87Zm.22,4.13v.69h.22V20Zm0,3.91v.45h.44v-.45Zm.22,6.88v.46h.22v-.46Zm0,2.07v.46h.43Zm.22,3.67-.22.69.43,5.51v2.06l.44.46V41.58l-.22-1.38.22-.92-.44-2.75Zm1.52,10.1V48l-.22,1.14h-.43l-.22-.22h-.22v.68l.22-.23h.65l.22,1.38h.22a1.5,1.5,0,0,1,.65-1.38L435.28,48V46.63Zm-1.09,8.26v.69H434v-.69Zm0,1.38v2.07h.44v-.23l-.22-.92.22-.69-.22-.23Zm.44-31.68v.23h.43v-.23Zm0,3.45v.23l.22,1.6h.43v-.46l-.22-.22.22-.24v-.22l-.22-.69Zm.43,5.28v.46h.22v-.46Zm0,2.52V37l.44-.46V36.3Zm.22-29.61.22,2.29v1.61h.44l-.22-3.44V6l-.22.23Zm0,45.45v.69c0,2.45.22,3.67.66,3.67l.21-3.21c-.18-.77-.4-1.15-.65-1.15Zm.44-39.48v.46h.22V12.2Zm.43,12.39-.21.23v.46h.65v-.23Zm0,4.14V29l.22,1.15h.22l.22-.69-.22-1.14Zm.22,3.9-.22.69.22.68h.22l.22-.68-.22-.69Zm0,2.29v1.15h.22l.44-.46v-.46Zm0,13.55.66.46h.21l-.21-.69.21-1.15h-.21Q435.93,47.32,435.93,48.47Zm.44-9.64V40.2c.29,0,.43-.23.43-.69l-.21-.68Zm0,1.83V42h.22l.21-1.15-.21-.23Zm0,1.84v3.67h.43v-.23l.22-2.06C436.84,43,436.62,42.5,436.37,42.5Zm.22-30.3v.69l.43.46V12.2Zm.21,3.21v3.67l.44.46V15.87Zm.22,10.1L436.8,28l.22.69.66-.69C437.53,26.35,437.31,25.51,437,25.51Zm0,3.68v.68l.44-.46-.22-.22Zm0,1.37V31h.44Zm.22,2.53v.46h.44v-.46Zm.22-29.84v.91l.22,1.15h.22l.21-1.83-.21-.23Zm.44,38.56V42l-.22,2.52.22.69h.43V41.81Zm.21,9.41v1.61h.44V51.68Zm.22-24.79.22,1.38-.22.69.22.23H439L438.77,26Zm.22-1.38v.46h.22v-.46Zm0,4.36v2.76l.44,3.9h.21l.22-.69-.22-1.15.22-.68L439,29.41Zm.44,7.12-.22.69.65.46V37ZM439.2,43l-.21.92.43,4.36-.22,1.37.22.23h.22V43.42Zm0-4.13v.68h.22v-.68Zm0,2.52V42h.22v-.69Zm.22,9.41-.22,2.76.22.23h.22l.44-2.53Zm.22-34.66v.69h.44v-.23Zm.44,13.31v.23h.43v-.23Zm.21-25.48v.46h.22V3.93Zm0,2.3v.23l.44.46V6.23Zm0,32.37.22,2.29v.46H441V40.2l.22-1.6-.22-.23h-.22l-.22.23Zm.22,5V46.4l.22,1.61H441l.22-.92L441,45.48V43.19Zm.22,4.59v.91H441v-.91ZM441,13.35v.91h.22v-.91Zm.22,3.9L441,18.4l.22.23h.21V17.25Zm0,8v1.61h.43V25.28Zm.21,5.51V31h.44v-.23Zm.44-24.56v.69h.44V6.69Zm.22,3-.22.23V9.9l.44.46.22-.23V9.67Zm0,1.61v.46h.22v-.46Zm.65,19.28V31h.44v-.46Zm.22,3.45.22.23h.22v-.69Zm.22-28.93V6.46h.43V5.08Zm0,29.38v.47h.22V34Zm.43,14.7v.68h.22l.22-.68Zm1.31,4.13.22,2.06h.22l.43-.46V53.29l-.43-.46Zm.44,4.59v.92h.22l.21-.69-.21-.23Zm.43-27.09v.46h1.31V30.1h-.22Zm0,2.53v.69H446l.44-.46-.22-.23ZM446,6.23V7.84h.44V6.69ZM446.18,51v3l.65.68.44-.68v-.69a4,4,0,0,1-.87-2.3Zm3.71-1.61h.43l.22,2.3v.23l-.22.23.22.23v3.44l.22.23-.22.23v3l-1.09.22c-.73,0-1.09-.15-1.09-.46l-.87.46c-.73-.19-1.09-.42-1.09-.68.73,0,1.09-.23,1.09-.69l.87.46.22-.23v-.23l-.22-3.45.44-.91-.44-2.3.22-.69H449l.65.46.22-1.15Zm-3.06-16.06.44.46h.44v-.92h-.44Zm1.75-30.07v.68h.22V3.25Zm.44,45.9.21.23v.23l-.43.46-.22-.23v-.23Zm.43,3.91v.46h-.22l.22.69h.22l.44-.46v-.23l-.44-.46Zm.22-5.05h.22l.43.46v.23h-.21l-.44-.46Z"/></g></g></svg>